<?xml version="1.0" encoding="utf-8" ?><svg xmlns="http://www.w3.org/2000/svg" xmlns:xlink="http://www.w3.org/1999/xlink" width="1024" height="1024" viewBox="0 0 1024 1024"><path d="M363.969 343.068C355.169 310.913 353.49 275.104 372.214 245.959C374.184 242.891 377.573 239.761 379.252 236.67C382.086 231.129 384.63 225.574 387.463 220.019C406.754 182.262 454.889 158.59 496.49 166.709C515.484 170.416 524.728 181.194 538.055 193.413C539.484 194.723 550.866 198.834 553.881 200.567C570.04 209.854 579.89 223.048 589.833 238.315C606.741 236.701 662.388 232.134 652.19 264.267C645.887 284.129 618.635 301.906 600.449 311.702C607.26 339.197 606.831 372.008 591.711 396.63C584.212 408.842 575.58 415.326 563.791 422.72C562.819 437.915 561.571 451.898 560.927 467.33C591.825 482.787 620.997 496.018 649.145 467.669C641.419 456.02 637.564 446.477 649.205 435.58C646.387 419.421 647.182 393.722 659.841 381.323C666.332 374.966 673.517 374.331 682.05 374.59C683.999 369.82 687.528 363.87 691.387 360.467C707.768 346.025 726.951 344.122 733.538 368.7C735.542 368.209 737.58 367.868 739.635 367.681C756.113 366.046 759.078 377.833 759.979 391.115C764.567 391.498 768.2 392.07 772.014 394.916C775.356 397.394 777.557 401.117 778.117 405.241C778.82 410.066 776.945 417.594 773.378 421.38C757.052 438.706 736.046 457.052 716.159 470.033C712.731 472.271 706.183 473.198 702.692 473.669C697.423 486.831 689.566 489.491 676.467 486.093C664.018 495.349 658.984 502.589 642.582 508.269C614.262 518.074 584.302 510.953 558.147 498.711C556.859 507.784 556.49 519.314 555.42 528.882C566.843 530.687 568.515 533.349 569.668 543.822C570.972 555.662 556.21 558.073 554.793 561.85C556.574 562.899 560.108 561.862 562.868 563.166C570.174 566.618 570.67 577.533 567.769 584.036C565.039 590.156 557.149 592.288 551.229 594.356C551.315 600.303 550.417 608.133 549.876 614.228C548.843 611.74 550.003 608.703 548.614 605.996C547.815 614.432 546.705 624.156 546.376 632.528C532.838 640.535 538.344 663.979 539.169 676.808C539.561 682.912 536.686 690.253 531.229 693.689C530.629 694.06 530.018 694.413 529.395 694.746L531.589 695.975C525.589 698.912 524.044 698.41 517.856 698.636C495.541 699.448 490.471 694.575 486.738 672.976C478.552 685.57 468.267 695.88 456.6 705.205C458.94 707.977 461.753 711.52 464.405 713.875C460.005 717.077 454.458 721.701 450.397 725.274C456.927 732.152 454.473 736.971 452.12 745.12L452.693 745.585C455.605 745.382 467.112 734.94 474.058 733.042C498.078 726.478 498.438 763.025 477.494 763.466C470.888 763.605 463.147 758.849 459.536 765.682C461.288 769.374 464.395 775.767 466.667 779.357C466.756 779.497 469.064 780.629 469.111 780.703C471.971 785.165 472.901 791.844 476.349 796.405C480.055 801.307 485.228 802.99 488.635 807.38C495.272 815.93 498.593 827.546 498.727 838.243C498.823 845.96 498.08 848.742 499.357 856.567C497.429 861.745 495.15 866.786 492.533 871.653C462.033 878.244 424.077 871.347 397.147 856.221C391.159 852.858 383.885 848.077 379.042 843.19C369.583 833.644 362.171 821.821 353.41 811.611C344.902 801.696 334.563 793.917 326.56 783.587C323.768 779.982 320.547 775.271 319.261 770.882C320.993 765.548 324.173 758.791 327.142 753.92C329.241 751.5 331.346 751.855 333.488 749.206C348.006 731.261 364.932 706.15 387.966 699.217C392.437 697.871 397.03 700.288 400.387 702.81C411.304 694.979 427.911 679.932 438.218 674.216L440.624 680.203C459.13 665.643 471.414 644.597 474.989 621.323C461.226 623.329 454.211 616.638 457.972 601.964C460.011 594.008 467.287 592.298 473.926 589.079C470.78 589.105 467.995 589.648 464.842 588.761C456.243 586.34 455.159 576.651 458.009 569.368C459.979 564.333 463.474 561.248 468.539 559.034C464.479 540.585 461.512 516.907 458.812 497.955C456.727 498.557 454.147 498.979 451.986 499.523C415.261 508.769 393.716 523.47 373.884 555.127L374.449 555.548C388.154 565.981 384.901 574.144 375.64 585.922C381.561 604.248 387.768 630.138 381.419 649.046C377.402 661.008 361.855 666.24 355.294 653.16C354.13 650.84 353.436 644.458 351.147 643.527C349.609 644.32 349.224 645.127 348.195 646.534L347.787 647.1C348.854 652.2 349.329 656.645 347.847 661.763C346.057 667.731 341.871 672.689 336.288 675.456C324.618 681.329 315.233 675.241 310.079 664.458C294.184 663.551 281.426 660.939 281.839 641.194C270.339 635.758 262.662 628.538 268.562 614.723C278.097 592.395 298.4 572.153 320.272 561.733C319.147 557.251 318.931 552.285 320.752 547.953C322.207 544.428 325.086 541.685 328.677 540.402C334.866 538.151 340.582 540.267 346.146 542.862C366.959 502.16 409.473 475.433 454.267 469.337C452.246 458.385 450.876 447.219 448.912 436.207C426.172 424.66 411.139 408.332 402.657 384.236C372.365 387.616 345.028 378.29 363.969 343.068Z"/><path fill="#ADADB5" d="M507.823 609.602C520.663 604.458 535.79 599.849 549.055 595.327C548.959 598.871 548.689 602.38 548.614 605.996C547.815 614.432 546.705 624.156 546.376 632.528C532.838 640.535 538.344 663.979 539.169 676.808C539.561 682.912 536.686 690.253 531.229 693.689C530.629 694.06 530.018 694.413 529.395 694.746C523.272 696.373 520.304 696.198 514.245 696.523C496.112 697.494 488.088 686.816 489.788 669.678C490.084 666.693 492.337 662.598 493.787 659.708C501.611 644.126 505.008 626.684 507.823 609.602Z"/><path fill="#ADADB5" d="M539.201 277.219C554.116 276.81 569.875 279.692 584.315 283.277L585.007 284.46C605.549 319.695 611.033 366.388 585.651 401.126C578.978 410.258 571.195 415.641 561.555 421.17C561.488 441.666 557.77 466.97 555.472 487.519C554.938 492.286 555.336 498.056 555.196 502.999C554.864 512.11 554.097 521.199 552.897 530.237C526.74 539.993 497.628 548.43 470.913 557.973L465.048 522.613C463.711 514.394 462.466 506.16 461.313 497.912C468.701 497.676 480.82 499.205 485.996 493.548C488.629 490.68 489.904 486.525 489.589 482.634C488.116 464.436 468.999 467.531 456.718 468.637C455.424 461.544 454.193 454.441 453.024 447.327C452.722 445.371 451.646 439.681 452.683 438.26C453.756 438.135 454.828 437.996 455.898 437.844C455.613 435.932 448.756 433.29 446.695 432.253C442.248 430.026 438.013 427.396 434.045 424.396C412.298 407.898 402.887 383.828 399.298 357.511C433.27 312.5 481.956 280.593 539.201 277.219Z"/><path d="M503.585 308.154C514.422 308.78 518.099 312.904 522.097 322.557C519.238 325.455 515.361 328.661 512.242 331.381C516.417 333.097 519.526 334.579 523.563 336.625C523.557 345.737 522.822 350.339 515.339 356.245C489.875 367.526 480.718 332.316 490.704 315.442C493.392 310.901 498.59 309.015 503.585 308.154Z"/><path d="M559.906 305.102C571.162 304.316 575.329 307.857 579.78 317.801C577.044 321.03 573.026 324.616 569.886 327.582C573.714 329.145 577.758 330.582 581.646 332.026C581.628 333.812 581.556 335.597 581.43 337.379C580.855 344.528 579.284 347.732 573.95 352.231C572.402 353.159 570.738 353.876 569 354.364C547.03 360.751 539.843 327.627 547.979 313.087C550.694 308.234 554.855 306.468 559.906 305.102Z"/><path d="M566.131 365.422C568.76 366.523 576.232 371.293 575.263 374.571C573.354 375.109 571.876 372.644 571.097 373.362C551.366 391.538 523.235 395.752 500.565 380.302C499.291 379.434 498.573 378.817 496.998 378.004C495.524 378.069 494.662 379.041 493.447 380.001L493.091 379.648C492.073 376.204 498.206 370.715 500.503 371.742C500.805 373.356 500.013 374.29 499.194 375.794C520.612 393.889 549.88 388.986 569.641 370.999C567.254 368.993 566.565 368.423 566.131 365.422Z"/><path fill="#F6732C" d="M471.526 167.683C513.539 164.062 536.782 189.457 552.905 225.037C554.166 227.819 556.244 232.699 558.576 234.583L558.867 233.775C557.512 224.843 545.272 205.427 540.146 196.765C560.655 203.458 576.213 220.997 587.218 238.796C582.82 239.199 578.432 239.703 574.057 240.307C503.856 250.255 410.383 281.263 365.926 340.345C358.344 318.005 357.552 283.432 367.132 261.737C379.237 234.326 393.026 223.1 419.377 211.974C423.251 210.567 427.238 209.495 431.295 208.768C448.906 205.758 464.115 211.153 477.052 223.251C481.676 227.575 486.492 233.483 491.501 236.99L492.114 237.414C485.435 223.359 467.924 210.885 453.057 207.031C433.211 201.887 413.829 210.271 396.929 220.081C400.594 213.353 405.302 207.248 410.878 201.994C444.427 170.431 480.225 191.851 498.873 226.24C501.248 230.62 505.326 239.143 508.279 242.353L508.923 242.284C508.189 233.101 493.066 212.304 486.813 204.898C462.286 175.848 424.488 178.41 401.736 208.036C395.491 216.168 393.953 222.097 385.676 229.512C388.739 221.851 392.865 214.659 397.934 208.148C416.294 184.374 442.152 171.563 471.526 167.683Z"/><path fill="#FEFDFD" d="M331.013 541.519C336.775 541.241 339.358 541.483 344.566 544.402C343.715 546.439 343.099 548.336 341.716 550.032L339.277 549.698L338.706 550.154C339.561 557.567 368.279 570.047 370.358 564.646C369.251 564.077 369.251 564.11 368.363 563.252C369.101 561.118 371.049 559.04 372.516 557.213C385.102 565.32 383.803 575.198 373.48 584.472L356.405 584.552C363.23 587.249 365.878 587.26 373.041 586.46C375.728 593.329 377.808 600.42 379.258 607.651C381.522 619.038 384.658 643.627 377.122 653.044C366.402 666.439 355.74 654.386 354.169 641.376C356.521 638.986 357.268 637.747 359.116 634.96C353.038 637.482 350.551 640.32 346.024 645.072C344.116 647.075 339.162 652.529 339.279 655.241L340.209 655.149C342.665 653.685 344.311 651.297 346.106 649.054C347.603 663.348 342.143 673.455 326.962 675.045C310.598 671.72 310.217 659.107 312.435 645.441C313.017 641.857 314.647 636.895 313.533 633.515L312.839 633.219C308.703 638.316 309.028 655.581 309.555 661.92C302.937 661.783 296.742 661.513 290.927 657.978C276.638 649.288 290.315 625.739 289.184 620.731L288.372 620.631C285.097 623.775 282.902 634.135 281.687 638.8C272.356 633.608 266.122 626.707 270.99 615.377C280.316 593.67 299.807 573.909 321.268 564.111C325.021 570.194 326.763 572.495 333.345 575.284C330.708 571.11 327.103 567.975 324.515 563.816C318.016 553.372 321.387 547.025 331.013 541.519Z"/><path fill="#FEFDFD" d="M740.432 369.515C755.045 369.644 757.189 379.404 757.568 391.714C746.056 395.679 733.471 406.139 727.725 416.66C732.735 413.51 735.761 410.072 739.981 406.02C745.667 400.562 752.76 393.39 761.241 393.687C769.846 393.989 776.736 400.511 775.628 409.412C775.302 412.144 774.04 416.841 772.332 418.965C762.746 430.883 749.703 440.087 738.326 450.22C730.902 456.717 714.38 471.026 704.609 471.385C702.482 471.463 690.448 468.7 686.018 468.319C691.068 471.388 694.258 472.134 699.922 473.839C697.824 477.979 695.275 482.548 690.498 483.842C673.018 488.58 651.619 471.986 645.595 456.278C643.52 450.867 644.526 445.901 646.854 441.2L649.471 438.312C652.41 443.895 659.78 453.919 665.783 455.849L666.34 455.522C666.172 452.409 660.532 449.653 657.51 446.015C654.777 442.74 652.787 438.911 651.677 434.793C648.187 422.136 650.64 399.841 656.957 389.007C668.211 369.706 684.769 375.596 698.772 387.02C700.695 388.589 705.862 390.005 708.17 391.705C709.781 392.89 711.182 393.71 711.518 396.006C711.937 399.07 710.985 401.427 709.411 403.783C698.003 420.859 683.372 404.687 677.263 405.819C679.022 409.097 686.352 412.178 689.675 413.527C692.927 419.368 694.797 424.84 694.666 431.683C694.602 435.021 691.869 438.52 693.226 441.21C702 439.106 695.063 418.912 693.209 413.624C705.917 413.736 716.524 406.931 713.686 392.977C720.888 382.601 728.204 373.616 740.432 369.515Z"/><path d="M720.301 418.37C724.013 419.809 731.625 425.367 732.225 429.562C728.637 428.27 724.459 424.896 721.785 422.142C719.957 420.259 720.239 420.413 720.301 418.37Z"/><path fill="#F6732C" d="M606.373 239.71C687.472 234.984 640.874 288.902 599.846 309.274L595.065 296.743C617.626 274.759 608.699 259.075 578.626 260.297C512.161 262.997 437.294 285.364 389.764 334.033C383.872 340.44 375.038 351.572 373.359 360.235C371.037 372.216 391.773 372.029 399.033 372.387C399.8 375.377 401.024 378.926 401.973 381.912C388.224 382.416 361.213 383.816 359.956 364.662C358.883 348.312 376.043 330.839 387.183 320.928C431.38 281.606 488.506 259.423 545.777 247.469C566.134 243.22 585.721 241.168 606.373 239.71Z"/><path fill="#F6732C" d="M370.599 711.826L370.821 711.886C371.9 712.993 373.563 723.246 374.504 726.228C375.458 729.319 376.758 732.291 378.379 735.09C383.827 744.367 391.085 748.38 401.168 750.957C400.983 751.875 400.813 752.795 400.657 753.718C396.776 776.778 404.014 795.18 417.194 813.63C412.148 821.326 409.834 826.45 406.043 834.741C400.676 831.962 395.683 828.566 390.818 824.999C382.178 818.025 378.819 809.987 371.924 801.833C368.265 797.506 361.988 791.674 357.724 787.65C346.346 776.915 340.261 768.88 333.313 755.052C339.897 741.24 359.002 722.052 370.599 711.826Z"/><path fill="#FEFDFD" d="M453.804 796.172C465.844 794.191 478.579 799.166 486.222 808.627C496.357 821.172 497.367 835.003 495.951 850.471C480.053 850.973 470.572 851.193 454.877 849.306C441.54 847.677 420.167 842.263 408.378 835.668C418.553 813.285 428.096 799.711 453.804 796.172Z"/><path fill="#FEFDFD" d="M330.068 754.295C333.185 760.551 336.122 766.598 340.194 772.326C347.757 782.969 358.396 790.948 367.257 800.39C376.387 810.121 379.908 819.868 391.027 828.212C412.725 844.496 440.755 851.048 467.352 853.079C473.065 853.506 478.796 853.66 484.524 853.541C487.37 853.479 494.663 852.559 496.592 854.272C496.933 856.932 494.548 862.971 493.22 865.496C491.685 868.413 491.084 869.461 488.078 870.34C466.625 872.913 448.282 872.266 427.259 865.927C413.37 861.74 398.905 855.669 387.143 847.088C374.616 837.948 367.089 823.918 356.982 812.314C345.973 799.675 329.801 786.214 321.89 771.606C323.678 765.912 327.096 759.435 330.068 754.295Z"/><path fill="#ADADB5" d="M557.131 564.561C571.172 564.503 568.045 585.089 561.048 587.9C531.468 599.786 500.584 608.798 470.58 619.736C454.909 620.804 459.04 598.497 466.042 595.877C485.742 588.505 506.143 582.191 525.915 574.781C536.017 570.995 546.797 567.697 557.131 564.561Z"/><path fill="#ADADB5" d="M557.122 532.087C570.504 531.827 569.206 550.746 561.299 554.616C551.654 559.337 539.89 562.704 529.598 566.244C509.731 573.155 489.814 579.919 469.846 586.534C457.875 586.595 457.566 575.147 461.692 567.053C464.29 561.957 479.44 557.774 484.654 556.023L509.255 547.746L537.881 538.056C543.756 536.075 551.187 533.346 557.122 532.087Z"/><path fill="#FEFDFD" d="M436.413 677.962C437.451 678.957 437.163 682.561 437.171 684.02C429.669 690.246 419.659 698.17 414.453 706.236C421.338 702.203 431.684 692.294 437.96 686.605C439.197 689.043 440.435 691.809 441.616 694.303C434.958 699.058 423.667 708.101 419.511 714.849C426.232 711.392 436.717 701.232 442.715 695.843C444.283 697.729 446.074 699.534 447.771 701.315C442.401 706.766 430.479 715.077 427.667 720.609L428.047 720.924C431.985 719.292 436.325 715.082 439.567 712.162C442.874 709.129 446.768 705.598 450.424 703.055C451.969 704.651 453.481 706.391 454.97 708.049C448.778 713.184 442.092 718.357 436.438 724.001C429.699 724.014 427.624 723.373 426.301 730.758C424.989 730.647 423.676 730.557 422.361 730.486C408.326 729.775 406.416 736.504 406.354 748.624C402.356 745.797 399.834 744.084 396.545 740.461C388.418 732.816 390.267 717.672 397.577 709.788C408.197 698.334 424.156 687.805 436.413 677.962Z"/><path fill="#FEFDFD" d="M712.108 352.603C725.193 351.883 729.228 358.869 731.404 370.453C722.165 378.069 718.909 381.734 711.904 391.133L707.819 388.742C699.752 384.452 692.396 379.208 684.252 374.814C690.781 362.014 698.127 355.784 712.108 352.603Z"/><path fill="#F6732C" d="M404.244 750.845C410.369 753.092 409.601 754.932 414.416 757.507C416.724 758.742 424.72 758.948 426.764 761.673L426.316 762.546C421.513 765.461 416.922 764.085 411.313 763.351C409.856 765.177 406.517 769.793 407.389 772.128C409.952 778.998 424.291 773.088 429.187 771.897C430.315 775.085 431.368 778.449 432.428 781.674C426.795 782.642 409.772 782.621 412.333 791.494C413.142 794.295 414.898 795.635 417.3 797.052C424.276 794.871 426.93 792.675 435.809 790.528C437 792.817 438.149 794.556 439.545 796.701C429.672 801.536 426.672 804.435 418.792 811.934C417.427 810.073 416.145 808.153 414.951 806.178C404.414 788.817 399.318 770.894 404.244 750.845Z"/><path fill="#F6732C" d="M388.872 701.061C393.682 700.707 394.539 701.106 398.21 704.287C391.004 713.712 386.936 723.17 390.478 735.275C392.274 741.414 395.87 743.229 399.564 747.573C398.438 748.073 397.738 747.589 396.214 747.228C378.527 738.837 375.124 726.95 374.519 708.473C380.103 704.682 382.56 703.198 388.872 701.061Z"/><path fill="#FEFDFD" d="M477.428 735.114C479.97 735.087 482.829 735.382 485.04 736.714C487.579 738.253 489.384 740.755 490.045 743.649C490.971 747.607 489.963 752.149 487.654 755.463C485.635 758.386 482.525 760.375 479.024 760.981C475.283 761.643 457.406 760.589 456.677 756.369C458.682 753.64 470.555 755.645 474.196 755.951C478.958 755.268 484.64 753.675 484.388 747.624C484.257 744.478 481.94 741.223 478.554 741.162C470.507 741.017 464.571 748.007 457.375 750.125C456.784 750.298 456.64 749.84 456.308 749.458C456.151 743.652 472.122 736.199 477.428 735.114Z"/><path fill="#FEFDFD" d="M417.463 732.469C422.081 732.803 426.607 733.933 430.841 735.807C435.421 737.848 441.565 741.514 443.402 746.328L442.927 747.348C438.819 748.326 420.061 729.078 415.154 742.724C414.193 745.397 415.379 747.522 416.593 749.923C425.398 754.983 434.337 750.497 438.765 753.141C439.03 754.824 439.429 755.352 438.845 756.626C435.564 758.324 432.42 757.653 428.688 757.669C418.05 757.713 405.201 752.662 409.205 739.564C410.319 735.919 414.096 733.969 417.463 732.469Z"/><path fill="#FEFDFD" d="M429.904 726.524C434.804 726.409 440.188 726.118 445.035 726.839C454.972 728.317 451.38 737.77 449.583 744.067C447.326 745.923 442.75 741.472 440.93 739.812C437.744 736.905 431.813 734.469 429.18 731.491C428.801 729.498 429.304 728.544 429.904 726.524Z"/><path fill="#FEFDFD" d="M466.056 781.744C467.513 781.985 466.821 781.753 468.04 782.749C468.711 784.82 468.775 783.877 468.285 785.676C466.089 786.381 461.652 786.085 459.11 786.148C447.407 786.441 436.548 788.085 425.124 790.555C422.907 789.678 423.727 790.365 422.396 788.655C422.097 782.536 460.432 782.07 466.056 781.744Z"/><path fill="#ADADB5" d="M550.291 561.959C551.155 561.845 550.924 561.898 551.826 562.107L551.755 562.864C548.4 565.06 535.143 569.169 530.803 570.675C512.849 577.018 494.815 583.137 476.708 589.03L475.444 589.005L475.339 588.449C480.63 584.433 541.116 565.058 550.291 561.959Z"/><path fill="#FEFDFD" d="M446.327 763.703C448.221 763.499 454.16 763.78 452.631 766.991C451.675 767.578 428.243 769.979 424.378 770.678C421.733 771.243 419.111 772.277 417.287 769.966C417.118 767.979 416.891 768.836 417.71 767.249C421.765 765.312 440.728 764.195 446.327 763.703Z"/><path fill="#FEFDFD" d="M445.261 747.492C456.391 747.507 457.712 752.441 451.464 760.488C442.511 760.276 437.664 754.687 445.261 747.492Z"/><path fill="#FEFDFD" d="M477.097 743.479C479.551 743.721 483.073 745.087 482.231 747.866C480.148 754.738 470.537 753.518 466.03 753.001L460.06 752.328C465.464 748.101 470.717 745.745 477.097 743.479Z"/><path fill="#FEFDFD" d="M453.415 788.704C455.694 788.392 460.677 788.503 463.165 788.499L464.717 793.492C459.142 793.461 455.376 793.423 449.861 794.129C446.714 794.651 443.629 795.453 440.526 796.2L439 790.178C443.72 789.597 448.667 789.178 453.415 788.704Z"/><path fill="#FEFDFD" d="M439.988 770.679C444.077 770.165 455.081 770.205 459.235 770.984C460.557 771.231 460.834 772.03 461.426 773.022C461.465 775.096 461.785 774.258 460.861 775.759C459.254 776.411 456.936 775.85 455.12 775.609C446.261 774.76 438.298 773.936 429.573 772.129L439.988 770.679Z"/><path fill="#FEFDFD" d="M456.683 710.391C458.282 711.069 459.491 712.441 460.767 713.665C458.499 715.532 456.169 717.645 453.848 719.396C451.036 721.518 449.12 724.47 445.624 724.572C443.633 724.518 441.487 724.325 439.488 724.185C444.842 719.55 450.942 714.49 456.683 710.391Z"/><path fill="#FEFDFD" d="M420.132 740.027C428.095 739.947 428.34 748.27 424.362 749.967C418.191 748.666 414.63 745.353 420.132 740.027Z"/><path fill="#FEFDFD" d="M433.135 775.429C437.858 775.924 452.455 777.217 456.55 778.717L456.276 779.017C451.375 779.877 440.15 780.389 434.814 780.676L433.135 775.429Z"/><path fill="#FEFDFD" d="M429.047 742.914C432.116 744.371 436.799 746.491 438.73 749.212L438.374 750.095C435.057 750.133 431.74 750.206 428.424 750.316L429.047 742.914Z"/><path fill="#F6732C" d="M416.562 786.072C421.574 787.366 420.604 790.515 419.184 794.137C414.211 792.545 414.964 790.023 416.562 786.072Z"/><path fill="#FEFDFD" d="M437.798 759.717C439.43 759.581 440.299 759.785 441.925 759.972L442.031 760.761L442.324 760.686C439.932 762.111 437.864 762.093 435.119 762.366C433.508 762.56 431.303 763.094 430.298 761.622C432 759.47 435.281 759.781 437.798 759.717Z"/><path fill="#F6732C" d="M465.256 788.45C470.747 788.25 471.11 791.332 473.323 795.828C468.071 794.532 467.471 793.129 465.256 788.45Z"/><path fill="#F6732C" d="M412.571 766.197C415.834 768.155 414.758 771.194 413.527 774.02C410.541 770.672 410.481 770.074 412.571 766.197Z"/><path d="M548.614 605.996C550.003 608.703 548.843 611.74 549.876 614.228C549.557 620.433 548.884 626.205 548.032 632.355C558.562 641.694 564.447 653.853 571.274 665.944C575.956 674.238 580.163 682.878 584.852 691.174C585.75 692.763 588.789 690.944 589.818 692.661C594.18 698.388 598.298 706.335 601.746 712.597C617.127 688.421 629.918 709.616 638.636 724.373C641.398 713.68 647.183 692.721 662.116 696.777C670.697 699.108 673.979 711.28 671.55 719.013C670.018 723.893 661.665 729.22 661.6 731.563C664.816 732.347 671.274 730.981 674.852 730.59C678.012 730.245 685.332 731.806 687.424 731.472C698.631 729.681 712.747 724.452 724.363 728.527L723.593 729.344C722.19 729.37 720.685 729.352 719.3 729.49C711.347 729.252 705.985 729.159 698.445 732.158C672.302 742.553 667.818 768.558 674.419 792.918C703.23 773.773 721.381 764.002 754.908 755.609C748.201 745.276 741.487 737.759 729.996 732.636C729.99 731.749 730.589 731.423 731.353 730.529C741.603 735.238 747.458 742.008 754.535 750.425C757.304 753.718 760.368 756.995 762.356 760.836C765.187 766.305 766.904 772.848 764.927 778.875C760.206 793.262 717.314 814.666 704.505 822.995C688.893 833.145 674.399 844.716 657.717 853.156C640.401 861.916 620.925 868.444 601.561 870.189C598.453 870.469 593.785 871.008 590.865 869.831C585.68 867.743 582.158 855.256 580.419 850.263C580.86 849.036 581.814 846.429 581.343 845.288C572.237 823.225 562.105 800.832 558.675 776.979C557.45 768.462 559.299 761.257 565.997 755.385C560.716 743.394 551.765 725.645 545.514 714.448C549.891 711.821 553.204 710.199 557.773 708.001C552.363 694.302 548.867 687.211 541.821 674.345C540.839 684.225 540.204 689.888 531.589 695.975L529.395 694.746C530.018 694.413 530.629 694.06 531.229 693.689C536.686 690.253 539.561 682.912 539.169 676.808C538.344 663.979 532.838 640.535 546.376 632.528C546.705 624.156 547.815 614.432 548.614 605.996Z"/><path fill="#F6732C" d="M609.093 771.079C614.609 773.629 620.599 775.38 626.433 777.044L626.223 792.595L634.471 792.48L634.26 777.754C646.535 779.61 656.731 780.153 669.123 780.539C669.695 785.715 670.978 789.827 672.541 794.765C654.134 810.009 644.693 818.302 623.631 829.482C609.884 836.145 599.008 839.834 584.376 843.96C574.321 827.423 566.337 800.835 562.14 781.832C582.242 789.046 594.097 786.585 609.093 771.079Z"/><path fill="#FEFDFD" d="M756.093 758.118L757.197 758.161C760.955 760.471 762.359 767.87 763.514 772.116C733.098 780.212 704.671 795.289 679.304 813.745C666.894 822.774 653.145 834.283 639.953 841.902C623.789 851.237 607.047 854.537 590.314 864.548C587.393 863.207 581.99 851.784 583.24 848.296C590.188 844.063 598.665 842.199 606.484 839.384C616.315 835.794 625.846 831.43 634.987 826.333C648.195 818.807 662.263 806.484 674.222 797.17C698.215 778.483 726.237 764.326 756.093 758.118Z"/><path fill="#FEFDFD" d="M588.022 694.036C600.683 708.483 596.57 722.103 616.21 735.578C608.067 736.974 598.372 740.143 595.158 748.633C594.037 751.592 594.14 754.875 595.443 757.758C597.932 763.237 603.199 765.528 608.39 767.523L604.607 771.38C597.35 772.266 590.597 771.906 583.591 769.648C570.628 765.47 566.53 751.498 561.182 740.358L548.932 715.277C550.643 714.256 552.544 713.266 554.304 712.305C558.184 719.513 563.083 729.499 568.077 735.996C568.881 737.042 569.381 736.752 570.611 736.734C569.592 732.86 559.466 716.494 556.851 711.125L563.314 707.591C566.736 714.834 573.238 729.334 579.171 734.148C576.737 725.789 569.452 714.784 565.276 706.411C567.312 705.316 569.724 704.216 571.829 703.192C574.703 709.118 581.769 720.901 585.231 727.173C585.595 727.332 585.959 727.491 586.323 727.65L587.166 727.17C587.223 725.783 575.312 704.8 573.868 702.098C575.857 700.895 577.935 699.852 579.997 698.775C582.699 702.796 591.738 721.34 594.675 722.304C595.487 718.497 591.521 713.862 589.724 710.795C587.192 706.473 585.031 702.149 582.917 697.615L588.022 694.036Z"/><path fill="#F6732C" d="M566.387 757.922C568.564 760.356 570.085 764.28 572.772 766.776C580.483 773.937 592.624 774.513 602.463 774.399C599.282 776.797 597.504 778.014 594.069 780.016C582.609 785.226 572.526 784.497 561.717 778.363C560.797 770.149 560.417 764.209 566.387 757.922Z"/><path fill="#F6732C" d="M666.281 748.454C668.978 748.702 671.836 749.17 674.531 749.555C669.77 760.723 669.21 765.776 668.951 777.982C657.37 777.414 646.671 776.922 635.176 775.268C634.737 773.337 635.95 768.57 636.405 766.439C636.844 766.996 637.294 767.545 637.755 768.084C642.718 773.83 645.174 771.219 649.604 767.193C653.266 769.961 656.175 772.225 660.791 769.854C663.452 766.92 661.923 763.94 660.086 761.112C661.69 756.095 663.534 752.907 666.281 748.454Z"/><path fill="#FEFDFD" d="M656.062 698.444C673.204 698.902 674.015 720.664 660.759 727.869C658.309 729.2 651.204 733.902 648.834 733.409C647.811 732.153 647.646 732.263 647.339 730.783C653.413 724.989 656.427 727.768 663.408 717.439C664.535 713.739 663.475 706.081 659.363 705.083C650.753 702.995 646.738 727.149 643.499 729.165L642.069 728.763C641.281 727.718 640.865 727.16 641.234 725.741C644.292 714.006 645.509 705.502 656.062 698.444Z"/><path fill="#FEFDFD" d="M628.384 737.075C630.06 738.052 629.536 737.403 630.375 738.824C628.957 743.333 609.452 743.669 605.369 748.118C604.541 748.632 602.907 750.801 603.218 751.843C608.924 770.967 627.629 746.585 631.046 742.377C632.104 743.411 632.282 743.663 633.15 744.874C632.998 746.915 632.74 746.575 631.175 748.535C625.454 754.949 616.246 766.105 606.48 764.11C600.189 762.824 595.983 755.321 597.622 749.24C599.702 741.523 610.934 738.79 617.925 738.67C621.7 738.571 625.111 739.098 628.384 737.075Z"/><path fill="#FEFDFD" d="M614.725 704.485C623.77 704.469 627.981 710.553 632.154 717.631C633.512 719.934 637.109 726.908 634.367 728.802C631.477 727.721 627.428 718.468 624.72 715.497C622.528 713.092 622.239 712.745 619.652 710.632C613.91 712.781 610.401 713.96 611.518 720.674C614.278 724.897 619.028 729.118 623.344 731.74C625.536 733.072 627.259 733.592 629.386 735.239L628.736 735.86C617.848 737.196 588.271 716.475 614.725 704.485Z"/><path fill="#FEFDFD" d="M617.738 713.429C618.388 713.701 619.397 714.176 619.979 714.514C622.851 716.186 631.933 728.734 630.05 731.404L628.313 731.43C623.96 729.076 613.718 724.154 613.773 718.175C613.794 715.889 616.026 714.624 617.738 713.429Z"/><path fill="#FEFDFD" d="M673.275 732.381C674.263 732.672 673.862 732.392 674.474 733.227C672.778 738.353 666.029 744.569 663.311 749.118C660.386 754.013 659.051 759.023 655.519 763.799C654.229 763.127 654.784 763.566 654.013 762.27C653.625 754.63 666.459 735.822 673.275 732.381Z"/><path fill="#FEFDFD" d="M636.683 730.998C646.777 731.102 649.255 735.408 641.075 742.158C633.836 744.868 628.231 737.326 636.683 730.998Z"/><path fill="#FEFDFD" d="M656.761 707.704C659.862 708.226 662.808 710.387 661.884 713.874C660.487 719.147 655.77 722.229 651.538 724.932L647.695 726.581C649.854 719.909 652.903 713.559 656.761 707.704Z"/><path fill="#FEFDFD" d="M654.491 734.423L655.224 735.013L655.213 736.067C652.331 740.275 651.294 742.132 649.108 746.673C646.513 752.063 645.471 760.563 641.415 764.184C640.787 763.396 640.797 763.295 640.33 762.387C640.09 755.467 645.986 744.134 648.953 737.509L654.491 734.423Z"/><path fill="#FEFDFD" d="M635.383 747.508C635.443 747.931 632.689 772.915 632.407 774.203C630.987 775.827 631.276 775.343 628.838 776.071C626.928 767.422 629.792 754.477 635.383 747.508Z"/><path fill="#F6732C" d="M619.44 763.443L620.169 763.592C621.708 767.589 626.295 768.923 626.376 772.673L625.581 773.503C623.598 773.995 622.439 773.328 620.377 772.657C617.7 771.799 613.878 770.971 612.189 768.882L612.335 767.713C614.005 765.818 617.07 764.615 619.44 763.443Z"/><path fill="#FEFDFD" d="M615.563 746.522C616.224 748.351 616.816 749.66 617.634 751.43L618.237 752.232C615.03 754.842 609.804 758.408 606.373 753.951C605.495 748.537 611.627 747.557 615.563 746.522Z"/><path fill="#F6732C" d="M654.945 749.003C655.274 750.017 654.518 751.833 653.928 752.742C651.897 755.868 652.11 764.949 648.839 766.065C648.511 764.934 648.052 763.401 647.837 762.26C647.1 758.194 648.021 754.002 650.395 750.619L651.761 751.087L654.945 749.003Z"/><path fill="#FEFDFD" d="M672.457 740.415L680.13 740.518L675.813 746.731L667.899 746.18L672.457 740.415Z"/><path fill="#FEFDFD" d="M656.984 738.853L662.581 740.384C661.128 742.553 659.714 744.874 657.382 746.058L651.347 747.38C653.403 743.803 654.471 742.092 656.984 738.853Z"/><path fill="#F6732C" d="M687.284 733.246L687.533 733.229L687.887 733.637C683.028 737.907 682.366 738.071 676.462 737.963L675.754 737.735C676.051 736.082 677.242 734.961 678.354 733.532C681.294 733.486 684.335 733.344 687.284 733.246Z"/><path fill="#FEFDFD" d="M628.769 778.124L630.741 778.617C632.526 780.898 631.723 787.903 631.566 791.055C630.779 790.784 630.128 790.508 629.359 790.192C627.616 787.376 628.514 781.601 628.769 778.124Z"/><path fill="#FCB37D" d="M618.797 745.97L626.974 744.1C623.802 747.346 621.767 749.449 618.237 752.232L617.634 751.43C618.331 749.147 618.502 748.339 618.797 745.97Z"/><path fill="#F6732C" d="M626.694 757.378L626.98 757.643C627.879 759.693 626.188 763.52 624.351 764.733C623.372 763.431 622.97 763.132 622.876 761.499C623.434 759.714 625.191 758.619 626.694 757.378Z"/><path fill="#FCB37D" d="M638.83 747.847L641.02 748.73C639.743 751.549 637.463 758.642 636.236 761.948C636.59 757.689 637.974 752.224 638.83 747.847Z"/><path fill="#FEFDFD" d="M638.83 747.847C640.214 745.144 641.27 744.589 643.883 743.012C643.04 744.686 641.735 747.076 641.02 748.73L638.83 747.847Z"/><path fill="#FEFDFD" d="M724.363 728.527C725.749 728.865 730.848 730.443 731.353 730.529C730.589 731.423 729.99 731.749 729.996 732.636C741.487 737.759 748.201 745.276 754.908 755.609C721.381 764.002 703.23 773.773 674.419 792.918C667.818 768.558 672.302 742.553 698.445 732.158C705.985 729.159 711.347 729.252 719.3 729.49C720.685 729.352 722.19 729.37 723.593 729.344L724.363 728.527Z"/><path d="M724.363 728.527C725.749 728.865 730.848 730.443 731.353 730.529C730.589 731.423 729.99 731.749 729.996 732.636C726.086 731.251 723.342 730.496 719.3 729.49C720.685 729.352 722.19 729.37 723.593 729.344L724.363 728.527Z"/></svg>