<?xml version="1.0" encoding="utf-8" ?><svg xmlns="http://www.w3.org/2000/svg" xmlns:xlink="http://www.w3.org/1999/xlink" width="1024" height="1024" viewBox="0 0 1024 1024"><path d="M702.116 226.59L700.374 238.451C703.498 240.154 708.373 242.623 711.219 244.518C707.337 245.549 703.653 246.277 699.72 247.068C699.276 248.966 698.682 250.917 698.755 252.844L699.032 253.092C706.594 255.243 710.713 256.985 715.857 263.441C728.764 262.269 737.251 266.053 742.428 278.427C749.073 280.548 752.624 282.415 756.207 289.06C762.284 300.334 759.018 319.282 755.018 330.805C749.767 345.935 743.72 355.506 729.307 362.684C730.086 379.965 718.529 380.699 704.985 380.468C683.761 429.637 649.041 471.786 604.845 502.031C595.571 508.478 582.95 517.359 572.228 520.734C569.896 532.334 569.254 544.639 567.582 556.283C572.393 557.598 574.584 558.091 577.472 562.827C579.374 565.945 579.639 570.539 578.629 574.036C577.519 577.922 574.864 581.182 571.283 583.055C568.922 584.294 566.152 585.472 563.723 586.65C568.96 587.275 572.474 587.394 576.024 591.878C581.277 598.513 578.572 609.012 571.693 613.357C568.846 615.155 564.564 616.524 561.407 617.638C560.152 626.492 558.984 637.53 557.492 646.185C577.248 671.175 594.639 717.145 601.941 747.951C604.95 746.815 608.543 745.357 611.578 744.474C613.128 753.441 614.44 763.458 615.63 772.529C624.095 774.541 624.324 775.925 629.609 783.084C631.099 779.276 632.981 775.961 636.969 774.242C640.011 772.958 643.448 772.986 646.47 774.318C650.265 775.97 653.658 779.757 654.952 783.622C659.067 795.906 651.102 801.295 640.881 803.986C641.879 805.901 643.021 808.249 644.151 810.045C651.662 813.895 653.074 813.976 658.806 820.659C687.186 827.104 698.1 852.112 695.755 880.209C695.381 884.681 682.216 885.651 678.737 886.616C646.884 891.409 612.379 889.86 581.689 879.598C575.075 877.386 558.956 870.965 554.868 864.895C550.929 859.047 557.129 849.486 557.79 844.202C559.833 827.88 560.528 810.302 565.361 794.498C566.316 791.383 568.59 789.139 571.454 787.622C570.175 778.414 566.77 758.406 566.393 749.983C568.773 749.996 571.246 749.97 573.616 750.055C566.483 726.447 562.46 711.618 551.249 689.629C550.533 695.316 548.828 706.28 548.55 711.891C547.387 735.384 538.567 743.337 514.936 740.329C509.618 739.652 503.844 736.228 500.631 731.821C494.713 720.459 495.5 699.77 493.416 686.96C484.861 700.428 478.116 727.934 475.536 743.783C478.171 743.76 480.969 743.66 483.579 743.889C483.372 753.061 481.8 766.687 480.839 776.088C479.665 773.132 481.453 771.653 479.625 768.453C479.249 772.172 478.748 776.264 478.625 779.962C479.97 780.988 479.898 780.89 480.469 782.482C480.718 782.908 480.746 783.129 481.237 783.355C483.013 784.173 487.397 788.616 487.934 790.412C492.987 807.328 493.565 827.075 494.764 844.635C494.944 847.269 497.033 851.707 497.064 854.528C497.096 857.433 496.685 860.159 495.889 862.853C495.322 864.771 494.47 865.808 492.676 866.611C487.247 869.039 479.067 870.433 473.321 871.767C437.992 879.969 358.611 884.634 324.711 873.028C322.609 863.594 325.278 857.296 327.01 848.354C330.391 830.884 341.31 814.961 359.705 811.442C363.705 810.677 368.757 811.655 372.654 810.797C376.866 809.87 381.654 805.727 385.51 803.796C388.798 802.081 394.448 803.389 396.046 799.098C395.777 794.299 381.342 788.382 385.945 777.706C394.802 757.167 409.595 766.564 416.913 782.45C418.398 778.671 419.333 776.124 421.354 772.633C426.479 769.694 429.67 769.97 435.423 770.052C435.566 763.299 436.89 745.514 438.319 739.146C441.104 739.819 444.468 740.925 447.264 741.764C454.197 704.475 463.311 674.813 487.56 644.845C488.4 643.806 488.199 643.434 487.928 642.394C485.207 640.899 480.192 641.94 477.902 640.68C469.889 636.268 470.479 621.523 477.751 616.581C479.901 615.119 484.797 613.321 485.571 611.772C484.407 610.839 481.015 610.951 479.351 610.436C471.923 608.173 470.714 600.435 472.794 593.816C474.698 587.759 477.598 585.484 482.778 582.625C479.616 562.38 478.244 540.961 475.342 520.487C420.797 493.841 368.881 432.608 347.28 376.31C331.911 376.332 323.078 375.306 322.891 357.671C308.976 351.583 301.118 339.878 296.798 325.499C293.085 313.14 289.527 295.908 295.715 283.687C298.798 277.596 303.59 275.187 309.829 273.477C314.31 261.352 323.576 256.19 336.379 257.959C341.738 251.733 344.401 250.496 351.943 248.114L352.755 248.146C357.381 248.292 358.802 247.542 363.205 246.419C365.377 248.915 367.687 252.414 369.881 254.156C370.726 255.414 372.429 257.172 373.432 258.58C376.808 263.316 378.07 267.241 379.848 272.688C399.692 278.157 393.586 309.065 387.621 322.928C385.125 328.729 381.635 333.884 378 338.999C385.7 350.432 383.109 358.002 372.799 366.279C390.346 408.328 418.186 445.289 453.758 473.762C457.748 476.915 467.659 485.054 471.764 486.724L472.125 486.126C470.868 483.059 464.511 479.753 461.714 477.42C432.473 453.019 428.89 416.727 438.025 381.215C422.592 373.336 395.427 357.238 390.998 339.02C384.549 312.491 431.027 316.616 446.702 316.659C452.469 304.709 469.089 286.22 481.125 280.767C493.413 275.201 490.933 276.416 500.641 266.018C512.187 253.651 526.447 250.179 543.022 249.11C545.317 249.178 548.009 249.186 550.263 249.344C558.27 249.718 569.727 251.72 577.167 254.814C577.969 254.067 578.097 253.161 578.505 252.016C581.568 253.793 584.722 255.68 587.834 257.347L586.987 259.435C605.985 269.46 618.404 283.298 627.448 302.417C628.529 304.702 630.338 308.768 632.401 310.131C636.831 304.3 642.589 294.884 646.639 289.935C650.058 291.316 652.219 292.765 655.177 294.952C651.999 301.011 643.516 316.88 639.6 321.778C653.019 348.945 652.552 371.929 647.095 400.904C649.955 406.125 651.692 409.637 653.562 415.266C666.756 396.509 669.043 390.685 679.4 370.573C670.576 362.708 664.912 354.116 673.662 343.255C663.595 328.222 649.62 298.175 665.817 281.575C667.324 280.031 670.464 278.785 672.514 277.897C675.635 264.925 680.82 257.31 693.966 253.118C693.235 251.626 692.525 250.124 691.837 248.612C687.898 249.159 683.266 249.678 679.46 250.621C682.289 246.908 684.895 244.386 688.167 241.098C686.37 237.76 684.188 233.944 682.511 230.581C686.303 232.446 689.687 234.113 693.616 235.714C696.337 232.465 698.889 229.361 702.116 226.59ZM615.38 439.074C614.105 444.543 612.184 449.841 609.656 454.855C608.486 457.234 601.255 468.682 601.404 469.665C606.293 465.698 634.056 442.045 634.966 437.684C628.584 439.463 621.978 439.251 615.38 439.074ZM420.18 790.875C414.509 791.612 415.252 795.553 415.492 800.044C417.674 801.164 419.858 798.838 420.554 796.919C421.599 794.037 421.262 793.566 420.18 790.875Z"/><path fill="#F5742E" d="M474.381 313.827C478.093 308.335 481.143 300.606 484.015 294.473C490.943 279.691 503.711 262.263 519.567 256.075C558.595 240.843 608.73 264.304 624.492 302.003C619.631 297.771 617.533 294.028 613.902 288.828C605.982 277.481 596.976 269.314 583.229 265.912C571.7 263.059 561.737 265.599 551.609 271.409C537.234 279.656 521.521 304.311 517.677 320.144C520.363 316.891 524.257 309.702 526.029 305.859C544.981 264.775 587.491 249.43 614.202 294.384C611.786 293.041 609.335 291.763 606.851 290.552C593.515 284.044 578.734 280.808 564.387 285.91C551.204 290.598 539.141 301.597 533.151 314.216C537.89 310.266 542.045 304.852 546.462 300.427C574.757 272.077 608.889 289.128 632.94 313.633C631.788 315.618 631.661 315.176 631.631 317.174C632.861 318.821 634.106 319.186 636.195 319.485C638.153 324.958 641.135 330.078 643.184 336.195C649.969 356.451 650.08 377.251 645.167 397.868L644.745 397.349C637.706 388.781 626.354 378.923 617.326 372.405C569.028 337.536 507.489 322.599 449.164 316.857C459.109 299.761 471.073 287.922 489.064 279.876C483.65 289.782 476.012 302.777 474.381 313.827Z"/><path fill="#F7C74B" d="M583.869 303.578C588.032 305.257 589.319 306.179 592.673 308.89C589.716 314.586 585.641 321.931 581.886 327.165C578.853 325.837 575.976 324.051 573.111 322.378C576.481 315.846 579.625 309.618 583.869 303.578Z"/><path fill="#6ECDEB" d="M517.537 276.174C531.296 274.904 523.327 291.51 519.326 297.537C517.68 297.527 514.431 294.984 512.927 293.951C514.874 290.191 515.822 287.088 516.354 282.903C516.682 280.316 516.02 278.117 517.537 276.174Z"/><path fill="#FEFEFE" d="M439.891 741.886L445.666 743.996C444.952 747.752 442.415 766.597 443.866 769.151L444.532 769.165C446.09 765.964 447.198 749.748 447.891 744.6L454.692 745.95C454.472 749.915 451.277 769.902 453.809 771.352C455.346 769.01 456.649 751.224 457.506 746.387L464.302 747.148C464.042 751.742 461.031 770.996 462.817 773.366L463.58 772.824C465.039 769.013 466.284 752.389 466.659 747.482L473.491 747.443C473.118 750.98 470.903 770.136 471.563 772.832L472.25 772.971C474.759 770.727 475.511 751.582 475.85 747.104L481.656 746.532C480.847 753.517 479.933 761.446 479.625 768.453C479.249 772.172 478.748 776.264 478.625 779.962C477.545 790.976 476.589 799.863 461.859 795.925C459.274 795.234 459.142 789.795 457.428 786.995C451.501 777.317 448.216 773.987 437.023 770.319C438.168 761.421 438.922 750.963 439.891 741.886Z"/><path fill="#FEFEFE" d="M697.164 255.82C704.538 256.56 707.829 259.12 712.896 263.958C702.932 268.052 698.37 273.524 692.942 282.526C685.69 279.692 682.561 278.534 674.893 277.757C677.887 267.179 684.297 256.13 696.644 255.937L697.164 255.82Z"/><path fill="#80CD6C" d="M646.639 289.935C650.058 291.316 652.219 292.765 655.177 294.952C651.999 301.011 643.516 316.88 639.6 321.778C638.619 320.758 637.43 320.196 636.195 319.485C634.106 319.186 632.861 318.821 631.631 317.174C631.661 315.176 631.788 315.618 632.94 313.633C633.722 311.631 633.52 311.707 632.401 310.131C636.831 304.3 642.589 294.884 646.639 289.935Z"/><path fill="#EC4E77" d="M702.116 226.59L700.374 238.451C703.498 240.154 708.373 242.623 711.219 244.518C707.337 245.549 703.653 246.277 699.72 247.068C699.276 248.966 698.682 250.917 698.755 252.844L699.032 253.092C697.568 254.015 697.26 253.876 697.164 255.82L696.644 255.937C695.708 254.376 695.361 254.212 693.966 253.118C693.235 251.626 692.525 250.124 691.837 248.612C687.898 249.159 683.266 249.678 679.46 250.621C682.289 246.908 684.895 244.386 688.167 241.098C686.37 237.76 684.188 233.944 682.511 230.581C686.303 232.446 689.687 234.113 693.616 235.714C696.337 232.465 698.889 229.361 702.116 226.59Z"/><path fill="#FEFEFE" d="M578.505 252.016C581.568 253.793 584.722 255.68 587.834 257.347L586.987 259.435C584.378 257.968 580.056 256.179 577.167 254.814C577.969 254.067 578.097 253.161 578.505 252.016Z"/><path fill="#ADADB2" d="M486.676 349.705C490.204 349.471 494.268 349.448 497.773 349.747C550.351 354.24 583.891 378.329 617.182 415.544C614.252 444.058 606.579 467.067 581.51 483.941C574.3 488.758 561.465 493.508 558.565 502.675C555.686 511.773 561.643 518.458 570.009 520.681L565.249 556.777L556.894 559.514C532.875 566.775 508.665 575.125 484.639 582.072C484.08 573.406 482.513 562.247 481.558 553.432L473.849 483.193C453.823 469.953 443.397 457.512 437.643 433.248C431.626 407.874 438.778 378.301 452.466 356.425C464.952 352.582 473.619 350.704 486.676 349.705Z"/><path d="M541.516 416.631C566.27 414.036 563.911 437.295 555.374 452.599C548.54 464.612 537.224 473.426 523.905 477.112C508.23 481.415 493.672 478.603 479.746 470.762C467.4 462.535 450.201 442.979 459.286 426.057C465.421 415.774 479.297 422.312 487.807 424.759C508.196 430.62 522.847 420.866 541.516 416.631Z"/><path fill="#FEFEFE" d="M544.977 419.195C574.426 419.42 520.535 453.255 476.141 436.544C472.082 434.504 466.143 429.1 467.738 424.119C470.493 421.98 482.657 426.225 486.34 427.235C500.205 431.04 514.229 428.631 527.554 423.941C533.483 421.854 538.637 419.89 544.977 419.195Z"/><path fill="#F5742E" d="M535.495 449.677C542.069 449.387 545.886 450.574 551.761 453.154C538.222 473.031 517.958 479.767 494.876 474.295L489.184 472.564C489.795 471.51 490.458 470.488 491.171 469.5C497.138 461.109 507.275 454.794 517.427 453.088C515.998 454.783 512.754 458.903 512.181 460.99C514.673 461.563 519.322 454.973 523.248 453.145C528.466 450.716 529.838 450.403 535.495 449.677Z"/><path d="M527.438 369.124C550.035 367.83 550.724 402.733 536.535 412.856C532.803 415.519 527.542 415.292 523.191 414.327C514.246 410.973 512.987 403.955 512.146 395.584L522.342 390.508C519.061 387.847 516.279 385.368 513.152 382.518C516.591 374.591 518.77 371.094 527.438 369.124Z"/><path d="M474.411 368.13C497.122 366.658 497.49 400.053 484.369 411.024C480.483 414.272 475.756 414.12 471.025 413.315C461.434 409.253 460.266 403.242 459.343 393.827C462.024 392.379 466.557 390.491 469.454 389.181L460.255 380.628C461.119 378.738 462.114 376.91 463.233 375.158C466.12 370.677 469.466 369.233 474.411 368.13Z"/><path d="M492.302 487.842C500.663 489.265 506.118 492.285 515.873 490.141C517.951 489.684 523.471 488.127 524.869 488.995L524.594 490.077C523.065 490.927 521.451 491.611 519.777 492.118C514.043 493.818 493.661 495.109 492.302 487.842Z"/><path fill="#FEFEFE" d="M373.713 275.14C398.721 272.637 391.004 311.571 384.311 324.635C382.454 328.234 380.269 331.655 377.785 334.854C375.765 337.48 366.811 346.844 366.67 348.23L367.567 348.522C370.703 347.276 373.933 343.633 376.2 341.181C395.541 363.052 335.902 386.29 326.193 365.777C325.193 363.664 324.65 363.076 325.344 360.787C329.475 357.954 341.483 363.419 345.51 357.734L345.126 356.954C342.432 356.534 341.392 356.885 338.865 357.181C310.052 360.575 296.735 328.05 294.913 304.448C294 292.624 295.743 282.269 307.496 276.713C328.626 271.986 353.792 309.417 331.155 321.111C324.558 324.519 310.419 319.86 315.957 308.975L316.248 308.412C315.374 307.439 306.677 302.425 305.535 302.334C306.512 305.677 309.075 307.052 311.858 309.007C311.915 310.801 312.004 313.12 312.427 314.797C315.498 326.992 330.792 327.777 338.353 319.29C340.034 317.402 340.853 315.6 341.954 313.442C345.554 313.635 346.606 313.488 350.032 312.855C346.519 319.554 344.277 329.531 347.962 336.634L348.486 336.59C349.289 333.42 348.623 329.979 348.648 326.748C348.703 319.807 351.728 313.387 356.648 308.626C362.688 308.622 373.4 307.782 376.673 301.754L376.106 301.259C373.921 301.485 368.216 304.453 364.322 305.576C352.934 309.402 341.062 298.783 347.422 287.835C350.889 281.867 367.411 276.204 373.713 275.14Z"/><path fill="#FEFEFE" d="M672.597 280.557C682.862 280.017 712.603 288.377 705.191 303.572C698.107 318.091 678.842 306.003 676.287 306.779C677.555 312.026 690.246 313.386 694.792 313.592C700.793 319.505 703.575 325.254 703.213 333.997C703.107 336.573 702.311 338.12 702.79 340.702L703.537 340.986C708.626 337.831 704.134 322.298 701.905 317.632C705.012 318.188 706.907 318.525 710.078 318.183C711.167 320.142 712.429 322.461 713.945 324.096C717.131 327.56 721.598 329.567 726.304 329.647C736.428 329.759 740.399 322.588 739.896 313.398C742.089 311.682 745.286 309.616 745.673 306.849C743.46 307.401 736.964 311.673 735.141 313.291C741.222 319.412 733.805 326.91 727.971 326.801C700.894 326.299 713.667 292.542 729.1 284.62C734.027 282.091 735.473 281.146 741.364 280.81C756.175 284.427 758.181 298.259 756.867 311.246C754.617 333.48 743.149 361.751 716.976 362.306C713.267 362.385 709.978 360.582 705.931 361.388L705.632 362.129C708.056 367.597 723.563 363.093 726.775 364.897C726.933 390.749 675.627 374.179 672.261 357.468C671.206 352.228 672.657 349.506 675.302 345.335C677.513 347.54 681.99 352.634 684.87 352.875L685.468 352.232C685.134 351.144 681.763 347.809 680.698 346.959C666.335 335.499 648.947 290.2 672.597 280.557Z"/><path fill="#ADADB2" d="M558.042 618.577C559.26 620.337 555.883 641.098 555.354 644.849C547.33 642.727 539.799 643.858 536.761 652.438C533.492 661.67 545.198 676.705 549.319 685.187C547.941 698.046 546.774 714.007 543.747 726.427C540.349 740.367 520.697 740.534 509.365 736.271C506.175 734.399 501.954 730.415 500.977 726.722C498.578 717.393 498.265 707.468 497.03 697.907C494.585 678.967 493.112 659.71 490.334 640.837C497.194 638.209 506.609 635.508 513.794 633.178C528.573 628.402 543.323 623.535 558.042 618.577Z"/><path fill="#F5742E" d="M423.819 318.713C424.625 318.679 425.43 318.649 426.236 318.624C491.109 316.667 585.356 343.159 633.452 389.038C640.846 396.091 651.497 408.048 651.518 419.015C651.51 422.961 649.9 426.734 647.056 429.469C639.615 436.736 625.838 436.869 616.174 436.97C616.843 434.28 617.303 431.515 617.804 428.786C645.088 427.054 645.111 417.68 628.895 398.797L628.582 398.452C591.523 358.038 522.163 338.036 469.004 336.069C459.799 335.729 442.01 335.013 435.166 341.744C432.962 343.909 431.775 346.904 431.897 349.99C432.138 357.052 438.031 363.197 442.897 367.698C441.31 371.338 439.926 375.347 438.555 379.1C423.4 372.148 394.972 353.322 392.589 335.115C390.753 321.086 413.916 319.434 423.819 318.713Z"/><path fill="#F5742E" d="M480.755 786.13C491.154 791.064 492.197 836.087 492.494 847.38C476.743 853.577 438.425 857.852 421.664 858.593C419.44 858.814 417.023 858.924 414.777 859.071C414.255 851.416 413.499 848.101 411.382 840.664C433.435 834.803 442.493 826.233 452.824 807.279C454.684 803.866 457.081 803.339 459.502 798.074C471.944 801.166 477.855 799.046 480.755 786.13Z"/><path fill="#FEFEFE" d="M645.026 823.149C671.99 819.709 689.588 837.11 692.777 863.013C678.966 867.641 666.681 868.388 652.355 869.383C636.543 869.721 619.289 868.876 603.809 865.442C608.088 841.326 620.526 827.431 645.026 823.149Z"/><path fill="#FEFEFE" d="M363.126 813.129C394.063 810.968 409.602 829.853 412.446 859.072C401.55 859.549 390.64 859.64 379.737 859.342C364.384 858.621 343.457 857.887 328.678 853.674C331.247 833.223 341.726 816.718 363.126 813.129Z"/><path fill="#FEFEFE" d="M491.343 850.537C493.177 850.266 493.181 850.243 494.314 851.466C495.551 855.227 495.417 862.515 491.203 864.432C484.619 867.428 475.806 869.369 468.654 870.589C425.459 877.955 373.127 881.987 330.103 872.539C328.909 872.028 327.294 871.686 326.932 870.351C325.971 866.801 325.756 861.008 327.505 857.645C327.544 857.57 328.375 856.643 328.557 856.674C335.182 857.796 345.881 859.5 352.187 860.05C394.428 863.734 450.872 862.333 491.343 850.537Z"/><path fill="#ADADB2" d="M565.053 559.555C580.391 557.086 578.385 577.06 570.799 580.583C563.3 584.065 551.27 587.443 543.022 590.063L485.63 608.194C471.279 611.572 472.237 590.923 480.705 586.714C486.67 583.749 495.204 581.418 501.734 579.412C522.852 572.924 543.862 565.77 565.053 559.555Z"/><path fill="#ADADB2" d="M565.498 590.069C569.273 589.968 574.142 590.744 575.176 594.821C579.338 611.226 566.818 613.323 556.24 616.715C532.319 624.385 509.031 632.626 485.186 639.526C483.03 639.55 481.889 639.555 479.814 638.812C471.777 635.938 474.018 621.167 480.354 617.885C483.797 616.291 487.606 615.063 491.227 613.952C515.995 606.355 540.663 597.373 565.498 590.069Z"/><path fill="#F5742E" d="M570.783 790.349C575.016 794.508 568.162 802.061 584.253 803.105C587.175 805.816 588.126 807.254 589.081 811.196C592.495 825.288 597.993 833.577 608.903 842.997C605.723 848.626 604.111 853.161 602.597 859.481C602.227 861.024 601.748 864.202 600.768 864.927L599.394 864.677C586.87 861.763 569.774 857.012 559.556 849.084C561.025 835.604 562.932 799.762 570.783 790.349Z"/><path fill="#FEFEFE" d="M557.025 851.238C563.114 854.498 570.59 858.617 576.975 860.917C611.956 873.517 658.245 875.721 693.891 865.535C694.437 870.188 694.573 875.431 693.834 880.06C685.1 884.864 661.389 886.841 650.775 887.016C624.992 887.442 597.561 884.363 573.765 873.97C567.79 871.359 561.294 868.295 556.551 863.769C556.432 859.884 556.248 854.98 557.025 851.238Z"/><path fill="#FEFEFE" d="M329.987 260.165C343.217 260.427 350.299 267.385 356.398 278.055C346.623 283.221 336.606 291.292 346.466 302.852C348.021 304.675 350.106 305.941 351.742 307.779C351.06 309.01 349.413 309.643 348.086 310.365C345.814 310.659 345.432 310.768 343.211 310.466C342.092 309.186 342.806 305.129 342.37 303.087C339.03 287.428 328.035 276.6 312.668 273.123C316.363 264.888 321.11 261.414 329.987 260.165Z"/><path fill="#FEFEFE" d="M718.216 265.593C721.587 265.272 724.987 265.717 728.163 266.894C734 269.124 736.879 272.713 739.408 278.071C720.895 281.555 709.571 297.162 709.466 315.584C704.622 315.617 703.871 315.484 700.174 312.384C703.591 310.177 705.886 308.665 707.84 304.82C709.419 301.718 709.662 298.105 708.512 294.82C706.337 288.682 700.872 286.171 695.573 283.511C700.997 273.677 706.789 267.897 718.216 265.593Z"/><path fill="#FEFEFE" d="M568.843 752.45C569.667 752.51 572.908 752.8 573.206 753.213C576.286 757.48 574.83 776.065 578.379 779.401L579.045 779.122C579.692 776.857 577.041 757.652 576.591 753.662L583.332 753.819C584.548 759.07 585.803 776.886 587.708 779.873L588.338 779.543C589.324 775.176 586.668 759.842 586.372 753.735L593.269 753.324C594.586 760.455 595.169 769.608 596.228 777.16C590.889 782.051 583.259 783.508 581.884 790.644C581.278 793.794 582.474 796.924 581.502 800.122C578.699 799.756 575.67 798.551 575.145 795.408C572.783 781.253 570.24 766.721 568.843 752.45Z"/><path fill="#FEFEFE" d="M352.907 250.635C357.065 250.202 361.249 251.175 364.789 253.397C371.465 257.499 375.18 264.789 376.857 272.208C371.467 272.61 368.466 273.541 363.375 275.296L359.044 277.15C353.613 267.325 349.283 263.391 339.212 258.64C343.706 253.576 346.569 252.099 352.907 250.635Z"/><path fill="#F5742E" d="M434.991 806.961C441.14 808.513 443.079 808.707 449.348 808.243C448.265 810.344 447.086 812.394 445.816 814.387C437.37 827.773 425.566 834.665 410.398 838.083C408.299 833.187 405.775 829.825 402.768 825.519C403.496 824.467 404.522 824.262 405.871 823.608C413.693 821.985 413.669 836.844 421.422 832.32C429.963 827.335 419.514 821.811 418.038 819.446L418.349 818.514C419.567 817.51 419.53 817.306 421.044 817.234C422.967 818.809 424.064 821.487 425.69 823.389C431.562 830.255 441.168 820.153 432.636 815.112C431.368 814.362 430.103 813.157 429.022 812.139L434.991 806.961Z"/><path fill="#FEFEFE" d="M443.593 783.213C458.143 782.874 462.576 796.526 451.278 804.561C445.898 808.387 424.844 802.639 422.622 798.337L423.567 796.865C425.009 796.664 430.415 798.659 432.338 799.217C438.333 800.822 448.298 803.263 451.272 795.811C452.068 793.817 452.568 792.83 451.745 790.736C445.96 784.386 428.293 792.945 423.551 792.71L422.984 792.074C424.189 786.789 438.791 783.784 443.593 783.213Z"/><path fill="#FEFEFE" d="M590.845 784.114C595.098 783.785 598.066 783.925 602.208 785.442C605.513 786.653 615.202 791.423 616.525 794.261L615.993 795.47C615.672 795.64 615.351 795.81 615.031 795.98C610.641 794.504 597.23 786.931 592.699 789.325C585.995 792.867 590.191 799.87 595.919 802.073C604.009 803.91 610.772 799.882 615.674 801.482L616.036 802.207C613.405 806.344 598.16 807.454 593.556 806.249C582.233 803.284 579.738 790.028 590.845 784.114Z"/><path fill="#FEFEFE" d="M640.771 775.492C648.515 775.666 654.241 781.673 653.75 789.439C653.581 792.576 652.1 795.497 649.668 797.486C646.537 800.094 633.167 804.538 630.583 800.536C631.952 798.248 639.301 796.984 643.241 795.387C644.773 794.318 646.097 793.388 647.114 791.789C648.189 790.133 648.485 788.09 647.923 786.198C647.367 784.305 645.723 782.14 643.882 781.403C637.154 778.708 631.29 791.432 627.454 793.048L626.895 792.619C625.98 785.531 634.693 777.823 640.771 775.492Z"/><path fill="#FEFEFE" d="M397.729 768.508C400.829 768.392 402.448 768.672 405.073 770.551C408.479 772.989 417.25 782.938 413.825 787.176C408.374 785.983 405.458 772.823 398.193 774.138C396.839 774.397 395.642 775.181 394.864 776.32C393.045 778.954 393.127 781.458 393.792 784.385C398.294 790.761 407.335 791.593 407.862 795.214L407.069 795.866C400.976 796.847 391.189 791.916 388.59 785.982C387.215 782.919 387.212 779.414 388.583 776.348C390.352 772.473 393.868 769.977 397.729 768.508Z"/><path fill="#F5742E" d="M608.706 775.604C619.691 774.662 627.186 776.699 624.063 789.836C619.561 791.766 619.426 792.58 615.25 789.628C608.085 785.042 603.095 782.21 594.669 781.165C600.47 777.979 602.276 777.023 608.706 775.604Z"/><path fill="#F5742E" d="M427.617 772.566C429.107 772.486 430.599 772.442 432.092 772.434C439.755 772.46 445.299 775.761 450.473 780.958C443.886 780.323 441.984 780.55 435.443 781.895C432.698 782.744 430.663 783.646 428.054 784.712C425.131 785.907 421.542 788.845 419.036 786.04C418.595 783.706 419.528 781.274 420.716 779.274C423.222 775.053 423.082 774.012 427.617 772.566Z"/><path fill="#F5742E" d="M591.14 808.41C596.352 809.607 597.697 809.607 602.934 808.883C604.006 810.75 605.103 812.603 606.222 814.442C603.811 815.825 598.14 818.167 598.399 821.397C599.595 836.309 610.626 821.38 614.175 821.251C615.626 822.445 615.53 821.87 615.675 823.1C614.117 824.693 611.275 825.826 609.18 826.844C607.634 827.464 608.093 827.292 607.128 828.742C603.971 833.486 609.287 835.367 612.716 836.876C612.523 838.347 611.349 839.447 610.338 840.791C599.819 832.409 593.12 821.885 591.14 808.41Z"/><path fill="#FEFEFE" d="M601.61 751.091C601.639 751.1 601.673 751.099 601.696 751.118C603.588 752.715 604.907 769.811 605.588 773.63L599.629 775.761L598.903 775.848C597.857 774.164 596.284 756.097 595.935 752.748L601.61 751.091Z"/><path fill="#ADADB2" d="M560.787 586.992L561.947 587.092L562.084 587.715C560.924 589.273 546.889 593.335 543.852 594.317L489.663 611.784C489.052 611.847 489.469 611.843 488.443 611.512L488.568 610.57C490.436 608.718 553.418 589.253 560.787 586.992Z"/><path fill="#FEFEFE" d="M634.845 805.655C637.21 805.559 640.815 805.891 641.287 808.843C638.93 809.952 633.829 809.909 630.904 810.565C623.351 812.258 617.849 815.124 611.295 818.986C609.537 820.237 608.974 821.227 607.268 821.169C606.193 819.969 606.188 820.076 605.746 818.549C611.307 811.617 626.206 806.963 634.845 805.655Z"/><path fill="#FEFEFE" d="M644.788 815.614C647.558 815.38 650.761 814.629 652.383 817.401C651.545 818.51 647.913 818.925 646.073 819.282C636.172 821.204 628.959 823.919 620.036 828.537C618.079 829.558 617.319 830.303 615.394 830.09C614.305 828.504 614.384 829.258 614.404 827.725C620.677 822.008 636.412 817.187 644.788 815.614Z"/><path fill="#FEFEFE" d="M385.568 805.366C394.514 805.767 411.955 816.671 417.707 823.596C417.752 825.186 417.382 825.084 416.215 826.71C406.199 817.61 398.754 813.421 386.283 808.756C385.052 808.295 384.944 808.105 384.625 807.026L385.568 805.366Z"/><path fill="#FEFEFE" d="M400.2 798.357C409.109 800.569 424.107 808.85 428.637 816.322C428.36 817.789 427.765 817.873 426.409 819.152C416.669 808.796 410.726 806.063 397.186 801.624L400.2 798.357Z"/><path fill="#FEFEFE" d="M609.78 748.032C610.74 750.711 613.043 769.135 612.894 772.378C611.477 773.143 609.81 773.029 608.095 773.138C607.195 771.781 605.124 752.869 604.764 749.986L609.78 748.032Z"/><path fill="#EC4E77" d="M675.541 393.841C678.839 393.593 681.733 396.022 682.06 399.313C682.387 402.605 680.029 405.556 676.746 405.962C674.551 406.234 672.381 405.295 671.077 403.509C669.773 401.723 669.539 399.37 670.466 397.362C671.393 395.354 673.336 394.006 675.541 393.841Z"/><path fill="#F5742E" d="M593.232 791.464C597.465 791.167 610.231 795.141 612.599 798.185L611.127 798.726C606.128 799.414 587.08 802.647 593.232 791.464Z"/><path fill="#FEFEFE" d="M398.518 776.305C402.816 777.052 410.665 786.727 408.903 790.171L407.73 790.471C401.197 788.573 390.309 784.079 398.518 776.305Z"/><path fill="#5DC3BD" d="M379.815 394.99C382.366 395.062 386.336 397.956 385.284 400.616C383.092 402.266 377.42 404.41 374.653 404.897C372.025 404.041 367.056 401.244 368.555 398.071C369.907 397.126 375.568 396.951 379.022 395.36L379.815 394.99Z"/><path fill="#F5742E" d="M440.769 791.105C444.375 790.706 448.214 789.787 448.978 794.256C447.303 799.17 442.453 798.487 438.4 797.859C433.993 797.027 431.773 796.382 427.588 794.862C431.269 793.372 436.869 791.902 440.769 791.105Z"/><path fill="#FEFEFE" d="M640.668 783.885C644.312 783.465 647.755 785.826 645.166 789.699C642.458 793.751 639.921 794.212 635.592 795.418C633.458 795.805 632.002 796.522 630.957 794.422C631.764 790.7 637.505 785.936 640.668 783.885Z"/><path fill="#FEFEFE" d="M621.767 793.862C624.557 793.083 627.454 794.692 628.268 797.472C629.081 800.251 627.509 803.169 624.739 804.017C622.917 804.575 620.935 804.11 619.552 802.799C618.168 801.488 617.596 799.535 618.055 797.685C618.513 795.835 619.931 794.375 621.767 793.862Z"/><path fill="#FEFEFE" d="M634.304 812.598C637.627 812.223 640.84 812.532 644.18 812.726C634.859 815.218 631.298 815.885 622.573 820.015C620.338 821.282 619.522 821.929 617.013 821.297L616.655 820.606C617.307 816.265 630.599 813.372 634.304 812.598Z"/><path fill="#FEFEFE" d="M395.799 804.711C401.147 805.078 415.448 810.158 417.744 814.932L417.133 816.479C416.541 816.643 415.463 816.989 414.927 816.546C411.984 814.118 396.853 806.691 395.799 804.711Z"/><path fill="#FEFEFE" d="M415.165 801.68L416.182 801.651C419.874 801.567 429.631 803.199 431.119 806.563L430.039 807.917C428.952 808.963 428.842 809.174 427.477 809.887C424.749 809.57 418.393 803.84 415.165 801.68Z"/><path fill="#FEFEFE" d="M383.484 811.619C389.008 810.969 400.441 817.699 404.884 820.821L404.39 821.48L400.202 822.954C394.332 816.926 385.096 813.784 383.484 811.619Z"/><path fill="#FEFEFE" d="M415.492 800.044C411.812 798.001 407.935 795.576 412.562 790.742C414.39 788.834 418.427 788.563 420.18 790.875C414.509 791.612 415.252 795.553 415.492 800.044Z"/><path fill="#FEFEFE" d="M618.172 805.572C619.296 805.649 619.184 805.69 620.287 806.028L620.254 806.603C618.25 808.051 611.834 810.805 608.866 812.418C607.565 811.504 606.746 810.19 605.778 808.902C609.919 807.828 614.05 806.718 618.172 805.572Z"/><path d="M774.063 186.901C775.832 186.971 775.105 186.671 776.397 187.585C777.633 190.535 775.412 201.382 774.788 205.253C778.255 207.722 786.55 212.226 788.688 215.728C789.003 216.245 788.622 216.572 788.27 217.226C784.647 219.284 775.924 219.817 771.43 220.325C770.53 223.77 768.529 237.114 765.062 237.397C762.091 235.352 758.402 227.04 756.576 223.478C753.483 219.837 741.079 225.402 738.027 221.923C738.304 218.868 747.136 210.721 749.861 207.915C748.393 204.827 743.839 194.955 744.317 191.763C744.431 190.998 744.758 191.064 745.536 190.643C749.408 190.787 756.88 195.4 760.595 197.424L774.063 186.901Z"/><path fill="#F7C74B" d="M773.999 190.048L774.307 190.432C774.294 193.427 772.745 202.818 772.33 206.413C776.605 209.018 782.059 212.94 786.381 215.79C781.097 216.99 775.165 217.814 769.774 218.679L765.198 234.785C762.543 230.167 760.013 225.479 757.61 220.726C755.568 219.411 743.761 220.741 740.811 221.031C744.193 216.93 748.457 212.492 752.086 208.533C749.982 203.085 748.361 198.549 746.609 192.98C751.498 195.131 756.62 197.791 761.433 200.178C765.52 196.677 769.71 193.299 773.999 190.048Z"/><path d="M278.304 180.136C283.08 181.313 290.339 187.128 294.595 190.102C297.557 188.369 308.178 180.607 310.563 182.884C311.147 186.18 307.524 195.98 306.352 199.638C309.29 202.604 317.572 209.45 319.116 212.556L318.798 213.443C315.464 215.031 306.196 214.246 301.55 214.5C298.003 216.641 296.52 228.958 292.282 230.205C289.591 228.864 286.275 217.308 285.006 213.723C281.362 213.123 269.252 212.903 268.057 209.839C269.116 206.865 278.083 200.662 281.016 198.409C279.614 192.082 278.115 186.652 278.304 180.136Z"/><path fill="#F7C74B" d="M280.535 183.719C283.83 185.379 290.885 190.638 294.226 193.04C298.589 190.218 303.999 187.287 308.569 184.848L303.894 200.637C307.98 204.345 312.055 208.386 316.038 212.227L300.023 212.42C298.471 213.68 293.955 224.369 292.547 227.19C290.501 222.682 288.469 216.639 286.732 211.902C282.247 211.058 274.953 210.399 270.302 209.853C274.713 206.469 279.089 203.04 283.429 199.565C282.38 194.299 281.415 189.016 280.535 183.719Z"/><path d="M748.059 363.179C752.604 363.619 759.64 370.408 763.442 373.479C766.529 371.88 777.433 364.889 780.122 367.312C780.92 370.978 776.733 380.208 775.285 383.86C777.695 386.589 787.593 394.797 787.298 397.549C784.733 399.22 772.925 398.5 768.933 398.473C767.503 401.831 763.344 414.548 759.428 413.234C756.889 410.243 754.825 400.971 753.666 396.804C750.211 396.17 738.755 395.606 736.922 392.833C737.671 389.959 747.586 383.903 750.892 381.588C749.512 375.422 747.928 369.536 748.059 363.179Z"/><path fill="#F7C74B" d="M750.572 366.846C752.949 367.969 760.907 374.418 763.373 376.35C768.441 373.612 772.941 371.199 778.174 368.773C776.576 374.028 774.685 379.512 772.948 384.74C776.878 388.487 780.865 392.691 784.689 396.585C779.519 396.534 774.351 396.433 769.183 396.282L768.94 396.257C766.824 397.181 761.931 408.288 760.554 411.081C758.716 406.185 757.001 400.184 755.42 395.13C749.924 394.101 745.315 393.62 739.614 392.361L752.724 382.78C752.278 377.869 751.109 372.204 750.572 366.846Z"/><path d="M285.648 354.812C286.127 354.8 286.579 355.013 287.084 355.174C288.138 357.956 286.773 369.445 286.465 373.001C289.396 375.331 300.517 380.864 300.72 383.745C298.549 385.871 287.921 387.597 284.306 388.462C283.561 391.875 281.707 404.513 278.617 405.544C275.784 404.027 271.363 395.269 269.048 391.76C266.359 389.557 253.244 393.928 250.915 390.624C251.977 387.709 259.042 380.092 261.54 377.123C260.232 373.714 253.674 362.563 256.761 360.236C260.402 360.01 268.604 364.238 272.287 365.902C276.76 362.228 281.214 358.531 285.648 354.812Z"/><path fill="#F7C74B" d="M284.886 358.447C284.914 358.473 284.95 358.493 284.969 358.526C285.827 360.068 284.463 371.906 284.417 374.493C288.16 376.48 294.443 380.611 298.299 382.927C292.892 384.235 287.47 385.482 282.035 386.668C280.876 392.267 279.674 397.19 278.241 402.717C275.399 397.987 272.504 393.289 269.555 388.624C265.742 388.49 257.745 389.663 253.686 390.178C257.152 385.655 260.458 381.927 264.226 377.673C262.108 372.699 260.03 367.708 257.993 362.701C262.922 364.453 268.107 366.63 272.98 368.612C276.844 365.102 280.814 361.713 284.886 358.447Z"/><path fill="#6ECDEB" d="M836.55 242.694C840.993 242.236 851.506 241.742 853.172 247.202C853.574 248.526 853.455 249.953 852.84 251.192C850.521 255.858 843.412 255.927 838.877 255.701C822.415 254.879 807.244 258.72 791.504 263.382C786.308 264.744 780.805 266.341 775.516 267.091C791.17 253.416 816.11 245.126 836.55 242.694Z"/><path fill="#6ECDEB" d="M203.273 233.56C230.053 232.213 251.396 243.68 271.725 259.411C269.13 258.845 266.663 258.16 264.103 257.467C251.442 252.944 239.232 249.272 225.803 247.757C218.794 246.611 208.961 248.9 202.347 246.489C193.576 243.291 194.753 236.193 203.273 233.56Z"/><path fill="#F7C74B" d="M653.522 154.039C662.034 153.283 663.404 159.791 659.231 165.992C655.834 171.018 650.092 174.437 646.222 179.007C637.189 189.674 628.907 202.114 622.449 214.505L621.254 217.035L619.916 217.104L619.884 217.606L620.412 218.023L619.625 217.993C618.765 215.422 620.361 209.998 620.914 207.34C624.381 190.665 638.675 162.909 653.522 154.039Z"/><path fill="#6ECDEB" d="M744.12 141.156C744.544 141.249 746.128 141.609 746.386 141.786C756.638 148.802 737.807 161.553 734.35 165.779C724.765 177.496 716.791 190.345 710.292 203.669C709.537 205.214 709.627 205.176 708.377 206.326L707.684 206.114C706.443 199.686 715.438 176.323 718.315 170.49C720.649 165.821 723.328 161.333 726.331 157.063C730.248 151.444 737.043 142.443 744.12 141.156Z"/><path fill="#6ECDEB" d="M318.103 125.417C334.51 126.808 354.905 174.221 353.689 189.005L353.04 189.081L352.058 187.844C345.595 176.597 341.127 166.51 332.592 156.097C327.431 149.285 319.917 144.016 315.413 136.755C312.163 131.516 312.554 128.071 318.103 125.417Z"/><path fill="#EC4E77" d="M537.442 57.0295C543.727 57.2371 545.624 60.6822 544.787 66.8787C543.815 74.0733 539.773 81.2647 538.211 88.4681C535.198 102.357 534.693 116.609 534.391 130.768C533.688 130.368 533.385 130.389 533.047 129.54C525.201 109.835 525.67 85.8115 531.224 65.5627C532.433 61.1556 533.961 59.0552 537.442 57.0295Z"/><path fill="#F5742E" d="M374.648 152.54C392.165 153.043 411.569 200.122 410.44 216.027L409.845 216.439L408.999 215.603C402.121 203.309 397.334 191.36 388.049 180.171C382.931 174.003 362.714 159.733 374.648 152.54Z"/><path fill="#F7C74B" d="M446.299 148.968C460.898 148.531 469.313 179.394 471.985 190.393C472.838 193.905 475.411 215.235 473.794 217.681L473.205 217.342C467.904 203.426 464.339 190.565 456.431 177.392C452.42 170.71 444.475 162.035 443.553 154.58C443.279 152.362 444.806 150.455 446.299 148.968Z"/><path fill="#6ECDEB" d="M543.022 249.11C543.649 233.834 547.111 212.189 556.813 199.816C561.423 193.937 570.102 199.403 567.217 205.884C560.28 221.463 553.996 232.175 550.263 249.344C548.009 249.186 545.317 249.178 543.022 249.11Z"/><path d="M629.835 103.285C630.412 103.464 630.641 103.678 631.172 104.009C631.926 106.299 631.664 112.704 631.657 115.404C636.04 117.443 639.524 119.127 643.779 121.479C640.079 123.223 635.07 124.873 631.115 126.348C630.303 129.544 630.545 135.223 628.249 137.188C625.67 136.727 621.995 131.135 620.15 128.748C614.929 129.962 612.25 130.474 606.883 130.985C608.904 127.401 612.154 122.704 614.425 119.111C611.731 115.15 610.304 111.858 608.688 107.417C613.486 108.429 616.597 109.595 621.129 111.415C624.089 108.754 626.724 106.016 629.835 103.285Z"/><path fill="#F5742E" d="M629.047 106.96C629.818 108.248 629.471 114.556 629.459 116.577C632.526 118.341 635.865 119.929 639.046 121.508L628.953 124.866C628.617 128.263 628.254 131.658 627.862 135.049C625.597 132.293 623.348 129.524 621.115 126.742C617.864 127.284 614.113 128.153 610.842 128.827C612.904 125.806 614.929 122.761 616.915 119.69C615.276 116.762 613.726 113.786 612.267 110.766C615.451 111.698 618.712 112.792 621.879 113.811L629.047 106.96Z"/><path d="M533.526 152.166C536.582 152.91 540.94 156.607 543.752 158.573C546.398 157.3 552.018 153.804 554.66 154.018L555.184 154.88C555.129 157.939 553.626 161.863 552.794 165.188C555.622 168.695 559.488 171.07 562.819 175.321C558.769 175.623 553.359 175.524 549.206 175.568C548.01 178.608 546.287 184.591 543.17 185.618C540.769 184.208 539.371 177.505 538.526 174.536C535.544 174.473 528.89 174.973 527.067 172.622C527.502 170.097 533.539 166.294 535.892 164.592C534.852 160.929 533.297 155.904 533.526 152.166Z"/><path fill="#F5742E" d="M535.925 155.679C538.227 156.738 541.825 159.528 544.034 161.13C547.316 159.294 550.373 157.765 553.751 156.106C552.628 158.823 551.493 163.275 550.649 166.234C552.721 168.454 555.87 171.269 558.139 173.415L547.967 173.51C546.352 176.506 544.953 180.069 543.617 183.241C542.616 179.988 541.061 176.271 539.803 173.05C536.442 172.663 533.076 172.315 529.707 172.005C533.089 169.708 534.702 168.301 537.761 165.536C537.452 162.767 536.49 158.531 535.925 155.679Z"/><path d="M235.719 281.871C237.365 283.421 236.622 290.118 236.823 293.463C239.868 295.261 243.694 296.362 245.703 299.235L245.431 300.14C242.606 302.029 238.905 302.741 235.533 303.702C234.559 307.034 234.581 311.134 232.361 313.711L231.422 313.62C229.187 311.591 226.903 307.871 225.142 305.265C222.345 306.05 216.73 307.579 214.28 306.056C214.323 303.167 218.659 299.143 220.845 296.501C219.391 294.089 214.634 288.193 217.977 286.398C220.813 286.355 224.091 288.11 226.867 289.271C229.4 286.966 232.898 283.549 235.719 281.871Z"/><path fill="#F5742E" d="M234.402 285.482C234.612 286.708 234.446 292.904 234.428 294.523C237.077 296.16 240 297.59 242.776 299.026L233.765 301.604C232.879 305.44 232.529 308.081 232.055 312.013L226.357 303.556C223.401 303.442 219.856 304.298 216.88 304.855L223.113 297.457L219.26 288.576L227.857 291.754C229.934 289.907 232.359 287.444 234.402 285.482Z"/><path d="M806.131 283.268C809.255 284.432 812.158 288.415 814.205 291.064C816.187 290.318 818.179 289.598 820.18 288.904C821.801 288.355 823.227 287.889 824.799 288.672C825.494 291.721 822.755 295.37 821.108 298.269C824.167 302.06 826.019 304.558 828.659 308.643C824.663 308.213 820.205 307.348 816.223 306.635C814.219 308.601 813.073 313.751 809.261 314.857C806.883 312.701 807.158 308.521 806.862 305.065C802.512 303.721 799.214 302.749 795.04 300.854C798.023 298.579 802.78 296.25 806.196 294.435C806.225 291.586 805.298 285.266 806.131 283.268Z"/><path fill="#F7C74B" d="M807.89 286.93C809.398 288.118 812.534 291.418 814.04 292.93C817.733 292.112 819.869 291.342 823.447 290.045L819.106 298.637L825 306.183C822.012 305.812 819.031 305.386 816.059 304.904C813.728 306.867 811.505 310.401 809.737 312.955C809.482 309.7 809.002 306.437 808.571 303.199C805.585 302.428 802.474 301.401 799.511 300.48C802.39 299.024 805.041 297.517 807.844 295.926C807.739 292.608 807.687 290.237 807.89 286.93Z"/><path d="M487.563 89.7417C491.051 90.6079 493.261 92.4409 496.153 94.4928C498.172 93.357 502.589 90.134 504.601 91.3004C505.027 93.3516 503.91 96.3309 503.503 98.483C502.633 103.083 509.433 103.44 508.912 107.204C506.75 108.18 502.798 107.168 500.063 108.099C499.028 110.954 498.454 113.981 495.881 115.28L494.77 114.77C493.139 112.638 492.725 110.089 492.011 107.439C489.3 107.281 485.313 107.457 483.356 105.733L483.296 104.689C484.654 102.556 487 101.378 489.195 99.9619C488.542 96.7129 487.65 93.0033 487.563 89.7417Z"/><path fill="#EC4E77" d="M490.325 93.4042L495.811 96.9381C498.046 96.0986 500.353 94.8889 502.514 93.8318C501.759 95.9035 501.084 98.2484 500.422 100.371C502.102 101.935 503.833 103.789 505.447 105.446L498.824 105.573C497.473 107.657 496.576 110.224 495.634 112.554L493.428 105.462L486.703 104.782L491.585 100.514L490.325 93.4042Z"/><path d="M521.194 200.806C523.626 202.854 521.329 207.148 522.572 209.242C523.772 211.263 529.536 211.978 530.739 214.565L530.259 215.481C527.753 217.063 524.945 217.642 522.064 218.466C522.005 220.823 522.27 226.056 520.157 227.264C517.614 225.784 516.433 221.939 514.38 221.076C511.917 221.834 507.346 223.892 505.703 221.532C505.963 218.927 508.033 216.663 509.636 214.366C508.288 212.073 505.283 208.235 507.047 205.91C509.473 205.319 512.563 206.621 515.097 207.388C517.23 204.756 518.555 202.945 521.194 200.806Z"/><path fill="#6ECDEB" d="M520.204 204.884C520.415 206.398 520.497 209.837 520.59 211.505C522.217 212.464 524.967 213.549 526.776 214.328C519.691 216.671 519.839 216.862 519.811 223.966L515.466 218.625L509.292 219.827C510.461 218.114 511.571 216.262 512.672 214.496L509.431 208.23L515.749 209.978C517.205 208.275 518.726 206.573 520.204 204.884Z"/><path fill="#EC4E77" d="M376.347 226.086C375.672 230.036 375.034 233.993 374.433 237.955C377.522 240.725 380.649 241.852 383.932 244.265C379.755 244.701 376.932 245.027 372.852 245.899C372.039 248.479 371.141 251.844 369.881 254.156C367.687 252.414 365.377 248.915 363.205 246.419C358.802 247.542 357.381 248.292 352.755 248.146L351.943 248.114C363.003 239.997 362.132 241.255 356.666 228.538C360.983 230.607 363.77 231.921 367.699 234.607C370.546 231.73 373.428 228.889 376.347 226.086Z"/><path d="M424.463 223.887C427.316 224.807 428.784 228.838 430.363 231.748C432.911 231.311 436.426 230.321 438.62 231.48L438.882 232.508C437.768 235.265 435.942 236.586 433.923 239.063C435.221 241.503 437.313 244.208 436.123 246.851L434.815 247.21C432.568 246.845 430.888 245.629 428.883 244.471C426.014 245.489 425.143 248.004 421.893 249.969L421.015 249.687C420.467 248.257 420.632 244.651 420.705 242.923C420.92 237.866 413.521 240.091 413.414 235.501L414.151 234.757C416.63 234.034 418.936 234.419 421.549 234.602C422.74 231.222 422.85 226.327 424.463 223.887Z"/><path fill="#EC4E77" d="M425.228 228.755C426.595 229.846 427.968 232.159 429.032 233.7L435.819 233.445C434.444 234.894 432.99 236.731 431.693 238.286L433.684 243.983L427.589 242.169L422.562 246.842L423.069 240.066L417.575 236.364C419.615 235.884 421.751 235.461 423.808 235.023L425.228 228.755Z"/><path d="M493.335 228.442C496.737 229.743 497.4 232.027 499.167 235.286C502.109 234.685 506.395 233.174 508.337 235.877C507.935 238.748 505.408 240.265 503.161 242.066C504.592 245.344 505.694 247.969 506.863 251.34C503.898 250.707 501.182 249.676 498.323 248.677C496.188 250.248 492.768 254.511 490.456 252.749C489.697 250.344 490.221 247.492 490.452 244.889C487.719 243.815 484.924 243.213 483.679 240.697L484.194 239.699C486.389 238.203 489.123 237.79 491.766 237.143C491.89 234.221 491.791 230.899 493.335 228.442Z"/><path fill="#F7C74B" d="M494.495 232.794C495.807 234.252 497.001 236.151 498.114 237.793C500.377 237.62 502.959 237.166 505.232 236.826L500.599 242.345C501.426 244.215 502.274 246.075 503.145 247.924L497.421 246.184C495.499 247.509 494.151 249.125 492.546 250.828L492.643 244.303L487.056 240.572L493.249 238.9C493.698 236.922 494.089 234.794 494.495 232.794Z"/><path d="M410.2 125.136C413.627 125.967 415.262 128.726 417.52 131.508C419.961 130.713 424.162 128.63 426.04 130.651C426.033 133.006 423.903 135.604 422.526 137.715C424.402 140.921 425.691 143.267 427.272 146.616C424.212 145.914 421.156 145.193 418.104 144.453C414.874 144.211 414.756 150.206 411.273 150.681C410.177 149.005 410.071 144.28 409.883 141.999C405.956 140.779 404.304 140.209 400.626 138.427C403.142 136.87 405.78 135.995 408.177 134.533C410.858 132.896 409.942 128.048 410.2 125.136Z"/><path fill="#F7C74B" d="M412.005 128.917C413.621 130.563 415.207 132.239 416.761 133.943L423.601 132.051C422.332 134.09 421.146 136.233 419.954 138.321L423.296 143.823C421.135 143.211 418.748 142.693 416.549 142.17C415.352 143.599 413.663 146.352 412.586 147.994C412.412 145.692 412.106 143.303 411.85 140.999L405.427 138.4C407.483 137.57 409.533 136.583 411.55 135.651L412.005 128.917Z"/><path fill="#EC4E77" d="M391.348 69.8432L391.734 70.2161C392.252 72.1208 391.918 78.1134 391.857 80.4337C395.904 81.6492 398.915 82.6819 402.849 84.221C399.143 85.4599 395.445 86.7207 391.755 88.0032C391.82 91.5255 392.057 95.0523 392.26 98.5703C389.695 95.97 387.1 91.998 384.459 89.8513L383.632 89.9937C380.533 91.1233 377.773 92.0761 374.621 93.0435C376.128 90.3516 378.542 86.93 380.3 84.2884C377.985 81.007 375.67 77.9471 373.948 74.3099C377.562 75.6288 381.185 76.9197 384.819 78.1824C386.787 76.0143 389.206 72.396 391.348 69.8432Z"/><path fill="#6ECDEB" d="M430.303 291.445C430.704 291.38 431.491 291.51 431.942 291.557C434.577 293.702 443.294 306.912 443.666 310.506C442.341 313.142 439.101 314.253 436.425 315.467C435.523 315.496 435.301 315.393 434.402 315.234C431.915 312.736 424.562 300.909 421.927 297.041C424.777 294.93 427.297 293.335 430.303 291.445Z"/><path fill="#EC4E77" d="M591.746 231.489C595.175 232.962 597.509 234.256 600.557 236.493L587.834 257.347C584.722 255.68 581.568 253.793 578.505 252.016C581.742 246.109 587.116 236.074 591.746 231.489Z"/><path fill="#6ECDEB" d="M641.234 258.002L642.026 257.967C644.336 259.144 645.949 264.761 647.018 267.561C640.359 269.518 633.729 271.573 627.132 273.727L626.323 273.649C624.551 272.614 622.184 266.908 621.184 264.771C627.06 262.083 634.947 259.914 641.234 258.002Z"/><path fill="#80CD6C" d="M394.005 364.325C398.019 365.002 405.905 378.438 408.18 382.301C405.427 384.569 404.353 385.263 401.28 387.057L400.37 387.066C398.653 386.261 388.928 372.373 386.969 369.772C389.206 367.586 391.46 366.124 394.005 364.325Z"/><path fill="#F7C74B" d="M427.874 185.396C429.346 186.278 433.02 189.599 434.568 190.925L442.667 186.941C440.909 189.901 439.648 192.499 438.14 195.588C440.056 198.03 442.4 200.231 444.604 202.435C441.658 202.026 438.818 201.402 435.907 200.805C433.945 202.922 432.249 206.621 430.885 209.264C430.185 206.156 429.729 202.947 429.225 199.796C426.611 199.167 422.916 198.642 420.174 198.181L428.621 193.862C428.19 190.739 428.029 188.543 427.874 185.396Z"/><path fill="#F7C74B" d="M313.637 153.354C314.686 155.841 312.815 159.364 313.038 161.238C315.325 163.13 319.274 164.918 322.135 166.574C318.99 167.165 316.826 167.749 313.762 168.615C312.422 172.681 312.496 174.769 312.432 178.97L307.576 169.949C304.787 170.416 302.117 171.218 299.387 171.963C301.181 168.32 302.202 167.16 304.749 164.118C303.058 161.305 301.457 158.439 299.948 155.523C302.968 157.353 305.007 158.428 308.195 159.96C309.739 158.414 312.15 155.199 313.637 153.354Z"/><path fill="#6ECDEB" d="M711.425 419.178C714.885 418.218 718.479 420.196 719.518 423.633C720.558 427.07 718.663 430.709 715.25 431.827C712.972 432.573 710.468 432.028 708.707 430.401C706.946 428.774 706.204 426.321 706.769 423.991C707.333 421.661 709.115 419.819 711.425 419.178Z"/><path fill="#F7C74B" d="M581.578 175.768C585.018 175.037 588.42 177.16 589.274 180.571C590.129 183.982 588.131 187.459 584.753 188.436C582.456 189.101 579.98 188.458 578.296 186.76C576.613 185.063 575.991 182.581 576.675 180.29C577.359 177.999 579.239 176.265 581.578 175.768Z"/><path fill="#F7C74B" d="M688.807 461.198C692.156 460.029 695.822 461.766 697.038 465.097C698.254 468.429 696.569 472.119 693.255 473.382C691.07 474.215 688.605 473.807 686.804 472.314C685.004 470.82 684.147 468.473 684.562 466.171C684.977 463.869 686.599 461.969 688.807 461.198Z"/><path fill="#EC4E77" d="M836.454 154.804C839.881 153.894 843.402 155.911 844.352 159.327C845.302 162.743 843.328 166.288 839.923 167.278C837.685 167.93 835.269 167.327 833.598 165.701C831.928 164.075 831.26 161.676 831.851 159.421C832.442 157.165 834.2 155.402 836.454 154.804Z"/><path fill="#6ECDEB" d="M699.964 91.3192C703.341 90.1057 707.061 91.8748 708.25 95.2606C709.44 98.6464 707.645 102.353 704.251 103.519C700.89 104.674 697.228 102.9 696.05 99.5479C694.872 96.1955 696.62 92.5207 699.964 91.3192Z"/><path fill="#6ECDEB" d="M563.875 121.846C566.028 120.845 568.557 121.106 570.459 122.527C572.362 123.948 573.331 126.299 572.982 128.648C572.632 130.997 571.022 132.964 568.788 133.77C565.54 134.942 561.945 133.35 560.629 130.158C559.314 126.965 560.744 123.303 563.875 121.846Z"/><path fill="#6ECDEB" d="M228.646 142.799C230.623 143.086 232.636 143.549 233.788 145.314C234.183 147.964 232.851 149.741 231.609 152.243C232.137 154.389 232.645 155.386 233.048 157.788C232.466 159.629 232.848 158.982 230.793 160.211C224.393 161.157 223.721 155.467 224.489 150.625C225.109 146.722 226.119 145.65 228.646 142.799Z"/><path fill="#6ECDEB" d="M409.985 262.852C412.244 262.412 414.566 263.223 416.06 264.974C417.554 266.724 417.99 269.144 417.2 271.306C416.411 273.468 414.518 275.038 412.248 275.414C408.804 275.984 405.542 273.683 404.923 270.248C404.304 266.813 406.559 263.519 409.985 262.852Z"/><path fill="#80CD6C" d="M360.25 205.492C364.276 205.005 367.786 206.278 366.965 211.138C366.129 216.088 363.167 219.456 359.317 222.474C357.117 222.901 354.717 220.333 353.138 218.96C360.194 212.448 358.185 213.961 360.25 205.492Z"/><path fill="#F7C74B" d="M189.358 189.311C191.577 188.745 193.929 189.421 195.508 191.08C197.086 192.738 197.647 195.12 196.972 197.309C196.298 199.497 194.494 201.15 192.256 201.633C188.884 202.359 185.551 200.251 184.761 196.894C183.971 193.536 186.016 190.164 189.358 189.311Z"/><path fill="#F7C74B" d="M331.118 444.33C334.36 443.236 337.879 444.951 339.014 448.179C340.15 451.406 338.482 454.947 335.269 456.125C333.154 456.901 330.784 456.479 329.067 455.019C327.35 453.56 326.551 451.29 326.975 449.077C327.4 446.863 328.982 445.05 331.118 444.33Z"/><path fill="#EC4E77" d="M690.31 189.159C692.396 188.235 694.822 188.533 696.623 189.935C698.424 191.337 699.309 193.615 698.926 195.865C698.543 198.114 696.954 199.971 694.79 200.698C691.653 201.752 688.241 200.153 687.043 197.067C685.844 193.982 687.283 190.5 690.31 189.159Z"/><path fill="#F7C74B" d="M278.705 244.86C281.831 243.873 285.175 245.55 286.254 248.645C287.333 251.74 285.756 255.132 282.695 256.302C280.632 257.091 278.303 256.695 276.617 255.269C274.931 253.843 274.153 251.613 274.587 249.448C275.022 247.283 276.599 245.525 278.705 244.86Z"/><path fill="#F7C74B" d="M773.242 330.545C777.065 330.292 780.542 330.924 781.658 335.236C780.601 338.12 776.032 337.266 772.443 340.06C770.902 342.033 771.46 341.963 769.514 342.5C767.793 342.035 766.577 340.483 765.274 339.167C767.348 334.124 768.43 333.111 773.242 330.545Z"/><path fill="#F7C74B" d="M235.583 345.224C238.796 344.338 242.12 346.226 243.004 349.44C243.887 352.655 241.996 355.976 238.781 356.857C235.57 357.737 232.253 355.848 231.371 352.638C230.488 349.428 232.373 346.11 235.583 345.224Z"/><path fill="#EC4E77" d="M738.848 247.835C740.995 249.226 742.494 250.07 744.747 251.269C746.971 251.101 749.296 250.806 751.522 250.563C752.653 254.25 753.991 255.499 750.78 257.883C743.243 260.179 732.554 255.735 738.848 247.835Z"/><path fill="#EC4E77" d="M656.929 228.811C659.074 229.008 660.373 229.112 662.19 230.178C663.074 231.834 661.978 234.897 662.333 236.444C662.76 238.308 665.265 239.655 665.359 241.867L663.679 243.613C657.201 247.601 653.387 235.117 656.929 228.811Z"/><path fill="#EC4E77" d="M356.045 118.788C358.002 118.248 360.098 118.812 361.52 120.261C362.943 121.709 363.469 123.815 362.894 125.762C362.319 127.709 360.735 129.192 358.754 129.636C355.791 130.3 352.84 128.479 352.105 125.534C351.369 122.588 353.118 119.594 356.045 118.788Z"/><path fill="#EC4E77" d="M502.683 167.634C505.551 167.01 508.41 168.723 509.213 171.547C510.015 174.37 508.485 177.331 505.718 178.309C503.767 178.999 501.593 178.548 500.078 177.138C498.562 175.729 497.955 173.594 498.502 171.597C499.05 169.601 500.66 168.074 502.683 167.634Z"/><path fill="#EC4E77" d="M451.378 107.846C458.056 109.765 464.005 117.295 456.919 122.402C456.009 121.997 448.844 112.732 448.701 111.98C449.594 109.786 449.778 109.666 451.378 107.846Z"/><path fill="#EC4E77" d="M759.716 171.261C762.43 170.504 765.264 171.985 766.194 174.644C767.124 177.303 765.828 180.228 763.234 181.326C761.401 182.103 759.288 181.796 757.752 180.529C756.216 179.263 755.511 177.247 755.924 175.299C756.337 173.352 757.798 171.795 759.716 171.261Z"/><path fill="#EC4E77" d="M681.891 154.236C684.698 153.732 687.383 155.596 687.892 158.403C688.401 161.209 686.541 163.897 683.735 164.411C680.923 164.925 678.227 163.06 677.717 160.247C677.207 157.434 679.077 154.741 681.891 154.236Z"/><path fill="#80CD6C" d="M828.588 217.715C830.324 217.067 832.275 217.42 833.675 218.634C835.074 219.847 835.699 221.729 835.304 223.539C834.909 225.349 833.556 226.798 831.778 227.318C829.163 228.082 826.412 226.64 825.553 224.054C824.694 221.469 826.036 218.667 828.588 217.715Z"/><path fill="#EC4E77" d="M232.241 399.253C234.986 399.019 237.411 401.031 237.687 403.772C237.962 406.513 235.987 408.968 233.251 409.286C231.443 409.496 229.663 408.715 228.592 407.244C227.521 405.772 227.327 403.838 228.083 402.182C228.839 400.527 230.428 399.407 232.241 399.253Z"/><path fill="#F5742E" d="M457.214 252.264C458.905 251.547 460.852 251.813 462.288 252.956C463.725 254.099 464.421 255.937 464.101 257.745C463.782 259.553 462.499 261.042 460.758 261.624C458.207 262.477 455.439 261.163 454.486 258.647C453.534 256.132 454.739 253.314 457.214 252.264Z"/><path fill="#F06152" d="M801.698 344.751C804.302 344.373 806.75 346.085 807.289 348.66C807.828 351.235 806.272 353.785 803.736 354.483C801.949 354.976 800.036 354.435 798.771 353.079C797.506 351.724 797.098 349.778 797.713 348.029C798.328 346.279 799.864 345.016 801.698 344.751Z"/><path fill="#F5742E" d="M282.681 100.808C285.274 100.152 287.913 101.698 288.609 104.281C289.305 106.864 287.8 109.527 285.228 110.262C283.529 110.749 281.7 110.281 280.442 109.04C279.184 107.798 278.693 105.975 279.157 104.27C279.621 102.565 280.967 101.241 282.681 100.808Z"/><path fill="#EC4E77" d="M331.112 222.618C332.778 222.069 334.611 222.474 335.891 223.674C337.171 224.874 337.694 226.677 337.253 228.376C336.813 230.074 335.48 231.396 333.779 231.823C331.276 232.451 328.725 230.985 328.007 228.507C327.288 226.028 328.661 223.426 331.112 222.618Z"/><path fill="#F7C74B" d="M795.095 179.935C797.62 179.159 800.296 180.573 801.078 183.096C801.86 185.619 800.453 188.299 797.932 189.087C795.402 189.878 792.711 188.465 791.926 185.933C791.141 183.401 792.561 180.714 795.095 179.935Z"/><path d="M479.625 768.453C481.453 771.653 479.665 773.132 480.839 776.088C480.638 778.349 480.445 780.198 480.469 782.482C479.898 780.89 479.97 780.988 478.625 779.962C478.748 776.264 479.249 772.172 479.625 768.453Z"/></svg>