<?xml version="1.0" encoding="utf-8" ?><svg xmlns="http://www.w3.org/2000/svg" xmlns:xlink="http://www.w3.org/1999/xlink" width="1024" height="1024" viewBox="0 0 1024 1024"><path d="M469.161 165.195C478.668 163.952 490.896 164.941 499.739 166.882C515.721 170.391 526.073 181.479 537.386 192.137C539.808 194.418 549.834 197.756 553.646 199.883C569.529 208.746 580.196 222.425 589.602 237.636C606.8 236.467 663.455 231.243 651.691 264.475C645.076 283.16 618.03 302.382 600.092 311.058C611.039 351.496 603.789 400.422 563.605 421.649C562.478 434.473 562.304 453.993 560.492 465.983C571.587 488.252 583.812 506.864 607.885 516.7C619.288 521.358 628.712 520.915 640.67 520.348C643.668 508.647 648.752 500.373 661.956 500.122L673.987 460.121C676.078 453.136 678.402 444.504 680.978 437.793C688.014 437.739 695.484 438.727 702.192 438.368C705.698 435.01 713.311 436.616 718.261 436.882C718.978 427.701 727.284 420.234 736.108 427.009C739.246 429.419 739.08 434.346 738.955 438.053C748.137 438.594 745.91 437.064 752.698 441.493C754.883 442.918 774.114 440.264 775.918 445.528C778.582 453.301 771.406 469.168 769.172 477.113C770.117 477.759 771.042 478.436 771.945 479.141C783.587 488.213 785.293 498.533 775.873 510.107C780.299 521.86 775.928 529.186 767.54 537.056C767.685 554.372 759.332 564.063 742.792 567.295C739.211 577.296 734.07 601.404 729.456 609.694C725.634 609.205 721.478 608.356 717.72 607.408C693.009 601.169 668.187 595.297 643.541 588.818C641.578 588.302 639.516 587.289 637.856 586.139C636.113 582.415 644.314 556.934 645.808 551.456C609.019 554.267 581.875 544.034 556.79 516.295C556.132 520.438 555.828 524.228 555.476 528.393C566.631 529.852 568.131 532.009 569.643 542.12C571.484 554.44 557.205 556.507 555.539 560.989C556.985 562.307 560.439 561.118 562.905 562.314C570.371 565.937 570.749 577.699 567.268 584.153C564.225 589.797 556.756 591.633 551.065 593.414C550.917 603.852 549.186 621.736 547.809 632.137C559.719 640.543 570.961 665.422 578.149 678.527C580.279 682.41 582.328 687.342 584.998 690.944C585.828 692.063 588.254 691.975 589.772 692.087C593.75 697.738 598.132 705.633 601.719 711.722C623.178 684.126 632.594 720.556 638.594 721.447C643.587 714.977 644.049 697.509 657.117 695.891C660.461 695.49 663.818 696.518 666.364 698.723C670.016 701.858 671.985 706.94 672.296 711.647C672.962 721.733 666.944 723.838 661.649 729.998L661.279 730.435C670.97 729.518 679.648 731.147 688.318 730.463C703.198 729.288 714.676 723.137 730.078 729.609C743.556 735.272 756.899 750.075 763.627 762.791C770.157 775.131 761.795 785.896 752.175 792.693C737.823 803.803 721.627 811.525 706.448 821.151C686.256 833.956 667.652 849.365 645.201 858.316C632.784 863.422 605.616 871.904 590.905 868.932C588.261 868.398 585.089 862.011 583.863 859.453C580.659 852.768 582.443 848.098 580.093 841.451C577.987 835.495 575.341 829.419 572.942 823.5C570.024 816.332 567.354 809.066 564.94 801.713C560.846 787.443 552.672 766.444 566.106 755.186C561.212 743.437 552.234 724.922 545.689 713.918C549.663 711.933 554.09 709.369 558.027 707.212C552.879 694.855 547.956 684.985 541.832 673.056C541.28 678.914 540.589 684.686 537.201 689.915C530.213 700.701 505.834 699.843 496.119 693.834C489.944 690.014 488.058 678.701 486.853 671.82C479.141 684.736 468.525 695.162 456.865 704.494C459.399 707.48 461.751 710.141 463.919 713.425C459.919 717.022 454.242 720.085 450.897 723.818C455.891 733.099 455.037 735.294 452.826 745.403C460.931 741.128 474.401 728.401 483.241 732.161C502.312 740.272 490.298 769.113 469.676 762.054C467.603 761.344 464.775 760.971 462.249 759.951C457.628 771.652 463.96 771.42 469.215 780.598C473.935 788.842 474.047 796.553 483.337 802.065C489.054 805.456 493.082 812.924 495.246 819.013C499.393 830.181 499.449 846.6 498.41 858.436C498.297 859.732 493.462 869.543 492.903 870.747C460.654 879.368 408.948 867.469 383.165 846.089C372.112 836.923 362.975 821.525 353.168 810.609C341.394 797.503 327.115 787.05 319.563 770.819C320.261 767.681 325.787 754.378 327.922 752.975C335.298 748.127 337.084 743.864 342.636 737.136C354.941 722.223 369.839 702.91 389.663 698.716C393.864 697.828 397.501 699.99 400.621 702.42C406.109 698.56 434.362 674.502 438.154 674.302C439.725 675.717 440.248 677.823 441.037 679.876C460.859 661.411 469.695 647.961 475.191 620.963C471.497 621.073 468.304 621.269 464.642 620.682C460.989 622.266 457.349 623.882 453.724 625.529C451.477 632.033 448.029 639.111 445.462 645.699C442.868 652.355 440.413 659.996 437.626 666.384C425.475 664.624 413.206 661.855 401.14 659.423C400.262 662.466 399.482 664.587 397.646 667.224C390.702 677.199 373.638 682.25 363.427 674.485C361.521 673.035 359.783 670.706 358.285 668.79C346.449 673.967 338.334 672.95 330.225 662.341C313.878 666.139 306.769 656.451 303.276 641.693C293.898 640.041 284.973 639.145 275.654 636.598C272.683 633.646 271.88 631.86 270.492 628.063C272.127 622.703 275.147 615.405 277.169 609.988L288.303 579.639C292.188 568.94 296.129 558.262 300.126 547.604C302.211 542.071 305.015 534.095 307.637 528.942C314.994 529.184 323.737 530.98 331.102 532.277C339.437 533.727 347.784 535.114 356.141 536.437C380.11 494.195 407.087 477.365 454.431 468.754C452.443 460.341 450.379 444.151 449.075 435.368C425.905 423.746 411.565 407.839 402.963 383.369C372.953 386.043 345.215 378.976 364.026 342.573C361.874 333.176 359.924 324.727 358.867 315.09C356.429 292.849 358.524 269.392 369.747 249.616C372.861 244.129 377.047 239.489 380.242 234.07C386.134 222.632 389.092 214.752 397.451 204.418C415.249 182.402 441.021 168.305 469.161 165.195ZM388.921 541.726C396.048 543.073 404.558 544.125 411.423 545.603C429.221 548.533 450.759 551.981 468.121 555.979C464.263 536.663 462.021 517.201 458.922 497.784L457.961 497.537C426.746 505.149 407.315 513.837 388.921 541.726Z"/><path fill="#AEACB1" d="M538.521 276.708C552.28 275.593 571.065 279.736 584.53 282.781C604.024 318.072 611.391 360.379 588.452 396.543C581.303 407.815 572.813 413.92 561.597 420.585C561.276 442.341 558.056 463.335 555.815 484.893C555.142 491.361 555.18 500.197 554.85 506.91C554.427 514.624 553.767 522.323 552.869 529.996C546.243 531.678 536.561 535.613 529.566 537.843C510.077 544.055 490.584 551.119 471.129 557.37C468.748 545.95 467.536 534.135 465.409 522.592C464.06 514.233 462.79 505.86 461.598 497.477C468.931 497.448 481.131 498.436 486.429 492.557C491.51 486.92 490.509 475.01 484.227 470.577C477.128 465.567 464.823 467.156 456.69 467.993C455.987 463.254 451.53 440.571 452.92 437.96C454.248 437.681 454.524 437.765 455.576 436.97C453.895 434.545 440.317 428.23 435.886 424.966C411.713 407.163 404.229 385.035 399.36 357.104C402.625 352.682 406.057 348.385 409.65 344.224C442.813 305.685 487.458 280.511 538.521 276.708Z"/><path d="M572.755 303.713C575.18 303.688 578.143 304.272 580.453 304.997C587.877 307.334 594.017 312.618 597.433 319.612C600.916 326.744 601.459 334.958 598.945 342.487C594.141 356.776 580.005 365.568 565.182 360.397C561.045 363.914 545.148 372.615 540.859 368.368L540.9 367.293C544.058 365.696 548.513 365.213 552.456 364.344C559.203 362.859 568.928 354.093 566.182 346.296C561.396 332.708 540.946 345.748 536.768 343.807C539.019 341.264 543.041 340.22 546.207 339.286C544.817 333.317 545.867 329.192 536.282 331.135C535.764 331.147 533.978 332.311 533.891 332.629C531.956 339.625 533.086 343.247 529.228 350.027C525.502 356.729 519.214 361.63 511.806 363.606C503.48 365.85 496.885 364.331 489.664 360.21C481.115 354.525 477.592 347.167 475.984 337.346C468.556 338.527 430.49 341.599 427.028 344.814C423.906 347.714 424.441 353.01 421.768 355.946L420.685 355.701C418.323 352.014 423.326 341.271 427.984 340.541C443.286 338.142 460.535 335.446 475.904 334.259C476.122 329.4 477.035 325.286 479.282 320.955C482.867 314.043 489.078 308.859 496.52 306.568C514.539 301.211 528.231 312.034 533.112 329.073C538.236 327.397 539.742 327.014 544.831 328.708C545.247 306.154 553.257 305.268 572.755 303.713Z"/><path fill="#AEACB1" d="M572.421 306.925C606.34 310.981 603.839 356.184 573.947 358.623C571.456 358.644 569.825 358.992 568.125 357.397C568.452 354.498 573.935 351.821 576.755 349.19C581.915 344.377 581.424 338.331 581.693 331.544C578.029 329.974 573.933 328.473 570.193 327.016C573.504 323.803 576.775 320.548 580.003 317.252C577.422 312.155 576.818 310.578 572.421 306.925Z"/><path fill="#AEACB1" d="M492.284 311.959L492.714 312.234C491.141 314.568 490.142 316.509 488.985 319.062C483.046 332.17 488.788 357.827 506.241 358.161C510.688 358.246 514.975 356.507 518.105 353.348C523.173 348.224 523.531 342.801 523.584 336.164C519.42 333.993 516.666 332.688 512.309 330.96C515.778 327.995 518.867 325.319 522.174 322.143C520.391 317.725 518.816 315.325 516.128 311.478C517.604 312.36 519.14 313.37 520.604 314.293C521.931 315.581 523.404 317.065 524.569 318.499C533.64 329.66 530.809 347.701 519.376 356.228C514.14 360.162 507.547 361.836 501.069 360.876C494.215 359.867 488.084 356.068 484.129 350.381C474.934 337.158 479.074 320.83 492.284 311.959Z"/><path d="M566.179 365.293C569.024 365.808 575.302 370.438 575.353 373.613L574.514 374.196C573.626 373.881 573.214 373.715 572.34 373.304L571.587 372.942C569.14 373.936 565.471 377.484 563.343 378.966C542.9 393.215 517.727 392.202 497.612 377.999C496.532 377.237 495.85 377.875 494.691 378.349C494.109 378.996 494.489 378.744 493.474 378.968C492.923 375.986 496.267 371.332 499.194 370.752C500.42 371.446 499.915 370.998 500.569 372.27C500.048 373.405 499.564 374.086 499.766 375.293C519.616 393.926 550.728 387.428 569.491 370.464C567.84 368.355 567.271 367.707 566.179 365.293Z"/><path d="M504.466 286.627C507.917 286.286 514.676 285.384 514.938 290.47C513.282 293.721 508.616 294.471 505.338 295.077C499.13 296.225 494.712 297.868 489.287 300.99C487.207 302.262 485.392 304.2 483.254 304.885L482.35 304.346C481.664 300.526 486.918 295.748 489.704 293.573C494.197 290.065 499.061 288.208 504.466 286.627Z"/><path d="M556.832 285.076C558.755 284.905 560.211 284.998 562.113 284.953C567.96 284.812 582.284 291.885 581.812 298.855L581.097 299.265L579.604 298.515C575.476 295.976 574.96 295.709 570.109 294.164C564.946 292.52 558.472 293.339 554.116 290.535C553.098 289.879 553.385 288.739 553.479 287.908C554.57 286.285 555.18 286.076 556.832 285.076Z"/><path fill="#F5742D" d="M478.037 166.72C510.15 166.404 531.738 184.211 546.645 211.615C550.633 218.949 554.125 228.675 559.231 235.044L559.749 235.685C557.799 224.959 546.438 206.095 540.382 196.508C561.026 202.489 576.086 220.845 587.342 238.121C583.393 238.559 579.448 239.03 575.506 239.536C504.694 248.829 411.661 280.471 366.46 339.349C365.957 338.299 365.517 337.219 365.143 336.117C360.54 322.413 359.465 303.603 360.689 289.443C364.1 249.986 386.843 222.077 424.047 209.813C444.922 204.743 460.523 207.569 476.804 222.346C481.883 226.956 486.907 232.727 492.242 236.9L492.867 237.382C485.179 223.32 470.474 211.436 455.111 206.988C433.161 200.633 415.727 209.43 397.038 219.357C407.934 201.336 425.241 185.084 447.302 186.102C473.401 187.305 491.668 210.443 502.302 231.905C504.119 235.57 506.487 239.726 509.363 242.659C506.052 228.473 493.613 211.524 483.846 200.889C460.262 175.214 421.798 179.748 401.917 207.426C396.526 214.931 392.823 221.787 386.177 228.415C390.307 217.949 395.429 209.933 403.072 201.56C422.461 180.478 449.421 167.948 478.037 166.72Z"/><path fill="#FEFEFE" d="M351.594 559.689C363.529 558.468 380.539 563.123 388.16 572.979C389.885 575.21 392.72 581.584 389.723 583.588C385.187 583.194 378.336 576.315 373.562 578.758C373.67 579.803 373.661 580.058 374.892 580.519C390.289 586.286 405.117 595.16 405.62 614.263C402.296 614.447 393.672 616.369 391.939 615.569C391.711 614.595 391.503 613.719 391.226 612.758L390.446 613.212C389.497 614.717 388.576 616.813 388.225 619.087C386.651 629.29 381.145 646.726 386.394 655.989C387.165 657.349 396.892 658.669 399.145 659.098C396.856 664.554 393.75 669.248 388.319 671.905C373.243 679.279 365.927 676.713 357.997 663.168C356.717 660.474 355.391 656.975 353.156 655.164L352.703 655.676C353.224 660.389 354.711 662.672 356.879 666.871C353.576 668.21 351.485 668.96 347.888 669.241C333.177 670.389 331.825 656.15 325.071 650.244L324.354 650.597C324.173 653.037 327.134 658.074 328.366 660.361C311.893 662.129 305.707 649.811 304.189 635.484C301.644 611.451 313.455 583.783 338.999 578.216C340.793 577.825 343.67 577.045 344.845 575.599C339.591 571.927 330.509 581.27 327.159 576.829C325.735 564.916 342.511 560.636 351.594 559.689Z"/><path fill="#FEFEFE" d="M688.835 449.799C691.151 449.958 697.846 450.193 699.554 451.019C699.715 451.927 699.885 452.834 700.064 453.738C702.218 455.763 737.414 457.081 742.508 458.151C743.77 458.417 744.342 458.096 745.217 457.295C745.467 455.744 745.498 455.505 746.034 454.042C747.946 453.367 756.251 454.381 758.873 454.615C757.712 459.992 755.187 467.893 753.61 473.372C747.473 473.346 741.809 474.472 737.121 478.796C732.541 478.361 710.023 474.982 707.791 476.357C710.605 479.576 729.61 480.587 734.787 481.021C733.297 483.903 732.992 484.721 732.029 487.773C728.424 486.97 708.234 482.504 706.009 485.192C707.97 487.378 726.602 488.84 731.457 489.983C732.15 492.282 732.896 494.564 733.695 496.829C731.661 498.008 729.572 499.389 727.578 500.657C717.012 497.543 707.882 495.299 696.983 495.657C693.381 495.776 688.298 491.241 682.199 493.41L682.081 494.271C684.461 495.719 697.626 498.166 700.896 498.222C709.736 498.373 717.206 500.79 725.752 502.927C722.22 510.108 721.457 513.456 723.911 521.072C720.784 523.928 721.039 524.729 716.877 523.753C709.441 522.093 682.191 515.774 676.03 517.488L676.03 518.289C678.669 519.214 690.396 521.215 693.384 521.762C701.727 523.333 710.052 524.995 718.359 526.747C713.534 539.281 718.042 546.65 730.374 550.715L719.424 587.789C698.736 581.882 673.718 576.555 652.406 571.104C654.769 564.375 657.125 555.731 659.209 548.785L672.05 505.768C677.276 488.219 684.507 467.148 688.835 449.799Z"/><path d="M701.624 463.701L702.357 464.3L702.198 466.198L702.712 466.591C704.86 465.345 706.602 464.429 709.159 465.095C708.817 466.536 704.208 469.188 702.617 470.237C701.446 473.733 700.541 481.654 698.654 483.807C697.24 483.093 697.522 483 696.539 481.469L693.692 480.881C692.234 480.804 692.719 480.999 691.514 480.371C691.163 479.311 691.05 478.892 690.881 477.814L690.739 476.883C690.261 478.289 689.841 479.341 689.261 480.709L688.343 481.041L687.193 479.845C687.21 476.081 689.1 469.983 690.099 466.204C691.183 462.099 696.871 466.471 701.624 463.701Z"/><path d="M698.55 563.072C703.202 562.94 724.552 564.709 713.258 572.818L712.719 572.94C707.032 574.25 690.343 570.694 698.55 563.072Z"/><path fill="#FEFEFE" d="M699.317 565.922C702.19 565.824 710.756 566.594 712.985 568.434C713.581 568.926 713.344 569.125 713.348 570.13C709.192 571.082 700.164 571.29 699.317 565.922Z"/><path d="M666.543 543.644C669.259 543.25 670.787 543.593 673.453 544.124C683.196 546.14 692.926 548.222 702.641 550.368C706.683 551.264 717.591 552.889 719.721 556.049C716.368 557.112 699.843 552.458 695.072 551.515C686.461 549.814 677.205 547.827 668.653 545.734C666.991 545.327 667.199 544.992 666.543 543.644Z"/><path d="M673.435 530.463C677.101 530.065 676.862 529.807 678.579 532.739C681.081 533.922 681.903 532.017 685.003 532.272C692.758 532.91 691.608 536.383 699.202 533.998L702.487 536.588L703.074 536.606L704.016 536.648C707.271 536.777 712.983 537.455 715.292 539.863C714.677 541.201 714.475 540.901 712.704 541.696C711.037 540.91 709.154 539.779 707.52 538.862C700.375 540.587 700.809 536.29 692.412 537.966C686.118 532.591 682.277 537.855 677.374 535.518C674.244 530.419 674.11 534.898 670.992 533.392C671.248 532.033 672.32 531.417 673.435 530.463Z"/><path d="M686.311 502.665C687.442 503.746 688.261 505.619 689.446 507.046C697.145 510.777 698.646 501.267 707.986 511.279C711.057 510.947 715.318 509.789 717.45 512.192L717.23 513.085C716.528 513.372 709.901 513.777 708.065 514.046C705.793 512.96 704.116 510.662 702.213 508.734C694.385 510.387 689.671 513.316 685.286 505.154C683.1 506.421 681.627 507.707 679.307 507.153L679.338 506.193C681.668 503.526 682.736 503.479 686.311 502.665Z"/><path d="M709.475 466.547C713.73 466.803 745.394 470.081 747.188 471.135C747.857 471.527 747.714 472.07 747.833 472.77C739.827 472.82 718.606 471.005 710.429 468.32C709.627 468.057 709.735 467.538 709.475 466.547Z"/><path d="M662.822 557.007C666.444 556.945 684.794 560.702 686.508 563.385C682.716 565.099 670.313 560.746 665.78 559.776C663.755 559.342 663.526 558.436 662.822 557.007Z"/><path fill="#F5742D" d="M607.363 239.218C636.612 237.886 668.841 242.94 639.713 278.301C629.029 291.271 614.501 300.59 599.948 308.656C598.503 304.686 596.595 300.235 595.007 296.269C601.965 289.028 613.803 275.866 604.321 266.08C599.303 260.901 588.39 259.352 581.4 259.617C512.92 262.215 439.325 283.58 390.015 333.323C383.941 340.197 374.464 351.054 373.621 360.44C372.638 371.386 392.124 371.467 399.044 371.633C400.019 374.79 400.977 377.952 401.917 381.12C391.386 382.043 373.827 382.207 365.388 374.766C351.99 362.665 366.874 340.604 376.348 331.01C434.525 272.098 526.474 243.116 607.363 239.218Z"/><path fill="#F5742D" d="M370.543 711.411C372.169 712.784 374.368 724.352 375.504 727.669C376.486 730.6 377.812 733.404 379.452 736.024C384.511 743.968 392.348 748.373 401.361 750.309C401.182 751.235 401.013 752.163 400.854 753.092C397.001 775.714 404.386 794.764 417.375 813.009C412.633 819.978 409.781 826.45 406.166 834.045C401.133 831.509 396.264 828.194 391.729 824.866C381.659 817.008 379.054 808.852 371.754 800.868C356.137 783.788 343.595 776.656 333.49 754.089C342.924 737.442 356.595 724.216 370.543 711.411Z"/><path fill="#F5742D" d="M609.505 770.374C615.337 773.132 620.926 774.386 626.637 776.973L626.483 792.084C629.256 791.795 631.952 791.874 634.734 791.897L634.493 777.32C636.88 777.445 639.263 777.742 641.636 778.03C650.843 779.145 660.068 779.556 669.334 779.961C669.757 784.442 671.26 789.64 672.46 794.018C658.497 807.038 639.248 820.899 622.251 829.59C609.664 835.592 598.073 839.204 584.884 843.464C575.065 829.211 566.193 798.524 562.381 781.481C584.422 788.088 592.892 786.387 609.505 770.374Z"/><path fill="#AEACB1" d="M548.1 595.003L548.643 595.126C549.737 597.163 546.498 626.29 546.463 631.624C527.777 647.118 545.025 669.681 536.282 687.726C531.097 698.429 506.618 697.343 497.572 691.842C480.008 677.376 496.35 657.148 501.016 641.18C504.119 630.561 506.077 620.005 507.859 609.101C521.36 603.915 534.371 599.614 548.1 595.003Z"/><path fill="#FEFEFE" d="M458.316 795.217C459.03 795.244 459.743 795.276 460.456 795.313C474.773 796.058 485.07 803.349 491.56 816.033C497.054 826.769 496.883 837.872 496.105 849.587C480.695 850.825 465.193 850.242 449.92 847.849C436.83 845.504 420.303 841.562 408.806 835.069C418.149 810.774 431.815 797.2 458.316 795.217Z"/><path fill="#FEFEFE" d="M330.055 754.271C331.186 755.465 333.91 760.458 334.739 762.249C341.797 777.508 354.728 786.855 366.235 798.625C373.945 806.304 380.499 819.144 388.892 825.797C417.464 848.445 457.612 854.159 493.147 852.581C494.315 852.529 495.255 853.519 495.957 854.428C497.362 859.234 493.103 867.449 488.604 869.605C454.862 875.085 414.647 866.017 386.886 846.029C375.132 837.566 366.333 822.188 356.763 811.217C345.579 798.395 329.979 785.805 322.092 770.744C324.587 764.562 326.644 759.996 330.055 754.271Z"/><path fill="#9B7C58" d="M387.714 544.16C404.511 546.94 421.29 549.822 438.052 552.805C447.516 554.496 456.528 555.878 465.903 558.076C464.965 564.407 458.987 580.311 456.694 586.67C453.432 585.919 449.496 585.466 446.129 584.995C443.535 591.261 441.657 596.087 439.569 602.525C433.162 602.868 426.764 603.376 420.383 604.048C416.226 604.722 414.278 604.009 410.764 606.536C410.06 608.162 410.209 607.321 410.421 609.169C414.797 613.969 430.981 607.907 436.382 609.346L435.833 610.07C433.925 611.135 412.573 613.378 408.594 613.888C407.752 604.905 405.397 597.823 398.429 591.588C396.365 589.742 394.259 588.309 392.975 585.907C395.391 573.105 388.696 568.54 379.127 561.855C381.799 555.445 384.249 550.168 387.714 544.16Z"/><path fill="#FEFEFE" d="M755.793 757.576L757.228 757.604C761.247 760.018 762.461 767.076 763.669 771.624C733.44 779.37 705.121 794.743 679.854 812.818C667.498 821.327 655.436 832.43 642.445 839.906C626.012 849.364 607.793 854.488 590.898 863.603C587.17 862.822 582.999 852.025 583.19 848.468C586.645 844.8 606.372 838.81 612.385 836.582C635.697 827.945 651.235 815.291 670.387 799.691C695.767 779.018 723.715 764.943 755.793 757.576Z"/><path fill="#FEFEFE" d="M750.213 476.079C752.512 475.879 754.706 475.849 757.021 476.106C769.532 477.499 784.072 489.053 778.018 502.872C776.981 505.239 775.317 507.272 773.73 509.342C776.72 522.965 774.832 526.39 765.52 536.22C765.451 552.107 758.643 560.513 743.761 564.895C744.671 561.277 745.868 557.961 747.082 554.438C739.462 544.642 727.769 551.539 721.151 542.257C716.094 535.166 719.942 527.165 726.217 522.823C740.451 516.031 749.864 527.254 754.426 526.815L754.621 526.124C751.472 521.176 741.737 518.034 735.993 518.366C728.845 518.779 723.361 521.879 725.271 511.223C727.746 497.41 745.786 494.112 756.927 498.738C759.956 500.005 764.255 503.95 767.351 504.627L768.166 504.093C766.878 499.647 756.947 495.739 752.556 494.814C746.771 493.594 741.631 494.421 735.944 495.556C731.328 483.911 739.839 478.263 750.213 476.079Z"/><path fill="#9B7C58" d="M309.392 531.407C314.653 531.759 321.423 533.067 326.709 533.954L354.971 538.795C351.895 545.597 349.8 550.436 347.307 557.427C335.279 560.161 320.677 565.132 325.719 580.585C312.091 590.006 306.3 599.678 302.674 615.858C301.533 622.403 301.479 626.9 301.575 633.501L273.11 627.421C282.294 605.193 289.921 581.219 298.71 558.736C301.86 550.678 305.443 538.832 309.392 531.407Z"/><path fill="#FEFEFE" d="M712.785 728.699C731.935 727.596 745.336 740.558 755.352 755.138C734.623 760.28 718.415 766.32 699.851 776.688C693.146 780.273 680.809 788.08 674.84 792.524C664.884 761.506 678.063 731.384 712.785 728.699Z"/><path fill="#AEACB1" d="M554.948 564.541C571.331 562.242 568.34 583.282 561.734 586.739C554.109 590.729 539.595 595.354 531.032 598.338L470.119 619.391C468.928 619.396 468.181 619.283 467.008 619.154L466.6 618.559C467.531 617.24 467.695 617.166 468.134 615.571C466.249 611.413 462.277 613.46 459.748 610.753C459.076 607.372 463.17 599.446 464.78 596.047C473.981 591.886 488.637 587.487 498.407 583.951C517.153 577.166 536.031 570.813 554.948 564.541Z"/><path fill="#9B7C58" d="M682.886 440.35C689.26 440.488 695.088 440.679 701.446 441.115C701.007 443.271 700.674 445.656 700.32 447.846C696.726 447.432 690.669 447.403 686.885 447.266C685.195 452.682 683.814 458.456 682.133 463.964C675.092 486.525 668.255 509.15 661.623 531.834C659.289 539.64 650.555 566.318 650.248 572.386C655.642 575.959 709.818 587.955 721.129 590.691C725.593 578.148 728.634 563.215 733.388 550.474L739.315 551.51L737.928 556.555C734.956 567.088 731.842 577.58 728.586 588.028C727.399 591.882 726.107 595.793 724.783 599.544C724.105 601.466 725.983 602.691 724.557 606.299C723.31 606.346 705.255 601.734 702.972 601.166C684.056 596.456 664.953 592.005 646.104 587.029C644.104 586.501 641.864 585.733 640.108 584.645C639.531 583.312 639.66 582.855 640.133 581.142C644.954 563.72 650.429 546.218 655.674 528.936C664.468 499.323 673.539 469.793 682.886 440.35Z"/><path fill="#FEFEFE" d="M587.55 693.911C592.247 694.582 600.214 718.251 604.51 723.534C609.625 729.825 609.381 730.265 616.539 735.006C606.139 736.371 590.779 743.395 595.541 757.037C597.435 762.464 603.305 764.872 608.298 766.874C607.019 768.381 605.614 769.595 604.161 770.929C576.213 773.336 570.886 761.844 560.9 738.945C557.627 731.439 552.723 722.209 549.039 714.702C550.796 713.707 552.753 712.745 554.558 711.811C557.844 717.963 565.216 733.776 570.648 736.639C569.678 731.891 560.124 716.332 557.111 710.696C559.141 709.456 561.327 708.338 563.43 707.214C568.092 716.61 572.204 725.942 579.273 733.776C577.468 727.261 569.059 712.486 565.579 705.987L571.904 702.62C576.297 709.722 582.471 723.944 588.101 729.208C586.075 722.283 577.806 708.075 573.835 701.679C575.897 700.29 577.882 699.293 580.07 698.13C585.323 706.671 588.621 715.637 595.716 722.741C593.954 715.823 586.577 704.732 583.112 697.023L587.55 693.911Z"/><path fill="#AEACB1" d="M556.529 531.574C570.733 530.976 569.227 550.133 560.757 554.296C552.226 558.489 541.11 561.795 531.977 564.904C512.727 571.371 493.517 577.956 474.348 584.659C471.086 585.697 469.517 585.978 466.171 586.55C468.075 580.377 471.495 570.836 472.59 564.897C471.905 563.702 471.165 561.693 470.622 560.346L520.314 543.484C531.739 539.589 544.99 534.818 556.529 531.574Z"/><path fill="#FEFEFE" d="M436.174 677.927C439.798 681.78 435.621 684.832 432.839 687.202C426.132 692.917 419.713 698.466 414.536 705.663C422.549 700.715 430.678 692.714 437.97 686.361C439.397 688.654 440.58 691.202 441.786 693.631C431.521 702.389 428.634 703.086 419.188 714.584C427.776 709.372 435.51 701.948 442.932 695.175L447.905 700.924C440.183 707.425 432.597 713.19 426.727 721.432C431.362 719.103 434.118 716.496 438.017 713.116C441.875 709.589 446.262 705.524 450.587 702.693L455.28 707.658C448.665 712.835 442.654 717.591 436.634 723.459C429.461 723.341 428.037 723.048 426.195 730.498C410.9 728.575 406.519 732.633 406.468 748.03C397.341 741.626 389.909 735.408 391.579 723.046C392.185 718.783 393.816 714.731 396.332 711.237C402.755 702.267 426.273 685.305 436.174 677.927Z"/><path fill="#9B7C58" d="M430.377 628.238C431.323 627.984 431.098 628.088 432.148 628.208C434.397 632.792 436.291 632.327 440.983 633.422C437.948 641.091 435.577 649.156 432.395 657.067C422.462 655.196 412.553 653.204 402.669 651.093C397.228 650.082 391.805 648.979 386.402 647.785C386.726 642.52 387.519 637.259 388.224 632.028C400.115 630.105 417.898 629.154 430.377 628.238Z"/><path fill="#F5742D" d="M404.34 750.673L404.506 750.72C408.739 751.889 412.64 755.975 417.123 757.818C420.246 759.101 426.309 758.844 426.678 761.812C423.822 764.607 415.59 763.719 411.841 762.813C408.058 766.502 403.459 773.077 412.26 774.448C417.194 775.217 424.588 772.908 429.606 771.747C430.632 775.39 431.243 777.817 432.834 781.254C427.461 781.707 409.143 782.157 412.614 791.262C413.744 794.226 415.133 795.194 417.932 796.473C424.556 794.037 428.879 791.849 435.828 789.97L439.666 796.195C429.988 800.817 426.314 803.74 418.902 811.42C418.567 810.937 418.238 810.45 417.917 809.958C405.182 790.331 399.562 773.887 404.34 750.673Z"/><path fill="#AEACB1" d="M726.833 427.073C736.81 425.896 738.57 432.424 734.29 440.247C738.236 440.626 743.617 440.683 747.677 440.85C744.489 446.281 743.802 449.523 743.008 455.644C737.483 455.261 731.55 454.608 726.007 454.089C718.096 453.402 710.179 452.801 702.255 452.287C702.572 446.937 703.425 443.793 705.091 438.749C710.142 438.924 715.448 439.278 720.513 439.53C720.492 433.16 721.046 430.356 726.833 427.073Z"/><path d="M727.151 429.812C729.802 429.001 732.612 430.476 733.448 433.12C734.284 435.763 732.835 438.586 730.199 439.447C727.529 440.32 724.66 438.846 723.813 436.168C722.965 433.49 724.465 430.635 727.151 429.812Z"/><path fill="#FEFEFE" d="M727.672 432.283C728.555 431.953 729.549 432.136 730.257 432.759C730.965 433.382 731.272 434.344 731.057 435.262C730.842 436.18 730.139 436.905 729.228 437.149C727.91 437.501 726.547 436.757 726.132 435.457C725.716 434.158 726.394 432.761 727.672 432.283Z"/><path fill="#F5742D" d="M389.426 700.534C393.919 700.293 394.596 700.81 398.283 703.541C390.419 714.776 384.512 728.674 394.296 741.258C395.786 743.175 397.812 744.568 398.976 746.698C397.639 747.21 397.324 746.747 395.572 746.205C378.351 738.162 375.693 725.573 374.491 708.209C379.101 704.393 383.898 702.582 389.426 700.534Z"/><path fill="#F5742D" d="M566.468 757.79C568.791 759.231 569.993 763.595 572.651 765.949C581.246 773.56 591.954 773.774 602.459 773.687C599.162 776.372 597.267 777.56 593.592 779.596C592.026 780.283 590.428 780.895 588.804 781.429C579.111 784.581 570.691 782.392 561.911 777.975C560.834 770.027 560.576 763.837 566.468 757.79Z"/><path fill="#F5742D" d="M666.656 748.029C668.752 748.442 672.326 748.661 674.555 748.867C669.951 760.215 669.443 765.297 669.035 777.439C657.627 776.889 646.904 776.494 635.626 774.487L635.105 773.747C635.232 770.976 635.722 769.156 636.314 766.47C638.828 768.656 640.262 769.5 643.087 771.254C645.992 769.661 646.527 769.286 649.077 767.161C653.057 769.014 659.026 772.334 662.219 767.538C662.683 764.314 661.87 763.336 660.062 760.552C662.119 755.889 664.071 752.392 666.656 748.029Z"/><path fill="#FEFEFE" d="M656.499 698.003C680.635 700.919 669.189 729.674 649.498 732.758C648.302 732.019 648.705 732.522 648.242 731.203C649.398 726.568 658.75 725.066 663.915 716.241C664.169 713.559 664.002 708.222 662.059 706.357C651.404 696.127 647.66 728.474 642.487 728.824C641.22 726.202 642.04 721.27 642.893 718.5C645.498 710.03 648.344 702.527 656.499 698.003Z"/><path fill="#FEFEFE" d="M659.705 502.553L660.238 502.757L660.576 503.734C659.461 508.562 648.095 545.995 646.759 547.249L646.008 546.571C639.12 532.481 641.202 505.863 659.705 502.553Z"/><path fill="#FEFEFE" d="M477.872 734.618C492.416 734.886 494.354 750.266 484.144 758.183C479.197 762.018 460.6 761.249 457.449 756.298L457.879 755.581C462 753.917 470.792 754.903 475.65 755.175C478.666 754.477 483.056 753.174 484.1 749.809C484.608 748.171 484.624 744.263 483.467 742.877C477.053 735.193 461.707 750.143 456.763 748.662C457.132 742.076 472.381 736.109 477.872 734.618Z"/><path fill="#FEFEFE" d="M628.728 737.179C629.518 737.157 629.604 737.345 630.439 737.712L630.493 738.288L629.652 737.446L630.414 738.607L630.127 739.162C624.426 743.145 619.12 742.41 612.542 744.491C609.469 745.315 605.802 746.392 604.107 749.318C602.378 752.304 605.769 757.958 608.845 758.588C617.982 760.459 626.315 745.197 631.306 742.493C632.542 743.14 632.478 743.381 633.188 744.649C632.892 746.783 632.452 746.675 630.878 748.67C624.881 755.882 613.312 767.819 603.056 761.792C597.614 758.593 595.336 750.495 599.558 745.426C606.394 737.218 619.022 738.612 628.728 737.179Z"/><path fill="#FEFEFE" d="M417.398 732.093C425.741 732.608 433.824 735.447 440.04 741.292C441.164 742.349 443.153 744.714 443.142 746.343C436.262 746.165 423.36 731.735 416.232 740.172C413.367 743.563 415.363 747.988 418.577 750.384C426.418 753.015 432.629 750.651 438.568 752.373C439.591 753.568 439.268 752.857 439.24 754.703C437.404 757.828 433.201 757.509 429.885 757.442C419.484 757.23 404.278 752.274 409.462 738.827C410.829 735.282 414.003 733.607 417.398 732.093Z"/><path fill="#FEFEFE" d="M615.096 704.054C616.469 704.157 617.831 704.366 619.171 704.681C626.262 706.345 636.514 719.665 634.759 726.786L633.9 727.226C630.704 725.777 627.287 718.058 624.799 715.015C622.951 712.755 622.049 711.988 619.841 710.126C618.89 710.471 617.945 710.834 617.008 711.216C612.132 713.229 610.045 716.409 612.331 721.461C614.945 724.457 618.13 727.753 621.49 729.91C624.027 731.538 626.009 732.237 628.274 734.284L628.113 734.971C617.241 736.927 588.624 714.453 615.096 704.054Z"/><path fill="#82838A" d="M446.281 612.707C448.153 612.477 451.911 612.512 453.933 612.468C453.831 616.516 453.867 618.421 455.201 622.23C448.409 622.926 441.09 624.199 434.115 624.996C431.853 625.234 429.59 625.452 427.325 625.652C419.458 611.077 436.595 613.34 446.281 612.707Z"/><path fill="#9B7C58" d="M749.043 444.064C755.477 444.662 764.279 444.785 770.981 445.159C768.394 454.431 764.884 464.86 762.073 474.19C761.469 474.343 756.965 473.423 756.053 473.252C757.153 469.376 762.37 456.342 761.013 453.429C758.47 451.532 750.312 451.363 746.431 450.797C747.323 447.583 747.523 447.013 749.043 444.064Z"/><path fill="#82838A" d="M415.32 615.686L417.312 615.499C418.71 616.645 418.16 621.654 419.828 625.727L420.108 626.392C412.946 626.422 402.753 627.622 395.548 628.359L389.05 629.094C389.612 625.825 390.385 622.334 391.05 619.061C398.705 617.624 407.512 616.682 415.32 615.686Z"/><path fill="#AEACB1" d="M447.777 587.82C451.848 588.155 459.564 588.831 461.809 592.53C462.448 595.929 458.107 605.059 456.552 609.489C455.323 610.346 454.607 610.284 453.409 609.626C451.118 602.418 448.849 602.389 441.995 602.267C443.951 597.463 445.878 592.647 447.777 587.82Z"/><path fill="#FEFEFE" d="M430.425 726.104C448.147 725.233 454.339 724.689 449.973 744.031C449.212 743.93 446.604 743.635 446.15 743.205C442.59 739.827 430.821 733.946 429.227 729.856C429.408 727.77 429.323 727.836 430.425 726.104Z"/><path fill="#FEFEFE" d="M450.811 781.708C454.692 781.185 461.336 781.736 465.5 781.302C466.967 781.149 467.274 781.612 468.049 782.391C468.531 784.221 468.627 783.394 468.05 784.967C465.551 785.738 457.035 785.719 453.814 785.889C448.709 786.123 443.624 786.681 438.59 787.56C435.074 788.221 424.887 790.775 422.428 788.344C424.924 782.67 445.24 782.18 450.811 781.708Z"/><path fill="#AEACB1" d="M550.38 561.579L551.375 561.604L551.743 562.122C548.414 564.941 484.138 586.06 476.702 588.381C475.927 588.313 476.273 588.472 475.711 587.813C480.305 584.087 542.019 563.901 550.38 561.579Z"/><path fill="#9B7C58" d="M386.915 650.81C395.542 651.254 421.844 658.207 431.882 659.756C433.184 659.957 434.288 662.36 434.955 663.618C425.914 663.012 399.567 656.216 389.354 654.375C388.276 654.181 387.43 651.931 386.915 650.81Z"/><path fill="#FEFEFE" d="M438.325 763.702C441.156 763.18 446.835 763.445 449.776 763.551C451.368 763.608 451.432 764.188 452.479 765.396C450.257 767.635 436.003 768.71 432.132 769.17C427.617 769.67 423.007 771.545 418.939 770.358C417.408 768.853 417.94 769.747 417.49 767.467C419.903 764.909 434.297 764.108 438.325 763.702Z"/><path fill="#9B7C58" d="M742.035 552.296C742.732 552.829 743.1 553.131 743.502 553.939C744.615 556.175 730.16 601.097 728.76 605.671C728.253 605.79 728.592 605.767 727.795 605.342C726.382 601.07 733.026 581.942 734.63 576.675C736.855 569.364 739.27 559.274 742.035 552.296Z"/><path fill="#FEFEFE" d="M616.66 713.435C617.212 713.397 618.705 713.279 619.172 713.514C623.015 715.445 631.396 726.477 629.838 730.633L628.73 731.008C622.473 728.003 608.812 721.523 616.66 713.435Z"/><path fill="#FEFEFE" d="M445.978 747.004C456.652 747.329 457.895 752.421 451.197 760.057C442.476 759.895 438.058 752.724 445.978 747.004Z"/><path fill="#FEFEFE" d="M673.337 731.784C674.158 732.22 673.767 731.888 674.335 732.958C673.352 736.207 667.101 743.583 664.915 746.961C661.271 752.593 659.189 758.013 655.454 763.561C653.678 761.333 653.956 760.224 654.834 757.536C657.334 749.885 666.425 735.57 673.337 731.784Z"/><path fill="#FEFEFE" d="M477.336 743.079C479.923 743.319 482.144 743.993 482.707 746.794C480.714 753.534 471.206 752.743 465.874 752.501C464.498 752.42 462.171 752.034 460.727 751.843C465.247 747.986 471.51 744.349 477.336 743.079Z"/><path fill="#FEFEFE" d="M454.176 788.204C456.308 787.942 460.84 787.915 463.157 787.831L464.608 793.01C458.443 792.841 454.505 793.043 448.417 793.827L441.046 795.692L438.861 789.893C444.307 789.124 448.677 788.626 454.176 788.204Z"/><path fill="#FEFEFE" d="M657.113 707.254C659.953 707.523 662.978 709.572 662.177 712.81C660.874 718.078 656.446 721.204 652.233 724.025C651.503 724.434 650.684 724.814 649.928 725.187L649.124 724.907C648.083 721.223 654.706 710.123 657.113 707.254Z"/><path fill="#FEFEFE" d="M653.912 734.475L654.868 734.803C654.838 737.197 652.004 740.621 650.719 743.156C647.157 750.184 646.602 757.49 641.717 763.695C637.5 759.772 647.118 741.235 649.295 736.688L653.912 734.475Z"/><path fill="#FEFEFE" d="M636.291 730.533C645.849 730.812 650.119 734.723 640.972 741.586C632.369 744.687 630.548 736.826 636.291 730.533Z"/><path fill="#FEFEFE" d="M444.986 769.695C449.251 769.098 459.362 768.857 461.414 773.59L460.842 774.501C457.103 776.162 454.306 775.187 450.118 774.565C443.44 773.925 436.832 772.982 430.185 772.082C435.438 770.773 439.649 770.339 444.986 769.695Z"/><path fill="#FEFEFE" d="M457.073 709.835C458.587 710.558 459.698 711.844 460.924 713.032C457.193 716.327 449.839 723.782 445.377 723.857C443.676 723.734 442.326 723.538 440.637 723.285L440.651 722.915C444.509 719.088 452.6 713.022 457.073 709.835Z"/><path fill="#FEFEFE" d="M635.148 747.864C635.603 751.553 633.335 769.18 632.173 773.659C631.83 774.982 630.237 775.207 628.885 775.703C627.041 767.601 629.919 754.344 635.148 747.864Z"/><path fill="#9B7C58" d="M274.083 630.277C280.307 630.985 293.967 634.383 300.463 636.116C302.073 636.546 302.176 637.869 302.638 639.271C297.553 639.078 286.292 636.428 280.922 635.349C276.943 634.55 275.92 633.533 274.083 630.277Z"/><path fill="#9B7C58" d="M443.384 634.233C444.133 634.906 444.82 635.631 445.528 636.348C445.835 638.791 438.478 657.41 437.061 661.466C435.856 660.822 436.105 660.686 435.349 659.21C435.134 655.357 441.661 638.948 443.384 634.233Z"/><path fill="#F5742D" d="M619.877 762.466C621.798 764.745 627.22 769.802 625.592 772.715C623.928 773.395 622.198 772.685 620.379 772.226C616.399 770.917 614.902 770.135 611.631 767.779C614.486 765.338 616.599 764.288 619.877 762.466Z"/><path fill="#9B7C58" d="M468.108 561.339C468.684 562.499 469.421 564.739 469.888 566.022C468.526 570.344 463.834 586.954 461.483 588.985L460.09 587.863C459.256 585.754 467.002 564.657 468.108 561.339Z"/><path fill="#9B7C58" d="M773.442 446.272C773.686 446.612 774.488 447.857 774.56 448.23C775.281 452 767.663 474.63 766.568 476.523L764.84 475.204C764.414 473.358 772.166 449.902 773.442 446.272Z"/><path fill="#FEFEFE" d="M615.65 746.029C616.516 748.124 616.916 748.979 618.093 750.909L618.561 751.61C615.603 754.252 610.349 757.514 607.205 753.295C606.382 747.962 611.673 747.109 615.65 746.029Z"/><path fill="#FEFEFE" d="M433.102 775.382C437.621 775.438 451.646 776.498 455.736 777.811L455.361 778.377C450.989 779 439.325 780.421 435.445 779.977C434.026 778.727 433.744 777.212 433.102 775.382Z"/><path fill="#FEFEFE" d="M420.376 739.472C426.545 739.814 428.872 744.293 425.107 749.361C418.667 748.415 415.298 745.525 420.376 739.472Z"/><path fill="#AEACB1" d="M433.756 605.204C437.1 604.676 446.44 604.209 449.082 606.506C449.668 608.101 449.75 608.012 449.471 609.658C448.241 610.316 448.905 610.083 447.248 609.89C446.511 608.966 445.901 608.149 445.211 607.188C442.051 605.671 435.852 606.606 432.123 606.903C427.697 607.209 415.223 609.222 412.684 607.863C419.659 606.626 426.692 605.739 433.756 605.204Z"/><path fill="#F5742D" d="M654.17 749.651L654.464 749.648L654.799 750.148C653.457 754.471 651.4 762.428 649.218 766.014L647.384 759.788C648.599 753.832 647.883 751.044 654.17 749.651Z"/><path fill="#AEACB1" d="M448.177 626.181C449.389 625.889 448.949 625.872 450.16 626.254C450.349 628.081 448.729 632.045 448.053 634.1C445.644 632.49 444.86 632.09 442.188 630.955C440.483 630.546 437.386 630.167 436.882 628.351C438.796 627.145 445.588 626.528 448.177 626.181Z"/><path fill="#FEFEFE" d="M673.258 739.558C675.622 739.72 677.648 739.984 679.98 740.298C678.898 742.176 677.254 745.292 675.377 746.295L667.948 745.593C669.91 743.026 670.989 741.853 673.258 739.558Z"/><path fill="#FEFEFE" d="M429.613 742.596C432.204 743.853 438.341 746.398 438.34 749.441L428.224 749.503L429.613 742.596Z"/><path fill="#FEFEFE" d="M657.312 738.34L662.71 739.752C660.788 743.003 660.297 744.164 656.935 745.737L651.348 747.238C653.475 743.347 654.564 741.776 657.312 738.34Z"/><path fill="#F5742D" d="M679.6 732.642L688.567 732.598C686.677 734.295 684.861 735.528 682.803 736.999C680.769 737.498 678.246 738.059 676.39 736.96L676.15 736C677.003 734.336 678.091 733.76 679.6 732.642Z"/><path fill="#FEFEFE" d="M628.879 777.607C629.788 777.875 630.483 777.866 630.882 778.503C632.543 781.145 632.046 787.369 631.741 790.391C631.198 790.215 630.425 789.841 629.88 789.6C627.614 786.463 628.407 781.405 628.879 777.607Z"/><path fill="#F5742D" d="M465.398 787.823C471.483 788.147 471.421 790.142 473.535 795.28L472.632 795.013C467.909 793.567 467.645 792.164 465.398 787.823Z"/><path fill="#F5742D" d="M417.299 785.604L418.667 786.082C420.91 789.01 420.985 790.755 418.845 793.601C414.383 791.692 414.937 789.026 417.299 785.604Z"/><path fill="#F3AB7C" d="M619.035 745.563C621.646 744.991 624.261 744.436 626.88 743.899C624.155 746.521 621.382 749.092 618.561 751.61L618.093 750.909L619.035 745.563Z"/><path fill="#FEFEFE" d="M436.437 759.164C438.946 759.095 441.427 759.601 443.92 759.99C441.312 760.788 440.291 761.146 437.542 761.422C435.302 761.794 433.405 762.387 431.462 761.29L431.497 760.512C433.056 759.324 434.455 759.396 436.437 759.164Z"/><path fill="#F5742D" d="M626.876 756.875C628.347 758.266 626.661 762.658 624.933 763.862C623.968 762.757 623.673 762.613 623.289 761.193C623.626 759.456 625.488 758.15 626.876 756.875Z"/><path fill="#F5742D" d="M412.624 765.852C412.92 766.026 413.769 766.732 414.073 766.974C415.019 769.295 414.894 770.768 413.987 773.089C410.222 771.185 411.089 769.037 412.624 765.852Z"/><path fill="#FEFEFE" d="M465.579 588.621C467.568 588.56 470.996 588.301 472.604 589.075L471.292 589.956C469.593 590.673 467.295 591.922 465.579 591.716C464.806 590.383 465.122 590.625 465.579 588.621Z"/><path fill="#AEACB1" d="M422.201 614.771L422.833 615.412C422.583 620.522 422.867 621.644 424.002 626.424C420.079 623.856 421.073 618.53 422.201 614.771Z"/><path fill="#FEFEFE" d="M638.538 749.377C639.405 745.423 641.025 744.748 644.266 742.271C642.816 745.124 640.963 748.546 639.682 751.415L638.538 749.377Z"/><path fill="#F3AB7C" d="M638.538 749.377L639.682 751.415C638.85 754.109 638.125 756.827 636.798 759.312C637.004 755.728 638.21 752.914 638.538 749.377Z"/><path fill="#AEACB1" d="M457.045 613.83L457.524 614.211C458.333 615.731 458.253 617.968 458.354 619.758L457.345 619.216C456.551 617.266 456.879 616.011 457.045 613.83Z"/></svg>