<?xml version="1.0" encoding="utf-8" ?><svg xmlns="http://www.w3.org/2000/svg" xmlns:xlink="http://www.w3.org/1999/xlink" width="1024" height="1024" viewBox="0 0 1024 1024"><path d="M371.753 375.429C364.708 357.625 364.11 325.678 368.656 307.361C370.067 301.678 374.446 288.182 378.421 283.685C385.942 275.179 388.637 267.131 393.821 257.524C402.044 242.341 414.117 229.587 428.828 220.545C449.29 208.086 475.821 202.108 499.466 207.405C515.78 211.059 524.104 221.369 535.898 231.674C539.286 234.635 546.324 236.484 550.698 238.863C565.929 247.148 576.823 261.027 585.651 275.558C602.136 273.458 652.824 270.308 645.807 298.276C640.675 318.732 613.137 335.862 595.825 345.798C600.01 364.341 601.638 381.054 597.627 399.866C592.293 424.88 581.301 438.336 560.558 451.966C559.691 464.593 558.121 482.041 557.979 494.304C587.366 508.282 615.183 523.129 642.284 494.878C635.016 484.033 631.81 474.62 642.487 464.375C641.517 458.353 641.102 451.573 641.526 445.498C643.046 423.728 648.688 404.559 674.367 405.906C677.694 398.247 678.833 396.469 685.071 390.896C684.025 389.665 682.927 388.101 681.95 386.788C686.606 382.016 691.62 379.093 697.388 375.902L687.232 364.371C681.364 367.377 677.232 371.158 672.222 375.371C666.548 370.563 663.021 366.703 658.286 361.047C662.41 356.345 668.693 352.372 673.881 348.744C670.459 344.563 667.834 340.758 664.1 336.712C661.084 331.856 656.155 325.845 652.584 320.255L649.822 316.05C647.943 313.154 644.83 306.718 649.429 304.906C654.595 305.281 658.784 310.407 662.402 314.046C664.616 316.515 675.173 327.53 677.547 329.343C681.572 333.248 684.665 337.487 688.482 341.386C698.26 338.238 703.934 336.485 714.44 335.602C716.739 338.491 719.837 342.152 721.73 345.21C719.611 348.918 718.441 351.109 716.782 355.017C712.812 355.747 707.316 356.587 703.595 357.802C706.066 360.436 713.44 369.156 715.382 370.783C721.9 370.397 728.442 370.852 734.844 372.136C738.209 367.786 742.168 363.613 746.073 359.746C749.593 356.592 757.595 347.322 760.974 343.599C764.425 339.632 768.01 335.783 771.724 332.06C775.812 327.725 782.664 321.351 786.026 317.074C789.57 313.611 797.223 304.256 802.365 307.514C804.789 312.136 799.31 319.345 796.84 323.252C801.461 327.155 806.71 331.388 811.013 335.563C808.333 339.12 800.69 346.963 797.089 349.629C793.298 346.438 788.504 342.294 784.375 339.703C781.453 343.32 777.723 348.202 774.73 351.629C778.064 354.237 783.842 358.491 786.643 361.366C782.39 366.382 777.845 371.144 773.033 375.628C769.245 372.59 765.667 369.623 761.593 366.959C758.713 370.511 754.668 375.141 751.358 378.389C756.181 381.535 758.132 383.035 761.917 387.344C758.178 391.943 752.915 397.809 748.185 401.35C744.366 397.809 742.44 395.994 737.429 393.991L736.755 395.271C737.474 396.278 737.59 396.267 738.615 396.999C745.238 401.015 747.765 403.138 749.676 410.649C754.799 417.22 759.358 422.06 765.533 427.731C767.906 429.91 770.53 436.069 773.083 438.527C780.134 447.717 788.723 456.909 795.042 466.57C791.774 470.06 787.857 474.47 784.373 477.619C779.446 472.444 774.5 465.791 769.848 460.264C768.305 458.43 762.893 451.91 761.862 450.189C756.374 459.14 714.616 495.226 701.742 499.315C700.838 499.602 695.375 500.337 693.947 500.531C689.245 511.521 681.184 517.676 669.066 512.401C647.364 531.476 632.318 539.261 602.251 537.558C585.323 536.6 570.542 530.876 555.26 523.979C554.376 533.74 553.565 543.507 552.826 553.28C556.852 553.521 558.328 553.564 562.07 555.39C568.278 563.388 568.35 573.294 559.548 579.064C556.576 581.012 553.67 582.335 550.671 584.094C554.961 584.796 560.952 584.884 563.675 588.632C568.081 594.699 566.738 606.687 560.119 610.793C556.88 612.802 552.05 614.207 548.412 615.397C547.731 627.155 546.425 640.406 545.905 651.818C562.254 667.153 569.559 688.944 580.895 707.833C581.838 709.405 584.636 707.565 585.752 709.297C588.511 712.957 594.397 723.661 596.03 727.78C611.359 706.582 623.356 722.676 631.648 739.091C633.675 729.255 640.146 709.158 653.97 712.516C657.285 713.321 660.132 715.946 661.781 718.902C664.105 723.165 664.632 728.179 663.245 732.832C661.772 737.662 656.872 741.942 653.256 745.521C656.779 745.513 663.418 744.846 666.361 745.155C677.056 746.279 685.197 744.072 695.581 742.371C709.451 740.098 723.987 743.91 733.639 754.459C745.618 767.093 762.471 783.464 744.789 799.901C731.58 812.194 714.897 820.073 699.619 829.484C687.277 837.092 675.27 846.509 663.094 854.246C647.796 863.867 631.049 870.963 613.495 875.26C606.79 876.837 588.581 881.304 583.714 875.42C580.251 871.233 575.512 861.479 577.501 856.026C576.873 852.238 572.785 843.497 571.283 839.601C564.537 822.112 556.306 803.37 555.536 784.421C555.269 777.85 558.831 772.744 563.071 768.268C556.386 756.768 551.072 742.277 543.477 729.803C547.542 727.649 551.086 725.759 555.322 723.917C550.217 712.038 545.91 702.184 539.594 690.797C539.347 697.721 538.33 704.501 533.026 709.705C525.157 717.426 502.362 716.828 494.522 709.195C490.528 705.308 488.854 696.032 487.815 690.52C479.009 703.494 471.636 711.55 459.136 721.361C461.8 724.212 463.613 726.221 465.913 729.379C461.354 733.729 458.576 735.628 453.163 738.894C457.946 747.952 456.983 750.659 455.159 760.76C462.896 755.423 474.109 745.421 483.575 747.504C496.751 750.646 495.889 769.126 485.232 774.925C477.886 778.922 471.219 774.816 463.849 774.882C463.348 774.887 462.639 779.161 462.521 779.802C465.252 786.269 467.722 789.802 471.744 795.456C473.697 798.202 475.317 805.548 477.666 807.901C487.899 818.153 492.924 819.482 497.15 834.446C500.368 845.845 497.849 855.413 499.981 866.096C498.277 870.228 495.733 876.679 493.472 880.35C457.956 885.737 422.355 879.852 392.426 859.02C379.098 849.743 371.198 834.384 360.605 822.408C350.184 810.627 334.66 799.167 328.734 784.283C330.614 778.967 333.042 772.79 336.144 768.04C337.184 766.448 341.219 764.183 342.621 762.417C355.707 745.963 368.113 727.355 387.595 717.871C391.57 715.936 396.478 714.312 400.839 715.925C402.728 716.624 404.298 717.853 405.974 718.945C414.001 712.888 434.602 694.922 441.976 691.506C442.681 693.253 443.556 695.627 444.384 697.26C461.448 681.426 473.573 665.063 476.378 641.081C471.511 641.645 467.617 642.11 463.391 638.973C456.909 634.162 458.502 623.503 463.01 617.941C466.38 613.784 470.639 612.3 475.373 610.452C470.935 610.528 464.763 610.759 461.888 606.929C454.241 596.745 462.003 586.281 470.42 581.037C468.624 574.375 467.417 565.428 466.362 558.475C464.569 546.651 462.891 534.81 461.33 522.953C424.817 530.46 401.804 544.059 381.352 575.212C380.869 575.946 380.398 576.689 379.94 577.439C393.891 587.775 390.538 594.603 381.782 606.7C383.109 611.103 386.526 621.864 387.061 626.158L385.678 628.234C387.277 637.027 388.185 645.954 387.864 654.902C387.916 656.652 387.77 659.954 388.454 661.309L389.034 661.077C388.572 669.245 382.516 678.145 373.558 678.609C362.497 679.182 362.094 664.362 359.206 661.525C358.003 661.766 356.216 663.539 356.225 664.584C356.283 670.943 357.279 675.35 354.699 681.666C352.536 686.937 348.298 691.086 342.981 693.135C332.626 697.125 323.98 691.218 320.16 681.522C304.139 680.74 293.303 678.383 293.595 659.277C270.633 650.609 279.389 633.255 289.726 618.494C300.544 603.047 313.727 592.112 330.438 583.671C326.944 572.452 331.704 561.491 344.793 562.38C348.618 562.64 350.918 563.585 354.455 564.917C376.063 526.239 413.319 502.409 456.814 495.982C455.154 485.602 453.206 474.616 451.868 464.235C429.653 454.058 416.706 436.974 408.067 414.881C397.131 415.311 385.679 415.943 375.619 410.837C360.751 403.291 365.171 387.046 371.753 375.429Z"/><path fill="#FEFEFE" d="M342.825 596.904C337.129 588.835 320.375 573.392 340.288 564.746C344.09 563.095 349.652 564.957 353.182 567.004C352.761 567.99 351.35 571.575 350.401 572.34C349.042 573.436 350.055 571.101 347.845 572.614C348.697 579.687 372.557 590.496 376.799 586.83L375.719 585.358C376.206 583.325 377.812 581.242 379 579.428C391.195 587.202 389.268 596.141 380.25 605.464C374.823 605.611 368.924 605.529 363.464 605.546C370.458 608.163 372.448 608.21 379.59 607.493C382.452 614.148 384.19 621.177 385.678 628.234C387.277 637.027 388.185 645.954 387.864 654.902C387.325 663.115 383.831 681.2 369.994 675.554C365.316 673.645 362.802 665.148 361.691 660.237L366.611 653.595C357.703 657.657 351.025 665.431 346.938 674.199C350.218 671.734 351.541 670.227 354.136 667.204C354.84 676.606 353.262 686.31 343.244 690.263C338.333 692.201 335.816 692.416 330.833 690.39C313.332 683.274 326.255 661.776 323.023 652.611L322.243 652.802C318.696 659.709 319.204 671.813 319.596 679.516C301.821 679.555 291.883 672.962 297.229 653.685C298.269 649.935 299.489 645.668 300.126 641.84L299.497 641.128L300.125 640.365L300.194 640.802L299.853 640.417C296.32 644.608 294.61 652.147 293.337 657.31C284.705 652.491 278.675 646.191 282.861 635.778C291.461 614.387 310.267 595.836 330.97 586.104C335.034 592.424 336.083 593.644 342.825 596.904Z"/><path fill="#F22E2C" d="M652.584 320.255L649.822 316.05C647.943 313.154 644.83 306.718 649.429 304.906C654.595 305.281 658.784 310.407 662.402 314.046C664.616 316.515 675.173 327.53 677.547 329.343C681.572 333.248 684.665 337.487 688.482 341.386C698.26 338.238 703.934 336.485 714.44 335.602C716.739 338.491 719.837 342.152 721.73 345.21C719.611 348.918 718.441 351.109 716.782 355.017C712.812 355.747 707.316 356.587 703.595 357.802C706.066 360.436 713.44 369.156 715.382 370.783C721.9 370.397 728.442 370.852 734.844 372.136C738.209 367.786 742.168 363.613 746.073 359.746C749.593 356.592 757.595 347.322 760.974 343.599C764.425 339.632 768.01 335.783 771.724 332.06C775.812 327.725 782.664 321.351 786.026 317.074C789.57 313.611 797.223 304.256 802.365 307.514C804.789 312.136 799.31 319.345 796.84 323.252C801.461 327.155 806.71 331.388 811.013 335.563C808.333 339.12 800.69 346.963 797.089 349.629C793.298 346.438 788.504 342.294 784.375 339.703C781.453 343.32 777.723 348.202 774.73 351.629C778.064 354.237 783.842 358.491 786.643 361.366C782.39 366.382 777.845 371.144 773.033 375.628C769.245 372.59 765.667 369.623 761.593 366.959C758.713 370.511 754.668 375.141 751.358 378.389C756.181 381.535 758.132 383.035 761.917 387.344C758.178 391.943 752.915 397.809 748.185 401.35C744.366 397.809 742.44 395.994 737.429 393.991L736.755 395.271C737.474 396.278 737.59 396.267 738.615 396.999C745.238 401.015 747.765 403.138 749.676 410.649C754.799 417.22 759.358 422.06 765.533 427.731C767.906 429.91 770.53 436.069 773.083 438.527C780.134 447.717 788.723 456.909 795.042 466.57C791.774 470.06 787.857 474.47 784.373 477.619C779.446 472.444 774.5 465.791 769.848 460.264C768.305 458.43 762.893 451.91 761.862 450.189L760.422 449.278L741.59 426.779C737.501 424.724 728.477 408.372 723.951 410.898C719.633 413.308 708.563 426.898 705.075 431.445C699.734 440.537 694.87 443.425 688.096 451.399C687.1 452.542 686.453 453.015 686.317 454.507C684.025 455.414 669.528 473.871 665.56 477.365C662.207 474.843 657.562 469.931 654.717 466.837C658.593 460.923 672.941 444.734 674.846 440.299C676.573 438.838 676.061 439.699 676.753 437.827C678.735 436.626 690.421 422.316 693.006 419.404L695.003 417.197C695.958 415.742 699.589 411.816 700.881 410.295C705.022 405.42 709.283 400.692 713.305 395.692C713.004 393.747 712.651 393.887 711.225 392.084C710.964 390.61 699.143 377.848 697.388 375.902L687.232 364.371C681.364 367.377 677.232 371.158 672.222 375.371C666.548 370.563 663.021 366.703 658.286 361.047C662.41 356.345 668.693 352.372 673.881 348.744C670.459 344.563 667.834 340.758 664.1 336.712C661.084 331.856 656.155 325.845 652.584 320.255Z"/><path d="M688.482 341.386C698.26 338.238 703.934 336.485 714.44 335.602C716.739 338.491 719.837 342.152 721.73 345.21C719.611 348.918 718.441 351.109 716.782 355.017C712.812 355.747 707.316 356.587 703.595 357.802C698.551 352.798 693.289 346.72 688.482 341.386Z"/><path d="M673.881 348.744C677.825 352.581 683.694 359.963 687.232 364.371C681.364 367.377 677.232 371.158 672.222 375.371C666.548 370.563 663.021 366.703 658.286 361.047C662.41 356.345 668.693 352.372 673.881 348.744Z"/><path d="M796.84 323.252C801.461 327.155 806.71 331.388 811.013 335.563C808.333 339.12 800.69 346.963 797.089 349.629C793.298 346.438 788.504 342.294 784.375 339.703C788.67 334.309 792.558 328.504 796.84 323.252Z"/><path d="M774.73 351.629C778.064 354.237 783.842 358.491 786.643 361.366C782.39 366.382 777.845 371.144 773.033 375.628C769.245 372.59 765.667 369.623 761.593 366.959C765.933 361.816 770.312 356.706 774.73 351.629Z"/><path d="M751.358 378.389C756.181 381.535 758.132 383.035 761.917 387.344C758.178 391.943 752.915 397.809 748.185 401.35C744.366 397.809 742.44 395.994 737.429 393.991C741.996 388.723 746.639 383.522 751.358 378.389Z"/><path d="M715.382 370.783C721.9 370.397 728.442 370.852 734.844 372.136C732.722 375.005 728.432 379.712 725.936 382.837C722.324 378.902 718.805 374.883 715.382 370.783Z"/><path d="M738.615 396.999C745.238 401.015 747.765 403.138 749.676 410.649C748.201 409.594 738.996 398.971 738.615 396.999Z"/><path fill="#FEFEFE" d="M642.838 466.645C644.892 471.147 653.182 483.903 658.731 483.024C657.2 479.585 646.308 471.77 644.831 464.338C642.186 450.053 643.184 429.707 651.582 417.272C664.328 398.401 680.228 410.805 693.006 419.404C690.421 422.316 678.735 436.626 676.753 437.827C676.061 439.699 676.573 438.838 674.846 440.299C672.941 444.734 658.593 460.923 654.717 466.837C657.562 469.931 662.207 474.843 665.56 477.365C669.528 473.871 684.025 455.414 686.317 454.507C686.453 453.015 687.1 452.542 688.096 451.399C694.87 443.425 699.734 440.537 705.075 431.445C708.563 426.898 719.633 413.308 723.951 410.898C728.477 408.372 737.501 424.724 741.59 426.779L760.422 449.278C746.823 463.876 729.889 477.304 714.263 489.801C698.956 502.042 694.105 497.946 677.043 495.21C682.169 498.028 685.634 499.089 691.265 500.909C683.098 516.922 667.813 512.379 655.8 504.236C643.095 495.622 631.938 481.285 642.838 466.645Z"/><path d="M705.075 431.445C708.563 426.898 719.633 413.308 723.951 410.898C728.477 408.372 737.501 424.724 741.59 426.779C738.795 429.635 739.83 431.72 738.236 434.812C729.779 451.223 710.823 447.599 705.075 431.445Z"/><path d="M688.096 451.399C689.035 455.895 691.619 467.345 686.093 469.377C685.397 468.681 685.177 468.743 685.353 467.247C686.054 461.275 687.329 460.52 686.317 454.507C686.453 453.015 687.1 452.542 688.096 451.399Z"/><path d="M674.846 440.299C673.212 439.271 671.724 438.571 670.74 436.939L671.1 436.261C673.235 436.051 674.722 436.963 676.753 437.827C676.061 439.699 676.573 438.838 674.846 440.299Z"/><path d="M710.462 448.308C715.167 448.953 720.177 454.185 722.355 458.285C717.852 457.329 712.096 452.643 710.462 448.308Z"/><path fill="#FEFEFE" d="M711.225 392.084C712.651 393.887 713.004 393.747 713.305 395.692C709.283 400.692 705.022 405.42 700.881 410.295C699.589 411.816 695.958 415.742 695.003 417.197C689.745 413.443 682.445 409.455 676.783 406.177C678.952 400.144 682.068 396.62 686.501 392.209C689.812 394.88 692.38 397.856 696.168 400.774C702.352 396.257 704.242 394.911 711.225 392.084Z"/><path fill="#AEADB1" d="M533.606 312.702C547.152 310.859 567.395 315.15 580.784 318.433C600.038 353.386 606.772 395.956 582.129 430.613C575.678 439.685 567.996 444.97 558.621 450.581C558.385 471.234 554.876 492.55 553.042 513.118C552.446 519.795 552.657 526.396 552.349 533.062C552.025 540.093 551.105 547.219 550.298 554.212C525.369 563.277 498.031 571.788 472.717 580.302C470.798 571.559 469.295 560.001 467.862 550.982C466.885 542.484 464.902 531.878 463.549 523.261C470.453 523.218 482.194 524.137 487.25 518.882C492.441 513.486 491.105 502.22 485.143 497.812C478.37 492.806 466.979 494.627 459.005 495.253C458.325 490.687 454.287 469.429 455.214 466.918C456.515 466.482 456.82 466.361 458.03 465.722C457.181 463.662 444.127 457.725 440.269 454.956C416.148 437.642 409.905 416.995 404.732 389.728C407.145 386.282 409.71 382.946 412.42 379.728C443.456 342.673 484.849 317.071 533.606 312.702Z"/><path d="M547.825 328.289C550.424 328.532 551.127 331.056 552.707 333.221C558.341 340.94 565.136 345.381 574.652 346.649C577.807 347.07 584.243 346.315 585.915 348.894C583.755 350.6 579.489 350.462 576.767 350.454C579.893 362.06 579.079 369.443 575.62 380.74C578.397 380.153 581.063 379.406 583.862 379.681L584.495 380.575C583.882 383.552 575.471 383.4 572.281 385.056C568.812 386.856 567.54 387.643 564.578 390.086C562.699 391.884 559.82 396.842 557.636 396.972C557.073 394.019 558.638 392.5 560.282 390.283C552.284 385.845 550.176 381.666 547.497 373.316C551.897 370.774 558.18 367.856 562.899 365.506L546.457 358.958C547.743 350.571 548.46 346.578 554.669 340.466C551.677 337.037 547.58 333.05 547.825 328.289Z"/><path d="M521.875 328.937L523.471 329.804C525.17 333.016 520.372 339.62 518.712 342.339C528.517 354.172 529.511 372.999 520.763 385.95C518.688 389.022 516.394 390.315 513.295 392.123C515.271 394.68 515.48 395.096 516.582 398.138L515.704 399.211L516.635 398.424L516.37 399.089C513.454 399.534 511.72 394.634 510.009 392.851C503.655 386.228 495.46 385.204 486.823 384.387C488.315 380.477 493.438 382.207 496.947 382.682L493.974 375.72C498.482 373.033 505.454 369.94 510.342 367.538C506.78 366.225 496.212 362.725 493.85 360.494C493.988 359.321 494.109 358.145 494.211 356.967C491.999 354.924 486.937 358.397 485.05 355.012L485.501 354.041C487.851 353.017 490.434 353.614 493.008 353.3C504.138 351.943 513.724 344.702 519.136 335.034C520.209 333.117 520.855 330.967 521.875 328.937Z"/><path d="M538.831 407.663C542.261 407.293 545.729 407.546 549.068 408.411C553.854 409.648 565.226 414.443 562.904 420.768L562.115 420.85C561.461 420.242 560.857 419.688 560.347 418.963C556.343 413.269 549.555 410.796 542.783 410.646C539.32 410.57 536.403 411.171 533.005 412.009C528.606 413.307 523.821 415.701 520.153 418.56C518.02 420.222 514.446 425.826 512.227 426.777L511.4 426.359C511.348 424.525 513.227 421.738 514.35 420.363C520.707 412.583 529.232 409.016 538.831 407.663Z"/><path d="M537.003 421.066C540.069 420.796 541.624 420.524 544.282 422.021L544.28 422.846C542.745 423.882 540.507 423.63 538.559 423.657C536.041 424.651 535.167 425.374 532.753 424.737L532.566 423.968C533.767 422.264 535.012 421.977 537.003 421.066Z"/><path fill="#F6762F" d="M476.464 207.704L477.173 207.66C512.489 205.584 534.439 228.394 548.569 258.154C550.625 262.486 552.507 267.943 556.122 271.141L556.343 270.541C552.3 258.175 545.152 246.408 538.304 235.391C558.257 243.506 572.224 257.255 583.029 275.852L571.13 277.327C502.596 286.237 416.86 316.161 373.219 372.754C365.677 352.71 365.807 316.357 374.753 296.479C385.667 272.225 399.884 259.548 424.375 249.784C445.071 242.875 462.678 245.989 478.805 260.983C483.467 265.317 488.027 270.707 493.018 274.542L493.619 274.996L493.332 274.449C486.337 261.338 472.059 249.961 457.829 245.885C436.377 239.741 420.967 247.926 402.861 257.584C413.364 239.346 430.402 223.837 452.962 226.227C473.065 228.357 487.969 244.268 497.766 260.732C501.362 266.777 504.619 274.538 508.978 279.918L509.428 280.467C507.147 267.923 493.155 248.157 484.321 239.145C460.961 215.315 424.871 220.439 406.345 247.378C401.801 253.985 397.842 260.727 392.202 266.532C406.129 231.636 439.97 211.104 476.464 207.704Z"/><path fill="#F6762F" d="M604.92 276.717C617.994 276.204 649.95 276.677 643.278 297.482C636.8 317.684 612.878 333.408 595.467 343.316C593.904 339.678 592.348 335.211 590.931 331.457C612.046 310.103 604.15 295.451 575.024 296.589C509.621 299.146 440.761 320.248 394.522 368.339C376.916 388.275 371.008 403.268 404.446 403.495L407.22 412.454C397.146 412.901 380.75 413.623 372.751 406.605C360.137 394.909 373.546 374.538 382.593 365.074C430.966 314.475 502.03 289.454 569.948 279.801C581.523 278.156 593.263 277.386 604.92 276.717Z"/><path fill="#F6762F" d="M377.556 727.404C381.782 730.499 377.068 758.607 406.887 764.798C402.538 789.171 408.38 804.79 421.8 824.828C417.264 832.072 414.782 837.283 411.497 845.059C405.608 842.211 402.035 839.741 396.791 835.808C388.349 829.16 385.2 820.705 378.803 813.692C363.44 796.849 351.551 789.981 342.013 767.967C351.593 752.616 363.596 738.918 377.556 727.404Z"/><path fill="#F6762F" d="M604.194 783.652C608.834 786.296 614.805 787.724 619.996 789.141C620 794.214 620.059 799.287 620.172 804.359L627.743 804.442C627.587 799.721 627.512 794.998 627.519 790.274C639.744 791.276 647.894 792.401 660.592 792.651C661.26 797.233 662.352 801.743 663.852 806.123C649.007 819.52 634.531 830.825 616.728 839.995C604.436 845.928 593.281 849.43 580.419 853.736C571.26 838.55 562.398 811.31 559.095 793.955C582.177 800.869 586.322 798.462 604.194 783.652Z"/><path fill="#AEADB1" d="M546.514 616.661C547.387 618.62 544.423 647.435 544.071 651.834C526.545 666.011 542.989 688.743 534.412 705.385C529.209 715.481 506.251 714.228 497.634 708.976C488.744 700.606 488.868 688.639 494.187 678.429C501.822 663.773 505.487 646.406 507.753 630.091C520.315 625.353 533.759 620.892 546.514 616.661Z"/><path fill="#FEFEFE" d="M457.819 808.181C477.336 805.453 492.743 820.481 496.07 838.818C497.422 846.267 497.184 852.681 496.792 860.149C483.277 860.887 470 860.747 456.586 858.835C444.749 857.29 423.352 851.969 413.779 845.968C422.054 824.032 434.06 811.135 457.819 808.181Z"/><path fill="#FEFEFE" d="M338.713 768.714C340.065 769.611 346.931 783.537 349.819 787.082C356.289 796.072 366.531 803.276 373.512 811.457C386.273 826.41 390.594 837.447 409.309 846.853C432.259 858.905 458.812 863.034 484.507 863.097C487.849 863.105 495.022 861.622 496.934 864.491C496.964 869.127 494.421 877.453 489.417 878.854C455.234 885.429 396.874 871.2 378.04 841.252C365.792 821.778 340.323 802.482 331.069 784.355C333.139 779.412 336.019 773.271 338.713 768.714Z"/><path fill="#FEFEFE" d="M743.745 771.107L744.526 771.165C748.04 773.366 749.375 780.397 750.39 784.321C721.819 792.358 694.995 805.648 671.294 823.513C660.668 831.392 649.084 841.859 637.833 848.481C621.447 858.125 602.878 864.278 585.726 873.085C582.845 870.843 577.993 861.394 579.796 857.754C583.68 854.564 598.577 849.885 604.129 847.998C629.658 839.319 646.526 823.821 667.2 807.358C687.804 790.95 717.272 775.367 743.745 771.107Z"/><path fill="#FEFEFE" d="M698.781 743.666C718.605 741.242 732.273 753.549 742.586 768.817C723.02 773.432 708.163 778.974 690.672 788.833C684.281 792.308 671.554 800.331 665.911 804.6C657.828 776.677 667.169 747.989 698.781 743.666Z"/><path fill="#AEADB1" d="M552.478 587.554C568.988 586.055 564.915 606.448 557.688 609.513C530.417 621.081 501.202 628.762 473.536 639.327C461.36 640.783 460.371 630.232 463.976 621.296C465.944 616.419 474.434 614.412 479.163 612.835C503.627 604.677 527.879 595.264 552.478 587.554Z"/><path fill="#AEADB1" d="M552.572 556.067C567.744 554.446 566.225 573.66 558.165 577.613C549.226 581.998 536.881 585.729 527.244 588.991L472.994 607.442C456.402 608.984 460.569 589.323 468.142 585.424C476.594 581.072 490.011 577.126 499.296 573.983C517.02 567.908 534.779 561.935 552.572 556.067Z"/><path fill="#FEFEFE" d="M583.536 710.322C587.718 711.693 595.124 733.335 598.929 738.287C603.525 744.268 604.193 745.115 610.552 749.641C600.987 751.144 586.899 757.02 590.084 769.491C591.67 775.698 596.888 777.318 602.121 779.887L602.173 780.685C598.635 786.511 586.068 784.19 580.41 782.561C567.392 778.814 562.516 763.674 557.226 752.419C553.77 745.097 550.247 737.807 546.655 730.55C548.163 729.575 550.283 728.548 551.909 727.699C553.99 732.003 562.714 750.56 567.177 750.655C564.935 745.045 557.451 732.645 554.122 726.531C556.047 725.363 558.195 724.341 560.214 723.322C566.184 733.229 567.039 739.409 575.754 749.253C572.796 740.943 566.588 729.993 562.282 721.899C564.387 720.717 566.177 719.977 568.379 719.025C573.506 726.974 577.256 737.41 583.605 744.154C581.47 737.258 574.151 724.275 570.235 717.837C572.137 716.693 574.214 715.697 576.201 714.691C580.454 722.481 584.889 731.727 590.96 738.015C589.408 731.766 582.054 720.391 578.839 713.348L583.536 710.322Z"/><path fill="#FEFEFE" d="M439.865 695.466C440.641 696.292 441.524 699.593 440.847 700.278C433.145 708.068 425.238 713.597 418.749 722.739C425.726 718.269 434.693 709.468 441.5 703.822C442.637 705.677 443.97 708.497 444.991 710.495C436.424 717.489 430.703 721.976 423.63 730.686C430.542 726.908 440.121 717.77 446.099 712.293L451.054 717.547C444.024 723.445 435.83 729.689 430.821 737.313C435.13 734.893 437.521 732.636 441.284 729.415C445.268 725.877 449.009 722.537 453.183 719.213L457.742 723.607C452.454 728.708 446.056 733.591 440.376 738.998C433.612 739.107 432.571 738.868 430.165 745.486C416.556 744.961 410.419 747.778 411.872 762.735C383.281 743.802 400.949 724.27 420.959 709.85C427.257 705.312 433.454 700.046 439.865 695.466Z"/><path fill="#F6762F" d="M409.724 764.887C415.126 767.488 419.672 772.182 426.191 773.235C428.787 773.655 430.776 773.239 430.942 775.919C428.21 778.833 417.471 775.506 414.045 779.509C412.101 781.135 412.319 786.2 414.595 787.424C419.349 789.979 428.526 786.404 433.475 785.133C434.169 788.183 435.346 791.35 436.357 794.332C432.054 794.819 428.012 795.217 423.761 796.154C415.526 797.97 414.994 805.562 422.397 809.04C428.643 807.46 431.032 804.752 439.676 803.172L442.902 808.865C433.831 812.988 430.226 816.116 423.514 823.247C411.096 806.774 404.542 785.225 409.724 764.887Z"/><path fill="#F6762F" d="M396.009 717.04C399.884 717.013 400.586 717.75 403.537 720.291C396.34 731.369 390.479 743.947 400.149 756.301C401.522 758.055 403.448 759.286 404.51 761.247C403.056 761.687 402.841 761.282 401.08 760.751C385.138 753.105 381.523 740.903 381.366 724.319C385.806 720.79 390.619 718.632 396.009 717.04Z"/><path fill="#F6762F" d="M658.024 762.468L665.972 762.521C661.194 774 660.43 778.011 660.444 790.222C650.457 789.911 637.557 789.217 627.846 787.459L628.638 779.493C631.777 782.52 633.26 784.64 637.843 783.488C642.244 779.613 641.927 779.223 639.638 774.277C640.444 770.546 641.415 767.353 642.514 763.692C643.865 763.74 646.291 763.441 646.97 764.047C645.532 767.771 642.372 776.087 642.786 779.91C646.542 786.217 657.868 784.518 652.195 774.171C654.104 769.583 655.545 766.754 658.024 762.468Z"/><path fill="#F6762F" d="M563.002 771.298C564.677 772.235 566.278 776.828 569.122 779.316C577.357 786.52 586.906 786.743 596.975 786.432C593.869 789.059 592.609 790.056 589.149 792.148C587.081 793.106 584.932 793.88 582.728 794.461C574.169 796.696 566.049 794.878 558.612 790.406C558.078 781.934 557.511 778.068 563.002 771.298Z"/><path fill="#FEFEFE" d="M647.646 714.522C660.049 713.555 664.681 724.351 659.693 734.713C656.63 741.075 648.766 745.502 642.189 747.703C640.655 747.288 641.329 747.68 640.237 746.279C640.221 745.616 640.005 744.948 640.49 744.593C646.448 740.236 650.904 738.648 655.342 732.416C656.223 728.941 656.167 721.792 651.877 720.493C643.089 717.832 640.072 741.791 635.971 743.409L634.845 742.887C634.11 741.573 634.087 740.445 634.472 738.991C637.076 729.164 638.819 720.532 647.646 714.522Z"/><path fill="#FEFEFE" d="M477.272 750.105C478.481 749.925 480.045 749.789 481.251 749.868C493.273 750.659 494.158 765.774 485.785 772.045C480.416 776.066 474.122 774.649 467.985 773.869C465.405 773.54 461.605 772.763 460.049 770.644L460.702 769.827C464.866 768.243 470.615 769.165 475.171 769.554C478.933 769.09 483.082 768.577 485.024 764.765C486.347 762.167 485.558 756.598 482.277 755.851C475.421 754.288 468.636 760.185 462.591 762.638C461.019 763.275 460.687 763.492 459.225 762.904L459.239 761.651C462.604 756.137 471.511 752.297 477.272 750.105Z"/><path fill="#FEFEFE" d="M622.525 751.705C623.447 751.954 623.242 751.973 624.067 752.622C620.694 758.647 601.151 756.22 598.326 764.645C597.405 767.39 601.352 772.316 604.217 772.172C613.081 771.726 618.284 762.19 624.3 757.156C625.721 757.493 625.062 757.163 626.094 758.587C626.172 760.75 625.874 760.334 624.15 762.576C618.521 769.565 607.097 781.661 597.328 775.04C594.849 773.328 593.162 770.692 592.645 767.725C592.086 764.768 592.813 761.713 594.643 759.324C600.812 751.17 613.242 753.34 621.824 751.833L622.525 751.705Z"/><path fill="#FEFEFE" d="M609.723 720.023C615.627 720.614 618.261 722.708 622.108 727.219C624.437 729.95 631.286 740.781 627.466 743.315C623.458 741.344 614.593 715.766 605.927 731.098C605.035 732.677 605.749 734.538 606.257 736.147C611.428 742.983 619.545 746.206 621.775 749.711L621.231 750.181C605.413 748.054 586.552 728.04 609.723 720.023Z"/><path fill="#FEFEFE" d="M421.585 747.547C428.475 747.159 434.921 749.843 440.486 753.772C442.422 755.139 446.313 758.075 446.697 760.4L446.058 761.088C443.029 761.4 433.291 753.445 427.903 752.592C420.469 751.416 417.479 758.565 421.976 764.098C429.56 768.186 436.591 764.63 442.48 766.84C442.839 768.173 442.972 770.016 441.27 770.556C431.203 773.751 408.815 769.255 414.423 754.305C415.875 750.434 417.979 749.223 421.585 747.547Z"/><path fill="#FEFEFE" d="M434.691 741.627C451.382 740.526 457.364 740.793 452.434 758.843C451.869 758.782 450.078 758.624 449.671 758.215C446.965 755.487 433.946 748.244 433.099 745.316C433.508 743.313 433.555 743.384 434.691 741.627Z"/><path fill="#FEFEFE" d="M454.8 794.707C457.455 794.348 466.85 794.41 469.294 794.947C470.309 796.393 470.238 795.704 470.194 797.085C467.336 798.867 447.355 799.385 441.357 800.441L440.56 800.585C436.527 801.153 431.793 802.99 427.92 802.103C426.627 800.989 427.05 801.682 426.75 799.875C429.617 796.757 449.604 795.159 454.8 794.707Z"/><path fill="#AEADB1" d="M548.465 584.553L549.085 584.664L549.16 585.221C544.785 588.642 487.406 607.279 477.831 610.343C477.419 610.252 477.722 610.343 477.073 609.774C480.65 606.387 540.27 586.986 548.465 584.553Z"/><path fill="#FEFEFE" d="M448.832 777.221L451.024 777.142C454.627 777.002 454.26 777.222 456.015 780.218C447.334 781.166 438.676 782.314 430.048 783.661C428.014 784.06 425.776 784.71 423.792 784.325C422.264 782.974 422.907 783.776 422.138 781.567L422.586 780.731C430.274 778.408 440.717 777.653 448.832 777.221Z"/><path fill="#FEFEFE" d="M611.54 728.375C615.947 729.907 625.142 741.776 623.245 745.447L621.833 745.398C616.094 742.925 601.551 734.864 611.54 728.375Z"/><path fill="#FEFEFE" d="M663.313 746.877C665.34 746.99 664.824 746.553 665.802 747.547C664.909 751.733 658.441 757.218 656.228 761.097C653.502 765.878 651.313 771.172 648.355 775.804C647.296 776.253 647.833 776.085 646.392 775.76C644.167 769.499 658.556 750.989 663.313 746.877Z"/><path fill="#FEFEFE" d="M449.766 761.548C460.255 761.59 459.108 767.803 453.856 774.194C445.467 772.974 441.406 766.884 449.766 761.548Z"/><path fill="#FEFEFE" d="M478.384 758.057C481.068 757.876 482.908 758.297 483.752 761.004C482.741 767.492 474.168 767.166 469.381 766.896L462.184 766.156C467.221 762.747 472.485 759.615 478.384 758.057Z"/><path fill="#FEFEFE" d="M463.753 800.702L464.683 800.732C466.092 801.888 466.532 803.818 467.171 805.599C458.784 805.41 453.725 805.907 445.631 807.908L444.807 807.931C443.651 806.88 442.752 804.256 442.093 802.712C448.923 801.449 456.781 801.106 463.753 800.702Z"/><path fill="#FEFEFE" d="M649.645 722.818C661.377 725.719 648.227 736.506 643.939 739.536L641.891 740.54C639.398 737.997 647.343 725.28 649.645 722.818Z"/><path fill="#FEFEFE" d="M646.944 748.504L647.446 749.511C645.3 753.852 643.094 757.604 641.045 762.11C639.075 766.443 637.276 774.204 634.592 777.525C630.954 771.544 638.938 756.381 642.02 750.97C643.546 750.059 645.321 749.272 646.944 748.504Z"/><path fill="#FEFEFE" d="M629.847 745.532C630.482 745.508 631.118 745.503 631.754 745.517C639.776 745.755 640.672 751.603 633.772 756.072C626.119 758.724 623 750.994 629.847 745.532Z"/><path fill="#FEFEFE" d="M444.854 783.672C449.212 782.928 462.586 782.248 464.554 787.168L463.602 788.117C461.413 789.009 459.277 788.595 456.848 788.437C449.424 787.597 441.661 786.828 434.311 785.678C437.904 784.683 441.178 784.243 444.854 783.672Z"/><path fill="#FEFEFE" d="M459.513 725.946C460.511 726.571 462.229 728.201 463.191 729.057C459.934 731.986 452.499 739.558 448.621 739.558C446.882 739.478 445.192 739.624 443.757 738.762C448.876 734.329 454.131 730.055 459.513 725.946Z"/><path fill="#FEFEFE" d="M628.415 761.877C628.804 764.407 626.229 782.783 625.344 786.408C625.054 787.597 623.208 787.888 621.997 788.285C620.346 781.209 624.095 767.645 628.415 761.877Z"/><path fill="#F6762F" d="M613.757 775.994C615.518 778.471 621.267 782.885 618.951 785.569C617.171 786.126 615.345 785.367 613.476 784.859C610.281 783.91 608.297 782.695 605.647 780.845C607.88 779.202 611.258 777.414 613.757 775.994Z"/><path fill="#FEFEFE" d="M609.16 760.528L609.762 760.655C610.956 761.842 611.621 764.098 612.261 765.74C609.489 768.088 608.094 768.692 604.643 769.766C595.658 765.566 604.47 761.812 609.16 760.528Z"/><path fill="#FEFEFE" d="M437.472 788.694C440.914 788.86 456.191 789.977 458.525 791.318L457.915 791.886C451.564 792.338 445.462 793.024 439.138 793.73C438.119 791.576 437.684 790.998 437.472 788.694Z"/><path fill="#FEFEFE" d="M424.437 754.761C431.274 754.752 432.353 758.006 429.82 763.775C423.893 763.177 419.67 760.768 424.437 754.761Z"/><path fill="#FEFEFE" d="M664.708 754.078C666.626 754.37 669.203 754.54 671.185 754.732C669.939 756.576 668.197 759.17 666.432 760.467L659.63 759.846C661.501 757.327 662.519 756.289 664.708 754.078Z"/><path fill="#FEFEFE" d="M648.538 753.47C650.368 753.417 651.718 753.144 653.254 754.046L653.493 755.061C652.525 757.119 650.838 758.473 649.182 760.095L643.633 761.272C645.452 757.894 646.2 756.477 648.538 753.47Z"/><path fill="#FEFEFE" d="M433.698 757.428C436.401 758.826 440.542 760.74 442.255 763.144L441.855 763.956L432.425 763.989C433.141 761.394 433.349 760.107 433.698 757.428Z"/><path fill="#FEFEFE" d="M622.254 790.247C623.051 790.567 623.957 790.748 624.344 791.336C625.793 793.534 625.367 799.967 625.048 802.496C624.232 802.322 623.886 802.137 623.107 801.831C621.309 799.033 621.854 793.486 622.254 790.247Z"/><path fill="#F6762F" d="M669.788 747.474C672.35 747.646 676.218 747.516 678.871 747.493L674.593 750.858C672.635 751.873 669.672 753.048 667.917 751.355C667.838 749.795 668.835 748.826 669.788 747.474Z"/><path fill="#F6762F" d="M422.832 798.27L423.706 798.962C424.903 802.5 425.468 804.076 422.311 806.314C420.714 804.681 420.125 803.995 420.097 801.788C420.684 799.991 421.438 799.544 422.832 798.27Z"/><path fill="#F6762F" d="M467.892 800.8C468.895 800.838 469.756 800.944 470.749 801.05C473.013 802.573 473.939 805.281 475.151 807.792C469.849 806.376 470.036 805.685 467.892 800.8Z"/><path fill="#FEFEFE" d="M435.686 773.712C438.519 773.498 442.431 773.134 445.03 774.16L445.209 774.801L443.844 775.369C441.496 775.54 436.493 776.125 434.665 775.207L434.656 774.37L435.686 773.712Z"/><path fill="#FEFEFE" d="M635.388 757.491L635.735 758.044C633.741 763.119 631.888 767.064 629.936 772.442L629.783 772.476C629.583 770.183 631.21 765.246 631.719 762.785C632.256 760.182 633.23 758.976 635.388 757.491Z"/><path fill="#FEA060" d="M618.179 758.485L618.649 758.538L618.937 759.176C617.788 761.166 615.678 762.891 613.958 764.506L613.386 763.972C612.732 761.802 612.6 762.743 613.219 760.998C614.783 759.478 616.091 759.223 618.179 758.485Z"/><path fill="#F6762F" d="M417.742 779.662C420.066 781.156 420.01 784.229 418.623 786.378C417.079 785.385 416.531 785.229 415.902 783.5C416.01 781.558 416.534 781.188 417.742 779.662Z"/><path fill="#FEA060" d="M621.139 769.892C621.656 771.826 620.49 774.813 619.466 776.501L618.582 776.716C618.109 776.092 617.704 775.468 617.265 774.82C617.739 772.586 619.325 771.617 621.139 769.892Z"/><path d="M662.402 314.046C678.656 305.849 697.372 299.408 715.771 299.463C717.883 301.871 718.893 303.416 720.175 306.398L710.719 320.404C699.279 321.185 687.933 324.564 677.547 329.343C675.173 327.53 664.616 316.515 662.402 314.046Z"/><path d="M737.719 300.29C752.218 302.011 774.239 308.653 786.026 317.074C782.664 321.351 775.812 327.725 771.724 332.06C758.915 324.456 743.55 321.157 728.942 319.329C732.425 314.688 736.772 311.864 740.123 306.568C739.398 304.311 738.622 302.464 737.719 300.29Z"/><path d="M727.804 335.008C741.042 336.083 748.82 338.287 760.974 343.599C757.595 347.322 749.593 356.592 746.073 359.746C739.036 357.088 735.56 356.514 728.224 355.232C730.416 352.062 732.408 348.921 734.473 345.666C731.763 341.74 730.057 339.177 727.804 335.008Z"/><path d="M633.726 335.394C639.323 329.546 645.663 324.456 652.584 320.255C656.155 325.845 661.084 331.856 664.1 336.712C658.385 340.974 653.143 345.481 647.591 349.928C642.995 346.152 637.706 339.969 633.726 335.394Z"/><path d="M387.061 626.158C388.932 635.283 391.42 652.114 389.034 661.077L388.454 661.309C387.77 659.954 387.916 656.652 387.864 654.902C388.185 645.954 387.277 637.027 385.678 628.234L387.061 626.158Z"/></svg>