<?xml version="1.0" encoding="utf-8" ?><svg xmlns="http://www.w3.org/2000/svg" xmlns:xlink="http://www.w3.org/1999/xlink" width="1024" height="1024" viewBox="0 0 1024 1024"><path d="M361.681 342.893C358.643 334.556 356.425 318.583 355.684 309.184C353.781 285.042 358.566 259.465 374.002 240.141C378.353 234.694 380.719 228.373 383.894 222.127C392.908 204.245 407.042 189.451 424.494 179.631C447.507 166.543 474.147 161.112 500.105 168.087C514.739 172.019 523.995 183.17 534.939 192.489C538.253 195.31 545.586 197.32 549.841 199.607C565.789 208.178 577.967 222.731 586.74 238.28C603.284 236.759 659.155 231.829 649.539 262.997C642.887 284.557 616.135 300.951 597.158 311.384C602.788 330.105 603.081 351.624 598.886 370.65C598.621 369.057 598.431 368.917 597.655 367.533C590.784 394.133 582.44 406.57 559.369 420.965C559.141 423.632 558.938 426.301 558.758 428.971C559.964 431.083 559.696 434.833 560.063 437.58C560.191 442.674 559.208 452.164 559.018 457.985C574.051 485.1 623.696 521.552 653.134 494.864C659.192 489.372 662.706 483.456 666.526 476.356C657.219 468.935 653.883 459.851 659.911 448.945C657.444 446.268 655.159 443.428 653.073 440.444C645.103 428.872 641.842 415.781 644.099 401.879C645.869 390.979 654.407 384.62 665.264 387.109C667.492 368.825 677.388 359.223 696.726 359.919C704.543 360.201 709.567 363.288 714.64 369.104C727.058 371.018 733.927 375.067 736.799 388.056C759.442 399.591 749.547 436.932 738.115 453.274C732.862 460.782 727.382 464.468 719.237 468.145C717.329 483.814 709.291 485.717 695.204 485.98C691.269 495.355 685.765 503.99 678.929 511.516C657.781 534.636 628.001 538.22 599.49 527.548C582.322 521.123 568.842 511.144 555.491 498.861C554.905 508.856 553.694 519.347 552.916 529.45C563.096 529.253 566.786 534.02 567.456 543.999C568.169 554.645 553.678 557.604 552.569 561.406C554.038 562.539 557.474 561.713 560.074 562.833C568.024 566.257 568.466 577.362 565.055 584.174C562.036 590.203 554.156 591.974 548.102 593.735C547.922 601.673 547.212 616.187 546.121 624.182C546.611 624.37 547.099 624.56 547.587 624.753C572.289 634.534 590.727 653.184 601.256 677.452C610.26 677.481 610.296 678.141 613.609 686.809C615.45 691.627 617.383 696.64 619.447 701.373C627.942 701.222 628.878 701.723 634.124 708.008C637.534 706.847 638.92 706.628 642.497 706.059C646.804 699.551 648.775 698.088 656.615 697.914C660.151 693.239 661.156 691.947 666.852 690.351C668.705 690.769 670.636 691.283 672.489 691.743C683.862 686.203 686.861 682.763 700.444 680.281C726.307 675.555 756.942 697.648 761.369 722.693C764.447 740.109 733.147 761.582 721.842 771.473C702.669 786.907 684.631 802.562 666.124 818.712C652.211 830.493 637.893 844.108 618.908 846.278C603.232 847.947 599.839 839.008 593.667 827.961C581.82 806.755 578.634 788.833 576.753 765.077C565.861 753.459 570.137 746.223 579.279 735.317C576.577 726.797 572.646 710.812 570.74 701.598C570.189 698.939 574.579 694.651 576.582 692.682C567.134 674.875 559.666 663.212 540.706 654.17C536.779 675.421 543.787 700.181 511.702 698.238C502.063 697.654 495.132 698.484 488.746 689.262C476.496 699.157 462.492 706.406 446.534 707.674C443.995 718.491 435.152 715.735 425.597 717.272C425.39 729.764 420.406 734.523 409.276 738.83C411.809 745.443 412.466 746.762 406.221 751.021C409.924 757.562 408.926 759.279 404.554 764.827C409.15 770.765 409.907 771.41 406.424 777.952C406.962 793.11 414.727 806.533 405.506 821.214C400.962 828.449 381.746 850.152 374.354 850.961C338.423 854.896 307.74 822.832 299.965 791.899C298.452 785.809 297.496 779.593 297.108 773.33C296.234 759.224 297.29 743.709 298.064 729.587C299.048 711.61 297.856 689.128 307.224 673.337C314.458 668.635 322.613 669.133 330.663 668.115C341.891 666.694 352.821 665.098 364.192 665.545C372.383 665.867 379.658 668.631 387.692 666.083C397.241 663.395 404.435 666.612 409.816 674.781C416.233 673.519 431.705 671.814 437.8 672.656C439.885 674.433 441.029 676.37 442.748 678.504C455.695 678.815 474.047 663.083 481.989 653.644C479.906 642.997 477.926 630.203 476.451 619.484C462.13 623.574 450.969 618.927 455.796 601.549C457.809 594.3 464.685 591.897 471.012 589.026C470.54 589.023 470.068 589.017 469.596 589.009C462.431 588.871 460.679 588.66 455.894 583.657C452.496 572.021 455.75 564.62 465.97 558.84C464.202 550.394 462.876 540.321 461.536 531.656C459.255 516.623 456.852 501.608 454.326 486.614C441.282 477.836 421.087 469.773 405.425 468.656C392.664 468.466 386.134 469.249 375.24 477.378C369.207 481.881 360.214 498.867 360.994 507.55C361.081 508.53 369.28 512.047 371.532 514.941C376.137 520.856 376.659 523.184 376.465 530.486C383.979 533.499 391.902 537.962 397.266 544.138C406.868 555.192 406.711 570.297 395.304 580.019C405.925 600.865 391.649 628.972 366.181 615.748C356.196 627.365 345.481 625.782 333.883 617.846C331.742 618.851 329.795 619.599 327.419 619.705C305.853 620.668 299.067 596.763 298.859 579.761C298.637 561.646 301.554 549.566 313.856 536.644C313.46 535.839 313.083 535.024 312.725 534.201C307.223 521.279 320.365 512.407 330.479 508.168C334.53 478.721 347.611 453.49 377.154 443.398C398.377 436.149 429.135 440.989 448.831 450.879C448.142 445.876 447.487 440.868 446.867 435.856C423.458 423.913 408.931 408.495 400.095 383.446C370.299 388.086 343.076 377.399 361.681 342.893Z"/><path fill="#AFADB2" d="M396.716 357.391C411.365 337.843 430.955 318.779 451.603 305.507C478.191 288.417 511.294 276.553 543.199 277.013C555.364 277.188 569.625 280.256 581.577 282.842C597.342 310.696 602.968 335.692 597.655 367.533C590.784 394.133 582.44 406.57 559.369 420.965C559.141 423.632 558.938 426.301 558.758 428.971C558.024 448.407 555.274 468.222 553.223 487.548C552.484 494.519 552.811 501.908 552.445 508.915C552.074 516.041 551.253 523.148 550.382 530.229C523.123 539.817 495.6 548.392 468.306 557.941C464.22 535.173 460.743 510.709 457.066 487.723C467.427 487.796 476.584 478.837 474.165 468.606C472.377 461.044 457.449 454.72 451.157 451.449C450.709 448.736 449.031 440.561 449.887 438.6L452.899 437.559L452.889 436.791C450.894 434.695 438.268 429.044 433.24 425.28C408.827 407.008 401.546 385.911 396.716 357.391Z"/><path d="M504.691 308.055C515.143 307.358 519.823 314.817 522.477 323.743C520.314 325.888 515.397 329.65 512.795 331.84L523.569 336.453C523.646 348.461 521.643 358.593 508.022 361.246C510.206 363.49 515.445 369.181 513.358 372.391L512.442 372.311L511.579 370.884C501.041 351.906 482.854 360.081 480.977 355.959L481.551 355.349C486.341 353.562 492.44 354.912 497.381 355.85C490.227 342.139 486.677 314.761 504.691 308.055Z"/><path d="M561.597 305.518C572.096 305.107 575.375 312.106 578.527 320.758C575.56 323.261 572.629 325.804 569.734 328.389C573.063 329.677 577.37 331.164 580.304 333.032C579.888 341.668 580.161 346.457 573.986 352.912C573.278 353.385 572.558 353.838 571.826 354.272C557.186 362.773 549.327 340.031 550.24 328.917C551.063 318.907 550.764 310.169 561.597 305.518Z"/><path d="M500.857 374.606C506.472 376.61 500.576 384.482 498.616 387.427C506.072 393.253 511.931 396.496 521.221 399.001C533.436 402.295 546.883 401.953 558.459 396.566C561.441 395.179 565.301 392.651 568.295 390.901C569.693 391.161 569.211 390.787 569.943 391.802C568.892 394.849 561.6 398.157 558.705 399.515C536.963 408.036 514.589 403.482 496.403 389.355C492.772 391.407 484.502 394.523 481.057 391.143C482.766 385.861 498.072 395.582 500.857 374.606Z"/><path d="M549.373 354.622C553.735 354.265 557.476 353.997 561.121 356.957C563.172 358.645 564.446 361.096 564.648 363.744C565.574 375.342 548.405 381.397 543.913 377.391L544.462 376.492C546.604 375.182 548.376 375.376 550.931 375.251C558.064 372.948 566.152 367.921 559.987 359.425C555.014 352.572 544.709 361.294 540.232 360.937L539.95 360.378C541.413 356.544 545.807 355.682 549.373 354.622Z"/><path d="M503.011 293.124C503.84 293.09 504.67 293.071 505.5 293.066C509.572 293.049 522.577 295.8 521.665 301.288L520.867 301.794C519.049 301.469 517.216 299.341 515.283 298.311C509.764 295.371 505.482 295.111 499.684 296.741L498.981 296.945C496.86 298.012 495.344 298.746 493.456 300.279C491.168 302.136 487.911 307.887 485.255 308.287L484.943 307.42C485.657 300.106 496.39 294.434 503.011 293.124Z"/><path d="M558.753 290.609C559.333 290.546 559.914 290.495 560.496 290.458C566.301 290.102 577.187 293.505 577.477 300.13C574.818 301.314 571.543 296.064 569.36 294.796C567.78 293.878 566.587 293.636 564.819 293.225L564.16 293.077C555.427 292.848 553.754 296.592 547.425 300.932L546.702 300.661C545.414 295.99 555.152 291.741 558.753 290.609Z"/><path d="M547.331 412.516L548.464 412.638L549.03 413.357C546.826 419.5 532.076 418.253 526.882 417.194C525.398 416.758 525.507 416.738 524.409 415.613C525.217 413.873 529.317 414.803 531.081 415.053C537.522 415.967 541.486 415.088 547.331 412.516Z"/><path fill="#F47630" d="M468.652 167.686C473.195 167.012 482.98 167.354 487.433 167.921C514.061 171.312 532.195 189.962 544.358 212.702C547.862 219.253 552.06 229.932 556.331 235.404L556.8 235.999C554.531 224.269 544.296 207.192 537.765 196.859C558.017 202.592 573.762 221.084 584.378 238.345C573.932 240.151 563.957 240.911 553.117 243.006C504.138 252.471 455.12 268.415 412.987 295.597C411.324 292.844 409.607 290.124 407.837 287.438C401.497 290.112 383.12 305.206 378.013 310.431C379.199 313.332 380.853 316.657 382.204 319.538C374.588 326.945 370.133 331.643 363.627 340.067C356.536 319.761 355.405 287.348 362.623 267.28C371.688 242.077 384.21 227.817 407.578 216.023C432.128 204.157 454.33 203.992 475.137 223.394C479.843 227.782 484.531 233.533 489.576 237.382L490.2 237.852C482.845 223.565 468.304 212.063 453.007 207.435C431.132 200.816 413.469 209.686 394.73 219.707C421.865 171.904 470.181 178.332 494.796 223.41C496.739 226.967 502.941 239.343 505.429 241.64L505.965 241.249C506.11 238.305 504.407 235.038 503 232.466C490.235 209.117 473.089 184.232 443.511 184.172C425.305 184.135 409.403 194.234 398.891 208.692C393.634 215.923 390.136 222.525 383.663 228.904C398.062 193.551 431.642 172.433 468.652 167.686Z"/><path fill="#FEFEFE" d="M344.838 508.724C356.519 509.16 369.608 511.338 374.223 524.892C374.691 526.267 374.148 527.307 373.423 528.441C370.266 529.332 359.393 522.881 356.115 526.42C356.759 527.897 369.831 531.104 373.098 531.99C392.052 537.132 414.345 559.464 393.571 578.249C390.028 576.167 387.76 574.669 384.429 572.251C384.541 570.109 384.908 568.17 384.02 566.305L383.388 566.209C380.979 571.028 379.774 589.07 385.605 591.316C387.132 588.909 384.896 586.3 384.501 583.86C384.079 581.252 384.255 578.08 384.284 575.409C389.576 578.544 394.229 581.365 395.811 587.885C397.276 593.922 396.083 602.936 392.893 608.216C390.454 612.313 386.409 615.2 381.741 616.173C375.368 617.52 370.678 615.376 365.502 612.129C361.712 609.525 358.256 605.506 353.8 603.847L353.461 604.255C355.498 608.293 359.864 611.532 363.362 614.477C347.63 632.251 336.333 614.051 324.043 605.842C325.898 610.44 328.206 612.434 331.572 616.067C315.586 621.862 305.152 605.798 302.732 592.155C299.02 571.236 301.745 544.166 323.382 533.898C325.575 532.858 328.001 531.3 329.351 529.273L328.999 528.881C324.252 529.509 320.445 532.327 316.229 534.264L315.355 533.739C314.642 532.329 314.51 531.447 314.41 529.863C313.426 514.295 333.264 509.328 344.838 508.724Z"/><path fill="#F47630" d="M599.68 239.75C684.149 233.273 641.984 285.749 597.309 308.804C595.593 305.009 593.852 300.497 592.236 296.601C597.706 291.2 604.518 283.617 605.145 275.675C606.133 263.171 589.879 259.873 580.535 260.096C512.293 261.726 439.507 283.155 389.523 331.417C383.788 337.224 379.085 342.999 374.9 349.986C362.935 369.965 380.965 371.854 396.203 371.92C397.414 375.186 398.155 377.936 399.07 381.305C385.757 382.206 359.162 383.472 357.522 364.391C356.677 354.557 364.618 341.455 371.132 334.496C428.564 273.141 518.207 246.214 599.68 239.75Z"/><path fill="#FEFEFE" d="M657.604 389.057C661.674 388.594 665.819 389.552 668.997 392.162C676.268 398.133 685.423 401.052 687.585 410.808C684.085 425.25 672.322 426.984 660.329 419.88C658.342 418.703 655.94 415.678 654.006 415.483C653.161 418.235 655.458 420.526 657.675 421.772C666.598 426.785 674.494 428.437 683.744 423.25L689.483 427.474C685.271 431.316 678.499 441.672 680.609 447.653C681.863 448.889 681.153 448.599 682.666 448.833C683.908 446.557 682.804 442.36 684.686 438.504C686.472 434.842 688.126 430.924 692.422 429.006C693.173 428.67 694.953 428.522 695.086 428.738C697.869 433.186 700.188 438.349 705.543 440.28C714.622 443.554 726.269 441.76 728.832 430.939C729.301 428.959 727.905 426.215 728.865 423.891C730.662 422.899 732.936 422.298 732.39 420.104L731.275 419.948C728.185 421.323 718.637 422.599 718.624 425.173C721.179 425.863 724.481 423.939 726.208 425.712C726.514 430.227 725.44 436.101 720.989 437.654C701.408 444.487 692.501 426.469 699.16 410.248C703.002 400.892 708.324 397.34 716.63 393.887C745.49 383.049 750.84 402.7 746.498 426.84C742.865 447.036 729.061 468.135 706.257 467.129C703.21 466.995 697.05 466.163 694.352 466.992L694.648 467.654C702.118 471.294 708.891 470.092 716.885 469.066C713.076 489.573 688.081 484.461 674.351 477.915C663.505 472.745 655.58 463.132 661.826 450.844C664.88 453.497 672.364 460.698 676.007 460.605L676.52 459.806C675.864 458.333 666.53 451.228 664.467 449.437C650.9 437.664 643.916 420.885 646.332 402.937C647.29 395.823 650.854 391.615 657.604 389.057Z"/><path fill="#F47630" d="M392.283 667.611C399.5 667.065 402.699 669.517 407.156 674.636C398.764 675.48 393.144 671.507 385.695 678.979C378.903 685.791 377.176 692.955 376.994 702.33C356.677 719.596 347.37 745.146 351.373 771.38C343.161 773.09 337.253 774.639 329.785 778.576C327.089 779.997 321.771 784.508 320.47 784.595L319.874 783.447C319.545 782.1 319.242 780.746 318.967 779.386C315.129 760.544 316.464 687.985 326.753 672.512C340.391 667.852 364.286 666.873 378.328 669.795C376.419 671.761 372.362 676.004 372.614 678.759C375.503 679.275 378.62 672.619 382.956 670.515C387.485 668.317 387.289 668.472 392.283 667.611Z"/><path fill="#F47630" d="M666.328 721.524C665.705 720.816 670.486 738.377 672.717 742.528C660.668 754.09 648.677 765.711 636.744 777.393C621.653 791.986 605.01 805.573 594.719 823.994C583.347 805.55 580.368 784.67 578.966 763.503L575.643 760.293C574.299 758.599 573.606 757.096 572.614 755.205C573.415 741.976 588.157 727.731 600.252 724.049L604.581 733.037C593.409 740.309 583.249 748.414 578.309 761.29C581.302 758.992 584.647 754.437 587.09 751.385C593.046 743.941 597.939 739.978 606.024 735.196C619.631 747.361 629.714 740.936 643.532 733.335C651.057 729.196 658.383 724.835 666.328 721.524Z"/><path fill="#FEFEFE" d="M355.254 773.677C361.862 772.93 370.709 772.952 377.168 774.623C396.71 779.681 412.433 787.64 407.017 810.638C404.518 820.957 398.045 829.871 389.007 835.442C384.586 835.686 380.744 835.471 376.37 834.946C369.675 833.905 363.157 831.941 357.002 829.109C338.269 820.482 328.032 807.267 321.121 788.319C331.395 779.239 341.675 775.339 355.254 773.677Z"/><path fill="#AFADB2" d="M545.251 595.456L545.981 595.567C546.894 597.161 544.491 619.546 544.393 623.481C532.49 618.985 482.168 603.521 490.264 635.968C491.923 642.618 501.005 644.461 507.053 645.065C518.004 646.157 528.342 648.976 538.651 653.285C537.286 664.75 537.592 680.868 532.227 689.753C530.155 692.157 526.867 694.787 523.647 695.202C511.395 696.759 492.118 698.526 488.735 682.472C484.37 661.754 482.413 639.865 478.391 618.972L545.251 595.456Z"/><path fill="#FEFEFE" d="M320.272 671.549C321.642 671.4 322.135 671.17 323.318 671.81C314.099 698.786 316.559 713.232 314.555 739.821C310.526 793.258 328.961 834.462 387.067 838.567C383.078 843.318 379.945 845.862 374.469 848.562C364.15 851.667 348.33 845.384 339.443 840.333C320.778 829.727 308.21 813.026 302.657 792.315C300.729 785.147 299.607 777.787 299.31 770.37C298.705 758.282 299.579 744.857 300.363 732.253C301.429 715.121 300.225 693.246 307.789 677.448C309.689 673.48 316.243 672.539 320.272 671.549Z"/><path fill="#FEFEFE" d="M740.199 705.144C752.521 703.992 753.56 707.147 757.921 718.283C719.004 709.453 653.2 784.763 626.593 809.339C620.971 814.532 611.664 825.328 607.538 831.655C605.652 835.09 605.225 836.168 604.032 839.86C600.262 835.04 598.454 832.415 596.535 826.671C604.177 810.233 626.776 790.766 640.352 777.85C666.016 753.434 703.748 711.003 740.199 705.144Z"/><path fill="#AFADB2" d="M554.138 564.535C558.389 564.399 562.476 565.694 563.733 570.104C568.794 587.85 552.56 590.178 541.001 594.377C529.302 598.649 517.555 602.788 505.762 606.793C496.863 609.859 476.042 617.675 467.787 619.409C456.676 617.885 455.639 610.223 459.412 600.333C461.387 595.154 472.544 592.276 477.998 590.509C503.455 582.258 528.506 572.23 554.138 564.535Z"/><path fill="#AFADB2" d="M553.45 532.077C567.693 529.798 567.487 550.844 558.15 554.778C537.944 563.293 516.239 569.542 495.549 576.873C486.558 580.059 477.368 583.308 468.364 586.046C452.43 586.858 454.802 568.168 464.851 562.47C467.237 561.118 471.174 559.549 473.803 558.728C500.333 550.442 526.833 539.841 553.45 532.077Z"/><path fill="#FEFEFE" d="M701.254 682.635C705.026 682.102 710.822 682.176 714.606 682.711C727.557 684.637 739.264 691.492 747.282 701.843C727.024 703.462 713.755 710.946 697.283 722.672C690.055 727.742 681.212 734.843 674.842 740.861C667.606 728.119 666.893 708.314 675.453 695.952C681.219 687.627 691.714 684.207 701.254 682.635Z"/><path fill="#FEFEFE" d="M428.069 674.707C429.539 674.5 432.943 674.437 434.566 674.357L432.457 678.914C426.582 679.397 393.29 682.209 390.586 684.79C391.929 687.822 427.397 680.194 431.442 681.781C431.573 682.829 431.694 686.337 430.375 686.754C421.597 689.528 396.469 689.072 389.629 693.647L389.758 694.181C393.312 694.685 425.135 690.178 431.367 689.44L432.237 696.155L417.563 697.874C413.505 698.418 393.137 700.162 391.86 703.042C394.186 704.015 427.288 699.261 432.744 698.569L434.965 704.751C423.494 706.053 412.07 707.149 400.648 708.92C397.61 709.391 393.376 708.137 390.315 708.619C387.352 709.085 384.22 710.641 381.589 712.031C378.671 702.791 378.006 691.709 384.765 683.835C386.781 681.443 389.396 679.629 392.344 678.579C396.466 677.102 422.759 675.154 428.069 674.707Z"/><path fill="#FEFEFE" d="M711.42 372.162C723.356 370.496 731.299 376.651 734.179 388.047C713.239 388.594 697.871 396.7 694.554 418.794L694.486 426.022C690.814 424.648 689.28 423.78 686.331 421.219C692.616 410.398 690.732 405.374 681.622 398.024C685.203 382.378 696.22 374.71 711.42 372.162Z"/><path fill="#F47630" d="M671.284 695.374C671.749 697.166 669.942 701.1 669.301 703.031C667.468 708.552 666.837 712.523 666.793 718.305C652.583 725.039 637.869 735.181 623.112 739.481C610.491 743.158 596.793 720.608 605.816 710.803C610.928 705.247 617.71 704.202 624.827 703.785C636.977 705.911 626.709 716.048 623.916 721.408C622.795 723.559 621.999 725.708 621.204 727.988C621.919 731.221 622.051 734.364 626.042 734.601C630.53 732.841 633.783 723.784 636.379 719.048C636.284 719.901 636.206 720.757 636.145 721.613C635.947 724.679 637.153 727.187 640.604 727.132C645.649 725.12 646.899 714.797 650.877 707.963C649.715 722.973 658.786 721.111 662.117 709.421C663.459 704.712 667.314 698.316 671.284 695.374Z"/><path fill="#F47630" d="M376.884 705.951C377.718 706.815 382.318 720.095 381.872 721.95C381.607 723.05 381.724 722.712 380.93 723.344C377.065 722.961 370.775 722.143 368.101 725.488C367.242 730.57 373.256 732.415 376.897 733.552L375.078 737.227C371.46 736.711 359.619 735.556 363.819 744.605C364.942 747.025 370.005 747.433 372.626 747.773C372.311 749.538 372.251 750.861 371.26 752.339C366.495 754.413 356.767 750.821 360.176 761.248C363.632 764.019 365.823 763.569 370.357 763.776L369.873 770.917C363.928 770.372 360.016 770.453 354.106 771.107C352.637 764.017 352.414 756.724 353.448 749.558C355.467 735.029 365.069 714.781 376.884 705.951Z"/><path fill="#FEFEFE" d="M690.111 362.626C698.971 362.19 705.385 362.283 711.641 369.456C698.36 371.653 689.376 376.192 682.518 388.049C681.212 390.649 680.103 393.589 679.003 396.303L667.899 387.968C668.028 373.452 676.124 365.078 690.111 362.626Z"/><path fill="#FEFEFE" d="M596.978 681.472C598.769 682.734 604.833 702.663 606.43 706.535C601.006 711.58 599.789 713.466 600.41 721.008C595.875 722.776 594.067 723.622 589.91 726.091C587.45 716.058 584.267 705.662 581.218 695.791C579.601 690.52 583.505 689.191 587.519 686.359C589.846 692.656 594.583 714.069 598.182 717.412L598.76 717.129C599.146 714.136 591.089 689.82 589.582 685.136C591.99 683.68 594.425 682.633 596.978 681.472Z"/><path fill="#F47630" d="M391.004 711.086C398.501 710.228 404.776 713.117 410.648 717.426C420.041 724.319 410.759 730.772 405.987 736.214C399.695 733.342 393.463 726.334 385.534 725.045C382.934 724.622 385.286 722.37 385.224 721.485C385.067 719.252 383.702 716.311 382.832 714.092C386.296 712.436 387.29 712.048 391.004 711.086Z"/><path fill="#FEFEFE" d="M364.149 755.563C375.708 754.358 390.492 759.239 400.154 765.426C402.649 767.024 405.593 768.969 406.26 771.986C405.826 774.173 406.336 773.305 404.822 774.764C390.298 766.122 381.417 762.234 364.661 760.531C363.561 760.42 362.922 759.598 362.391 758.726C362.573 757.066 363.025 756.798 364.149 755.563Z"/><path fill="#FEFEFE" d="M577.892 694.447C581.042 699.148 584.581 719.607 588.397 727.105C586.4 728.725 584.405 730.467 582.441 732.137L581.506 732.539C580.248 731.161 573.671 705.32 572.851 701.757C574.747 698.177 575.33 697.442 577.892 694.447Z"/><path fill="#F47630" d="M406.314 290.896L406.886 291.056C408.125 292.18 409.777 295.6 410.661 297.231C401.69 303.123 393.123 309.609 385.019 316.646L384.471 316.903C383.045 315.657 381.924 312.993 381.019 311.208C388.547 304.387 397.882 296.441 406.314 290.896Z"/><path fill="#FEFEFE" d="M366.662 739.529C376.56 739.101 387.395 742.688 395.916 747.536C400.02 749.872 407.64 754.081 405.261 759.731C397.315 754.624 392.947 751.326 383.921 747.919C378.467 745.86 367.889 745.66 365.401 742.473C365.363 741.025 365.8 740.741 366.662 739.529Z"/><path fill="#FEFEFE" d="M372.012 725.413C381.599 725.053 411.526 735.943 408.245 747.364C406.046 746.483 399.223 741.246 396.714 739.545C390.8 735.537 387.315 734.251 380.502 731.959C377.681 731.01 372.73 729.894 371.355 727.494L372.012 725.413Z"/><path fill="#FEFEFE" d="M600.88 680.201C602.258 680.061 607.18 679.56 607.765 680.226C610.776 683.654 615.363 697.043 616.351 701.233C615.457 702.475 615.372 702.169 613.623 702.785L608.324 705.013C606.147 698.713 601.83 687.139 600.306 681.024L600.88 680.201Z"/><path fill="#FEFEFE" d="M434.909 707.218C436.501 707.367 439.144 711.26 440.997 713.122L412.761 715.836C409.922 713.86 407.597 712.497 404.595 710.768C414.763 709.528 424.704 708.225 434.909 707.218Z"/><path fill="#F47630" d="M372.924 764.317C380.539 764.902 392.824 769.909 399.009 774.493L398.943 780.832C389.542 775.242 383.166 772.974 372.404 771.11C372.534 768.88 372.751 766.553 372.924 764.317Z"/><path fill="#AFADB2" d="M547.621 562.015C548.655 561.982 548.188 561.832 549.015 562.48C546.736 564.979 482.896 586.085 475.115 588.61L473.946 588.587L473.641 588.048C478.64 584.151 537.979 564.977 547.621 562.015Z"/><path fill="#FEFEFE" d="M665.388 692.876C666.873 692.896 666.864 692.785 668.131 693.496C667.999 694.313 663.877 699.313 662.774 701.337C660.079 706.283 659.025 710.81 656.666 715.765C654.938 715.918 654.629 715.656 653.62 714.507C652.108 707.834 659.803 696.503 665.388 692.876Z"/><path fill="#FEFEFE" d="M651.712 700.414C652.954 700.531 652.411 700.309 653.355 701.038C653.104 702.215 648.638 707.438 647.362 709.522C644.735 713.811 643.207 722.002 640.599 724.824C640.195 724.587 639.448 723.991 639.045 723.689C635.973 715.927 645.229 704.093 651.712 700.414Z"/><path fill="#F47630" d="M375.292 748.027C380.935 749.495 393.765 753.405 398.197 758.293C399.091 759.279 398.497 760.244 398.135 761.316C388.896 756.518 384.062 755.202 374.029 753.172L375.292 748.027Z"/><path fill="#FEFEFE" d="M637.388 709.318C637.97 709.492 637.603 709.342 638.387 709.963C638.248 711.298 627.583 730.978 626.185 732.333C620.714 724.75 631.45 713.545 637.388 709.318Z"/><path fill="#F47630" d="M421.372 717.703L422.254 717.605L422.903 718.235C423.109 727.244 419.511 731.64 411.457 735.195C411.45 733.735 415.324 730.139 416.406 728.396C418.738 724.637 416.071 722.074 416.437 718.92C418.139 717.692 419.074 717.959 421.372 717.703Z"/><path fill="#F47630" d="M379.798 734.265C383.967 735.814 399.899 742.379 401.375 746.241L400.809 747.226C392.716 742.582 387.177 740.629 378.45 737.796C378.353 736.312 378.967 735.832 379.798 734.265Z"/><path fill="#F47630" d="M401.835 776.418C405.298 778.655 404.524 781.02 404.473 784.773C400.806 781.614 400.977 780.974 401.835 776.418Z"/><path d="M687.069 566.576C709.928 565.805 729.112 583.654 729.989 606.51C730.866 629.366 713.106 648.632 690.255 649.615C667.253 650.605 647.832 632.702 646.949 609.696C646.066 586.69 664.059 567.352 687.069 566.576Z"/><path fill="#FEFEFE" d="M686.621 569.097C708.128 568.045 726.437 584.579 727.575 606.081C728.714 627.583 712.254 645.959 690.757 647.185C669.136 648.418 650.632 631.843 649.486 610.217C648.341 588.592 664.991 570.154 686.621 569.097Z"/><path d="M709.631 609.474C716.103 609.1 715.381 614.218 712.885 618.414C703.379 634.39 688.467 635.676 673.04 627.171C672.342 629.262 672.141 630.826 670.389 631.971L669.259 631.705C667.58 629.892 666.755 627.231 665.794 624.873C664.871 622.825 662.079 617.015 662.162 615.445C662.258 613.62 676.057 612.898 677.971 613.339C679.278 613.64 679.426 614.39 679.833 615.293C679.638 617.583 678.191 619.03 676.775 620.963C686.016 627.603 696.788 627.779 704.452 618.509C706.89 615.56 707.982 612.919 709.631 609.474Z"/><path d="M703.053 588.205C703.76 586.455 704.425 583.917 706.32 583.406C708.533 585.201 714.883 597.83 714.205 600.622C711.861 602.511 698.032 603.055 695.766 600.592C696.044 597.171 698.533 598.077 698.772 594.867C697.951 593.332 697.206 593.117 695.677 592.263L695.11 591.953C686.684 588.719 677.855 589.861 672.454 597.696C670.031 601.21 669.008 606.105 664.487 606.954C658.194 603.794 668.273 591.138 671.933 588.696C676.569 585.601 679.293 584.498 684.559 583.635C692.095 582.927 696.628 584.944 703.053 588.205Z"/><path d="M270.165 366.523C292.926 363.578 313.76 379.654 316.685 402.417C319.611 425.18 303.518 446.001 280.752 448.907C258.013 451.809 237.223 435.739 234.302 413.003C231.38 390.267 247.432 369.464 270.165 366.523Z"/><path fill="#FEFEFE" d="M273.399 368.769C294.907 367.574 313.313 384.037 314.515 405.544C315.717 427.052 299.261 445.463 277.754 446.673C256.237 447.883 237.814 431.417 236.611 409.899C235.408 388.381 251.881 369.964 273.399 368.769Z"/><path d="M297.65 407.864C309.712 410.185 293.466 429 285.039 430.634C273.24 432.922 270.694 432.497 260.354 427.185C259.382 429.384 259.275 430.408 257.366 431.478L256.199 431.05C254.595 429.191 252.651 423.788 251.552 421.214C250.371 418.796 249.598 417.546 249.108 414.876C250.29 412.038 264.396 412.398 267.117 413.646L267.43 414.628C266.898 416.827 265.291 418.545 263.882 420.403C273.267 428.26 286.415 426.538 293.129 415.994C294.888 413.231 294.83 409.939 297.65 407.864Z"/><path d="M290.111 388.095C291.048 385.981 291.676 383.086 294.21 383.159C295.837 385.794 301.606 397.383 301.131 400.191C298.02 401.91 286.57 402.309 283.267 401.055L283.008 400.111C283.709 397.899 285.337 396.181 286.804 394.317C285.022 393.093 283.297 392.269 281.382 391.281C257.754 383.935 258.67 408.066 250.811 406.395C247.688 402.89 251.722 395.755 254.199 392.884C259.597 386.628 265.178 383.962 273.258 383.188C281.106 383.501 283.342 384.425 290.111 388.095Z"/><path d="M597.655 367.533C598.431 368.917 598.621 369.057 598.886 370.65C592.734 396.603 582.293 408.401 561.083 422.698C561.004 425.57 560.631 434.862 560.063 437.58C559.696 434.833 559.964 431.083 558.758 428.971C558.938 426.301 559.141 423.632 559.369 420.965C582.44 406.57 590.784 394.133 597.655 367.533Z"/></svg>