<?xml version="1.0" encoding="utf-8" ?><svg xmlns="http://www.w3.org/2000/svg" xmlns:xlink="http://www.w3.org/1999/xlink" width="1024" height="1024" viewBox="0 0 1024 1024"><path fill="#010000" d="M331.394 337.153C324.369 307.541 323.789 283.068 336.331 255.368C338.083 249.715 339.018 243.138 340.727 237.544C352.924 197.621 402.1 167.877 443.131 173.988C455.622 175.848 460.914 180.478 471.814 185.449C476.022 187.368 487.083 189.008 492.161 190.564C514.53 197.41 534.167 211.144 548.269 229.809C550.994 229.289 555.351 228.541 557.871 228.005C592.981 220.545 623.204 225.688 591.05 265.144C581.989 276.262 571.291 286.196 560.337 296.234C570.842 324.138 574.231 352.854 564.47 381.628C575.312 378.95 590.894 376.315 601.945 374.729L614.219 362.33C601.561 362.742 587.826 365.674 575.277 367.497C574.098 367.669 573.728 367.105 573.074 366.408L573.732 365.644C579.173 363.415 609.858 359.578 616.409 359.896C624.566 351.322 637.179 336.139 644.186 326.324C643.292 324.979 642.419 323.622 641.564 322.252C635.683 312.736 636.49 303.78 646.315 297.79C639.189 280.023 638.138 256.004 661.156 249.751C655.551 240.094 656.377 230.308 660.477 219.865C668.228 200.126 691.244 192.416 705.306 211.44C707.626 214.578 708.629 217.811 709.958 221.575C711.404 221.46 713.335 221.284 714.765 221.294C720.165 221.334 725.314 223.573 729.027 227.494C734.864 233.731 735.182 240.615 734.884 248.481C757.61 254.171 752.674 279.053 744.027 294.276C733.158 313.41 718.453 329.119 695.715 330.999C694.258 347.293 682.052 348.048 669.143 344.733C665.581 349.036 661.132 355.319 657.628 359.895C682.989 364.573 704.139 373.382 692.682 404.025L692.147 402.46L691.549 402.294L689.842 404.628C691.618 399.728 692.875 396.161 693.253 390.956C694.731 370.623 671.005 363.905 655.007 362.757L647.572 371.402C658.819 372.867 675.832 375.09 673.31 391.347C671.696 401.748 662.811 410.732 656.056 418.28L646.95 425.574C651.819 428.648 656.173 433.068 657.261 438.887C661.042 459.121 639.284 475.907 624.597 485.116C611.397 493.393 598.821 499.346 584.552 505.098C580.498 506.692 570.141 511.283 566.265 510.526L566.27 509.964C572.275 506.141 583.107 503.272 590.241 499.889C613.361 488.928 646.598 474.737 654.779 448.347C657.433 439.788 651.753 432.07 645.331 427.157C609.849 452.574 578.618 468.157 538.096 484.588C536.983 497.01 535.45 511.653 534.916 523.995C545.03 526.692 548.233 530.605 546.721 542.027C545.77 549.213 535.165 552.311 533.905 554.808C536.337 556.573 539.606 557.178 542.606 558.75C562.647 551.958 582.058 543.432 600.619 533.27C608.744 528.793 621.119 519.911 628.47 516.908C609.681 536.185 569.247 551.173 544.644 561.181C551.021 575.276 546.061 581.466 533.163 586.551C529.901 587.837 530.408 590.313 530.33 593.365C581.129 582.386 671.589 545.14 700.864 500.093C707.327 490.149 711.716 478.398 709.213 466.463C707.012 455.964 699.042 447.723 690.258 442.118C686.432 439.694 682.386 437.637 678.173 435.974C675.424 434.895 669.592 433.814 669.176 430.968L670.544 430.139C671.063 430.706 671.177 430.995 671.795 431.271C683.621 433.53 697.8 442.104 705.085 451.725C710.888 459.389 713.257 468.676 711.947 478.169C704.964 528.771 616.505 568.797 574.426 583.124C569.297 584.87 531.553 595.944 530.077 597.173C529.182 597.919 529.205 598.14 529.115 599.229C530.798 601.356 535.688 599.683 538.55 599.692C585.119 599.832 650.955 606.785 637.597 670.03C639.228 671.454 642.508 674.19 642.241 676.316C641.196 684.617 635.476 695.79 632.415 703.479C636.002 705.076 638.056 706.07 641.429 708.05C646.917 702.457 653.05 696.277 661.81 698.751C668.743 700.709 670.837 709.205 668.287 715.313C664.86 723.52 656.104 727.666 648.487 731.161C654.253 733.828 654.774 734.077 658.348 739.149C665.909 740.785 669.871 745.337 675.762 750.39C684.956 750.84 693.69 753.546 700.717 759.537C715.89 772.475 718.075 790.38 719.351 809.005C719.567 812.165 720.369 820.974 717.916 822.685C707.011 830.291 681.291 832.736 669.284 832.536C631.692 831.909 594.702 820.642 562.445 801.736C556.426 798.208 548.165 793.112 543.493 788.405C543.599 780.116 546.364 776.393 547.382 769.344C549.177 755.95 551.135 742.437 555.911 729.693C562.016 713.397 565.075 699.992 585.142 699.404C589.734 689.958 593.06 678.765 597.971 669.395C599.878 665.757 601.764 665.7 605.548 664.731C607.512 655.186 608.091 645.51 598.461 639.728C579.823 628.537 547.785 626.756 526.882 630.181C525.315 651.207 525.53 671.212 516.341 690.582C504.731 715.055 483.848 706.622 475.827 686.025C470.201 671.58 469.335 653.108 465.159 637.963C447.172 651.163 432.846 668.567 420.367 686.873C420.839 687.588 422.43 690.014 422.657 690.702C424.865 697.393 416.332 709.061 413.28 715.518L413.009 716.1C422.4 724.101 419.141 724.679 420.288 735.458C421.797 749.645 421.57 762.773 421.387 777.017C421.312 782.919 423.637 792.455 420.753 798.267C410.353 812.797 390.345 828.238 374.867 836.381C367.654 840.178 360.031 843.139 352.147 845.207C328.617 851.348 297.242 851.111 275.167 839.479C265.355 834.308 266.945 825.48 267.695 816.016C268.96 800.075 273.661 784.514 286.501 774.11C291.434 770.112 295.702 769.023 301.006 765.899C302.551 764.909 308.627 756.232 310.892 754.17C317.845 747.836 326.455 740.406 332.417 733.206C332.528 733.021 332.638 732.836 332.748 732.652C327.324 730.974 322.972 728.686 320 723.594C315.71 716.243 317.739 705.196 325.774 701.371C328.874 699.926 332.431 699.819 335.613 701.074C342.472 703.776 345.446 710.277 348.173 716.491C353.576 712.445 355.565 712.207 362.037 711.351C366.393 701.876 374.313 681.607 382.573 676.142C385.47 675.797 386.362 675.707 389.25 675.933C404.982 650.479 423.571 631.449 447.264 613.376L445.212 609.925C431.012 610.31 416.672 611.064 402.55 609.493C408.824 607.497 435.435 607.542 443.596 607.176C442.796 593.286 446.992 591.951 457.641 585.544C456.146 585.544 454.434 585.549 452.951 585.439C449.466 585.173 446.248 583.471 444.068 580.739C437.85 572.896 442.435 562.922 449.534 557.453C447.897 549.528 446.397 542.245 444.518 534.339C436.243 535.273 401.763 542.045 395.806 537.846C398.109 536.54 407.286 536.534 410.418 536.246C421.292 535.247 433.095 533.804 443.696 531.284C442.436 525.922 441.223 520.549 440.056 515.166C419.052 520.638 389.341 524.304 367.745 523.154C355.846 522.345 337.182 519.722 329.171 509.713C314.575 491.476 340.367 464.632 353.762 454.035C339.894 454.3 315.15 456.959 304.741 466.932C308.187 474.66 310.104 480.133 305.469 487.953C323.817 511.281 330.11 537.067 299.661 553.034C299.371 557.016 298.494 560.14 296.754 563.65C290.561 576.145 277.566 585.87 263.064 581.318C258.082 579.754 255.133 577.392 251.089 574.295C235.572 579.689 226.953 575.366 217.692 562.827C192.727 556.29 192.282 528.191 201.684 508.77C211.026 489.471 223.395 476.134 243.756 468.762C245.317 450.143 260.725 448.457 275.858 449.858C300.467 426.02 339.894 422.613 372.443 426.682C377.898 427.363 383.37 428.591 388.846 429.035L389.396 429.075C392.049 427.316 398.653 422.686 401.715 423.23C400.984 425.839 395.725 428.507 393.311 429.989C401.695 431.64 416.087 436.233 423.986 439.254C423.721 437.637 423.495 435.26 422.335 434.244C418.25 430.666 412.977 427.745 408.7 424.483C398.156 416.441 391.273 408.48 383.742 397.918C357.874 404.565 331.887 400.443 342.69 366.569C340.714 362.511 338.735 358.571 337.06 354.374C335.656 356.924 332.964 365.668 331.25 366.422L330.689 365.758C329.991 361.211 333.495 355.119 335.677 351.192C334.52 347.718 333.311 344.261 332.049 340.824C329.966 343.981 327.625 351.548 325.506 352.591C323.571 348.492 328.984 340.457 331.394 337.153ZM431.434 475.604C430.28 472.563 429.235 472.491 425.906 471.039C419.918 468.427 413.438 465.893 407.141 464.176C398.108 470.154 389.52 477.147 382.774 485.805C381.053 488.013 377.094 495.431 375.682 496.659L375.064 496.269C373.183 487.349 396.92 468.024 403.86 463.063C395.207 460.377 387.69 458.079 378.751 456.472C312.647 506.656 366.409 507.325 413.829 499.51C421.114 498.31 428.429 497.099 435.605 495.225C434.271 488.673 432.881 482.132 431.434 475.604ZM540.603 454.624C540.36 457.556 540.059 460.624 539.884 463.55C557.248 456.429 574.311 448.506 590.583 439.139C591.681 438.507 593.752 437.964 595.011 438.269C592.99 442.875 561.448 457.187 555.75 459.857C550.636 462.037 544.756 464.695 539.574 466.537C539.202 471.143 538.623 476.554 538.445 481.109C572.156 467.892 613.579 447.811 642.585 425.825C627.919 418.795 615.662 418.445 599.7 417.175C597.212 417.962 580.34 431.72 575.822 434.582C563.71 442.256 553.882 448.682 540.603 454.624ZM596.169 378.665C585.128 380.444 574.064 382.165 563.192 384.824C559.692 392.227 557.187 397.288 552.684 404.299C550.611 407.527 545.258 414.893 543.947 417.785L544.254 418.368L544.759 418.389C566.02 405.436 577.738 396.161 596.591 379.242L596.681 378.67L596.169 378.665ZM645.2 374.002C640.88 377.721 637.074 382.493 632.994 386.419C623.655 395.406 612.318 407.193 601.843 414.824C613.619 415.571 622.305 416.364 633.87 419.435C638.025 420.84 641.11 421.882 644.929 424.086C654.376 416.498 668.665 403.343 670.585 390.723C672.79 376.231 655.005 374.618 645.2 374.002ZM439.708 512.34C438.552 507.491 437.467 502.625 436.453 497.744C418.548 502.438 368.737 510.832 351.746 501.455C348.532 499.681 347.276 497.787 345.544 494.77C345.119 485.725 348.313 481.099 354.306 474.447C358.849 469.404 369.678 459.817 375.455 456.036C368.751 454.898 364.504 454.748 357.936 453.998C325.992 479.525 306.834 515.486 364.6 520.25C386.777 522.079 418.339 518.636 439.708 512.34Z"/><path fill="#AEAEB1" d="M519.775 271.692C526.304 270.864 536.181 271.426 542.603 272.167C571.316 307.017 576.888 363.075 551.742 401.17C549.517 405.249 542.606 412.596 541.711 416.963C538.671 431.789 538.623 449.65 536.998 464.574C504.873 476.819 471.934 486.809 438.42 494.472C436.844 488.607 435.435 481.84 434.058 475.865C440.529 479.099 442.236 480.162 449.401 479.33C452.077 477.965 455.433 475.881 456.76 473.022C466.127 452.844 439.698 446.777 426.818 439.826C426.234 437.527 425.854 435.115 425.436 432.773C421.44 429.542 415.665 426.386 411.166 423.082C394.465 410.819 383.731 396.436 376.371 377.096C379.877 367.255 391.658 350.721 398.358 342.378C428.206 305.217 471.824 277.034 519.775 271.692Z"/><path fill="#010000" d="M455.262 364.606C458.732 364.286 474.216 371.862 478.182 373.898C499.527 384.856 527.969 387.955 548.489 373.579C550.142 372.421 554.072 368.717 555.579 368.284L555.922 369.163C554.633 377.494 535.63 383.19 528.454 384.732C525.584 391.755 524.242 396.567 524.31 404.084L529.649 401.455C530.853 400.952 530.771 400.992 532.082 401.077L532.389 401.69C531.52 403.538 528.409 405.178 526.644 406.241C516.892 412.139 506.034 415.972 494.741 417.502C471.809 420.445 451.383 411.557 443.078 388.713C441.388 384.064 441 379.503 440.424 374.631C438.645 376.486 436.46 380.034 434.791 382.309L433.871 382.167L433.311 381.227C433.683 372.685 447.949 365.848 455.262 364.606Z"/><path fill="#FEFEFE" d="M452.238 368.131C462.953 366.801 476.535 377.701 488.192 381.198C503.162 385.688 509.252 387.079 524.957 385.354C523.869 389.098 523.049 391.468 521.604 395.091C518.534 395.652 511.919 396.575 509.551 398.362C512.001 399.753 518.584 398.684 521.433 398.327L521.34 405.457C510.592 412.356 498.92 414.531 486.425 415.428C478.099 415.228 470.995 414.007 463.717 409.743C454.314 404.269 447.528 395.222 444.906 384.664C452.825 389.409 467.823 397.283 477.185 396.356L477.472 395.769C475.017 393.094 465.722 391.28 461.762 389.915C458.752 388.859 455.808 387.624 452.946 386.216C447.799 383.717 441.225 379.605 444.642 372.331C445.731 370.012 449.853 368.909 452.238 368.131Z"/><path fill="#010000" d="M495.416 303.374C498.572 304.819 501.109 310.281 500.971 313.578C500.701 320.063 498.527 322.051 492.526 321.986C495.773 335.835 496.438 348.558 485.159 358.944C486.389 360.756 488.13 363.029 487.896 365.222C487.085 365.752 486.777 366.085 485.831 364.935C482.826 361.282 480.559 358.634 476.539 356.043C470.484 352.201 463.595 349.867 456.452 349.238C453.961 349.028 450.712 349.231 448.44 348.756L448.134 347.775L448.85 346.884C452.967 345.353 460.809 346.818 465.046 347.875L462.751 340.603C465.041 338.624 466.147 338.002 468.689 336.503L475.619 332.641C470.86 330.511 465.915 328.897 461.239 326.512C462.053 319.179 463.02 315.057 467.399 309.001C448.779 303.538 449.483 312.822 442.649 313.638L442.188 313.005C442.274 312.657 442.475 311.725 442.679 311.501C457.279 295.41 477.043 310.798 491.781 317.874C493.54 318.719 495.644 318.96 497.363 318.157C500.605 313.286 494.208 308.109 495.416 303.374Z"/><path fill="#010000" d="M541.393 292.59C543.906 292.482 547.314 292.773 548.734 295.133L548.375 295.995C540.445 298.082 542.611 291.76 532.195 300.475L532.648 300.645C540.521 303.66 544.273 308.666 547.567 316.008L537.862 325.751C542.114 326.31 546.663 327.108 550.927 327.773C551.05 332.893 550.738 337.114 550.389 342.196C553.137 341.623 559.46 339.822 561.134 342.524C559.55 343.563 553.562 344.406 551.39 345.06C544.553 347.119 539.073 351.616 534.735 356.977C533.829 358.345 533.615 358.971 532.097 359.573L531.564 358.959C532.01 355.186 532.71 354.738 534.981 351.755C533.075 350.723 530.615 349.228 529.014 347.716C522.449 341.515 519.158 330.968 518.56 322.181C518.445 320.478 518.75 320.771 518.133 318.904C516.62 319.07 514.247 319.403 512.788 319.293C507.569 318.898 505.997 306.889 509.816 304.34C511.377 306.934 509.566 312.351 512.361 316.245C513.235 316.612 514.149 317.061 515.059 316.328C525.702 307.761 526.188 296.128 541.393 292.59Z"/><path fill="#010000" d="M517.028 421.386L518.08 421.973L518.228 423.33C510.982 429.206 500.886 431.335 491.804 429.657C490.658 429.057 491.018 429.359 490.281 428.296C491.035 427.019 493.548 427.339 495.047 427.433C504.252 428.01 509.126 425.55 517.028 421.386Z"/><path fill="#010000" d="M439.167 347.394L439.568 347.547C440.668 348.909 440.493 348.183 440.339 349.733C438.785 351.427 436.551 352.46 434.504 353.61L433.48 353.221L433.1 352.289C434.248 349.779 436.794 348.627 439.167 347.394Z"/><path fill="#F0772F" d="M353.661 217.399C368.331 196.605 393.986 181.445 418.716 176.644C452.203 170.143 478.419 189.838 496.714 215.973C500.596 221.519 504.907 228.537 509.833 233.154C504.393 218.703 488.727 200.214 477.017 189.873C504.257 194.083 528.819 208.649 545.578 230.532C486.711 245.732 426.047 276.529 381.12 317.826C368.344 329.569 356.067 342.339 347.214 357.367C346.158 359.166 345.121 360.975 344.102 362.795C342.089 359.159 340.152 355.603 338.93 351.603C346.408 339.096 351.788 332.088 362.76 322.017C369.19 316.115 377.969 308.699 383.744 302.37C373.854 305.948 357.237 322.428 350.301 330.487C346.593 334.796 341.137 342.59 337.77 347.416C336.433 344.173 335.276 341.563 334.408 338.155C337.191 331.772 341.468 329.005 344.036 322.958C338.628 326.228 337.046 327.862 333.074 332.854C327.786 310.745 327.268 291.757 333.531 269.777C343.158 235.992 380.195 207.824 415.727 221.837L415.72 218.791C383.799 209.251 360.78 222.046 341.11 246.88C342.62 239.646 344.503 232.31 349.476 226.594C377.786 194.051 413.963 194.865 444.372 223.226L444.121 220.869C442.91 219.467 442.411 218.802 441.542 217.173C435.798 211.079 422.664 204.365 414.608 201.865C390.757 194.465 372.36 203.291 353.661 217.399Z"/><defs><linearGradient id="gradient_0" gradientUnits="userSpaceOnUse" x1="439.13641" y1="231.52458" x2="435.07159" y2="236.49753"><stop offset="0" stop-color="#0F0504"/><stop offset="1" stop-color="#300B0B"/></linearGradient></defs><path fill="url(#gradient_0)" d="M415.72 218.791C430.183 222.863 452.206 238.148 459.511 251.218L459.737 251.628C454.765 248.519 450.709 244.316 446.341 240.415C438.472 233.385 426.108 224.573 415.727 221.837L415.72 218.791Z"/><defs><linearGradient id="gradient_1" gradientUnits="userSpaceOnUse" x1="455.38708" y1="232.19452" x2="453.40494" y2="233.70279"><stop offset="0" stop-color="#1F0907"/><stop offset="1" stop-color="#020000"/></linearGradient></defs><path fill="url(#gradient_1)" d="M441.542 217.173C450.901 224.278 462.168 237.58 466.27 248.796C458.922 241.629 453.432 232.119 444.372 223.226L444.121 220.869C442.91 219.467 442.411 218.802 441.542 217.173Z"/><path fill="#FEFEFE" d="M264.371 452.147C266.944 451.887 270.022 451.904 272.652 452.053C286.648 452.847 306.067 464.522 305.51 480.215C305.447 482.008 304.44 484.654 303.791 486.405C299.301 482.4 288.549 472.894 282.152 473.802L281.722 474.399C285.374 476.843 289.127 479.134 292.906 481.461C312.141 493.307 329.468 525.157 308.963 543.854C306.062 546.499 303.181 548.247 299.833 550.277C296.7 543.631 292.018 540.137 286.667 535.257C288.565 533.049 292.013 529.424 292.541 526.622L291.718 526.601C289.454 527.874 277.571 538.012 275.858 539.913C278.271 544.778 279.093 551.516 280.894 557.177C282.554 549.572 281.84 547.047 279.84 539.61C281.2 538.633 282.93 537.604 284.365 536.695C287.514 539.891 290.97 542.302 293.941 545.804C302.198 555.533 291.539 569.609 283.341 575.775C265.734 586.39 251.489 575.156 245.036 558.723C243.73 555.396 242.091 549.604 240.241 546.829L239.781 547.041C238.508 554.88 245.035 565.914 249.129 572.166C221.641 584.669 216.055 545.679 212.65 543.763C211.349 548.172 214.469 555.548 216.056 559.984C210.616 557.99 205.531 553.774 202.825 548.881C186.975 520.21 219.273 476.639 247.872 470.274C250.942 469.591 263.967 468.552 264.723 468.092L264.204 467.267C259.575 465.551 251.013 466.844 246.28 467.681C248.312 457.078 254.176 453.699 264.371 452.147Z"/><path fill="#010000" d="M240.541 478.273C241.556 478.437 241.042 478.246 242.026 478.975C241.58 481.015 234.092 489.673 232.181 492.486C228.534 497.859 225.415 503.173 221.997 508.668L221.437 508.92L221.055 508.284C222.412 499.337 233.852 484.061 240.541 478.273Z"/><path fill="#010000" d="M256.908 476.86C257.34 477.274 257.064 476.964 257.516 477.945C256.879 480.195 254.294 483.837 252.925 485.918C247.916 493.534 244.014 501.601 239.558 509.539C239.052 509.114 239.218 509.118 238.934 508.304C239.908 500.174 250.614 482.289 256.908 476.86Z"/><path fill="#010000" d="M269.778 481.864L270.353 482.728C270.064 484.972 259.126 509.358 257.558 511.67L256.93 511.243C256.149 505.005 265.316 486.633 269.778 481.864Z"/><path fill="#FEFEFE" d="M691.055 287.617C702.287 282.523 699.854 278.524 703.719 276.056C705.25 277.659 705.869 282.653 707.004 284.949C712.99 297.06 735.3 292.488 738.769 280.942C737.031 280.263 731.781 285.852 729.344 287.242C727.136 288.478 724.692 289.233 722.171 289.455C703.104 291.161 705.536 268.888 716.262 259.974C721.666 255.483 725.868 251.32 733.663 251.484C737.624 251.534 741.382 253.245 744.02 256.2C748.412 261.133 748.764 267.031 748.496 273.185C743.899 300.14 715.957 335.543 685.291 326.836C682.759 326.117 674.964 322.391 673.685 322.766L673.908 323.779C678.932 329.133 686.194 330.258 693.133 331.24C691.359 342.013 686.366 344.661 675.262 343.371C660.373 341.643 625.564 313.662 647.663 300.122C653.166 307.937 656.303 312.851 665.349 316.459C658.225 307.191 651.087 303.761 646.879 291.398C641.316 275.058 644.315 254.573 665.199 251.669C672.976 251.814 693.447 260.412 697.956 266.519C699.773 268.939 700.492 272.01 699.939 274.985C697.762 286.299 682.135 287.201 674.067 282.45C672.191 281.346 668.009 279.204 666.061 278.745L665.623 279.194C665.747 280.169 665.664 280.571 666.569 281.34C673.483 287.212 680.061 287.746 688.318 288.123C688.557 292.06 687.443 302.906 688.349 304.54C691.9 301.65 691.49 291.911 691.055 287.617Z"/><path fill="#F0772F" d="M582.417 227.729C584.256 227.792 589.374 228.011 590.911 228.383C624.321 236.46 569.646 284.627 559.385 293.569C556.878 289.192 555.09 285.879 552.903 281.321C555.037 278.318 556.728 275.838 558.072 272.349C559.471 268.715 560.499 264.68 558.908 260.936C557.776 258.273 554.476 256.035 551.875 255.266C531.807 249.339 490.916 264.366 472.778 272.575C434.97 289.687 396.281 315.71 371.299 349.136C365.265 357.21 360.414 364.348 356.86 373.831C351.843 391.409 365.018 393.099 378.513 389.553C379.671 391.481 380.8 393.761 381.855 395.774C368.361 399.524 343.943 402.052 342.454 381.486C341.419 367.188 355.283 348.43 364.55 338.368C407.444 291.791 465.36 258.731 525.276 239.358C543.827 233.416 563.034 228.671 582.417 227.729Z"/><path fill="#AEAEB1" d="M525.64 597.606C526.377 597.642 525.968 597.543 526.798 598.11C526.605 607.211 525.288 617.116 524.616 626.296C523.455 642.173 523.137 658.145 519.501 673.688C513.995 697.222 497.903 718.352 479.9 688.221C475.582 679.617 469.368 646.996 468.179 636.35C480.025 628.951 490.659 620.353 478.846 606.492C494.265 603.179 509.441 601.237 525.64 597.606Z"/><path fill="#FEFEFE" d="M311.453 767.702C328.214 766.984 345.168 775.123 355.207 788.366C362.317 797.745 365.35 806.224 367.82 817.463C353.417 823.348 343.335 825.607 328.125 826.965C325.92 827.109 323.712 827.213 321.503 827.277C305.805 827.616 282.71 824.504 270.874 813.076C271.229 788.885 287.047 769.972 311.453 767.702Z"/><path fill="#FEFEFE" d="M673.866 753.188L674.612 753.162C703.148 752.256 715.364 779.056 716.038 803.859C701.378 809.707 686.179 811.321 670.572 811.641C654.4 811.595 643.125 810.374 627.359 806.823C628.082 778.538 645.087 756.39 673.866 753.188Z"/><path fill="#F0772F" d="M564.266 715.869C565.11 716.708 567.176 721.722 568.712 723.659C576.142 733.033 582.897 734.288 593.75 735.481C600.72 761.204 608.502 766.967 630.989 779.87C626.53 790.66 625.949 794.745 624.305 806.125L618.307 804.511C596.236 797.508 567.384 785.749 550.03 770.076C550.807 754.004 556.922 730.17 564.266 715.869Z"/><path fill="#AEAEB1" d="M534.528 486.037L534.776 486.232C535.636 488.636 532.612 519.41 532.315 524.685L452.245 556.426C450.284 549.149 448.724 541.139 447.146 533.719C464.025 529.08 473.479 526.902 490.366 520.637C492.899 519.621 502.442 516.104 503.285 513.608C499.723 513.533 476.853 522.263 471.091 524.049C462.966 526.6 454.724 528.764 446.393 530.534C445.147 525.413 444.097 520.011 443.012 514.836C475.894 506.687 502.931 497.755 534.528 486.037Z"/><path fill="#FEFEFE" d="M548.895 773.271C556.369 778.472 563.605 783.544 571.594 787.979C608.058 808.223 651.078 818.739 692.698 812.611C701.52 811.312 708.242 809.397 716.728 807.019C717.481 811.861 718.769 818.734 714.577 822.006C669.774 841.137 606.644 824.071 565.865 801C559.073 797.158 551.329 792.778 545.921 787.156C546.33 781.541 546.901 778.477 548.895 773.271Z"/><path fill="#FEFEFE" d="M418.683 784.348C419.764 785.759 419.801 787.684 419.775 789.604C419.673 797.112 415.697 801.446 410.786 806.283C385.245 831.441 357.709 846.709 320.821 846.678C306.148 846.665 282.518 844.175 271.695 833.484C269.277 828.823 269.986 822.31 270.422 817.204C287.241 827.224 302.83 830.489 322.5 829.919C361.41 828.79 392.341 812.25 418.683 784.348Z"/><path fill="#F0772F" d="M416.882 737.92C419.645 741.556 419.889 775.309 417.643 779.428C409.079 795.134 386.361 808.562 370.615 816.291L369.069 810.945C367.139 804.066 364.726 799.178 361.733 792.717C370.635 785.017 379.239 774.304 384.31 763.7C385.341 762.364 388.503 749.768 389.304 749.613C402.402 747.081 406.877 748.037 416.882 737.92Z"/><path fill="#AEAEB1" d="M533.932 527.045C547.453 526.781 546.174 544.697 539.048 548.181C527.785 553.688 514.717 558.402 502.986 563.145L473.981 574.927C467.766 577.453 460.86 580.5 454.52 582.434C444.69 582.577 442.461 574.49 445.439 566.044C445.986 564.491 448.225 561.503 449.761 560.754C460.286 555.614 471.609 551.899 482.44 547.397C499.45 541.003 516.998 533.024 533.932 527.045Z"/><path fill="#AEAEB1" d="M540.028 562.571C543.374 562.325 543.802 564.29 544.37 567.251C547.315 582.599 528.156 585.352 517.168 590.391C511.032 593.204 495.69 600.048 488.926 601.428C478.042 603.649 461.913 605.452 450.622 606.317C449.644 606.43 448.496 606.412 447.495 606.432C444.821 604.511 446.454 598.11 447.942 595.989C452.444 589.708 464.528 586.841 471.425 583.714C493.493 573.711 516.748 569.35 540.028 562.571Z"/><path fill="#FEFEFE" d="M680.647 203.571C694.191 202.243 704.804 209.169 706.747 222.974C699.304 227.487 693.242 232.124 688.624 239.85C687.253 242.144 686.207 245.457 684.799 247.686L684.359 248.37C683.508 248.81 682.642 249.22 681.762 249.598C677.555 251.359 670.174 250.594 666.214 248.771C655.765 243.961 660.006 226.059 664.122 218.359C668.23 210.675 672.65 206.188 680.647 203.571Z"/><path fill="#AEAEB1" d="M536.391 468.06C536.938 471.318 535.916 478.891 535.497 482.218C509.79 492.416 483.499 501.075 456.764 508.148C454.187 508.817 444.747 511.37 442.475 511.427L441.865 510.371C440.723 506.347 439.855 501.657 438.99 497.52C472.034 489.722 504.564 479.883 536.391 468.06Z"/><path fill="#FEFEFE" d="M712.296 224.089C722.343 222.836 729.622 229.161 731.913 238.743C732.7 242.032 732.517 244.658 732.448 248.021C719.574 251.347 711.556 258.765 706.015 270.753C705.825 271.221 705.224 271.737 704.822 272.16C702.055 271.846 702.836 269.302 701.363 266.364C699.027 261.706 691.86 258.437 687.324 255.739C687.364 241.232 698.81 228.3 712.296 224.089Z"/><path fill="#FEFEFE" d="M599.579 671.417L602.741 674.465C599.287 685.118 593.533 693.033 591.823 704.972C597.33 697.197 601.016 684.993 605.068 675.918C607.186 676.784 609.112 677.727 611.17 678.714C608.57 686.31 601.735 698.692 601.621 705.875L602.054 705.924C606.408 698.974 609.994 687.587 613.824 679.648L620.833 681.079C618.357 688.919 614.386 697.763 611.488 705.824C605.065 711.145 600.237 705.631 593.171 710.777C583.633 717.722 592.371 730.054 592.208 731.961C586.298 732.649 579.882 722.067 581.436 716.834C585.937 701.677 593.476 686.093 599.579 671.417Z"/><path fill="#F0772F" d="M596.797 735.636C605.475 738.408 610.854 738.041 619.87 737.982C615.862 741.118 605.213 746.136 607.734 752.242C611.464 761.276 620.883 749.185 626.944 748.175C628.732 748.648 628.009 748.192 629.212 749.55C628.773 751.866 614.489 759.426 619.582 766.093C622.546 769.973 627.772 766.134 630.051 763.855C632.445 761.599 634.159 760.422 636.84 758.524L643.793 762.771C638.843 768.115 636.292 770.812 632.597 777.029C615.905 769.746 598.403 755.107 596.797 735.636Z"/><path fill="#F0772F" d="M368.033 767.845C371.335 770.283 374.344 771.615 377.074 767.474C382.395 759.403 365.831 755.044 365.114 749.37C365.966 747.658 365.33 748.182 366.895 747.537C373.643 749.808 378.641 750.221 385.791 749.945C381.721 766.401 373.474 779.458 359.882 789.821C356.152 785.309 352.869 780.989 348.215 777.421C346.297 775.951 345.698 775.898 345.344 774.094C346.103 772.653 345.977 772.636 347.396 771.902C352.696 773.065 358.334 785.292 364.881 782.814C367.112 781.969 368.629 776.369 367.017 774.358C366.018 773.112 364.707 771.911 363.465 770.822C362.919 770.546 355.459 764.616 353.55 763.384L358.428 758.315C362.797 760.903 364.858 763.932 368.033 767.845Z"/><path fill="#FEFEFE" d="M418.636 698.273L418.816 698.369C418.874 698.655 418.932 698.941 418.991 699.227C414.176 707.893 404.177 731.359 399.624 738.27C400.605 728.644 398.395 725.879 389.99 722.267L395.722 709.625C397.26 705.992 399.21 702.003 400.877 698.385C403.634 698.458 406.256 698.844 408.99 699.182C407.459 703.057 399.071 719.563 400.322 722.624C402.904 720.467 409.987 703.548 412.048 699.105C414.094 698.731 416.541 698.514 418.636 698.273Z"/><path fill="#FEFEFE" d="M602.224 710.651C608.452 709.889 624.067 718.845 625.718 724.865L625.134 725.461C620.607 725.047 615.449 719.802 610.92 717.743C597.093 711.458 590.829 723.222 605.606 728.714C613.515 730.95 618.191 728.978 625.354 729.957C625.933 731.163 625.831 731.154 625.768 732.521C624.48 734.032 621.052 734.246 618.537 734.913C605.893 738.265 584.902 730.866 593.205 714.809C594.59 712.129 598.897 710.983 602.224 710.651Z"/><path fill="#FEFEFE" d="M380.797 724.657C386.776 724.076 395.772 724.949 396.734 731.475C399.753 751.967 372.462 749.815 361.292 741.748C359.761 740.642 358.865 740.088 358.593 738.53C361.647 737.69 364.917 739.477 367.85 740.716C375.128 742.527 389.346 745.348 391.652 734.783C391.822 734.003 391.488 732.176 390.718 731.772C381.768 727.079 370.463 732.044 361.363 733.95C360.458 734.139 360.68 734.006 359.94 733.423C361.465 728.043 375.932 725.366 380.797 724.657Z"/><path fill="#FEFEFE" d="M328.074 702.577C338.317 701.359 342.732 709.096 346.013 717.617C347.095 720.425 349.157 726.091 346.233 728.043L345.333 727.836C343.534 723.469 336.719 704.158 328.851 709.259C326.797 710.591 326.258 713.899 326.063 716.233C328.599 725.943 335.668 726.568 342.289 732.056L342.362 733.001C341.063 734.167 341.808 733.764 339.979 734.112C329.454 729.843 316.378 724.365 321.007 709.747C322.176 706.056 324.746 704.281 328.074 702.577Z"/><path fill="#FEFEFE" d="M655.747 700.547C663.575 700.044 667.261 704.084 666.814 711.86C666.322 720.43 649.465 729.821 641.908 729.09L641.195 728.134C641.258 727.681 641.321 727.229 641.384 726.776C644.33 724.704 649.811 723.277 652.875 721.471C655.592 719.87 656.858 718.681 658.688 716.982C659.872 715.223 663.483 708.321 660.109 707.241C651.228 704.401 642.666 717.396 638.883 723.565L636.326 720.421C641.997 711.31 645.545 704.635 655.747 700.547Z"/><path fill="#FEFEFE" d="M355.995 714.618C365.654 713.114 374.418 716.142 381.76 722.321C377.373 722.619 374.952 723.215 370.683 724.243C365.772 725.973 363.153 726.877 358.564 729.318L350.842 725.644L350.515 719.472C352.427 716.978 353.357 716.278 355.995 714.618Z"/><path fill="#F0772F" d="M610.714 709.888C617.148 705.933 624.665 704.284 632.099 705.924C641.747 709.734 638.043 712.847 634.051 719.626L628.249 720.911C624.366 718.412 621.631 716.324 617.974 713.467C615.897 712.255 612.94 710.949 610.714 709.888Z"/><path fill="#CD541F" d="M610.714 709.888C617.148 705.933 624.665 704.284 632.099 705.924C626.266 706.154 619.869 707.136 617.974 713.467C615.897 712.255 612.94 710.949 610.714 709.888Z"/><path fill="#FEFEFE" d="M314.824 753.369C332.871 753.908 348.865 760.853 361.779 773.411L359.242 777.756C346.264 767.504 334.965 759.318 317.533 757.748C315.898 757.601 314.501 757.467 313.407 756.193C313.419 754.478 313.397 755.038 314.824 753.369Z"/><path fill="#F0772F" d="M578.288 702.575L583.712 702.215C578.218 714.731 575.811 718.441 583.188 730.878L578.433 729.147C566.164 720.803 561.315 708.559 578.288 702.575Z"/><path fill="#FEFEFE" d="M658.78 742.193C661.151 742.304 663.186 742.647 664.873 744.474C664.842 744.788 664.812 745.101 664.781 745.414C662.006 746.363 654.796 747.681 652.245 748.469C641.45 751.804 634.762 756.399 626.32 763.493C625.332 764.368 624.916 764.397 623.673 764.925C622.204 764.559 622.777 764.959 621.947 763.617C621.226 752.818 650.053 743.193 658.78 742.193Z"/><path fill="#FEFEFE" d="M641.009 735.183C644.673 734.736 651.562 733.812 653.795 737.086C652.983 738.825 649.987 738.802 647.819 738.936C637.519 739.568 628.798 743.303 619.851 748.387C617.201 750.252 614.141 753.146 610.913 751.366C609.583 742.447 634.174 736.05 641.009 735.183Z"/><path fill="#FEFEFE" d="M327.766 742.072C341.356 742.769 354.201 746.543 365.496 754.543C367.925 756.263 371.309 758.814 371.721 761.705C370.704 763.318 371.033 763.446 369.684 763.755C362.264 756.677 353.722 752.755 344.261 749.168C339.495 747.361 326.634 746.823 324.804 744.826C325.379 743.39 326.435 742.948 327.766 742.072Z"/><path fill="#F0772F" d="M412.399 718.706C414.103 719.515 417.338 722.925 417.71 724.751C419.7 734.508 409.46 741.936 401.752 744.658C399.504 744.986 398.531 745.295 396.361 744.842C396.608 743.754 401.88 740.34 403.229 738.004C406.768 731.874 409.171 725.029 412.399 718.706Z"/><path fill="#FEFEFE" d="M391.259 695.208C393.821 695.755 395.981 696.737 398.41 697.713C394.716 705.837 391.074 713.984 387.485 722.155C384.344 722.113 383.137 719.574 380.735 717.467C384.122 709.991 387.63 702.57 391.259 695.208Z"/><path fill="#FEFEFE" d="M383.702 689.186C386.245 690.645 387.1 691.543 389.195 693.495C387.636 697.39 380.397 712.923 378.369 716.258L371.662 713.327C375.548 705.116 379.279 697.129 383.702 689.186Z"/><path fill="#FEFEFE" d="M625.315 681.228C627.299 681.13 628.062 681.099 630.021 681.301L630.474 682.073C629.198 687.468 625.273 697.09 623.064 702.602C622.671 703.585 620.727 703.489 619.384 703.647C617.576 703.98 616.889 704.059 615.051 704.169C615.493 700.701 621.612 686.719 623.24 682.459C623.662 681.356 624.303 681.468 625.315 681.228Z"/><path fill="#FEFEFE" d="M350.261 761.611C347.06 758.766 338.173 755.259 333.951 753.983C331.763 753.322 328.213 752.921 326.483 751.74C327.065 750.241 327.433 750.233 328.754 749.086C334.918 747.788 349.65 753.624 355.474 756.942C357.127 757.371 357.032 757.329 358.428 758.315L353.55 763.384C351.3 762.697 351.195 763.105 350.261 761.611Z"/><path fill="#22130E" d="M355.474 756.942C357.127 757.371 357.032 757.329 358.428 758.315L353.55 763.384C351.3 762.697 351.195 763.105 350.261 761.611L351.738 761.464C353.586 760.324 354.284 758.805 355.474 756.942Z"/><path fill="#FEFEFE" d="M379.649 682.34C380.682 683.657 381.092 685.497 381.6 687.138C379.247 692.059 371.384 709.624 368.925 712.588L367.861 712.637C366.419 712.318 366.126 712.349 364.85 711.569C365.093 707.793 376.846 686.494 379.649 682.34Z"/><path fill="#AEAEB1" d="M530.368 555.599L530.652 555.861L530.662 556.602C527.12 559.452 490.6 572.887 484.354 575.428C479.93 577.228 464.163 583.718 459.699 585.248L459.299 584.623C460.721 582.895 523.735 557.679 530.368 555.599Z"/><path fill="#FEFEFE" d="M316.668 760.372C323.613 760.546 338.958 765.376 343.938 769.619C344.127 771.144 343.491 771.415 342.415 773.106C331.244 767.406 326.37 765.913 314 764.794L316.668 760.372Z"/><path fill="#FEFEFE" d="M661.003 749.143C662.344 749.257 664.377 750.437 664.896 751.731L664.343 752.232C654.791 753.905 651.812 758.566 645.702 760.938C643.587 759.634 641.537 758.134 639.502 756.7C646.839 753.208 652.942 750.269 661.003 749.143Z"/><path fill="#FEFEFE" d="M638.568 679.084L638.949 679.715C638.538 682.492 631.769 701.442 630.055 703.297L627.097 703.24C626.334 702.877 626.65 703.167 626.246 702.276C627.186 697.647 632.243 685.915 634.115 681.032C634.532 679.944 637.298 679.418 638.568 679.084Z"/><path fill="#FEFEFE" d="M330.692 710.698C336.211 711.963 341.108 721.577 341.666 726.862L340.874 727.648C334.523 725.138 324.348 718.184 330.692 710.698Z"/><path fill="#FEFEFE" d="M350.246 728.988C359.258 729.065 358.949 735.828 353.142 740.818C343.676 740.101 342.209 733.378 350.246 728.988Z"/><path fill="#FEFEFE" d="M632.383 722.458C636.391 723.025 639.847 727.136 637.231 730.947C636.148 732.524 633.951 732.883 632.207 733.379L631.019 733.509C627.906 732.201 627.608 727.298 628.566 724.38C629.808 722.99 630.586 722.962 632.383 722.458Z"/><path fill="#FEFEFE" d="M654.99 709.464C656.634 709.315 656.845 709.131 658.273 709.954C659.966 714.943 649.919 720.115 646.306 721.732C644.55 722.228 645.165 722.424 643.919 721.915C643.681 718.151 651.912 711.394 654.99 709.464Z"/><path fill="#FEFEFE" d="M380.535 732.16L381.253 732.653C382.259 741.377 373.184 739.63 368.104 737.872C366.659 737.314 366.03 737.389 365.374 736.35C367.824 733.834 376.926 732.536 380.535 732.16Z"/><path fill="#AEAEB1" d="M526.535 589.46C527.032 589.561 526.699 589.463 527.447 589.961C527.512 592.169 527.836 591.829 526.883 593.433C522.663 596.1 512.838 597.396 507.61 598.375L506.879 598.283C507.626 597.14 523.838 590.596 526.535 589.46Z"/><path fill="#F0772F" d="M608.248 719.786C610.586 720.735 619.066 724.906 619.659 727.048C614.524 727.355 612.333 727.268 607.339 726.264L608.248 719.786Z"/><path fill="#FEFEFE" d="M646.446 741.657L647.88 741.787C646.835 742.587 634.293 747.525 631.769 748.748L629.743 746.628C631.946 744.077 643.076 742.227 646.446 741.657Z"/><path fill="#FEFEFE" d="M356.05 741.972C357.854 742.658 361.582 744.801 362.988 746.227C362.84 747.694 363.015 746.975 361.509 748.375L360.353 748.132C357.583 746.8 355.598 746.105 352.709 745.084L352.245 743.951L352.417 744.954L352.179 744L351.921 744.006C353.414 743.099 354.44 742.676 356.05 741.972Z"/><path fill="#FEFEFE" d="M384.381 732.655C386.725 733.106 387.81 733.02 388.567 735.435C388.148 737.253 387.625 737.541 386.298 738.842C384.03 739.319 384.171 739.712 382.703 738.844C382.378 737.063 383.675 734.479 384.381 732.655Z"/><path fill="#F0772F" d="M310.494 758.82L312.621 759.969C313.401 761.429 313.287 760.662 312.851 762.361C311.37 764.127 311.29 764.152 309.223 765.127C307.803 765.109 307.276 765.28 306.138 764.488L306.066 763.468C307.07 761.651 308.913 760.247 310.494 758.82Z"/><path fill="#FEFEFE" d="M602.27 718.344C604.482 718.672 604.158 718.256 605.263 719.558C605.863 722.156 605.03 723.637 603.682 725.937C601.827 724.655 600.346 723.669 600.135 721.278C600.577 719.546 600.904 719.509 602.27 718.344Z"/><path fill="#FEFEFE" d="M419.099 689.351C420.681 690.706 421.125 691.452 420.754 693.449C419.487 695.067 418.762 695.101 416.717 695.823L415.63 695.51L415.243 694.79C415.841 692.765 417.662 691.022 419.099 689.351Z"/><path fill="#AEAEB1" d="M536.233 559.055L536.907 559.2L537.172 559.727C535.466 560.993 525.499 563.575 522.671 564.381L521.994 564.313L522.338 563.858C525.961 562.103 532.308 559.467 536.233 559.055Z"/><path fill="#FEFEFE" d="M383.703 678.364C385.755 678.426 385.7 678.053 386.78 679.129C386.816 680.823 385.17 683.084 384.235 684.666L383.701 684.746C381.788 682.587 381.959 680.49 383.703 678.364Z"/><path fill="#FEFEFE" d="M341.561 736.918C342.68 738.324 344.034 739.77 344.564 741.438L343.397 741.52C341.847 741.211 340.28 741.149 339.255 740.076C339.594 738.466 340.202 738.332 341.561 736.918Z"/><path fill="#FEFEFE" fill-opacity="0.94509804" d="M655.007 362.757C671.005 363.905 694.731 370.623 693.253 390.956C692.875 396.161 691.618 399.728 689.842 404.628C684.043 415.281 679.003 421.521 670.544 430.139L669.176 430.968C662.341 429.265 659.199 420.014 656.056 418.28C662.811 410.732 671.696 401.748 673.31 391.347C675.832 375.09 658.819 372.867 647.572 371.402L655.007 362.757Z"/><path fill="#010000" d="M720.842 505.38L721.333 505.925C721.697 507.871 721.311 508.689 720.496 510.431C712.181 528.213 695.864 542.087 679.507 552.276C675.418 554.822 669.691 558.23 665.237 559.808L664.821 559.206C665.15 557.45 676.333 551.355 678.741 549.763C691.931 541.042 704.524 531.104 713.46 517.848C716.166 513.833 718.223 509.448 720.842 505.38Z"/><path fill="#010000" d="M190.897 496.927C191.328 497.411 191.673 497.574 191.309 498.377C187.734 506.276 184.877 513.916 183.592 522.545C181.986 533.26 183.455 544.212 187.828 554.125C188.812 556.354 191.277 560.963 191.511 562.944L190.853 563.704C181.978 555.209 179.183 535.039 180.721 523.45C181.763 515.597 184.437 502.149 190.897 496.927Z"/><path fill="#010000" d="M694.976 190.645C709.852 189.289 726.078 200.43 734.308 212.128C735.964 214.484 738.172 217.813 737.663 220.678C730.304 213.317 728.53 206.551 717.413 199.484C714.189 197.447 710.706 195.851 707.057 194.74C704.175 193.846 695.8 192.633 694.664 191.704L694.976 190.645Z"/><path fill="#010000" d="M573 209.214C579.629 209.328 596.537 210.76 599.8 217.542C597.47 218.151 589.654 214.152 586.376 213.319C579.378 211.611 571.066 211.592 563.953 212.882C560.891 213.437 558.575 214.677 555.45 214.539L555.066 214.011C557.624 210.176 568.706 209.509 573 209.214Z"/><path fill="#010000" d="M637.379 232.812L637.888 233.303C637.814 235.048 629.645 247.61 628.724 252.913C627.16 261.918 628.611 265.682 628.731 273.699L627.861 274.314C621.034 263.472 627.334 240.255 637.379 232.812Z"/><path fill="#010000" d="M169.503 518.752C171.719 520.666 169.086 532.327 169.892 536.376C171.099 542.437 173.494 547.932 174.895 553.765L174.34 554.649C167.487 547.453 164.545 527.303 169.503 518.752Z"/><path fill="#010000" fill-opacity="0.98431373" d="M689.842 404.628L691.549 402.294L692.147 402.46L692.682 404.025C688.606 412.538 680.17 426.494 671.795 431.271C671.177 430.995 671.063 430.706 670.544 430.139C679.003 421.521 684.043 415.281 689.842 404.628Z"/><path fill="#010000" d="M722.292 190.448C731.668 189.49 740.577 203.489 741.893 211.757C739.046 209.934 735.191 201.303 732.172 198.459C728.993 195.464 725.31 193.381 722.292 190.448Z"/><path fill="#010000" d="M620.726 240.208C621.482 240.536 621.061 240.304 621.93 241.001C621.597 243.719 619.061 247.751 618.25 251.501C617.264 256.066 618.253 261.482 617.387 265.079C612.182 259.872 615.865 245.079 620.726 240.208Z"/><path fill="#010000" d="M573.616 197.14C579.828 196.704 593.577 197.606 595.991 204.551L595.229 204.799C582.853 198.817 585.062 200.048 572.274 198.925L572.121 198.334L573.616 197.14Z"/></svg>