<?xml version="1.0" encoding="utf-8" ?><svg xmlns="http://www.w3.org/2000/svg" xmlns:xlink="http://www.w3.org/1999/xlink" width="1024" height="1024" viewBox="0 0 1024 1024"><path d="M364.379 248.361C366.778 244.37 371.088 239.765 372.652 236.846C375.984 230.425 378.838 223.989 382.373 217.646C399.319 187.236 433.775 166.428 468.486 165.037C478.408 164.639 494.097 165.708 502.926 170.697C509.226 173.612 519.453 180.731 523.834 185.92C531.586 195.102 535.695 194.035 545.017 199.206C556.73 204.685 571.874 219.193 577.937 230.402C579.805 232.66 581.547 235.672 583.126 238.192C597.877 236.695 645.005 232.405 646.37 254.189C647.919 278.897 612.126 300.424 593.647 311.009C602.926 353.597 598.966 398.652 557.029 421.856C556.211 432.674 553.678 451.597 558.132 461.418C560.277 466.15 582.425 459.621 587.333 459.083C598.486 457.861 610.644 454.25 622.088 455.024C635.805 455.949 634.182 474.412 624.726 480.593C612.503 488.583 598.363 488.147 584.833 491.181C589.55 497.768 590.897 500.042 591.242 508.352C604.449 522.547 618.146 530.592 634.697 514.544C636.876 512.47 638.816 510.161 640.484 507.659C636.654 496.134 637.202 487.892 646.496 479.403C639.959 460.51 648.247 458.416 649.379 442.153C650.294 429.011 635.295 406.048 657.318 398.484C667.479 395.001 674.295 400.399 679.682 408.814C686.946 386.913 684.409 376.418 710.516 378.925C713.376 379.199 717.291 378.785 720.323 379.049C725.485 378.959 730.645 378.803 735.803 378.583C738.054 378.543 740.994 378.622 743.169 378.459C788.328 375.066 773.086 396.368 764.136 425.823C779.302 433.8 780.037 448.298 768.008 459.818C774.981 472.608 772.053 482.954 760.368 491.361C768.209 512.645 754.649 522.901 735.895 527.472C734.656 532.057 733.223 541.386 728.618 543.677C724.264 545.842 662.76 541.428 653.205 539.877C630.803 559.951 606.955 557.075 582.957 541.821C576.69 551.219 567.482 554.635 556.645 555.236C554.822 556.488 549.227 559.876 548.289 561.151C552.989 561.768 556.872 562.082 559.949 566.226C565.075 573.131 563.304 584.299 555.823 588.796C552.259 590.939 548.399 592.069 544.624 593.509C544.143 596.414 543.723 599.329 543.367 602.252C573.229 637.096 587.756 658.311 588.162 707.387C590.745 707.033 592.916 706.747 595.54 706.579L593.069 739.126C614.021 735.476 612.164 748.944 613.246 764.515C621.212 763.95 624.194 763.642 628.103 771.387C632.342 771.039 634.11 770.829 638.26 772.284C639.842 774.175 641.648 776.667 643.791 777.759C648.105 779.959 653.169 779.675 657.876 780.747C674.15 784.454 685.833 795.81 691.668 811.255C695.019 820.123 696.993 830.987 696.27 840.483C696.068 843.146 695.164 847.428 694.547 850.067C666.407 861.011 598.691 858.615 568.266 855.269C556.957 854.048 545.724 852.203 534.619 849.743C513.805 845.3 509.021 846.801 515.874 824.167C516.442 819.422 516.089 814.671 516.634 809.91C518.432 794.21 522.072 779.245 528.114 764.611C532.939 752.923 531.145 745.661 546.792 745.993C547.196 740.564 549.457 708.825 551.247 705.897C553.576 705.321 556.078 706.319 558.442 707.006C557.124 683.601 554.124 665.04 539.283 645.57C537.588 657.763 535.951 674.592 533.116 686.156C529.985 698.927 508.715 699.266 498.783 697.505C480.473 695.248 481.882 675.181 478.71 660.783C469.112 677.336 459.619 691.287 446.482 705.315C448.976 707.767 451.843 710.458 454.109 713.069C450.75 716.743 444.802 721.412 440.799 724.731C443.821 729.06 444.273 730.081 444.739 735.553C445.466 738.156 446.146 740.823 447.088 743.35C448.813 744.724 450.493 740.767 452.819 739.079C457.676 735.522 463.195 732.506 469.342 732.235C484.152 731.583 486.051 752.077 476.497 759.78C470.219 764.843 460.305 762.672 452.854 761.728C451.764 762.968 450.649 764.545 449.643 765.881C450.529 767.342 454.71 776.134 455.013 776.408C461.059 781.854 461.101 787.643 465.013 794.297C466.46 796.76 470.192 800.094 472.487 801.789C479.404 806.899 483.653 813.88 486.168 822.004C489.101 831.22 488.5 840.04 488.467 849.517C488.459 851.803 489.418 854.624 488.848 856.744C487.561 861.528 484.723 866.695 482.389 871.063C479.089 872.101 474.134 872.932 470.609 873.24C437.246 876.157 398.932 866.892 372.661 845.768C359.88 834.422 354.367 823.643 342.95 810.213C334.342 800.089 314.369 784.82 310.301 771.284C309.671 769.188 315.811 754.918 317.192 754.059C323.907 749.88 326.149 745.567 331.09 739.292C336.42 732.464 342.098 725.914 348.1 719.667C355.952 711.588 369.219 699.136 381.456 698.644C385.64 698.476 387.823 700.427 390.478 703.235C397.105 697.336 420.74 677.556 427.905 673.83L430.263 678.159C443.367 662.948 457.592 640.509 464.321 621.618C463.475 621.475 462.631 621.322 461.789 621.159C452.36 619.307 449.418 611.158 451.571 602.311C453.493 594.413 459.264 592.834 465.659 589.238C463.257 589.019 459.156 588.702 457.046 587.884C454.605 586.951 452.666 585.04 451.696 582.613C449.512 577.285 450.997 570.475 453.182 565.345C436.545 570.712 419.594 576.296 401.86 572.749C373.053 566.986 377.625 537.622 388.396 518.125C401.826 493.817 422.278 472.093 445.746 457.19L442.805 435.823C417.863 421.749 406.872 410.356 396.375 383.549C366.972 386.269 338.483 378.104 358.232 343.004C357.358 340.489 357.111 339.646 356.704 337.024L356.415 336.082C350.983 317.884 350.56 287.29 355.727 268.898C357.999 260.813 360.374 255.641 364.379 248.361ZM410.967 543.866L417.123 543.416C432.589 540.773 441.985 536.588 456.359 531.018C455.772 526.623 450.995 492.01 449.961 491.025C434.693 502.198 415.031 524.96 410.967 543.866Z"/><path fill="#F1762E" d="M364.379 248.361C366.778 244.37 371.088 239.765 372.652 236.846C375.984 230.425 378.838 223.989 382.373 217.646C399.319 187.236 433.775 166.428 468.486 165.037C478.408 164.639 494.097 165.708 502.926 170.697C509.226 173.612 519.453 180.731 523.834 185.92C531.586 195.102 535.695 194.035 545.017 199.206C556.73 204.685 571.874 219.193 577.937 230.402C577.98 232.854 581.071 237.007 582.781 238.689C586.255 239.164 592.697 238.023 596.342 237.727C601.562 237.303 618.529 237.485 622.839 238.674C621.617 239.262 619.991 239.047 618.299 239.391C601.829 239.636 589.542 239.322 572.398 241.631C501.084 251.233 425.154 276.415 373.053 328.06C367.968 333.1 362.494 340.038 358.784 346.021C358.443 343.935 359.342 338.61 356.704 337.024L356.415 336.082C350.983 317.884 350.56 287.29 355.727 268.898C357.999 260.813 360.374 255.641 364.379 248.361Z"/><path fill="#0D0505" d="M545.017 199.206C556.73 204.685 571.874 219.193 577.937 230.402C577.98 232.854 581.071 237.007 582.781 238.689C586.255 239.164 592.697 238.023 596.342 237.727C601.562 237.303 618.529 237.485 622.839 238.674C621.617 239.262 619.991 239.047 618.299 239.391C601.829 239.636 589.542 239.322 572.398 241.631C501.084 251.233 425.154 276.415 373.053 328.06C367.968 333.1 362.494 340.038 358.784 346.021C358.443 343.935 359.342 338.61 356.704 337.024L356.415 336.082C350.983 317.884 350.56 287.29 355.727 268.898C357.999 260.813 360.374 255.641 364.379 248.361C367.707 247.847 368.056 241.159 372.836 240.231C369.049 245.505 366.767 249.474 363.731 255.201C351.56 278.162 351.529 315.325 359.796 339.743C361.131 337.943 362.497 336.167 363.895 334.416C411.098 276.034 508.431 246.27 580.253 238.312C572.693 223.355 558.657 209.526 544.377 200.898L545.017 199.206Z"/><defs><linearGradient id="gradient_0" gradientUnits="userSpaceOnUse" x1="417.55948" y1="179.90292" x2="484.83258" y2="254.98576"><stop offset="0" stop-color="#040101"/><stop offset="1" stop-color="#1D0E0F"/></linearGradient></defs><path fill="url(#gradient_0)" d="M364.379 248.361C366.778 244.37 371.088 239.765 372.652 236.846C375.984 230.425 378.838 223.989 382.373 217.646C399.319 187.236 433.775 166.428 468.486 165.037C478.408 164.639 494.097 165.708 502.926 170.697C505.252 174.209 516.501 177.698 517.409 182.707C499.507 169.219 482.948 164.472 460.595 167.956C423.413 173.752 395.661 194.771 379.889 228.349C386.51 222.396 389.859 215.867 394.952 208.681C405.785 193.397 422.909 182.721 442.058 183.844C469.749 185.469 486.269 208.421 498.365 230.732C499.855 233.482 503.034 238.538 502.115 241.62L501.428 241.593C499.328 239.318 493.86 228.498 492.075 225.042C474.766 191.526 437.486 170.97 405.905 200.397C403.358 202.77 391.168 215.811 391.955 218.932L393.216 219.507L393.535 221.301C387.706 225.448 382.647 229.181 377.687 234.47C375.966 236.305 374.405 238.61 372.836 240.231C368.056 241.159 367.707 247.847 364.379 248.361Z"/><defs><linearGradient id="gradient_1" gradientUnits="userSpaceOnUse" x1="437.81281" y1="205.31578" x2="438.79843" y2="236.41663"><stop offset="0" stop-color="#0B0404"/><stop offset="1" stop-color="#3C1B1A"/></linearGradient></defs><path fill="url(#gradient_1)" d="M391.955 218.932C410.242 208.67 426.385 201.258 448.205 206.831C461.283 210.172 478.629 223.102 484.988 234.998C485.409 235.796 485.792 236.615 486.136 237.449L485.516 237.023C480.404 233.466 476.48 228.196 471.926 223.928C446.379 199.984 421.473 204.876 393.535 221.301L393.216 219.507L391.955 218.932Z"/><defs><linearGradient id="gradient_2" gradientUnits="userSpaceOnUse" x1="540.23962" y1="199.00555" x2="528.11267" y2="214.68541"><stop offset="0" stop-color="black"/><stop offset="1" stop-color="#2C1B18"/></linearGradient></defs><path fill="url(#gradient_2)" d="M502.926 170.697C509.226 173.612 519.453 180.731 523.834 185.92C531.586 195.102 535.695 194.035 545.017 199.206L544.377 200.898C540.639 199.087 537.935 198.053 534.013 196.619C538.897 205.543 550.927 222.825 551.638 232.688L551.213 233.077C549.109 230.752 545.103 221.615 543.396 218.299C535.877 203.695 529.569 193.801 517.409 182.707C516.501 177.698 505.252 174.209 502.926 170.697Z"/><path fill="#F1762E" d="M358.784 346.021C362.494 340.038 367.968 333.1 373.053 328.06C425.154 276.415 501.084 251.233 572.398 241.631C589.542 239.322 601.829 239.636 618.299 239.391C650.083 241.641 650.667 259.214 631.553 280.263C621.615 291.208 606.732 302.244 593.153 308.44L588.521 296.379C595.177 289.172 608.534 273.377 596.704 264.919C583.561 255.523 555.007 261.486 539.512 262.457C479.675 270.852 416.174 294.442 376.373 341.899C372.535 346.475 366.614 356.121 367.455 362.217C368.792 371.915 385.552 371.561 392.817 371.791C393.748 374.983 394.674 378.057 395.408 381.303C369.751 382.815 343.053 379.845 358.784 346.021Z"/><path fill="#424243" d="M720.323 379.049C725.485 378.959 730.645 378.803 735.803 378.583C739.48 382.295 755.625 380.173 761.752 380.758C763.005 381.299 764.491 382.321 765.153 383.497C765.943 385.38 764.505 389.895 763.93 391.672C760.86 401.159 757.673 410.56 754.524 420.015C754.1 421.288 753.518 421.478 752.481 422.043C750.706 421.64 751.423 422.075 750.245 420.708C749.341 417.639 754.986 403.144 755.829 397.297L755.934 396.548C734.034 396.519 711.983 395.611 690.002 395.532C682.015 418.757 675.442 444.21 667.741 467.852C664.399 478.11 657.209 499.714 655.384 509.255C662.214 510.313 671.844 510.713 678.913 511.234L711.883 513.869C716.848 514.242 723.883 514.002 728.168 514.82C726.896 519.335 725.843 524.17 724.167 528.541C723.206 531.047 721.933 533.224 719.331 534.262C713.975 536.397 653.179 532.027 647.551 529.411C644.104 524.952 651.898 507.163 653.717 501.362L668.158 453.88L683.317 405.465C693.198 374.526 688.779 382.037 721.207 380.917C722.213 379.997 724.263 380.256 725.961 380.185L726.2 379.837C723.56 379.4 723.257 380.075 720.323 379.049Z"/><path fill="#0D0505" d="M720.323 379.049C725.485 378.959 730.645 378.803 735.803 378.583C739.48 382.295 755.625 380.173 761.752 380.758C757.646 381.371 745.755 381.119 740.995 381.089C735.619 381.056 726.239 381.364 721.207 380.917C722.213 379.997 724.263 380.256 725.961 380.185L726.2 379.837C723.56 379.4 723.257 380.075 720.323 379.049Z"/><path d="M682.921 514.529C695.02 513.695 697.962 524.335 688.094 529.423C675.453 531.022 673.225 519.686 682.921 514.529Z"/><path d="M713.407 388.193C717.646 387.929 731.934 386.925 734.811 389.052L734.866 390.479C731.103 390.582 715.277 391.654 713.089 389.471L713.407 388.193Z"/><path fill="#FEFEFD" d="M442.232 746.214L444.739 735.553C445.466 738.156 446.146 740.823 447.088 743.35C445.569 743.589 443.577 745.261 442.232 746.214Z"/><path fill="#ADAEB2" d="M530.343 276.708C544.872 275.373 563.814 279.491 577.966 282.808C597.87 318.475 604.804 363.013 580.453 398.753C573.816 408.495 565.415 414.57 555.439 420.495C553.738 432.189 554.474 447.842 552.355 459.469C535.963 459.079 530.45 467.56 519.273 477.552C516.838 479.728 511.083 482.94 508.097 484.979C501.589 489.425 497.29 493.785 492.128 499.693C472.91 499.168 465.771 509.937 463.88 527.428C462.429 528.143 460.604 528.885 459.095 529.548C458.068 525.062 457.259 518.776 456.52 514.114C455.294 505.715 453.915 497.339 452.386 488.99C454.767 487.12 461.308 482.746 462.688 480.757C472.069 467.236 464.28 452.634 447.825 454.916C447.169 450.124 445.854 444.13 445.666 439.412C446.761 437.865 446.981 438.158 449.017 437.238L449.006 436.559C446.187 434.17 441.741 432.679 438.421 430.885C408.924 414.94 398.014 388.702 393.005 357.236C396.334 352.681 399.827 348.248 403.478 343.947C435.643 306.094 480.487 280.769 530.343 276.708Z"/><path d="M552.325 304.551C563.551 303.554 569.012 307.216 573.269 317.596C569.968 320.813 566.613 323.973 563.204 327.075C567.268 328.437 571.302 329.884 575.306 331.413C574.81 340.676 574.642 345.021 567.487 351.471C543.734 365.872 531.89 329.604 541.191 313.031C544.095 307.857 546.997 306.204 552.325 304.551Z"/><path d="M494.239 308.111C506.03 306.758 511.52 311.711 515.375 322.235C512.082 325.403 508.733 328.066 505.198 330.943C509.511 332.482 513.286 333.93 517.134 336.438C516.677 344.61 515.966 349.029 509.965 354.905C483.758 371.033 470.498 324.017 488.601 310.586C490.164 309.427 492.393 308.739 494.239 308.111Z"/><path d="M559.689 365.429C562.366 366.165 569.693 370.767 568.573 373.857C566.857 374.181 565.123 372.63 564.934 372.779C558.001 378.236 551.613 382.958 543.171 386.024C529.548 391.1 514.45 390.442 501.319 384.202C497.411 382.327 494.003 379.396 490.234 377.619L489.507 378.114C488.156 379.04 488.728 378.858 487.199 379.134L486.594 378.323C487.035 375.077 490.49 371.155 493.906 371.192C494.55 372.835 493.221 372.822 493.085 375.442C499.068 381.724 512.154 386.249 520.745 386.609C537.487 387.311 550.597 381.403 562.799 370.585C560.877 368.66 560.265 367.98 559.689 365.429Z"/><path fill="#FEFEFD" d="M617.278 457.207C635.471 455.301 632.322 477.081 616.88 482.056C605.258 485.8 595.263 486.798 583.532 489.256C578.708 485.146 569.947 477.46 562.948 479.644L563.038 480.273C565.798 482.446 570.4 482.616 573.26 484.442C584.84 491.834 593.845 504.594 585.53 517.945C580.216 509.498 572.777 501.826 562.143 501.236C561.264 501.188 561.442 501.269 560.885 501.92C562.105 503.424 569.369 505.724 571.791 507.223C600.313 524.876 576.57 560.452 548.697 550.974C547.671 550.625 547.702 549.027 547.664 548.148C548.54 546.363 554.218 541.281 556.021 539.494C559.078 540.547 561.334 541.371 564.566 541.3L564.623 540.771C562.83 539.102 559.945 538.1 557.617 537.087C558.379 535.447 559.688 532.973 559.235 531.283C558.038 531.184 557.059 532.951 556.187 534.245C552.114 540.286 547.806 543.806 541.888 547.94C531.286 554.393 519.738 557.951 507.573 553.512C501.988 551.473 497.356 547.883 492.266 544.869C492.344 545.001 492.422 545.134 492.5 545.266L492.9 545.92C496.37 551.712 500.018 553.235 505.85 556.227C483.396 577.728 459.724 537.42 468.452 517.065C470.157 513.086 469.628 513.115 472.874 509.432C475.236 506.752 487.076 498.526 489.365 503.394C488.649 504.679 487.979 505.989 487.355 507.321C485.85 510.536 483.807 514.901 485.037 518.34L485.719 518.345C489.524 512.404 489.702 506.349 495.63 499.59C516.853 475.389 553.047 467.045 583.477 461.933C594.81 460.029 605.875 458.117 617.278 457.207Z"/><defs><linearGradient id="gradient_3" gradientUnits="userSpaceOnUse" x1="699.81274" y1="510.19412" x2="711.16248" y2="395.55591"><stop offset="0" stop-color="#9CDDEC"/><stop offset="1" stop-color="#6CC7F2"/></linearGradient></defs><path fill="url(#gradient_3)" d="M691.776 397.98C712.209 398.009 732.641 398.342 753.065 398.979C751.24 406.163 748.615 414.201 746.44 421.365C740.376 421.602 736.411 422.752 730.881 425.033C728.115 427.447 726.782 428.735 725.019 432.11C723.861 435.308 723.76 435.562 723.436 439.002L723.337 439.975L723.286 440.56L723.621 441.589C724.223 445.975 725.491 448.009 727.616 451.762C714.773 458.943 711.636 468.831 720.722 481.048C707.405 490.324 708.006 501.55 719.762 511.852C700.39 511.092 678.129 508.597 658.43 507.224C660.94 496.793 666.456 480.85 669.78 470.052L691.776 397.98Z"/><path fill="#FEFEFD" d="M699.872 431.283C701.111 427.271 701.952 418.992 705.779 417.064C708.961 415.461 718.974 417.913 722.46 418.978C722.17 422.497 722.006 423.703 721.143 427.141C722.516 429.378 723.117 430.295 725.019 432.11C723.861 435.308 723.76 435.562 723.436 439.002L723.337 439.975L723.286 440.56L723.621 441.589C716.351 450.049 700.696 455.323 692.25 445.169C688.37 440.504 688.85 434.881 689.522 429.242C693.654 431.241 693.583 427.215 699.872 431.283Z"/><path fill="#F5CE74" d="M689.522 429.242C693.654 431.241 693.583 427.215 699.872 431.283C698.349 436.384 695.092 436.226 694.437 439.294C695.2 441.824 697.935 442.881 700.322 442.242C701.155 440.457 699.517 438.325 700.229 437.404C702.235 434.808 704.099 437.364 702.92 431.969C703.703 432.048 704.706 432.183 705.473 432.097C707.864 431.827 710.739 433.815 712.773 433.959C711.263 436.705 707.759 441.89 712.295 443.584C716.839 443.012 718.054 439.958 718.75 435.965C721.239 436.874 721.348 436.478 722.825 438.21L723.286 440.56L723.621 441.589C716.351 450.049 700.696 455.323 692.25 445.169C688.37 440.504 688.85 434.881 689.522 429.242Z"/><path fill="#F27394" d="M717.67 422.586L718.963 422.831C719.87 425.331 718.297 432.229 717.219 434.732C716.344 434.089 715.803 433.677 714.768 433.339L712.773 433.959C710.739 433.815 707.864 431.827 705.473 432.097C704.706 432.183 703.703 432.048 702.92 431.969L701.548 433.674L701.186 433.547C700.746 431.464 702.594 426.313 703.321 424.016C704.545 425.421 703.814 425.101 705.35 425.487L705.885 424.409C708.354 423.892 714.999 424.075 717.825 424.075L717.67 422.586Z"/><path fill="#FEFEFD" d="M705.35 425.487L705.885 424.409C708.354 423.892 714.999 424.075 717.825 424.075C717.078 425.491 717.04 426.253 715.42 426.596C712.488 427.218 709.22 426.722 706.324 426.355L705.35 425.487Z"/><path fill="#E89A88" d="M721.143 427.141C722.516 429.378 723.117 430.295 725.019 432.11C723.861 435.308 723.76 435.562 723.436 439.002L723.337 439.975L723.286 440.56L722.825 438.21C721.348 436.478 721.239 436.874 718.75 435.965C719.418 432.988 720.302 430.074 721.143 427.141Z"/><path fill="#F260C0" d="M703.321 424.016C704.82 422.277 713.922 422.867 717.67 422.586L717.825 424.075C714.999 424.075 708.354 423.892 705.885 424.409L705.35 425.487C703.814 425.101 704.545 425.421 703.321 424.016Z"/><path fill="#F260C0" d="M704.846 418.068C707.924 418.381 717.499 419.122 719.912 420.19L720.195 421.122C717.229 420.971 706.875 420.303 704.786 419.312L704.846 418.068Z"/><defs><linearGradient id="gradient_4" gradientUnits="userSpaceOnUse" x1="713.59949" y1="429.98349" x2="711.69025" y2="409.79288"><stop offset="0" stop-color="#F670AE"/><stop offset="1" stop-color="#E039DA"/></linearGradient></defs><path fill="url(#gradient_4)" d="M689.522 429.242C690.12 425.895 691.348 423.363 693.222 420.543C697.059 414.703 703.092 410.659 709.953 409.332C721.99 407.101 728.752 413.756 730.881 425.033C728.115 427.447 726.782 428.735 725.019 432.11C723.117 430.295 722.516 429.378 721.143 427.141C722.006 423.703 722.17 422.497 722.46 418.978C718.974 417.913 708.961 415.461 705.779 417.064C701.952 418.992 701.111 427.271 699.872 431.283C693.583 427.215 693.654 431.241 689.522 429.242Z"/><path fill="#F1762E" d="M361.301 711.349C363.777 719.031 363.72 726.674 368.366 734.473C374.394 744.59 380.993 747.848 391.785 750.884C386.711 776.406 393.472 792.526 407.312 813.522C402.685 820.568 399.858 826.711 396.21 834.295C390.566 831.435 385.841 828.182 380.782 824.415C372.006 816.946 369.162 809.41 362.242 801.665C346.044 783.536 333.668 777.281 323.566 753.998C332.618 739.32 347.397 721.854 361.301 711.349Z"/><path fill="#ADAEB2" d="M541.498 595.067C541.874 595.263 542.025 595.581 542.327 595.973C541.261 623.767 536.011 654.344 532.021 681.889C530.205 694.426 518.342 696.113 508.023 695.965C500.281 695.853 495.141 696 488.925 690.112C483.51 682.587 482.341 667.155 481.049 657.566C482.388 654.552 483.97 651.394 485.418 648.418C491.524 635.871 495.857 622.85 499.722 609.469C512.513 605.04 528.79 598.674 541.498 595.067Z"/><path fill="#F1762E" d="M531.191 763.218C533.485 765.091 534.742 768.872 539.037 772.071C549.046 779.524 557.199 779.682 568.879 778.358C580.857 798.491 588.674 806.886 611.901 813.1C609.507 822.347 608.831 826.599 608.835 836.049C605.763 835.962 602.692 835.829 599.624 835.651C595.219 835.538 590.854 835.044 586.494 834.893C562.953 834.079 541.406 829.323 518.47 825.078C517.902 807.163 522.916 779.448 531.191 763.218Z"/><path fill="#FEFEFD" d="M446.349 795.705C457.286 794.674 467.585 798.688 474.972 806.833C486.282 819.305 486.848 834.118 485.997 850.052C471.599 851.046 455.77 850.7 441.536 848.403C429.424 847.244 409.353 841.148 398.894 835.469C401.14 828.807 406.905 818.296 411.422 812.988C421.313 801.365 431.613 797.059 446.349 795.705Z"/><path fill="#FEFEFD" d="M320.137 754.321C321.005 755.306 323.147 759.201 323.752 760.559C331.57 778.11 347.063 788.507 359.538 802.42C365.115 808.639 370.154 818.164 376.498 823.812C404.407 848.661 446.723 854.341 482.845 853.044C484.346 852.99 484.857 853.618 485.77 854.535C487.054 859.022 482.933 867.753 478.667 869.756C475.566 870.484 472.204 870.701 468.999 871C437.152 873.965 402.663 864.842 376.646 846.182C364.336 837.352 356.885 822.877 347.085 811.55C335.614 798.292 320.209 786.523 311.934 770.915C314.495 764.53 316.59 760.211 320.137 754.321Z"/><path fill="#FEFEFD" d="M647.001 782.098C655.748 781.446 665.472 784.626 672.502 789.715C686.839 800.095 690.741 812.522 693.599 828.894C681.17 833.059 669.972 834.132 657.122 835.365C641.937 836.402 626.712 836.705 611.498 836.274C610.974 811.671 621.578 788.608 647.001 782.098Z"/><path fill="#FEFEFD" d="M517.415 827.372C568.532 838.632 624.308 842.303 676.394 835.635C681.785 834.945 687.98 832.414 693.361 832.323L694.043 833.02C694.897 836.906 693.863 844.11 692.6 847.913C663.564 862.835 547.349 854.965 516.087 842.521C515.507 837.391 515.434 832.185 517.415 827.372Z"/><path fill="#ADAEB2" d="M548.96 564.565C553.115 564.286 557.752 564.856 559.195 569.683C561.089 576.019 560.21 584.51 553.434 587.616C543.648 592.102 533.062 595.138 522.965 598.896C503.693 605.46 484.443 612.746 465.007 618.757C452.572 619.593 451.679 609.31 455.915 599.552C456.444 598.334 458.452 596.123 459.71 595.602C469.35 591.605 479.513 588.67 489.32 585.068C508.644 578.646 529.549 569.984 548.96 564.565Z"/><path fill="#FEFEFD" d="M659 400.153C669.703 398.762 674.731 403.424 678.391 412.96C673.489 430.778 666.434 450.715 661.025 468.709C657.916 479.05 651.199 502.835 647.419 511.668C646.368 511.433 645.509 510.306 644.566 509.426C639.106 499.876 638.633 489.448 647.8 482.041C648.916 484.038 650.921 488.237 653.326 488.312L653.769 487.5C652.53 483.971 649.873 480.512 648.412 477.012C645.425 469.855 646.088 463.174 648.528 456.057C650.011 451.733 651.694 446.13 651.595 441.566C651.265 426.448 638.707 408.132 659 400.153Z"/><path fill="#FEFEFD" d="M426.179 677.94L426.561 678.031C427.287 679.15 427.25 681.531 427.347 683.001C420.633 689.692 409.666 696.887 405.396 705.429C412.697 700.229 420.676 692.609 427.71 686.607C428.918 688.838 430.318 691.15 431.599 693.357C424.11 699.238 415.154 706.791 409.716 714.452C418.825 708.561 424.866 702.5 432.765 695.091C434.456 696.77 436.368 699.134 437.95 700.982C431.231 706.21 421.028 714.67 416.899 721.89C420.746 719.282 423.286 717.145 426.81 714.105C431.15 710.238 435.407 706.369 439.953 702.743L444.823 707.373C439.482 712.61 432.559 717.914 426.785 723.359C420.098 723.527 418.228 723.626 416.246 730.367C401.51 728.937 396.187 732.699 396.727 748.201C392.704 745.47 388.82 742.741 385.75 738.977C379.273 731.904 380.392 717.738 386.756 710.751C397.316 699.158 413.38 687.038 426.179 677.94Z"/><path fill="#FEFEFD" d="M552.66 707.992L560.637 710.051C559.95 716.37 556.269 742.348 558.929 745.985C560.132 743.624 562.373 715.161 562.832 710.782C565.495 710.941 568.158 711.326 570.807 711.661C570.515 719.104 567.718 739.54 569.355 745.329L569.828 745.215C571.729 739.912 572.734 718.841 573.21 712.212L573.49 711.924C575.373 711.232 579.315 711.444 581.495 711.442C580.86 722.61 579.113 734.897 579.037 745.967C573.527 753.371 574.594 757.451 577.16 765.739C567.157 768.881 554.698 770.47 547.489 760.969C547.45 754.37 548.669 744.476 549.365 737.719C550.362 728.045 551.222 717.528 552.66 707.992Z"/><path fill="#FEFEFD" d="M737.603 452.689C746.647 451.879 760.823 454.555 766.538 462.207C769.195 465.717 770.324 470.151 769.668 474.504C768.611 481.29 764.134 485.648 758.828 489.348C757.199 488.093 755.107 486.695 753.398 485.481C743.85 480.076 734.412 478.664 723.72 480.493C710.838 466.676 720.949 454.32 737.603 452.689Z"/><path fill="#FEFEFD" d="M729.019 482.155C736.313 481.616 744.167 483.215 750.717 486.672C760.182 491.669 763.109 502.659 757.817 511.925C753.804 518.953 745.789 522.436 738.185 524.388L737.955 524.217C737.585 522.511 738.751 519.503 739.294 517.58C741.116 517.424 742.514 517.561 743.856 516.424C742.345 514.767 733.938 514.23 731.111 513.694C711.346 509.943 704.996 485.576 729.019 482.155Z"/><path fill="#ADAEB2" d="M544.516 549.602C547.33 553.291 548.12 553.556 552.326 555.221C543.19 559.923 522.166 565.798 511.551 569.596C497.415 574.185 483.546 579.593 469.474 584.353C463.18 586.482 459.939 587.593 454.93 582.785C451.47 575.993 452.603 567.421 459.283 563.5C464.017 560.721 470.374 558.43 475.482 556.35C487.012 567.526 497.479 568.351 509.074 556.824C523.868 559.101 531.78 557.047 544.516 549.602Z"/><path fill="#FEFEFD" d="M741.576 424.113C742.648 423.997 743.723 423.92 744.801 423.883C765.097 423.039 785.929 438.944 766.413 457.711L762.012 455.014C753.017 450.364 740.529 449.407 730.672 450.987C719.838 439.132 727.334 427.329 741.576 424.113Z"/><path fill="#F1762E" d="M394.896 750.268C398.439 751.972 401.689 755.486 405.876 757.448C409.188 758.999 414.979 758.824 416.87 760.627C416.525 765.409 405.597 763.474 401.798 763.197C392.106 773.35 400.541 776.45 410.54 774.034C413.463 773.327 416.632 772.695 419.596 772.116C420.508 775.192 421.667 778.254 422.754 781.278C416.102 782.277 398.225 782.206 403.518 793.15C404.58 795.345 406.174 796.101 408.359 796.808C416.286 794.209 416.215 792.459 425.928 790.696L429.174 796.504C419.117 801.867 416.929 803.582 409.158 811.645C395.977 793.052 388.856 772.927 394.896 750.268Z"/><path fill="#F1762E" d="M595.719 741.108C614.116 739.641 608.852 752.881 611.212 765.366C603.401 767.998 599.575 769.936 592.712 774.317L592.214 774.508C589.522 773.472 585.707 767.891 579.27 764.957C574.264 749.855 581.643 743.881 595.719 741.108Z"/><path fill="#F1762E" d="M572.014 777.962C576.412 775.773 580.422 774.527 584.695 771.79L589.64 776.639L587.031 778.663C587.125 780.575 587.457 779.869 586.569 781.119C585.545 784.944 585.539 785.576 588.174 788.524L589.519 786.138C593.416 785.291 596.471 781.886 600.514 779.903L600.45 781.129L599.289 781.908L598.903 781.523L598.947 781.855L598.674 781.795L598.682 782.397C598.847 782.527 600.026 783.416 600.116 783.553C601.801 784.885 602.597 785.451 604.453 786.525L603.958 786.976C600.443 790.138 593.501 793.161 597.545 799.44C598.759 801.31 600.718 802.569 602.924 802.897C604.816 803.171 606.735 802.635 608.212 801.422C610.516 799.566 610.459 796.3 613.842 792.585C616.136 793.759 618.66 795.112 620.971 796.215C617.119 801.696 615.328 804.606 612.796 810.777C600.988 807.644 587.457 801.825 580.515 791.087C577.577 789.008 573.643 781.145 572.014 777.962Z"/><path fill="#0D0505" d="M587.031 778.663C587.125 780.575 587.457 779.869 586.569 781.119C585.545 784.944 585.539 785.576 588.174 788.524L589.519 786.138C593.416 785.291 596.471 781.886 600.514 779.903L600.45 781.129L599.289 781.908L598.903 781.523L598.947 781.855L598.674 781.795L598.682 782.397C598.847 782.527 600.026 783.416 600.116 783.553C595.064 784.512 595.364 790.962 589.018 791.771C581.053 789.699 580.003 783.183 587.031 778.663Z"/><path fill="#C96333" d="M586.569 781.119C585.545 784.944 585.539 785.576 588.174 788.524C589.275 788.422 589.78 788.356 590.877 788.421L590.855 788.988C589.135 789.906 587.153 789.068 585.577 788.233C583.609 785.497 584.76 783.64 586.569 781.119Z"/><path fill="#F1762E" d="M380.551 700.567C383.383 700.565 385.049 701.298 387.236 703.107C388.466 706.125 384.822 708.314 383.421 711.035C375.577 726.269 378.296 735.927 390.27 747.525C388.476 747.055 386.594 746.404 384.821 745.83C368.608 738.338 365.419 724.597 364.811 708.133C369.459 704.519 374.826 701.94 380.551 700.567Z"/><path fill="#424243" d="M730.775 516.054C732.476 516.425 734.951 516.643 736.74 516.86C727.843 546.243 733.655 543.165 702.464 541.255C687.622 540.42 672.788 539.45 657.963 538.346C653.935 537.898 653.49 536.74 650.55 533.804C662.846 533.943 714.425 539.724 721.754 536.537C726.896 534.301 728.937 521.161 730.775 516.054Z"/><path fill="#F1762E" d="M541.649 748.101L544.33 748.003C547.695 749.854 543.033 756.325 545.394 761.993C551.39 776.386 575.789 766.794 581.532 769.08L581.672 769.491C580.7 771.437 577.162 772.665 575.138 773.536C566.131 776.794 556.157 777.69 546.985 773.791C540.404 770.994 530.347 762.164 534.268 753.713C535.703 750.62 538.524 749.238 541.649 748.101Z"/><path fill="#FEFEFD" d="M466.295 735.115C484.335 733.604 484.674 754.896 470.647 760.101C466.902 761.491 448.122 760.468 446.991 756.654L447.728 755.51C451.13 753.816 458.943 755.378 463.718 755.487C471.974 754.982 479.381 748.523 471.071 741.552C466.628 737.825 453.82 747.531 447.959 749.474L447.069 748.917C446.17 747.217 446.207 748.038 446.7 746.393C452.023 741.179 459.227 737.355 466.295 735.115Z"/><path fill="#FEFEFD" d="M406.645 732.557C415.083 731.724 429.238 738.117 433.474 745.267C432.975 746.609 433.33 745.976 431.8 746.941C426.544 745.471 416.206 735.037 409.499 737.789C404.8 739.717 404.558 744.778 406.573 749.058C413.884 754.432 426.514 750.444 428.986 753.253C429.13 754.581 429.419 755.499 428.75 756.6C424.066 757.884 417.334 757.366 412.506 756.594C398.853 754.411 392.167 740.295 406.645 732.557Z"/><path fill="#FEFEFD" d="M592.487 709.132L593.114 709.336C593.874 711.598 591.462 735.142 591.21 739.368C587.216 740.683 585.291 741.584 581.762 743.72C581.413 743.764 581.649 743.765 581.094 743.485C581.701 733.203 583.234 721.68 583.996 711.033C586.755 710.352 589.698 709.748 592.487 709.132Z"/><path fill="#FEFEFD" d="M421.96 726.231C437.989 724.948 446.12 726.926 439.432 744.644C434.623 743.681 425.217 734.361 420.184 731.75C419.255 731.268 419.399 729.858 419.4 728.961C420.291 727.177 420.237 727.272 421.96 726.231Z"/><path fill="#FEFEFD" d="M631.435 773.57C633.62 773.384 638.318 773.588 638.353 776.472C636.943 777.731 630.208 779.653 627.803 780.824C619.833 784.704 613.99 789.065 607.844 795.309C606.791 796.328 606.879 796.27 605.471 796.685C603.374 796.058 604.182 796.622 602.829 795.136C600.786 786.82 624.859 775.288 631.435 773.57Z"/><path fill="#424243" d="M768.399 384.255C769.765 385.062 771.097 386.384 771.79 387.836C774.094 392.665 764.388 418.113 762.204 424.402L757.147 422.203C760.343 409.305 765.317 397.502 768.399 384.255Z"/><path fill="#FEFEFD" d="M589.519 786.138C589.122 785.218 588.513 784.05 588.763 783.062C590.724 775.297 619.809 760.583 624.263 769.432C622.675 771.57 614.707 772.656 610.938 774.414C606.595 776.44 604.692 777.298 600.514 779.903C596.471 781.886 593.416 785.291 589.519 786.138Z"/><path fill="#FEFEFD" d="M442.842 781.714C445.825 781.401 453.786 781.258 456.611 781.776C458.02 782.645 458.72 783.428 458.194 785.066C455.96 785.675 453.825 785.636 451.526 785.677C443.695 785.816 436.002 786.727 428.232 787.669C424.438 788.43 417.114 790.662 414.011 789.136C413.097 787.764 413.291 788.498 413.401 786.86C417.498 783.469 436.838 782.193 442.842 781.714Z"/><path fill="#ADAEB2" d="M544.024 561.554C544.509 561.714 544.169 561.573 544.899 562.229C543.226 564.027 477.903 586.502 470.112 588.557C469.603 588.433 469.92 588.545 469.237 588.057C472.332 584.738 536.646 563.734 544.024 561.554Z"/><path fill="#FEFEFD" d="M433.011 763.71C435.197 763.483 439.367 763.547 441.717 763.521L444.733 766.814C435.765 767.397 428.295 768.33 419.438 769.661C416.406 770.19 410.876 771.728 408.447 770.192C407.819 768.272 407.784 769.148 408.12 767.449C412.111 764.975 427.777 764.124 433.011 763.71Z"/><path fill="#FEFEFD" d="M435.376 747.459C445.52 746.471 448.477 752.655 441.398 760.059C432.894 760.206 428.202 754.337 435.376 747.459Z"/><path fill="#FEFEFD" d="M466.862 743.527C469.788 743.521 471.671 743.851 472.298 747.007C470.915 753.317 462.831 753.191 457.878 752.787C455.208 752.57 452.712 752.201 450.067 751.829C454.828 748.451 461.271 745.221 466.862 743.527Z"/><path fill="#FEFEFD" d="M449.388 788.245C450.918 788.162 451.116 788.081 452.647 788.425C454.139 789.616 454.347 791.5 454.851 793.417C446.699 792.953 441.495 793.373 433.613 795.081C432.275 795.454 432.711 795.367 431.298 795.351C429.925 794.283 429.445 791.963 428.858 790.207C435.651 789.106 442.509 788.451 449.388 788.245Z"/><path fill="#FEFEFD" d="M546.524 462.084C550.37 461.881 552.877 461.821 556.038 464.032L556.136 464.756C548.322 466.952 541.229 468.856 533.621 471.718C530.978 472.653 528.566 473.784 526.012 474.93C531.558 468.508 538.265 464.028 546.524 462.084Z"/><path fill="#FEFEFD" d="M433.597 770.2C438.406 769.575 448.979 769.087 451.993 773.532L451.727 774.393C448.301 776.279 445.468 775.364 441.465 774.852C434.437 773.938 427.745 773.459 420.713 772.175C425.325 771.303 428.885 770.66 433.597 770.2Z"/><path fill="#FEFEFD" d="M446.558 709.893C448.033 710.554 449.553 711.916 450.852 712.961C448.551 715.032 439.008 724.01 436.821 724.247L430.468 723.437C435.064 719.091 441.566 713.677 446.558 709.893Z"/><path fill="#FEFEFD" d="M632.91 781.468C634.507 781.399 635.555 781.422 636.895 782.301L636.796 783.002C634.273 784.655 632.04 785.923 629.531 787.695C627.192 789.346 623.852 793.488 622.169 794.074L616.054 790.838C622.377 786.684 625.818 784.304 632.91 781.468Z"/><path fill="#FEFEFD" d="M409.977 739.969C416.867 739.835 419.086 743.45 415.812 749.658C409.56 748.822 405.188 746.443 409.977 739.969Z"/><path fill="#FEFEFD" d="M423.517 775.524C426.12 775.456 445.225 777.291 446.778 778.414L445.93 778.908C439.771 779.072 431.688 780.04 425.412 780.616C424.715 779.034 424.103 777.175 423.517 775.524Z"/><path fill="#FEFEFD" d="M620.481 774.118C621.942 773.916 621.282 773.765 622.558 774.251C621.004 775.522 616.291 776.989 614.143 778.477C611.282 780.459 608.638 782.793 605.742 784.585C604.224 783.698 603.855 783.533 602.552 782.266C604.21 779.332 616.787 774.79 620.481 774.118Z"/><path fill="#FEFEFD" d="M420.155 743.213C422.28 744.399 428.24 747.471 429.071 749.541L418.712 749.521C419.228 747.493 419.686 745.27 420.155 743.213Z"/><path fill="#F1762E" d="M407.652 785.674C408.983 785.956 408.552 785.787 409.678 786.472C411.542 789.873 411.18 791.46 408.786 794.237C404.533 791.724 404.701 789.279 407.652 785.674Z"/><path fill="#C96333" d="M455.897 788.27C461.278 788.306 461.269 791.061 463.167 795.666C461.476 795.163 459.888 794.534 458.24 793.912C457.37 792.112 456.636 790.135 455.897 788.27Z"/><path fill="#FEFEFD" d="M428.679 759.219L430.947 759.027L431.778 760.169L431.496 759.112C431.825 759.699 432.039 759.857 432.051 760.415C429.572 761.784 427.425 761.671 424.621 761.828C422.852 762.078 422.471 762.236 420.721 761.719L420.549 761.253L420.888 760.792C423.737 759.231 425.489 759.374 428.679 759.219Z"/><path fill="#C96333" d="M403.197 765.723L404.208 766.229C404.854 768.518 405.174 769.902 404.775 772.304L403.541 773.185C402.04 771.897 401.459 771.614 401.066 769.754C401.39 767.714 401.847 767.414 403.197 765.723Z"/><path fill="#FEFEFD" d="M443.907 760.965C445.545 760.831 446.896 760.601 448.224 761.549C449.071 763.081 448.696 764.034 448.42 765.797C448.074 765.844 447.73 765.69 447.389 765.617C445.613 763.697 445.201 763.222 443.907 760.965Z"/><path fill="#C96333" d="M599.737 792.44L600.116 792.845C600.602 798.937 600.826 799.224 606.486 799.486C602.536 802.71 597.534 798.017 599.737 792.44Z"/></svg>