<svg xmlns="http://www.w3.org/2000/svg" width="1024" height="1024" viewBox="0 0 1024 1024"><path d="M469.161 165.195c9.507-1.243 21.735-.254 30.578 1.687 15.982 3.509 26.334 14.597 37.647 25.255 2.422 2.281 12.448 5.619 16.26 7.746 15.883 8.863 26.55 22.542 35.956 37.753 17.198-1.169 73.853-6.393 62.089 26.839-6.615 18.685-33.661 37.907-51.599 46.583 10.947 40.438 3.697 89.364-36.487 110.591-1.127 12.824-1.301 32.344-3.113 44.334 11.095 22.269 23.32 40.881 47.393 50.717 11.403 4.658 20.827 4.215 32.785 3.648 2.998-11.701 8.082-19.975 21.286-20.226l12.031-40.001c2.091-6.985 4.415-15.617 6.991-22.328 7.036-.054 14.506.934 21.214.575 3.506-3.358 11.119-1.752 16.069-1.486.717-9.181 9.023-16.648 17.847-9.873 3.138 2.41 2.972 7.337 2.847 11.044 9.182.541 6.955-.989 13.743 3.44 2.185 1.425 21.416-1.229 23.22 4.035 2.664 7.773-4.512 23.64-6.746 31.585a54 54 0 0 1 2.773 2.028c11.642 9.072 13.348 19.392 3.928 30.966 4.426 11.753.055 19.079-8.333 26.949.145 17.316-8.208 27.007-24.748 30.239-3.581 10.001-8.722 34.109-13.336 42.399-3.822-.489-7.978-1.338-11.736-2.286-24.711-6.239-49.533-12.111-74.179-18.59-1.963-.516-4.025-1.529-5.685-2.679-1.743-3.724 6.458-29.205 7.952-34.683-36.789 2.811-63.933-7.422-89.018-35.161-.658 4.143-.962 7.933-1.314 12.098 11.155 1.459 12.655 3.616 14.167 13.727 1.841 12.32-12.438 14.387-14.104 18.869 1.446 1.318 4.9.129 7.366 1.325 7.466 3.623 7.844 15.385 4.363 21.839-3.043 5.644-10.512 7.48-16.203 9.261-.148 10.438-1.879 28.322-3.256 38.723 11.91 8.406 23.152 33.285 30.34 46.39 2.13 3.883 4.179 8.815 6.849 12.417.83 1.119 3.256 1.031 4.774 1.143 3.978 5.651 8.36 13.546 11.947 19.635 21.459-27.596 30.875 8.834 36.875 9.725 4.993-6.47 5.455-23.938 18.523-25.556a11.95 11.95 0 0 1 9.247 2.832c3.652 3.135 5.621 8.217 5.932 12.924.666 10.086-5.352 12.191-10.647 18.351l-.37.437c9.691-.917 18.369.712 27.039.028 14.88-1.175 26.358-7.326 41.76-.854 13.478 5.663 26.821 20.466 33.549 33.182 6.53 12.34-1.832 23.105-11.452 29.902-14.352 11.11-30.548 18.832-45.727 28.458-20.192 12.805-38.796 28.214-61.247 37.165-12.417 5.106-39.585 13.588-54.296 10.616-2.644-.534-5.816-6.921-7.042-9.479-3.204-6.685-1.42-11.355-3.77-18.002-2.106-5.956-4.752-12.032-7.151-17.951a335 335 0 0 1-8.002-21.787c-4.094-14.27-12.268-35.269 1.166-46.527-4.894-11.749-13.872-30.264-20.417-41.268 3.974-1.985 8.401-4.549 12.338-6.706-5.148-12.357-10.071-22.227-16.195-34.156-.552 5.858-1.243 11.63-4.631 16.859-6.988 10.786-31.367 9.928-41.082 3.919-6.175-3.82-8.061-15.133-9.266-22.014-7.712 12.916-18.328 23.342-29.988 32.674 2.534 2.986 4.886 5.647 7.054 8.931-4 3.597-9.677 6.66-13.022 10.393 4.994 9.281 4.14 11.476 1.929 21.585 8.105-4.275 21.575-17.002 30.415-13.242 19.071 8.111 7.057 36.952-13.565 29.893-2.073-.71-4.901-1.083-7.427-2.103-4.621 11.701 1.711 11.469 6.966 20.647 4.72 8.244 4.832 15.955 14.122 21.467 5.717 3.391 9.745 10.859 11.909 16.948 4.147 11.168 4.203 27.587 3.164 39.423-.113 1.296-4.948 11.107-5.507 12.311-32.249 8.621-83.955-3.278-109.738-24.658-11.053-9.166-20.19-24.564-29.997-35.48-11.774-13.106-26.053-23.559-33.605-39.79.698-3.138 6.224-16.441 8.359-17.844 7.376-4.848 9.162-9.111 14.714-15.839 12.305-14.913 27.203-34.226 47.027-38.42 4.201-.888 7.838 1.274 10.958 3.704 5.488-3.86 33.741-27.918 37.533-28.118 1.571 1.415 2.094 3.521 2.883 5.574 19.822-18.465 28.658-31.915 34.154-58.913-3.694.11-6.887.306-10.549-.281a690 690 0 0 0-10.918 4.847c-2.247 6.504-5.695 13.582-8.262 20.17-2.594 6.656-5.049 14.297-7.836 20.685-12.151-1.76-24.42-4.529-36.486-6.961-.878 3.043-1.658 5.164-3.494 7.801-6.944 9.975-24.008 15.026-34.219 7.261-1.906-1.45-3.644-3.779-5.142-5.695-11.836 5.177-19.951 4.16-28.06-6.449-16.347 3.798-23.456-5.89-26.949-20.648-9.378-1.652-18.303-2.548-27.622-5.095-2.971-2.952-3.774-4.738-5.162-8.535 1.635-5.36 4.655-12.658 6.677-18.075l11.134-30.349a3259 3259 0 0 1 11.823-32.035c2.085-5.533 4.889-13.509 7.511-18.662 7.357.242 16.1 2.038 23.465 3.335q12.503 2.175 25.039 4.16c23.969-42.242 50.946-59.072 98.29-67.683-1.988-8.413-4.052-24.603-5.356-33.386-23.17-11.622-37.51-27.529-46.112-51.999-30.01 2.674-57.748-4.393-38.937-40.796-2.152-9.397-4.102-17.846-5.159-27.483-2.438-22.241-.343-45.698 10.88-65.474 3.114-5.487 7.3-10.127 10.495-15.546 5.892-11.438 8.85-19.318 17.209-29.652a107.38 107.38 0 0 1 71.71-39.223m-80.24 376.531c7.127 1.347 15.637 2.399 22.502 3.877 17.798 2.93 39.336 6.378 56.698 10.376-3.858-19.316-6.1-38.778-9.199-58.195l-.961-.247c-31.215 7.612-50.646 16.3-69.04 44.189"/><path fill="#aeacb1" d="M538.521 276.708c13.759-1.115 32.544 3.028 46.009 6.073 19.494 35.291 26.861 77.598 3.922 113.762-7.149 11.272-15.639 17.377-26.855 24.042-.321 21.756-3.541 42.75-5.782 64.308-.673 6.468-.635 15.304-.965 22.017a376 376 0 0 1-1.981 23.086c-6.626 1.682-16.308 5.617-23.303 7.847-19.489 6.212-38.982 13.276-58.437 19.527-2.381-11.42-3.593-23.235-5.72-34.778a1354 1354 0 0 1-3.811-25.115c7.333-.029 19.533.959 24.831-4.92 5.081-5.637 4.08-17.547-2.202-21.98-7.099-5.01-19.404-3.421-27.537-2.584-.703-4.739-5.16-27.422-3.77-30.033 1.328-.279 1.604-.195 2.656-.99-1.681-2.425-15.259-8.74-19.69-12.004-24.173-17.803-31.657-39.931-36.526-67.862a216 216 0 0 1 10.29-12.88c33.163-38.539 77.808-63.713 128.871-67.516"/><path d="M572.755 303.713c2.425-.025 5.388.559 7.698 1.284a28.38 28.38 0 0 1 16.98 14.615 30.28 30.28 0 0 1 1.512 22.875c-4.804 14.289-18.94 23.081-33.763 17.91-4.137 3.517-20.034 12.218-24.323 7.971l.041-1.075c3.158-1.597 7.613-2.08 11.556-2.949 6.747-1.485 16.472-10.251 13.726-18.048-4.786-13.588-25.236-.548-29.414-2.489 2.251-2.543 6.273-3.587 9.439-4.521-1.39-5.969-.34-10.094-9.925-8.151-.518.012-2.304 1.176-2.391 1.494-1.935 6.996-.805 10.618-4.663 17.398a28.27 28.27 0 0 1-17.422 13.579c-8.326 2.244-14.921.725-22.142-3.396-8.549-5.685-12.072-13.043-13.68-22.864-7.428 1.181-45.494 4.253-48.956 7.468-3.122 2.9-2.587 8.196-5.26 11.132l-1.083-.245c-2.362-3.687 2.641-14.43 7.299-15.16 15.302-2.399 32.551-5.095 47.92-6.282.218-4.859 1.131-8.973 3.378-13.304a29.05 29.05 0 0 1 17.238-14.387c18.019-5.357 31.711 5.466 36.592 22.505 5.124-1.676 6.63-2.059 11.719-.365.416-22.554 8.426-23.44 27.924-24.995"/><path fill="#aeacb1" d="M572.421 306.925c33.919 4.056 31.418 49.259 1.526 51.698-2.491.021-4.122.369-5.822-1.226.327-2.899 5.81-5.576 8.63-8.207 5.16-4.813 4.669-10.859 4.938-17.646-3.664-1.57-7.76-3.071-11.5-4.528a544 544 0 0 0 9.81-9.764c-2.581-5.097-3.185-6.674-7.582-10.327"/><path fill="#aeacb1" d="m492.284 311.959.43.275c-1.573 2.334-2.572 4.275-3.729 6.828-5.939 13.108-.197 38.765 17.256 39.099a16.26 16.26 0 0 0 11.864-4.813c5.068-5.124 5.426-10.547 5.479-17.184-4.164-2.171-6.918-3.476-11.275-5.204 3.469-2.965 6.558-5.641 9.865-8.817-1.783-4.418-3.358-6.818-6.046-10.665 1.476.882 3.012 1.892 4.476 2.815 1.327 1.288 2.8 2.772 3.965 4.206 9.071 11.161 6.24 29.202-5.193 37.729a24.5 24.5 0 0 1-18.307 4.648 25.08 25.08 0 0 1-16.94-10.495c-9.195-13.223-5.055-29.551 8.155-38.422"/><path d="M566.179 365.293c2.845.515 9.123 5.145 9.174 8.32l-.839.583c-.888-.315-1.3-.481-2.174-.892l-.753-.362c-2.447.994-6.116 4.542-8.244 6.024-20.443 14.249-45.616 13.236-65.731-.967-1.08-.762-1.762-.124-2.921.35-.582.647-.202.395-1.217.619-.551-2.982 2.793-7.636 5.72-8.216 1.226.694.721.246 1.375 1.518-.521 1.135-1.005 1.816-.803 3.023 19.85 18.633 50.962 12.135 69.725-4.829-1.651-2.109-2.22-2.757-3.312-5.171"/><path d="M504.466 286.627c3.451-.341 10.21-1.243 10.472 3.843-1.656 3.251-6.322 4.001-9.6 4.607-6.208 1.148-10.626 2.791-16.051 5.913-2.08 1.272-3.895 3.21-6.033 3.895l-.904-.539c-.686-3.82 4.568-8.598 7.354-10.773 4.493-3.508 9.357-5.365 14.762-6.946"/><path d="M556.832 285.076c1.923-.171 3.379-.078 5.281-.123 5.847-.141 20.171 6.932 19.699 13.902l-.715.41-1.493-.75c-4.128-2.539-4.644-2.806-9.495-4.351-5.163-1.644-11.637-.825-15.993-3.629-1.018-.656-.731-1.796-.637-2.627 1.091-1.623 1.701-1.832 3.353-2.832"/><path fill="#f5742d" d="M478.037 166.72c32.113-.316 53.701 17.491 68.608 44.895 3.988 7.334 7.48 17.06 12.586 23.429l.518.641c-1.95-10.726-13.311-29.59-19.367-39.177 20.644 5.981 35.704 24.337 46.96 41.613a693 693 0 0 0-11.836 1.415c-70.812 9.293-163.845 40.935-209.046 99.813a29 29 0 0 1-1.317-3.232c-4.603-13.704-5.678-32.514-4.454-46.674 3.411-39.457 26.154-67.366 63.358-79.63 20.875-5.07 36.476-2.244 52.757 12.533 5.079 4.61 10.103 10.381 15.438 14.554l.625.482c-7.688-14.062-22.393-25.946-37.756-30.394-21.95-6.355-39.384 2.442-58.073 12.369 10.896-18.021 28.203-34.273 50.264-33.255 26.099 1.203 44.366 24.341 55 45.803 1.817 3.665 4.185 7.821 7.061 10.754-3.311-14.186-15.75-31.135-25.517-41.77-23.584-25.675-62.048-21.141-81.929 6.537-5.391 7.505-9.094 14.361-15.74 20.989 4.13-10.466 9.252-18.482 16.895-26.855a108.15 108.15 0 0 1 74.965-34.84"/><path fill="#fefefe" d="M351.594 559.689c11.935-1.221 28.945 3.434 36.566 13.29 1.725 2.231 4.56 8.605 1.563 10.609-4.536-.394-11.387-7.273-16.161-4.83.108 1.045.099 1.3 1.33 1.761 15.397 5.767 30.225 14.641 30.728 33.744-3.324.184-11.948 2.106-13.681 1.306a55 55 0 0 0-.713-2.811l-.78.454c-.949 1.505-1.87 3.601-2.221 5.875-1.574 10.203-7.08 27.639-1.831 36.902.771 1.36 10.498 2.68 12.751 3.109-2.289 5.456-5.395 10.15-10.826 12.807-15.076 7.374-22.392 4.808-30.322-8.737-1.28-2.694-2.606-6.193-4.841-8.004l-.453.512c.521 4.713 2.008 6.996 4.176 11.195-3.303 1.339-5.394 2.089-8.991 2.37-14.711 1.148-16.063-13.091-22.817-18.997l-.717.353c-.181 2.44 2.78 7.477 4.012 9.764-16.473 1.768-22.659-10.55-24.177-24.877-2.545-24.033 9.266-51.701 34.81-57.268 1.794-.391 4.671-1.171 5.846-2.617-5.254-3.672-14.336 5.671-17.686 1.23-1.424-11.913 15.352-16.193 24.435-17.14"/><path fill="#fefefe" d="M688.835 449.799c2.316.159 9.011.394 10.719 1.22q.241 1.362.51 2.719c2.154 2.025 37.35 3.343 42.444 4.413 1.262.266 1.834-.055 2.709-.856.25-1.551.281-1.79.817-3.253 1.912-.675 10.217.339 12.839.573-1.161 5.377-3.686 13.278-5.263 18.757-6.137-.026-11.801 1.1-16.489 5.424-4.58-.435-27.098-3.814-29.33-2.439 2.814 3.219 21.819 4.23 26.996 4.664-1.49 2.882-1.795 3.7-2.758 6.752-3.605-.803-23.795-5.269-26.02-2.581 1.961 2.186 20.593 3.648 25.448 4.791a155 155 0 0 0 2.238 6.846c-2.034 1.179-4.123 2.56-6.117 3.828-10.566-3.114-19.696-5.358-30.595-5-3.602.119-8.685-4.416-14.784-2.247l-.118.861c2.38 1.448 15.545 3.895 18.815 3.951 8.84.151 16.31 2.568 24.856 4.705-3.532 7.181-4.295 10.529-1.841 18.145-3.127 2.856-2.872 3.657-7.034 2.681-7.436-1.66-34.686-7.979-40.847-6.265v.801c2.639.925 14.366 2.926 17.354 3.473a1172 1172 0 0 1 24.975 4.985c-4.825 12.534-.317 19.903 12.015 23.968l-10.95 37.074c-20.688-5.907-45.706-11.234-67.018-16.685 2.363-6.729 4.719-15.373 6.803-22.319l12.841-43.017c5.226-17.549 12.457-38.62 16.785-55.969"/><path d="m701.624 463.701.733.599-.159 1.898.514.393c2.148-1.246 3.89-2.162 6.447-1.496-.342 1.441-4.951 4.093-6.542 5.142-1.171 3.496-2.076 11.417-3.963 13.57-1.414-.714-1.132-.807-2.115-2.338l-2.847-.588c-1.458-.077-.973.118-2.178-.51-.351-1.06-.464-1.479-.633-2.557l-.142-.931a52 52 0 0 1-1.478 3.826l-.918.332-1.15-1.196c.017-3.764 1.907-9.862 2.906-13.641 1.084-4.105 6.772.267 11.525-2.503"/><path d="M698.55 563.072c4.652-.132 26.002 1.637 14.708 9.746l-.539.122c-5.687 1.31-22.376-2.246-14.169-9.868"/><path fill="#fefefe" d="M699.317 565.922c2.873-.098 11.439.672 13.668 2.512.596.492.359.691.363 1.696-4.156.952-13.184 1.16-14.031-4.208"/><path d="M666.543 543.644c2.716-.394 4.244-.051 6.91.48a2233 2233 0 0 1 29.188 6.244c4.042.896 14.95 2.521 17.08 5.681-3.353 1.063-19.878-3.591-24.649-4.534-8.611-1.701-17.867-3.688-26.419-5.781-1.662-.407-1.454-.742-2.11-2.09"/><path d="M673.435 530.463c3.666-.398 3.427-.656 5.144 2.276 2.502 1.183 3.324-.722 6.424-.467 7.755.638 6.605 4.111 14.199 1.726l3.285 2.59.587.018.942.042c3.255.129 8.967.807 11.276 3.215-.615 1.338-.817 1.038-2.588 1.833-1.667-.786-3.55-1.917-5.184-2.834-7.145 1.725-6.711-2.572-15.108-.896-6.294-5.375-10.135-.111-15.038-2.448-3.13-5.099-3.264-.62-6.382-2.126.256-1.359 1.328-1.975 2.443-2.929"/><path d="M686.311 502.665c1.131 1.081 1.95 2.954 3.135 4.381 7.699 3.731 9.2-5.779 18.54 4.233 3.071-.332 7.332-1.49 9.464.913l-.22.893c-.702.287-7.329.692-9.165.961-2.272-1.086-3.949-3.384-5.852-5.312-7.828 1.653-12.542 4.582-16.927-3.58-2.186 1.267-3.659 2.553-5.979 1.999l.031-.96c2.33-2.667 3.398-2.714 6.973-3.528"/><path d="M709.475 466.547c4.255.256 35.919 3.534 37.713 4.588.669.392.526.935.645 1.635-8.006.05-29.227-1.765-37.404-4.45-.802-.263-.694-.782-.954-1.773"/><path d="M662.822 557.007c3.622-.062 21.972 3.695 23.686 6.378-3.792 1.714-16.195-2.639-20.728-3.609-2.025-.434-2.254-1.34-2.958-2.769"/><path fill="#f5742d" d="M607.363 239.218c29.249-1.332 61.478 3.722 32.35 39.083-10.684 12.97-25.212 22.289-39.765 30.355-1.445-3.97-3.353-8.421-4.941-12.387 6.958-7.241 18.796-20.403 9.314-30.189-5.018-5.179-15.931-6.728-22.921-6.463-68.48 2.598-142.075 23.963-191.385 73.706-6.074 6.874-15.551 17.731-16.394 27.117-.983 10.946 18.503 11.027 25.423 11.193a893 893 0 0 1 2.873 9.487c-10.531.923-28.09 1.087-36.529-6.354-13.398-12.101 1.486-34.162 10.96-43.756 58.177-58.912 150.126-87.894 231.015-91.792"/><path fill="#f5742d" d="M370.543 711.411c1.626 1.373 3.825 12.941 4.961 16.258a39.3 39.3 0 0 0 3.948 8.355c5.059 7.944 12.896 12.349 21.909 14.285q-.269 1.39-.507 2.783c-3.853 22.622 3.532 41.672 16.521 59.917-4.742 6.969-7.594 13.441-11.209 21.036-5.033-2.536-9.902-5.851-14.437-9.179-10.07-7.858-12.675-16.014-19.975-23.998-15.617-17.08-28.159-24.212-38.264-46.779 9.434-16.647 23.105-29.873 37.053-42.678"/><path fill="#f5742d" d="M609.505 770.374c5.832 2.758 11.421 4.012 17.132 6.599l-.154 15.111c2.773-.289 5.469-.21 8.251-.187l-.241-14.577c2.387.125 4.77.422 7.143.71 9.207 1.115 18.432 1.526 27.698 1.931.423 4.481 1.926 9.679 3.126 14.057-13.963 13.02-33.212 26.881-50.209 35.572-12.587 6.002-24.178 9.614-37.367 13.874-9.819-14.253-18.691-44.94-22.503-61.983 22.041 6.607 30.511 4.906 47.124-11.107"/><path fill="#aeacb1" d="m548.1 595.003.543.123c1.094 2.037-2.145 31.164-2.18 36.498-18.686 15.494-1.438 38.057-10.181 56.102-5.185 10.703-29.664 9.617-38.71 4.116-17.564-14.466-1.222-34.694 3.444-50.662 3.103-10.619 5.061-21.175 6.843-32.079 13.501-5.186 26.512-9.487 40.241-14.098"/><path fill="#fefefe" d="M458.316 795.217q1.07.04 2.14.096c14.317.745 24.614 8.036 31.104 20.72 5.494 10.736 5.323 21.839 4.545 33.554a196.6 196.6 0 0 1-46.185-1.738c-13.09-2.345-29.617-6.287-41.114-12.78 9.343-24.295 23.009-37.869 49.51-39.852"/><path fill="#fefefe" d="M330.055 754.271c1.131 1.194 3.855 6.187 4.684 7.978 7.058 15.259 19.989 24.606 31.496 36.376 7.71 7.679 14.264 20.519 22.657 27.172 28.572 22.648 68.72 28.362 104.255 26.784 1.168-.052 2.108.938 2.81 1.847 1.405 4.806-2.854 13.021-7.353 15.177-33.742 5.48-73.957-3.588-101.718-23.576-11.754-8.463-20.553-23.841-30.123-34.812-11.184-12.822-26.784-25.412-34.671-40.473 2.495-6.182 4.552-10.748 7.963-16.473"/><path fill="#9b7c58" d="M387.714 544.16a4221 4221 0 0 1 50.338 8.645c9.464 1.691 18.476 3.073 27.851 5.271-.938 6.331-6.916 22.235-9.209 28.594-3.262-.751-7.198-1.204-10.565-1.675-2.594 6.266-4.472 11.092-6.56 17.53-6.407.343-12.805.851-19.186 1.523-4.157.674-6.105-.039-9.619 2.488-.704 1.626-.555.785-.343 2.633 4.376 4.8 20.56-1.262 25.961.177l-.549.724c-1.908 1.065-23.26 3.308-27.239 3.818-.842-8.983-3.197-16.065-10.165-22.3-2.064-1.846-4.17-3.279-5.454-5.681 2.416-12.802-4.279-17.367-13.848-24.052 2.672-6.41 5.122-11.687 8.587-17.695"/><path fill="#fefefe" d="m755.793 757.576 1.435.028c4.019 2.414 5.233 9.472 6.441 14.02-30.229 7.746-58.548 23.119-83.815 41.194-12.356 8.509-24.418 19.612-37.409 27.088-16.433 9.458-34.652 14.582-51.547 23.697-3.728-.781-7.899-11.578-7.708-15.135 3.455-3.668 23.182-9.658 29.195-11.886 23.312-8.637 38.85-21.291 58.002-36.891 25.38-20.673 53.328-34.748 85.406-42.115"/><path fill="#fefefe" d="M750.213 476.079c2.299-.2 4.493-.23 6.808.027 12.511 1.393 27.051 12.947 20.997 26.766-1.037 2.367-2.701 4.4-4.288 6.47 2.99 13.623 1.102 17.048-8.21 26.878-.069 15.887-6.877 24.293-21.759 28.675.91-3.618 2.107-6.934 3.321-10.457-7.62-9.796-19.313-2.899-25.931-12.181-5.057-7.091-1.209-15.092 5.066-19.434 14.234-6.792 23.647 4.431 28.209 3.992l.195-.691c-3.149-4.948-12.884-8.09-18.628-7.758-7.148.413-12.632 3.513-10.722-7.143 2.475-13.813 20.515-17.111 31.656-12.485 3.029 1.267 7.328 5.212 10.424 5.889l.815-.534c-1.288-4.446-11.219-8.354-15.61-9.279-5.785-1.22-10.925-.393-16.612.742-4.616-11.645 3.895-17.293 14.269-19.477"/><path fill="#9b7c58" d="M309.392 531.407c5.261.352 12.031 1.66 17.317 2.547l28.262 4.841c-3.076 6.802-5.171 11.641-7.664 18.632-12.028 2.734-26.63 7.705-21.588 23.158-13.628 9.421-19.419 19.093-23.045 35.273-1.141 6.545-1.195 11.042-1.099 17.643l-28.465-6.08c9.184-22.228 16.811-46.202 25.6-68.685 3.15-8.058 6.733-19.904 10.682-27.329"/><path fill="#fefefe" d="M712.785 728.699c19.15-1.103 32.551 11.859 42.567 26.439-20.729 5.142-36.937 11.182-55.501 21.55-6.705 3.585-19.042 11.392-25.011 15.836-9.956-31.018 3.223-61.14 37.945-63.825"/><path fill="#aeacb1" d="M554.948 564.541c16.383-2.299 13.392 18.741 6.786 22.198-7.625 3.99-22.139 8.615-30.702 11.599l-60.913 21.053c-1.191.005-1.938-.108-3.111-.237l-.408-.595c.931-1.319 1.095-1.393 1.534-2.988-1.885-4.158-5.857-2.111-8.386-4.818-.672-3.381 3.422-11.307 5.032-14.706 9.201-4.161 23.857-8.56 33.627-12.096 18.746-6.785 37.624-13.138 56.541-19.41"/><path fill="#9b7c58" d="M682.886 440.35c6.374.138 12.202.329 18.56.765-.439 2.156-.772 4.541-1.126 6.731-3.594-.414-9.651-.443-13.435-.58-1.69 5.416-3.071 11.19-4.752 16.698a3924 3924 0 0 0-20.51 67.87c-2.334 7.806-11.068 34.484-11.375 40.552 5.394 3.573 59.57 15.569 70.881 18.305 4.464-12.543 7.505-27.476 12.259-40.217l5.927 1.036-1.387 5.045a1212 1212 0 0 1-9.342 31.473 302 302 0 0 1-3.803 11.516c-.678 1.922 1.2 3.147-.226 6.755-1.247.047-19.302-4.565-21.585-5.133-18.916-4.71-38.019-9.161-56.868-14.137-2-.528-4.24-1.296-5.996-2.384-.577-1.333-.448-1.79.025-3.503 4.821-17.422 10.296-34.924 15.541-52.206a4948 4948 0 0 1 27.212-88.586"/><path fill="#fefefe" d="M587.55 693.911c4.697.671 12.664 24.34 16.96 29.623 5.115 6.291 4.871 6.731 12.029 11.472-10.4 1.365-25.76 8.389-20.998 22.031 1.894 5.427 7.764 7.835 12.757 9.837-1.279 1.507-2.684 2.721-4.137 4.055-27.948 2.407-33.275-9.085-43.261-31.984-3.273-7.506-8.177-16.736-11.861-24.243 1.757-.995 3.714-1.957 5.519-2.891 3.286 6.152 10.658 21.965 16.09 24.828-.97-4.748-10.524-20.307-13.537-25.943 2.03-1.24 4.216-2.358 6.319-3.482 4.662 9.396 8.774 18.728 15.843 26.562-1.805-6.515-10.214-21.29-13.694-27.789l6.325-3.367c4.393 7.102 10.567 21.324 16.197 26.588-2.026-6.925-10.295-21.133-14.266-27.529 2.062-1.389 4.047-2.386 6.235-3.549 5.253 8.541 8.551 17.507 15.646 24.611-1.762-6.918-9.139-18.009-12.604-25.718z"/><path fill="#aeacb1" d="M556.529 531.574c14.204-.598 12.698 18.559 4.228 22.722-8.531 4.193-19.647 7.499-28.78 10.608a4958 4958 0 0 0-57.629 19.755c-3.262 1.038-4.831 1.319-8.177 1.891 1.904-6.173 5.324-15.714 6.419-21.653-.685-1.195-1.425-3.204-1.968-4.551l49.692-16.862c11.425-3.895 24.676-8.666 36.215-11.91"/><path fill="#fefefe" d="M436.174 677.927c3.624 3.853-.553 6.905-3.335 9.275-6.707 5.715-13.126 11.264-18.303 18.461 8.013-4.948 16.142-12.949 23.434-19.302 1.427 2.293 2.61 4.841 3.816 7.27-10.265 8.758-13.152 9.455-22.598 20.953 8.588-5.212 16.322-12.636 23.744-19.409l4.973 5.749c-7.722 6.501-15.308 12.266-21.178 20.508 4.635-2.329 7.391-4.936 11.29-8.316 3.858-3.527 8.245-7.592 12.57-10.423l4.693 4.965c-6.615 5.177-12.626 9.933-18.646 15.801-7.173-.118-8.597-.411-10.439 7.039-15.295-1.923-19.676 2.135-19.727 17.532-9.127-6.404-16.559-12.622-14.889-24.984a26.6 26.6 0 0 1 4.753-11.809c6.423-8.97 29.941-25.932 39.842-33.31"/><path fill="#9b7c58" d="M430.377 628.238c.946-.254.721-.15 1.771-.03 2.249 4.584 4.143 4.119 8.835 5.214-3.035 7.669-5.406 15.734-8.588 23.645a1251 1251 0 0 1-29.726-5.974 492 492 0 0 1-16.267-3.308c.324-5.265 1.117-10.526 1.822-15.757 11.891-1.923 29.674-2.874 42.153-3.79"/><path fill="#f5742d" d="m404.34 750.673.166.047c4.233 1.169 8.134 5.255 12.617 7.098 3.123 1.283 9.186 1.026 9.555 3.994-2.856 2.795-11.088 1.907-14.837 1.001-3.783 3.689-8.382 10.264.419 11.635 4.934.769 12.328-1.54 17.346-2.701 1.026 3.643 1.637 6.07 3.228 9.507-5.373.453-23.691.903-20.22 10.008 1.13 2.964 2.519 3.932 5.318 5.211 6.624-2.436 10.947-4.624 17.896-6.503l3.838 6.225c-9.678 4.622-13.352 7.545-20.764 15.225q-.503-.724-.985-1.462c-12.735-19.627-18.355-36.071-13.577-59.285"/><path fill="#aeacb1" d="M726.833 427.073c9.977-1.177 11.737 5.351 7.457 13.174 3.946.379 9.327.436 13.387.603-3.188 5.431-3.875 8.673-4.669 14.794-5.525-.383-11.458-1.036-17.001-1.555a1090 1090 0 0 0-23.752-1.802c.317-5.35 1.17-8.494 2.836-13.538 5.051.175 10.357.529 15.422.781-.021-6.37.533-9.174 6.32-12.457"/><path d="M727.151 429.812a5.053 5.053 0 1 1 2.958 9.664 5.053 5.053 0 0 1-2.958-9.664"/><path fill="#fefefe" d="M727.672 432.283a2.558 2.558 0 1 1 1.556 4.866 2.557 2.557 0 0 1-1.556-4.866"/><path fill="#f5742d" d="M389.426 700.534c4.493-.241 5.17.276 8.857 3.007-7.864 11.235-13.771 25.133-3.987 37.717 1.49 1.917 3.516 3.31 4.68 5.44-1.337.512-1.652.049-3.404-.493-17.221-8.043-19.879-20.632-21.081-37.996 4.61-3.816 9.407-5.627 14.935-7.675"/><path fill="#f5742d" d="M566.468 757.79c2.323 1.441 3.525 5.805 6.183 8.159 8.595 7.611 19.303 7.825 29.808 7.738-3.297 2.685-5.192 3.873-8.867 5.909a54 54 0 0 1-4.788 1.833c-9.693 3.152-18.113.963-26.893-3.454-1.077-7.948-1.335-14.138 4.557-20.185"/><path fill="#f5742d" d="M666.656 748.029c2.096.413 5.67.632 7.899.838-4.604 11.348-5.112 16.43-5.52 28.572-11.408-.55-22.131-.945-33.409-2.952l-.521-.74c.127-2.771.617-4.591 1.209-7.277 2.514 2.186 3.948 3.03 6.773 4.784 2.905-1.593 3.44-1.968 5.99-4.093 3.98 1.853 9.949 5.173 13.142.377.464-3.224-.349-4.202-2.157-6.986 2.057-4.663 4.009-8.16 6.594-12.523"/><path fill="#fefefe" d="M656.499 698.003c24.136 2.916 12.69 31.671-7.001 34.755-1.196-.739-.793-.236-1.256-1.555 1.156-4.635 10.508-6.137 15.673-14.962.254-2.682.087-8.019-1.856-9.884-10.655-10.23-14.399 22.117-19.572 22.467-1.267-2.622-.447-7.554.406-10.324 2.605-8.47 5.451-15.973 13.606-20.497"/><path fill="#fefefe" d="m659.705 502.553.533.204.338.977c-1.115 4.828-12.481 42.261-13.817 43.515l-.751-.678c-6.888-14.09-4.806-40.708 13.697-44.018"/><path fill="#fefefe" d="M477.872 734.618c14.544.268 16.482 15.648 6.272 23.565-4.947 3.835-23.544 3.066-26.695-1.885l.43-.717c4.121-1.664 12.913-.678 17.771-.406 3.016-.698 7.406-2.001 8.45-5.366.508-1.638.524-5.546-.633-6.932-6.414-7.684-21.76 7.266-26.704 5.785.369-6.586 15.618-12.553 21.109-14.044"/><path fill="#fefefe" d="M628.728 737.179c.79-.022.876.166 1.711.533l.054.576-.841-.842.762 1.161-.287.555c-5.701 3.983-11.007 3.248-17.585 5.329-3.073.824-6.74 1.901-8.435 4.827-1.729 2.986 1.662 8.64 4.738 9.27 9.137 1.871 17.47-13.391 22.461-16.095 1.236.647 1.172.888 1.882 2.156-.296 2.134-.736 2.026-2.31 4.021-5.997 7.212-17.566 19.149-27.822 13.122-5.442-3.199-7.72-11.297-3.498-16.366 6.836-8.208 19.464-6.814 29.17-8.247"/><path fill="#fefefe" d="M417.398 732.093c8.343.515 16.426 3.354 22.642 9.199 1.124 1.057 3.113 3.422 3.102 5.051-6.88-.178-19.782-14.608-26.91-6.171-2.865 3.391-.869 7.816 2.345 10.212 7.841 2.631 14.052.267 19.991 1.989 1.023 1.195.7.484.672 2.33-1.836 3.125-6.039 2.806-9.355 2.739-10.401-.212-25.607-5.168-20.423-18.615 1.367-3.545 4.541-5.22 7.936-6.734"/><path fill="#fefefe" d="M615.096 704.054a26.5 26.5 0 0 1 4.075.627c7.091 1.664 17.343 14.984 15.588 22.105l-.859.44c-3.196-1.449-6.613-9.168-9.101-12.211-1.848-2.26-2.75-3.027-4.958-4.889q-1.427.517-2.833 1.09c-4.876 2.013-6.963 5.193-4.677 10.245 2.614 2.996 5.799 6.292 9.159 8.449 2.537 1.628 4.519 2.327 6.784 4.374l-.161.687c-10.872 1.956-39.489-20.518-13.017-30.917"/><path fill="#82838a" d="M446.281 612.707c1.872-.23 5.63-.195 7.652-.239-.102 4.048-.066 5.953 1.268 9.762-6.792.696-14.111 1.969-21.086 2.766a407 407 0 0 1-6.79.656c-7.867-14.575 9.27-12.312 18.956-12.945"/><path fill="#9b7c58" d="M749.043 444.064c6.434.598 15.236.721 21.938 1.095-2.587 9.272-6.097 19.701-8.908 29.031-.604.153-5.108-.767-6.02-.938 1.1-3.876 6.317-16.91 4.96-19.823-2.543-1.897-10.701-2.066-14.582-2.632.892-3.214 1.092-3.784 2.612-6.733"/><path fill="#82838a" d="m415.32 615.686 1.992-.187c1.398 1.146.848 6.155 2.516 10.228l.28.665c-7.162.03-17.355 1.23-24.56 1.967l-6.498.735c.562-3.269 1.335-6.76 2-10.033 7.655-1.437 16.462-2.379 24.27-3.375"/><path fill="#aeacb1" d="M447.777 587.82c4.071.335 11.787 1.011 14.032 4.71.639 3.399-3.702 12.529-5.257 16.959-1.229.857-1.945.795-3.143.137-2.291-7.208-4.56-7.237-11.414-7.359q2.934-7.206 5.782-14.447"/><path fill="#fefefe" d="M430.425 726.104c17.722-.871 23.914-1.415 19.548 17.927-.761-.101-3.369-.396-3.823-.826-3.56-3.378-15.329-9.259-16.923-13.349.181-2.086.096-2.02 1.198-3.752"/><path fill="#fefefe" d="M450.811 781.708c3.881-.523 10.525.028 14.689-.406 1.467-.153 1.774.31 2.549 1.089.482 1.83.578 1.003.001 2.576-2.499.771-11.015.752-14.236.922-5.105.234-10.19.792-15.224 1.671-3.516.661-13.703 3.215-16.162.784 2.496-5.674 22.812-6.164 28.383-6.636"/><path fill="#aeacb1" d="m550.38 561.579.995.025.368.518c-3.329 2.819-67.605 23.938-75.041 26.259-.775-.068-.429.091-.991-.568 4.594-3.726 66.308-23.912 74.669-26.234"/><path fill="#9b7c58" d="M386.915 650.81c8.627.444 34.929 7.397 44.967 8.946 1.302.201 2.406 2.604 3.073 3.862-9.041-.606-35.388-7.402-45.601-9.243-1.078-.194-1.924-2.444-2.439-3.565"/><path fill="#fefefe" d="M438.325 763.702c2.831-.522 8.51-.257 11.451-.151 1.592.057 1.656.637 2.703 1.845-2.222 2.239-16.476 3.314-20.347 3.774-4.515.5-9.125 2.375-13.193 1.188-1.531-1.505-.999-.611-1.449-2.891 2.413-2.558 16.807-3.359 20.835-3.765"/><path fill="#9b7c58" d="M742.035 552.296c.697.533 1.065.835 1.467 1.643 1.113 2.236-13.342 47.158-14.742 51.732-.507.119-.168.096-.965-.329-1.413-4.272 5.231-23.4 6.835-28.667 2.225-7.311 4.64-17.401 7.405-24.379"/><path fill="#fefefe" d="M616.66 713.435c.552-.038 2.045-.156 2.512.079 3.843 1.931 12.224 12.963 10.666 17.119l-1.108.375c-6.257-3.005-19.918-9.485-12.07-17.573"/><path fill="#fefefe" d="M445.978 747.004c10.674.325 11.917 5.417 5.219 13.053-8.721-.162-13.139-7.333-5.219-13.053"/><path fill="#fefefe" d="M673.337 731.784c.821.436.43.104.998 1.174-.983 3.249-7.234 10.625-9.42 14.003-3.644 5.632-5.726 11.052-9.461 16.6-1.776-2.228-1.498-3.337-.62-6.025 2.5-7.651 11.591-21.966 18.503-25.752"/><path fill="#fefefe" d="M477.336 743.079c2.587.24 4.808.914 5.371 3.715-1.993 6.74-11.501 5.949-16.833 5.707-1.376-.081-3.703-.467-5.147-.658 4.52-3.857 10.783-7.494 16.609-8.764"/><path fill="#fefefe" d="M454.176 788.204c2.132-.262 6.664-.289 8.981-.373l1.451 5.179c-6.165-.169-10.103.033-16.191.817l-7.371 1.865-2.185-5.799c5.446-.769 9.816-1.267 15.315-1.689"/><path fill="#fefefe" d="M657.113 707.254c2.84.269 5.865 2.318 5.064 5.556-1.303 5.268-5.731 8.394-9.944 11.215-.73.409-1.549.789-2.305 1.162l-.804-.28c-1.041-3.684 5.582-14.784 7.989-17.653"/><path fill="#fefefe" d="m653.912 734.475.956.328c-.03 2.394-2.864 5.818-4.149 8.353-3.562 7.028-4.117 14.334-9.002 20.539-4.217-3.923 5.401-22.46 7.578-27.007z"/><path fill="#fefefe" d="M636.291 730.533c9.558.279 13.828 4.19 4.681 11.053-8.603 3.101-10.424-4.76-4.681-11.053"/><path fill="#fefefe" d="M444.986 769.695c4.265-.597 14.376-.838 16.428 3.895l-.572.911c-3.739 1.661-6.536.686-10.724.064-6.678-.64-13.286-1.583-19.933-2.483 5.253-1.309 9.464-1.743 14.801-2.387"/><path fill="#fefefe" d="M457.073 709.835c1.514.723 2.625 2.009 3.851 3.197-3.731 3.295-11.085 10.75-15.547 10.825-1.701-.123-3.051-.319-4.74-.572l.014-.37c3.858-3.827 11.949-9.893 16.422-13.08"/><path fill="#fefefe" d="M635.148 747.864c.455 3.689-1.813 21.316-2.975 25.795-.343 1.323-1.936 1.548-3.288 2.044-1.844-8.102 1.034-21.359 6.263-27.839"/><path fill="#9b7c58" d="M274.083 630.277c6.224.708 19.884 4.106 26.38 5.839 1.61.43 1.713 1.753 2.175 3.155-5.085-.193-16.346-2.843-21.716-3.922-3.979-.799-5.002-1.816-6.839-5.072"/><path fill="#9b7c58" d="M443.384 634.233c.749.673 1.436 1.398 2.144 2.115.307 2.443-7.05 21.062-8.467 25.118-1.205-.644-.956-.78-1.712-2.256-.215-3.853 6.312-20.262 8.035-24.977"/><path fill="#f5742d" d="M619.877 762.466c1.921 2.279 7.343 7.336 5.715 10.249-1.664.68-3.394-.03-5.213-.489-3.98-1.309-5.477-2.091-8.748-4.447 2.855-2.441 4.968-3.491 8.246-5.313"/><path fill="#9b7c58" d="M468.108 561.339c.576 1.16 1.313 3.4 1.78 4.683-1.362 4.322-6.054 20.932-8.405 22.963l-1.393-1.122c-.834-2.109 6.912-23.206 8.018-26.524"/><path fill="#9b7c58" d="M773.442 446.272c.244.34 1.046 1.585 1.118 1.958.721 3.77-6.897 26.4-7.992 28.293l-1.728-1.319c-.426-1.846 7.326-25.302 8.602-28.932"/><path fill="#fefefe" d="M615.65 746.029c.866 2.095 1.266 2.95 2.443 4.88l.468.701c-2.958 2.642-8.212 5.904-11.356 1.685-.823-5.333 4.468-6.186 8.445-7.266"/><path fill="#fefefe" d="M433.102 775.382c4.519.056 18.544 1.116 22.634 2.429l-.375.566c-4.372.623-16.036 2.044-19.916 1.6-1.419-1.25-1.701-2.765-2.343-4.595"/><path fill="#fefefe" d="M420.376 739.472c6.169.342 8.496 4.821 4.731 9.889-6.44-.946-9.809-3.836-4.731-9.889"/><path fill="#aeacb1" d="M433.756 605.204c3.344-.528 12.684-.995 15.326 1.302.586 1.595.668 1.506.389 3.152-1.23.658-.566.425-2.223.232a64 64 0 0 1-2.037-2.702c-3.16-1.517-9.359-.582-13.088-.285-4.426.306-16.9 2.319-19.439.96a213 213 0 0 1 21.072-2.659"/><path fill="#f5742d" d="m654.17 749.651.294-.003.335.5c-1.342 4.323-3.399 12.28-5.581 15.866l-1.834-6.226c1.215-5.956.499-8.744 6.786-10.137"/><path fill="#aeacb1" d="M448.177 626.181c1.212-.292.772-.309 1.983.073.189 1.827-1.431 5.791-2.107 7.846-2.409-1.61-3.193-2.01-5.865-3.145-1.705-.409-4.802-.788-5.306-2.604 1.914-1.206 8.706-1.823 11.295-2.17"/><path fill="#fefefe" d="M673.258 739.558c2.364.162 4.39.426 6.722.74-1.082 1.878-2.726 4.994-4.603 5.997l-7.429-.702c1.962-2.567 3.041-3.74 5.31-6.035"/><path fill="#fefefe" d="M429.613 742.596c2.591 1.257 8.728 3.802 8.727 6.845l-10.116.062z"/><path fill="#fefefe" d="m657.312 738.34 5.398 1.412c-1.922 3.251-2.413 4.412-5.775 5.985l-5.587 1.501c2.127-3.891 3.216-5.462 5.964-8.898"/><path fill="#f5742d" d="m679.6 732.642 8.967-.044c-1.89 1.697-3.706 2.93-5.764 4.401-2.034.499-4.557 1.06-6.413-.039l-.24-.96c.853-1.664 1.941-2.24 3.45-3.358"/><path fill="#fefefe" d="M628.879 777.607c.909.268 1.604.259 2.003.896 1.661 2.642 1.164 8.866.859 11.888-.543-.176-1.316-.55-1.861-.791-2.266-3.137-1.473-8.195-1.001-11.993"/><path fill="#f5742d" d="M465.398 787.823c6.085.324 6.023 2.319 8.137 7.457l-.903-.267c-4.723-1.446-4.987-2.849-7.234-7.19"/><path fill="#f5742d" d="m417.299 785.604 1.368.478c2.243 2.928 2.318 4.673.178 7.519-4.462-1.909-3.908-4.575-1.546-7.997"/><path fill="#f3ab7c" d="M619.035 745.563a597 597 0 0 1 7.845-1.664 303 303 0 0 1-8.319 7.711l-.468-.701z"/><path fill="#fefefe" d="M436.437 759.164c2.509-.069 4.99.437 7.483.826-2.608.798-3.629 1.156-6.378 1.432-2.24.372-4.137.965-6.08-.132l.035-.778c1.559-1.188 2.958-1.116 4.94-1.348"/><path fill="#f5742d" d="M626.876 756.875c1.471 1.391-.215 5.783-1.943 6.987-.965-1.105-1.26-1.249-1.644-2.669.337-1.737 2.199-3.043 3.587-4.318"/><path fill="#f5742d" d="M412.624 765.852c.296.174 1.145.88 1.449 1.122.946 2.321.821 3.794-.086 6.115-3.765-1.904-2.898-4.052-1.363-7.237"/><path fill="#fefefe" d="M465.579 588.621c1.989-.061 5.417-.32 7.025.454l-1.312.881c-1.699.717-3.997 1.966-5.713 1.76-.773-1.333-.457-1.091 0-3.095"/><path fill="#aeacb1" d="m422.201 614.771.632.641c-.25 5.11.034 6.232 1.169 11.012-3.923-2.568-2.929-7.894-1.801-11.653"/><path fill="#fefefe" d="M638.538 749.377c.867-3.954 2.487-4.629 5.728-7.106-1.45 2.853-3.303 6.275-4.584 9.144z"/><path fill="#f3ab7c" d="m638.538 749.377 1.144 2.038c-.832 2.694-1.557 5.412-2.884 7.897.206-3.584 1.412-6.398 1.74-9.935"/><path fill="#aeacb1" d="m457.045 613.83.479.381c.809 1.52.729 3.757.83 5.547l-1.009-.542c-.794-1.95-.466-3.205-.3-5.386"/></svg>