<svg xmlns="http://www.w3.org/2000/svg" width="1024" height="1024" viewBox="0 0 1024 1024"><path d="m702.116 226.59-1.742 11.861c3.124 1.703 7.999 4.172 10.845 6.067-3.882 1.031-7.566 1.759-11.499 2.55-.444 1.898-1.038 3.849-.965 5.776l.277.248c7.562 2.151 11.681 3.893 16.825 10.349 12.907-1.172 21.394 2.612 26.571 14.986 6.645 2.121 10.196 3.988 13.779 10.633 6.077 11.274 2.811 30.222-1.189 41.745-5.251 15.13-11.298 24.701-25.711 31.879.779 17.281-10.778 18.015-24.322 17.784a283.4 283.4 0 0 1-100.14 121.563c-9.274 6.447-21.895 15.328-32.617 18.703-2.332 11.6-2.974 23.905-4.646 35.549 4.811 1.315 7.002 1.808 9.89 6.544 1.902 3.118 2.167 7.712 1.157 11.209a14.75 14.75 0 0 1-7.346 9.019c-2.361 1.239-5.131 2.417-7.56 3.595 5.237.625 8.751.744 12.301 5.228 5.253 6.635 2.548 17.134-4.331 21.479-2.847 1.798-7.129 3.167-10.286 4.281-1.255 8.854-2.423 19.892-3.915 28.547 19.756 24.99 37.147 70.96 44.449 101.766 3.009-1.136 6.602-2.594 9.637-3.477 1.55 8.967 2.862 18.984 4.052 28.055 8.465 2.012 8.694 3.396 13.979 10.555 1.49-3.808 3.372-7.123 7.36-8.842a12 12 0 0 1 9.501.076c3.795 1.652 7.188 5.439 8.482 9.304 4.115 12.284-3.85 17.673-14.071 20.364.998 1.915 2.14 4.263 3.27 6.059 7.511 3.85 8.923 3.931 14.655 10.614 28.38 6.445 39.294 31.453 36.949 59.55-.374 4.472-13.539 5.442-17.018 6.407-31.853 4.793-66.358 3.244-97.048-7.018-6.614-2.212-22.733-8.633-26.821-14.703-3.939-5.848 2.261-15.409 2.922-20.693 2.043-16.322 2.738-33.9 7.571-49.704.955-3.115 3.229-5.359 6.093-6.876-1.279-9.208-4.684-29.216-5.061-37.639 2.38.013 4.853-.013 7.223.072-7.133-23.608-11.156-38.437-22.367-60.426-.716 5.687-2.421 16.651-2.699 22.262-1.163 23.493-9.983 31.446-33.614 28.438-5.318-.677-11.092-4.101-14.305-8.508-5.918-11.362-5.131-32.051-7.215-44.861-8.555 13.468-15.3 40.974-17.88 56.823 2.635-.023 5.433-.123 8.043.106-.207 9.172-1.779 22.798-2.74 32.199-1.174-2.956.614-4.435-1.214-7.635-.376 3.719-.877 7.811-1 11.509 1.345 1.026 1.273.928 1.844 2.52.249.426.277.647.768.873 1.776.818 6.16 5.261 6.697 7.057 5.053 16.916 5.631 36.663 6.83 54.223.18 2.634 2.269 7.072 2.3 9.893.032 2.905-.379 5.631-1.175 8.325-.567 1.918-1.419 2.955-3.213 3.758-5.429 2.428-13.609 3.822-19.355 5.156-35.329 8.202-114.71 12.867-148.61 1.261-2.102-9.434.567-15.732 2.299-24.674 3.381-17.47 14.3-33.393 32.695-36.912 4-.765 9.052.213 12.949-.645 4.212-.927 9-5.07 12.856-7.001 3.288-1.715 8.938-.407 10.536-4.698-.269-4.799-14.704-10.716-10.101-21.392 8.857-20.539 23.65-11.142 30.968 4.744 1.485-3.779 2.42-6.326 4.441-9.817 5.125-2.939 8.316-2.663 14.069-2.581.143-6.753 1.467-24.538 2.896-30.906 2.785.673 6.149 1.779 8.945 2.618 6.933-37.289 16.047-66.951 40.296-96.919.84-1.039.639-1.411.368-2.451-2.721-1.495-7.736-.454-10.026-1.714-8.013-4.412-7.423-19.157-.151-24.099 2.15-1.462 7.046-3.26 7.82-4.809-1.164-.933-4.556-.821-6.22-1.336-7.428-2.263-8.637-10.001-6.557-16.62 1.904-6.057 4.804-8.332 9.984-11.191-3.162-20.245-4.534-41.664-7.436-62.138-54.545-26.646-106.461-87.879-128.062-144.177-15.369.022-24.202-1.004-24.389-18.639-13.915-6.088-21.773-17.793-26.093-32.172-3.713-12.359-7.271-29.591-1.083-41.812 3.083-6.091 7.875-8.5 14.114-10.21 4.481-12.125 13.747-17.287 26.55-15.518 5.359-6.226 8.022-7.463 15.564-9.845l.812.032c4.626.146 6.047-.604 10.45-1.727 2.172 2.496 4.482 5.995 6.676 7.737.845 1.258 2.548 3.016 3.551 4.424 3.376 4.736 4.638 8.661 6.416 14.108 19.844 5.469 13.738 36.377 7.773 50.24-2.496 5.801-5.986 10.956-9.621 16.071 7.7 11.433 5.109 19.003-5.201 27.28a271.7 271.7 0 0 0 80.959 107.483c3.99 3.153 13.901 11.292 18.006 12.962l.361-.598c-1.257-3.067-7.614-6.373-10.411-8.706-29.241-24.401-32.824-60.693-23.689-96.205-15.433-7.879-42.598-23.977-47.027-42.195-6.449-26.529 40.029-22.404 55.704-22.361 5.767-11.95 22.387-30.439 34.423-35.892 12.288-5.566 9.808-4.351 19.516-14.749 11.546-12.367 25.806-15.839 42.381-16.908 2.295.068 4.987.076 7.241.234 8.007.374 19.464 2.376 26.904 5.47.802-.747.93-1.653 1.338-2.798 3.063 1.777 6.217 3.664 9.329 5.331l-.847 2.088c18.998 10.025 31.417 23.863 40.461 42.982 1.081 2.285 2.89 6.351 4.953 7.714 4.43-5.831 10.188-15.247 14.238-20.196 3.419 1.381 5.58 2.83 8.538 5.017-3.178 6.059-11.661 21.928-15.577 26.826 13.419 27.167 12.952 50.151 7.495 79.126 2.86 5.221 4.597 8.733 6.467 14.362 13.194-18.757 15.481-24.581 25.838-44.693-8.824-7.865-14.488-16.457-5.738-27.318-10.067-15.033-24.042-45.08-7.845-61.68 1.507-1.544 4.647-2.79 6.697-3.678 3.121-12.972 8.306-20.587 21.452-24.779a175 175 0 0 1-2.129-4.506c-3.939.547-8.571 1.066-12.377 2.009 2.829-3.713 5.435-6.235 8.707-9.523-1.797-3.338-3.979-7.154-5.656-10.517 3.792 1.865 7.176 3.532 11.105 5.133 2.721-3.249 5.273-6.353 8.5-9.124M615.38 439.074a70.7 70.7 0 0 1-5.724 15.781c-1.17 2.379-8.401 13.827-8.252 14.81 4.889-3.967 32.652-27.62 33.562-31.981-6.382 1.779-12.988 1.567-19.586 1.39m-195.2 351.801c-5.671.737-4.928 4.678-4.688 9.169 2.182 1.12 4.366-1.206 5.062-3.125 1.045-2.882.708-3.353-.374-6.044"/><path fill="#f5742e" d="M474.381 313.827c3.712-5.492 6.762-13.221 9.634-19.354 6.928-14.782 19.696-32.21 35.552-38.398 39.028-15.232 89.163 8.229 104.925 45.928-4.861-4.232-6.959-7.975-10.59-13.175-7.92-11.347-16.926-19.514-30.673-22.916-11.529-2.853-21.492-.313-31.62 5.497-14.375 8.247-30.088 32.902-33.932 48.735 2.686-3.253 6.58-10.442 8.352-14.285 18.952-41.084 61.462-56.429 88.173-11.475a154 154 0 0 0-7.351-3.832c-13.336-6.508-28.117-9.744-42.464-4.642-13.183 4.688-25.246 15.687-31.236 28.306 4.739-3.95 8.894-9.364 13.311-13.789 28.295-28.35 62.427-11.299 86.478 13.206-1.152 1.985-1.279 1.543-1.309 3.541 1.23 1.647 2.475 2.012 4.564 2.311 1.958 5.473 4.94 10.593 6.989 16.71 6.785 20.256 6.896 41.056 1.983 61.673l-.422-.519c-7.039-8.568-18.391-18.426-27.419-24.944-48.298-34.869-109.837-49.806-168.162-55.548 9.945-17.096 21.909-28.935 39.9-36.981-5.414 9.906-13.052 22.901-14.683 33.951"/><path fill="#f7c74b" d="M583.869 303.578c4.163 1.679 5.45 2.601 8.804 5.312-2.957 5.696-7.032 13.041-10.787 18.275-3.033-1.328-5.91-3.114-8.775-4.787 3.37-6.532 6.514-12.76 10.758-18.8"/><path fill="#6ecdeb" d="M517.537 276.174c13.759-1.27 5.79 15.336 1.789 21.363-1.646-.01-4.895-2.553-6.399-3.586 1.947-3.76 2.895-6.863 3.427-11.048.328-2.587-.334-4.786 1.183-6.729"/><path fill="#fefefe" d="m439.891 741.886 5.775 2.11c-.714 3.756-3.251 22.601-1.8 25.155l.666.014c1.558-3.201 2.666-19.417 3.359-24.565l6.801 1.35c-.22 3.965-3.415 23.952-.883 25.402 1.537-2.342 2.84-20.128 3.697-24.965l6.796.761c-.26 4.594-3.271 23.848-1.485 26.218l.763-.542c1.459-3.811 2.704-20.435 3.079-25.342l6.832-.039c-.373 3.537-2.588 22.693-1.928 25.389l.687.139c2.509-2.244 3.261-21.389 3.6-25.867l5.806-.572c-.809 6.985-1.723 14.914-2.031 21.921-.376 3.719-.877 7.811-1 11.509-1.08 11.014-2.036 19.901-16.766 15.963-2.585-.691-2.717-6.13-4.431-8.93-5.927-9.678-9.212-13.008-20.405-16.676 1.145-8.898 1.899-19.356 2.868-28.433"/><path fill="#fefefe" d="M697.164 255.82c7.374.74 10.665 3.3 15.732 8.138-9.964 4.094-14.526 9.566-19.954 18.568-7.252-2.834-10.381-3.992-18.049-4.769 2.994-10.578 9.404-21.627 21.751-21.82z"/><path fill="#80cd6c" d="M646.639 289.935c3.419 1.381 5.58 2.83 8.538 5.017-3.178 6.059-11.661 21.928-15.577 26.826-.981-1.02-2.17-1.582-3.405-2.293-2.089-.299-3.334-.664-4.564-2.311.03-1.998.157-1.556 1.309-3.541.782-2.002.58-1.926-.539-3.502 4.43-5.831 10.188-15.247 14.238-20.196"/><path fill="#ec4e77" d="m702.116 226.59-1.742 11.861c3.124 1.703 7.999 4.172 10.845 6.067-3.882 1.031-7.566 1.759-11.499 2.55-.444 1.898-1.038 3.849-.965 5.776l.277.248c-1.464.923-1.772.784-1.868 2.728l-.52.117c-.936-1.561-1.283-1.725-2.678-2.819a175 175 0 0 1-2.129-4.506c-3.939.547-8.571 1.066-12.377 2.009 2.829-3.713 5.435-6.235 8.707-9.523-1.797-3.338-3.979-7.154-5.656-10.517 3.792 1.865 7.176 3.532 11.105 5.133 2.721-3.249 5.273-6.353 8.5-9.124"/><path fill="#fefefe" d="M578.505 252.016c3.063 1.777 6.217 3.664 9.329 5.331l-.847 2.088c-2.609-1.467-6.931-3.256-9.82-4.621.802-.747.93-1.653 1.338-2.798"/><path fill="#adadb2" d="M486.676 349.705c3.528-.234 7.592-.257 11.097.042 52.578 4.493 86.118 28.582 119.409 65.797-2.93 28.514-10.603 51.523-35.672 68.397-7.21 4.817-20.045 9.567-22.945 18.734-2.879 9.098 3.078 15.783 11.444 18.006l-4.76 36.096-8.355 2.737c-24.019 7.261-48.229 15.611-72.255 22.558-.559-8.666-2.126-19.825-3.081-28.64l-7.709-70.239c-20.026-13.24-30.452-25.681-36.206-49.945-6.017-25.374 1.135-54.947 14.823-76.823 12.486-3.843 21.153-5.721 34.21-6.72"/><path d="M541.516 416.631c24.754-2.595 22.395 20.664 13.858 35.968a52.23 52.23 0 0 1-31.469 24.513c-15.675 4.303-30.233 1.491-44.159-6.35-12.346-8.227-29.545-27.783-20.46-44.705 6.135-10.283 20.011-3.745 28.521-1.298 20.389 5.861 35.04-3.893 53.709-8.128"/><path fill="#fefefe" d="M544.977 419.195c29.449.225-24.442 34.06-68.836 17.349-4.059-2.04-9.998-7.444-8.403-12.425 2.755-2.139 14.919 2.106 18.602 3.116 13.865 3.805 27.889 1.396 41.214-3.294 5.929-2.087 11.083-4.051 17.423-4.746"/><path fill="#f5742e" d="M535.495 449.677c6.574-.29 10.391.897 16.266 3.477-13.539 19.877-33.803 26.613-56.885 21.141l-5.692-1.731a37 37 0 0 1 1.987-3.064c5.967-8.391 16.104-14.706 26.256-16.412-1.429 1.695-4.673 5.815-5.246 7.902 2.492.573 7.141-6.017 11.067-7.845 5.218-2.429 6.59-2.742 12.247-3.468"/><path d="M527.438 369.124c22.597-1.294 23.286 33.609 9.097 43.732-3.732 2.663-8.993 2.436-13.344 1.471-8.945-3.354-10.204-10.372-11.045-18.743l10.196-5.076c-3.281-2.661-6.063-5.14-9.19-7.99 3.439-7.927 5.618-11.424 14.286-13.394"/><path d="M474.411 368.13c22.711-1.472 23.079 31.923 9.958 42.894-3.886 3.248-8.613 3.096-13.344 2.291-9.591-4.062-10.759-10.073-11.682-19.488 2.681-1.448 7.214-3.336 10.111-4.646l-9.199-8.553a45 45 0 0 1 2.978-5.47c2.887-4.481 6.233-5.925 11.178-7.028"/><path d="M492.302 487.842c8.361 1.423 13.816 4.443 23.571 2.299 2.078-.457 7.598-2.014 8.996-1.146l-.275 1.082a24.6 24.6 0 0 1-4.817 2.041c-5.734 1.7-26.116 2.991-27.475-4.276"/><path fill="#fefefe" d="M373.713 275.14c25.008-2.503 17.291 36.431 10.598 49.495a66 66 0 0 1-6.526 10.219c-2.02 2.626-10.974 11.99-11.115 13.376l.897.292c3.136-1.246 6.366-4.889 8.633-7.341 19.341 21.871-40.298 45.109-50.007 24.596-1-2.113-1.543-2.701-.849-4.99 4.131-2.833 16.139 2.632 20.166-3.053l-.384-.78c-2.694-.42-3.734-.069-6.261.227-28.813 3.394-42.13-29.131-43.952-52.733-.913-11.824.83-22.179 12.583-27.735 21.13-4.727 46.296 32.704 23.659 44.398-6.597 3.408-20.736-1.251-15.198-12.136l.291-.563c-.874-.973-9.571-5.987-10.713-6.078.977 3.343 3.54 4.718 6.323 6.673.057 1.794.146 4.113.569 5.79 3.071 12.195 18.365 12.98 25.926 4.493 1.681-1.888 2.5-3.69 3.601-5.848 3.6.193 4.652.046 8.078-.587-3.513 6.699-5.755 16.676-2.07 23.779l.524-.044c.803-3.17.137-6.611.162-9.842.055-6.941 3.08-13.361 8-18.122 6.04-.004 16.752-.844 20.025-6.872l-.567-.495c-2.185.226-7.89 3.194-11.784 4.317-11.388 3.826-23.26-6.793-16.9-17.741 3.467-5.968 19.989-11.631 26.291-12.695"/><path fill="#fefefe" d="M672.597 280.557c10.265-.54 40.006 7.82 32.594 23.015-7.084 14.519-26.349 2.431-28.904 3.207 1.268 5.247 13.959 6.607 18.505 6.813 6.001 5.913 8.783 11.662 8.421 20.405-.106 2.576-.902 4.123-.423 6.705l.747.284c5.089-3.155.597-18.688-1.632-23.354 3.107.556 5.002.893 8.173.551 1.089 1.959 2.351 4.278 3.867 5.913a17.2 17.2 0 0 0 12.359 5.551c10.124.112 14.095-7.059 13.592-16.249 2.193-1.716 5.39-3.782 5.777-6.549-2.213.552-8.709 4.824-10.532 6.442 6.081 6.121-1.336 13.619-7.17 13.51-27.077-.502-14.304-34.259 1.129-42.181 4.927-2.529 6.373-3.474 12.264-3.81 14.811 3.617 16.817 17.449 15.503 30.436-2.25 22.234-13.718 50.505-39.891 51.06-3.709.079-6.998-1.724-11.045-.918l-.299.741c2.424 5.468 17.931.964 21.143 2.768.158 25.852-51.148 9.282-54.514-7.429-1.055-5.24.396-7.962 3.041-12.133 2.211 2.205 6.688 7.299 9.568 7.54l.598-.643c-.334-1.088-3.705-4.423-4.77-5.273-14.363-11.46-31.751-56.759-8.101-66.402"/><path fill="#adadb2" d="M558.042 618.577c1.218 1.76-2.159 22.521-2.688 26.272-8.024-2.122-15.555-.991-18.593 7.589-3.269 9.232 8.437 24.267 12.558 32.749-1.378 12.859-2.545 28.82-5.572 41.24-3.398 13.94-23.05 14.107-34.382 9.844-3.19-1.872-7.411-5.856-8.388-9.549-2.399-9.329-2.712-19.254-3.947-28.815-2.445-18.94-3.918-38.197-6.696-57.07 6.86-2.628 16.275-5.329 23.46-7.659a3776 3776 0 0 0 44.248-14.601"/><path fill="#f5742e" d="M423.819 318.713q1.209-.051 2.417-.089c64.873-1.957 159.12 24.535 207.216 70.414 7.394 7.053 18.045 19.01 18.066 29.977a14.54 14.54 0 0 1-4.462 10.454c-7.441 7.267-21.218 7.4-30.882 7.501.669-2.69 1.129-5.455 1.63-8.184 27.284-1.732 27.307-11.106 11.091-29.989l-.313-.345c-37.059-40.414-106.419-60.416-159.578-62.383-9.205-.34-26.994-1.056-33.838 5.675a10.95 10.95 0 0 0-3.269 8.246c.241 7.062 6.134 13.207 11 17.708-1.587 3.64-2.971 7.649-4.342 11.402-15.155-6.952-43.583-25.778-45.966-43.985-1.836-14.029 21.327-15.681 31.23-16.402"/><path fill="#f5742e" d="M480.755 786.13c10.399 4.934 11.442 49.957 11.739 61.25-15.751 6.197-54.069 10.472-70.83 11.213-2.224.221-4.641.331-6.887.478-.522-7.655-1.278-10.97-3.395-18.407 22.053-5.861 31.111-14.431 41.442-33.385 1.86-3.413 4.257-3.94 6.678-9.205 12.442 3.092 18.353.972 21.253-11.944"/><path fill="#fefefe" d="M645.026 823.149c26.964-3.44 44.562 13.961 47.751 39.864-13.811 4.628-26.096 5.375-40.422 6.37-15.812.338-33.066-.507-48.546-3.941 4.279-24.116 16.717-38.011 41.217-42.293"/><path fill="#fefefe" d="M363.126 813.129c30.937-2.161 46.476 16.724 49.32 45.943a460 460 0 0 1-32.709.27c-15.353-.721-36.28-1.455-51.059-5.668 2.569-20.451 13.048-36.956 34.448-40.545"/><path fill="#fefefe" d="M491.343 850.537c1.834-.271 1.838-.294 2.971.929 1.237 3.761 1.103 11.049-3.111 12.966-6.584 2.996-15.397 4.937-22.549 6.157-43.195 7.366-95.527 11.398-138.551 1.95-1.194-.511-2.809-.853-3.171-2.188-.961-3.55-1.176-9.343.573-12.706.039-.075.87-1.002 1.052-.971 6.625 1.122 17.324 2.826 23.63 3.376 42.241 3.684 98.685 2.283 139.156-9.513"/><path fill="#adadb2" d="M565.053 559.555c15.338-2.469 13.332 17.505 5.746 21.028-7.499 3.482-19.529 6.86-27.777 9.48l-57.392 18.131c-14.351 3.378-13.393-17.271-4.925-21.48 5.965-2.965 14.499-5.296 21.029-7.302 21.118-6.488 42.128-13.642 63.319-19.857"/><path fill="#adadb2" d="M565.498 590.069c3.775-.101 8.644.675 9.678 4.752 4.162 16.405-8.358 18.502-18.936 21.894-23.921 7.67-47.209 15.911-71.054 22.811-2.156.024-3.297.029-5.372-.714-8.037-2.874-5.796-17.645.54-20.927 3.443-1.594 7.252-2.822 10.873-3.933 24.768-7.597 49.436-16.579 74.271-23.883"/><path fill="#f5742e" d="M570.783 790.349c4.233 4.159-2.621 11.712 13.47 12.756 2.922 2.711 3.873 4.149 4.828 8.091 3.414 14.092 8.912 22.381 19.822 31.801-3.18 5.629-4.792 10.164-6.306 16.484-.37 1.543-.849 4.721-1.829 5.446l-1.374-.25c-12.524-2.914-29.62-7.665-39.838-15.593 1.469-13.48 3.376-49.322 11.227-58.735"/><path fill="#fefefe" d="M557.025 851.238c6.089 3.26 13.565 7.379 19.95 9.679 34.981 12.6 81.27 14.804 116.916 4.618.546 4.653.682 9.896-.057 14.525-8.734 4.804-32.445 6.781-43.059 6.956-25.783.426-53.214-2.653-77.01-13.046-5.975-2.611-12.471-5.675-17.214-10.201-.119-3.885-.303-8.789.474-12.531"/><path fill="#fefefe" d="M329.987 260.165c13.23.262 20.312 7.22 26.411 17.89-9.775 5.166-19.792 13.237-9.932 24.797 1.555 1.823 3.64 3.089 5.276 4.927-.682 1.231-2.329 1.864-3.656 2.586-2.272.294-2.654.403-4.875.101-1.119-1.28-.405-5.337-.841-7.379-3.34-15.659-14.335-26.487-29.702-29.964 3.695-8.235 8.442-11.709 17.319-12.958"/><path fill="#fefefe" d="M718.216 265.593a22.5 22.5 0 0 1 9.947 1.301c5.837 2.23 8.716 5.819 11.245 11.177-18.513 3.484-29.837 19.091-29.942 37.513-4.844.033-5.595-.1-9.292-3.2 3.417-2.207 5.712-3.719 7.666-7.564a12.76 12.76 0 0 0 .672-10c-2.175-6.138-7.64-8.649-12.939-11.309 5.424-9.834 11.216-15.614 22.643-17.918"/><path fill="#fefefe" d="M568.843 752.45c.824.06 4.065.35 4.363.763 3.08 4.267 1.624 22.852 5.173 26.188l.666-.279c.647-2.265-2.004-21.47-2.454-25.46l6.741.157c1.216 5.251 2.471 23.067 4.376 26.054l.63-.33c.986-4.367-1.67-19.701-1.966-25.808l6.897-.411c1.317 7.131 1.9 16.284 2.959 23.836-5.339 4.891-12.969 6.348-14.344 13.484-.606 3.15.59 6.28-.382 9.478-2.803-.366-5.832-1.571-6.357-4.714-2.362-14.155-4.905-28.687-6.302-42.958"/><path fill="#fefefe" d="M352.907 250.635c4.158-.433 8.342.54 11.882 2.762 6.676 4.102 10.391 11.392 12.068 18.811-5.39.402-8.391 1.333-13.482 3.088l-4.331 1.854c-5.431-9.825-9.761-13.759-19.832-18.51 4.494-5.064 7.357-6.541 13.695-8.005"/><path fill="#f5742e" d="M434.991 806.961c6.149 1.552 8.088 1.746 14.357 1.282a78 78 0 0 1-3.532 6.144c-8.446 13.386-20.25 20.278-35.418 23.696-2.099-4.896-4.623-8.258-7.63-12.564.728-1.052 1.754-1.257 3.103-1.911 7.822-1.623 7.798 13.236 15.551 8.712 8.541-4.985-1.908-10.509-3.384-12.874l.311-.932c1.218-1.004 1.181-1.208 2.695-1.28 1.923 1.575 3.02 4.253 4.646 6.155 5.872 6.866 15.478-3.236 6.946-8.277-1.268-.75-2.533-1.955-3.614-2.973z"/><path fill="#fefefe" d="M443.593 783.213c14.55-.339 18.983 13.313 7.685 21.348-5.38 3.826-26.434-1.922-28.656-6.224l.945-1.472c1.442-.201 6.848 1.794 8.771 2.352 5.995 1.605 15.96 4.046 18.934-3.406.796-1.994 1.296-2.981.473-5.075-5.785-6.35-23.452 2.209-28.194 1.974l-.567-.636c1.205-5.285 15.807-8.29 20.609-8.861"/><path fill="#fefefe" d="M590.845 784.114c4.253-.329 7.221-.189 11.363 1.328 3.305 1.211 12.994 5.981 14.317 8.819l-.532 1.209-.962.51c-4.39-1.476-17.801-9.049-22.332-6.655-6.704 3.542-2.508 10.545 3.22 12.748 8.09 1.837 14.853-2.191 19.755-.591l.362.725c-2.631 4.137-17.876 5.247-22.48 4.042-11.323-2.965-13.818-16.221-2.711-22.135"/><path fill="#fefefe" d="M640.771 775.492c7.744.174 13.47 6.181 12.979 13.947a11.17 11.17 0 0 1-4.082 8.047c-3.131 2.608-16.501 7.052-19.085 3.05 1.369-2.288 8.718-3.552 12.658-5.149 1.532-1.069 2.856-1.999 3.873-3.598a6.74 6.74 0 0 0 .809-5.591c-.556-1.893-2.2-4.058-4.041-4.795-6.728-2.695-12.592 10.029-16.428 11.645l-.559-.429c-.915-7.088 7.798-14.796 13.876-17.127"/><path fill="#fefefe" d="M397.729 768.508c3.1-.116 4.719.164 7.344 2.043 3.406 2.438 12.177 12.387 8.752 16.625-5.451-1.193-8.367-14.353-15.632-13.038a5.22 5.22 0 0 0-3.329 2.182c-1.819 2.634-1.737 5.138-1.072 8.065 4.502 6.376 13.543 7.208 14.07 10.829l-.793.652c-6.093.981-15.88-3.95-18.479-9.884a11.78 11.78 0 0 1-.007-9.634c1.769-3.875 5.285-6.371 9.146-7.84"/><path fill="#f5742e" d="M608.706 775.604c10.985-.942 18.48 1.095 15.357 14.232-4.502 1.93-4.637 2.744-8.813-.208-7.165-4.586-12.155-7.418-20.581-8.463 5.801-3.186 7.607-4.142 14.037-5.561"/><path fill="#f5742e" d="M427.617 772.566q2.235-.12 4.475-.132c7.663.026 13.207 3.327 18.381 8.524-6.587-.635-8.489-.408-15.03.937-2.745.849-4.78 1.751-7.389 2.817-2.923 1.195-6.512 4.133-9.018 1.328-.441-2.334.492-4.766 1.68-6.766 2.506-4.221 2.366-5.262 6.901-6.708"/><path fill="#f5742e" d="M591.14 808.41c5.212 1.197 6.557 1.197 11.794.473a254 254 0 0 0 3.288 5.559c-2.411 1.383-8.082 3.725-7.823 6.955 1.196 14.912 12.227-.017 15.776-.146 1.451 1.194 1.355.619 1.5 1.849-1.558 1.593-4.4 2.726-6.495 3.744-1.546.62-1.087.448-2.052 1.898-3.157 4.744 2.159 6.625 5.588 8.134-.193 1.471-1.367 2.571-2.378 3.915-10.519-8.382-17.218-18.906-19.198-32.381"/><path fill="#fefefe" d="M601.61 751.091c.029.009.063.008.086.027 1.892 1.597 3.211 18.693 3.892 22.512l-5.959 2.131-.726.087c-1.046-1.684-2.619-19.751-2.968-23.1z"/><path fill="#adadb2" d="m560.787 586.992 1.16.1.137.623c-1.16 1.558-15.195 5.62-18.232 6.602l-54.189 17.467c-.611.063-.194.059-1.22-.272l.125-.942c1.868-1.852 64.85-21.317 72.219-23.578"/><path fill="#fefefe" d="M634.845 805.655c2.365-.096 5.97.236 6.442 3.188-2.357 1.109-7.458 1.066-10.383 1.722-7.553 1.693-13.055 4.559-19.609 8.421-1.758 1.251-2.321 2.241-4.027 2.183-1.075-1.2-1.08-1.093-1.522-2.62 5.561-6.932 20.46-11.586 29.099-12.894"/><path fill="#fefefe" d="M644.788 815.614c2.77-.234 5.973-.985 7.595 1.787-.838 1.109-4.47 1.524-6.31 1.881-9.901 1.922-17.114 4.637-26.037 9.255-1.957 1.021-2.717 1.766-4.642 1.553-1.089-1.586-1.01-.832-.99-2.365 6.273-5.717 22.008-10.538 30.384-12.111"/><path fill="#fefefe" d="M385.568 805.366c8.946.401 26.387 11.305 32.139 18.23.045 1.59-.325 1.488-1.492 3.114-10.016-9.1-17.461-13.289-29.932-17.954-1.231-.461-1.339-.651-1.658-1.73z"/><path fill="#fefefe" d="M400.2 798.357c8.909 2.212 23.907 10.493 28.437 17.965-.277 1.467-.872 1.551-2.228 2.83-9.74-10.356-15.683-13.089-29.223-17.528z"/><path fill="#fefefe" d="M609.78 748.032c.96 2.679 3.263 21.103 3.114 24.346-1.417.765-3.084.651-4.799.76-.9-1.357-2.971-20.269-3.331-23.152z"/><path fill="#ec4e77" d="M675.541 393.841a6.092 6.092 0 1 1 .914 12.15 6.092 6.092 0 0 1-.914-12.15"/><path fill="#f5742e" d="M593.232 791.464c4.233-.297 16.999 3.677 19.367 6.721l-1.472.541c-4.999.688-24.047 3.921-17.895-7.262"/><path fill="#fefefe" d="M398.518 776.305c4.298.747 12.147 10.422 10.385 13.866l-1.173.3c-6.533-1.898-17.421-6.392-9.212-14.166"/><path fill="#5dc3bd" d="M379.815 394.99c2.551.072 6.521 2.966 5.469 5.626-2.192 1.65-7.864 3.794-10.631 4.281-2.628-.856-7.597-3.653-6.098-6.826 1.352-.945 7.013-1.12 10.467-2.711z"/><path fill="#f5742e" d="M440.769 791.105c3.606-.399 7.445-1.318 8.209 3.151-1.675 4.914-6.525 4.231-10.578 3.603-4.407-.832-6.627-1.477-10.812-2.997 3.681-1.49 9.281-2.96 13.181-3.757"/><path fill="#fefefe" d="M640.668 783.885c3.644-.42 7.087 1.941 4.498 5.814-2.708 4.052-5.245 4.513-9.574 5.719-2.134.387-3.59 1.104-4.635-.996.807-3.722 6.548-8.486 9.711-10.537"/><path fill="#fefefe" d="M621.767 793.862a5.291 5.291 0 1 1 2.846 10.192 5.291 5.291 0 0 1-2.846-10.192"/><path fill="#fefefe" d="M634.304 812.598c3.323-.375 6.536-.066 9.876.128-9.321 2.492-12.882 3.159-21.607 7.289-2.235 1.267-3.051 1.914-5.56 1.282l-.358-.691c.652-4.341 13.944-7.234 17.649-8.008"/><path fill="#fefefe" d="M395.799 804.711c5.348.367 19.649 5.447 21.945 10.221l-.611 1.547c-.592.164-1.67.51-2.206.067-2.943-2.428-18.074-9.855-19.128-11.835"/><path fill="#fefefe" d="m415.165 801.68 1.017-.029c3.692-.084 13.449 1.548 14.937 4.912l-1.08 1.354c-1.087 1.046-1.197 1.257-2.562 1.97-2.728-.317-9.084-6.047-12.312-8.207"/><path fill="#fefefe" d="M383.484 811.619c5.524-.65 16.957 6.08 21.4 9.202l-.494.659-4.188 1.474c-5.87-6.028-15.106-9.17-16.718-11.335"/><path fill="#fefefe" d="M415.492 800.044c-3.68-2.043-7.557-4.468-2.93-9.302 1.828-1.908 5.865-2.179 7.618.133-5.671.737-4.928 4.678-4.688 9.169"/><path fill="#fefefe" d="M618.172 805.572c1.124.077 1.012.118 2.115.456l-.033.575c-2.004 1.448-8.42 4.202-11.388 5.815-1.301-.914-2.12-2.228-3.088-3.516a737 737 0 0 0 12.394-3.33"/><path d="M774.063 186.901c1.769.07 1.042-.23 2.334.684 1.236 2.95-.985 13.797-1.609 17.668 3.467 2.469 11.762 6.973 13.9 10.475.315.517-.066.844-.418 1.498-3.623 2.058-12.346 2.591-16.84 3.099-.9 3.445-2.901 16.789-6.368 17.072-2.971-2.045-6.66-10.357-8.486-13.919-3.093-3.641-15.497 1.924-18.549-1.555.277-3.055 9.109-11.202 11.834-14.008-1.468-3.088-6.022-12.96-5.544-16.152.114-.765.441-.699 1.219-1.12 3.872.144 11.344 4.757 15.059 6.781z"/><path fill="#f7c74b" d="m773.999 190.048.308.384c-.013 2.995-1.562 12.386-1.977 15.981 4.275 2.605 9.729 6.527 14.051 9.377-5.284 1.2-11.216 2.024-16.607 2.889l-4.576 16.106a298 298 0 0 1-7.588-14.059c-2.042-1.315-13.849.015-16.799.305 3.382-4.101 7.646-8.539 11.275-12.498-2.104-5.448-3.725-9.984-5.477-15.553 4.889 2.151 10.011 4.811 14.824 7.198a270 270 0 0 1 12.566-10.13"/><path d="M278.304 180.136c4.776 1.177 12.035 6.992 16.291 9.966 2.962-1.733 13.583-9.495 15.968-7.218.584 3.296-3.039 13.096-4.211 16.754 2.938 2.966 11.22 9.812 12.764 12.918l-.318.887c-3.334 1.588-12.602.803-17.248 1.057-3.547 2.141-5.03 14.458-9.268 15.705-2.691-1.341-6.007-12.897-7.276-16.482-3.644-.6-15.754-.82-16.949-3.884 1.059-2.974 10.026-9.177 12.959-11.43-1.402-6.327-2.901-11.757-2.712-18.273"/><path fill="#f7c74b" d="M280.535 183.719c3.295 1.66 10.35 6.919 13.691 9.321 4.363-2.822 9.773-5.753 14.343-8.192l-4.675 15.789c4.086 3.708 8.161 7.749 12.144 11.59l-16.015.193c-1.552 1.26-6.068 11.949-7.476 14.77-2.046-4.508-4.078-10.551-5.815-15.288-4.485-.844-11.779-1.503-16.43-2.049a803 803 0 0 0 13.127-10.288 503 503 0 0 1-2.894-15.846"/><path d="M748.059 363.179c4.545.44 11.581 7.229 15.383 10.3 3.087-1.599 13.991-8.59 16.68-6.167.798 3.666-3.389 12.896-4.837 16.548 2.41 2.729 12.308 10.937 12.013 13.689-2.565 1.671-14.373.951-18.365.924-1.43 3.358-5.589 16.075-9.505 14.761-2.539-2.991-4.603-12.263-5.762-16.43-3.455-.634-14.911-1.198-16.744-3.971.749-2.874 10.664-8.93 13.97-11.245-1.38-6.166-2.964-12.052-2.833-18.409"/><path fill="#f7c74b" d="M750.572 366.846c2.377 1.123 10.335 7.572 12.801 9.504 5.068-2.738 9.568-5.151 14.801-7.577-1.598 5.255-3.489 10.739-5.226 15.967 3.93 3.747 7.917 7.951 11.741 11.845a802 802 0 0 1-15.506-.303l-.243-.025c-2.116.924-7.009 12.031-8.386 14.824-1.838-4.896-3.553-10.897-5.134-15.951-5.496-1.029-10.105-1.51-15.806-2.769l13.11-9.581c-.446-4.911-1.615-10.576-2.152-15.934"/><path d="M285.648 354.812c.479-.012.931.201 1.436.362 1.054 2.782-.311 14.271-.619 17.827 2.931 2.33 14.052 7.863 14.255 10.744-2.171 2.126-12.799 3.852-16.414 4.717-.745 3.413-2.599 16.051-5.689 17.082-2.833-1.517-7.254-10.275-9.569-13.784-2.689-2.203-15.804 2.168-18.133-1.136 1.062-2.915 8.127-10.532 10.625-13.501-1.308-3.409-7.866-14.56-4.779-16.887 3.641-.226 11.843 4.002 15.526 5.666q6.71-5.511 13.361-11.09"/><path fill="#f7c74b" d="M284.886 358.447c.028.026.064.046.083.079.858 1.542-.506 13.38-.552 15.967 3.743 1.987 10.026 6.118 13.882 8.434a742 742 0 0 1-16.264 3.741c-1.159 5.599-2.361 10.522-3.794 16.049a730 730 0 0 0-8.686-14.093c-3.813-.134-11.81 1.039-15.869 1.554 3.466-4.523 6.772-8.251 10.54-12.505a1002 1002 0 0 1-6.233-14.972c4.929 1.752 10.114 3.929 14.987 5.911a255 255 0 0 1 11.906-10.165"/><path fill="#6ecdeb" d="M836.55 242.694c4.443-.458 14.956-.952 16.622 4.508a5.43 5.43 0 0 1-.332 3.99c-2.319 4.666-9.428 4.735-13.963 4.509-16.462-.822-31.633 3.019-47.373 7.681-5.196 1.362-10.699 2.959-15.988 3.709 15.654-13.675 40.594-21.965 61.034-24.397"/><path fill="#6ecdeb" d="M203.273 233.56c26.78-1.347 48.123 10.12 68.452 25.851-2.595-.566-5.062-1.251-7.622-1.944-12.661-4.523-24.871-8.195-38.3-9.71-7.009-1.146-16.842 1.143-23.456-1.268-8.771-3.198-7.594-10.296.926-12.929"/><path fill="#f7c74b" d="M653.522 154.039c8.512-.756 9.882 5.752 5.709 11.953-3.397 5.026-9.139 8.445-13.009 13.015-9.033 10.667-17.315 23.107-23.773 35.498l-1.195 2.53-1.338.069-.032.502.528.417-.787-.03c-.86-2.571.736-7.995 1.289-10.653 3.467-16.675 17.761-44.431 32.608-53.301"/><path fill="#6ecdeb" d="M744.12 141.156c.424.093 2.008.453 2.266.63 10.252 7.016-8.579 19.767-12.036 23.993-9.585 11.717-17.559 24.566-24.058 37.89-.755 1.545-.665 1.507-1.915 2.657l-.693-.212c-1.241-6.428 7.754-29.791 10.631-35.624a105 105 0 0 1 8.016-13.427c3.917-5.619 10.712-14.62 17.789-15.907"/><path fill="#6ecdeb" d="M318.103 125.417c16.407 1.391 36.802 48.804 35.586 63.588l-.649.076-.982-1.237c-6.463-11.247-10.931-21.334-19.466-31.747-5.161-6.812-12.675-12.081-17.179-19.342-3.25-5.239-2.859-8.684 2.69-11.338"/><path fill="#ec4e77" d="M537.442 57.03c6.285.207 8.182 3.652 7.345 9.849-.972 7.194-5.014 14.386-6.576 21.59-3.013 13.888-3.518 28.14-3.82 42.299-.703-.4-1.006-.379-1.344-1.228-7.846-19.705-7.377-43.728-1.823-63.977 1.209-4.407 2.737-6.508 6.218-8.534"/><path fill="#f5742e" d="M374.648 152.54c17.517.503 36.921 47.582 35.792 63.487l-.595.412-.846-.836c-6.878-12.294-11.665-24.243-20.95-35.432-5.118-6.168-25.335-20.438-13.401-27.631"/><path fill="#f7c74b" d="M446.299 148.968c14.599-.437 23.014 30.426 25.686 41.425.853 3.512 3.426 24.842 1.809 27.288l-.589-.339c-5.301-13.916-8.866-26.777-16.774-39.95-4.011-6.682-11.956-15.357-12.878-22.812-.274-2.218 1.253-4.125 2.746-5.612"/><path fill="#6ecdeb" d="M543.022 249.11c.627-15.276 4.089-36.921 13.791-49.294 4.61-5.879 13.289-.413 10.404 6.068-6.937 15.579-13.221 26.291-16.954 43.46-2.254-.158-4.946-.166-7.241-.234"/><path d="M629.835 103.285c.577.179.806.393 1.337.724.754 2.29.492 8.695.485 11.395 4.383 2.039 7.867 3.723 12.122 6.075-3.7 1.744-8.709 3.394-12.664 4.869-.812 3.196-.57 8.875-2.866 10.84-2.579-.461-6.254-6.053-8.099-8.44-5.221 1.214-7.9 1.726-13.267 2.237 2.021-3.584 5.271-8.281 7.542-11.874-2.694-3.961-4.121-7.253-5.737-11.694 4.798 1.012 7.909 2.178 12.441 3.998 2.96-2.661 5.595-5.399 8.706-8.13"/><path fill="#f5742e" d="M629.047 106.96c.771 1.288.424 7.596.412 9.617 3.067 1.764 6.406 3.352 9.587 4.931l-10.093 3.358a621 621 0 0 1-1.091 10.183 926 926 0 0 1-6.747-8.307c-3.251.542-7.002 1.411-10.273 2.085a441 441 0 0 0 6.073-9.137 167 167 0 0 1-4.648-8.924c3.184.932 6.445 2.026 9.612 3.045z"/><path d="M533.526 152.166c3.056.744 7.414 4.441 10.226 6.407 2.646-1.273 8.266-4.769 10.908-4.555l.524.862c-.055 3.059-1.558 6.983-2.39 10.308 2.828 3.507 6.694 5.882 10.025 10.133-4.05.302-9.46.203-13.613.247-1.196 3.04-2.919 9.023-6.036 10.05-2.401-1.41-3.799-8.113-4.644-11.082-2.982-.063-9.636.437-11.459-1.914.435-2.525 6.472-6.328 8.825-8.03-1.04-3.663-2.595-8.688-2.366-12.426"/><path fill="#f5742e" d="M535.925 155.679c2.302 1.059 5.9 3.849 8.109 5.451 3.282-1.836 6.339-3.365 9.717-5.024-1.123 2.717-2.258 7.169-3.102 10.128 2.072 2.22 5.221 5.035 7.49 7.181l-10.172.095c-1.615 2.996-3.014 6.559-4.35 9.731-1.001-3.253-2.556-6.97-3.814-10.191a444 444 0 0 0-10.096-1.045c3.382-2.297 4.995-3.704 8.054-6.469-.309-2.769-1.271-7.005-1.836-9.857"/><path d="M235.719 281.871c1.646 1.55.903 8.247 1.104 11.592 3.045 1.798 6.871 2.899 8.88 5.772l-.272.905c-2.825 1.889-6.526 2.601-9.898 3.562-.974 3.332-.952 7.432-3.172 10.009l-.939-.091c-2.235-2.029-4.519-5.749-6.28-8.355-2.797.785-8.412 2.314-10.862.791.043-2.889 4.379-6.913 6.565-9.555-1.454-2.412-6.211-8.308-2.868-10.103 2.836-.043 6.114 1.712 8.89 2.873 2.533-2.305 6.031-5.722 8.852-7.4"/><path fill="#f5742e" d="M234.402 285.482c.21 1.226.044 7.422.026 9.041 2.649 1.637 5.572 3.067 8.348 4.503l-9.011 2.578c-.886 3.836-1.236 6.477-1.71 10.409l-5.698-8.457c-2.956-.114-6.501.742-9.477 1.299l6.233-7.398-3.853-8.881 8.597 3.178c2.077-1.847 4.502-4.31 6.545-6.272"/><path d="M806.131 283.268c3.124 1.164 6.027 5.147 8.074 7.796a243 243 0 0 1 5.975-2.16c1.621-.549 3.047-1.015 4.619-.232.695 3.049-2.044 6.698-3.691 9.597 3.059 3.791 4.911 6.289 7.551 10.374-3.996-.43-8.454-1.295-12.436-2.008-2.004 1.966-3.15 7.116-6.962 8.222-2.378-2.156-2.103-6.336-2.399-9.792-4.35-1.344-7.648-2.316-11.822-4.211 2.983-2.275 7.74-4.604 11.156-6.419.029-2.849-.898-9.169-.065-11.167"/><path fill="#f7c74b" d="M807.89 286.93c1.508 1.188 4.644 4.488 6.15 6 3.693-.818 5.829-1.588 9.407-2.885l-4.341 8.592 5.894 7.546a243 243 0 0 1-8.941-1.279c-2.331 1.963-4.554 5.497-6.322 8.051-.255-3.255-.735-6.518-1.166-9.756-2.986-.771-6.097-1.798-9.06-2.719 2.879-1.456 5.53-2.963 8.333-4.554-.105-3.318-.157-5.689.046-8.996"/><path d="M487.563 89.742c3.488.866 5.698 2.699 8.59 4.75 2.019-1.135 6.436-4.358 8.448-3.192.426 2.052-.691 5.03-1.098 7.183-.87 4.6 5.93 4.957 5.409 8.721-2.162.976-6.114-.036-8.849.895-1.035 2.855-1.609 5.882-4.182 7.181l-1.111-.51c-1.631-2.132-2.045-4.681-2.759-7.331-2.711-.158-6.698.018-8.655-1.706l-.06-1.044c1.358-2.133 3.704-3.311 5.899-4.727-.653-3.25-1.545-6.959-1.632-10.22"/><path fill="#ec4e77" d="m490.325 93.404 5.486 3.534c2.235-.84 4.542-2.05 6.703-3.106-.755 2.072-1.43 4.416-2.092 6.539 1.68 1.564 3.411 3.418 5.025 5.075l-6.623.127c-1.351 2.084-2.248 4.651-3.19 6.981l-2.206-7.092-6.725-.68 4.882-4.268z"/><path d="M521.194 200.806c2.432 2.048.135 6.342 1.378 8.436 1.2 2.021 6.964 2.736 8.167 5.323l-.48.916c-2.506 1.582-5.314 2.161-8.195 2.985-.059 2.357.206 7.59-1.907 8.798-2.543-1.48-3.724-5.325-5.777-6.188-2.463.758-7.034 2.816-8.677.456.26-2.605 2.33-4.869 3.933-7.166-1.348-2.293-4.353-6.131-2.589-8.456 2.426-.591 5.516.711 8.05 1.478 2.133-2.632 3.458-4.443 6.097-6.582"/><path fill="#6ecdeb" d="M520.204 204.884c.211 1.514.293 4.953.386 6.621 1.627.959 4.377 2.044 6.186 2.823-7.085 2.343-6.937 2.534-6.965 9.638l-4.345-5.341-6.174 1.202c1.169-1.713 2.279-3.565 3.38-5.331l-3.241-6.266 6.318 1.748c1.456-1.703 2.977-3.405 4.455-5.094"/><path fill="#ec4e77" d="M376.347 226.086a643 643 0 0 0-1.914 11.869c3.089 2.77 6.216 3.897 9.499 6.31-4.177.436-7 .762-11.08 1.634-.813 2.58-1.711 5.945-2.971 8.257-2.194-1.742-4.504-5.241-6.676-7.737-4.403 1.123-5.824 1.873-10.45 1.727l-.812-.032c11.06-8.117 10.189-6.859 4.723-19.576 4.317 2.069 7.104 3.383 11.033 6.069a476 476 0 0 1 8.648-8.521"/><path d="M424.463 223.887c2.853.92 4.321 4.951 5.9 7.861 2.548-.437 6.063-1.427 8.257-.268l.262 1.028c-1.114 2.757-2.94 4.078-4.959 6.555 1.298 2.44 3.39 5.145 2.2 7.788l-1.308.359c-2.247-.365-3.927-1.581-5.932-2.739-2.869 1.018-3.74 3.533-6.99 5.498l-.878-.282c-.548-1.43-.383-5.036-.31-6.764.215-5.057-7.184-2.832-7.291-7.422l.737-.744c2.479-.723 4.785-.338 7.398-.155 1.191-3.38 1.301-8.275 2.914-10.715"/><path fill="#ec4e77" d="M425.228 228.755c1.367 1.091 2.74 3.404 3.804 4.945l6.787-.255c-1.375 1.449-2.829 3.286-4.126 4.841l1.991 5.697-6.095-1.814-5.027 4.673.507-6.776-5.494-3.702c2.04-.48 4.176-.903 6.233-1.341z"/><path d="M493.335 228.442c3.402 1.301 4.065 3.585 5.832 6.844 2.942-.601 7.228-2.112 9.17.591-.402 2.871-2.929 4.388-5.176 6.189 1.431 3.278 2.533 5.903 3.702 9.274-2.965-.633-5.681-1.664-8.54-2.663-2.135 1.571-5.555 5.834-7.867 4.072-.759-2.405-.235-5.257-.004-7.86-2.733-1.074-5.528-1.676-6.773-4.192l.515-.998c2.195-1.496 4.929-1.909 7.572-2.556.124-2.922.025-6.244 1.569-8.701"/><path fill="#f7c74b" d="M494.495 232.794c1.312 1.458 2.506 3.357 3.619 4.999 2.263-.173 4.845-.627 7.118-.967l-4.633 5.519q1.24 2.805 2.546 5.579l-5.724-1.74c-1.922 1.325-3.27 2.941-4.875 4.644l.097-6.525-5.587-3.731 6.193-1.672c.449-1.978.84-4.106 1.246-6.106"/><path d="M410.2 125.136c3.427.831 5.062 3.59 7.32 6.372 2.441-.795 6.642-2.878 8.52-.857-.007 2.355-2.137 4.953-3.514 7.064 1.876 3.206 3.165 5.552 4.746 8.901a762 762 0 0 1-9.168-2.163c-3.23-.242-3.348 5.753-6.831 6.228-1.096-1.676-1.202-6.401-1.39-8.682-3.927-1.22-5.579-1.79-9.257-3.572 2.516-1.557 5.154-2.432 7.551-3.894 2.681-1.637 1.765-6.485 2.023-9.397"/><path fill="#f7c74b" d="M412.005 128.917a188 188 0 0 1 4.756 5.026l6.84-1.892c-1.269 2.039-2.455 4.182-3.647 6.27l3.342 5.502c-2.161-.612-4.548-1.13-6.747-1.653-1.197 1.429-2.886 4.182-3.963 5.824-.174-2.302-.48-4.691-.736-6.995l-6.423-2.599c2.056-.83 4.106-1.817 6.123-2.749z"/><path fill="#ec4e77" d="m391.348 69.843.386.373c.518 1.905.184 7.897.123 10.218 4.047 1.215 7.058 2.248 10.992 3.787a986 986 0 0 0-11.094 3.782c.065 3.522.302 7.05.505 10.567-2.565-2.6-5.16-6.572-7.801-8.719l-.827.143c-3.099 1.13-5.859 2.082-9.011 3.05 1.507-2.692 3.921-6.114 5.679-8.756-2.315-3.281-4.63-6.34-6.352-9.978a744 744 0 0 0 10.871 3.872c1.968-2.168 4.387-5.786 6.529-8.339"/><path fill="#6ecdeb" d="M430.303 291.445c.401-.065 1.188.065 1.639.112 2.635 2.145 11.352 15.355 11.724 18.949-1.325 2.636-4.565 3.747-7.241 4.961-.902.029-1.124-.074-2.023-.233-2.487-2.498-9.84-14.325-12.475-18.193 2.85-2.111 5.37-3.706 8.376-5.596"/><path fill="#ec4e77" d="M591.746 231.489c3.429 1.473 5.763 2.767 8.811 5.004l-12.723 20.854c-3.112-1.667-6.266-3.554-9.329-5.331 3.237-5.907 8.611-15.942 13.241-20.527"/><path fill="#6ecdeb" d="m641.234 258.002.792-.035c2.31 1.177 3.923 6.794 4.992 9.594a700 700 0 0 0-19.886 6.166l-.809-.078c-1.772-1.035-4.139-6.741-5.139-8.878 5.876-2.688 13.763-4.857 20.05-6.769"/><path fill="#80cd6c" d="M394.005 364.325c4.014.677 11.9 14.113 14.175 17.976-2.753 2.268-3.827 2.962-6.9 4.756l-.91.009c-1.717-.805-11.442-14.693-13.401-17.294 2.237-2.186 4.491-3.648 7.036-5.447"/><path fill="#f7c74b" d="M427.874 185.396c1.472.882 5.146 4.203 6.694 5.529l8.099-3.984c-1.758 2.96-3.019 5.558-4.527 8.647 1.916 2.442 4.26 4.643 6.464 6.847-2.946-.409-5.786-1.033-8.697-1.63-1.962 2.117-3.658 5.816-5.022 8.459-.7-3.108-1.156-6.317-1.66-9.468-2.614-.629-6.309-1.154-9.051-1.615l8.447-4.319c-.431-3.123-.592-5.319-.747-8.466"/><path fill="#f7c74b" d="M313.637 153.354c1.049 2.487-.822 6.01-.599 7.884 2.287 1.892 6.236 3.68 9.097 5.336-3.145.591-5.309 1.175-8.373 2.041-1.34 4.066-1.266 6.154-1.33 10.355l-4.856-9.021c-2.789.467-5.459 1.269-8.189 2.014 1.794-3.643 2.815-4.803 5.362-7.845a155 155 0 0 1-4.801-8.595c3.02 1.83 5.059 2.905 8.247 4.437 1.544-1.546 3.955-4.761 5.442-6.606"/><path fill="#6ecdeb" d="M711.425 419.178a6.609 6.609 0 1 1 3.535 12.736 6.609 6.609 0 0 1-3.535-12.736"/><path fill="#f7c74b" d="M581.578 175.768a6.534 6.534 0 1 1 2.717 12.784 6.534 6.534 0 0 1-2.717-12.784"/><path fill="#f7c74b" d="M688.807 461.198a6.486 6.486 0 1 1 4.277 12.247 6.486 6.486 0 0 1-4.277-12.247"/><path fill="#ec4e77" d="M836.454 154.804a6.474 6.474 0 1 1 3.322 12.514 6.474 6.474 0 0 1-3.322-12.514"/><path fill="#6ecdeb" d="M699.964 91.32a6.465 6.465 0 0 1 8.286 3.94 6.465 6.465 0 0 1-3.999 8.259 6.465 6.465 0 0 1-4.287-12.2"/><path fill="#6ecdeb" d="M563.875 121.846a6.454 6.454 0 1 1 5.444 11.705 6.454 6.454 0 0 1-5.444-11.705"/><path fill="#6ecdeb" d="M228.646 142.799c1.977.287 3.99.75 5.142 2.515.395 2.65-.937 4.427-2.179 6.929.528 2.146 1.036 3.143 1.439 5.545-.582 1.841-.2 1.194-2.255 2.423-6.4.946-7.072-4.744-6.304-9.586.62-3.903 1.63-4.975 4.157-7.826"/><path fill="#6ecdeb" d="M409.985 262.852a6.383 6.383 0 1 1 2.44 12.53 6.383 6.383 0 0 1-2.44-12.53"/><path fill="#80cd6c" d="M360.25 205.492c4.026-.487 7.536.786 6.715 5.646-.836 4.95-3.798 8.318-7.648 11.336-2.2.427-4.6-2.141-6.179-3.514 7.056-6.512 5.047-4.999 7.112-13.468"/><path fill="#f7c74b" d="M189.358 189.311a6.33 6.33 0 1 1 3.13 12.267 6.33 6.33 0 0 1-3.13-12.267"/><path fill="#f7c74b" d="M331.118 444.33a6.25 6.25 0 0 1 7.896 3.849 6.252 6.252 0 0 1-9.947 6.84 6.253 6.253 0 0 1 2.051-10.689"/><path fill="#ec4e77" d="M690.31 189.159a6.194 6.194 0 0 1 8.616 6.706 6.197 6.197 0 1 1-8.616-6.706"/><path fill="#f7c74b" d="M278.705 244.86a6.062 6.062 0 1 1 3.65 11.561 6.062 6.062 0 0 1-3.65-11.561"/><path fill="#f7c74b" d="M773.242 330.545c3.823-.253 7.3.379 8.416 4.691-1.057 2.884-5.626 2.03-9.215 4.824-1.541 1.973-.983 1.903-2.929 2.44-1.721-.465-2.937-2.017-4.24-3.333 2.074-5.043 3.156-6.056 7.968-8.622"/><path fill="#f7c74b" d="M235.583 345.224a6.033 6.033 0 1 1 3.207 11.629 6.033 6.033 0 0 1-3.207-11.629"/><path fill="#ec4e77" d="M738.848 247.835c2.147 1.391 3.646 2.235 5.899 3.434 2.224-.168 4.549-.463 6.775-.706 1.131 3.687 2.469 4.936-.742 7.32-7.537 2.296-18.226-2.148-11.932-10.048"/><path fill="#ec4e77" d="M656.929 228.811c2.145.197 3.444.301 5.261 1.367.884 1.656-.212 4.719.143 6.266.427 1.864 2.932 3.211 3.026 5.423l-1.68 1.746c-6.478 3.988-10.292-8.496-6.75-14.802"/><path fill="#ec4e77" d="M356.045 118.788a5.59 5.59 0 0 1 5.475 1.473 5.59 5.59 0 0 1-2.766 9.375 5.592 5.592 0 0 1-2.709-10.848"/><path fill="#ec4e77" d="M502.683 167.634a5.56 5.56 0 1 1 2.364 10.866 5.56 5.56 0 0 1-2.364-10.866"/><path fill="#ec4e77" d="M451.378 107.846c6.678 1.919 12.627 9.449 5.541 14.556-.91-.405-8.075-9.67-8.218-10.422.893-2.194 1.077-2.314 2.677-4.134"/><path fill="#ec4e77" d="M759.716 171.261a5.342 5.342 0 1 1 2.87 10.292 5.342 5.342 0 0 1-2.87-10.292"/><path fill="#ec4e77" d="M681.891 154.236a5.17 5.17 0 1 1 1.827 10.178 5.17 5.17 0 0 1-1.827-10.178"/><path fill="#80cd6c" d="M828.588 217.715a5.062 5.062 0 1 1 3.54 9.486 5.062 5.062 0 0 1-3.54-9.486"/><path fill="#ec4e77" d="M232.241 399.253a5.043 5.043 0 1 1 .857 10.05 5.043 5.043 0 0 1-.857-10.05"/><path fill="#f5742e" d="M457.214 252.264a5.008 5.008 0 1 1 3.91 9.221 5.008 5.008 0 0 1-3.91-9.221"/><path fill="#f06152" d="M801.698 344.751a4.98 4.98 0 1 1 1.432 9.858 4.98 4.98 0 0 1-1.432-9.858"/><path fill="#f5742e" d="M282.681 100.808a4.896 4.896 0 1 1 2.402 9.492 4.896 4.896 0 0 1-2.402-9.492"/><path fill="#ec4e77" d="M331.112 222.618a4.794 4.794 0 1 1 2.667 9.205 4.795 4.795 0 0 1-2.667-9.205"/><path fill="#f7c74b" d="M795.095 179.935a4.79 4.79 0 0 1 2.837 9.152 4.79 4.79 0 1 1-2.837-9.152"/><path d="M479.625 768.453c1.828 3.2.04 4.679 1.214 7.635-.201 2.261-.394 4.11-.37 6.394-.571-1.592-.499-1.494-1.844-2.52.123-3.698.624-7.79 1-11.509"/></svg>