<?xml version="1.0" encoding="utf-8" ?><svg xmlns="http://www.w3.org/2000/svg" xmlns:xlink="http://www.w3.org/1999/xlink" width="1024" height="1024" viewBox="0 0 1024 1024"><path d="M470.116 165.685C478.628 164.545 489.755 165.631 497.706 167.093C514.951 170.263 525.151 181.479 537.287 192.715C539.86 195.097 550.081 198.425 554.045 200.715C569.625 209.713 579.989 223.61 589.534 238.473C605.372 237.15 620.615 236.284 635.978 239.964C666.651 247.777 650.26 274.209 634.861 287.742C623.302 297.901 613.42 304.049 600.022 311.512C605.03 330.779 605.978 354.557 600.897 373.757C594.837 396.654 583.348 410.61 563.356 422.408C562.025 439.115 561.311 455.627 559.793 472.414C586.287 503.793 622.561 521.424 657.635 491.789C651.962 480.478 651.863 468.525 664.626 462.511C655.959 440.282 671.639 427.278 668.845 405.462C667.536 395.499 663.169 384.859 658.386 375.94C650.178 360.635 661.453 345.886 678.42 347.628C684.824 348.251 690.691 351.475 694.651 356.546C703.835 368.186 702.618 386.528 701.15 400.455C721.135 388.622 758.771 385.481 749.773 420.533C763.1 427.82 765.657 439.755 759.291 452.969C773.858 470.477 763.146 479.459 749.957 490.65C736.713 501.888 728.019 506.305 710.518 506.161C703.857 519.067 692.236 520.213 680.093 514.044C656.416 534.972 626.875 540.322 596.685 531.917C580.886 527.518 569.527 520.348 556.739 510.481C556.317 516.742 555.804 522.996 555.201 529.241C566.68 530.359 571.095 535.351 569.167 547.356C567.836 555.643 555.77 558.307 555.021 562.015C556.812 562.639 560.266 562.467 562.347 562.496C569.86 567.334 571.829 576.382 567.241 584.192C563.657 590.294 556.964 592.281 550.494 593.951C550.818 603.415 549.048 623.11 547.366 632.271C561.337 642.897 574.89 674.666 583.893 690.063C585.077 692.089 586.532 691.729 587.913 692.137C591.892 693.315 599.458 708.156 601.83 712.259C618.66 690.073 628.149 707.76 638.647 723.563C641.342 714.239 646.122 697.112 658.305 696.246C666.765 695.645 672.074 705.18 672.267 712.667C672.472 720.622 667.727 725.42 662.696 730.851C662.844 730.873 664.928 731.145 665.006 731.163C669.295 732.164 673.599 730.475 677.763 730.669C681.466 730.842 684.814 732.069 688.718 731.391C697.183 729.921 706.48 726.903 715.058 727.058C727.33 727.244 738.137 732.393 746.402 741.414C752.158 747.696 759.05 754.141 762.833 761.861C764.61 765.485 765.655 769.549 765.63 773.548C765.594 779.545 762.16 784.007 757.931 787.904C743.612 801.098 725.913 809.855 709.347 819.794C679.498 839.224 654.713 859.825 618.71 867.138C611.431 868.617 602.706 870.132 595.172 870.255C592.385 870.3 589.941 869.514 588.075 867.282C585.046 863.656 582.223 857.378 581.657 852.681C581.321 849.6 581.615 846.304 580.514 843.354C573.94 825.632 565.751 808.733 561.571 790.166C558.637 777.135 555.043 765.924 566.259 755.696C559.879 741.168 553.195 728.394 545.927 714.309L557.911 707.777C555.575 702.205 553.146 696.671 550.625 691.18L541.72 673.648C540.88 681.979 540.222 690.445 531.98 695.24C523.497 700.175 505.325 699.65 496.809 694.924C490.045 691.17 488.238 679.959 486.792 672.76C479.397 684.557 467.069 696.134 456.617 705.192C459.395 708.202 461.606 710.81 464.189 713.997C461.363 716.137 450.717 722.488 452.195 726.233C455.387 734.323 454.421 737.651 452.676 745.858C462.603 740.579 476.024 725.932 487.509 735.059C494.659 740.742 493.596 752.468 487.824 758.663C481.553 765.395 473.108 762.56 465.232 762.372C463.285 762.318 461.611 762.75 460.212 764.245C460.009 764.906 459.717 765.931 459.972 766.552C462.623 772.99 463.983 777.242 469.559 781.11C473.496 790.544 474.762 796.871 483.715 803.2C491.675 808.826 494.95 817.1 497.111 826.272C499.406 836.01 497.711 845.995 499.119 855.798L499.254 856.704C497.085 861.804 495.211 866.416 492.528 871.282C465.986 877.669 436.951 872.268 411.928 863.076C381.264 851.812 371.898 834.013 352.685 810.553C341.492 796.884 327.123 788.976 319.387 771.15C321.793 764.097 323.944 759.949 327.573 753.385C334.454 749.508 337.644 743.823 343.06 737.274C354.765 723.12 370.397 702.568 389.6 699.162C393.982 698.384 397.26 700.541 400.308 703.15C413.619 693.519 423.966 683.298 438.505 674.134L440.773 680.471C441.131 680.206 441.486 679.936 441.838 679.663C458.76 666.509 472.129 642.488 474.763 621.039C461.22 621.941 453.416 616.955 458.117 601.683C460.276 594.666 466.966 591.767 473.211 588.996C460.57 589.36 453.781 584.311 457.811 570.03C459.161 565.244 463.948 561.212 468.406 559.109C464.818 541.73 462.108 519.478 459.393 501.602C458.62 501.5 457.846 501.413 457.069 501.341C417.602 497.728 373.719 509.098 369.415 554.85C381.02 556.239 387.863 558.348 392.133 570.369C399.318 570.485 408.969 571.852 415.482 574.825C431.439 582.109 434.404 598.593 428.074 613.179C432.873 616.33 436.116 619.385 438.157 625.245C443.128 639.52 436.446 663.682 417.797 661.765C417.115 661.706 410.807 660.682 410.568 661.043C401.556 674.668 393.475 680.284 376.667 671.36C374.722 673.603 371.75 675.759 368.986 676.769C347.82 684.328 334.288 659.463 328.587 643.208C323.285 628.092 323.55 614.619 330.505 600.288C317.083 587.191 328.272 574.398 339.402 565.601C338.619 561.31 339 553.455 339.443 549.116C341.423 528.289 351.758 509.154 368.088 496.078C391.002 477.52 425.847 469.109 454.831 472.136C452.626 460.342 450.855 447.633 448.837 435.689C424.472 424.098 412.471 408.178 402.875 383.955C393.53 385.673 377.407 384.884 368.891 380.392C352.737 371.871 357.383 356.168 364.223 343.176C361.92 335.52 360.285 327.679 359.338 319.741C356.43 296.261 357.424 274.385 368.313 252.612C371.342 246.555 376.547 241.486 379.058 236.779C384.949 225.729 388.648 215.814 396.797 205.827C416.036 182.249 440.3 169.292 470.116 165.685Z"/><path fill="#AEADB1" d="M539.348 277.234C555.045 276.64 569.113 279.792 584.209 283.221C604.838 319.28 611.368 364.318 586.14 400.373C579.408 409.995 571.513 415.341 561.512 421.069C561.182 448.76 555.8 476.32 554.911 504.006C554.63 512.764 553.946 521.573 552.84 530.264C526.612 539.8 497.708 548.991 470.99 557.785C469.672 550.329 468.428 542.86 467.26 535.378C465.84 524.43 463.216 513.05 462.208 502.077C465.73 501.999 467.567 502.003 470.541 500.023C474.21 497.611 476.684 493.757 477.351 489.418C479.402 476.155 467.303 473.09 457.194 472.012C455.797 462.858 453.261 449.478 452.137 439.905C451.965 438.436 453.547 439.039 455.369 437.287C454.509 435.703 439.396 428.194 435.643 425.411C411.583 407.572 404.016 385.337 399.251 357.392C402.988 352.567 406.87 347.856 410.891 343.266C444.466 305.482 488.297 280.239 539.348 277.234Z"/><path d="M501.923 315.082C516.779 314.252 524.782 328.204 524.934 341.554C524.96 343.841 523.53 349.537 521.819 350.964C518.149 349.393 520.76 332.565 509.932 323.306L509.44 322.894C496.774 316.335 489.819 329.094 488.694 339.994C488.467 342.201 488.544 345.718 487.707 347.653L487.002 347.766C485.793 346.736 484.713 345.554 484.539 343.908C483.224 331.418 489.066 318.036 501.923 315.082Z"/><path d="M574.441 318.615C577.089 318.343 583.166 317.431 583.687 321.086C582.202 322.889 572.799 324.104 569.086 326.055C565.049 328.175 565.253 327.765 561.324 330.961C562.866 330.491 564.432 330.106 566.015 329.805C571.664 328.779 584.494 329.584 585.5 336.609L584.805 337.469C582.538 337.663 582.539 337.213 580.128 336.151C566.165 329.388 555.442 340.673 550.689 339.424L550.415 338.556C552.554 328.695 565.288 321.121 574.441 318.615Z"/><path d="M503.571 365.217C504.841 366.035 504.345 365.498 504.999 366.976C505.004 369.343 504.097 370.877 503.15 373.076C503.478 373.31 503.808 373.54 504.141 373.766C519.992 384.491 542.966 388.857 561.075 381.389C563.507 380.386 566.401 379.019 568.918 378.522L569.352 379.256C567.669 383.008 562.96 384.375 559.329 385.592C556.565 386.423 554.51 386.91 551.647 387.354C533.821 390.1 515.631 385.734 500.994 375.196C497.853 377.403 494.328 379.763 490.319 378.494L490.014 377.78C491.227 376.158 496.372 374.871 498.184 373.291C500.62 371.168 502.084 368.041 503.571 365.217Z"/><path d="M499.533 294.566C512.024 293.642 519.475 297.032 524.735 308.664C515.95 304.245 513.886 300.77 502.818 300.351C492.989 300.982 487.592 305.54 479.935 311.076C483.485 301.358 490.001 297.013 499.533 294.566Z"/><path d="M564.031 292.071C574.244 291.155 579.536 294.957 584.877 303.222C575.625 299.628 574.719 296.546 563.14 298.322C560.81 299.103 559.751 299.628 557.619 300.702C555.161 301.94 549.794 307.034 547.372 306.784C547.234 305.528 547.696 304.867 548.369 303.778C552.642 296.862 556.277 294.002 564.031 292.071Z"/><path d="M522.522 398.025C526.293 398.182 530.838 399.699 534.788 399.977C537.693 400.182 545.303 398.268 546.888 400.01L546.33 401.109C541.188 403.136 524.09 404.814 522.522 398.025Z"/><path fill="#F5742D" d="M471.129 167.685C475.079 167.073 484.467 167.375 488.375 167.796C515.136 170.684 533.944 189.05 546.335 211.804C550.767 219.944 553.87 229.003 559.577 236.174C557.24 224.698 546.773 206.966 540.148 196.909C560.612 203.13 575.935 221.134 587.071 238.511C576.578 240.046 565.977 241.215 555.574 243.259C486.154 256.895 411.799 283.031 366.208 339.852C358.374 320.221 358.291 284.195 366.052 264.747C377.301 236.555 390.548 225.143 416.82 213C437.82 203.661 459.921 207.108 476.508 222.836C481.551 227.617 486.481 232.938 491.843 237.303L492.563 237.883C485.41 224.052 470.514 212.213 455.731 207.69C433.74 200.962 416.145 209.792 397.332 219.592C408.94 198.736 432.056 180.928 457.023 188.222C480.103 194.965 493.886 215.841 504.288 236.099C505.041 237.566 506.847 241.253 508.444 241.723C509.62 233.089 488.268 205.985 482.161 199.845C458.286 175.845 421.306 180.945 401.956 207.786C396.242 215.711 392.732 222.238 385.809 229.359C401.43 193.752 432.821 172.522 471.129 167.685Z"/><path fill="#FEFEFE" d="M363.962 558.155C375.461 556.547 384.869 558.688 389.284 570.366C384.217 570.608 373.24 571.425 369.469 575.188L369.659 575.904C372.619 576.061 377.922 574.741 381.047 574.184C401.228 570.586 429.973 574.739 428.715 601.491C428.522 605.616 427.428 608.076 425.885 611.735L416.221 610.456C414.699 605.439 413.501 602.713 411.006 598.181C411.621 606.656 416.254 625.117 425.188 628.388C425.247 625.615 420.361 620.438 419.044 617.751C418.202 616.034 417.803 614.902 417.185 613.102C420.985 613.439 423.617 613.811 427.053 615.654C431.467 618.002 434.744 622.036 436.136 626.838C439.517 638.098 435.716 655.835 422.689 658.754C412.85 660.958 404.65 655.208 396.749 650.443C395.308 649.791 394.212 649.026 392.76 649.378C393.721 653.062 404.063 657.936 407.567 659.86C394.266 689.053 370.161 660.784 364.626 661.177L364.342 661.838C365.997 664.68 371.581 668.34 374.331 670.294C373.273 671.145 372.039 672.124 370.888 672.826C366.693 675.33 361.672 676.057 356.94 674.844C348.843 672.795 342.64 665.676 338.434 658.52C328.02 640.801 322.103 618.995 333.428 600.149C335.286 597.058 342.208 590.356 342.882 587.654L342.169 587.211C338.508 588.254 333.825 595.027 331.747 598.147C325.621 591.516 325.547 584.621 331.043 577.366C339.245 566.538 350.655 560.38 363.962 558.155Z"/><path fill="#F5742D" d="M607.315 239.712C645.199 235.948 667.932 251.138 635.002 283.848C623.759 295.015 613.592 301.581 599.939 309.112C598.247 305.095 596.636 300.828 595.028 296.759C600.24 291.176 607.69 283.088 607.708 274.944C607.732 271.777 606.478 268.734 604.229 266.505C598.879 261.227 588.243 259.969 581 260.224C512.568 262.64 438.798 284.251 389.834 334.069C384.076 340.324 374.64 351.588 373.441 360.208C371.836 371.745 391.619 371.97 399.002 372.471L401.898 381.465C391.633 382.581 374.208 382.565 365.756 375.783C352.17 364.883 365.277 343.323 374.202 333.943C433.519 271.603 523.826 245.31 607.315 239.712Z"/><path fill="#FEFEFE" d="M674.892 350.154L675.484 350.154C703.587 350.367 699.441 383.217 698.853 401.643C695.229 404.519 691.829 407.458 689.47 411.498C686.963 415.706 686.301 420.762 687.639 425.474C689.569 432.471 694.289 436.105 700.163 439.489C698.414 443.452 697.446 447.386 697.962 451.75C696.843 453.363 695.753 454.996 694.691 456.646C692.665 459.855 689.698 465.646 690.574 469.493C692.396 468.735 696.389 459.438 698.361 456.385L698.799 455.713C702.206 463.035 705.16 464.702 712.103 467.893C710.823 472.027 710.126 474.535 711.058 479.031C711.783 482.569 713.9 485.667 716.931 487.63C725.373 493.196 739.32 490.313 748.577 488.249C735.445 502.265 714.817 508.371 697.087 499.607C692.458 496.846 688.684 492.888 684.195 489.48C688.468 499.731 697.373 503.805 707.616 506.072C689.537 536.042 635.887 481.875 665.263 464.961C666.608 467.647 669.921 473.513 672.602 474.679L673.099 474.086C672.702 471.182 670.36 468.588 668.856 465.794C666.233 460.811 664.749 455.308 664.509 449.682C664.067 436.44 671.83 424.747 671.5 411.344C671.611 400.995 668.563 391.461 663.983 382.298C662.096 378.522 659.375 373.425 658.454 369.446C655.786 357.914 664.769 351.447 674.892 350.154Z"/><path fill="#F5742D" d="M370.693 711.909C372.225 714.196 373.238 721.251 374.038 724.231C377.764 738.108 386.731 748.038 401.271 750.715C401.142 751.382 401.021 752.05 400.908 752.719C396.902 776.505 403.564 794.18 417.296 813.467C412.574 820.711 409.711 826.827 405.972 834.599C400.746 831.874 395.747 828.369 390.961 824.935C382.086 817.954 378.618 809.143 372.074 801.954C355.778 784.052 344.236 777.838 333.348 754.741C342.556 738.974 356.682 723.701 370.693 711.909Z"/><path fill="#F5742D" d="M609.425 770.875C612.368 772.89 622.573 775.821 626.417 777.08C626.465 782.135 626.339 787.49 626.299 792.567C628.978 792.458 631.849 792.491 634.546 792.471L634.481 777.78C647.313 779.279 656.243 779.92 669.216 780.458C669.74 785.658 670.978 789.637 672.56 794.583C656.452 808.631 642.208 819.485 623.354 829.489C611.583 835.471 597.219 840.036 584.71 843.955C574.561 828.715 566.332 799.816 562.171 781.921C584.843 788.503 591.824 787.099 609.425 770.875Z"/><path fill="#AEADB1" d="M548.195 595.515L548.645 595.626C549.503 597.722 546.456 626.958 546.361 632.198C527.669 646.738 544.926 671.227 536.137 688.398C530.628 699.16 506.046 698.104 496.884 692.036C486.711 682.237 488.336 669.81 494.397 658.311C501.978 643.927 505.026 625.331 507.92 609.497C521.257 604.586 534.684 599.925 548.195 595.515Z"/><path fill="#FEFEFE" d="M453.865 796.169C464.992 793.73 478.284 799.368 485.577 807.827C496.502 820.497 496.915 834.453 495.963 850.334C480.232 850.866 468.53 850.948 452.954 848.893C439.522 847.355 420.359 841.651 408.562 835.698C418.978 812.358 427.578 800.284 453.865 796.169Z"/><path fill="#FEFEFE" d="M329.887 754.828C332.158 757.079 338.311 770.678 342.567 775.57C350.244 784.711 359.564 792.248 367.73 800.927C375.301 808.903 380.508 820.042 389.328 826.824C418.157 848.989 457.439 854.6 492.927 853.201C494.074 853.156 495.182 854.152 495.824 855.001C497.293 859.714 492.98 867.991 488.591 870.123C454.675 875.518 415.277 866.927 386.986 846.803C374.786 838.124 366.667 823.229 356.864 812.043C345.214 798.748 330.503 786.952 321.893 771.322C324.265 765.085 326.53 760.598 329.887 754.828Z"/><path fill="#FEFEFE" d="M756.233 758.087L757.189 758.152C761.299 760.943 762.259 767.36 763.464 772.102C713.379 785.716 683.918 810.967 643.103 839.991C631.47 848.263 605.072 856.67 590.383 864.309C587.252 863.205 582.141 851.865 583.568 848.405C590.365 843.914 600.514 841.667 608.288 838.639C616.888 835.289 625.968 831.419 633.991 826.907C646.976 819.603 658.993 809.23 670.694 799.931C696.945 779.067 723.4 765.218 756.233 758.087Z"/><path fill="#FEFEFE" d="M711.584 729.24C731.246 728.269 745.12 740.07 755.174 755.746C732.566 761.63 720.727 765.966 700.274 776.856C691.493 781.786 682.825 787.505 674.431 793.05C666.347 762.617 676.56 731.792 711.584 729.24Z"/><path fill="#AEADB1" d="M556.829 564.564C567.388 564.835 568.498 574.552 565.329 582.724C562.841 589.138 552.176 590.794 546.469 593.361C543.517 594.689 539.274 595.941 536.183 597.033L470.458 619.589C466.803 619.622 461.405 618.014 460.758 614.09C458.623 601.139 461.912 597.068 472.668 593.385C500.913 583.717 528.521 573.61 556.829 564.564Z"/><path fill="#AEADB1" d="M557.321 532.114C571.618 533.098 568.239 551.628 560.701 554.79C540.591 563.223 519.02 569.394 498.416 576.731C489.149 580.032 478.467 583.905 469.111 586.447C457.241 587.31 455.112 566.641 469.279 561.637C484.352 556.313 500.215 550.166 515.549 545.562C528.602 541.643 544.238 534.608 557.321 532.114Z"/><path fill="#FEFEFE" d="M587.407 694.364C592.367 695.049 599.854 718.371 604.355 723.895C609.381 730.064 609.216 730.622 616.245 735.34C608.509 737.081 599.272 739.588 595.774 747.415C590.867 758.397 599.869 764.029 608.279 767.416C603.771 772.44 602.579 771.575 596.418 771.679C573.336 772.069 568.224 756.016 560.226 738.264C556.94 730.972 552.452 722.795 548.943 715.166C550.687 714.174 552.693 713.223 554.503 712.317C557.826 718.921 563.311 730.008 568.23 735.655C569.074 736.625 569.56 736.369 570.567 736.292C567.888 729.757 560.574 717.677 556.858 711.141C558.978 709.923 561.127 708.808 563.288 707.667C568.236 717.739 571.805 726.028 579.357 734.451C576.852 726.639 569.553 714.293 565.441 706.398L571.833 703.197C575.553 710.012 582.902 724.325 587.5 729.702C585.538 721.398 578.331 709.693 573.767 702.197C575.802 700.875 577.759 699.842 579.883 698.685C585.512 707.211 587.932 715.144 595.39 723.09C593.874 716.184 586.694 705.596 583.013 697.457L587.407 694.364Z"/><path fill="#FEFEFE" d="M435.935 678.365L436.313 678.495C437.362 679.706 438.045 682.647 436.872 683.743C428.696 691.379 421.095 697.373 414.057 706.323C422.306 701.295 430.61 693.242 437.939 686.693C439.37 689.207 440.471 691.736 441.675 694.36C432.557 700.613 426.069 706.495 419.183 715.143C427.545 709.798 435.44 702.483 442.77 695.733L447.83 701.316C440.491 707.844 432.034 713.6 426.745 721.856C431.452 719.337 434.648 716.405 438.677 712.994C442.538 709.498 446.105 706.113 450.389 703.124L455.058 707.952C448.631 713.138 442.346 718.497 436.21 724.025C429.583 723.918 427.759 723.469 426.164 730.71C410.493 729.488 406.48 732.787 406.469 748.746C402.875 746.117 397.801 742.495 395.196 738.954C386.931 727.719 392.473 713.633 401.731 705.451C412.852 695.622 424.308 687.149 435.935 678.365Z"/><path fill="#FEFEFE" d="M744.333 422.679C752.023 421.647 758.163 428.726 759.65 435.668C760.989 441.917 760.082 446.424 756.871 451.841C744.193 452.276 727.36 456.906 716.547 463.501C709.82 468.968 701.943 458.383 700.813 451.996C697.414 432.774 730.853 424.39 744.333 422.679Z"/><path fill="#FEFEFE" d="M724.719 395.169C735.969 393.969 747.01 395.508 748.822 409.288C749.34 413.229 748.526 416.504 747.214 420.182C733.673 420.857 720.764 425.373 709.038 432.003C706.099 434.016 704.899 435.071 702.271 437.486C691.568 431.989 684.436 421.775 693.29 410.649C700.702 401.335 713.168 396.698 724.719 395.169Z"/><path fill="#FEFEFE" d="M751.604 454.672C752.378 454.576 753.154 454.503 753.933 454.453C766.135 453.783 775.657 489.382 726.426 488.186C716.416 486.682 708.996 477.685 715.279 468.519C720.524 460.866 742.492 455.938 751.604 454.672Z"/><path fill="#F5742D" d="M404.172 751.178C408.796 752.11 409.879 755.005 413.647 757.056C417.015 758.889 423.994 758.986 426.821 761.877L426.554 762.502C421.974 764.633 416.226 763.924 411.436 763.233L410.269 764.783C409.074 766.355 407.103 768.845 407.303 770.9C408.105 779.134 424.939 773.187 429.509 772.216C430.356 775.482 431.322 778.338 432.392 781.533C427.336 782.169 422.975 782.516 418.027 783.892C409.609 786.234 410.509 794.062 417.745 797.043C423.512 794.68 429.722 791.948 435.76 790.62C436.92 792.645 438.221 794.721 439.434 796.726C429.461 801.386 426.443 804.359 418.758 811.898L418.198 811.076C405.072 791.577 399.655 774.298 404.172 751.178Z"/><path fill="#F5742D" d="M389.357 701.056C390.88 700.953 398.226 701.609 397.29 704.217C394.974 710.675 390.561 715.003 389.397 722.194C388.038 730.596 389.939 737.093 395.681 743.384C396.82 744.678 398.017 745.733 398.359 747.261C396.93 747.61 395.61 746.733 394.163 746.085C378.049 737.076 375.463 726.263 374.433 708.758C379.146 704.82 383.663 703.096 389.357 701.056Z"/><path fill="#F5742D" d="M566.246 758.298C568.663 759.895 570.033 764.495 573.335 767.278C580.597 773.401 593.177 774.855 602.215 774.128C599.363 776.459 597.722 777.567 594.592 779.539C582.629 785.54 573.226 784.1 561.689 778.348C561.486 775.984 561.369 773.614 561.338 771.241C561.229 765.46 562.285 762.395 566.246 758.298Z"/><path fill="#F5742D" d="M666.496 748.477C668.871 748.901 671.839 749.127 674.285 749.386C669.96 760.47 669.123 765.918 668.857 777.725C657.466 777.362 646.125 776.907 634.907 774.819L636.086 766.564C641.573 771.864 643.338 772.866 648.921 767.396C652.286 768.96 655.721 771.331 659.515 770.215C664.495 768.751 661.308 763.26 659.897 760.807C662.131 756.024 663.761 753.012 666.496 748.477Z"/><path fill="#FEFEFE" d="M656.048 698.439C674.886 698.26 672.808 722.943 658.674 729.369C656.326 730.437 652.205 733.346 649.627 733.243C648.316 732.418 648.395 732.498 647.662 731.132C650.227 726.264 658.492 726.521 663.758 716.573C664.216 713.2 662.665 703.75 658.225 704.763C649.687 706.712 648.16 723.312 643.217 729.371L642.339 729.294C641.472 727.509 641.679 723.42 642.148 721.539C644.562 711.864 647.606 704.046 656.048 698.439Z"/><path fill="#FEFEFE" d="M478.289 735.119L478.788 735.159C486.39 735.819 491.244 740.43 490.218 748.384C489.752 752.283 487.748 755.834 484.652 758.249C479.883 761.893 473.83 761.631 468.229 760.689C465.504 760.231 458.544 759.135 456.929 756.906L457.375 756.374C462.279 754.403 470.132 755.368 475.621 755.683C479.344 754.834 484.579 752.888 484.429 748.605C483.848 732.003 463.334 748.7 457.384 749.268L456.81 748.692C458.509 741.955 471.925 736.364 478.289 735.119Z"/><path fill="#FEFEFE" d="M628.131 737.663L629.502 737.617L630.164 738.312L629.745 739.53C623.651 745.03 607.911 742.368 603.592 750.595C602.264 753.125 606.427 759.016 609.474 759.057C618.897 759.185 624.762 747.463 631.285 743.03L632.27 743.155L632.252 743.126C633.457 745.76 632.467 746.586 631.032 748.657C626.021 754.324 620.185 761.188 612.699 763.481C605.978 765.539 599.482 762.092 597.76 755.181C596.945 752.008 597.525 748.637 599.354 745.919C604.979 737.587 619.518 739.415 628.131 737.663Z"/><path fill="#FEFEFE" d="M614.686 704.459C617.675 704.417 620.611 705.244 623.138 706.84C627.529 709.666 637.541 722.659 634.146 727.66C631.012 726.806 627.083 718.097 624.434 715.245C622.605 713.275 621.731 712.4 619.682 710.598C613.404 712.973 610.692 713.877 611.635 721.056C614.692 725.018 618.213 728.415 622.479 731.074C624.852 732.553 626.694 733.101 628.792 734.99L628.551 735.751C621.096 737.969 587.281 717.451 614.686 704.459Z"/><path fill="#FEFEFE" d="M417.242 732.499C423.361 732.315 443.807 739.517 442.422 746.473C438.031 747.748 418.802 728.933 415.185 743.14C414.488 745.88 415.521 747.73 417.034 749.92C424.821 754.338 434.73 751.069 438.607 752.889C439.205 754.614 439.383 755.842 438.031 757.167C434.074 758.268 424.89 757.744 420.724 756.553C406.639 752.525 402.405 739.607 417.242 732.499Z"/><path fill="#FEFEFE" d="M429.759 726.574C447.049 726.082 454.357 724.187 449.787 744.319C446.076 744.671 432.245 734.374 429.477 731.559C428.897 729.771 429.386 728.452 429.759 726.574Z"/><path fill="#FEFEFE" d="M461.824 781.721C464.31 781.531 465.724 781.178 467.72 782.448C468.364 784.474 468.444 783.609 468.097 785.337C463.386 786.094 455.845 786.15 450.742 786.596C442.85 787.286 436.426 788.404 428.646 789.867C425.802 790.447 425.018 790.839 422.697 788.779L422.682 787.743C427.806 782.501 454.32 782.097 461.824 781.721Z"/><path fill="#AEADB1" d="M550.594 562.07L551.76 562.153L551.806 562.622C549.272 564.235 545.84 565.489 542.983 566.439C520.893 573.785 498.955 581.902 476.714 588.76L475.804 588.573C478.109 585.213 543.534 563.855 550.594 562.07Z"/><path fill="#FEFEFE" d="M444.127 763.713C447.869 763.559 450.476 762.761 452.593 766.04L452.186 766.732C447.652 768.046 431.334 769.703 425.516 770.627C422.778 771.197 420.37 772.116 418.079 770.697C417.652 769.316 417.305 768.744 417.782 767.394C423.688 764.824 437.416 764.217 444.127 763.713Z"/><path fill="#FEFEFE" d="M617.598 713.42C622.141 714.708 632.408 727.782 629.248 731.266L627.715 730.945C621.394 727.784 607.493 720.886 617.598 713.42Z"/><path fill="#FEFEFE" d="M445.468 747.491C456.229 747.515 457.705 752.428 451.29 760.194C444.779 762.355 437.494 754.427 445.468 747.491Z"/><path fill="#FEFEFE" d="M672.724 732.344L674.027 732.816C674.333 735.828 665.097 746.183 663.184 749.943C660.969 754.299 658.071 759.912 655.479 763.964L654.329 762.69C652.465 755.053 666.738 736.856 672.724 732.344Z"/><path fill="#FEFEFE" d="M476.829 743.562C478.976 743.709 483.098 744.904 482.53 747.305C480.898 754.198 469.828 753.175 465.875 752.962L460.26 752.366C465.535 748.042 470.517 745.904 476.829 743.562Z"/><path fill="#FEFEFE" d="M453.126 788.706C455.612 788.38 460.473 788.447 463.169 788.415L464.677 793.487C459.236 793.448 455.264 793.4 449.883 794.12C446.88 794.593 443.85 795.406 440.887 796.127L438.693 790.517C443.788 789.579 447.993 789.191 453.126 788.706Z"/><path fill="#FEFEFE" d="M653.937 734.985L654.49 735.031L654.912 735.713C654.083 738.847 650.971 742.368 649.611 745.678C646.923 752.223 645.875 758.465 641.544 764.203C640.905 763.835 641.033 763.78 640.571 763.046C639.697 755.893 646.067 743.662 649.208 737.067L653.937 734.985Z"/><path fill="#FEFEFE" d="M657.1 707.783C659.856 708.222 662.93 710.338 662.055 713.556C660.655 718.701 656.002 721.862 651.822 724.665C650.748 725.37 650.659 725.336 649.407 725.709C646.937 723.158 655.004 710.123 657.1 707.783Z"/><path fill="#FEFEFE" d="M636.286 730.869C645.642 731.186 649.802 735.423 640.889 742.099C631.826 745.12 630.63 737.021 636.286 730.869Z"/><path fill="#FEFEFE" d="M440.823 770.675C446.192 769.878 458.171 769.165 461.701 773.738L461.549 774.724C458.717 776.521 456.687 775.836 453.387 775.386C446.555 774.777 437.223 773.9 430.603 772.526C434.06 771.641 437.3 771.207 440.823 770.675Z"/><path fill="#FEFEFE" d="M456.824 710.359C458.38 710.904 459.516 712.307 460.715 713.509C456.871 716.987 449.706 724.498 444.85 724.542C442.884 724.462 442.178 724.423 440.264 724.041L440.266 723.557C445.175 719.194 451.47 714.03 456.824 710.359Z"/><path fill="#FEFEFE" d="M634.866 748.358C635.417 751.549 633.204 769.953 632.118 774.23C631.83 775.364 629.874 775.572 628.611 775.925C627.365 766.797 629.385 755.88 634.866 748.358Z"/><path fill="#F5742D" d="M619.254 763.417L619.659 763.506C621.731 765.276 627.2 770.388 625.272 773.125C623.629 773.782 621.881 773.088 620.086 772.649C617.255 771.704 612.75 770.958 613.036 767.53C614.449 765.537 616.981 764.584 619.254 763.417Z"/><path fill="#FEFEFE" d="M615.878 746.54C616.493 748.155 617.122 749.765 617.764 751.369L618.12 752.112C615.253 754.957 610.378 757.957 607.194 753.754C606.184 748.227 611.793 747.446 615.878 746.54Z"/><path fill="#FEFEFE" d="M433.03 775.908C437.075 775.808 452.128 776.984 455.447 778.398L454.924 778.968C451.529 779.584 438.036 781.056 435.087 780.209C433.683 778.957 433.56 777.739 433.03 775.908Z"/><path fill="#FEFEFE" d="M420.338 739.934C426.37 740.204 428.985 745.096 424.587 749.899C418.216 748.751 415.207 745.463 420.338 739.934Z"/><path fill="#F5742D" d="M654.726 749.652C654.866 750.858 650.591 764.9 648.891 766.031C646.722 759.21 647.322 757.948 649.88 751.192L654.726 749.652Z"/><path fill="#FEFEFE" d="M672.637 740.303L679.906 740.464C678.677 742.693 677.219 744.687 675.77 746.778C673.195 746.58 670.682 746.284 668.119 745.993C669.535 743.966 671.059 742.199 672.637 740.303Z"/><path fill="#FEFEFE" d="M657.091 738.945C658.633 739.393 661.052 739.812 662.689 740.15C660.827 743.277 660.124 744.415 656.939 746.128C655.195 746.64 653.296 747.091 651.524 747.549C653.142 743.979 654.575 741.852 657.091 738.945Z"/><path fill="#FEFEFE" d="M429.381 743.056C431.909 743.972 438.348 746.937 438.213 749.82C435.07 750.07 431.447 750.033 428.247 750.072L429.381 743.056Z"/><path fill="#F5742D" d="M685.786 733.243L686.859 733.221L687.1 733.807C684.824 736.939 681.356 737.958 677.679 738.149C676.096 737.566 676.714 738.028 675.68 736.817L676.053 735.786C678.904 733.226 682.209 733.284 685.786 733.243Z"/><path fill="#FEFEFE" d="M628.75 778.118C629.349 778.275 630.049 778.539 630.646 778.743C632.54 781.39 631.695 787.817 631.377 791.176C626.961 788.342 628.348 782.823 628.75 778.118Z"/><path fill="#F5742D" d="M417.623 785.785C421.092 788.025 421.184 791.145 418.428 794.052C414.371 791.472 414.632 789.106 417.623 785.785Z"/><path fill="#F5742D" d="M465.271 788.422C471.102 788.393 471.186 790.956 473.209 795.793C468.025 794.226 467.605 793.06 465.271 788.422Z"/><path fill="#FCB081" d="M619.174 745.889L627.16 744.018C624.604 746.342 620.738 750.079 618.12 752.112L617.764 751.369C618.655 749.52 618.812 747.901 619.174 745.889Z"/><path fill="#FEFEFE" d="M435.686 759.596C437.463 759.475 440.123 759.13 441.455 760.521C440.102 761.741 439.855 761.43 437.739 761.852C435.17 762.278 433.604 762.746 431.273 761.82L431.067 761.151C432.474 759.939 433.822 759.928 435.686 759.596Z"/><path fill="#FEFEFE" d="M643.103 743.486C643.278 745.286 638.02 754.301 637.134 759.087C636.73 758.044 638.739 748.998 639.108 746.813C640.334 745.711 641.818 744.546 643.103 743.486Z"/><path fill="#F5742D" d="M412.488 766.252C415.129 768.047 415.402 771.241 413.421 773.632C410.023 771.135 410.801 769.711 412.488 766.252Z"/><path fill="#F5742D" d="M626.533 757.372L627.213 758.133C627.209 760.51 626.687 762.6 624.816 764.217C623.916 763.119 623.759 762.892 623.061 761.657C623.568 759.547 624.713 759.073 626.533 757.372Z"/></svg>