<svg xmlns="http://www.w3.org/2000/svg" width="1024" height="1024" viewBox="0 0 1024 1024"><path d="M710.243 157.57c7.018-.333 9.706-.055 14.014 5.897 6.492-6.474 11.766-7.029 20.011-3.92 6.503 7.529 6.788 11.374 6.719 21.01 1.986-.199 3.951-.286 5.942-.394 20.127 8.949 4.651 47.757.236 62.59-.817 2.746-1.206 8.281-1.398 11.159-1.401 21.031-7.813 35.858-28.28 42.578.869 16.267-8.532 18.503-22.721 17.482-18.196 52.057-70.933 99.324-118.387 124.99-7.718 4.174-16.544 7.472-24.795 10.443-.191 9.912-1.372 20.911-2.252 30.829a1916 1916 0 0 0-3.987 49.165c1.591.033 2.881.076 4.451.412a11.92 11.92 0 0 1 7.91 5.715c3.481 5.928 2.625 13.891-2.574 18.76-2.38 2.228-9.15 4.238-9.991 7.404l.401.65c13.168-.919 15.975 10.136 12.206 21.148-2.102 6.139-10.905 8.694-16.704 10.853.218 9.97-2.541 34.101-3.818 44.313 6.728 9.428 14.099 22.204 20.344 32.1 3.856 6.111 10.729 17.405 13.385 23.643 2.983-1.402 4.85-2.607 8.143-2.234 2.497 1.764 10.297 16.298 12.594 20.146 16.436-21.779 26.428-4.456 36.595 10.9 3.373-7.274 4.9-15.82 10.407-21.844 10.697-11.698 24.074-1.153 23.4 12.411-.366 7.38-4.411 12.531-9.38 17.381 4.489.377 11.413-.565 14.788-.103 11.241 1.539 17.585-1.241 28.464-3.185 10.699-1.912 26.056.57 34.467 8.242 9.794 8.932 23.763 21.557 25.214 35.659.394 5.432-1.611 10-5.275 13.811-13.937 15.29-35.76 24.057-52.199 35.079-34.808 23.336-66.961 47.756-110.885 49.633-12.116.518-13.746-10.675-16.432-20.258-.346-1.233 1.23-3.679.281-5.186-8.735-23.024-20.514-46.483-22.439-71.351-.522-7.42 2.5-12.807 7.463-17.969-6.23-14.391-13.291-27.407-20.351-41.376 2.749-1.575 5.909-3.18 8.728-4.693-3.182-6.982-10.139-18.287-14.148-25.215-3.034 5.814-5.527 10.722-12.281 12.828-7.658 2.388-22.353 2.297-29.661-1.1-6.483-3.014-8.347-9.901-10.436-16.097-11.134 12.72-16.739 17.353-29.858 27.391 2.52 2.294 4.037 3.782 5.853 6.651-4.362 3.609-9.278 6.98-13.274 10.894 5.662 7.34 3.647 13.515 1.509 21.545 7.912-4.959 20.351-16.387 30.368-13.873 13.57 3.406 12.787 24.063 1.111 29.465-8.06 3.728-15.919-1.76-23.153 1.462-2.017 2.417-.315 4.398.94 6.897 2.445 4.865 3.532 7.587 7.974 10.989 3.337 9.228 5.144 14.94 13.333 20.591 5.616 3.877 9.94 10.973 12.199 17.383 4.211 11.949 4.062 26.048 3.401 38.582-.123 2.121-4.543 11.065-5.663 13.415-28.159 6.461-57.688 1.051-83.986-9.439-28.093-11.207-38.024-28.925-55.867-50.92-7.388-9.107-18.568-17.321-25.852-26.926-3.376-4.452-5.603-7.676-7.717-12.93 1.751-5.304 4.262-11.374 7.299-16.088 1.997-2.904 5.792-4.46 7.98-7.152 13.654-16.8 34.866-47.553 58.33-48.904 3.52 1.013 4.71 1.752 7.528 4.083 4.498-3.622 34.281-28.983 38.145-27.788 1.791 2.602 1.762 5.812 2.018 8.959 21.402-17.237 28.156-26.935 41.998-49.902-.93-4.553-1.663-10.575-2.374-15.269-14.77 5.668-27.691.252-21.939-17.74 2.181-6.82 9.158-9.731 15.336-12.248-12.351.391-19.438-3.93-15.974-18.414 1.265-5.291 5.941-9.103 10.731-11.479-2.243-10.496-3.734-22.277-5.252-32.929q-3.12-22.457-6.877-44.814c-42.183 11.827-68.176 31.31-84.373 72.732 8.892 5.807 15.583 12.284 12.113 23.855 17.049 10.849 25.073 23.244 19.719 44.479-2.063 8.185-6.701 13.247-14.033 17.319 6.257 23.449-20.92 48.439-42.278 27.431-12.424 8.361-25.205 5.528-32.742-7.407-2.031-.219-4.56-.461-6.549-.952-20.744-5.119-17.398-31.183-13.978-46.666 3.594-16.266 10.657-30 24.799-38.982-3.636-16.647 9.936-21.863 23.272-24.415a140 140 0 0 1 21.612-41.369c17.063-22.792 41.917-39.565 68.64-48.875 5.742-2.001 13.214-4.366 19.126-5.216-1.097-5.351-1.801-11.698-2.785-17.257-24.029-12.991-36.442-26.76-45.868-52.079-29.627 3.352-58.15-5.68-38.799-40.701-8.424-30.985-10.201-67.867 7.381-96.205 1.987-3.204 5.559-6.572 7.338-9.769 2.858-5.138 5.078-10.89 7.955-16.053 8.342-16.165 20.444-28.77 35.651-38.714 22.158-14.49 49.508-20.637 75.518-15.273 18.617 3.839 25.609 13.732 39.161 25.254 3 2.551 12.279 5.598 16.345 7.937 16.841 9.685 26.138 22.233 36.212 38.042 14.823-1.802 55.299-3.412 61.735 10.958 11.356 25.355-35.327 53.147-51.173 62.186a145.3 145.3 0 0 1 3.75 27.334c.89 23.282-3.409 49.161-19.78 66.841 30.715-18.44 60.121-45.26 79.552-75.511 4.954-7.712 9.308-16.894 13.489-25.112l-.587-.393c-10.019-6.773-14.927-13.968-6.963-25.107-2.33-3.268-2.923-3.975-4.532-7.752-2.867-5.985-1.832-20.392-6.184-24.96-8.713-9.146-33.324-19.253-16.557-34.884 3.668-3.42 9.394-4.981 14.578-4.213 10.202 1.509 15.526 8.454 21.189 16.202.894-19.718 11.269-58.6 32.01-66.503"/><path fill="#aeadb1" d="M533.267 277.696c13.152-2.456 37.681 2.662 51.173 5.538 3.73 6.859 7.222 13.366 9.955 20.726 16.048 43.221 9.991 93.011-32.891 117.106-.309 22.078-3.992 43.718-5.874 65.569-1.262 14.645-1.13 28.577-2.757 43.538-25.485 9.543-55.75 18.945-81.919 27.678a1326 1326 0 0 1-4.433-27.239c-2.778-16.296-5.174-33.12-7.742-49.484 7.253-1.422 16.09-.068 21.251-6.353 5.178-6.305 4.597-16.742-2.266-21.534-6.203-4.332-16.938-1.753-23.954-.629-.642-4.164-1.544-8.673-1.611-12.852-.011-.72 2.421-2.041 3.066-2.42-1.292-2.061-15.369-8.729-19.373-11.698-24.269-17.997-31.816-39.982-36.59-68.076 1.78-2.525 4.568-5.956 6.57-8.38 32.454-39.307 76.17-66.43 127.395-71.49"/><path d="M561.468 304.631c10.721.116 13.978 4.32 18.438 13.207a484 484 0 0 1-9.61 9.604c3.614 1.592 7.642 3.062 11.35 4.498-.538 15.134-3.633 21.536-19.43 23.592-.084 14.59-21.21 20.59-27.04 13.622 5.017-1.953 17.358 1.346 21.964-6.081 3.831-6.177 2.524-9.757-3.222-13.508-12.012-.979-10.667 1.969-18.691 2.39l-.564-.521c2.673-4.3 9.988-4.809 14.619-5.042-1.28-2.788-2.773-6.3-3.331-9.308-2.794-15.077-1.582-28.5 15.517-32.453"/><path d="M503.104 308.096c11.385.79 14.745 4.182 19.065 14.531-2.749 2.732-6.763 6.061-9.741 8.679 3.608 1.433 7.605 3.52 11.131 5.253-.086 9.296-1.011 14.321-8.989 20.041-24.961 9.739-34.015-24.749-23.672-41.208 2.915-4.637 7.142-6.213 12.206-7.296"/><path d="m499.225 371.917 1.159.412c.737 2.489-1.228 1.779-.624 4.441 12.196 12.824 41.721 14.164 57.152 7.908 1.695-.688 4.783-1.974 6.351-1.74-.237 2.748-2.27 3.223-4.532 4.186a76 76 0 0 1-13.495 3.379c-18.275 2.83-33.799-1.3-48.589-12.113-1.141.876-1.385 1-2.673 1.662l-.877-.364c-.469-3.237 3.688-6.358 6.128-7.771"/><path d="M497.79 288.101a29 29 0 0 1 3.638-.144c6.413.129 10.116 2.768 14.269 7.173-10.397-.922-15.208-1.435-24.354 4.75-2.723 2.075-7.336 7.659-8.839 8.484l-.529-.51c-.846-9.488 7.398-17.053 15.815-19.753"/><path d="M559.213 283.605c12.031-.864 17.198 5.023 20.883 15.965-3.466-2.537-5.518-4.709-9.531-6.795-11.179-4.494-13.693-.727-22.16.623l-.587-.451c.458-4.401 7.702-7.91 11.395-9.342"/><path d="M546.656 400.526c1.018.337.632.156 1.442.995l-.359.963c-6.448 5.661-16.547 5.112-24.051 2.079-1.559-1.133-1.628-.776-2.046-2.257 1.86-1.4 8.992 1.346 12.412 1.14 5.182-.314 7.793-1.188 12.602-2.92"/><path fill="#f6742d" d="M471.849 167.691c2.585-.438 10.769-.333 13.617-.146 27.936 1.585 48.503 21.14 61.137 44.781 3.797 7.104 7.737 17.777 12.949 23.588-2.642-11.794-12.697-28.697-19.412-39.041 20.862 6.993 35.7 23.619 47.043 41.844-77.715 9.209-170.145 37.846-220.977 101.119-7.848-19.87-8.091-55.172-.137-75.082 11.592-29.017 24.697-39.544 51.502-51.997a64.7 64.7 0 0 1 17.907-4.541c16.108-1.665 29.265 4.039 41.166 14.765 5.193 4.68 9.778 9.984 15.293 14.373l.707.556c-7.369-13.989-22.119-25.703-37.168-30.241-21.764-6.561-39.66 2.189-58.238 12.096a80.6 80.6 0 0 1 8.524-12.327c30.27-35.684 69.21-21.795 90.509 14.464 2.029 3.453 9.507 17.927 11.908 20.004l.347-.467c-.445-9.651-18.24-33.1-25.149-40.366-23.838-25.07-61.48-20.832-81.424 6.743-5.525 7.638-9.268 14.557-16.087 21.416 15.474-36.387 47.589-56.409 85.983-61.541"/><path fill="#fefefe" d="M711.182 160.035c3.106-.423 8.368.474 9.982 3.374 6.186 11.119-4.164 25.782-7.165 36.788-1.834 6.724-2.811 11.062-3.625 17.77-2.305-.081-6.887-.696-8.373 1.075 1.614 1.707 11.365 1.574 14.614 2.045 13.228 1.916 19.336 8.141 29.726 13.341l.617.306c-2.657-4.154-4.26-5.32-8.011-8.354 3.66-10.787 7.519-21.664 9.926-32.79.545-2.521 1.454-9.114 2.895-10.493 7.06-1.542 10.841 3.668 11.963 9.981 3.157 17.771-4.833 33.71-9.316 50.24-1.463 5.395-1.16 14.651-2.343 20.832-2.882 15.072-12.351 28.586-28.702 30.2-3.504.337-9.259-1.145-11.47.382 2.832 4.708 10.429.569 13.6 3.685 1.573 4.687-3.441 11.338-8.417 12.405-13.307 2.855-26.908-1.363-38.617-7.801-8.484-5.573-13.527-11.567-7.018-21.228 3.735 3.365 10.881 8.754 16.106 8.024l.245-.72c-2.74-2.953-12.152-5.274-17.023-12.011-7.828-10.826-2.929-21.14-9.446-31.176-5.423-7.415-14.986-9.898-20.025-17.634-4.039-5.305-.145-13.774 5.686-16.134 18.529-7.502 28.057 11.615 34.104 23.181 16.263 2.41 27.523 2.954 31.424 23.08.285 1.469.768 5.472 1.713 6.347l.776-.485c3.738-12.009-10.117-28.977-21.722-30.107-3.735-.364-6.827-.861-10.603-1.091-5.496-11.184 1.844-32.82 5.939-44.012 4.021-10.987 11.33-24.113 22.56-29.02"/><path fill="#fefefe" d="M347.328 551.212c12.729.08 31.296 4.531 34.801 19.184.391 1.637-.059 4.524-.28 6.26-3.286-1.479-15.453-7.89-18.185-5.375 1.551 2.534 26.461 8.964 35.015 23.619 4.586 7.859 4.912 18.234 2.576 26.883-1.977 7.318-6.087 11.994-12.567 15.645-3.751-2.882-7.015-4.941-10.988-7.463.843-3.804 3.52-9.531 3.361-13.339l-.585.082c-4.936 6.325-9.21 25.012-5.929 32.04l.762.167c1.849-2.426 1.223-12.022 1.668-16.58 11.504 7.21 14.806 11.121 8.761 25.236-2.834 6.615-7.586 10.923-14.265 13.639-21.521 6.075-22.172-11.025-33.13-20.303l-.547.112c1.375 4.383 5.379 10.606 7.916 14.303a44 44 0 0 1-2.617 1.439c-16.655 8.285-25.627-4.112-30.349-17.702-.421-1.213-1.103-1.747-2.265-2.072-.867 2.247 1.613 7.903 2.487 10.374-10.317-2.069-17.346-7.696-18.307-18.115-2.078-22.552 6.468-56.812 30.073-65.705 2.164-.815 10.987-3.127 11.597-3.944-3.528-3.916-11.425 3.069-15.79.713-1.197-2.81 2.026-8.57 3.853-10.669 5.735-6.589 14.697-7.939 22.934-8.429"/><path fill="#f6742d" d="M607.793 239.714c25.064-2.241 59.463 3.835 34.416 36.008-10.999 14.128-26.416 25.085-42.261 33.282a541 541 0 0 1-4.93-12.205c6.706-7.344 19.067-20.615 9.01-30.344-5.46-5.281-16.169-6.559-23.495-6.257-67.796 2.787-142.042 24.078-190.594 73.775-5.847 6.452-15.348 17.594-16.505 26.468-1.485 11.392 18.26 11.555 25.556 11.908l2.952 9.134c-59.207 5.301-48.245-31.123-14.692-60.373 60.875-53.068 140.833-76.268 220.543-81.396"/><path fill="#f6742d" d="M370.842 711.934c1.107 1.859 2 7.201 2.488 9.531 3.168 15.147 12.137 26.456 27.953 29.245q-.224 1.253-.424 2.508c-3.739 23.553 2.63 41.249 16.447 60.234-4.575 7.07-7.723 13.666-11.418 21.203a138 138 0 0 1-15.559-10.204c-8.007-6.68-12.063-15.46-18.832-23.184-3.828-4.368-8.52-8.751-12.741-12.785-11.233-10.734-18.799-19.67-25.435-33.948 8.549-14.361 24.247-32.054 37.521-42.6"/><path fill="#f6742d" d="M609.4 770.848c3.309 2.142 12.801 4.967 17.037 6.448l-.139 15.247 8.23-.108-.125-14.93c12.079 1.982 22.556 2.542 34.763 2.975.627 5.175 1.811 9.209 3.351 14.156-16.25 14.251-30.072 24.623-48.959 34.827-13.878 6.67-24.162 9.942-38.809 14.586-10.154-15.15-18.409-44.236-22.564-62.054 22.175 6.634 30.398 5.022 47.215-11.147"/><path fill="#fefefe" d="M458.089 795.712q1.674.078 3.345.189c13.699.939 23.886 8.637 29.995 20.723 5.481 10.845 5.442 21.893 4.545 33.732-17.484.566-28.79.582-46.09-1.883-14.307-2.481-28.313-6.356-41.396-12.723 11.195-24.681 21.13-37.532 49.601-40.038"/><path fill="#fefefe" d="M329.907 754.834c1.526 1.339 8.944 16.308 12.492 20.503 7.842 9.851 18.595 17.694 26.752 27.147 7.658 9.245 12.895 19.328 22.919 26.451 28.859 20.509 66.427 25.559 101.043 24.292 1.288-.047 2.068.889 2.836 1.711 1.39 4.911-3.065 13.266-7.759 15.373-21.539 2.351-40.315 1.937-61.406-4.635-14.303-4.457-27.48-9.838-39.666-18.855-12.849-9.508-20.048-23.082-30.279-34.862-11.292-13.004-26.805-25.409-34.979-40.635 2.473-6.297 4.575-10.691 8.047-16.49"/><path fill="#fefefe" d="M756.586 758.124c4.13.989 5.947 10.296 6.932 13.997a259.5 259.5 0 0 0-83.226 40.813c-11.151 8.126-25.723 20.337-37.285 27.14-16.755 9.859-34.799 14.78-52.753 24.426-3.04-2.852-8.637-12.069-6.659-16.13 5.952-4.041 17.503-6.885 24.624-9.675 8.653-3.389 17.793-7.208 25.856-11.83 12.794-7.334 25.365-17.789 36.976-27.116 24.884-19.988 53.931-35.495 85.535-41.625"/><path fill="#fefefe" d="M711.607 729.2c19.358-1.495 33.782 11.533 43.63 26.67a202.2 202.2 0 0 0-55.569 21.463c-8.449 4.607-17.127 10.436-25.228 15.726-7.911-30.704 1.828-60.994 37.167-63.859"/><path fill="#aeadb1" d="M557.378 564.571c12.968.346 11.531 19.968 2.699 23.527-12.683 5.111-26.24 10.313-39.254 14.489-16.735 5.369-33.979 12.385-50.827 17.045-15.791-1.016-9.663-21.443-4.27-23.462 21.773-8.154 44.129-15.443 66.023-23.412 7.523-2.738 17.877-6.369 25.629-8.187"/><path fill="#aeadb1" d="M557.03 532.12c14.355.395 11.557 19.212 3.651 22.623-21.403 9.237-44.529 15.61-66.517 23.5-7.821 2.806-16.954 6.05-24.859 8.208-12.703.449-13.637-19.584-.189-24.674 22.583-8.548 45.542-15.745 68.376-23.601 6.198-2.133 13.185-4.775 19.538-6.056"/><path fill="#aeadb1" d="M491.694 614.953c4.815 1.032 42.225 59.291 47.157 67.368-2.403 6.074-4.075 9.244-9.89 12.409q-1.465.435-2.969.704c-8.303 1.444-21.215 2.226-28.348-2.958-8.902-6.468-7.333-18.355-8.72-27.93-2.227-15.377-3.886-30.897-6.428-46.222z"/><path fill="#fefefe" d="M587.348 694.424c5.277.815 12.742 24.635 17.373 30.16 4.946 5.902 4.905 6.396 11.754 10.818-21.503 3.246-33.219 22.652-8.133 31.888-1.242 1.518-2.645 2.783-4.06 4.142-14.71.87-28.9-.726-35.94-16.05-6.195-13.483-13.151-26.641-19.378-40.055 1.681-1.083 3.783-2.063 5.591-2.972a580 580 0 0 0 4.94 9.403c1.739 3.238 7.012 13.772 10.282 14.758l.562-.4-.308-1.276c-3.477-7.187-9.078-16.358-13.141-23.447 2.045-1.409 4.14-2.505 6.311-3.705 5.916 10.512 7.465 17.16 16.176 26.753-2.658-8.116-9.827-20.098-14.087-28.203 2.081-1.235 4.197-2.251 6.359-3.331 5.028 7.689 9.955 19.981 15.844 26.767-1.646-7.849-9.806-20.771-14.003-27.977 2.152-1.323 4.109-2.179 6.387-3.243 4.994 8.61 9.024 17.766 15.913 24.877-1.971-7.077-9.359-18.267-13.126-26.223z"/><path fill="#fefefe" d="m436.172 678.411.305.064c.844 1.056 1.473 4.579.736 5.237-8.588 7.666-15.92 13.454-23.032 22.761 9.148-6.037 15.388-12.543 23.642-19.585 1.577 2.617 2.487 4.564 3.782 7.322-9.954 7.717-14.517 11.002-22.481 20.905 10.417-6.744 14.94-12.543 23.789-19.037 1.602 1.64 3.195 3.505 4.729 5.227-7.41 7.43-14.691 11.207-20.898 20.599 4.813-2.615 7.714-5.314 11.832-8.791 3.836-3.452 7.607-6.952 11.701-10.094 1.698 1.584 3.325 3.463 4.897 5.19-6.468 4.549-13.139 10.532-19.017 15.801-6.827-.154-8.088-.417-10.027 6.717a106 106 0 0 0-3.555-.279c-13.906-.812-15.959 5.873-16.128 18.023-9.774-6.32-17.217-13.613-14.785-26.376.774-4 2.469-7.766 4.95-10.998 5.948-7.806 30.673-26.662 39.56-32.686"/><path fill="#fefefe" d="M735.912 160.126c24.991 2.233 5.223 51.207.698 65.195l-7.209-3.366c-6.29-2.187-9.625-3.031-16.226-3.717.682-11.655 5.074-21.854 9.32-32.562 2.729-6.883 4.034-11.9 2.906-19.316 3.492-3.905 5.408-5.228 10.511-6.234"/><path fill="#f6742d" d="M404.218 751.021c5.515 1.966 5.046 3.448 9.038 5.826 2.644 1.575 9.876 2.106 13.229 4.965l.014.736c-3.857 2.135-10.839 1.356-15.011.731-9.205 10.752-1.652 13.543 9.148 11.038 2.935-.681 5.942-1.469 8.871-2.219.803 3.192 1.935 6.321 2.991 9.444-5.926.699-28.108 1.705-17.954 13.692 1.058 1.249 2.507 1.449 4.074 1.458 5.478-2.159 11.506-4.772 17.177-6.115 1.148 2.192 2.404 4.007 3.763 6.063-10.645 5.569-12.257 6.789-20.811 15.306-13.564-19.409-19.107-37.597-14.529-60.925"/><path fill="#f6742d" d="M389.318 701.065c2.723-.216 9.503.425 7.483 4.193-6.173 11.512-12.24 22.918-3.494 35.449 1.109 1.588 4.666 4.698 5.231 6.538-1.51.347-1.59-.018-3.329-.637-16.97-8.287-19.666-20.244-20.748-37.738 4.675-3.952 9.215-5.71 14.857-7.805"/><path fill="#aeadb1" d="m548.389 595.588.221.174c.836 1.907-2.308 35.45-3.166 39.677l-8.061-11.684a1446 1446 0 0 1-13.819-19.698 1597 1597 0 0 1 24.825-8.469"/><path fill="#f6742d" d="M566.414 758.332c2.048 1.412 3.488 6.072 7.074 8.964 7.725 6.229 19.524 7.691 29.022 6.839-2.98 2.264-4.906 3.587-8.097 5.54-11.832 5.79-21.368 4.494-32.743-1.325-.609-8.077-1.368-13.911 4.744-20.018"/><path fill="#f6742d" d="m666.533 748.415 7.757 1.009c-4.393 11.33-5.173 16.176-5.44 28.327-10.847-.308-23.389-.764-33.961-2.958l1.174-7.85c5.793 5.693 7.547 5.605 12.926.445 3.976 2.18 9.416 5.289 12.952.778.683-3.239-.265-4.35-1.968-7.308 2.153-4.79 3.815-7.995 6.56-12.443"/><path fill="#fefefe" d="M656.038 698.422c2.387.049 4.435.454 6.597 1.554a13.08 13.08 0 0 1 6.527 7.864c3.886 12.523-8.692 22.686-19.356 25.506-1.362-.679-.811-.2-1.643-1.56.926-4.614 10.388-5.688 15.585-15.279.695-4.164-.724-13.196-6.903-11.419-6.625 1.907-10.276 23.023-14.207 24.265-2.287-3.883.698-12.724 2.245-16.669 2.374-6.056 5.865-10.522 11.155-14.262"/><path fill="#fefefe" d="M478.004 735.099c8.662.646 14.205 6.136 12.008 15.112a14.03 14.03 0 0 1-6.888 9.006c-5.116 2.797-23.332 2.486-25.89-2.396l.614-.783c4.566-1.533 12.432-.62 17.463-.401 8.372-1.548 12.989-7.853 5.975-13.807-4.949-4.201-20.774 8.774-24.493 7.063.395-6.228 15.833-12.672 21.211-13.794"/><path fill="#fefefe" d="M627.596 737.654c.273-.055 1.284-.033 1.607-.035l.79.87c-.723 6.058-29.262 4.584-26.395 14.265 5.673 19.162 24.433-8.956 27.983-9.77l1.273 1.867c-.072 2.079-.429 1.834-1.952 3.895-4.376 5.302-10.481 11.78-17.01 14.381-6.76 2.693-14.188-.663-16.173-7.87a10.86 10.86 0 0 1 1.257-8.776c6.061-9.585 19.887-6.41 28.62-8.827"/><path fill="#fefefe" d="M614.702 704.463c12.327-.222 23.489 19.927 19.294 23.252-3.037-1.035-6.939-9.504-9.479-12.319-1.834-2.034-2.652-2.853-4.733-4.704-6.312 1.996-9.559 3.53-8.012 10.711 3.291 4.078 6.605 6.76 10.983 9.554 1.561.996 4.649 2.811 5.121 4.607-2.751.678-8.639-1.761-11.153-3.249-7.048-4.172-10.738-7.932-12.971-15.769q.322-1.168.708-2.317c1.789-5.211 5.618-7.558 10.242-9.766"/><path fill="#fefefe" d="M417.218 732.508c6.065-.174 26.978 7.154 25.227 14.119-5.407.621-21.083-15.89-26.83-5.035-1.548 2.923-.31 5.896 1.434 8.382 6.51 3.643 14.228 1.717 21.135 2.73.569.084.592.727.89 1.523-.408 2.319.094 1.393-1.273 3.018-3.852 1.038-12.813.539-16.844-.578-14.143-3.923-18.589-16.845-3.739-24.159"/><path fill="#fefefe" d="M430.012 726.544c17.714-.466 24.352-2.079 19.726 18.035-3.653-.523-18.486-10.66-20.487-13.48-.298-1.816.202-2.799.761-4.555"/><path fill="#fefefe" d="M461.955 781.72c2.408-.196 3.752-.58 5.582.764.52 1.207.908 1.648.598 2.88-2.789.456-6.249.605-9.101.696-10.493.331-20.352 1.888-30.649 3.81-2.481.55-3.63 1.015-5.512-1.048.223-6.31 32.93-6.786 39.082-7.102"/><path fill="#aeadb1" d="m550.769 562.043.99.078.121.516c-3.85 2.429-20.202 7.716-25.691 9.601a1713 1713 0 0 1-49.503 16.664l-.608-.03-.303-.48c6.002-4.507 66.021-24.016 74.994-26.349"/><path fill="#fefefe" d="M444.84 763.714c2.755.003 4.653-.286 7.052.974l.206 1.274.336-.755-.231.743c-3.899 2.219-22.133 4-28.084 4.846-3.586.673-4.079.981-7.048-.968l-.198-1.038c2.167-4.301 23.101-4.74 27.967-5.076"/><path fill="#fefefe" d="M617.829 713.505c4.272 1.12 14.364 14.25 11.429 17.734l-1.786-.308c-5.673-2.894-20.814-11.195-9.643-17.426"/><path fill="#fefefe" d="M445.578 747.466c11.267.009 11.853 5.376 5.55 12.985-8.886-.335-13.177-6.529-5.55-12.985"/><path fill="#fefefe" d="m672.86 732.278 1.17.338.32.74c-1.97 4.591-7.731 10.77-10.452 15.322-3.028 5.065-5.096 10.059-8.288 15.061-7.535-4.375 12.656-27.633 17.25-31.461"/><path fill="#fefefe" d="M476.876 743.554c4.212.291 8.275 3.013 3.687 6.86-4.25 3.564-9.55 2.875-14.688 2.543l-5.567-.58c5.373-4.403 10.072-6.515 16.568-8.823"/><path fill="#fefefe" d="M452.852 788.707c3.121-.354 7.064-.269 10.272-.286l1.459 5.045c-5.557-.071-9.953-.108-15.458.756-2.689.49-5.594 1.319-8.261 2.009l-2.156-5.756c4.738-.89 9.358-1.287 14.144-1.768"/><path fill="#fefefe" d="M657.141 707.766c2.789.351 5.706 2.574 4.815 5.715-1.449 5.112-5.789 8.301-9.949 11.11-.725.432-1.488.765-2.253 1.131l-.801-.377c-.645-3.891 5.532-14.7 8.188-17.579"/><path fill="#fefefe" d="M636.337 730.914c9.939.224 13.366 4.546 4.529 11.237-8.615 2.758-10.667-5.039-4.529-11.237"/><path fill="#fefefe" d="m653.838 734.988 1.002.157c-.002-.055-12.144 27.587-13.179 29.081-4.535-3.653 5.394-22.601 7.687-27.048z"/><path fill="#fefefe" d="M440.771 770.667c3.215-.284 22.206-1.917 20.666 4.241-2.53 1.717-4.932.994-7.874.551-5.977-.26-16.958-1.978-23.077-2.884 3.526-.903 6.694-1.352 10.285-1.908"/><path fill="#fefefe" d="M456.882 710.341c1.309.459 2.891 2.081 4.007 3.078-3.979 3.432-11.245 11.034-16.061 11.082-1.389-.121-3.573-.139-4.477-.904 3.43-3.634 12.328-10.212 16.531-13.256"/><path fill="#fefefe" d="M634.839 748.353c.627 3.771-1.692 21.241-2.748 25.865-.249 1.092-2.293 1.426-3.5 1.813-.926-9.741.496-19.513 6.248-27.678"/><path fill="#f6742d" d="M619.283 763.451c2.014.827 7.736 6.676 5.979 9.669-1.629.678-3.359-.012-5.152-.449-2.867-1.005-7.326-1.72-6.811-5.267 1.386-1.907 3.799-2.826 5.984-3.953"/><path fill="#fefefe" d="m615.805 746.728 1.912 5.115.265.705c-3.152 2.465-7.741 5.218-10.915 1.171-.863-5.367 4.754-6.216 8.738-6.991"/><path fill="#fefefe" d="M432.902 775.802c3.665.14 20.252 1.169 22.734 2.765l-.373.355c-3.725.718-16.495 1.915-19.885 1.438-1.578-1.201-1.803-2.636-2.476-4.558"/><path fill="#fefefe" d="M420.761 739.957c5.791.718 8.605 6.07 3.524 10.093-5.81-1.623-9.79-5.372-3.524-10.093"/><path fill="#f6742d" d="M654.868 749.663c-.989 3.555-3.615 14.925-6 16.406-1.975-6.953-1.497-8.075.853-15.062 1.706-.418 3.444-.897 5.147-1.344"/><path fill="#fefefe" d="M672.873 740.161c2.091.224 4.765.27 6.911.37-1.276 2.277-2.486 3.998-3.961 6.125-2.663-.087-5.146-.355-7.791-.616 1.709-2.469 2.851-3.706 4.841-5.879"/><path fill="#fefefe" d="m657.179 738.918 5.473 1.254c-1.898 3.157-2.656 4.17-5.844 5.97-1.676.519-3.634.893-5.373 1.27 1.69-3.327 3.34-5.691 5.744-8.494"/><path fill="#fefefe" d="M429.405 743.114c2.854 1.148 7.14 3.225 8.918 5.7l-.25.981c-2.815.249-6.915.193-9.84.234z"/><path fill="#f6742d" d="M685.372 733.211c1.408-.071.866-.313 1.821.353-1.319 2.676-5.524 4.219-8.373 4.429-1.797-.31-2.025-.015-3.028-1.072.233-1.357 1.603-2.346 2.674-3.387z"/><path fill="#fefefe" d="M628.688 778.12c.871.272 1.793.353 2.159.954 1.596 2.614.869 8.671.655 11.783l-1.739-.876c-2.226-2.786-1.315-8.239-1.075-11.861"/><path fill="#f6742d" d="M417.62 785.801c3.604 2.935 3.492 5.171.701 8.458-3.688-2.791-3.851-5.007-.701-8.458"/><path fill="#f6742d" d="M465.235 788.398c5.91.015 5.817 2.278 7.907 7.302-5.134-1.501-5.496-2.726-7.907-7.302"/><path fill="#f6a471" d="m618.985 745.877 8.17-1.842c-2.357 2.225-6.785 6.661-9.173 8.513l-.265-.705c.993-2.077 1.005-3.679 1.268-5.966"/><path fill="#fefefe" d="m642.911 743.48.35.527c-2.843 5.666-4.275 9.181-6.154 15.209-.386-.508 1.546-10.067 1.683-12.301z"/><path fill="#fefefe" d="M436.333 759.654c2.072-.17 2.485-.321 4.411.273l.354.681c-1.077 1.131-2.464 1.09-4.096 1.343-2.107.332-3.955.873-5.811-.088l-.023-.701c1.684-1.334 2.925-1.226 5.165-1.508"/><path fill="#f6742d" d="m626.861 757.417.46.516c.056 2.372-.598 4.144-1.878 6.076l-.819.125c-.967-1.123-1.01-1.098-1.604-2.433.762-2.132 1.953-2.637 3.841-4.284"/><path fill="#f6742d" d="M412.537 766.191c2.565 1.832 2.615 4.877.972 7.337-3.333-2.579-2.639-3.765-.972-7.337"/></svg>