<?xml version="1.0" encoding="utf-8" ?><svg xmlns="http://www.w3.org/2000/svg" xmlns:xlink="http://www.w3.org/1999/xlink" width="1024" height="1024" viewBox="0 0 1024 1024"><path fill="#010000" d="M368.087 333.657C365.839 329.524 365.289 322.733 364.764 318.035C361.576 289.49 365.397 258.627 383.463 235.34C386.318 231.516 390.288 228.149 393.093 224.337C396.446 219.78 399.105 214.595 402.348 209.898C426.488 174.929 474.311 157.03 515.324 168.522C528.649 172.255 538.939 180.48 547.814 190.8C550.384 193.705 553.981 198.183 556.558 200.747C567.16 189.371 584.24 193.808 597.334 197.535C614.754 202.494 632.875 210.265 646.146 222.868C666.218 242.18 678.671 274.108 671.338 301.779C681.827 310.516 684.024 321.709 674.661 332.458C674.099 333.102 673.528 333.739 672.949 334.367C697.005 411.718 633.434 473.207 559.716 479.656L556.849 511.001C556.388 516.157 555.468 523.965 555.425 528.878C567.327 530.377 569.474 533.76 569.716 545.849C569.896 554.829 556.184 556.931 555.364 561.047C558.679 563.756 568.712 559.056 569.43 574.259C570.05 587.358 561.576 590.25 551.023 593.379C550.62 601.632 549.458 612.284 549.37 620.042C553.252 625.239 557.472 629.689 561.432 634.763C566.178 640.844 570.39 647.635 574.432 654.218C578.676 661.044 582.67 668.022 586.406 675.139C588.726 679.51 591.025 683.991 593.439 688.337C594.794 690.777 597.3 689.803 598.626 691.469C601.611 695.216 604.439 701.132 606.636 705.352C618.919 696.446 626.194 704.462 633.162 714.89C635.062 717.766 636.939 720.658 638.793 723.564C641.289 714.685 644.661 702.457 653.103 697.45C659.723 693.523 667.858 697.303 670.51 704.241C674.823 715.525 670.635 722.551 662.357 729.775C669.02 732.065 669.454 731.132 676.524 730.282C679.53 729.92 684.664 732.074 687.992 731.026C706.507 727.602 723.801 722.072 740.336 735.375C749.386 742.656 764.202 757.925 765.491 770.309C765.996 775.153 764.93 779.902 761.575 783.528C748.065 798.129 726.99 808.799 709.983 819.177C696.523 827.391 685.269 835.711 672.437 843.95C651.176 857.302 627.065 866.787 601.995 869.403C598.302 869.789 591.953 870.405 589.245 867.704C584.239 862.712 580.031 852.276 581.879 845.377C578.494 836.997 574.618 828.041 571.469 819.666C566.565 807.389 552.92 770.525 562.191 759.932C563.757 758.032 564.756 756.838 566.53 755.144C560.255 742.084 553.507 727.826 546.537 715.139C550.858 710.904 564.266 705.256 565.531 702.741C565.203 695.413 548.588 668.846 543.331 662.053C538.993 689.103 541.265 700.906 505.433 697.311C487.828 695.544 487.102 674.245 485.753 660.291C476.668 675.655 466.477 690.338 455.261 704.223C457.673 706.925 461.555 710.584 463.493 713.097C460.068 717.395 455.008 720.989 450.993 724.829C456.098 732.884 454.848 736.352 452.998 745.636L453.557 745.309C461.106 740.814 473.894 728.917 483.241 732.279C502.257 739.117 490.285 770.252 469.928 761.846C463.173 759.057 462.253 760.133 459.518 766.351C463.189 772.529 466.033 776.759 470.087 782.543C471.799 784.987 473.289 791.409 476.025 795.243C479.02 799.959 484.761 802.211 488.209 806.41C497.726 817.997 498.767 831.13 499.053 845.348C499.315 858.425 498.829 859.187 492.825 870.772C461.563 878.694 422.184 869.414 394.405 853.894C376.836 844.078 367.45 827.75 355.084 812.614C343.864 798.88 326.718 787.471 319.789 770.798C321.481 765.348 323.855 759.461 326.854 754.583C328.676 751.833 332.552 750.243 334.558 747.758C347.685 731.499 360.684 712.617 379.491 702.464C388.066 697.835 392.846 696.98 400.894 702.602C405.587 698.83 433.626 674.99 437.473 674.873L439.23 675.742C447.255 671.582 467.281 630.81 471.494 621.411C466.717 620.969 463.527 620.575 460.209 616.685C454.538 610.036 457.283 598.593 463.854 593.594C466.528 591.561 470.043 590.024 473.021 588.619C468.779 588.654 463.476 588.792 460.549 585.362C452.478 575.901 458.858 563.021 468.54 558.555C464.641 535.132 461.186 510.633 457.691 487.042C414.609 489.063 373.783 500.957 363.271 548.575C377.777 553.684 384.364 557.769 383.396 574.372C409.162 584.177 422.053 615.698 399.426 635.373C401.915 645.031 402.234 656.534 396.985 665.382C393.548 671.151 387.863 675.228 381.297 676.634C374.928 678.027 367.652 677.142 362.179 673.451C361.112 672.723 360.067 671.963 359.047 671.171C346.098 678.986 334.825 679.696 324.626 667.045C316.134 666.787 305.758 665.021 301.777 655.195C294.151 636.369 295.001 610.755 303.748 592.27C304.952 589.724 313.937 579.347 314.01 579.747C311.301 564.801 314.365 557.789 331.779 549.888C334.677 525.275 348.299 500.456 367.886 485.232C394.315 464.692 420.591 459.345 452.727 457.612C451.474 450.114 450.345 442.595 449.34 435.059C426.806 423.794 410.682 406.952 402.684 382.726C402.104 380.925 401.577 379.106 401.105 377.273C373.942 375.59 346.54 365.224 368.087 333.657ZM563.202 421.605C562.907 430.528 562.087 441.023 562.017 449.695C575.088 447.7 584.883 445.022 596.767 438.999C617.581 428.69 635.925 410.932 643.731 388.619C648.522 374.922 647.766 363.636 644.612 349.801C631.546 353.272 616.827 351.899 615.127 335.354C610.145 333.646 608.496 332.82 603.852 330.627C607.73 365.33 597.197 405.496 563.202 421.605Z"/><path fill="#F1752E" d="M564.641 759.648L566.249 758.45C569.051 759.541 571.817 765.203 574.063 767.153C580.684 772.897 592.946 774.173 600.951 773.836L601.98 773.429L604.182 775.541L609.493 770.59C615.708 773.461 620.687 774.518 626.523 776.883C626.508 781.892 626.403 787.27 626.497 792.248C629.536 792.275 631.655 792.302 634.689 792.001C634.645 787.458 634.402 781.717 634.598 777.296C648.015 779.064 655.795 779.493 669.242 780.103C670.139 784.213 671.335 790.324 672.65 794.172C641.301 822.024 624.008 830.563 584.945 843.588C580.646 836.989 575.569 825.94 573.183 818.193L571.469 819.666C566.565 807.389 552.92 770.525 562.191 759.932C563.452 760.256 563.404 760.146 564.641 759.648Z"/><path fill="#F1752E" d="M564.641 759.648L566.249 758.45C569.051 759.541 571.817 765.203 574.063 767.153C580.684 772.897 592.946 774.173 600.951 773.836L601.147 774.495C598.733 777.391 592.426 780.487 588.728 781.554C578.995 784.361 570.916 782.649 562.196 778.045C560.884 770.907 560.753 766.037 564.641 759.648Z"/><defs><linearGradient id="gradient_0" gradientUnits="userSpaceOnUse" x1="561.59814" y1="786.67383" x2="603.31268" y2="778.81213"><stop offset="0" stop-color="black"/><stop offset="1" stop-color="#23100F"/></linearGradient></defs><path fill="url(#gradient_0)" d="M562.191 759.932C563.452 760.256 563.404 760.146 564.641 759.648C560.753 766.037 560.884 770.907 562.196 778.045C570.916 782.649 578.995 784.361 588.728 781.554C592.426 780.487 598.733 777.391 601.147 774.495L600.951 773.836L601.98 773.429L604.182 775.541C591.208 787.419 578.349 787.098 562.451 781.597C565.082 794.053 568.67 806.289 573.183 818.193L571.469 819.666C566.565 807.389 552.92 770.525 562.191 759.932Z"/><path fill="#ADAEB1" d="M556.896 278.719C566.019 278.328 574.033 278.621 583.13 279.097C603.373 316.831 612.907 361.228 586.321 399.227C579.444 409.055 571.773 414.114 561.917 420.491C561.59 425.586 561.461 431.045 560.869 436.088C557.227 467.143 555.995 498.528 553.081 529.581C527.768 538.89 497.064 549.042 471.199 557.239C468.839 546.433 466.837 530.832 465.102 519.618C463.54 508.946 461.899 498.285 460.18 487.637C463.325 486.873 465.44 486.17 467.853 483.945C471.184 480.915 473.105 476.638 473.159 472.137C473.24 468.268 471.932 464.043 469.082 461.361C464.61 457.153 460.8 457.476 455.239 457.435C454.123 451.838 452.953 445.77 452.327 440.085C452.182 438.776 453.864 437.358 454.794 436.522C454.697 435.095 438.473 426.661 435.842 424.771C404.999 402.61 397.081 363.953 397.561 328.174C403.362 323.489 415.036 316.457 421.664 312.886C462.435 290.918 510.917 280.841 556.896 278.719Z"/><path fill="#010000" d="M512.6 289.321C513.775 290.043 513.388 289.75 514.292 290.839C514.739 295.109 510.534 301.221 508.3 304.899C511.061 306.501 513.547 308.538 515.661 310.93C526.372 323.16 524.091 340.156 520.856 354.427C520.495 356.019 520.813 360.083 520.51 361.065C517.57 370.597 505.314 379.599 495.292 378.435C493.627 378.24 491.897 377.815 491.02 376.68L491.337 375.927C494.169 374.649 497.176 375.528 500.329 374.951C506.931 373.744 510.245 370.382 513.944 365.333C514.729 364.145 514.844 364.166 515.062 362.792C512.838 364.182 509.135 367.185 507.044 368.065C494.534 373.332 484.864 364.401 480.987 353.726C476.511 341.401 477.201 331.962 479.932 320.072C477.651 320.031 472.087 320.282 470.974 318.12C471.469 317.333 471.814 316.699 472.973 316.798C494.345 318.623 504.753 308.302 512.6 289.321Z"/><path fill="#FEFEFD" d="M506.423 307.406C508.618 308.679 510.897 310.436 512.974 311.939C501.819 311.713 499.352 315.338 496.928 326.017C499.947 328.006 503.472 330.049 506.591 331.948L496.851 336.677C499.306 349.455 503.845 356.572 517.706 352.436C515.717 355.968 514.353 358.146 511.742 361.217C506.346 366.304 498.609 369.318 492.26 364.403C478.279 353.577 479.337 334.589 482.998 319.761C494.449 317.742 497.79 314.88 506.423 307.406Z"/><path fill="#010000" d="M545.697 286.62C546.185 286.75 547.419 286.983 547.664 287.554C553.969 302.301 566.402 312.643 583.12 311.273C584.172 311.187 585.515 311.335 586.296 312.15C584.963 314.499 581.892 314.313 579.454 314.533C580.559 317.252 581.477 320.043 582.202 322.887C587.366 343.916 579.391 379.67 551.129 360.275C552.027 361.751 553.087 363.316 554.034 364.779C557.716 368.794 562.47 371.404 567.971 371.583C570.491 371.665 571.795 371.215 574.405 371.739L574.74 372.56C568.864 378.876 553.068 370.437 548.78 364.158C545.129 361.158 547.022 357.326 546.06 354.732C539.33 336.594 536.025 316.181 553.432 302.631C553.122 302.256 552.815 301.877 552.511 301.496C549.256 297.396 545.062 292.004 545.697 286.62Z"/><path fill="#FEFEFD" d="M555.285 305.334C556.922 305.335 559.683 307.541 561.224 308.461C566.295 311.486 570.309 312.828 576.03 314.163C578.583 319.404 580.182 325.058 580.752 330.86C582.547 348.313 573.02 376.307 552.983 357.294C550.943 355.097 549.93 353.524 548.271 351.076C562.287 354.23 565.166 346.574 566.803 334.326C564.214 333.026 559.204 331.425 556.291 330.405C559.326 328.554 562.658 326.231 565.652 324.24C564.028 318.033 561.107 309.245 552.349 310.78C551.158 310.989 550.687 311.187 549.521 310.875C549.956 309.075 553.678 306.546 555.285 305.334Z"/><path fill="#010000" d="M531.698 380.13C536.58 379.649 541.5 380.515 545.924 382.633C552.407 385.738 564.051 397.356 560.136 406.366C557.73 411.901 544.084 403.564 539.896 402.803C535.531 402.01 533.715 401.923 528.522 402.86C526.98 403.35 522.612 404.876 521.27 405.736C508.952 413.628 492.008 417.21 505.502 396.356C511.116 387.68 520.886 381.984 531.698 380.13Z"/><path fill="#FEFEFD" d="M530.483 383.094C531.637 382.966 532.796 382.872 533.956 382.812C541.956 382.46 546.818 386.143 552.267 391.107C548.862 390.638 542.221 389.756 539.911 392.457L540.162 392.805C544.854 395.007 549.633 394.524 554.803 394.508C556.452 397.034 559.45 401.85 558.011 404.773C553.123 407.232 546.128 400.999 541.19 399.881C537.563 399.06 534.592 399.358 530.906 399.522C524.581 400.753 520.145 403.098 514.479 406.018C511.48 407.563 507.592 409.663 504.197 408.635C501.465 405.506 507.437 398.667 509.604 396.054C512.531 395.954 520.977 396.181 522.661 393.382C520.476 391.608 515.184 392.328 512.321 392.492C518.187 387.354 522.999 384.868 530.483 383.094Z"/><path fill="#F1752E" d="M484.839 167.214C512.204 164.86 534.323 176.015 550.533 197.519C557.358 206.571 554.954 205.801 558.07 215.923C542.923 225.557 538.809 241.009 554.029 254.155C555.947 255.812 558.663 256.124 560.331 258.42C559.692 259.802 550.177 260.316 548.199 260.543C541.281 261.334 534.38 262.267 527.501 263.342C473.698 272.194 409.533 292.093 369.761 331.101C367.808 325.434 367.141 320.438 366.534 314.529C362.589 273.323 375.848 231.987 414.619 212.287C448.819 194.91 474.656 198.818 499.117 228.776C503.623 234.653 506.586 240.886 511.928 246.235L511.805 245.868C509.888 240.299 507.976 236.82 504.622 231.844C492.632 214.049 474.36 199.745 452.138 199.409C437.153 199.183 425.46 204.22 412.211 210.442C421.624 197.283 436.154 186.238 452.129 184.107C486.048 179.582 506.54 210.779 516.653 238.622C517.563 241.126 520.32 249.139 522.264 250.537L522.857 249.831C522.913 246.481 521.178 243.131 519.99 240.033C510.209 214.534 494.966 185.766 465.03 181.606C447.046 179.107 428.628 187.683 416.721 200.922C410.045 208.344 407.098 213.001 398.893 219.299C402.458 213.312 406.594 207.684 411.245 202.495C430.155 181.017 456.421 169.083 484.839 167.214Z"/><path fill="#FEFEFD" d="M345.256 549.689C358.757 548.791 383.811 553.209 381.066 571.631C377.875 572.035 367.082 567.636 364.246 569.205C366.215 571.563 370.143 571.994 373.041 572.796C382.221 575.336 392.056 580.045 398.756 586.964C405.219 593.694 408.734 602.723 408.522 612.052C408.311 620.746 405.004 627.026 398.809 632.957C395.351 627.37 392.868 625.565 386.932 623.553C387.331 619.468 387.514 617.424 387.303 613.367C383.331 620.43 381.542 640.491 385.864 647.098C387.417 648.044 386.606 647.866 388.366 647.714C388.738 645.697 386.821 642.83 386.511 639.519C386.06 634.703 386.343 630.559 386.53 625.77C391.428 628.063 395.768 631.189 397.264 636.572C401.582 652.107 398.393 668.194 382.132 673.915C362.014 679.621 360.468 664.022 349.026 657.531C351.182 663.157 352.604 664.541 356.429 669.26C347.509 676.104 335.883 676.737 328.3 667.629C325.366 664.105 323.427 659.156 320.175 656.154L319.796 656.5C320.165 659.735 321.3 661.758 322.658 664.713C317.029 664.505 311.145 663.31 307.197 658.937C299.824 650.772 298.757 633.145 299.019 622.836C299.428 606.674 304.769 587.792 319.577 579.104C323.913 576.561 329.634 574.98 332.99 571.766C330.878 568.895 319.681 577.086 315.685 576.139C315.193 575.437 314.811 575.213 314.811 574.333C314.826 557.397 331.179 551.205 345.256 549.689Z"/><path fill="#FEFEFD" d="M572.409 195.669C594.392 193.916 634.639 212.097 648.784 228.862C666.605 249.985 678.838 282.219 666.076 308.96C664.086 313.129 657.287 319.876 657.177 322.116C663.417 321.255 668.946 309.648 671.142 304.507C690.94 322.591 665.233 341.051 648.464 346.432C635.363 350.637 622.001 352.064 617.283 336.102C621.231 336.504 632.859 337.669 635.012 333.808C633.282 333.323 630.402 333.465 628.55 333.486C619.291 333.593 613.661 333.603 605.719 328.366C609.294 326.163 615.751 323.24 619.68 321.239C632.949 314.479 644.583 307.488 654.494 296.184C673.024 272.578 652.922 261.087 631.087 258.269C624.363 257.401 617.916 256.816 611.146 256.33C614.285 254.461 620.94 251.261 621.464 247.375C619.813 246.756 610.884 253.716 608.283 254.565C598.643 257.68 588.257 256.926 578.252 257.95C574.626 258.321 564.282 259.75 562.533 255.793C553.23 234.735 577.988 224.019 594.947 223.925C597.112 223.913 605.439 224.214 606.985 223.293L606.254 222.397C601.23 220.027 591.756 221.198 586.36 222.213C569.562 225.371 554.933 234.461 558.686 253.884C550.694 249.354 546.067 242.388 547.583 232.973C549.958 218.227 568.471 213.768 580.868 211.983C583.893 211.547 594.112 211.5 595.784 210.281C590.686 205.747 567.897 211.624 561.606 214.644C554.974 203.006 559.756 197.316 572.409 195.669Z"/><path fill="#F1752E" d="M596.655 259.281C622.512 257.724 687.139 261.258 646.14 300.714C635.03 311.406 617.582 319.816 603.487 326.018C602.511 321.076 601.318 316.366 600.102 311.486C614.218 299.782 622.483 284.905 597.529 278.731C583.636 275.294 566.026 275.737 551.75 276.544C501.579 279.379 451.354 291.255 408.269 317.811C390.765 328.807 353.699 359.372 397.534 364.639C398.488 368.219 399.175 371.431 399.919 375.066C387.047 374.665 362.489 370.181 362.502 353.869C362.517 334.387 389.352 316.717 403.996 308.134C460.78 274.856 531.666 261.272 596.655 259.281Z"/><path fill="#F1752E" d="M370.981 711.487C372.662 713.304 374.495 728.558 378.488 734.655C384.859 744.384 390.563 747.533 401.57 750.653L401.42 751.348C396.321 775.667 404.202 793.317 417.344 813.036C412.898 820.564 410.037 826.261 406.358 834.112C401.233 831.628 396.52 828.457 391.921 825.126C382.862 818.375 379.847 810.029 373.374 802.776C356.998 784.429 344.483 777.634 333.676 754.129C341.721 740.518 358.183 721.417 370.981 711.487Z"/><path fill="#ADAEB1" d="M548.126 594.991C549.041 595.088 548.614 594.899 549.326 595.713C549.344 600.011 548.082 609.168 547.653 613.926C546.123 631.336 544.063 648.219 540.795 665.397C538.259 678.723 540.325 694.87 521.344 695.411C511.36 695.696 503.785 697.294 495.428 689.949C489.474 683.091 489.136 667.838 487.431 658.061C490.731 650.148 495.308 642.585 498.682 633.927C501.625 626.376 504.615 616.033 507.767 609.168C521.173 604.312 534.627 599.586 548.126 594.991Z"/><path fill="#FEFEFD" d="M454.243 795.66C456.647 795.372 458.9 795.364 461.315 795.458C470.282 795.797 478.744 799.692 484.831 806.284C496.882 819.337 496.919 833.459 496.305 849.892C481.937 850.366 467.804 850.69 453.526 848.407C441.485 847.093 418.588 841.222 408.893 835.022C419.155 812.39 428.303 799.368 454.243 795.66Z"/><path fill="#FEFEFD" d="M330.175 754.315C332.691 756.986 338.298 769.39 342.161 774.104C350.145 783.845 358.54 790.579 367.165 799.621C373.978 806.449 379.191 817.093 386.295 823.431C413.966 848.118 456.253 853.986 492.174 852.656C494.081 852.585 494.796 853.222 496 854.471C497.683 859.079 493.137 867.617 488.734 869.75C464.946 873.014 442.05 870.858 419.501 862.733C407.171 858.29 395.765 853.148 385.41 844.915C374.163 835.974 367.184 823.459 357.938 812.565C347.474 800.235 329.166 785.089 322.198 770.717C324.607 764.736 326.864 759.847 330.175 754.315Z"/><path fill="#FEFEFD" d="M756.242 757.579L757.631 757.772C761.453 761.102 762.543 766.982 763.662 771.797C714.057 784.333 683.51 811.337 643.226 839.549C631.285 847.912 605.502 856.066 590.656 863.763C587.146 862.296 581.931 850.59 583.703 848.344C588.868 843.952 600.424 840.841 606.821 838.726C632.402 830.266 650.426 816.276 671.081 799.326C696.223 778.693 724.401 764.943 756.242 757.579Z"/><path fill="#FEFEFD" d="M712.096 728.7C732.507 727.804 744.441 739.881 755.469 755.104C735.832 759.703 716.955 767.094 699.414 777.05C692.123 780.904 681.479 787.89 674.817 792.635C673.411 788.319 672.497 783.857 672.094 779.336C669.57 751.999 683.983 731.21 712.096 728.7Z"/><path fill="#ADAEB1" d="M557.117 564.173C568.511 564.124 568.855 576.499 564.531 583.831C561.931 588.24 549.299 591.894 544.238 593.737C534.164 597.385 524.066 600.966 513.944 604.481L487.853 613.475C482.521 615.296 475.503 617.927 470.121 618.972C455.615 619.865 459.372 598.074 466.547 595.418C483.86 589.011 501.503 582.868 518.974 576.825C530.916 572.694 544.864 567.179 557.117 564.173Z"/><path fill="#ADAEB1" d="M556.624 531.576C570.637 530.696 570.018 550.082 560.07 554.56C549.505 559.317 538.2 562.784 527.208 566.517L471.246 585.664C455.593 588.266 457.53 566.068 467.221 562.108C487.204 553.942 508.23 547.761 528.627 540.599C537.483 537.49 547.619 533.849 556.624 531.576Z"/><path fill="#FEFEFD" d="M587.815 694.484C589.197 695.834 591.592 699.677 592.6 701.379C601.557 716.51 601.408 724.952 616.562 734.997C595.009 738.13 583.651 757.432 608.62 767.085C607.064 768.71 605.898 769.583 604.142 770.968C574.243 773.208 571.803 761.476 560.731 738.458L549.316 715.226C550.969 714.131 553.035 712.987 554.77 711.964C558.131 718.279 565.196 733.474 570.621 736.81C570.466 732.63 560.131 716.305 557.265 710.999C558.977 709.8 561.605 708.398 563.476 707.326C567.463 715.492 573.101 727.584 579.486 733.67C577.217 726.227 569.594 714.078 565.974 705.977L571.671 702.733C576.054 709.682 582.83 723.952 587.814 728.964C585.434 720.783 578.456 709.443 574.153 701.499C575.91 700.311 578.088 699.224 579.982 698.212C585.339 706.368 588.644 716.245 595.946 722.549C593.838 715.835 586.377 704.007 582.599 697.024C584.272 696.135 586.097 695.305 587.815 694.484Z"/><path fill="#FEFEFD" d="M435.834 677.96C436.763 679.3 436.588 681.553 436.726 683.448C428.371 692.211 422.852 694.518 414.327 706.105C422.664 700.8 429.791 693.518 437.403 687.049C438.766 689.104 440.22 691.736 441.491 693.897C432.864 700.11 425.95 706.051 419.677 714.688C428.376 708.908 434.906 702.295 442.951 695.765C444.634 697.261 446.193 699.04 447.73 700.701C441.148 706.878 431.572 713.988 427.234 721.549C432.177 718.751 436.404 714.729 440.667 710.974C443.668 708.233 446.692 705.518 449.741 702.831C451.465 704.248 453.445 706.249 455.09 707.822C449.441 711.867 442.176 718.515 437.016 723.189C429.747 723.368 428.212 722.865 426.225 730.443C411.255 728.338 406.404 733.064 406.8 748.067C397.453 741.885 389.809 735.254 391.807 722.672C392.509 718.381 394.235 714.323 396.838 710.841C402.509 703.126 427.11 684.415 435.834 677.96Z"/><path fill="#F1752E" d="M404.701 750.4C406.368 751.101 410.485 753.766 411.802 754.968C415.748 758.568 423.167 758.054 426.586 761.219L426.459 762.083C422.829 764.392 415.78 763.496 411.55 763.182C401.752 773.639 411.373 776.118 420.837 773.856C423.782 773.153 426.976 772.514 429.955 771.877C430.795 775.881 431.313 777.468 432.807 781.26C426.724 781.795 405.449 782.615 414.423 794.362C415.666 795.989 417.209 796.233 419.133 796.429C425.856 793.442 429.112 791.689 436.367 790.312C437.651 793.109 438.172 793.785 439.96 796.199C430.138 800.965 426.732 803.862 419.145 811.462C417.648 809.396 416.232 807.273 414.9 805.097C404.205 787.55 399.855 770.604 404.701 750.4Z"/><path fill="#F1752E" d="M390.561 700.53C393.15 700.431 395.061 701.386 397.204 702.718C397.421 703.076 397.638 703.434 397.855 703.792C396.665 707.653 393.593 710.597 392.01 714.382C385.845 729.128 390.44 737.347 400.354 747.775L394.986 746.017C378.09 737.14 375.791 726.062 374.801 708.141C379.75 704.35 384.651 702.281 390.561 700.53Z"/><path fill="#F1752E" d="M666.553 748.301C669.456 748.461 671.598 748.64 674.484 749.027C670.033 760.95 669.635 765.18 669.132 777.515C659.474 777.376 644.731 776.436 635.618 774.59L635.355 774.255C635.11 772.314 635.906 768.269 636.23 766.16C638.794 768.853 640.071 769.418 643.266 771.076C645.757 769.737 647.237 769.095 649.266 767.056C656.275 771.052 666.914 771.956 660.219 761.027C662.198 755.72 663.347 752.936 666.553 748.301Z"/><path fill="#FEFEFD" d="M656.418 697.986C670.738 699.914 673.618 711.687 666.019 722.673C663.507 726.304 651.875 734.943 647.655 731.697C647.606 728.182 656.691 724.901 659.466 722.033C662.1 719.31 661.95 719.635 663.944 716.283C664.219 713.79 663.986 708.265 662.209 706.555C651.226 695.993 648.278 728.43 642.337 728.408L641.594 727.567C641.339 717.685 647.702 703.288 656.418 697.986Z"/><path fill="#FEFEFD" d="M477.821 734.616C481.032 734.648 485.618 735.574 487.232 737.855C497.792 752.784 481.713 764.587 466.75 759.97C463.375 758.929 458.756 759.861 457.438 755.936C459.476 753.555 471.343 755.125 474.722 755.395C481.849 754.254 489.501 748.834 481.498 741.516C476.403 736.859 463.931 748.142 457.387 749.552L456.702 749.059C457.291 742.331 472.101 736.245 477.821 734.616Z"/><path fill="#FEFEFD" d="M628.541 737.166L629.518 737.014C630.483 738.269 630.283 737.573 630.098 739.179C626.733 743.088 603.939 744.186 603.926 749.778C603.889 766.424 620.361 755.788 625.726 748.319C626.769 746.866 630.676 742.967 631.34 742.581C632.477 743.253 632.431 743.461 633.125 744.635C632.829 746.59 631.763 747.409 630.433 749.151C624.965 756.255 613.271 767.472 603.598 762.079C600.604 760.389 598.456 757.522 597.675 754.175C593.865 737.725 619.01 739.095 627.869 737.306L628.541 737.166Z"/><path fill="#FEFEFD" d="M416.105 732.58C425.756 731.637 435.843 736.404 442.397 743.584C443.248 744.517 442.948 745.26 442.747 746.323L441.847 746.869C436.091 745.107 418.281 728.325 415.343 743.668C414.963 745.655 416.114 747.843 417.232 749.453C424.608 753.344 430.757 750.88 438.451 752.154C440.071 752.423 439.459 755.313 438.553 756.574C428.352 759.528 405.585 755.758 408.997 740.813C409.925 736.748 412.807 734.648 416.105 732.58Z"/><path fill="#FEFEFD" d="M613.571 704.584C621.427 703.56 626.373 707.808 630.458 714.119C632.508 717.286 636.179 723.819 634.532 727.47C631.897 727.749 627.215 717.236 624.775 714.99C622.987 713.344 622.277 712.275 620.095 710.702L619.544 710.312C613.696 712.407 611.665 713.166 611.41 719.578C615.678 727.948 623.171 730.045 628.738 734.38L628.631 735.01C622.041 738.373 588.591 718.078 613.571 704.584Z"/><path fill="#FEFEFD" d="M435.519 725.671C439.352 725.788 444.505 725.643 448.015 727.065C453.429 729.259 452.12 740.133 449.81 744.168L446.634 743.794C443.235 741.781 431.178 732.606 429.671 729.599C429.631 727.621 429.382 728.523 430.538 726.825C432.368 725.668 433.264 725.822 435.519 725.671Z"/><path fill="#FEFEFD" d="M450.289 781.707C452.907 781.425 465.692 781.008 467.589 782.06C468.303 783.87 468.524 783.521 467.998 784.912C464.812 785.614 459.484 785.579 456.024 785.77C450.364 786.068 444.721 786.622 439.111 787.428C435.081 788.12 424.692 791.889 423.14 787.335L423.62 786.361C432.024 782.679 441.162 782.499 450.289 781.707Z"/><path fill="#ADAEB1" d="M550.321 561.504C551.037 561.5 550.599 561.447 551.584 561.898C550.281 564.306 486.138 585.478 477.647 588.262L476.447 588.373L476.092 587.855C478.752 584.773 542.203 563.992 550.321 561.504Z"/><path fill="#FEFEFD" d="M439.56 763.705C442.765 763.262 447.851 763.39 451.104 763.7C452.285 764.8 452.074 764.279 452.486 765.638C449.826 767.605 433.975 769.011 429.48 769.607C426.071 769.866 421.981 771.618 418.735 770.47C417.557 769.006 417.204 768.387 418.215 766.893C425.178 764.698 432.287 764.384 439.56 763.705Z"/><path fill="#FEFEFD" d="M616.967 713.28C622.412 713.58 631.349 726.155 629.939 730.653L628.735 730.919C622.461 727.902 608.517 721.314 616.967 713.28Z"/><path fill="#FEFEFD" d="M446.012 747.155C456.628 747.599 458.318 752.082 451.184 760.212C442.602 759.014 437.863 753.065 446.012 747.155Z"/><path fill="#FEFEFD" d="M673.388 731.79C674.015 732.173 673.657 731.898 674.336 732.761C673.609 737.183 666.707 743.392 664.392 747.482C661.324 752.904 658.704 758.409 655.668 763.877C655.598 763.788 654.875 762.958 654.831 762.825C652.09 754.465 668.162 734.726 673.388 731.79Z"/><path fill="#FEFEFD" d="M475.369 743.568C478.098 743.199 478.925 743.133 481.339 744.358C482.981 746.516 482.84 747.668 480.81 749.777C477.661 753.048 474.224 752.695 470.023 752.674C466.451 752.549 464.157 752.33 460.608 751.855C465.92 747.831 469.21 746.197 475.369 743.568Z"/><path fill="#FEFEFD" d="M454.578 788.208C456.904 787.979 460.926 788.008 463.388 787.959C463.887 789.671 464.419 791.374 464.984 793.067C458.962 792.988 455.036 793.082 449.058 793.799C446.677 794.264 443.702 795.07 441.295 795.658L438.904 790.093C443.925 789.109 449.471 788.62 454.578 788.208Z"/><path fill="#FEFEFD" d="M654.151 734.432L654.771 734.472L655.194 735.069C654.733 736.577 654.119 737.828 653.189 739.112C647.396 747.117 647.548 755.557 642.066 763.771C636.873 760.53 647.568 740.592 649.666 736.621L654.151 734.432Z"/><path fill="#FEFEFD" d="M657.172 707.329C660.007 707.618 662.949 709.656 662.17 712.848C660.884 718.121 656.277 721.349 652.126 724.243C650.41 725.115 650.629 725.386 649.181 725.044C648.06 721.501 654.872 710.119 657.172 707.329Z"/><path fill="#FEFEFD" d="M636.744 730.398C646.225 731.119 650.203 735.592 640.698 741.705C632.951 744.515 629.852 736.164 636.744 730.398Z"/><path fill="#FEFEFD" d="M594.385 692.444C595.731 692.491 595.322 692.44 596.606 692.828C599.865 695.843 603.053 703.202 605.117 707.408C604.015 709.011 602.834 710.979 601.773 712.646C599.613 709.571 592.794 697.538 591.205 694.153C592.303 692.878 592.547 693.119 594.385 692.444Z"/><path fill="#FEFEFD" d="M445.86 769.706C449.827 769.212 459.629 769.095 461.525 773.465L461.13 774.402C457.697 776.248 454.374 775.162 450.4 774.576C443.56 773.867 437.314 773.264 430.552 772.03C435.98 771.041 440.352 770.252 445.86 769.706Z"/><path fill="#FEFEFD" d="M634.878 747.908L635.196 748.247C635.695 750.174 633.369 771.494 631.812 774.378C631.364 775.209 630.516 775.253 629.449 775.638C625.259 770.259 631.743 753.278 634.878 747.908Z"/><path fill="#FEFEFD" d="M456.811 709.858C458.491 710.703 459.479 711.751 460.874 713.004C457.729 715.744 454.444 718.648 451.202 721.249C449.2 722.855 448.492 723.889 446.385 723.661C444.069 723.608 443.372 723.635 441.154 723.127C442.983 720.578 453.901 712.167 456.811 709.858Z"/><path fill="#F1752E" d="M620.292 762.515C621.995 765.571 627.448 769.722 625.746 772.738C624.169 773.453 622.239 772.739 620.443 772.335C616.182 771.036 614.885 770.157 611.299 767.746C614.129 765.757 617.248 764.169 620.292 762.515Z"/><path fill="#FEFEFD" d="M617.998 752.218C615.043 754.743 610.223 757.352 607.264 753.383C606.388 747.971 612.089 747.188 616.051 746.223C616.734 748.686 616.826 749.161 618.026 751.361L617.998 752.218Z"/><path fill="#FEFEFD" d="M433.25 775.465C436.576 775.491 453.865 776.616 455.917 778.121L455.049 778.34C451.321 778.967 438.396 780.643 435.247 779.867C433.957 778.583 433.778 777.24 433.25 775.465Z"/><path fill="#FEFEFD" d="M420.778 739.457C426.553 740.449 429.896 744.938 424.944 749.463C418.771 747.974 415.202 745.164 420.778 739.457Z"/><path fill="#F1752E" d="M654.288 749.756C654.634 749.664 654.402 749.687 654.953 749.961C652.744 755.3 651.937 762.021 649.545 766.174C647.061 761.337 646.856 756.473 649.863 751.695C650.921 750.012 652.393 750.172 654.288 749.756Z"/><path fill="#FEFEFD" d="M672.899 739.802C674.785 739.74 678.1 740.108 680.092 740.264C678.771 742.499 677.281 744.446 675.751 746.538L668.115 745.659C669.59 743.724 671.339 741.695 672.899 739.802Z"/><path fill="#FEFEFD" d="M657.577 738.422C658.932 738.904 661.239 739.352 662.703 739.688C660.474 743.362 660.007 744.341 656.191 746.153C655.217 746.392 654.202 746.559 653.213 746.744L652.445 746.182C652.494 743.797 655.917 740.355 657.577 738.422Z"/><path fill="#FEFEFD" d="M429.81 742.731C432.356 743.955 437.41 746.293 438.528 748.746L437.929 749.431L428.591 749.473C428.952 747.256 429.408 744.952 429.81 742.731Z"/><path fill="#F1752E" d="M679.048 733.084C682.34 732.804 685.323 732.812 688.621 732.794L682.819 737.069C680.968 737.895 677.349 738.412 676.117 736.35C676.519 734.737 677.68 734.153 679.048 733.084Z"/><path fill="#FEFEFD" d="M628.775 777.699C629.53 777.975 630.192 778.311 630.923 778.651C632.811 781.474 632.041 786.791 631.845 790.352C630.543 789.926 630.767 789.999 629.571 789.331C627.726 786.443 628.541 781.281 628.775 777.699Z"/><path fill="#BB6747" d="M465.802 787.765C471.667 787.831 471.734 790.653 473.712 795.601L468.385 793.571L465.802 787.765Z"/><path fill="#F1752E" d="M416.814 786.215C417.444 786.275 418.327 786.458 418.972 786.571C421.458 788.945 420.502 791.252 418.846 793.762C415.255 791.73 415.086 789.496 416.814 786.215Z"/><path fill="#EEB799" d="M618.848 745.857C621.434 745.223 624.293 744.452 626.88 743.937C623.993 746.776 621.031 749.537 617.998 752.218L618.026 751.361C618.608 749.032 618.665 748.282 618.848 745.857Z"/><path fill="#FEFEFD" d="M436.84 759.192C438.641 759.014 440.56 758.532 441.537 760.339C440.164 761.5 439.813 761.15 437.618 761.395C435.327 761.763 433.228 762.448 431.377 761.122L431.649 760.337C433.377 759.235 434.705 759.369 436.84 759.192Z"/><path fill="#FEFEFD" d="M643.011 743.472L643.379 743.994C640.608 749.528 639.218 753.053 637.31 758.931C637.001 757.836 638.949 748.527 639.313 746.334L643.011 743.472Z"/><path fill="#F1752E" d="M412.493 766.092C414.822 767.437 415.61 770.302 414.526 772.735C412.38 771.856 412.865 772.389 411.614 770.73C411.317 768.763 411.787 768.045 412.493 766.092Z"/></svg>