<svg xmlns="http://www.w3.org/2000/svg" width="1024" height="1024" viewBox="0 0 1024 1024"><path d="M469.057 168.7c7.888-1.298 19.702.053 27.031 1.701 16.738 3.764 27.595 14.575 39.287 26.074 2.472 2.431 11.056 4.647 14.958 6.845 15.878 8.941 27.667 22.895 37.064 38.276 15.278-.669 29.175-2.503 44.516 1.008 5.063.988 14.504 4.363 16.749 9.452 11.829 26.817-34.856 53.934-50.685 62.875 7.342 31.256 6.586 66.995-14.757 92.884-6.406 7.771-13.567 12.813-22.149 17.882a1165 1165 0 0 1-3.004 45.327c19.994 2.799 36.705 4.398 56.93 4.33 20.633-.069 39.82-2.484 60.109-3.867l.171-.652c3.652-13.392 10.955-18.857 24.595-14.229 5.37-6.655 9.835-10.131 17.773-13.298 16.115-6.43 13.064-14.178 18.998-27.264 1.452-3.202 3.684-6.247 7.111-7.465 3.895-1.385 8.635-.262 12.191 1.579 4.898 2.536 7.844 6.732 9.394 11.961 4.382 14.777-6.057 18.769-10.904 28.325-.742 1.463-1.055 2.898-.465 4.488 3.981 10.725 45.716 18.198 57.121 23.848 7.468 3.7 15.644 10.258 18.245 18.471 1.598 5.044.8 9.038-1.56 13.591 7.198 15.115.229 28.191-17.485 25.795-16.962 12.397-41.32 5.701-59.802.393-16.502-4.739-32.758-10.946-45.959-22.068-14.416 5.138-20.954-.973-27.304-13.35a432 432 0 0 1-121.545-1.336c-.901 9.526-2.191 22.459-2.221 31.87 4.187.513 6.886.718 10.003 3.943 5.512 6.177 5.465 14.448.311 20.809-2.727 3.365-10.791 5.212-10.655 7.996 1.789 1.064 5.623.441 9.413 2.423l.604.324c4.096 5.732 5.784 12.567 2.421 19.171-3.314 6.508-10.074 8.29-16.496 10.377-2.276 14.739-1.395 20.96 1.031 35.222a360 360 0 0 1 2.815 19.904c1.775 15.383 3.619 41.641 3.695 57.034 7.055 1.357 8.53 2.274 9.424 9.995 1.025 8.861 1.485 17.658 1.493 26.577 13.512.235 18.609 4.5 18.64 18.042 5.371 1.635 6.392 1.784 9.718 6.244 7.401 1.442 8.523 1.356 12.963 7.282 7.76.198 10.209 1.424 14.045 7.874a61 61 0 0 1 5.051.273c27.187 2.616 40.658 23.938 42.738 49.451.463 5.678 3.11 19.249-2.529 22.401-21.822 12.201-61.729 11.141-85.526 8.082-18.468-1.313-47.842-8.762-65.308-14.098-.195 3.922-.177 11.228-2.46 14.181-2.985 3.862-13.554 7.072-18.369 7.979-27.468 5.171-71.012 6.238-95.94-7.275-3.291-1.785-7.517-6.45-7.785-10.203-1.702-23.916 6.171-49.87 14.332-72.16 2.296-6.27 4.733-13.475 8.189-18.803 3.113-4.8 6.422-6.29 11.559-7.259 1.299-11.335 4.839-33.112 8.029-44.713.433-1.572 5.264-2.647 7.212-3.39 1.925-7.885 2.922-21.677 4.545-30.485 3.558-19.305 7.685-37.975 12.304-57.051-4.843-5.125-5.641-11.58-2.97-18.151 2.83-6.963 8.682-9.165 15.111-11.886-11.312-.093-19.224-3.793-16.164-17.566 1.395-6.282 5.583-9.713 10.934-12.855-.777-6.963-2.523-15.889-3.675-22.932a987 987 0 0 1-5.57-37.77c-34.606 8.664-74.067 5.913-109.156 3.506-5.279 11.825-13.264 19.571-26.737 14.058-19.21 16.904-82.245 43.438-103.878 24.545-16.806 3.722-26.06-7.783-19.717-23.6-4.632-7.552-4.13-15.071 1.548-22.074 16.556-20.421 48.337-17.397 67.615-33.771 4.641-3.979.262-9.006-3.699-12.391-14.35-12.262-11.091-36.275 9.984-37.186 12.51-.541 12.577 24.154 21.233 29.457 11.383 6.973 16.935 4.891 27.536 16.661 15.495-5.694 20.699.602 26.536 14.081 37.044 3.06 67.332 6.032 103.911-2.228a3118 3118 0 0 1-5.033-33.034l-.884-.407c-22.584-10.603-37.143-28.463-45.391-51.616a58 58 0 0 1-9.206.741c-31.557.031-43.957-11.779-29.454-41.654-2.152-6.76-4.227-18.471-5.224-25.787-2.96-21.729-.137-46.175 10.081-65.8 2.509-4.82 7.938-10.327 10.033-14.39 5.639-10.942 9.482-21.151 17.465-30.957 19.579-24.047 44.618-36.947 74.901-40.587m10.091 549.118c-.838 3.533-1.451 12.499.267 15.694.311 5.355-.719 19.284-.803 25.565 8.675 5.851 9.013 12.769 12.25 22.067 2.793 8.02 5.999 15.344 10.513 22.564 1.015-11.877 1.238-28.425 6.689-38.986 2.231-4.321 5.575-5.752 9.979-6.901-.373-6.854-2.045-39.787 1.036-43.897 1.561-2.081 4.787-2.339 7.139-2.671-.45-3.812-.617-6.946-.779-10.792-39.202 6.545-37.476-10.287-44.567-41.131-3.913 15.096-6.297 37.428-8.136 53.235 3.538 1.584 4.757 1.803 6.412 5.253"/><path fill="#afadb2" d="M534.323 280.708c13.233-1.675 34.78 2.847 47.954 6.086 19.725 35.833 26.823 78.269 3.163 114.58-6.604 10.136-15.832 16.753-26.054 22.867-.385 4.642-.655 9.613-.853 14.283-.86 20.349-5.269 40.847-5.666 61.136-.229 11.744-1.003 22.161-2.203 33.778a7498 7498 0 0 1-81.925 27.385c-3.582-17.985-7.157-41.813-9.677-60.08 4.022-.892 6.288-1.407 10.113-2.825 9.531-5.496 13.407-18.27 3.133-25.373-5.609-3.878-11.973-2.374-18.159-1.146-.669-3.84-4.677-27.293-3.851-29.543 1.231-.289 2.005-.319 2.946-1.12-.845-2.014-15.171-8.509-19.187-11.431-25.103-18.266-32.016-39.795-37.119-68.409 26.14-34.259 63.731-64.642 106.265-75.029-6.888 8.13-13.766 15.704-24.479 19.099-2.206.699-4.233.655-5.719 2.532.352 1.558-.046.931 1.303 1.897 11.013.739 24.4-7.814 30.143-16.976 1.686-2.689 1.585-3.528.903-6.3 3.142-2.818 23.741-4.98 28.969-5.411"/><path d="M497.258 309.623c28.242-.984 32.059 54.488 5.773 62.585-27.106 2.059-34.106-54.128-5.773-62.585"/><path fill="#fdfdfd" d="M496.689 312.558c2.364-.15 2.754-.186 5.059.185-7.231 8.307-7.154 9.053-9.393 20.096 5.08 2.606 11.443 5.257 16.731 7.71-5.578 2.435-11.262 4.2-16.931 6.881.788 6.043 2.193 10.444 4.805 15.884 1.138 1.8 3.224 4.114 4.65 5.801l-.432.321c-7.648.261-13.358-5.917-15.989-12.537-5.954-14.981-5.289-37.079 11.5-44.341"/><path d="M558.791 307.077c28.004-2.28 33.231 55.658 6.339 62.351-23.765 1.235-28.302-35.121-19.612-51.146 3.281-6.051 6.716-9.225 13.273-11.205"/><path fill="#fdfdfd" d="M560.645 309.639c1.479.156 1.501.109 2.854.673-6.894 7.767-7.17 9.904-9.309 20.142 5.181 2.586 11.687 5.222 17.085 7.69-5.651 2.43-11.275 4.273-16.916 6.939 1.303 7.114 2.113 11.182 5.878 17.316 1.23 1.321 2.36 2.27 2.958 3.948l-.594.803c-2.723.26-8.361-3.022-10.106-4.904-12.344-13.314-12.471-48.324 8.15-52.607"/><path d="M537.007 387.2a33.9 33.9 0 0 1 13.752 2.327c7.086 2.84 12.242 7.497 15.029 14.737.62 1.609.777 1.884.202 3.109-2.89-.261-4.295-5.427-6.915-8.607a22.3 22.3 0 0 0-6.371-5.218c-8.834-4.859-19.215-3.472-28.392-.636-11.179 4.354-16.953 10.188-24.387 19.02-.654.777-1.074.722-1.935.66-.324-2.412 2.395-5.734 3.947-7.516 9.393-10.786 20.916-16.758 35.07-17.876"/><path d="M549.416 283.991c4.139 1.253 11.137 9.704 17.369 12.495 4.622 2.069 12.221 3.217 14.969 4.978.41 1.576.389.731-.55 2.607a41.7 41.7 0 0 1-21.544-5.811c-3.97-2.298-14.691-9.169-10.244-14.269"/><path fill="#f57730" d="M473.848 170.718c31.678-2.421 56.556 18.347 70.508 45.036 3.767 7.206 7.902 17.694 12.941 23.769-2.957-12.975-12.401-27.687-19.334-39.299 21.207 7.515 35.264 23.239 46.947 41.921-55.696 6.434-131.724 26.368-177.347 60.614-1.355-3.01-2.963-7.299-5.329-9.436-4.099-.134-22.156 14.68-23.568 18.338.102 3.87 2.368 7.462 4.18 10.904-7.339 6.86-13.144 13.084-19.182 21.102-6.626-20.334-8.061-52.789-.788-72.951 9.624-26.679 22.169-39.884 46.753-52.223 23.85-11.007 45.927-10.1 65.611 8.595 4.765 4.526 10.146 10.769 15.321 14.538-12.499-23.499-40.949-38.277-66.788-31.065-11.001 3.071-18.971 7.142-28.855 12.521 10.493-19.501 32.141-36.963 55.578-32.536 27.165 5.132 41.888 30.435 53.791 52.853.518.977.847 1.286 1.823 1.411.936-3.052-3.094-8.989-4.561-11.665-11.924-21.736-28.78-44.249-55.791-45.514-18.386-.861-35.7 9.189-46.319 23.821-5.671 7.814-8.626 13.988-15.885 20.648 16.171-36.681 50.8-58.444 90.294-61.382"/><path fill="#fdfdfd" d="M746.075 410.511c3.006.005 4.865.157 7.657 1.462a16.9 16.9 0 0 1 8.803 9.557c6.459 18.03-16.673 26.391-11.205 34.596 10.37 15.561 45.186 16.673 60.73 26.009 10.48 6.294 18.866 14.224 14.256 26.45-13.341-13.97-32.633-17.192-51.297-18.727.445-2.541.79-4.504.015-6.955l-.656.152c-2.099 3.669-3.036 9.007-4.512 13.148-1.785 5.004-3.612 8.854-5.931 13.563 3.71 1.389 10.877 3.986 14.84 4.394 8.556.824 16.121-.188 24.12 3.814 6.715 3.359 9.846 8.138 5.676 15.296-2.489 4.272-7.883 6.009-12.505 7.054-19.45 3.539-47.666-5.709-66.036-13.069-13.036-5.223-25.769-12.76-31.748-26.091-1.918-4.277-1.734-6.911-3.143-10.317l-.844-.31c-4.506 4.224 5.657 18.886 8.429 22.45-12.235 3.546-18.626-1.638-23.241-13.097-4.384-10.881-4.036-24.143.626-34.855 2.353-5.405 11.943-9.716 17.186-7.243 2.404 4.016-4.683 9.498-.972 11.762 1.106-.793 2.153-3.459 2.693-4.651 5.543-12.228 11.054-16.433 23.488-20.891 11.378-4.079 12.6-16.196 15.978-25.862 1.437-4.113 3.528-5.982 7.593-7.639"/><path d="M712.427 471.137a54 54 0 0 1 3.555-.272c11.003-.402 32.473 11.399 32.897 22.915l-1.56-.584c-4.119-5.52-9.537-11.644-15.317-15.227-6.481-4.017-12.042-3.058-18.962-4.971-.632-.174-.533-1.269-.613-1.861"/><path fill="#fdfdfd" d="M271.052 416.578c8.072.807 11.001 7.864 12.734 14.701 5.06 19.969 17.599 16.053 31.057 25.966 3.407 2.51 8.999 14.493 11.432 15.642l.629-.268c.551-2.658-1.678-6.008-2.882-8.437.459-3.345 6.684-3.907 9.035-3.316 13.347 3.391 15.745 26.042 13.238 37.192-2.984 13.267-8.993 22.199-23.745 18.782 3.408-4.595 11.165-16.554 7.919-22.08l-.924-.14c-1.236 1.532-1.194 4.658-1.785 6.68-5.974 20.454-29.168 29.434-47.213 36.638-15.241 6.083-31.644 9.634-48.17 9.021-5.621-.773-12.863-2.552-15.157-7.98-7.134-16.873 21.905-18.027 31.874-19.255 3.476-.428 9.307-3.077 12.139-4.411-2.007-4.43-4.489-8.923-6.335-13.43-1.748-4.271-3.161-8.505-4.963-12.799l-.894-.249c-1.184 2.214-.16 4.952.45 7.395-14.314.546-32.295 5.277-44.064 13.931-2.518 1.852-4.069 5.182-7.295 5.47-3.346-3.057-.998-10.73 1.049-13.996 15.32-24.45 53.74-17.325 70.844-39.061 3.638-4.49-3.291-10.595-6.479-13.627-11.04-10.501-10.09-28.554 7.506-32.369"/><path d="M304.798 475.123c1.784-.145 3.827-.17 5.299.944l-.237.839c-1.916 1.426-5.862 1.439-8.465 2.043-10.531 2.447-16.608 9.451-22.297 17.801-1.261 1.777-.486 1.412-2.098 1.741l.03.272-.438-.806c1.893-11.494 17.313-20.899 28.206-22.834"/><path fill="#f57730" d="M603.96 243.288c12.436-1.208 50.793-1.273 43.913 21.028-6.625 21.472-31.564 37.513-50.348 48.367-1.473-4.19-3.144-8.441-4.723-12.603 5.061-5.548 12.301-13.183 12.649-21.119a11.91 11.91 0 0 0-3.631-9.151c-5.613-5.473-16.652-6.381-24.134-6.122-68.378 2.372-141.612 24.232-190.471 73.952-5.813 6.191-14.988 17.585-15.945 26.207-1.271 11.452 18.142 11.592 25.466 11.682l2.808 9.414c-10.321 1.062-28.173 1.106-36.292-6.002-14.054-12.303 1.763-34.385 10.838-43.873 55.989-58.536 151.028-88.544 229.87-91.78"/><path fill="#afadb2" d="m546.036 598.504.717.507c.018 2.542-.21 5.119-.448 7.655-1.568 16.759-2.118 33.725-4.913 50.337-1.041 6.194-3.285 12.25-4.498 18.417-.727 3.693-.299 7.561-1.121 11.237-2.399 8.733-9.689 12.369-18.22 12.55-12.2.259-21.146 1.126-27.761-10.782-2.082-5.59-1.788-10.687-3.298-15.834-4.924-16.784-7.31-32.663-9.754-49.904 6.419-2.526 14.674-5.159 21.274-7.478z"/><path fill="#fdfdfd" d="M453.788 798.188c13.854-2.111 31.523 2.775 42.198 11.876a51.83 51.83 0 0 1 17.82 35.173c-11.64 7.566-34.459 9.73-48.54 10.248-17.316.043-46.234-1.647-61.618-9.583 2.947-28.644 22.176-44.682 50.14-47.714"/><path fill="#f57730" d="M516.894 760.518c.89 1.267.629 5.98.647 7.845 7.224 12.599 18.92 8.403 29.367 3.189 1.322 1.608 2.482 2.681 3.976 4.117-.571.589-2.732 2.85-2.876 3.52-3.421 15.984 10.899 5.442 15.645 2.429-2.934 3.591-9.151 10.4-2.969 14.496 4.647 1.124 8.897-2.873 12.909-5.225l1.952.844c-.47 2.412-4.294 4.628-4.065 7.159 1.075 11.854 12.478 2.344 16.227-1.226 1.515.666 3.1 1.5 4.59 2.242-4.776 5.052-6.4 7.669-9.302 13.882-4.56 10.184-5.33 20.716-5.395 31.669-21.484-3.154-43.318-6.958-63.716-14.671-2.66-9.229-5.979-14.61-8.765-21.13-2.935-6.868 1.24-36.524 4.526-43.342 1.741-3.612 3.724-4.512 7.249-5.798"/><path fill="#fdfdfd" d="M622.309 788.175c21.354-2.746 40.368 15.704 44.279 35.503.924 4.676 1.357 8.015 1.635 12.814-10.038 7.643-30.244 9.355-42.601 10.378-13.429.777-32.029.87-45.299-1.284-.712-28.631 10.728-53.869 41.986-57.411"/><path fill="#afadb2" d="M554.597 568.112c11.235-.372 11.879 11.938 7.651 19.389-2.597 4.576-14.974 7.945-20.324 9.838a2601 2601 0 0 1-28.618 9.955c-11.952 4.086-33.784 12.321-45.44 15.243-15.332.172-11.627-20.725-3.167-24.008 12.896-5.003 26.583-9.421 39.713-13.959l31.692-10.898c4.936-1.668 13.551-4.784 18.493-5.56"/><path fill="#afadb2" d="M552.525 535.577c16.261-2.281 14.824 18.581 4.8 22.971-11.091 4.857-23.644 8.659-35.22 12.503l-53.206 18.144c-15.697 2.639-14.182-18.692-4.368-23.331 9.497-4.489 20.66-7.741 30.673-11.119a5416 5416 0 0 1 57.321-19.168"/><path fill="#fdfdfd" d="M514.76 834.12c9.088 2.513 16.39 5.054 25.993 7.328 36.298 8.594 93.84 14.479 128.235-1.594.527 4.328.882 9.929-.262 14.135-13.948 10.948-48.277 11.489-66.149 10.912-28.645-.926-57.918-7.669-85.288-15.774-.439-4.298-1.808-10.517-2.529-15.007"/><path fill="#fdfdfd" d="M395.043 842.903c3.75 3.62 8.58 6.357 13.523 7.924 29.612 9.391 78.037 10.811 105.993-2.624.222 6.362.172 9.405-1.1 15.602-17.082 15.493-97.517 14.984-116-3.051-3.515-3.43-2.543-12.965-2.416-17.851"/><path fill="#fdfdfd" d="m561.919 713.872.193.065c2.525 2.7 3.368 27.401 3.502 32.468-13.241 3.365-21.47 7.44-18.874 22.711-9.309 4.37-19.422 9.414-26.153-1.711a1377 1377 0 0 1-.606-33.335c-.03-5.203-.2-10.494.285-15.669.26-2.767 1.849-4.213 4.631-4.225l.061.498c-1.333.75-1.881.871-2.857 1.984 1.066 1.319 2.088 1.505 3.703 2.138l.698.269c-.082 9.086-.962 22.608 1.65 30.774.639-4.633.837-6.158.858-10.918-.041-6.515-.356-12.883-.334-19.48 2.244.339 4.889.53 7.177.753.337 6.533-.119 24.755 2.61 29.404 1.273-4.164.048-22.97.006-29.085l7.211-.168c.419 6.614.486 21.386 2.528 26.667l.446.045c.992-4.411-.125-21.172-.225-27.129l6.736-1.274c.656 5.642.316 22.746 3.101 26.059 1.612-2.424-.56-22.843-.91-26.762 2.474-1.267 3.481-1.584 4.563-4.079"/><path fill="#fdfdfd" d="M249.937 497.918c.128.087 7.084 14.452 7.843 15.957-11.078 4.978-16.713 3.442-28.089 5.767-5.931 1.212-15.473 6.127-15.901 12.917-.208 3.308 1.148 5.648-.539 8.408-1.901.959-3.902.558-6.121.432-.655-.246-1.285-.541-1.922-.777-8.512-3.15-9.275-13.329-5.14-20.517 7.225-12.222 23.471-16.472 36.329-19.563 4.503-1.083 9.114-1.261 13.54-2.624"/><path fill="#fdfdfd" d="M774.586 491.293c2.756 1.656 18.821 3.558 24.139 5.171 10.166 2.757 21.371 6.506 26.876 16.334 4.797 8.563 3.553 16.301-5.365 21.064-3.604.88-5.03.688-8.717.588 7.144-21.432-18.266-22.315-32.15-23.016-3.425-.173-8.526-2.05-11.695-3.32 3.086-5.843 4.764-10.657 6.912-16.821"/><path fill="#f57730" d="m424.503 760.354 1.212.408c.499 1.166-.299 10.824.098 14.39-5.717 5.092-3.998 11.614-5.513 18.405-.709 3.174-4.489 7.092-.567 10.237 3.772.688 6.954-3.269 10.461-4.758 18.703-7.94 39.839-8.694 57.663 2.096-19.893-6.048-27.118-9.011-48.834-2.792-23.283 8.05-34.153 22.468-38.026 46.315-.857-.763-4.629-4.064-4.603-4.955.724-24.821 11.273-53.223 22.34-75.31.802-1.6 4.64-3.5 5.769-4.036"/><path fill="#f57730" d="M448.962 750.205c17.923-.475 24.686 3.771 26.496 21.871-8.126-2.648-12.62-3.412-21.16-3.575-10.127.169-16.717 1.209-25.856 5.55-.257-14.814 5.495-22.466 20.52-23.846"/><path fill="#fdfdfd" d="M473.68 715.4c1.503.218.963.086 2.349.857 3.872 4.96.702 35.232.354 43.339-7.576-10.915-14.827-11.946-27.228-12.024 1.745-6.594 2.819-18.908 3.619-26.138 2.425.076 4.741-.082 6.915.871l.27 1.242c-.466 4.851-1.996 17.511-1.17 21.849l.609.31c1.668-2.878 2.684-19.251 3.215-23.876l6.904-.232c-.175 3.479-2.307 23.204-.326 25.14 2.636-3.364 1.8-19.898 2.692-24.552.432-2.25 3.076-1.377 4.21-3.703-.299-1.569-1.168-2.028-2.413-3.083"/><path fill="#f57730" d="M568.866 748.667c11.974-1.067 14.45 5.71 15.215 15.847-8.968.139-15.672 1.864-23.791 5.489-2.426 1.264-4.876 2.615-7.29 3.914-8.317-7.684-5.13-17.949 4.573-22.283 4.124-1.842 6.899-2.321 11.293-2.967"/><path fill="#fdfdfd" d="m439.353 712.243 1.008.498c-1.738 1.762-1.303.103-2.182 2.591.955 1.856 1.315 1.593 3.447 2.886-1.835 9.806-3.669 18.532-3.158 28.571 2.62-6.383 4.146-20.328 5.314-27.801l6.847 1.928c-.609 3.862-1.024 8.073-1.484 11.979a126 126 0 0 0-1.014 14.88l-.425.043c-9.197 1.034-13.504 3.695-19.152 10.653 3.387-12.493 4.316-29.792 7.606-42.61.559-2.178 1.264-2.639 3.193-3.618"/><path fill="#fdfdfd" d="M449.859 786.193c9.232-1.545 34.266 1.526 39.23 10.497l-.315.891c-1.521.289-2.198-.547-4.007-1.38-8.181-3.763-16.844-5.251-25.73-5.7-8.733.005-18.78 1.467-26.822 5.042-2.579 1.146-8.512 4.265-10.801 4.572l-.481-.798c.635-8.222 22.328-12.388 28.926-13.124"/><path fill="#fdfdfd" d="M452.697 778.215c7.345-.25 27.589 2.177 31.449 9.358l-.544.701c-2.899-.271-8.074-2.625-11.125-3.398-6.739-1.708-13.242-1.927-20.1-1.704-6.837.468-12.699 1.627-19.263 3.733-3.202 1.027-7.283 4.34-10.095 4.072l-.398-.887c1.866-8.512 22.829-11.449 30.076-11.875"/><path fill="#fdfdfd" d="M606.096 780.626c3.782-.34 10.59-1.171 12.582 2.996-2.065 1.26-10.583 1.994-13.476 2.802-8.157 2.278-14.149 5.834-20.922 10.641-2.147 1.936-6.819 6.453-9.32 2.894-.318-10.029 23.142-17.776 31.136-19.333"/><path fill="#fdfdfd" d="M593.487 773.2c2.967-.228 10.003-.334 11.035 3.304-1.19.815-5.222.854-6.844 1.019-11.069 1.128-20.06 6.478-28.759 13.061-2.291 1.736-4.395 3.496-7.235 2.044l-.37-1.183c1.537-10.073 23.13-17.359 32.173-18.245"/><path fill="#f57730" d="M400.562 295.958c1.273.916 3.905 6.093 5.153 8.022-7.603 5.498-13.336 9.843-20.343 16.065l-.269.166-.78-.222c-1.66-2.701-2.337-5.144-3.341-8.14 4.344-4.566 14.341-12.054 19.58-15.891"/><path fill="#fdfdfd" d="M578.771 767.171c3.015-.488 12.139-.486 13.525 2.755-1.935 1.411-12.423 1.721-15.786 2.754-6.647 2.043-9.994 3.708-15.742 7.494-2.991 2.088-6.451 5.258-10.188 3.402l-.346-1.285c2.505-9.201 20.24-14.007 28.537-15.12"/><path fill="#fdfdfd" d="M449.367 771.202c5.609-.406 31.9 1.21 31.031 9.398-10.187-3.24-13.705-4.521-24.443-5.054-10.563-.132-20.084 1.791-29.299 6.382-1.128.562-1.396.247-2.342-.244l.282-1.05c5.771-6.571 16.469-8.629 24.771-9.432"/><path fill="#f57730" d="M477.712 761.821c8.315 3.301 10.302 21.279 14.03 29.358 3.652 7.915 8.91 15.03 12.343 22.489-1.057-.145-1.502-.949-2.465-1.884-4.826-4.709-7.45-6.663-13.25-10.137 7.788-4.568 1.786-6.379-1.006-11.041-.691-1.154.626-2.692.17-3.923-.562-1.519-2.364-2.116-3.104-3.544-1.986-6.207-.263-5.832-6.064-9.407.055-3.468-.415-8.35-.654-11.911"/><path fill="#afadb2" d="m548.897 565.09.569.008.297.519c-3.5 2.858-67.604 23.942-75.895 26.293l-.552-.773c3.664-3.189 67.318-23.85 75.581-26.047"/><path fill="#f57730" d="m608.761 788.139.52.058-.042.451c-1.977.758-3.503 1.384-5.383 2.368-3.039 1.59-7.58 6.253-10.68 6.464-1.216-.638-1.29-.701-2.342-1.59 2.09-3.125 13.9-6.999 17.927-7.751"/><path fill="#f57730" d="m593.42 780.574 1.439.066c-1.011 1.094-5.746 2.566-7.725 3.661-3.337 1.845-6.144 3.701-9.314 5.788l-1.377-.928.226-.874c3.975-3.545 11.644-6.278 16.751-7.713"/><path d="M479.148 717.818c1.074 4.891.537 10.642.267 15.694-1.718-3.195-1.105-12.161-.267-15.694"/><path fill="#98552c" d="M575.847 775.031c.166.098.062.001.251.503-3.481 2.113-7.288 4.154-10.862 6.145l-.664-.597c1.2-1.924 8.917-5.023 11.275-6.051"/></svg>