<?xml version="1.0" encoding="utf-8" ?><svg xmlns="http://www.w3.org/2000/svg" xmlns:xlink="http://www.w3.org/1999/xlink" width="1024" height="1024" viewBox="0 0 1024 1024"><path d="M710.243 157.57C717.261 157.237 719.949 157.515 724.257 163.467C730.749 156.993 736.023 156.438 744.268 159.547C750.771 167.076 751.056 170.921 750.987 180.557C752.973 180.358 754.938 180.271 756.929 180.163C777.056 189.112 761.58 227.92 757.165 242.753C756.348 245.499 755.959 251.034 755.767 253.912C754.366 274.943 747.954 289.77 727.487 296.49C728.356 312.757 718.955 314.993 704.766 313.972C686.57 366.029 633.833 413.296 586.379 438.962C578.661 443.136 569.835 446.434 561.584 449.405C561.393 459.317 560.212 470.316 559.332 480.234C557.792 496.605 556.463 512.995 555.345 529.399C556.936 529.432 558.226 529.475 559.796 529.811C563.127 530.5 566.005 532.58 567.706 535.526C571.187 541.454 570.331 549.417 565.132 554.286C562.752 556.514 555.982 558.524 555.141 561.69L555.542 562.34C568.71 561.421 571.517 572.476 567.748 583.488C565.646 589.627 556.843 592.182 551.044 594.341C551.262 604.311 548.503 628.442 547.226 638.654C553.954 648.082 561.325 660.858 567.57 670.754C571.426 676.865 578.299 688.159 580.955 694.397C583.938 692.995 585.805 691.79 589.098 692.163C591.595 693.927 599.395 708.461 601.692 712.309C618.128 690.53 628.12 707.853 638.287 723.209C641.66 715.935 643.187 707.389 648.694 701.365C659.391 689.667 672.768 700.212 672.094 713.776C671.728 721.156 667.683 726.307 662.714 731.157C667.203 731.534 674.127 730.592 677.502 731.054C688.743 732.593 695.087 729.813 705.966 727.869C716.665 725.957 732.022 728.439 740.433 736.111C750.227 745.043 764.196 757.668 765.647 771.77C766.041 777.202 764.036 781.77 760.372 785.581C746.435 800.871 724.612 809.638 708.173 820.66C673.365 843.996 641.212 868.416 597.288 870.293C585.172 870.811 583.542 859.618 580.856 850.035C580.51 848.802 582.086 846.356 581.137 844.849C572.402 821.825 560.623 798.366 558.698 773.498C558.176 766.078 561.198 760.691 566.161 755.529C559.931 741.138 552.87 728.122 545.81 714.153C548.559 712.578 551.719 710.973 554.538 709.46C551.356 702.478 544.399 691.173 540.39 684.245C537.356 690.059 534.863 694.967 528.109 697.073C520.451 699.461 505.756 699.37 498.448 695.973C491.965 692.959 490.101 686.072 488.012 679.876C476.878 692.596 471.273 697.229 458.154 707.267C460.674 709.561 462.191 711.049 464.007 713.918C459.645 717.527 454.729 720.898 450.733 724.812C456.395 732.152 454.38 738.327 452.242 746.357C460.154 741.398 472.593 729.97 482.61 732.484C496.18 735.89 495.397 756.547 483.721 761.949C475.661 765.677 467.802 760.189 460.568 763.411C458.551 765.828 460.253 767.809 461.508 770.308C463.953 775.173 465.04 777.895 469.482 781.297C472.819 790.525 474.626 796.237 482.815 801.888C488.431 805.765 492.755 812.861 495.014 819.271C499.225 831.22 499.076 845.319 498.415 857.853C498.292 859.974 493.872 868.918 492.752 871.268C464.593 877.729 435.064 872.319 408.766 861.829C380.673 850.622 370.742 832.904 352.899 810.909C345.511 801.802 334.331 793.588 327.047 783.983C323.671 779.531 321.444 776.307 319.33 771.053C321.081 765.749 323.592 759.679 326.629 754.965C328.626 752.061 332.421 750.505 334.609 747.813C348.263 731.013 369.475 700.26 392.939 698.909C396.459 699.922 397.649 700.661 400.467 702.992C404.965 699.37 434.748 674.009 438.612 675.204C440.403 677.806 440.374 681.016 440.63 684.163C462.032 666.926 468.786 657.228 482.628 634.261C481.698 629.708 480.965 623.686 480.254 618.992C465.484 624.66 452.563 619.244 458.315 601.252C460.496 594.432 467.473 591.521 473.651 589.004C461.3 589.395 454.213 585.074 457.677 570.59C458.942 565.299 463.618 561.487 468.408 559.111C466.165 548.615 464.674 536.834 463.156 526.182C461.076 511.212 458.784 496.272 456.279 481.368C414.096 493.195 388.103 512.678 371.906 554.1C380.798 559.907 387.489 566.384 384.019 577.955C401.068 588.804 409.092 601.199 403.738 622.434C401.675 630.619 397.037 635.681 389.705 639.753C395.962 663.202 368.785 688.192 347.427 667.184C335.003 675.545 322.222 672.712 314.685 659.777C312.654 659.558 310.125 659.316 308.136 658.825C287.392 653.706 290.738 627.642 294.158 612.159C297.752 595.893 304.815 582.159 318.957 573.177C315.321 556.53 328.893 551.314 342.229 548.762C347.069 533.86 354.374 519.877 363.841 507.393C380.904 484.601 405.758 467.828 432.481 458.518C438.223 456.517 445.695 454.152 451.607 453.302C450.51 447.951 449.806 441.604 448.822 436.045C424.793 423.054 412.38 409.285 402.954 383.966C373.327 387.318 344.804 378.286 364.155 343.265C355.731 312.28 353.954 275.398 371.536 247.06C373.523 243.856 377.095 240.488 378.874 237.291C381.732 232.153 383.952 226.401 386.829 221.238C395.171 205.073 407.273 192.468 422.48 182.524C444.638 168.034 471.988 161.887 497.998 167.251C516.615 171.09 523.607 180.983 537.159 192.505C540.159 195.056 549.438 198.103 553.504 200.442C570.345 210.127 579.642 222.675 589.716 238.484C604.539 236.682 645.015 235.072 651.451 249.442C662.807 274.797 616.124 302.589 600.278 311.628C602.392 320.6 603.648 329.752 604.028 338.962C604.918 362.244 600.619 388.123 584.248 405.803C614.963 387.363 644.369 360.543 663.8 330.292C668.754 322.58 673.108 313.398 677.289 305.18L676.702 304.787C666.683 298.014 661.775 290.819 669.739 279.68C667.409 276.412 666.816 275.705 665.207 271.928C662.34 265.943 663.375 251.536 659.023 246.968C650.31 237.822 625.699 227.715 642.466 212.084C646.134 208.664 651.86 207.103 657.044 207.871C667.246 209.38 672.57 216.325 678.233 224.073C679.127 204.355 689.502 165.473 710.243 157.57Z"/><path fill="#AEADB1" d="M533.267 277.696C546.419 275.24 570.948 280.358 584.44 283.234C588.17 290.093 591.662 296.6 594.395 303.96C610.443 347.181 604.386 396.971 561.504 421.066C561.195 443.144 557.512 464.784 555.63 486.635C554.368 501.28 554.5 515.212 552.873 530.173C527.388 539.716 497.123 549.118 470.954 557.851C469.382 548.787 467.904 539.707 466.521 530.612C463.743 514.316 461.347 497.492 458.779 481.128C466.032 479.706 474.869 481.06 480.03 474.775C485.208 468.47 484.627 458.033 477.764 453.241C471.561 448.909 460.826 451.488 453.81 452.612C453.168 448.448 452.266 443.939 452.199 439.76C452.188 439.04 454.62 437.719 455.265 437.34C453.973 435.279 439.896 428.611 435.892 425.642C411.623 407.645 404.076 385.66 399.302 357.566C401.082 355.041 403.87 351.61 405.872 349.186C438.326 309.879 482.042 282.756 533.267 277.696Z"/><path d="M561.468 304.631C572.189 304.747 575.446 308.951 579.906 317.838C576.748 321.084 573.544 324.286 570.296 327.442C573.91 329.034 577.938 330.504 581.646 331.94C581.108 347.074 578.013 353.476 562.216 355.532C562.132 370.122 541.006 376.122 535.176 369.154C540.193 367.201 552.534 370.5 557.14 363.073C560.971 356.896 559.664 353.316 553.918 349.565C541.906 348.586 543.251 351.534 535.227 351.955L534.663 351.434C537.336 347.134 544.651 346.625 549.282 346.392C548.002 343.604 546.509 340.092 545.951 337.084C543.157 322.007 544.369 308.584 561.468 304.631Z"/><path d="M503.104 308.096C514.489 308.886 517.849 312.278 522.169 322.627C519.42 325.359 515.406 328.688 512.428 331.306C516.036 332.739 520.033 334.826 523.559 336.559C523.473 345.855 522.548 350.88 514.57 356.6C489.609 366.339 480.555 331.851 490.898 315.392C493.813 310.755 498.04 309.179 503.104 308.096Z"/><path d="M499.225 371.917L500.384 372.329C501.121 374.818 499.156 374.108 499.76 376.77C511.956 389.594 541.481 390.934 556.912 384.678C558.607 383.99 561.695 382.704 563.263 382.938C563.026 385.686 560.993 386.161 558.731 387.124C554.346 388.66 549.828 389.791 545.236 390.503C526.961 393.333 511.437 389.203 496.647 378.39C495.506 379.266 495.262 379.39 493.974 380.052L493.097 379.688C492.628 376.451 496.785 373.33 499.225 371.917Z"/><path d="M497.79 288.101C498.998 287.976 500.213 287.928 501.428 287.957C507.841 288.086 511.544 290.725 515.697 295.13C505.3 294.208 500.489 293.695 491.343 299.88C488.62 301.955 484.007 307.539 482.504 308.364L481.975 307.854C481.129 298.366 489.373 290.801 497.79 288.101Z"/><path d="M559.213 283.605C571.244 282.741 576.411 288.628 580.096 299.57C576.63 297.033 574.578 294.861 570.565 292.775C559.386 288.281 556.872 292.048 548.405 293.398L547.818 292.947C548.276 288.546 555.52 285.037 559.213 283.605Z"/><path d="M546.656 400.526C547.674 400.863 547.288 400.682 548.098 401.521L547.739 402.484C541.291 408.145 531.192 407.596 523.688 404.563C522.129 403.43 522.06 403.787 521.642 402.306C523.502 400.906 530.634 403.652 534.054 403.446C539.236 403.132 541.847 402.258 546.656 400.526Z"/><path fill="#F6742D" d="M471.849 167.691C474.434 167.253 482.618 167.358 485.466 167.545C513.402 169.13 533.969 188.685 546.603 212.326C550.4 219.43 554.34 230.103 559.552 235.914C556.91 224.12 546.855 207.217 540.14 196.873C561.002 203.866 575.84 220.492 587.183 238.717C509.468 247.926 417.038 276.563 366.206 339.836C358.358 319.966 358.115 284.664 366.069 264.754C377.661 235.737 390.766 225.21 417.571 212.757C423.292 210.394 429.322 208.865 435.478 208.216C451.586 206.551 464.743 212.255 476.644 222.981C481.837 227.661 486.422 232.965 491.937 237.354L492.644 237.91C485.275 223.921 470.525 212.207 455.476 207.669C433.712 201.108 415.816 209.858 397.238 219.765C399.691 215.4 402.544 211.273 405.762 207.438C436.032 171.754 474.972 185.643 496.271 221.902C498.3 225.355 505.778 239.829 508.179 241.906L508.526 241.439C508.081 231.788 490.286 208.339 483.377 201.073C459.539 176.003 421.897 180.241 401.953 207.816C396.428 215.454 392.685 222.373 385.866 229.232C401.34 192.845 433.455 172.823 471.849 167.691Z"/><path fill="#FEFEFE" d="M711.182 160.035C714.288 159.612 719.55 160.509 721.164 163.409C727.35 174.528 717 189.191 713.999 200.197C712.165 206.921 711.188 211.259 710.374 217.967C708.069 217.886 703.487 217.271 702.001 219.042C703.615 220.749 713.366 220.616 716.615 221.087C729.843 223.003 735.951 229.228 746.341 234.428L746.958 234.734C744.301 230.58 742.698 229.414 738.947 226.38C742.607 215.593 746.466 204.716 748.873 193.59C749.418 191.069 750.327 184.476 751.768 183.097C758.828 181.555 762.609 186.765 763.731 193.078C766.888 210.849 758.898 226.788 754.415 243.318C752.952 248.713 753.255 257.969 752.072 264.15C749.19 279.222 739.721 292.736 723.37 294.35C719.866 294.687 714.111 293.205 711.9 294.732C714.732 299.44 722.329 295.301 725.5 298.417C727.073 303.104 722.059 309.755 717.083 310.822C703.776 313.677 690.175 309.459 678.466 303.021C669.982 297.448 664.939 291.454 671.448 281.793C675.183 285.158 682.329 290.547 687.554 289.817L687.799 289.097C685.059 286.144 675.647 283.823 670.776 277.086C662.948 266.26 667.847 255.946 661.33 245.91C655.907 238.495 646.344 236.012 641.305 228.276C637.266 222.971 641.16 214.502 646.991 212.142C665.52 204.64 675.048 223.757 681.095 235.323C697.358 237.733 708.618 238.277 712.519 258.403C712.804 259.872 713.287 263.875 714.232 264.75L715.008 264.265C718.746 252.256 704.891 235.288 693.286 234.158C689.551 233.794 686.459 233.297 682.683 233.067C677.187 221.883 684.527 200.247 688.622 189.055C692.643 178.068 699.952 164.942 711.182 160.035Z"/><path fill="#FEFEFE" d="M347.328 551.212C360.057 551.292 378.624 555.743 382.129 570.396C382.52 572.033 382.07 574.92 381.849 576.656C378.563 575.177 366.396 568.766 363.664 571.281C365.215 573.815 390.125 580.245 398.679 594.9C403.265 602.759 403.591 613.134 401.255 621.783C399.278 629.101 395.168 633.777 388.688 637.428C384.937 634.546 381.673 632.487 377.7 629.965C378.543 626.161 381.22 620.434 381.061 616.626L380.476 616.708C375.54 623.033 371.266 641.72 374.547 648.748L375.309 648.915C377.158 646.489 376.532 636.893 376.977 632.335C388.481 639.545 391.783 643.456 385.738 657.571C382.904 664.186 378.152 668.494 371.473 671.21C349.952 677.285 349.301 660.185 338.343 650.907L337.796 651.019C339.171 655.402 343.175 661.625 345.712 665.322C344.856 665.831 343.983 666.311 343.095 666.761C326.44 675.046 317.468 662.649 312.746 649.059C312.325 647.846 311.643 647.312 310.481 646.987C309.614 649.234 312.094 654.89 312.968 657.361C302.651 655.292 295.622 649.665 294.661 639.246C292.583 616.694 301.129 582.434 324.734 573.541C326.898 572.726 335.721 570.414 336.331 569.597C332.803 565.681 324.906 572.666 320.541 570.31C319.344 567.5 322.567 561.74 324.394 559.641C330.129 553.052 339.091 551.702 347.328 551.212Z"/><path fill="#F6742D" d="M607.793 239.714C632.857 237.473 667.256 243.549 642.209 275.722C631.21 289.85 615.793 300.807 599.948 309.004C598.255 304.956 596.612 300.887 595.018 296.799C601.724 289.455 614.085 276.184 604.028 266.455C598.568 261.174 587.859 259.896 580.533 260.198C512.737 262.985 438.491 284.276 389.939 333.973C384.092 340.425 374.591 351.567 373.434 360.441C371.949 371.833 391.694 371.996 398.99 372.349L401.942 381.483C342.735 386.784 353.697 350.36 387.25 321.11C448.125 268.042 528.083 244.842 607.793 239.714Z"/><path fill="#F6742D" d="M370.842 711.934C371.949 713.793 372.842 719.135 373.33 721.465C376.498 736.612 385.467 747.921 401.283 750.71C401.134 751.545 400.992 752.381 400.859 753.218C397.12 776.771 403.489 794.467 417.306 813.452C412.731 820.522 409.583 827.118 405.888 834.655C400.478 831.608 395.28 828.199 390.329 824.451C382.322 817.771 378.266 808.991 371.497 801.267C367.669 796.899 362.977 792.516 358.756 788.482C347.523 777.748 339.957 768.812 333.321 754.534C341.87 740.173 357.568 722.48 370.842 711.934Z"/><path fill="#F6742D" d="M609.4 770.848C612.709 772.99 622.201 775.815 626.437 777.296L626.298 792.543L634.528 792.435L634.403 777.505C646.482 779.487 656.959 780.047 669.166 780.48C669.793 785.655 670.977 789.689 672.517 794.636C656.267 808.887 642.445 819.259 623.558 829.463C609.68 836.133 599.396 839.405 584.749 844.049C574.595 828.899 566.34 799.813 562.185 781.995C584.36 788.629 592.583 787.017 609.4 770.848Z"/><path fill="#FEFEFE" d="M458.089 795.712C459.205 795.764 460.32 795.827 461.434 795.901C475.133 796.84 485.32 804.538 491.429 816.624C496.91 827.469 496.871 838.517 495.974 850.356C478.49 850.922 467.184 850.938 449.884 848.473C435.577 845.992 421.571 842.117 408.488 835.75C419.683 811.069 429.618 798.218 458.089 795.712Z"/><path fill="#FEFEFE" d="M329.907 754.834C331.433 756.173 338.851 771.142 342.399 775.337C350.241 785.188 360.994 793.031 369.151 802.484C376.809 811.729 382.046 821.812 392.07 828.935C420.929 849.444 458.497 854.494 493.113 853.227C494.401 853.18 495.181 854.116 495.949 854.938C497.339 859.849 492.884 868.204 488.19 870.311C466.651 872.662 447.875 872.248 426.784 865.676C412.481 861.219 399.304 855.838 387.118 846.821C374.269 837.313 367.07 823.739 356.839 811.959C345.547 798.955 330.034 786.55 321.86 771.324C324.333 765.027 326.435 760.633 329.907 754.834Z"/><path fill="#FEFEFE" d="M756.586 758.124C760.716 759.113 762.533 768.42 763.518 772.121C733.551 780.62 705.36 794.445 680.292 812.934C669.141 821.06 654.569 833.271 643.007 840.074C626.252 849.933 608.208 854.854 590.254 864.5C587.214 861.648 581.617 852.431 583.595 848.37C589.547 844.329 601.098 841.485 608.219 838.695C616.872 835.306 626.012 831.487 634.075 826.865C646.869 819.531 659.44 809.076 671.051 799.749C695.935 779.761 724.982 764.254 756.586 758.124Z"/><path fill="#FEFEFE" d="M711.607 729.2C730.965 727.705 745.389 740.733 755.237 755.87C735.756 760.241 717.03 767.474 699.668 777.333C691.219 781.94 682.541 787.769 674.44 793.059C666.529 762.355 676.268 732.065 711.607 729.2Z"/><path fill="#AEADB1" d="M557.378 564.571C570.346 564.917 568.909 584.539 560.077 588.098C547.394 593.209 533.837 598.411 520.823 602.587C504.088 607.956 486.844 614.972 469.996 619.632C454.205 618.616 460.333 598.189 465.726 596.17C487.499 588.016 509.855 580.727 531.749 572.758C539.272 570.02 549.626 566.389 557.378 564.571Z"/><path fill="#AEADB1" d="M557.03 532.12C571.385 532.515 568.587 551.332 560.681 554.743C539.278 563.98 516.152 570.353 494.164 578.243C486.343 581.049 477.21 584.293 469.305 586.451C456.602 586.9 455.668 566.867 469.116 561.777C491.699 553.229 514.658 546.032 537.492 538.176C543.69 536.043 550.677 533.401 557.03 532.12Z"/><path fill="#AEADB1" d="M491.694 614.953C496.509 615.985 533.919 674.244 538.851 682.321C536.448 688.395 534.776 691.565 528.961 694.73C527.985 695.02 526.994 695.255 525.992 695.434C517.689 696.878 504.777 697.66 497.644 692.476C488.742 686.008 490.311 674.121 488.924 664.546C486.697 649.169 485.038 633.649 482.496 618.324L491.694 614.953Z"/><path fill="#FEFEFE" d="M587.348 694.424C592.625 695.239 600.09 719.059 604.721 724.584C609.667 730.486 609.626 730.98 616.475 735.402C594.972 738.648 583.256 758.054 608.342 767.29C607.1 768.808 605.697 770.073 604.282 771.432C589.572 772.302 575.382 770.706 568.342 755.382C562.147 741.899 555.191 728.741 548.964 715.327C550.645 714.244 552.747 713.264 554.555 712.355C556.173 715.505 557.82 718.639 559.495 721.758C561.234 724.996 566.507 735.53 569.777 736.516L570.339 736.116L570.031 734.84C566.554 727.653 560.953 718.482 556.89 711.393C558.935 709.984 561.03 708.888 563.201 707.688C569.117 718.2 570.666 724.848 579.377 734.441C576.719 726.325 569.55 714.343 565.29 706.238C567.371 705.003 569.487 703.987 571.649 702.907C576.677 710.596 581.604 722.888 587.493 729.674C585.847 721.825 577.687 708.903 573.49 701.697C575.642 700.374 577.599 699.518 579.877 698.454C584.871 707.064 588.901 716.22 595.79 723.331C593.819 716.254 586.431 705.064 582.664 697.108L587.348 694.424Z"/><path fill="#FEFEFE" d="M436.172 678.411L436.477 678.475C437.321 679.531 437.95 683.054 437.213 683.712C428.625 691.378 421.293 697.166 414.181 706.473C423.329 700.436 429.569 693.93 437.823 686.888C439.4 689.505 440.31 691.452 441.605 694.21C431.651 701.927 427.088 705.212 419.124 715.115C429.541 708.371 434.064 702.572 442.913 696.078C444.515 697.718 446.108 699.583 447.642 701.305C440.232 708.735 432.951 712.512 426.744 721.904C431.557 719.289 434.458 716.59 438.576 713.113C442.412 709.661 446.183 706.161 450.277 703.019C451.975 704.603 453.602 706.482 455.174 708.209C448.706 712.758 442.035 718.741 436.157 724.01C429.33 723.856 428.069 723.593 426.13 730.727C424.947 730.614 423.761 730.521 422.575 730.448C408.669 729.636 406.616 736.321 406.447 748.471C396.673 742.151 389.23 734.858 391.662 722.095C392.436 718.095 394.131 714.329 396.612 711.097C402.56 703.291 427.285 684.435 436.172 678.411Z"/><path fill="#FEFEFE" d="M735.912 160.126C760.903 162.359 741.135 211.333 736.61 225.321L729.401 221.955C723.111 219.768 719.776 218.924 713.175 218.238C713.857 206.583 718.249 196.384 722.495 185.676C725.224 178.793 726.529 173.776 725.401 166.36C728.893 162.455 730.809 161.132 735.912 160.126Z"/><path fill="#F6742D" d="M404.218 751.021C409.733 752.987 409.264 754.469 413.256 756.847C415.9 758.422 423.132 758.953 426.485 761.812L426.499 762.548C422.642 764.683 415.66 763.904 411.488 763.279C402.283 774.031 409.836 776.822 420.636 774.317C423.571 773.636 426.578 772.848 429.507 772.098C430.31 775.29 431.442 778.419 432.498 781.542C426.572 782.241 404.39 783.247 414.544 795.234C415.602 796.483 417.051 796.683 418.618 796.692C424.096 794.533 430.124 791.92 435.795 790.577C436.943 792.769 438.199 794.584 439.558 796.64C428.913 802.209 427.301 803.429 418.747 811.946C405.183 792.537 399.64 774.349 404.218 751.021Z"/><path fill="#F6742D" d="M389.318 701.065C392.041 700.849 398.821 701.49 396.801 705.258C390.628 716.77 384.561 728.176 393.307 740.707C394.416 742.295 397.973 745.405 398.538 747.245C397.028 747.592 396.948 747.227 395.209 746.608C378.239 738.321 375.543 726.364 374.461 708.87C379.136 704.918 383.676 703.16 389.318 701.065Z"/><path fill="#AEADB1" d="M548.389 595.588L548.61 595.762C549.446 597.669 546.302 631.212 545.444 635.439L537.383 623.755C532.722 617.228 528.116 610.661 523.564 604.057C531.816 601.166 540.091 598.343 548.389 595.588Z"/><path fill="#F6742D" d="M566.414 758.332C568.462 759.744 569.902 764.404 573.488 767.296C581.213 773.525 593.012 774.987 602.51 774.135C599.53 776.399 597.604 777.722 594.413 779.675C582.581 785.465 573.045 784.169 561.67 778.35C561.061 770.273 560.302 764.439 566.414 758.332Z"/><path fill="#F6742D" d="M666.533 748.415L674.29 749.424C669.897 760.754 669.117 765.6 668.85 777.751C658.003 777.443 645.461 776.987 634.889 774.793L636.063 766.943C641.856 772.636 643.61 772.548 648.989 767.388C652.965 769.568 658.405 772.677 661.941 768.166C662.624 764.927 661.676 763.816 659.973 760.858C662.126 756.068 663.788 752.863 666.533 748.415Z"/><path fill="#FEFEFE" d="M656.038 698.422C658.425 698.471 660.473 698.876 662.635 699.976C665.787 701.604 668.143 704.442 669.162 707.84C673.048 720.363 660.47 730.526 649.806 733.346C648.444 732.667 648.995 733.146 648.163 731.786C649.089 727.172 658.551 726.098 663.748 716.507C664.443 712.343 663.024 703.311 656.845 705.088C650.22 706.995 646.569 728.111 642.638 729.353C640.351 725.47 643.336 716.629 644.883 712.684C647.257 706.628 650.748 702.162 656.038 698.422Z"/><path fill="#FEFEFE" d="M478.004 735.099C486.666 735.745 492.209 741.235 490.012 750.211C489.086 754.049 486.585 757.318 483.124 759.217C478.008 762.014 459.792 761.703 457.234 756.821L457.848 756.038C462.414 754.505 470.28 755.418 475.311 755.637C483.683 754.089 488.3 747.784 481.286 741.83C476.337 737.629 460.512 750.604 456.793 748.893C457.188 742.665 472.626 736.221 478.004 735.099Z"/><path fill="#FEFEFE" d="M627.596 737.654C627.869 737.599 628.88 737.621 629.203 737.619L629.993 738.489C629.27 744.547 600.731 743.073 603.598 752.754C609.271 771.916 628.031 743.798 631.581 742.984L632.854 744.851C632.782 746.93 632.425 746.685 630.902 748.746C626.526 754.048 620.421 760.526 613.892 763.127C607.132 765.82 599.704 762.464 597.719 755.257C596.87 752.286 597.327 749.094 598.976 746.481C605.037 736.896 618.863 740.071 627.596 737.654Z"/><path fill="#FEFEFE" d="M614.702 704.463C627.029 704.241 638.191 724.39 633.996 727.715C630.959 726.68 627.057 718.211 624.517 715.396C622.683 713.362 621.865 712.543 619.784 710.692C613.472 712.688 610.225 714.222 611.772 721.403C615.063 725.481 618.377 728.163 622.755 730.957C624.316 731.953 627.404 733.768 627.876 735.564C625.125 736.242 619.237 733.803 616.723 732.315C609.675 728.143 605.985 724.383 603.752 716.546C603.967 715.768 604.203 714.995 604.46 714.229C606.249 709.018 610.078 706.671 614.702 704.463Z"/><path fill="#FEFEFE" d="M417.218 732.508C423.283 732.334 444.196 739.662 442.445 746.627C437.038 747.248 421.362 730.737 415.615 741.592C414.067 744.515 415.305 747.488 417.049 749.974C423.559 753.617 431.277 751.691 438.184 752.704C438.753 752.788 438.776 753.431 439.074 754.227C438.666 756.546 439.168 755.62 437.801 757.245C433.949 758.283 424.988 757.784 420.957 756.667C406.814 752.744 402.368 739.822 417.218 732.508Z"/><path fill="#FEFEFE" d="M430.012 726.544C447.726 726.078 454.364 724.465 449.738 744.579C446.085 744.056 431.252 733.919 429.251 731.099C428.953 729.283 429.453 728.3 430.012 726.544Z"/><path fill="#FEFEFE" d="M461.955 781.72C464.363 781.524 465.707 781.14 467.537 782.484C468.057 783.691 468.445 784.132 468.135 785.364C465.346 785.82 461.886 785.969 459.034 786.06C448.541 786.391 438.682 787.948 428.385 789.87C425.904 790.42 424.755 790.885 422.873 788.822C423.096 782.512 455.803 782.036 461.955 781.72Z"/><path fill="#AEADB1" d="M550.769 562.043L551.759 562.121L551.88 562.637C548.03 565.066 531.678 570.353 526.189 572.238C509.774 578.044 493.271 583.599 476.686 588.902L476.078 588.872L475.775 588.392C481.777 583.885 541.796 564.376 550.769 562.043Z"/><path fill="#FEFEFE" d="M444.84 763.714C447.595 763.717 449.493 763.428 451.892 764.688L452.098 765.962L452.434 765.207L452.203 765.95C448.304 768.169 430.07 769.95 424.119 770.796C420.533 771.469 420.04 771.777 417.071 769.828L416.873 768.79C419.04 764.489 439.974 764.05 444.84 763.714Z"/><path fill="#FEFEFE" d="M617.829 713.505C622.101 714.625 632.193 727.755 629.258 731.239L627.472 730.931C621.799 728.037 606.658 719.736 617.829 713.505Z"/><path fill="#FEFEFE" d="M445.578 747.466C456.845 747.475 457.431 752.842 451.128 760.451C442.242 760.116 437.951 753.922 445.578 747.466Z"/><path fill="#FEFEFE" d="M672.86 732.278L674.03 732.616L674.35 733.356C672.38 737.947 666.619 744.126 663.898 748.678C660.87 753.743 658.802 758.737 655.61 763.739C648.075 759.364 668.266 736.106 672.86 732.278Z"/><path fill="#FEFEFE" d="M476.876 743.554C481.088 743.845 485.151 746.567 480.563 750.414C476.313 753.978 471.013 753.289 465.875 752.957L460.308 752.377C465.681 747.974 470.38 745.862 476.876 743.554Z"/><path fill="#FEFEFE" d="M452.852 788.707C455.973 788.353 459.916 788.438 463.124 788.421L464.583 793.466C459.026 793.395 454.63 793.358 449.125 794.222C446.436 794.712 443.531 795.541 440.864 796.231L438.708 790.475C443.446 789.585 448.066 789.188 452.852 788.707Z"/><path fill="#FEFEFE" d="M657.141 707.766C659.93 708.117 662.847 710.34 661.956 713.481C660.507 718.593 656.167 721.782 652.007 724.591C651.282 725.023 650.519 725.356 649.754 725.722L648.953 725.345C648.308 721.454 654.485 710.645 657.141 707.766Z"/><path fill="#FEFEFE" d="M636.337 730.914C646.276 731.138 649.703 735.46 640.866 742.151C632.251 744.909 630.199 737.112 636.337 730.914Z"/><path fill="#FEFEFE" d="M653.838 734.988L654.84 735.145C654.838 735.09 642.696 762.732 641.661 764.226C637.126 760.573 647.055 741.625 649.348 737.178L653.838 734.988Z"/><path fill="#FEFEFE" d="M440.771 770.667C443.986 770.383 462.977 768.75 461.437 774.908C458.907 776.625 456.505 775.902 453.563 775.459C447.586 775.199 436.605 773.481 430.486 772.575C434.012 771.672 437.18 771.223 440.771 770.667Z"/><path fill="#FEFEFE" d="M456.882 710.341C458.191 710.8 459.773 712.422 460.889 713.419C456.91 716.851 449.644 724.453 444.828 724.501C443.439 724.38 441.255 724.362 440.351 723.597C443.781 719.963 452.679 713.385 456.882 710.341Z"/><path fill="#FEFEFE" d="M634.839 748.353C635.466 752.124 633.147 769.594 632.091 774.218C631.842 775.31 629.798 775.644 628.591 776.031C627.665 766.29 629.087 756.518 634.839 748.353Z"/><path fill="#F6742D" d="M619.283 763.451C621.297 764.278 627.019 770.127 625.262 773.12C623.633 773.798 621.903 773.108 620.11 772.671C617.243 771.666 612.784 770.951 613.299 767.404C614.685 765.497 617.098 764.578 619.283 763.451Z"/><path fill="#FEFEFE" d="M615.805 746.728L617.717 751.843L617.982 752.548C614.83 755.013 610.241 757.766 607.067 753.719C606.204 748.352 611.821 747.503 615.805 746.728Z"/><path fill="#FEFEFE" d="M432.902 775.802C436.567 775.942 453.154 776.971 455.636 778.567L455.263 778.922C451.538 779.64 438.768 780.837 435.378 780.36C433.8 779.159 433.575 777.724 432.902 775.802Z"/><path fill="#FEFEFE" d="M420.761 739.957C426.552 740.675 429.366 746.027 424.285 750.05C418.475 748.427 414.495 744.678 420.761 739.957Z"/><path fill="#F6742D" d="M654.868 749.663C653.879 753.218 651.253 764.588 648.868 766.069C646.893 759.116 647.371 757.994 649.721 751.007C651.427 750.589 653.165 750.11 654.868 749.663Z"/><path fill="#FEFEFE" d="M672.873 740.161C674.964 740.385 677.638 740.431 679.784 740.531C678.508 742.808 677.298 744.529 675.823 746.656C673.16 746.569 670.677 746.301 668.032 746.04C669.741 743.571 670.883 742.334 672.873 740.161Z"/><path fill="#FEFEFE" d="M657.179 738.918L662.652 740.172C660.754 743.329 659.996 744.342 656.808 746.142C655.132 746.661 653.174 747.035 651.435 747.412C653.125 744.085 654.775 741.721 657.179 738.918Z"/><path fill="#FEFEFE" d="M429.405 743.114C432.259 744.262 436.545 746.339 438.323 748.814L438.073 749.795C435.258 750.044 431.158 749.988 428.233 750.029L429.405 743.114Z"/><path fill="#F6742D" d="M685.372 733.211C686.78 733.14 686.238 732.898 687.193 733.564C685.874 736.24 681.669 737.783 678.82 737.993C677.023 737.683 676.795 737.978 675.792 736.921C676.025 735.564 677.395 734.575 678.466 733.534L685.372 733.211Z"/><path fill="#FEFEFE" d="M628.688 778.12C629.559 778.392 630.481 778.473 630.847 779.074C632.443 781.688 631.716 787.745 631.502 790.857L629.763 789.981C627.537 787.195 628.448 781.742 628.688 778.12Z"/><path fill="#F6742D" d="M417.62 785.801C421.224 788.736 421.112 790.972 418.321 794.259C414.633 791.468 414.47 789.252 417.62 785.801Z"/><path fill="#F6742D" d="M465.235 788.398C471.145 788.413 471.052 790.676 473.142 795.7C468.008 794.199 467.646 792.974 465.235 788.398Z"/><path fill="#F6A471" d="M618.985 745.877L627.155 744.035C624.798 746.26 620.37 750.696 617.982 752.548L617.717 751.843C618.71 749.766 618.722 748.164 618.985 745.877Z"/><path fill="#FEFEFE" d="M642.911 743.48L643.261 744.007C640.418 749.673 638.986 753.188 637.107 759.216C636.721 758.708 638.653 749.149 638.79 746.915L642.911 743.48Z"/><path fill="#FEFEFE" d="M436.333 759.654C438.405 759.484 438.818 759.333 440.744 759.927L441.098 760.608C440.021 761.739 438.634 761.698 437.002 761.951C434.895 762.283 433.047 762.824 431.191 761.863L431.168 761.162C432.852 759.828 434.093 759.936 436.333 759.654Z"/><path fill="#F6742D" d="M626.861 757.417L627.321 757.933C627.377 760.305 626.723 762.077 625.443 764.009L624.624 764.134C623.657 763.011 623.614 763.036 623.02 761.701C623.782 759.569 624.973 759.064 626.861 757.417Z"/><path fill="#F6742D" d="M412.537 766.191C415.102 768.023 415.152 771.068 413.509 773.528C410.176 770.949 410.87 769.763 412.537 766.191Z"/></svg>