<?xml version="1.0" encoding="utf-8" ?><svg xmlns="http://www.w3.org/2000/svg" xmlns:xlink="http://www.w3.org/1999/xlink" width="1024" height="1024" viewBox="0 0 1024 1024"><path fill="#050201" d="M525.043 165.238C561.739 162.54 600.99 183.489 620.128 214.465C624.598 221.699 627.589 228.687 631.462 236.122C634.655 241.278 638.734 246.1 641.626 251.427C656.395 278.625 655.553 313.026 647.175 342.902C665.777 379.82 640.76 385.614 609.607 384.061C601.175 409.324 587.245 423.404 564.605 436.101L562.735 451.949C571.944 453.777 580.439 456.18 589.296 459.169C644.384 477.766 687.972 520.793 626.492 566.731C627.674 577.436 626.044 583.078 616.178 588.082C615.102 596.601 614.733 598.583 610.753 606.043C614.488 609.45 618.005 612.73 618.902 617.967C621.041 630.462 608.563 639.064 597.725 640.818C581.772 643.399 567.877 637.141 555.16 628.16C556.304 639.187 559.149 654.162 560.725 665.675L568.893 729.761C571.764 728.377 577.979 724.796 580.786 725.722C583.05 729.218 585.465 747.484 586.246 752.41C610.783 750.522 610.939 754.777 616.026 776.643C623.027 776.581 623.961 777.303 627.653 782.951C631.75 783.966 633.294 784.854 636.799 786.917C644.945 786.242 646.497 788.077 649.743 794.964C653.805 794.912 657.931 795.148 661.93 795.88C673.079 797.921 681.887 803.974 688.229 813.312C695.439 823.927 703.386 846.126 700.19 859.004C699.809 860.541 699.407 861.555 697.948 862.279C693.547 864.466 687.226 865.029 682.349 865.821C640.621 872.595 596.159 867.899 554.866 860.39C544.957 858.588 534.117 857.018 524.639 853.584C522.82 852.925 520.113 851.881 519.313 849.977C514.917 839.515 521.84 780.228 526.459 768.16C528.097 763.883 535.301 762.931 535.89 759.863C537.186 753.104 531.363 739.61 533.785 732.876C535.055 731.583 536.224 731.649 538.056 731.373C535.523 710.529 533.282 689.576 529.891 668.862C521.893 680.527 512.984 684.455 499.017 681.181C494.548 679.639 492.049 677.796 488.303 675.064C486.57 693.35 483.591 711.637 482.15 730.25C482.9 731.613 483.378 731.32 485.423 731.951C485.735 732.292 486.046 732.632 486.358 732.972C486.884 740.836 484.151 752.982 483.848 760.765C486.811 761.694 489.483 762.888 491.511 765.329C499.385 774.806 502.252 823.542 502.287 837.464C502.299 841.981 501.841 846.459 501.362 850.944C489.549 856.908 451.132 862.973 437.501 864.714C404.618 868.912 369.132 870.542 336.24 865.489C331.861 864.704 324.337 863.945 320.876 861.07C319.011 858.576 319.156 850.215 319.576 847.451C321.568 834.339 326.137 819.288 334.699 809.078C343.939 798.06 356.353 795.426 369.956 794.428C370.976 792.15 371.874 790.634 373.122 788.51C375.702 787.04 388.106 784.353 392.29 783.173L394.529 778.967C398.19 776.88 399.913 776.732 403.992 776.493C409.581 753.651 409.315 751.416 433.864 752.072C435.02 746.564 436.855 730.151 438.868 726.294C442.292 725.576 447.932 728.631 451.348 730.13C454.655 696.294 458.853 662.55 463.937 628.935C450.919 637.059 436.438 643.677 420.607 640.392C410.009 638.193 397.404 628.895 400.514 616.439C401.611 612.043 404.659 609.037 408.48 606.735C405.129 599.849 404.462 596.04 403.486 588.543C393.728 583.87 391.286 577.473 392.633 567.129C338.496 525.856 365.051 485.594 418.29 463.697C431.087 458.434 441.699 455.641 455.242 452.968C454.646 443.229 453.671 433.034 452.884 423.271C440.158 415.626 430.236 407.701 422.502 394.674C408.221 370.618 407.25 338.895 413.683 312.361C395.729 303.134 357.169 278.603 358.537 255.003C359.805 233.116 405.862 237.003 422.006 238.296C429.586 222.69 445.105 206.702 460.673 198.818C463.333 197.244 472.103 194.837 473.898 192.903C489.316 176.29 500.764 167.289 525.043 165.238ZM552.356 530.441C564.791 531.173 565.005 536.279 566.772 547.267C570.394 547.295 574.016 547.293 577.638 547.262C584.675 533.8 596.951 535.669 608.31 541.908L609.237 542.42C618.554 535.859 633.604 525.102 623.42 512.559C609.849 495.845 580.091 484.29 559.336 480.698C556.424 496.098 554.71 514.626 552.356 530.441ZM392.355 520.948C395.189 532.175 400.391 535.537 409.365 542.148C410.124 541.775 411.925 540.952 412.546 540.534C424.34 534.26 434.587 535.813 442.267 547.349C450.078 547.361 454.446 547.39 461.766 550.456L464.146 551.444C462.738 529.143 460.127 504.177 457.906 481.802L457.228 481.685C437.551 485.03 398.018 499.489 392.355 520.948Z"/><path fill="#ADAEB2" d="M464.784 277.21C472.962 276.631 482.118 277.796 490.242 279.035C537.493 286.247 585.306 319.21 612.987 357.863C608.497 388.26 597.659 413.762 570.472 430.049C567.119 432.058 561.481 434.386 558.707 436.81L558.783 437.677C560.088 437.94 560.694 437.915 561.719 438.732C561.716 441.939 560.631 447.938 560.121 451.319C555.544 451.043 552.456 450.845 548.285 453.445C544.943 455.546 542.637 458.955 541.93 462.839C539.812 473.91 547.271 478.683 556.707 480.699C554.11 494.806 552.028 512.744 549.944 527.134C549.785 528.843 549.811 529.869 549.094 531.445C538.931 535.765 522.176 540.69 511.179 544.359C497.24 549.009 481.589 554.767 467.686 558.862C465.653 547.343 464.577 526.818 463.321 514.723C460.133 484.027 458.2 452.47 454.851 421.831C424.464 404.118 412.81 380.179 412.286 344.874C411.935 321.162 418.234 303.794 429.036 283.076C442.059 279.683 451.395 277.974 464.784 277.21Z"/><path fill="#050201" d="M505.566 308.599C507.349 308.422 509.502 308.285 511.275 308.426C515.695 308.799 519.774 310.951 522.578 314.388C533.215 327.335 527.4 361.055 504.315 358.433C493.258 355.497 490.736 346.809 490.326 336.556C494.313 334.757 497.911 333.311 501.995 331.732C498.69 328.73 495.433 325.675 492.225 322.569C492.512 321.845 492.81 321.126 493.121 320.412C496.09 313.456 498.809 311.303 505.566 308.599Z"/><path fill="#050201" d="M449.55 304.632C478.94 303.249 474.763 361.078 444.889 354.449C434.294 350.24 432.66 342.04 432.48 331.861C436.205 330.43 440.549 329.051 444.362 327.74C441.091 324.432 437.758 321.186 434.365 318.003C438.007 309.979 440.539 306.351 449.55 304.632Z"/><path fill="#050201" d="M446.934 365.885L447.624 366.766C447.452 368.45 446.116 369.633 444.967 370.978C464.523 388.686 489.951 393.32 512.741 377.492C515.966 375.252 513.452 374.645 513.65 372.215C516.94 371.384 522.237 377.591 520.775 380.006L519.792 379.821C518.91 379.258 518.052 378.753 517.154 378.221C516.553 378.317 509.339 382.821 507.969 383.562C490.471 393.027 469.056 391.482 452.532 380.663C449.226 378.499 446.223 375.258 442.694 373.246C441.336 373.909 440.997 374.168 439.5 374.445C437.417 371.613 444.745 367.277 446.934 365.885Z"/><path fill="#F3762D" d="M523.487 167.694C536.366 166.083 553.422 169.471 565.438 174.044C592.614 184.386 612.755 201.71 624.762 228.315C620.248 224.488 617.091 220.121 614.054 215.124C600.298 192.492 574.028 177.049 547.567 187.407C526.39 195.696 513.146 217.366 503.496 236.981C502.834 238.327 502.184 240.325 502.762 241.787C503.954 241.365 504.696 240.445 505.296 239.309C514.996 220.938 524.517 202.788 543.597 192.309C570.857 177.338 600.067 194.323 613.326 219.79C594.359 208.554 573.685 200.283 551.805 208.747C539.124 213.652 524.669 225.037 519.152 237.705C526.659 232 531.69 224.144 540.263 218.234C552.506 209.795 563.249 206.311 578.027 208.642C581.017 209.065 584.371 209.874 587.273 210.714C609.361 217.065 628.014 231.944 639.114 252.068C653.503 278.227 653.695 311.423 645.452 339.504C640.185 333.17 634.797 326.69 628.72 321.03C585.937 281.187 528.599 259.283 472.406 246.523C455.586 242.703 441.367 240.915 424.718 238.455C434.699 219.741 450.709 204.618 470.634 197.079C463.218 209.173 457.845 219.01 452.665 232.22L453.402 233.122L453.101 233.571C456.721 230.053 458.336 225.509 460.466 221.05C473.859 193.016 491.002 171.37 523.487 167.694Z"/><path fill="#F3762D" d="M394.873 239.724C395.997 239.658 397.123 239.624 398.25 239.622C412.836 239.602 431.557 241.708 445.942 244.073C501.101 253.268 556.68 271.084 602.629 303.817C619.829 316.07 650.828 340.015 651.464 363.054C652.011 382.847 624.754 382.761 610.646 381.589C611.467 378.66 612.2 375.524 612.939 372.556C643.794 371.207 645.093 361.777 626.448 338.843C580.322 286.83 498.139 261.603 430.019 260.315C423.458 260.191 413.983 261.206 408.939 265.703C397.719 275.708 411.172 289.691 418.375 297.24C416.805 301.314 415.478 305.224 414.091 309.353C396.452 301.812 363.452 278.628 360.972 257.386C359.133 241.647 383.881 240.273 394.873 239.724Z"/><path fill="#FEFEFE" d="M591.356 539.562C612.68 538.631 636.849 571.476 618.084 584.679C614.295 585.074 615.861 576.7 610.811 573.381C609.19 575.403 612.794 581.97 613.255 586.493C613.65 590.344 613.244 594.235 612.064 597.923C607.505 612.48 593.322 618.721 592.096 622.027C595.372 625.417 607.153 611.682 609.618 609.011C622.907 618.45 616.045 630.452 603.908 636.61C600.456 638 596.797 638.802 593.08 638.983C579.223 639.743 564.362 632.817 554.276 623.677C552.439 615.207 550.187 603.433 549.256 594.942C553.616 593.633 557.323 592.597 560.847 589.378C566.65 584.078 568.488 572.981 562.477 567.132C558.472 563.235 554.231 563.585 549.02 563.562C556.545 558.434 560.4 559.881 565.618 550.39C575.941 549.01 581.736 550.498 591.037 554.27C591.9 554.62 592.3 554.252 592.918 553.787C591.697 550.652 583.241 548.407 580.197 547.47C584.012 542.702 585.867 541.53 591.356 539.562Z"/><path fill="#FEFEFE" d="M422.489 539.59C430.711 539.007 434.327 541.159 439.165 547.674C436.291 548.464 426.034 551.095 426.12 554.445C432.667 556.23 440.109 543.528 464.221 553.935C464.434 555.827 464.533 558.129 464.67 560.062C456.75 563.416 453.173 566.972 451.716 575.998C449.441 590.095 464.099 589.189 465.942 591.394C463.708 594.972 455.16 594.6 453.054 603.731C450.452 615.012 452.984 620.184 464.327 623.589C464.107 626.819 458.787 629.147 456.226 630.57C446.945 635.726 438.723 638.365 428.166 638.867C426.885 638.801 425.606 638.711 424.329 638.595C409.167 637.157 392.347 620.752 409.664 608.826C412.663 612.193 422.427 623.489 427.097 622.226C426.951 619.637 417.211 614.053 413.857 609.646C407.571 602.117 404.881 592.253 406.878 582.608C407.419 579.993 410.41 575.533 408.697 573.497L407.68 573.895C404.687 577.813 404.357 580.843 403.285 585.615C391.8 579.578 393.377 568.131 398.826 558.454C404.027 549.216 412.264 542.391 422.489 539.59Z"/><path fill="#ADAEB2" d="M540.97 598.053C542.606 599.804 535.12 641.289 533.98 646.748C530.747 662.237 524.922 681.421 505.134 679.935C497.093 679.331 491.734 675.105 486.863 669.25C479.311 658.348 477.043 634.587 474.863 620.892C480.488 618.641 488.739 616.134 494.747 614.04L540.97 598.053Z"/><path fill="#F3762D" d="M494.195 781.345C497.723 794.681 499.373 817.497 499.503 831.218C476.092 839.183 437.641 844.398 412.579 846.092C411.507 839.402 410.758 834.41 408.765 827.924C430.479 817.059 441.27 811.42 455.962 791.656C472.166 797.217 483.517 795.908 494.195 781.345Z"/><path fill="#F3762D" d="M525.925 781.241C536.963 796.045 547.304 797.076 563.794 791.779C577.133 811.213 591.81 817.663 611.197 827.97C609.365 834.047 608.747 839.156 607.89 845.397L607.667 845.725C605.712 846.506 594.39 844.94 591.879 844.643C567.821 841.799 544.024 839.027 521.027 831.181C521.071 814.416 522.711 797.694 525.925 781.241Z"/><path fill="#FEFEFE" d="M652.614 797.221C679.461 798.101 691.942 816.09 696.765 841.002C682.645 844.267 668.239 846.146 653.754 846.613C639.975 848.161 624.518 847.438 610.736 846.405C612.906 820.022 623.59 798.764 652.614 797.221Z"/><path fill="#FEFEFE" d="M361.869 797.667C391.623 793.225 407.525 820.39 409.679 846.416C395.753 847.459 385.768 847.411 371.875 846.938C357.234 846.236 337.796 845.028 323.576 841.072C328.094 818.941 337.892 801.065 361.869 797.667Z"/><path fill="#FEFEFE" d="M520.546 834.121C540.633 840.547 555.759 842.612 576.601 845.406C604.942 849.205 627.545 851.201 655.941 849.205C671.701 848.098 682.353 846.103 697.758 844.088C698.761 850.145 698.482 853.419 697.902 859.587C697.344 859.844 696.776 860.077 696.199 860.287C690.885 862.203 682.035 863.594 676.251 864.339C637.089 869.382 596.137 865.086 557.433 858.47C546.393 856.584 531.268 853.779 521.286 849.332C520.368 844.16 520.521 839.337 520.546 834.121Z"/><path fill="#FEFEFE" d="M498.681 834.56L499.219 834.692C500.277 836.706 499.688 845.022 499.22 847.411C499.053 848.265 496.909 850.058 495.977 850.472C488.995 853.569 477.171 855.678 469.752 857.115C429.375 864.935 363.31 872.043 323.317 860.079L322.4 859.077C321.364 855.504 321.154 848.748 322.355 845.371C323.304 842.706 335.627 846.433 338.567 846.757C361.518 849.272 385.411 851.311 408.497 849.207C439.214 846.407 468.953 843.013 498.681 834.56Z"/><path fill="#ADAEB2" d="M554.934 533.137C565.336 534.226 565.458 546.876 560.527 553.668C559.049 555.704 555.606 557.3 553.25 558.179C537.63 564.001 521.623 568.854 505.867 574.309C497.34 577.103 471.026 586.769 463.75 587.648C452.254 587.038 452.537 573.575 458.445 566.758C459.952 565.018 461.658 564.1 463.786 563.308C480.983 556.912 498.542 551.442 515.891 545.47C522.917 543.122 549.395 533.567 554.934 533.137Z"/><path fill="#ADAEB2" d="M555.089 566.224C560.782 566.936 562.838 570.434 563.099 575.983C563.297 580.199 562.023 584.651 559.011 587.705C557.746 588.987 555.939 589.729 554.292 590.453C541.452 594.683 472.996 620.403 463.369 620.649C461.509 620.18 459.961 619.675 458.409 618.483C453.032 614.354 454.546 604.025 458.438 599.432C459.64 598.013 462.691 596.623 464.525 595.978C477.086 591.559 489.811 587.554 502.413 583.243C511.542 580.383 547.76 566.589 555.089 566.224Z"/><path fill="#F3762D" d="M422.476 754.654C429.462 754.008 439.046 755.328 445.516 758.11C458.418 763.659 453.85 774.385 449.084 783.841C443.547 783.087 441.492 782.705 436.401 784.873C434.907 785.761 433.012 787.217 431.568 788.259C421.635 781.793 417.975 779.697 406.524 776.613C407.988 770.378 409.153 763.88 412.19 758.267C416.172 755.732 417.972 755.356 422.476 754.654Z"/><path fill="#F3762D" d="M590.374 754.703C609.806 752.925 609.983 760.72 613.318 776.914C603.275 779.362 597.85 782.068 589.247 787.544C587.274 787.409 581.994 783.638 578.529 783.436C575.706 783.272 573.671 783.422 570.849 783.572C560.021 762.683 569.918 756.9 590.374 754.703Z"/><path fill="#FEFEFE" d="M477.38 740.619C477.491 738.688 477.393 737.865 478.27 736.121C479.824 734.616 482.2 734.492 484.46 734.06C483.622 745.413 482.067 761.158 479.398 772.264C476.58 783.991 463.064 784.189 452.989 783.085C456.513 774.606 459.467 768.054 453.562 759.846C454.909 751.381 456.311 742.924 457.769 734.477C460.095 734.95 462.846 735.312 465.224 735.688C463.893 746.398 461.089 757.403 461.685 768.019C465.002 758.857 466.398 745.728 467.841 735.784C470.371 735.706 473.029 735.76 475.571 735.768C474.242 745.162 471.862 759.228 472.206 768.254C475.672 759.603 476.346 749.868 477.38 740.619Z"/><path fill="#FEFEFE" d="M535.85 734.352C538.144 734.639 539.644 735.087 541.855 735.68C542.812 744.15 544.565 759.957 547.294 767.45C548.391 757.727 545.713 745.985 544.617 735.863L552.316 735.732C553.651 745.954 554.881 758.335 558.435 767.884C558.769 757.162 556.454 748.258 555.232 737.62C555.15 737.261 555.202 736.454 555.208 736.042C556.576 734.894 560.317 734.641 562.259 734.376C563.018 741.846 565.03 751.963 566.103 759.757C561.009 768.875 564.156 774.54 567.622 783.397C541.512 785.548 539.822 776.407 537.69 753.152C537.118 746.915 536.075 740.751 535.85 734.352Z"/><path fill="#F3762D" d="M433.522 790.348C442.156 784.195 443.953 785.379 453.028 790.425C442.365 806.839 425.978 817.543 408.002 824.722C406.772 822.355 400.885 811.985 400.478 810.742C401.387 809.932 402.338 809.116 403.207 808.268L403.288 805.384C407.458 807.824 412.762 812.866 417.253 810.418C417.459 811.436 417.52 811.964 417.438 812.999L418.074 813.679C420.656 811.814 420.869 811.059 421.225 807.947C419.563 804.277 418.77 803.346 415.464 801.058C419.798 799.173 420.852 796.847 425.043 799.613C427.585 801.513 430.889 804.348 434.093 803.463C442.799 801.059 437.628 793.566 433.522 790.348Z"/><path fill="#190B07" d="M403.288 805.384C407.458 807.824 412.762 812.866 417.253 810.418C417.459 811.436 417.52 811.964 417.438 812.999L418.074 813.679C413.982 817.078 406.871 810.761 403.207 808.268L403.288 805.384Z"/><path fill="#E36C36" d="M415.464 801.058C419.798 799.173 420.852 796.847 425.043 799.613C419.132 804.159 421.77 802.34 421.225 807.947C419.563 804.277 418.77 803.346 415.464 801.058Z"/><path fill="#F3762D" d="M575.15 786.532C580.116 785.851 582.357 787.175 586.42 789.682C583.541 792.308 576.798 799.857 583.916 803.774C587.891 805.961 594.207 800.185 598.1 797.919L603.943 801.309C602.759 802.372 599.445 805.527 599.231 806.614C596.514 820.432 609.453 813.036 615.235 809.407C616.215 808.792 618.01 810.367 618.831 810.894C616.365 815.868 613.939 819.777 611.993 825.039C593.811 817.304 577.721 807.318 566.64 790.622L575.15 786.532Z"/><path fill="#F3762D" d="M483.949 763.664C487.115 764.545 490.187 766.626 491.77 769.478C495.86 776.849 488.433 785.727 482.376 788.951C475.028 792.862 468.601 792.466 461.145 790.4C457.115 789.068 452.941 787.343 449.335 785.103C457.971 786.576 467.18 787.775 475.033 782.508C481.686 778.046 482.653 770.88 483.949 763.664Z"/><path fill="#F3762D" d="M535.516 763.926C537.846 765.918 536.887 776.853 542.832 781.235C551.613 787.708 560.962 786.602 570.865 785.731C567.28 787.382 563.338 788.842 559.639 790.285C547.323 793.904 535.281 791.618 528.629 779.609C524.757 772.618 529.204 766.9 535.516 763.926Z"/><path fill="#FEFEFE" d="M403.288 805.384C393.977 800.935 385.69 797.711 375.719 795.033C374.762 794.776 374.291 793.724 373.865 792.941C376.559 780.906 413.925 799.586 417.089 807.053C417.641 808.355 417.395 809.147 417.253 810.418C412.762 812.866 407.458 807.824 403.288 805.384Z"/><path fill="#FEFEFE" d="M637.819 789.154C641.474 788.841 645.31 789.306 645.874 793.697C644.171 796.171 638.629 796.551 635.306 797.558C625.426 800.551 617.852 804.295 609.225 809.707C606.734 811.258 603.14 812.619 602.187 808.657C604.754 799.097 628.735 790.468 637.819 789.154Z"/><path fill="#FEFEFE" d="M616.561 779.204C619.496 779.166 622.76 779.504 624.503 782.122C623.508 784.811 615.897 785.572 612.845 786.688C604.669 789.68 598.365 793.832 591.454 798.937C589.416 800.158 588.271 800.73 585.858 800.41C580.778 796.511 592.074 788.625 595.276 786.789C602.051 782.904 608.773 780.124 616.561 779.204Z"/><path fill="#FEFEFE" d="M400.366 779.151C405.417 778.814 408.572 779.809 413.281 781.292C417.868 782.737 438.49 793.236 435.127 799.24C433.231 800.407 433.346 800.411 431.158 800.619C422.351 794.127 413.578 788.51 403.025 785.254C400.696 784.536 396.991 784.396 395.634 782.528L396.03 781.494C397.829 779.936 398.076 779.79 400.366 779.151Z"/><path fill="#FEFEFE" d="M571.412 731.661C572.385 733.007 574.619 751.217 575.597 754.949L569.162 758.241C567.548 756.409 565.344 737.797 564.797 733.841L571.412 731.661Z"/><path fill="#FEFEFE" d="M448.344 731.701L455.338 733.973C453.866 741.965 452.563 750.204 451.198 758.233C449.132 757.006 446.465 755.801 444.267 754.734C445.994 748.02 446.75 739.103 448.344 731.701Z"/><path fill="#ADAEB2" d="M546.663 563.575L546.993 563.68L547.337 564.347C544.841 566.668 478.844 588.537 470.11 591.034C469.419 590.94 469.811 591.057 469.007 590.494C471.027 587.932 539.961 565.468 546.663 563.575Z"/><path fill="#FEFEFE" d="M578.448 728.44L579.561 728.91C580.83 731.938 583.524 748.711 583.507 752.189C582.215 753.249 580.831 753.364 579.122 753.793L578.306 753.945C576.894 752.717 574.624 733.791 574.152 730.511L578.448 728.44Z"/><path fill="#FEFEFE" d="M440.328 728.227C442.1 728.579 444.179 729.769 445.843 730.6C444.551 738.343 443.186 746.412 442.303 754.192L436.263 752.548C436.88 746.444 439.023 734.033 440.328 728.227Z"/><path fill="#FEFEFE" d="M625.816 786.161C627.772 785.904 630.129 785.917 631.509 787.508C621.507 791.146 615.791 793.168 606.757 799.157C605.133 799.382 602.161 797.126 600.36 796.064C607.635 790.645 616.919 787.527 625.816 786.161Z"/><path fill="#FEFEFE" d="M389.035 786.046C395.177 785.453 415.11 790.893 418.977 795.626C418.54 796.757 417.327 797.109 415.991 797.907C415.313 798.224 414.181 798.937 413.643 798.73C407.244 796.272 401.496 792.085 394.805 789.742C392.319 788.872 388.974 788.501 387.871 787.014L389.035 786.046Z"/><path fill="#FEFEFE" d="M623.899 804.48L624.744 804.65C624.195 806.005 622.057 807.626 620.873 808.676C620.089 807.913 620.129 807.97 619.688 806.969C620.758 805.46 621.981 805.313 623.899 804.48Z"/></svg>