<svg xmlns="http://www.w3.org/2000/svg" width="1024" height="1024" viewBox="0 0 1024 1024"><path d="M470.116 165.685c8.512-1.14 19.639-.054 27.59 1.408 17.245 3.17 27.445 14.386 39.581 25.622 2.573 2.382 12.794 5.71 16.758 8 15.58 8.998 25.944 22.895 35.489 37.758 15.838-1.323 31.081-2.189 46.444 1.491 30.673 7.813 14.282 34.245-1.117 47.778-11.559 10.159-21.441 16.307-34.839 23.77 5.008 19.267 5.956 43.045.875 62.245-6.06 22.897-17.549 36.853-37.541 48.651-1.331 16.707-2.045 33.219-3.563 50.006 26.494 31.379 62.768 49.01 97.842 19.375-5.673-11.311-5.772-23.264 6.991-29.278-8.667-22.229 7.013-35.233 4.219-57.049-1.309-9.963-5.676-20.603-10.459-29.522-8.208-15.305 3.067-30.054 20.034-28.312a23.48 23.48 0 0 1 16.231 8.918c9.184 11.64 7.967 29.982 6.499 43.909 19.985-11.833 57.621-14.974 48.623 20.078 13.327 7.287 15.884 19.222 9.518 32.436 14.567 17.508 3.855 26.49-9.334 37.681-13.244 11.238-21.938 15.655-39.439 15.511-6.661 12.906-18.282 14.052-30.425 7.883-23.677 20.928-53.218 26.278-83.408 17.873-15.799-4.399-27.158-11.569-39.946-21.436a650 650 0 0 1-1.538 18.76c11.479 1.118 15.894 6.11 13.966 18.115-1.331 8.287-13.397 10.951-14.146 14.659 1.791.624 5.245.452 7.326.481 7.513 4.838 9.482 13.886 4.894 21.696-3.584 6.102-10.277 8.089-16.747 9.759.324 9.464-1.446 29.159-3.128 38.32 13.971 10.626 27.524 42.395 36.527 57.792 1.184 2.026 2.639 1.666 4.02 2.074 3.979 1.178 11.545 16.019 13.917 20.122 16.83-22.186 26.319-4.499 36.817 11.304 2.695-9.324 7.475-26.451 19.658-27.317 8.46-.601 13.769 8.934 13.962 16.421.205 7.955-4.54 12.753-9.571 18.184.148.022 2.232.294 2.31.312 4.289 1.001 8.593-.688 12.757-.494 3.703.173 7.051 1.4 10.955.722 8.465-1.47 17.762-4.488 26.34-4.333 12.272.186 23.079 5.335 31.344 14.356 5.756 6.282 12.648 12.727 16.431 20.447 1.777 3.624 2.822 7.688 2.797 11.687-.036 5.997-3.47 10.459-7.699 14.356-14.319 13.194-32.018 21.951-48.584 31.89-29.849 19.43-54.634 40.031-90.637 47.344-7.279 1.479-16.004 2.994-23.538 3.117-2.787.045-5.231-.741-7.097-2.973-3.029-3.626-5.852-9.904-6.418-14.601-.336-3.081-.042-6.377-1.143-9.327-6.574-17.722-14.763-34.621-18.943-53.188-2.934-13.031-6.528-24.242 4.688-34.47-6.38-14.528-13.064-27.302-20.332-41.387l11.984-6.532a542 542 0 0 0-7.286-16.597l-8.905-17.532c-.84 8.331-1.498 16.797-9.74 21.592-8.483 4.935-26.655 4.41-35.171-.316-6.764-3.754-8.571-14.965-10.017-22.164-7.395 11.797-19.723 23.374-30.175 32.432 2.778 3.01 4.989 5.618 7.572 8.805-2.826 2.14-13.472 8.491-11.994 12.236 3.192 8.09 2.226 11.418.481 19.625 9.927-5.279 23.348-19.926 34.833-10.799 7.15 5.683 6.087 17.409.315 23.604-6.271 6.732-14.716 3.897-22.592 3.709-1.947-.054-3.621.378-5.02 1.873-.203.661-.495 1.686-.24 2.307 2.651 6.438 4.011 10.69 9.587 14.558 3.937 9.434 5.203 15.761 14.156 22.09 7.96 5.626 11.235 13.9 13.396 23.072 2.295 9.738.6 19.723 2.008 29.526l.135.906c-2.169 5.1-4.043 9.712-6.726 14.578-26.542 6.387-55.577.986-80.6-8.206-30.664-11.264-40.03-29.063-59.243-52.523-11.193-13.669-25.562-21.577-33.298-39.403 2.406-7.053 4.557-11.201 8.186-17.765 6.881-3.877 10.071-9.562 15.487-16.111 11.705-14.154 27.337-34.706 46.54-38.112 4.382-.778 7.66 1.379 10.708 3.988 13.311-9.631 23.658-19.852 38.197-29.016l2.268 6.337q.537-.398 1.065-.808c16.922-13.154 30.291-37.175 32.925-58.624-13.543.902-21.347-4.084-16.646-19.356 2.159-7.017 8.849-9.916 15.094-12.687-12.641.364-19.43-4.685-15.4-18.966 1.35-4.786 6.137-8.818 10.595-10.921-3.588-17.379-6.298-39.631-9.013-57.507a60 60 0 0 0-2.324-.261c-39.467-3.613-83.35 7.757-87.654 53.509 11.605 1.389 18.448 3.498 22.718 15.519 7.185.116 16.836 1.483 23.349 4.456 15.957 7.284 18.922 23.768 12.592 38.354 4.799 3.151 8.042 6.206 10.083 12.066 4.971 14.275-1.711 38.437-20.36 36.52-.682-.059-6.99-1.083-7.229-.722-9.012 13.625-17.093 19.241-33.901 10.317-1.945 2.243-4.917 4.399-7.681 5.409-21.166 7.559-34.698-17.306-40.399-33.561-5.302-15.116-5.037-28.589 1.918-42.92-13.422-13.097-2.233-25.89 8.897-34.687-.783-4.291-.402-12.146.041-16.485a77.32 77.32 0 0 1 28.645-53.038c22.914-18.558 57.759-26.969 86.743-23.942-2.205-11.794-3.976-24.503-5.994-36.447-24.365-11.591-36.366-27.511-45.962-51.734-9.345 1.718-25.468.929-33.984-3.563-16.154-8.521-11.508-24.224-4.668-37.216a138 138 0 0 1-4.885-23.435c-2.908-23.48-1.914-45.356 8.975-67.129 3.029-6.057 8.234-11.126 10.745-15.833 5.891-11.05 9.59-20.965 17.739-30.952 19.239-23.578 43.503-36.535 73.319-40.142"/><path fill="#aeadb1" d="M539.348 277.234c15.697-.594 29.765 2.558 44.861 5.987 20.629 36.059 27.159 81.097 1.931 117.152-6.732 9.622-14.627 14.968-24.628 20.696-.33 27.691-5.712 55.251-6.601 82.937a280 280 0 0 1-2.071 26.258c-26.228 9.536-55.132 18.727-81.85 27.521a1130 1130 0 0 1-3.73-22.407c-1.42-10.948-4.044-22.328-5.052-33.301 3.522-.078 5.359-.074 8.333-2.054a15.51 15.51 0 0 0 6.81-10.605c2.051-13.263-10.048-16.328-20.157-17.406-1.397-9.154-3.933-22.534-5.057-32.107-.172-1.469 1.41-.866 3.232-2.618-.86-1.584-15.973-9.093-19.726-11.876-24.06-17.839-31.627-40.074-36.392-68.019a303 303 0 0 1 11.64-14.126c33.575-37.784 77.406-63.027 128.457-66.032"/><path d="M501.923 315.082c14.856-.83 22.859 13.122 23.011 26.472.026 2.287-1.404 7.983-3.115 9.41-3.67-1.571-1.059-18.399-11.887-27.658l-.492-.412c-12.666-6.559-19.621 6.2-20.746 17.1-.227 2.207-.15 5.724-.987 7.659l-.705.113c-1.209-1.03-2.289-2.212-2.463-3.858-1.315-12.49 4.527-25.872 17.384-28.826"/><path d="M574.441 318.615c2.648-.272 8.725-1.184 9.246 2.471-1.485 1.803-10.888 3.018-14.601 4.969-4.037 2.12-3.833 1.71-7.762 4.906a45 45 0 0 1 4.691-1.156c5.649-1.026 18.479-.221 19.485 6.804l-.695.86c-2.267.194-2.266-.256-4.677-1.318-13.963-6.763-24.686 4.522-29.439 3.273l-.274-.868c2.139-9.861 14.873-17.435 24.026-19.941"/><path d="M503.571 365.217c1.27.818.774.281 1.428 1.759.005 2.367-.902 3.901-1.849 6.1q.492.351.991.69c15.851 10.725 38.825 15.091 56.934 7.623 2.432-1.003 5.326-2.37 7.843-2.867l.434.734c-1.683 3.752-6.392 5.119-10.023 6.336-2.764.831-4.819 1.318-7.682 1.762a68.77 68.77 0 0 1-50.653-12.158c-3.141 2.207-6.666 4.567-10.675 3.298l-.305-.714c1.213-1.622 6.358-2.909 8.17-4.489 2.436-2.123 3.9-5.25 5.387-8.074"/><path d="M499.533 294.566c12.491-.924 19.942 2.466 25.202 14.098-8.785-4.419-10.849-7.894-21.917-8.313-9.829.631-15.226 5.189-22.883 10.725 3.55-9.718 10.066-14.063 19.598-16.51"/><path d="M564.031 292.071c10.213-.916 15.505 2.886 20.846 11.151-9.252-3.594-10.158-6.676-21.737-4.9-2.33.781-3.389 1.306-5.521 2.38-2.458 1.238-7.825 6.332-10.247 6.082-.138-1.256.324-1.917.997-3.006 4.273-6.916 7.908-9.776 15.662-11.707"/><path d="M522.522 398.025c3.771.157 8.316 1.674 12.266 1.952 2.905.205 10.515-1.709 12.1.033l-.558 1.099c-5.142 2.027-22.24 3.705-23.808-3.084"/><path fill="#f5742d" d="M471.129 167.685c3.95-.612 13.338-.31 17.246.111 26.761 2.888 45.569 21.254 57.96 44.008 4.432 8.14 7.535 17.199 13.242 24.37-2.337-11.476-12.804-29.208-19.429-39.265 20.464 6.221 35.787 24.225 46.923 41.602-10.493 1.535-21.094 2.704-31.497 4.748-69.42 13.636-143.775 39.772-189.366 96.593-7.834-19.631-7.917-55.657-.156-75.105 11.249-28.192 24.496-39.604 50.768-51.747 21-9.339 43.101-5.892 59.688 9.836 5.043 4.781 9.973 10.102 15.335 14.467l.72.58c-7.153-13.831-22.049-25.67-36.832-30.193-21.991-6.728-39.586 2.102-58.399 11.902 11.608-20.856 34.724-38.664 59.691-31.37 23.08 6.743 36.863 27.619 47.265 47.877.753 1.467 2.559 5.154 4.156 5.624 1.176-8.634-20.176-35.738-26.283-41.878-23.875-24-60.855-18.9-80.205 7.941-5.714 7.925-9.224 14.452-16.147 21.573 15.621-35.607 47.012-56.837 85.32-61.674"/><path fill="#fefefe" d="M363.962 558.155c11.499-1.608 20.907.533 25.322 12.211-5.067.242-16.044 1.059-19.815 4.822l.19.716c2.96.157 8.263-1.163 11.388-1.72 20.181-3.598 48.926.555 47.668 27.307-.193 4.125-1.287 6.585-2.83 10.244l-9.664-1.279c-1.522-5.017-2.72-7.743-5.215-12.275.615 8.475 5.248 26.936 14.182 30.207.059-2.773-4.827-7.95-6.144-10.637-.842-1.717-1.241-2.849-1.859-4.649 3.8.337 6.432.709 9.868 2.552a18.5 18.5 0 0 1 9.083 11.184c3.381 11.26-.42 28.997-13.447 31.916-9.839 2.204-18.039-3.546-25.94-8.311-1.441-.652-2.537-1.417-3.989-1.065.961 3.684 11.303 8.558 14.807 10.482-13.301 29.193-37.406.924-42.941 1.317l-.284.661c1.655 2.842 7.239 6.502 9.989 8.456-1.058.851-2.292 1.83-3.443 2.532a18.33 18.33 0 0 1-13.948 2.018c-8.097-2.049-14.3-9.168-18.506-16.324-10.414-17.719-16.331-39.525-5.006-58.371 1.858-3.091 8.78-9.793 9.454-12.495l-.713-.443c-3.661 1.043-8.344 7.816-10.422 10.936-6.126-6.631-6.2-13.526-.704-20.781 8.202-10.828 19.612-16.986 32.919-19.211"/><path fill="#f5742d" d="M607.315 239.712c37.884-3.764 60.617 11.426 27.687 44.136-11.243 11.167-21.41 17.733-35.063 25.264-1.692-4.017-3.303-8.284-4.911-12.353 5.212-5.583 12.662-13.671 12.68-21.815a11.76 11.76 0 0 0-3.479-8.439c-5.35-5.278-15.986-6.536-23.229-6.281-68.432 2.416-142.202 24.027-191.166 73.845-5.758 6.255-15.194 17.519-16.393 26.139-1.605 11.537 18.178 11.762 25.561 12.263l2.896 8.994c-10.265 1.116-27.69 1.1-36.142-5.682-13.586-10.9-.479-32.46 8.446-41.84 59.317-62.34 149.624-88.633 233.113-94.231"/><path fill="#fefefe" d="M674.892 350.154h.592c28.103.213 23.957 33.063 23.369 51.489-3.624 2.876-7.024 5.815-9.383 9.855a17.8 17.8 0 0 0-1.831 13.976c1.93 6.997 6.65 10.631 12.524 14.015-1.749 3.963-2.717 7.897-2.201 12.261a170 170 0 0 0-3.271 4.896c-2.026 3.209-4.993 9-4.117 12.847 1.822-.758 5.815-10.055 7.787-13.108l.438-.672c3.407 7.322 6.361 8.989 13.304 12.18-1.28 4.134-1.977 6.642-1.045 11.138a13.47 13.47 0 0 0 5.873 8.599c8.442 5.566 22.389 2.683 31.646.619-13.132 14.016-33.76 20.122-51.49 11.358-4.629-2.761-8.403-6.719-12.892-10.127 4.273 10.251 13.178 14.325 23.421 16.592-18.079 29.97-71.729-24.197-42.353-41.111 1.345 2.686 4.658 8.552 7.339 9.718l.497-.593c-.397-2.904-2.739-5.498-4.243-8.292a38.1 38.1 0 0 1-4.347-16.112c-.442-13.242 7.321-24.935 6.991-38.338.111-10.349-2.937-19.883-7.517-29.046-1.887-3.776-4.608-8.873-5.529-12.852-2.668-11.532 6.315-17.999 16.438-19.292"/><path fill="#f5742d" d="M370.693 711.909c1.532 2.287 2.545 9.342 3.345 12.322 3.726 13.877 12.693 23.807 27.233 26.484q-.194 1-.363 2.004c-4.006 23.786 2.656 41.461 16.388 60.748-4.722 7.244-7.585 13.36-11.324 21.132-5.226-2.725-10.225-6.23-15.011-9.664-8.875-6.981-12.343-15.792-18.887-22.981-16.296-17.902-27.838-24.116-38.726-47.213 9.208-15.767 23.334-31.04 37.345-42.832"/><path fill="#f5742d" d="M609.425 770.875c2.943 2.015 13.148 4.946 16.992 6.205.048 5.055-.078 10.41-.118 15.487 2.679-.109 5.55-.076 8.247-.096l-.065-14.691c12.832 1.499 21.762 2.14 34.735 2.678.524 5.2 1.762 9.179 3.344 14.125-16.108 14.048-30.352 24.902-49.206 34.906-11.771 5.982-26.135 10.547-38.644 14.466-10.149-15.24-18.378-44.139-22.539-62.034 22.672 6.582 29.653 5.178 47.254-11.046"/><path fill="#aeadb1" d="m548.195 595.515.45.111c.858 2.096-2.189 31.332-2.284 36.572-18.692 14.54-1.435 39.029-10.224 56.2-5.509 10.762-30.091 9.706-39.253 3.638-10.173-9.799-8.548-22.226-2.487-33.725 7.581-14.384 10.629-32.98 13.523-48.814a1143 1143 0 0 1 40.275-13.982"/><path fill="#fefefe" d="M453.865 796.169c11.127-2.439 24.419 3.199 31.712 11.658 10.925 12.67 11.338 26.626 10.386 42.507-15.731.532-27.433.614-43.009-1.441-13.432-1.538-32.595-7.242-44.392-13.195 10.416-23.34 19.016-35.414 45.303-39.529"/><path fill="#fefefe" d="M329.887 754.828c2.271 2.251 8.424 15.85 12.68 20.742 7.677 9.141 16.997 16.678 25.163 25.357 7.571 7.976 12.778 19.115 21.598 25.897 28.829 22.165 68.111 27.776 103.599 26.377 1.147-.045 2.255.951 2.897 1.8 1.469 4.713-2.844 12.99-7.233 15.122-33.916 5.395-73.314-3.196-101.605-23.32-12.2-8.679-20.319-23.574-30.122-34.76-11.65-13.295-26.361-25.091-34.971-40.721 2.372-6.237 4.637-10.724 7.994-16.494"/><path fill="#fefefe" d="m756.233 758.087.956.065c4.11 2.791 5.07 9.208 6.275 13.95-50.085 13.614-79.546 38.865-120.361 67.889-11.633 8.272-38.031 16.679-52.72 24.318-3.131-1.104-8.242-12.444-6.815-15.904 6.797-4.491 16.946-6.738 24.72-9.766 8.6-3.35 17.68-7.22 25.703-11.732 12.985-7.304 25.002-17.677 36.703-26.976 26.251-20.864 52.706-34.713 85.539-41.844"/><path fill="#fefefe" d="M711.584 729.24c19.662-.971 33.536 10.83 43.59 26.506-22.608 5.884-34.447 10.22-54.9 21.11-8.781 4.93-17.449 10.649-25.843 16.194-8.084-30.433 2.129-61.258 37.153-63.81"/><path fill="#aeadb1" d="M556.829 564.564c10.559.271 11.669 9.988 8.5 18.16-2.488 6.414-13.153 8.07-18.86 10.637-2.952 1.328-7.195 2.58-10.286 3.672l-65.725 22.556c-3.655.033-9.053-1.575-9.7-5.499-2.135-12.951 1.154-17.022 11.91-20.705 28.245-9.668 55.853-19.775 84.161-28.821"/><path fill="#aeadb1" d="M557.321 532.114c14.297.984 10.918 19.514 3.38 22.676-20.11 8.433-41.681 14.604-62.285 21.941-9.267 3.301-19.949 7.174-29.305 9.716-11.87.863-13.999-19.806.168-24.81 15.073-5.324 30.936-11.471 46.27-16.075 13.053-3.919 28.689-10.954 41.772-13.448"/><path fill="#fefefe" d="M587.407 694.364c4.96.685 12.447 24.007 16.948 29.531 5.026 6.169 4.861 6.727 11.89 11.445-7.736 1.741-16.973 4.248-20.471 12.075-4.907 10.982 4.095 16.614 12.505 20.001-4.508 5.024-5.7 4.159-11.861 4.263-23.082.39-28.194-15.663-36.192-33.415-3.286-7.292-7.774-15.469-11.283-23.098 1.744-.992 3.75-1.943 5.56-2.849 3.323 6.604 8.808 17.691 13.727 23.338.844.97 1.33.714 2.337.637-2.679-6.535-9.993-18.615-13.709-25.151 2.12-1.218 4.269-2.333 6.43-3.474 4.948 10.072 8.517 18.361 16.069 26.784-2.505-7.812-9.804-20.158-13.916-28.053l6.392-3.201c3.72 6.815 11.069 21.128 15.667 26.505-1.962-8.304-9.169-20.009-13.733-27.505 2.035-1.322 3.992-2.355 6.116-3.512 5.629 8.526 8.049 16.459 15.507 24.405-1.516-6.906-8.696-17.494-12.377-25.633z"/><path fill="#fefefe" d="m435.935 678.365.378.13c1.049 1.211 1.732 4.152.559 5.248-8.176 7.636-15.777 13.63-22.815 22.58 8.249-5.028 16.553-13.081 23.882-19.63 1.431 2.514 2.532 5.043 3.736 7.667-9.118 6.253-15.606 12.135-22.492 20.783 8.362-5.345 16.257-12.66 23.587-19.41l5.06 5.583c-7.339 6.528-15.796 12.284-21.085 20.54 4.707-2.519 7.903-5.451 11.932-8.862 3.861-3.496 7.428-6.881 11.712-9.87l4.669 4.828a456 456 0 0 0-18.848 16.073c-6.627-.107-8.451-.556-10.046 6.685-15.671-1.222-19.684 2.077-19.695 18.036-3.594-2.629-8.668-6.251-11.273-9.792-8.265-11.235-2.723-25.321 6.535-33.503 11.121-9.829 22.577-18.302 34.204-27.086"/><path fill="#fefefe" d="M744.333 422.679c7.69-1.032 13.83 6.047 15.317 12.989 1.339 6.249.432 10.756-2.779 16.173-12.678.435-29.511 5.065-40.324 11.66-6.727 5.467-14.604-5.118-15.734-11.505-3.399-19.222 30.04-27.606 43.52-29.317"/><path fill="#fefefe" d="M724.719 395.169c11.25-1.2 22.291.339 24.103 14.119.518 3.941-.296 7.216-1.608 10.894-13.541.675-26.45 5.191-38.176 11.821-2.939 2.013-4.139 3.068-6.767 5.483-10.703-5.497-17.835-15.711-8.981-26.837 7.412-9.314 19.878-13.951 31.429-15.48"/><path fill="#fefefe" d="M751.604 454.672q1.16-.144 2.329-.219c12.202-.67 21.724 34.929-27.507 33.733-10.01-1.504-17.43-10.501-11.147-19.667 5.245-7.653 27.213-12.581 36.325-13.847"/><path fill="#f5742d" d="M404.172 751.178c4.624.932 5.707 3.827 9.475 5.878 3.368 1.833 10.347 1.93 13.174 4.821l-.267.625c-4.58 2.131-10.328 1.422-15.118.731l-1.167 1.55c-1.195 1.572-3.166 4.062-2.966 6.117.802 8.234 17.636 2.287 22.206 1.316.847 3.266 1.813 6.122 2.883 9.317-5.056.636-9.417.983-14.365 2.359-8.418 2.342-7.518 10.17-.282 13.151 5.767-2.363 11.977-5.095 18.015-6.423 1.16 2.025 2.461 4.101 3.674 6.106-9.973 4.66-12.991 7.633-20.676 15.172l-.56-.822c-13.126-19.499-18.543-36.778-14.026-59.898"/><path fill="#f5742d" d="M389.357 701.056c1.523-.103 8.869.553 7.933 3.161-2.316 6.458-6.729 10.786-7.893 17.977-1.359 8.402.542 14.899 6.284 21.19 1.139 1.294 2.336 2.349 2.678 3.877-1.429.349-2.749-.528-4.196-1.176-16.114-9.009-18.7-19.822-19.73-37.327 4.713-3.938 9.23-5.662 14.924-7.702"/><path fill="#f5742d" d="M566.246 758.298c2.417 1.597 3.787 6.197 7.089 8.98 7.262 6.123 19.842 7.577 28.88 6.85-2.852 2.331-4.493 3.439-7.623 5.411-11.963 6.001-21.366 4.561-32.903-1.191a98 98 0 0 1-.351-7.107c-.109-5.781.947-8.846 4.908-12.943"/><path fill="#f5742d" d="M666.496 748.477c2.375.424 5.343.65 7.789.909-4.325 11.084-5.162 16.532-5.428 28.339-11.391-.363-22.732-.818-33.95-2.906l1.179-8.255c5.487 5.3 7.252 6.302 12.835.832 3.365 1.564 6.8 3.935 10.594 2.819 4.98-1.464 1.793-6.955.382-9.408 2.234-4.783 3.864-7.795 6.599-12.33"/><path fill="#fefefe" d="M656.048 698.439c18.838-.179 16.76 24.504 2.626 30.93-2.348 1.068-6.469 3.977-9.047 3.874-1.311-.825-1.232-.745-1.965-2.111 2.565-4.868 10.83-4.611 16.096-14.559.458-3.373-1.093-12.823-5.533-11.81-8.538 1.949-10.065 18.549-15.008 24.608l-.878-.077c-.867-1.785-.66-5.874-.191-7.755 2.414-9.675 5.458-17.493 13.9-23.1"/><path fill="#fefefe" d="m478.289 735.119.499.04c7.602.66 12.456 5.271 11.43 13.225a14.73 14.73 0 0 1-5.566 9.865c-4.769 3.644-10.822 3.382-16.423 2.44-2.725-.458-9.685-1.554-11.3-3.783l.446-.532c4.904-1.971 12.757-1.006 18.246-.691 3.723-.849 8.958-2.795 8.808-7.078-.581-16.602-21.095.095-27.045.663l-.574-.576c1.699-6.737 15.115-12.328 21.479-13.573"/><path fill="#fefefe" d="m628.131 737.663 1.371-.046.662.695-.419 1.218c-6.094 5.5-21.834 2.838-26.153 11.065-1.328 2.53 2.835 8.421 5.882 8.462 9.423.128 15.288-11.594 21.811-16.027l.985.125-.018-.029c1.205 2.634.215 3.46-1.22 5.531-5.011 5.667-10.847 12.531-18.333 14.824-6.721 2.058-13.217-1.389-14.939-8.3a11.48 11.48 0 0 1 1.594-9.262c5.625-8.332 20.164-6.504 28.777-8.256"/><path fill="#fefefe" d="M614.686 704.459a15.4 15.4 0 0 1 8.452 2.381c4.391 2.826 14.403 15.819 11.008 20.82-3.134-.854-7.063-9.563-9.712-12.415-1.829-1.97-2.703-2.845-4.752-4.647-6.278 2.375-8.99 3.279-8.047 10.458 3.057 3.962 6.578 7.359 10.844 10.018 2.373 1.479 4.215 2.027 6.313 3.916l-.241.761c-7.455 2.218-41.27-18.3-13.865-31.292"/><path fill="#fefefe" d="M417.242 732.499c6.119-.184 26.565 7.018 25.18 13.974-4.391 1.275-23.62-17.54-27.237-3.333-.697 2.74.336 4.59 1.849 6.78 7.787 4.418 17.696 1.149 21.573 2.969.598 1.725.776 2.953-.576 4.278-3.957 1.101-13.141.577-17.307-.614-14.085-4.028-18.319-16.946-3.482-24.054"/><path fill="#fefefe" d="M429.759 726.574c17.29-.492 24.598-2.387 20.028 17.745-3.711.352-17.542-9.945-20.31-12.76-.58-1.788-.091-3.107.282-4.985"/><path fill="#fefefe" d="M461.824 781.721c2.486-.19 3.9-.543 5.896.727.644 2.026.724 1.161.377 2.889-4.711.757-12.252.813-17.355 1.259-7.892.69-14.316 1.808-22.096 3.271-2.844.58-3.628.972-5.949-1.088l-.015-1.036c5.124-5.242 31.638-5.646 39.142-6.022"/><path fill="#aeadb1" d="m550.594 562.07 1.166.083.046.469c-2.534 1.613-5.966 2.867-8.823 3.817-22.09 7.346-44.028 15.463-66.269 22.321l-.91-.187c2.305-3.36 67.73-24.718 74.79-26.503"/><path fill="#fefefe" d="M444.127 763.713c3.742-.154 6.349-.952 8.466 2.327l-.407.692c-4.534 1.314-20.852 2.971-26.67 3.895-2.738.57-5.146 1.489-7.437.07-.427-1.381-.774-1.953-.297-3.303 5.906-2.57 19.634-3.177 26.345-3.681"/><path fill="#fefefe" d="M617.598 713.42c4.543 1.288 14.81 14.362 11.65 17.846l-1.533-.321c-6.321-3.161-20.222-10.059-10.117-17.525"/><path fill="#fefefe" d="M445.468 747.491c10.761.024 12.237 4.937 5.822 12.703-6.511 2.161-13.796-5.767-5.822-12.703"/><path fill="#fefefe" d="m672.724 732.344 1.303.472c.306 3.012-8.93 13.367-10.843 17.127-2.215 4.356-5.113 9.969-7.705 14.021l-1.15-1.274c-1.864-7.637 12.409-25.834 18.395-30.346"/><path fill="#fefefe" d="M476.829 743.562c2.147.147 6.269 1.342 5.701 3.743-1.632 6.893-12.702 5.87-16.655 5.657l-5.615-.596c5.275-4.324 10.257-6.462 16.569-8.804"/><path fill="#fefefe" d="M453.126 788.706c2.486-.326 7.347-.259 10.043-.291l1.508 5.072c-5.441-.039-9.413-.087-14.794.633-3.003.473-6.033 1.286-8.996 2.007l-2.194-5.61c5.095-.938 9.3-1.326 14.433-1.811"/><path fill="#fefefe" d="m653.937 734.985.553.046.422.682c-.829 3.134-3.941 6.655-5.301 9.965-2.688 6.545-3.736 12.787-8.067 18.525-.639-.368-.511-.423-.973-1.157-.874-7.153 5.496-19.384 8.637-25.979z"/><path fill="#fefefe" d="M657.1 707.783c2.756.439 5.83 2.555 4.955 5.773-1.4 5.145-6.053 8.306-10.233 11.109-1.074.705-1.163.671-2.415 1.044-2.47-2.551 5.597-15.586 7.693-17.926"/><path fill="#fefefe" d="M636.286 730.869c9.356.317 13.516 4.554 4.603 11.23-9.063 3.021-10.259-5.078-4.603-11.23"/><path fill="#fefefe" d="M440.823 770.675c5.369-.797 17.348-1.51 20.878 3.063l-.152.986c-2.832 1.797-4.862 1.112-8.162.662-6.832-.609-16.164-1.486-22.784-2.86 3.457-.885 6.697-1.319 10.22-1.851"/><path fill="#fefefe" d="M456.824 710.359c1.556.545 2.692 1.948 3.891 3.15-3.844 3.478-11.009 10.989-15.865 11.033-1.966-.08-2.672-.119-4.586-.501l.002-.484c4.909-4.363 11.204-9.527 16.558-13.198"/><path fill="#fefefe" d="M634.866 748.358c.551 3.191-1.662 21.595-2.748 25.872-.288 1.134-2.244 1.342-3.507 1.695-1.246-9.128.774-20.045 6.255-27.567"/><path fill="#f5742d" d="m619.254 763.417.405.089c2.072 1.77 7.541 6.882 5.613 9.619-1.643.657-3.391-.037-5.186-.476-2.831-.945-7.336-1.691-7.05-5.119 1.413-1.993 3.945-2.946 6.218-4.113"/><path fill="#fefefe" d="M615.878 746.54a307 307 0 0 0 1.886 4.829l.356.743c-2.867 2.845-7.742 5.845-10.926 1.642-1.01-5.527 4.599-6.308 8.684-7.214"/><path fill="#fefefe" d="M433.03 775.908c4.045-.1 19.098 1.076 22.417 2.49l-.523.57c-3.395.616-16.888 2.088-19.837 1.241-1.404-1.252-1.527-2.47-2.057-4.301"/><path fill="#fefefe" d="M420.338 739.934c6.032.27 8.647 5.162 4.249 9.965-6.371-1.148-9.38-4.436-4.249-9.965"/><path fill="#f5742d" d="M654.726 749.652c.14 1.206-4.135 15.248-5.835 16.379-2.169-6.821-1.569-8.083.989-14.839z"/><path fill="#fefefe" d="m672.637 740.303 7.269.161c-1.229 2.229-2.687 4.223-4.136 6.314-2.575-.198-5.088-.494-7.651-.785 1.416-2.027 2.94-3.794 4.518-5.69"/><path fill="#fefefe" d="M657.091 738.945c1.542.448 3.961.867 5.598 1.205-1.862 3.127-2.565 4.265-5.75 5.978-1.744.512-3.643.963-5.415 1.421 1.618-3.57 3.051-5.697 5.567-8.604"/><path fill="#fefefe" d="M429.381 743.056c2.528.916 8.967 3.881 8.832 6.764-3.143.25-6.766.213-9.966.252z"/><path fill="#f5742d" d="m685.786 733.243 1.073-.022.241.586c-2.276 3.132-5.744 4.151-9.421 4.342-1.583-.583-.965-.121-1.999-1.332l.373-1.031c2.851-2.56 6.156-2.502 9.733-2.543"/><path fill="#fefefe" d="M628.75 778.118c.599.157 1.299.421 1.896.625 1.894 2.647 1.049 9.074.731 12.433-4.416-2.834-3.029-8.353-2.627-13.058"/><path fill="#f5742d" d="M417.623 785.785c3.469 2.24 3.561 5.36.805 8.267-4.057-2.58-3.796-4.946-.805-8.267"/><path fill="#f5742d" d="M465.271 788.422c5.831-.029 5.915 2.534 7.938 7.371-5.184-1.567-5.604-2.733-7.938-7.371"/><path fill="#fcb081" d="m619.174 745.889 7.986-1.871c-2.556 2.324-6.422 6.061-9.04 8.094l-.356-.743c.891-1.849 1.048-3.468 1.41-5.48"/><path fill="#fefefe" d="M435.686 759.596c1.777-.121 4.437-.466 5.769.925-1.353 1.22-1.6.909-3.716 1.331-2.569.426-4.135.894-6.466-.032l-.206-.669c1.407-1.212 2.755-1.223 4.619-1.555"/><path fill="#fefefe" d="M643.103 743.486c.175 1.8-5.083 10.815-5.969 15.601-.404-1.043 1.605-10.089 1.974-12.274 1.226-1.102 2.71-2.267 3.995-3.327"/><path fill="#f5742d" d="M412.488 766.252c2.641 1.795 2.914 4.989.933 7.38-3.398-2.497-2.62-3.921-.933-7.38"/><path fill="#f5742d" d="m626.533 757.372.68.761c-.004 2.377-.526 4.467-2.397 6.084-.9-1.098-1.057-1.325-1.755-2.56.507-2.11 1.652-2.584 3.472-4.285"/></svg>