<svg xmlns="http://www.w3.org/2000/svg" width="1024" height="1024" viewBox="0 0 1024 1024"><path d="M361.681 342.893c-3.038-8.337-5.256-24.31-5.997-33.709-1.903-24.142 2.882-49.719 18.318-69.043 4.351-5.447 6.717-11.768 9.892-18.014a100.85 100.85 0 0 1 40.6-42.496c23.013-13.088 49.653-18.519 75.611-11.544 14.634 3.932 23.89 15.083 34.834 24.402 3.314 2.821 10.647 4.831 14.902 7.118 15.948 8.571 28.126 23.124 36.899 38.673 16.544-1.521 72.415-6.451 62.799 24.717-6.652 21.56-33.404 37.954-52.381 48.387 5.63 18.721 5.923 40.24 1.728 59.266-.265-1.593-.455-1.733-1.231-3.117-6.871 26.6-15.215 39.037-38.286 53.432a447 447 0 0 0-.611 8.006c1.206 2.112.938 5.862 1.305 8.609.128 5.094-.855 14.584-1.045 20.405 15.033 27.115 64.678 63.567 94.116 36.879 6.058-5.492 9.572-11.408 13.392-18.508-9.307-7.421-12.643-16.505-6.615-27.411a81 81 0 0 1-6.838-8.501c-7.97-11.572-11.231-24.663-8.974-38.565 1.77-10.9 10.308-17.259 21.165-14.77 2.228-18.284 12.124-27.886 31.462-27.19 7.817.282 12.841 3.369 17.914 9.185 12.418 1.914 19.287 5.963 22.159 18.952 22.643 11.535 12.748 48.876 1.316 65.218-5.253 7.508-10.733 11.194-18.878 14.871-1.908 15.669-9.946 17.572-24.033 17.835a89.5 89.5 0 0 1-16.275 25.536c-21.148 23.12-50.928 26.704-79.439 16.032-17.168-6.425-30.648-16.404-43.999-28.687-.586 9.995-1.797 20.486-2.575 30.589 10.18-.197 13.87 4.57 14.54 14.549.713 10.646-13.778 13.605-14.887 17.407 1.469 1.133 4.905.307 7.505 1.427 7.95 3.424 8.392 14.529 4.981 21.341-3.019 6.029-10.899 7.8-16.953 9.561-.18 7.938-.89 22.452-1.981 30.447q.734.282 1.466.571c24.702 9.781 43.14 28.431 53.669 52.699 9.004.029 9.04.689 12.353 9.357 1.841 4.818 3.774 9.831 5.838 14.564 8.495-.151 9.431.35 14.677 6.635 3.41-1.161 4.796-1.38 8.373-1.949 4.307-6.508 6.278-7.971 14.118-8.145 3.536-4.675 4.541-5.967 10.237-7.563 1.853.418 3.784.932 5.637 1.392 11.373-5.54 14.372-8.98 27.955-11.462 25.863-4.726 56.498 17.367 60.925 42.412 3.078 17.416-28.222 38.889-39.527 48.78-19.173 15.434-37.211 31.089-55.718 47.239-13.913 11.781-28.231 25.396-47.216 27.566-15.676 1.669-19.069-7.27-25.241-18.317-11.847-21.206-15.033-39.128-16.914-62.884-10.892-11.618-6.616-18.854 2.526-29.76-2.702-8.52-6.633-24.505-8.539-33.719-.551-2.659 3.839-6.947 5.842-8.916-9.448-17.807-16.916-29.47-35.876-38.512-3.927 21.251 3.081 46.011-29.004 44.068-9.639-.584-16.57.246-22.956-8.976-12.25 9.895-26.254 17.144-42.212 18.412-2.539 10.817-11.382 8.061-20.937 9.598-.207 12.492-5.191 17.251-16.321 21.558 2.533 6.613 3.19 7.932-3.055 12.191 3.703 6.541 2.705 8.258-1.667 13.806 4.596 5.938 5.353 6.583 1.87 13.125.538 15.158 8.303 28.581-.918 43.262-4.544 7.235-23.76 28.938-31.152 29.747-35.931 3.935-66.614-28.129-74.389-59.062a103.6 103.6 0 0 1-2.857-18.569c-.874-14.106.182-29.621.956-43.743.984-17.977-.208-40.459 9.16-56.25 7.234-4.702 15.389-4.204 23.439-5.222 11.228-1.421 22.158-3.017 33.529-2.57 8.191.322 15.466 3.086 23.5.538 9.549-2.688 16.743.529 22.124 8.698 6.417-1.262 21.889-2.967 27.984-2.125 2.085 1.777 3.229 3.714 4.948 5.848 12.947.311 31.299-15.421 39.241-24.86-2.083-10.647-4.063-23.441-5.538-34.16-14.321 4.09-25.482-.557-20.655-17.935 2.013-7.249 8.889-9.652 15.216-12.523a134 134 0 0 1-1.416-.017c-7.165-.138-8.917-.349-13.702-5.352-3.398-11.636-.144-19.037 10.076-24.817-1.768-8.446-3.094-18.519-4.434-27.184a2796 2796 0 0 0-7.21-45.042c-13.044-8.778-33.239-16.841-48.901-17.958-12.761-.19-19.291.593-30.185 8.722-6.033 4.503-15.026 21.489-14.246 30.172.087.98 8.286 4.497 10.538 7.391 4.605 5.915 5.127 8.243 4.933 15.545 7.514 3.013 15.437 7.476 20.801 13.652 9.602 11.054 9.445 26.159-1.962 35.881 10.621 20.846-3.655 48.953-29.123 35.729-9.985 11.617-20.7 10.034-32.298 2.098-2.141 1.005-4.088 1.753-6.464 1.859-21.566.963-28.352-22.942-28.56-39.944-.222-18.115 2.695-30.195 14.997-43.117a58 58 0 0 1-1.131-2.443c-5.502-12.922 7.64-21.794 17.754-26.033 4.051-29.447 17.132-54.678 46.675-64.77 21.223-7.249 51.981-2.409 71.677 7.481a1100 1100 0 0 1-1.964-15.023c-23.409-11.943-37.936-27.361-46.772-52.41-29.796 4.64-57.019-6.047-38.414-40.553"/><path fill="#afadb2" d="M396.716 357.391c14.649-19.548 34.239-38.612 54.887-51.884 26.588-17.09 59.691-28.954 91.596-28.494 12.165.175 26.426 3.243 38.378 5.829 15.765 27.854 21.391 52.85 16.078 84.691-6.871 26.6-15.215 39.037-38.286 53.432a447 447 0 0 0-.611 8.006c-.734 19.436-3.484 39.251-5.535 58.577-.739 6.971-.412 14.36-.778 21.367-.371 7.126-1.192 14.233-2.063 21.314-27.259 9.588-54.782 18.163-82.076 27.712-4.086-22.768-7.563-47.232-11.24-70.218 10.361.073 19.518-8.886 17.099-19.117-1.788-7.562-16.716-13.886-23.008-17.157-.448-2.713-2.126-10.888-1.27-12.849l3.012-1.041-.01-.768c-1.995-2.096-14.621-7.747-19.649-11.511-24.413-18.272-31.694-39.369-36.524-67.889"/><path d="M504.691 308.055c10.452-.697 15.132 6.762 17.786 15.688-2.163 2.145-7.08 5.907-9.682 8.097l10.774 4.613c.077 12.008-1.926 22.14-15.547 24.793 2.184 2.244 7.423 7.935 5.336 11.145l-.916-.08-.863-1.427c-10.538-18.978-28.725-10.803-30.602-14.925l.574-.61c4.79-1.787 10.889-.437 15.83.501-7.154-13.711-10.704-41.089 7.31-47.795"/><path d="M561.597 305.518c10.499-.411 13.778 6.588 16.93 15.24a414 414 0 0 0-8.793 7.631c3.329 1.288 7.636 2.775 10.57 4.643-.416 8.636-.143 13.425-6.318 19.88q-1.062.71-2.16 1.36c-14.64 8.501-22.499-14.241-21.586-25.355.823-10.01.524-18.748 11.357-23.399"/><path d="M500.857 374.606c5.615 2.004-.281 9.876-2.241 12.821 7.456 5.826 13.315 9.069 22.605 11.574 12.215 3.294 25.662 2.952 37.238-2.435 2.982-1.387 6.842-3.915 9.836-5.665 1.398.26.916-.114 1.648.901-1.051 3.047-8.343 6.355-11.238 7.713-21.742 8.521-44.116 3.967-62.302-10.16-3.631 2.052-11.901 5.168-15.346 1.788 1.709-5.282 17.015 4.439 19.8-16.537"/><path d="M549.373 354.622c4.362-.357 8.103-.625 11.748 2.335a9.75 9.75 0 0 1 3.527 6.787c.926 11.598-16.243 17.653-20.735 13.647l.549-.899c2.142-1.31 3.914-1.116 6.469-1.241 7.133-2.303 15.221-7.33 9.056-15.826-4.973-6.853-15.278 1.869-19.755 1.512l-.282-.559c1.463-3.834 5.857-4.696 9.423-5.756"/><path d="M503.011 293.124a71 71 0 0 1 2.489-.058c4.072-.017 17.077 2.734 16.165 8.222l-.798.506c-1.818-.325-3.651-2.453-5.584-3.483-5.519-2.94-9.801-3.2-15.599-1.57l-.703.204c-2.121 1.067-3.637 1.801-5.525 3.334-2.288 1.857-5.545 7.608-8.201 8.008l-.312-.867c.714-7.314 11.447-12.986 18.068-14.296"/><path d="M558.753 290.609q.87-.095 1.743-.151c5.805-.356 16.691 3.047 16.981 9.672-2.659 1.184-5.934-4.066-8.117-5.334-1.58-.918-2.773-1.16-4.541-1.571l-.659-.148c-8.733-.229-10.406 3.515-16.735 7.855l-.723-.271c-1.288-4.671 8.45-8.92 12.051-10.052"/><path d="m547.331 412.516 1.133.122.566.719c-2.204 6.143-16.954 4.896-22.148 3.837-1.484-.436-1.375-.456-2.473-1.581.808-1.74 4.908-.81 6.672-.56 6.441.914 10.405.035 16.25-2.537"/><path fill="#f47630" d="M468.652 167.686c4.543-.674 14.328-.332 18.781.235 26.628 3.391 44.762 22.041 56.925 44.781 3.504 6.551 7.702 17.23 11.973 22.702l.469.595c-2.269-11.73-12.504-28.807-19.035-39.14 20.252 5.733 35.997 24.225 46.613 41.486-10.446 1.806-20.421 2.566-31.261 4.661-48.979 9.465-97.997 25.409-140.13 52.591a246 246 0 0 0-5.15-8.159c-6.34 2.674-24.717 17.768-29.824 22.993 1.186 2.901 2.84 6.226 4.191 9.107-7.616 7.407-12.071 12.105-18.577 20.529-7.091-20.306-8.222-52.719-1.004-72.787 9.065-25.203 21.587-39.463 44.955-51.257 24.55-11.866 46.752-12.031 67.559 7.371 4.706 4.388 9.394 10.139 14.439 13.988l.624.47c-7.355-14.287-21.896-25.789-37.193-30.417-21.875-6.619-39.538 2.251-58.277 12.272 27.135-47.803 75.451-41.375 100.066 3.703 1.943 3.557 8.145 15.933 10.633 18.23l.536-.391c.145-2.944-1.558-6.211-2.965-8.783-12.765-23.349-29.911-48.234-59.489-48.294-18.206-.037-34.108 10.062-44.62 24.52-5.257 7.231-8.755 13.833-15.228 20.212 14.399-35.353 47.979-56.471 84.989-61.218"/><path fill="#fefefe" d="M344.838 508.724c11.681.436 24.77 2.614 29.385 16.168.468 1.375-.075 2.415-.8 3.549-3.157.891-14.03-5.56-17.308-2.021.644 1.477 13.716 4.684 16.983 5.57 18.954 5.142 41.247 27.474 20.473 46.259-3.543-2.082-5.811-3.58-9.142-5.998.112-2.142.479-4.081-.409-5.946l-.632-.096c-2.409 4.819-3.614 22.861 2.217 25.107 1.527-2.407-.709-5.016-1.104-7.456-.422-2.608-.246-5.78-.217-8.451 5.292 3.135 9.945 5.956 11.527 12.476 1.465 6.037.272 15.051-2.918 20.331a17.02 17.02 0 0 1-11.152 7.957c-6.373 1.347-11.063-.797-16.239-4.044-3.79-2.604-7.246-6.623-11.702-8.282l-.339.408c2.037 4.038 6.403 7.277 9.901 10.222-15.732 17.774-27.029-.426-39.319-8.635 1.855 4.598 4.163 6.592 7.529 10.225-15.986 5.795-26.42-10.269-28.84-23.912-3.712-20.919-.987-47.989 20.65-58.257 2.193-1.04 4.619-2.598 5.969-4.625l-.352-.392c-4.747.628-8.554 3.446-12.77 5.383l-.874-.525c-.713-1.41-.845-2.292-.945-3.876-.984-15.568 18.854-20.535 30.428-21.139"/><path fill="#f47630" d="M599.68 239.75c84.469-6.477 42.304 45.999-2.371 69.054-1.716-3.795-3.457-8.307-5.073-12.203 5.47-5.401 12.282-12.984 12.909-20.926.988-12.504-15.266-15.802-24.61-15.579-68.242 1.63-141.028 23.059-191.012 71.321-5.735 5.807-10.438 11.582-14.623 18.569-11.965 19.979 6.065 21.868 21.303 21.934 1.211 3.266 1.952 6.016 2.867 9.385-13.313.901-39.908 2.167-41.548-16.914-.845-9.834 7.096-22.936 13.61-29.895 57.432-61.355 147.075-88.282 228.548-94.746"/><path fill="#fefefe" d="M657.604 389.057c4.07-.463 8.215.495 11.393 3.105 7.271 5.971 16.426 8.89 18.588 18.646-3.5 14.442-15.263 16.176-27.256 9.072-1.987-1.177-4.389-4.202-6.323-4.397-.845 2.752 1.452 5.043 3.669 6.289 8.923 5.013 16.819 6.665 26.069 1.478l5.739 4.224c-4.212 3.842-10.984 14.198-8.874 20.179 1.254 1.236.544.946 2.057 1.18 1.242-2.276.138-6.473 2.02-10.329 1.786-3.662 3.44-7.58 7.736-9.498.751-.336 2.531-.484 2.664-.268 2.783 4.448 5.102 9.611 10.457 11.542 9.079 3.274 20.726 1.48 23.289-9.341.469-1.98-.927-4.724.033-7.048 1.797-.992 4.071-1.593 3.525-3.787l-1.115-.156c-3.09 1.375-12.638 2.651-12.651 5.225 2.555.69 5.857-1.234 7.584.539.306 4.515-.768 10.389-5.219 11.942-19.581 6.833-28.488-11.185-21.829-27.406 3.842-9.356 9.164-12.908 17.47-16.361 28.86-10.838 34.21 8.813 29.868 32.953-3.633 20.196-17.437 41.295-40.241 40.289-3.047-.134-9.207-.966-11.905-.137l.296.662c7.47 3.64 14.243 2.438 22.237 1.412-3.809 20.507-28.804 15.395-42.534 8.849-10.846-5.17-18.771-14.783-12.525-27.071 3.054 2.653 10.538 9.854 14.181 9.761l.513-.799c-.656-1.473-9.99-8.578-12.053-10.369-13.567-11.773-20.551-28.552-18.135-46.5.958-7.114 4.522-11.322 11.272-13.88"/><path fill="#f47630" d="M392.283 667.611c7.217-.546 10.416 1.906 14.873 7.025-8.392.844-14.012-3.129-21.461 4.343-6.792 6.812-8.519 13.976-8.701 23.351-20.317 17.266-29.624 42.816-25.621 69.05-8.212 1.71-14.12 3.259-21.588 7.196-2.696 1.421-8.014 5.932-9.315 6.019l-.596-1.148a104 104 0 0 1-.907-4.061c-3.838-18.842-2.503-91.401 7.786-106.874 13.638-4.66 37.533-5.639 51.575-2.717-1.909 1.966-5.966 6.209-5.714 8.964 2.889.516 6.006-6.14 10.342-8.244 4.529-2.198 4.333-2.043 9.327-2.904"/><path fill="#f47630" d="M666.328 721.524c-.623-.708 4.158 16.853 6.389 21.004a5012 5012 0 0 0-35.973 34.865c-15.091 14.593-31.734 28.18-42.025 46.601-11.372-18.444-14.351-39.324-15.753-60.491l-3.323-3.21c-1.344-1.694-2.037-3.197-3.029-5.088.801-13.229 15.543-27.474 27.638-31.156l4.329 8.988c-11.172 7.272-21.332 15.377-26.272 28.253 2.993-2.298 6.338-6.853 8.781-9.905 5.956-7.444 10.849-11.407 18.934-16.189 13.607 12.165 23.69 5.74 37.508-1.861 7.525-4.139 14.851-8.5 22.796-11.811"/><path fill="#fefefe" d="M355.254 773.677c6.608-.747 15.455-.725 21.914.946 19.542 5.058 35.265 13.017 29.849 36.015a40.27 40.27 0 0 1-18.01 24.804c-4.421.244-8.263.029-12.637-.496a73.3 73.3 0 0 1-19.368-5.837c-18.733-8.627-28.97-21.842-35.881-40.79 10.274-9.08 20.554-12.98 34.133-14.642"/><path fill="#afadb2" d="m545.251 595.456.73.111c.913 1.594-1.49 23.979-1.588 27.914-11.903-4.496-62.225-19.96-54.129 12.487 1.659 6.65 10.741 8.493 16.789 9.097 10.951 1.092 21.289 3.911 31.598 8.22-1.365 11.465-1.059 27.583-6.424 36.468-2.072 2.404-5.36 5.034-8.58 5.449-12.252 1.557-31.529 3.324-34.912-12.73-4.365-20.718-6.322-42.607-10.344-63.5z"/><path fill="#fefefe" d="M320.272 671.549c1.37-.149 1.863-.379 3.046.261-9.219 26.976-6.759 41.422-8.763 68.011-4.029 53.437 14.406 94.641 72.512 98.746-3.989 4.751-7.122 7.295-12.598 9.995-10.319 3.105-26.139-3.178-35.026-8.229-18.665-10.606-31.233-27.307-36.786-48.018a100 100 0 0 1-3.347-21.945c-.605-12.088.269-25.513 1.053-38.117 1.066-17.132-.138-39.007 7.426-54.805 1.9-3.968 8.454-4.909 12.483-5.899"/><path fill="#fefefe" d="M740.199 705.144c12.322-1.152 13.361 2.003 17.722 13.139-38.917-8.83-104.721 66.48-131.328 91.056-5.622 5.193-14.929 15.989-19.055 22.316-1.886 3.435-2.313 4.513-3.506 8.205-3.77-4.82-5.578-7.445-7.497-13.189 7.642-16.438 30.241-35.905 43.817-48.821 25.664-24.416 63.396-66.847 99.847-72.706"/><path fill="#afadb2" d="M554.138 564.535c4.251-.136 8.338 1.159 9.595 5.569 5.061 17.746-11.173 20.074-22.732 24.273a1644 1644 0 0 1-35.239 12.416c-8.899 3.066-29.72 10.882-37.975 12.616-11.111-1.524-12.148-9.186-8.375-19.076 1.975-5.179 13.132-8.057 18.586-9.824 25.457-8.251 50.508-18.279 76.14-25.974"/><path fill="#afadb2" d="M553.45 532.077c14.243-2.279 14.037 18.767 4.7 22.701-20.206 8.515-41.911 14.764-62.601 22.095-8.991 3.186-18.181 6.435-27.185 9.173-15.934.812-13.562-17.878-3.513-23.576 2.386-1.352 6.323-2.921 8.952-3.742 26.53-8.286 53.03-18.887 79.647-26.651"/><path fill="#fefefe" d="M701.254 682.635c3.772-.533 9.568-.459 13.352.076a50.78 50.78 0 0 1 32.676 19.132c-20.258 1.619-33.527 9.103-49.999 20.829-7.228 5.07-16.071 12.171-22.441 18.189-7.236-12.742-7.949-32.547.611-44.909 5.766-8.325 16.261-11.745 25.801-13.317"/><path fill="#fefefe" d="M428.069 674.707c1.47-.207 4.874-.27 6.497-.35l-2.109 4.557c-5.875.483-39.167 3.295-41.871 5.876 1.343 3.032 36.811-4.596 40.856-3.009.131 1.048.252 4.556-1.067 4.973-8.778 2.774-33.906 2.318-40.746 6.893l.129.534c3.554.504 35.377-4.003 41.609-4.741l.87 6.715-14.674 1.719c-4.058.544-24.426 2.288-25.703 5.168 2.326.973 35.428-3.781 40.884-4.473l2.221 6.182c-11.471 1.302-22.895 2.398-34.317 4.169-3.038.471-7.272-.783-10.333-.301-2.963.466-6.095 2.022-8.726 3.412-2.918-9.24-3.583-20.322 3.176-28.196a17.66 17.66 0 0 1 7.579-5.256c4.122-1.477 30.415-3.425 35.725-3.872"/><path fill="#fefefe" d="M711.42 372.162c11.936-1.666 19.879 4.489 22.759 15.885-20.94.547-36.308 8.653-39.625 30.747l-.068 7.228c-3.672-1.374-5.206-2.242-8.155-4.803 6.285-10.821 4.401-15.845-4.709-23.195 3.581-15.646 14.598-23.314 29.798-25.862"/><path fill="#f47630" d="M671.284 695.374c.465 1.792-1.342 5.726-1.983 7.657-1.833 5.521-2.464 9.492-2.508 15.274-14.21 6.734-28.924 16.876-43.681 21.176-12.621 3.677-26.319-18.873-17.296-28.678 5.112-5.556 11.894-6.601 19.011-7.018 12.15 2.126 1.882 12.263-.911 17.623-1.121 2.151-1.917 4.3-2.712 6.58.715 3.233.847 6.376 4.838 6.613 4.488-1.76 7.741-10.817 10.337-15.553a65 65 0 0 0-.234 2.565c-.198 3.066 1.008 5.574 4.459 5.519 5.045-2.012 6.295-12.335 10.273-19.169-1.162 15.01 7.909 13.148 11.24 1.458 1.342-4.709 5.197-11.105 9.167-14.047"/><path fill="#f47630" d="M376.884 705.951c.834.864 5.434 14.144 4.988 15.999-.265 1.1-.148.762-.942 1.394-3.865-.383-10.155-1.201-12.829 2.144-.859 5.082 5.155 6.927 8.796 8.064l-1.819 3.675c-3.618-.516-15.459-1.671-11.259 7.378 1.123 2.42 6.186 2.828 8.807 3.168-.315 1.765-.375 3.088-1.366 4.566-4.765 2.074-14.493-1.518-11.084 8.909 3.456 2.771 5.647 2.321 10.181 2.528l-.484 7.141c-5.945-.545-9.857-.464-15.767.19a62.3 62.3 0 0 1-.658-21.549c2.019-14.529 11.621-34.777 23.436-43.607"/><path fill="#fefefe" d="M690.111 362.626c8.86-.436 15.274-.343 21.53 6.83-13.281 2.197-22.265 6.736-29.123 18.593-1.306 2.6-2.415 5.54-3.515 8.254l-11.104-8.335c.129-14.516 8.225-22.89 22.212-25.342"/><path fill="#fefefe" d="M596.978 681.472c1.791 1.262 7.855 21.191 9.452 25.063-5.424 5.045-6.641 6.931-6.02 14.473-4.535 1.768-6.343 2.614-10.5 5.083-2.46-10.033-5.643-20.429-8.692-30.3-1.617-5.271 2.287-6.6 6.301-9.432 2.327 6.297 7.064 27.71 10.663 31.053l.578-.283c.386-2.993-7.671-27.309-9.178-31.993 2.408-1.456 4.843-2.503 7.396-3.664"/><path fill="#f47630" d="M391.004 711.086c7.497-.858 13.772 2.031 19.644 6.34 9.393 6.893.111 13.346-4.661 18.788-6.292-2.872-12.524-9.88-20.453-11.169-2.6-.423-.248-2.675-.31-3.56-.157-2.233-1.522-5.174-2.392-7.393 3.464-1.656 4.458-2.044 8.172-3.006"/><path fill="#fefefe" d="M364.149 755.563c11.559-1.205 26.343 3.676 36.005 9.863 2.495 1.598 5.439 3.543 6.106 6.56-.434 2.187.076 1.319-1.438 2.778-14.524-8.642-23.405-12.53-40.161-14.233-1.1-.111-1.739-.933-2.27-1.805.182-1.66.634-1.928 1.758-3.163"/><path fill="#fefefe" d="M577.892 694.447c3.15 4.701 6.689 25.16 10.505 32.658-1.997 1.62-3.992 3.362-5.956 5.032l-.935.402c-1.258-1.378-7.835-27.219-8.655-30.782 1.896-3.58 2.479-4.315 5.041-7.31"/><path fill="#f47630" d="m406.314 290.896.572.16c1.239 1.124 2.891 4.544 3.775 6.175a240 240 0 0 0-25.642 19.415l-.548.257c-1.426-1.246-2.547-3.91-3.452-5.695 7.528-6.821 16.863-14.767 25.295-20.312"/><path fill="#fefefe" d="M366.662 739.529c9.898-.428 20.733 3.159 29.254 8.007 4.104 2.336 11.724 6.545 9.345 12.195-7.946-5.107-12.314-8.405-21.34-11.812-5.454-2.059-16.032-2.259-18.52-5.446-.038-1.448.399-1.732 1.261-2.944"/><path fill="#fefefe" d="M372.012 725.413c9.587-.36 39.514 10.53 36.233 21.951-2.199-.881-9.022-6.118-11.531-7.819-5.914-4.008-9.399-5.294-16.212-7.586-2.821-.949-7.772-2.065-9.147-4.465z"/><path fill="#fefefe" d="M600.88 680.201c1.378-.14 6.3-.641 6.885.025 3.011 3.428 7.598 16.817 8.586 21.007-.894 1.242-.979.936-2.728 1.552l-5.299 2.228c-2.177-6.3-6.494-17.874-8.018-23.989z"/><path fill="#fefefe" d="M434.909 707.218c1.592.149 4.235 4.042 6.088 5.904l-28.236 2.714c-2.839-1.976-5.164-3.339-8.166-5.068 10.168-1.24 20.109-2.543 30.314-3.55"/><path fill="#f47630" d="M372.924 764.317c7.615.585 19.9 5.592 26.085 10.176l-.066 6.339c-9.401-5.59-15.777-7.858-26.539-9.722.13-2.23.347-4.557.52-6.793"/><path fill="#afadb2" d="M547.621 562.015c1.034-.033.567-.183 1.394.465-2.279 2.499-66.119 23.605-73.9 26.13l-1.169-.023-.305-.539c4.999-3.897 64.338-23.071 73.98-26.033"/><path fill="#fefefe" d="M665.388 692.876c1.485.02 1.476-.091 2.743.62-.132.817-4.254 5.817-5.357 7.841-2.695 4.946-3.749 9.473-6.108 14.428-1.728.153-2.037-.109-3.046-1.258-1.512-6.673 6.183-18.004 11.768-21.631"/><path fill="#fefefe" d="M651.712 700.414c1.242.117.699-.105 1.643.624-.251 1.177-4.717 6.4-5.993 8.484-2.627 4.289-4.155 12.48-6.763 15.302-.404-.237-1.151-.833-1.554-1.135-3.072-7.762 6.184-19.596 12.667-23.275"/><path fill="#f47630" d="M375.292 748.027c5.643 1.468 18.473 5.378 22.905 10.266.894.986.3 1.951-.062 3.023-9.239-4.798-14.073-6.114-24.106-8.144z"/><path fill="#fefefe" d="M637.388 709.318c.582.174.215.024.999.645-.139 1.335-10.804 21.015-12.202 22.37-5.471-7.583 5.265-18.788 11.203-23.015"/><path fill="#f47630" d="m421.372 717.703.882-.098.649.63c.206 9.009-3.392 13.405-11.446 16.96-.007-1.46 3.867-5.056 4.949-6.799 2.332-3.759-.335-6.322.031-9.476 1.702-1.228 2.637-.961 4.935-1.217"/><path fill="#f47630" d="M379.798 734.265c4.169 1.549 20.101 8.114 21.577 11.976l-.566.985c-8.093-4.644-13.632-6.597-22.359-9.43-.097-1.484.517-1.964 1.348-3.531"/><path fill="#f47630" d="M401.835 776.418c3.463 2.237 2.689 4.602 2.638 8.355-3.667-3.159-3.496-3.799-2.638-8.355"/><path d="M687.069 566.576c22.859-.771 42.043 17.078 42.92 39.934s-16.883 42.122-39.734 43.105c-23.002.99-42.423-16.913-43.306-39.919s17.11-42.344 40.12-43.12"/><path fill="#fefefe" d="M686.621 569.097c21.507-1.052 39.816 15.482 40.954 36.984 1.139 21.502-15.321 39.878-36.818 41.104-21.621 1.233-40.125-15.342-41.271-36.968-1.145-21.625 15.505-40.063 37.135-41.12"/><path d="M709.631 609.474c6.472-.374 5.75 4.744 3.254 8.94-9.506 15.976-24.418 17.262-39.845 8.757-.698 2.091-.899 3.655-2.651 4.8l-1.13-.266c-1.679-1.813-2.504-4.474-3.465-6.832-.923-2.048-3.715-7.858-3.632-9.428.096-1.825 13.895-2.547 15.809-2.106 1.307.301 1.455 1.051 1.862 1.954-.195 2.29-1.642 3.737-3.058 5.67 9.241 6.64 20.013 6.816 27.677-2.454 2.438-2.949 3.53-5.59 5.179-9.035"/><path d="M703.053 588.205c.707-1.75 1.372-4.288 3.267-4.799 2.213 1.795 8.563 14.424 7.885 17.216-2.344 1.889-16.173 2.433-18.439-.03.278-3.421 2.767-2.515 3.006-5.725-.821-1.535-1.566-1.75-3.095-2.604l-.567-.31c-8.426-3.234-17.255-2.092-22.656 5.743-2.423 3.514-3.446 8.409-7.967 9.258-6.293-3.16 3.786-15.816 7.446-18.258 4.636-3.095 7.36-4.198 12.626-5.061 7.536-.708 12.069 1.309 18.494 4.57"/><path d="M270.165 366.523c22.761-2.945 43.595 13.131 46.52 35.894s-13.167 43.584-35.933 46.49c-22.739 2.902-43.529-13.168-46.45-35.904-2.922-22.736 13.13-43.539 35.863-46.48"/><path fill="#fefefe" d="M273.399 368.769c21.508-1.195 39.914 15.268 41.116 36.775 1.202 21.508-15.254 39.919-36.761 41.129-21.517 1.21-39.94-15.256-41.143-36.774s15.27-39.935 36.788-41.13"/><path d="M297.65 407.864c12.062 2.321-4.184 21.136-12.611 22.77-11.799 2.288-14.345 1.863-24.685-3.449-.972 2.199-1.079 3.223-2.988 4.293l-1.167-.428c-1.604-1.859-3.548-7.262-4.647-9.836-1.181-2.418-1.954-3.668-2.444-6.338 1.182-2.838 15.288-2.478 18.009-1.23l.313.982c-.532 2.199-2.139 3.917-3.548 5.775 9.385 7.857 22.533 6.135 29.247-4.409 1.759-2.763 1.701-6.055 4.521-8.13"/><path d="M290.111 388.095c.937-2.114 1.565-5.009 4.099-4.936 1.627 2.635 7.396 14.224 6.921 17.032-3.111 1.719-14.561 2.118-17.864.864l-.259-.944c.701-2.212 2.329-3.93 3.796-5.794-1.782-1.224-3.507-2.048-5.422-3.036-23.628-7.346-22.712 16.785-30.571 15.114-3.123-3.505.911-10.64 3.388-13.511 5.398-6.256 10.979-8.922 19.059-9.696 7.848.313 10.084 1.237 16.853 4.907"/><path d="M597.655 367.533c.776 1.384.966 1.524 1.231 3.117-6.152 25.953-16.593 37.751-37.803 52.048-.079 2.872-.452 12.164-1.02 14.882-.367-2.747-.099-6.497-1.305-8.609q.27-4.005.611-8.006c23.071-14.395 31.415-26.832 38.286-53.432"/></svg>