<svg xmlns="http://www.w3.org/2000/svg" width="1024" height="1024" viewBox="0 0 1024 1024"><path fill="#050201" d="M525.043 165.238c36.696-2.698 75.947 18.251 95.085 49.227 4.47 7.234 7.461 14.222 11.334 21.657 3.193 5.156 7.272 9.978 10.164 15.305 14.769 27.198 13.927 61.599 5.549 91.475 18.602 36.918-6.415 42.712-37.568 41.159-8.432 25.263-22.362 39.343-45.002 52.04l-1.87 15.848c9.209 1.828 17.704 4.231 26.561 7.22 55.088 18.597 98.676 61.624 37.196 107.562 1.182 10.705-.448 16.347-10.314 21.351-1.076 8.519-1.445 10.501-5.425 17.961 3.735 3.407 7.252 6.687 8.149 11.924 2.139 12.495-10.339 21.097-21.177 22.851-15.953 2.581-29.848-3.677-42.565-12.658 1.144 11.027 3.989 26.002 5.565 37.515l8.168 64.086c2.871-1.384 9.086-4.965 11.893-4.039 2.264 3.496 4.679 21.762 5.46 26.688 24.537-1.888 24.693 2.367 29.78 24.233 7.001-.062 7.935.66 11.627 6.308 4.097 1.015 5.641 1.903 9.146 3.966 8.146-.675 9.698 1.16 12.944 8.047 4.062-.052 8.188.184 12.187.916 11.149 2.041 19.957 8.094 26.299 17.432 7.21 10.615 15.157 32.814 11.961 45.692-.381 1.537-.783 2.551-2.242 3.275-4.401 2.187-10.722 2.75-15.599 3.542-41.728 6.774-86.19 2.078-127.483-5.431-9.909-1.802-20.749-3.372-30.227-6.806-1.819-.659-4.526-1.703-5.326-3.607-4.396-10.462 2.527-69.749 7.146-81.817 1.638-4.277 8.842-5.229 9.431-8.297 1.296-6.759-4.527-20.253-2.105-26.987 1.27-1.293 2.439-1.227 4.271-1.503-2.533-20.844-4.774-41.797-8.165-62.511-7.998 11.665-16.907 15.593-30.874 12.319-4.469-1.542-6.968-3.385-10.714-6.117-1.733 18.286-4.712 36.573-6.153 55.186.75 1.363 1.228 1.07 3.273 1.701l.935 1.021c.526 7.864-2.207 20.01-2.51 27.793 2.963.929 5.635 2.123 7.663 4.564 7.874 9.477 10.741 58.213 10.776 72.135.012 4.517-.446 8.995-.925 13.48-11.813 5.964-50.23 12.029-63.861 13.77-32.883 4.198-68.369 5.828-101.261.775-4.379-.785-11.903-1.544-15.364-4.419-1.865-2.494-1.72-10.855-1.3-13.619 1.992-13.112 6.561-28.163 15.123-38.373 9.24-11.018 21.654-13.652 35.257-14.65 1.02-2.278 1.918-3.794 3.166-5.918 2.58-1.47 14.984-4.157 19.168-5.337l2.239-4.206c3.661-2.087 5.384-2.235 9.463-2.474 5.589-22.842 5.323-25.077 29.872-24.421 1.156-5.508 2.991-21.921 5.004-25.778 3.424-.718 9.064 2.337 12.48 3.836a1936 1936 0 0 1 12.589-101.195c-13.018 8.124-27.499 14.742-43.33 11.457-10.598-2.199-23.203-11.497-20.093-23.953 1.097-4.396 4.145-7.402 7.966-9.704-3.351-6.886-4.018-10.695-4.994-18.192-9.758-4.673-12.2-11.07-10.853-21.414-54.137-41.273-27.582-81.535 25.657-103.432 12.797-5.263 23.409-8.056 36.952-10.729-.596-9.739-1.571-19.934-2.358-29.697-12.726-7.645-22.648-15.57-30.382-28.597-14.281-24.056-15.252-55.779-8.819-82.313-17.954-9.227-56.514-33.758-55.146-57.358 1.268-21.887 47.325-18 63.469-16.707 7.58-15.606 23.099-31.594 38.667-39.478 2.66-1.574 11.43-3.981 13.225-5.915 15.418-16.613 26.866-25.614 51.145-27.665m27.313 365.203c12.435.732 12.649 5.838 14.416 16.826q5.433.042 10.866-.005c7.037-13.462 19.313-11.593 30.672-5.354l.927.512c9.317-6.561 24.367-17.318 14.183-29.861-13.571-16.714-43.329-28.269-64.084-31.861-2.912 15.4-4.626 33.928-6.98 49.743m-160.001-9.493c2.834 11.227 8.036 14.589 17.01 21.2.759-.373 2.56-1.196 3.181-1.614 11.794-6.274 22.041-4.721 29.721 6.815 7.811.012 12.179.041 19.499 3.107l2.38.988c-1.408-22.301-4.019-47.267-6.24-69.642l-.678-.117c-19.677 3.345-59.21 17.804-64.873 39.263"/><path fill="#adaeb2" d="M464.784 277.21c8.178-.579 17.334.586 25.458 1.825 47.251 7.212 95.064 40.175 122.745 78.828-4.49 30.397-15.328 55.899-42.515 72.186-3.353 2.009-8.991 4.337-11.765 6.761l.076.867c1.305.263 1.911.238 2.936 1.055-.003 3.207-1.088 9.206-1.598 12.587-4.577-.276-7.665-.474-11.836 2.126a14.07 14.07 0 0 0-6.355 9.394c-2.118 11.071 5.341 15.844 14.777 17.86-2.597 14.107-4.679 32.045-6.763 46.435-.159 1.709-.133 2.735-.85 4.311-10.163 4.32-26.918 9.245-37.915 12.914-13.939 4.65-29.59 10.408-43.493 14.503-2.033-11.519-3.109-32.044-4.365-44.139-3.188-30.696-5.121-62.253-8.47-92.892-30.387-17.713-42.041-41.652-42.565-76.957-.351-23.712 5.948-41.08 16.75-61.798 13.023-3.393 22.359-5.102 35.748-5.866"/><path fill="#050201" d="M505.566 308.599c1.783-.177 3.936-.314 5.709-.173a16.36 16.36 0 0 1 11.303 5.962c10.637 12.947 4.822 46.667-18.263 44.045-11.057-2.936-13.579-11.624-13.989-21.877 3.987-1.799 7.585-3.245 11.669-4.824a421 421 0 0 1-9.77-9.163q.43-1.086.896-2.157c2.969-6.956 5.688-9.109 12.445-11.813"/><path fill="#050201" d="M449.55 304.632c29.39-1.383 25.213 56.446-4.661 49.817-10.595-4.209-12.229-12.409-12.409-22.588 3.725-1.431 8.069-2.81 11.882-4.121a372 372 0 0 0-9.997-9.737c3.642-8.024 6.174-11.652 15.185-13.371"/><path fill="#050201" d="m446.934 365.885.69.881c-.172 1.684-1.508 2.867-2.657 4.212 19.556 17.708 44.984 22.342 67.774 6.514 3.225-2.24.711-2.847.909-5.277 3.29-.831 8.587 5.376 7.125 7.791l-.983-.185c-.882-.563-1.74-1.068-2.638-1.6-.601.096-7.815 4.6-9.185 5.341-17.498 9.465-38.913 7.92-55.437-2.899-3.306-2.164-6.309-5.405-9.838-7.417-1.358.663-1.697.922-3.194 1.199-2.083-2.832 5.245-7.168 7.434-8.56"/><path fill="#f3762d" d="M523.487 167.694c12.879-1.611 29.935 1.777 41.951 6.35 27.176 10.342 47.317 27.666 59.324 54.271-4.514-3.827-7.671-8.194-10.708-13.191-13.756-22.632-40.026-38.075-66.487-27.717-21.177 8.289-34.421 29.959-44.071 49.574-.662 1.346-1.312 3.344-.734 4.806 1.192-.422 1.934-1.342 2.534-2.478 9.7-18.371 19.221-36.521 38.301-47 27.26-14.971 56.47 2.014 69.729 27.481-18.967-11.236-39.641-19.507-61.521-11.043-12.681 4.905-27.136 16.29-32.653 28.958 7.507-5.705 12.538-13.561 21.111-19.471 12.243-8.439 22.986-11.923 37.764-9.592 2.99.423 6.344 1.232 9.246 2.072a86.5 86.5 0 0 1 51.841 41.354c14.389 26.159 14.581 59.355 6.338 87.436-5.267-6.334-10.655-12.814-16.732-18.474-42.783-39.843-100.121-61.747-156.314-74.507-16.82-3.82-31.039-5.608-47.688-8.068 9.981-18.714 25.991-33.837 45.916-41.376-7.416 12.094-12.789 21.931-17.969 35.141l.737.902-.301.449c3.62-3.518 5.235-8.062 7.365-12.521 13.393-28.034 30.536-49.68 63.021-53.356"/><path fill="#f3762d" d="M394.873 239.724q1.686-.099 3.377-.102c14.586-.02 33.307 2.086 47.692 4.451 55.159 9.195 110.738 27.011 156.687 59.744 17.2 12.253 48.199 36.198 48.835 59.237.547 19.793-26.71 19.707-40.818 18.535.821-2.929 1.554-6.065 2.293-9.033 30.855-1.349 32.154-10.779 13.509-33.713-46.126-52.013-128.309-77.24-196.429-78.528-6.561-.124-16.036.891-21.08 5.388-11.22 10.005 2.233 23.988 9.436 31.537-1.57 4.074-2.897 7.984-4.284 12.113-17.639-7.541-50.639-30.725-53.119-51.967-1.839-15.739 22.909-17.113 33.901-17.662"/><path fill="#fefefe" d="M591.356 539.562c21.324-.931 45.493 31.914 26.728 45.117-3.789.395-2.223-7.979-7.273-11.298-1.621 2.022 1.983 8.589 2.444 13.112a28.1 28.1 0 0 1-1.191 11.43c-4.559 14.557-18.742 20.798-19.968 24.104 3.276 3.39 15.057-10.345 17.522-13.016 13.289 9.439 6.427 21.441-5.71 27.599a33.3 33.3 0 0 1-10.828 2.373c-13.857.76-28.718-6.166-38.804-15.306-1.837-8.47-4.089-20.244-5.02-28.735 4.36-1.309 8.067-2.345 11.591-5.564 5.803-5.3 7.641-16.397 1.63-22.246-4.005-3.897-8.246-3.547-13.457-3.57 7.525-5.128 11.38-3.681 16.598-13.172 10.323-1.38 16.118.108 25.419 3.88.863.35 1.263-.018 1.881-.483-1.221-3.135-9.677-5.38-12.721-6.317 3.815-4.768 5.67-5.94 11.159-7.908"/><path fill="#fefefe" d="M422.489 539.59c8.222-.583 11.838 1.569 16.676 8.084-2.874.79-13.131 3.421-13.045 6.771 6.547 1.785 13.989-10.917 38.101-.51.213 1.892.312 4.194.449 6.127-7.92 3.354-11.497 6.91-12.954 15.936-2.275 14.097 12.383 13.191 14.226 15.396-2.234 3.578-10.782 3.206-12.888 12.337-2.602 11.281-.07 16.453 11.273 19.858-.22 3.23-5.54 5.558-8.101 6.981-9.281 5.156-17.503 7.795-28.06 8.297a98 98 0 0 1-3.837-.272c-15.162-1.438-31.982-17.843-14.665-29.769 2.999 3.367 12.763 14.663 17.433 13.4-.146-2.589-9.886-8.173-13.24-12.58-6.286-7.529-8.976-17.393-6.979-27.038.541-2.615 3.532-7.075 1.819-9.111l-1.017.398c-2.993 3.918-3.323 6.948-4.395 11.72-11.485-6.037-9.908-17.484-4.459-27.161 5.201-9.238 13.438-16.063 23.663-18.864"/><path fill="#adaeb2" d="M540.97 598.053c1.636 1.751-5.85 43.236-6.99 48.695-3.233 15.489-9.058 34.673-28.846 33.187-8.041-.604-13.4-4.83-18.271-10.685-7.552-10.902-9.82-34.663-12-48.358 5.625-2.251 13.876-4.758 19.884-6.852z"/><path fill="#f3762d" d="M494.195 781.345c3.528 13.336 5.178 36.152 5.308 49.873-23.411 7.965-61.862 13.18-86.924 14.874-1.072-6.69-1.821-11.682-3.814-18.168 21.714-10.865 32.505-16.504 47.197-36.268 16.204 5.561 27.555 4.252 38.233-10.311"/><path fill="#f3762d" d="M525.925 781.241c11.038 14.804 21.379 15.835 37.869 10.538 13.339 19.434 28.016 25.884 47.403 36.191-1.832 6.077-2.45 11.186-3.307 17.427l-.223.328c-1.955.781-13.277-.785-15.788-1.082-24.058-2.844-47.855-5.616-70.852-13.462a264 264 0 0 1 4.898-49.94"/><path fill="#fefefe" d="M652.614 797.221c26.847.88 39.328 18.869 44.151 43.781a222.8 222.8 0 0 1-43.011 5.611c-13.779 1.548-29.236.825-43.018-.208 2.17-26.383 12.854-47.641 41.878-49.184"/><path fill="#fefefe" d="M361.869 797.667c29.754-4.442 45.656 22.723 47.81 48.749-13.926 1.043-23.911.995-37.804.522-14.641-.702-34.079-1.91-48.299-5.866 4.518-22.131 14.316-40.007 38.293-43.405"/><path fill="#fefefe" d="M520.546 834.121c20.087 6.426 35.213 8.491 56.055 11.285 28.341 3.799 50.944 5.795 79.34 3.799 15.76-1.107 26.412-3.102 41.817-5.117 1.003 6.057.724 9.331.144 15.499q-.837.385-1.703.7c-5.314 1.916-14.164 3.307-19.948 4.052-39.162 5.043-80.114.747-118.818-5.869-11.04-1.886-26.165-4.691-36.147-9.138-.918-5.172-.765-9.995-.74-15.211"/><path fill="#fefefe" d="m498.681 834.56.538.132c1.058 2.014.469 10.33.001 12.719-.167.854-2.311 2.647-3.243 3.061-6.982 3.097-18.806 5.206-26.225 6.643-40.377 7.82-106.442 14.928-146.435 2.964l-.917-1.002c-1.036-3.573-1.246-10.329-.045-13.706.949-2.665 13.272 1.062 16.212 1.386 22.951 2.515 46.844 4.554 69.93 2.45 30.717-2.8 60.456-6.194 90.184-14.647"/><path fill="#adaeb2" d="M554.934 533.137c10.402 1.089 10.524 13.739 5.593 20.531-1.478 2.036-4.921 3.632-7.277 4.511-15.62 5.822-31.627 10.675-47.383 16.13-8.527 2.794-34.841 12.46-42.117 13.339-11.496-.61-11.213-14.073-5.305-20.89 1.507-1.74 3.213-2.658 5.341-3.45 17.197-6.396 34.756-11.866 52.105-17.838 7.026-2.348 33.504-11.903 39.043-12.333"/><path fill="#adaeb2" d="M555.089 566.224c5.693.712 7.749 4.21 8.01 9.759.198 4.216-1.076 8.668-4.088 11.722-1.265 1.282-3.072 2.024-4.719 2.748-12.84 4.23-81.296 29.95-90.923 30.196-1.86-.469-3.408-.974-4.96-2.166-5.377-4.129-3.863-14.458.029-19.051 1.202-1.419 4.253-2.809 6.087-3.454 12.561-4.419 25.286-8.424 37.888-12.735 9.129-2.86 45.347-16.654 52.676-17.019"/><path fill="#f3762d" d="M422.476 754.654c6.986-.646 16.57.674 23.04 3.456 12.902 5.549 8.334 16.275 3.568 25.731-5.537-.754-7.592-1.136-12.683 1.032-1.494.888-3.389 2.344-4.833 3.386-9.933-6.466-13.593-8.562-25.044-11.646 1.464-6.235 2.629-12.733 5.666-18.346 3.982-2.535 5.782-2.911 10.286-3.613"/><path fill="#f3762d" d="M590.374 754.703c19.432-1.778 19.609 6.017 22.944 22.211-10.043 2.448-15.468 5.154-24.071 10.63-1.973-.135-7.253-3.906-10.718-4.108-2.823-.164-4.858-.014-7.68.136-10.828-20.889-.931-26.672 19.525-28.869"/><path fill="#fefefe" d="M477.38 740.619c.111-1.931.013-2.754.89-4.498 1.554-1.505 3.93-1.629 6.19-2.061-.838 11.353-2.393 27.098-5.062 38.204-2.818 11.727-16.334 11.925-26.409 10.821 3.524-8.479 6.478-15.031.573-23.239a1960 1960 0 0 1 4.207-25.369c2.326.473 5.077.835 7.455 1.211-1.331 10.71-4.135 21.715-3.539 32.331 3.317-9.162 4.713-22.291 6.156-32.235 2.53-.078 5.188-.024 7.73-.016-1.329 9.394-3.709 23.46-3.365 32.486 3.466-8.651 4.14-18.386 5.174-27.635"/><path fill="#fefefe" d="M535.85 734.352c2.294.287 3.794.735 6.005 1.328.957 8.47 2.71 24.277 5.439 31.77 1.097-9.723-1.581-21.465-2.677-31.587l7.699-.131c1.335 10.222 2.565 22.603 6.119 32.152.334-10.722-1.981-19.626-3.203-30.264-.082-.359-.03-1.166-.024-1.578 1.368-1.148 5.109-1.401 7.051-1.666.759 7.47 2.771 17.587 3.844 25.381-5.094 9.118-1.947 14.783 1.519 23.64-26.11 2.151-27.8-6.99-29.932-30.245-.572-6.237-1.615-12.401-1.84-18.8"/><path fill="#f3762d" d="M433.522 790.348c8.634-6.153 10.431-4.969 19.506.077-10.663 16.414-27.05 27.118-45.026 34.297-1.23-2.367-7.117-12.737-7.524-13.98.909-.81 1.86-1.626 2.729-2.474l.081-2.884c4.17 2.44 9.474 7.482 13.965 5.034.206 1.018.267 1.546.185 2.581l.636.68c2.582-1.865 2.795-2.62 3.151-5.732-1.662-3.67-2.455-4.601-5.761-6.889 4.334-1.885 5.388-4.211 9.579-1.445 2.542 1.9 5.846 4.735 9.05 3.85 8.706-2.404 3.535-9.897-.571-13.115"/><path fill="#190b07" d="M403.288 805.384c4.17 2.44 9.474 7.482 13.965 5.034.206 1.018.267 1.546.185 2.581l.636.68c-4.092 3.399-11.203-2.918-14.867-5.411z"/><path fill="#e36c36" d="M415.464 801.058c4.334-1.885 5.388-4.211 9.579-1.445-5.911 4.546-3.273 2.727-3.818 8.334-1.662-3.67-2.455-4.601-5.761-6.889"/><path fill="#f3762d" d="M575.15 786.532c4.966-.681 7.207.643 11.27 3.15-2.879 2.626-9.622 10.175-2.504 14.092 3.975 2.187 10.291-3.589 14.184-5.855l5.843 3.39c-1.184 1.063-4.498 4.218-4.712 5.305-2.717 13.818 10.222 6.422 16.004 2.793.98-.615 2.775.96 3.596 1.487-2.466 4.974-4.892 8.883-6.838 14.145-18.182-7.735-34.272-17.721-45.353-34.417z"/><path fill="#f3762d" d="M483.949 763.664c3.166.881 6.238 2.962 7.821 5.814 4.09 7.371-3.337 16.249-9.394 19.473-7.348 3.911-13.775 3.515-21.231 1.449-4.03-1.332-8.204-3.057-11.81-5.297 8.636 1.473 17.845 2.672 25.698-2.595 6.653-4.462 7.62-11.628 8.916-18.844"/><path fill="#f3762d" d="M535.516 763.926c2.33 1.992 1.371 12.927 7.316 17.309 8.781 6.473 18.13 5.367 28.033 4.496-3.585 1.651-7.527 3.111-11.226 4.554-12.316 3.619-24.358 1.333-31.01-10.676-3.872-6.991.575-12.709 6.887-15.683"/><path fill="#fefefe" d="M403.288 805.384c-9.311-4.449-17.598-7.673-27.569-10.351-.957-.257-1.428-1.309-1.854-2.092 2.694-12.035 40.06 6.645 43.224 14.112.552 1.302.306 2.094.164 3.365-4.491 2.448-9.795-2.594-13.965-5.034"/><path fill="#fefefe" d="M637.819 789.154c3.655-.313 7.491.152 8.055 4.543-1.703 2.474-7.245 2.854-10.568 3.861-9.88 2.993-17.454 6.737-26.081 12.149-2.491 1.551-6.085 2.912-7.038-1.05 2.567-9.56 26.548-18.189 35.632-19.503"/><path fill="#fefefe" d="M616.561 779.204c2.935-.038 6.199.3 7.942 2.918-.995 2.689-8.606 3.45-11.658 4.566-8.176 2.992-14.48 7.144-21.391 12.249-2.038 1.221-3.183 1.793-5.596 1.473-5.08-3.899 6.216-11.785 9.418-13.621 6.775-3.885 13.497-6.665 21.285-7.585"/><path fill="#fefefe" d="M400.366 779.151c5.051-.337 8.206.658 12.915 2.141 4.587 1.445 25.209 11.944 21.846 17.948-1.896 1.167-1.781 1.171-3.969 1.379-8.807-6.492-17.58-12.109-28.133-15.365-2.329-.718-6.034-.858-7.391-2.726l.396-1.034c1.799-1.558 2.046-1.704 4.336-2.343"/><path fill="#fefefe" d="M571.412 731.661c.973 1.346 3.207 19.556 4.185 23.288l-6.435 3.292c-1.614-1.832-3.818-20.444-4.365-24.4z"/><path fill="#fefefe" d="m448.344 731.701 6.994 2.272c-1.472 7.992-2.775 16.231-4.14 24.26-2.066-1.227-4.733-2.432-6.931-3.499 1.727-6.714 2.483-15.631 4.077-23.033"/><path fill="#adaeb2" d="m546.663 563.575.33.105.344.667c-2.496 2.321-68.493 24.19-77.227 26.687-.691-.094-.299.023-1.103-.54 2.02-2.562 70.954-25.026 77.656-26.919"/><path fill="#fefefe" d="m578.448 728.44 1.113.47c1.269 3.028 3.963 19.801 3.946 23.279-1.292 1.06-2.676 1.175-4.385 1.604l-.816.152c-1.412-1.228-3.682-20.154-4.154-23.434z"/><path fill="#fefefe" d="M440.328 728.227c1.772.352 3.851 1.542 5.515 2.373-1.292 7.743-2.657 15.812-3.54 23.592l-6.04-1.644c.617-6.104 2.76-18.515 4.065-24.321"/><path fill="#fefefe" d="M625.816 786.161c1.956-.257 4.313-.244 5.693 1.347-10.002 3.638-15.718 5.66-24.752 11.649-1.624.225-4.596-2.031-6.397-3.093 7.275-5.419 16.559-8.537 25.456-9.903"/><path fill="#fefefe" d="M389.035 786.046c6.142-.593 26.075 4.847 29.942 9.58-.437 1.131-1.65 1.483-2.986 2.281-.678.317-1.81 1.03-2.348.823-6.399-2.458-12.147-6.645-18.838-8.988-2.486-.87-5.831-1.241-6.934-2.728z"/><path fill="#fefefe" d="m623.899 804.48.845.17c-.549 1.355-2.687 2.976-3.871 4.026-.784-.763-.744-.706-1.185-1.707 1.07-1.509 2.293-1.656 4.211-2.489"/></svg>