<svg xmlns="http://www.w3.org/2000/svg" width="1024" height="1024" viewBox="0 0 1024 1024"><path fill="#010000" d="M331.394 337.153c-7.025-29.612-7.605-54.085 4.937-81.785 1.752-5.653 2.687-12.23 4.396-17.824 12.197-39.923 61.373-69.667 102.404-63.556 12.491 1.86 17.783 6.49 28.683 11.461 4.208 1.919 15.269 3.559 20.347 5.115a111.05 111.05 0 0 1 56.108 39.245c2.725-.52 7.082-1.268 9.602-1.804 35.11-7.46 65.333-2.317 33.179 37.139-9.061 11.118-19.759 21.052-30.713 31.09 10.505 27.904 13.894 56.62 4.133 85.394 10.842-2.678 26.424-5.313 37.475-6.899l12.274-12.399c-12.658.412-26.393 3.344-38.942 5.167-1.179.172-1.549-.392-2.203-1.089l.658-.764c5.441-2.229 36.126-6.066 42.677-5.748 8.157-8.574 20.77-23.757 27.777-33.572a169 169 0 0 1-2.622-4.072c-5.881-9.516-5.074-18.472 4.751-24.462-7.126-17.767-8.177-41.786 14.841-48.039-5.605-9.657-4.779-19.443-.679-29.886 7.751-19.739 30.767-27.449 44.829-8.425 2.32 3.138 3.323 6.371 4.652 10.135 1.446-.115 3.377-.291 4.807-.281 5.4.04 10.549 2.279 14.262 6.2 5.837 6.237 6.155 13.121 5.857 20.987 22.726 5.69 17.79 30.572 9.143 45.795-10.869 19.134-25.574 34.843-48.312 36.723-1.457 16.294-13.663 17.049-26.572 13.734-3.562 4.303-8.011 10.586-11.515 15.162 25.361 4.678 46.511 13.487 35.054 44.13l-.535-1.565-.598-.166-1.707 2.334c1.776-4.9 3.033-8.467 3.411-13.672 1.478-20.333-22.248-27.051-38.246-28.199l-7.435 8.645c11.247 1.465 28.26 3.688 25.738 19.945-1.614 10.401-10.499 19.385-17.254 26.933l-9.106 7.294c4.869 3.074 9.223 7.494 10.311 13.313 3.781 20.234-17.977 37.02-32.664 46.229-13.2 8.277-25.776 14.23-40.045 19.982-4.054 1.594-14.411 6.185-18.287 5.428l.005-.562c6.005-3.823 16.837-6.692 23.971-10.075 23.12-10.961 56.357-25.152 64.538-51.542 2.654-8.559-3.026-16.277-9.448-21.19-35.482 25.417-66.713 41-107.235 57.431-1.113 12.422-2.646 27.065-3.18 39.407 10.114 2.697 13.317 6.61 11.805 18.032-.951 7.186-11.556 10.284-12.816 12.781 2.432 1.765 5.701 2.37 8.701 3.942a364.3 364.3 0 0 0 58.013-25.48c8.125-4.477 20.5-13.359 27.851-16.362-18.789 19.277-59.223 34.265-83.826 44.273 6.377 14.095 1.417 20.285-11.481 25.37-3.262 1.286-2.755 3.762-2.833 6.814 50.799-10.979 141.259-48.225 170.534-93.272 6.463-9.944 10.852-21.695 8.349-33.63-2.201-10.499-10.171-18.74-18.955-24.345a72 72 0 0 0-12.085-6.144c-2.749-1.079-8.581-2.16-8.997-5.006l1.368-.829c.519.567.633.856 1.251 1.132 11.826 2.259 26.005 10.833 33.29 20.454 5.803 7.664 8.172 16.951 6.862 26.444-6.983 50.602-95.442 90.628-137.521 104.955-5.129 1.746-42.873 12.82-44.349 14.049-.895.746-.872.967-.962 2.056 1.683 2.127 6.573.454 9.435.463 46.569.14 112.405 7.093 99.047 70.338 1.631 1.424 4.911 4.16 4.644 6.286-1.045 8.301-6.765 19.474-9.826 27.163 3.587 1.597 5.641 2.591 9.014 4.571 5.488-5.593 11.621-11.773 20.381-9.299 6.933 1.958 9.027 10.454 6.477 16.562-3.427 8.207-12.183 12.353-19.8 15.848 5.766 2.667 6.287 2.916 9.861 7.988 7.561 1.636 11.523 6.188 17.414 11.241 9.194.45 17.928 3.156 24.955 9.147 15.173 12.938 17.358 30.843 18.634 49.468.216 3.16 1.018 11.969-1.435 13.68-10.905 7.606-36.625 10.051-48.632 9.851-37.592-.627-74.582-11.894-106.839-30.8-6.019-3.528-14.28-8.624-18.952-13.331.106-8.289 2.871-12.012 3.889-19.061 1.795-13.394 3.753-26.907 8.529-39.651 6.105-16.296 9.164-29.701 29.231-30.289 4.592-9.446 7.918-20.639 12.829-30.009 1.907-3.638 3.793-3.695 7.577-4.664 1.964-9.545 2.543-19.221-7.087-25.003-18.638-11.191-50.676-12.972-71.579-9.547-1.567 21.026-1.352 41.031-10.541 60.401-11.61 24.473-32.493 16.04-40.514-4.557-5.626-14.445-6.492-32.917-10.668-48.062-17.987 13.2-32.313 30.604-44.792 48.91.472.715 2.063 3.141 2.29 3.829 2.208 6.691-6.325 18.359-9.377 24.816l-.271.582c9.391 8.001 6.132 8.579 7.279 19.358 1.509 14.187 1.282 27.315 1.099 41.559-.075 5.902 2.25 15.438-.634 21.25-10.4 14.53-30.408 29.971-45.886 38.114a107 107 0 0 1-22.72 8.826c-23.53 6.141-54.905 5.904-76.98-5.728-9.812-5.171-8.222-13.999-7.472-23.463 1.265-15.941 5.966-31.502 18.806-41.906 4.933-3.998 9.201-5.087 14.505-8.211 1.545-.99 7.621-9.667 9.886-11.729 6.953-6.334 15.563-13.764 21.525-20.964l.331-.554c-5.424-1.678-9.776-3.966-12.748-9.058-4.29-7.351-2.261-18.398 5.774-22.223a12.46 12.46 0 0 1 9.839-.297c6.859 2.702 9.833 9.203 12.56 15.417 5.403-4.046 7.392-4.284 13.864-5.14 4.356-9.475 12.276-29.744 20.536-35.209 2.897-.345 3.789-.435 6.677-.209 15.732-25.454 34.321-44.484 58.014-62.557l-2.052-3.451c-14.2.385-28.54 1.139-42.662-.432 6.274-1.996 32.885-1.951 41.046-2.317-.8-13.89 3.396-15.225 14.045-21.632-1.495 0-3.207.005-4.69-.105a12.6 12.6 0 0 1-8.883-4.7c-6.218-7.843-1.633-17.817 5.466-23.286-1.637-7.925-3.137-15.208-5.016-23.114-8.275.934-42.755 7.706-48.712 3.507 2.303-1.306 11.48-1.312 14.612-1.6 10.874-.999 22.677-2.442 33.278-4.962a955 955 0 0 1-3.64-16.118c-21.004 5.472-50.715 9.138-72.311 7.988-11.899-.809-30.563-3.432-38.574-13.441-14.596-18.237 11.196-45.081 24.591-55.678-13.868.265-38.612 2.924-49.021 12.897 3.446 7.728 5.363 13.201.728 21.021 18.348 23.328 24.641 49.114-5.808 65.081-.29 3.982-1.167 7.106-2.907 10.616-6.193 12.495-19.188 22.22-33.69 17.668-4.982-1.564-7.931-3.926-11.975-7.023-15.517 5.394-24.136 1.071-33.397-11.468-24.965-6.537-25.41-34.636-16.008-54.057 9.342-19.299 21.711-32.636 42.072-40.008 1.561-18.619 16.969-20.305 32.102-18.904 24.609-23.838 64.036-27.245 96.585-23.176 5.455.681 10.927 1.909 16.403 2.353l.55.04c2.653-1.759 9.257-6.389 12.319-5.845-.731 2.609-5.99 5.277-8.404 6.759 8.384 1.651 22.776 6.244 30.675 9.265-.265-1.617-.491-3.994-1.651-5.01-4.085-3.578-9.358-6.499-13.635-9.761-10.544-8.042-17.427-16.003-24.958-26.565-25.868 6.647-51.855 2.525-41.052-31.349-1.976-4.058-3.955-7.998-5.63-12.195-1.404 2.55-4.096 11.294-5.81 12.048l-.561-.664c-.698-4.547 2.806-10.639 4.988-14.566a361 361 0 0 0-3.628-10.368c-2.083 3.157-4.424 10.724-6.543 11.767-1.935-4.099 3.478-12.134 5.888-15.438m100.04 138.451c-1.154-3.041-2.199-3.113-5.528-4.565-5.988-2.612-12.468-5.146-18.765-6.863-9.033 5.978-17.621 12.971-24.367 21.629-1.721 2.208-5.68 9.626-7.092 10.854l-.618-.39c-1.881-8.92 21.856-28.245 28.796-33.206-8.653-2.686-16.17-4.984-25.109-6.591-66.104 50.184-12.342 50.853 35.078 43.038 7.285-1.2 14.6-2.411 21.776-4.285a1161 1161 0 0 0-4.171-19.621m109.169-20.98c-.243 2.932-.544 6-.719 8.926 17.364-7.121 34.427-15.044 50.699-24.411 1.098-.632 3.169-1.175 4.428-.87-2.021 4.606-33.563 18.918-39.261 21.588-5.114 2.18-10.994 4.838-16.176 6.68-.372 4.606-.951 10.017-1.129 14.572 33.711-13.217 75.134-33.298 104.14-55.284-14.666-7.03-26.923-7.38-42.885-8.65-2.488.787-19.36 14.545-23.878 17.407-12.112 7.674-21.94 14.1-35.219 20.042m55.566-75.959c-11.041 1.779-22.105 3.5-32.977 6.159-3.5 7.403-6.005 12.464-10.508 19.475-2.073 3.228-7.426 10.594-8.737 13.486l.307.583.505.021c21.261-12.953 32.979-22.228 51.832-39.147l.09-.572zm49.031-4.663c-4.32 3.719-8.126 8.491-12.206 12.417-9.339 8.987-20.676 20.774-31.151 28.405 11.776.747 20.462 1.54 32.027 4.611 4.155 1.405 7.24 2.447 11.059 4.651 9.447-7.588 23.736-20.743 25.656-33.363 2.205-14.492-15.58-16.105-25.385-16.721M439.708 512.34a512 512 0 0 1-3.255-14.596c-17.905 4.694-67.716 13.088-84.707 3.711-3.214-1.774-4.47-3.668-6.202-6.685-.425-9.045 2.769-13.671 8.762-20.323 4.543-5.043 15.372-14.63 21.149-18.411-6.704-1.138-10.951-1.288-17.519-2.038-31.944 25.527-51.102 61.488 6.664 66.252 22.177 1.829 53.739-1.614 75.108-7.91"/><path fill="#aeaeb1" d="M519.775 271.692c6.529-.828 16.406-.266 22.828.475 28.713 34.85 34.285 90.908 9.139 129.003-2.225 4.079-9.136 11.426-10.031 15.793-3.04 14.826-3.088 32.687-4.713 47.611a740 740 0 0 1-98.578 29.898c-1.576-5.865-2.985-12.632-4.362-18.607 6.471 3.234 8.178 4.297 15.343 3.465 2.676-1.365 6.032-3.449 7.359-6.308 9.367-20.178-17.062-26.245-29.942-33.196-.584-2.299-.964-4.711-1.382-7.053-3.996-3.231-9.771-6.387-14.27-9.691-16.701-12.263-27.435-26.646-34.795-45.986 3.506-9.841 15.287-26.375 21.987-34.718 29.848-37.161 73.466-65.344 121.417-70.686"/><path fill="#010000" d="M455.262 364.606c3.47-.32 18.954 7.256 22.92 9.292 21.345 10.958 49.787 14.057 70.307-.319 1.653-1.158 5.583-4.862 7.09-5.295l.343.879c-1.289 8.331-20.292 14.027-27.468 15.569-2.87 7.023-4.212 11.835-4.144 19.352l5.339-2.629c1.204-.503 1.122-.463 2.433-.378l.307.613c-.869 1.848-3.98 3.488-5.745 4.551a83.2 83.2 0 0 1-31.903 11.261c-22.932 2.943-43.358-5.945-51.663-28.789-1.69-4.649-2.078-9.21-2.654-14.082-1.779 1.855-3.964 5.403-5.633 7.678l-.92-.142-.56-.94c.372-8.542 14.638-15.379 21.951-16.621"/><path fill="#fefefe" d="M452.238 368.131c10.715-1.33 24.297 9.57 35.954 13.067 14.97 4.49 21.06 5.881 36.765 4.156-1.088 3.744-1.908 6.114-3.353 9.737-3.07.561-9.685 1.484-12.053 3.271 2.45 1.391 9.033.322 11.882-.035l-.093 7.13c-10.748 6.899-22.42 9.074-34.915 9.971-8.326-.2-15.43-1.421-22.708-5.685a40.24 40.24 0 0 1-18.811-25.079c7.919 4.745 22.917 12.619 32.279 11.692l.287-.587c-2.455-2.675-11.75-4.489-15.71-5.854a80 80 0 0 1-8.816-3.699c-5.147-2.499-11.721-6.611-8.304-13.885 1.089-2.319 5.211-3.422 7.596-4.2"/><path fill="#010000" d="M495.416 303.374c3.156 1.445 5.693 6.907 5.555 10.204-.27 6.485-2.444 8.473-8.445 8.408 3.247 13.849 3.912 26.572-7.367 36.958 1.23 1.812 2.971 4.085 2.737 6.278-.811.53-1.119.863-2.065-.287-3.005-3.653-5.272-6.301-9.292-8.892a44.84 44.84 0 0 0-20.087-6.805c-2.491-.21-5.74-.007-8.012-.482l-.306-.981.716-.891c4.117-1.531 11.959-.066 16.196.991l-2.295-7.272c2.29-1.979 3.396-2.601 5.938-4.1l6.93-3.862c-4.759-2.13-9.704-3.744-14.38-6.129.814-7.333 1.781-11.455 6.16-17.511-18.62-5.463-17.916 3.821-24.75 4.637l-.461-.633c.086-.348.287-1.28.491-1.504 14.6-16.091 34.364-.703 49.102 6.373 1.759.845 3.863 1.086 5.582.283 3.242-4.871-3.155-10.048-1.947-14.783"/><path fill="#010000" d="M541.393 292.59c2.513-.108 5.921.183 7.341 2.543l-.359.862c-7.93 2.087-5.764-4.235-16.18 4.48l.453.17c7.873 3.015 11.625 8.021 14.919 15.363l-9.705 9.743c4.252.559 8.801 1.357 13.065 2.022.123 5.12-.189 9.341-.538 14.423 2.748-.573 9.071-2.374 10.745.328-1.584 1.039-7.572 1.882-9.744 2.536-6.837 2.059-12.317 6.556-16.655 11.917-.906 1.368-1.12 1.994-2.638 2.596l-.533-.614c.446-3.773 1.146-4.221 3.417-7.204-1.906-1.032-4.366-2.527-5.967-4.039-6.565-6.201-9.856-16.748-10.454-25.535-.115-1.703.19-1.41-.427-3.277-1.513.166-3.886.499-5.345.389-5.219-.395-6.791-12.404-2.972-14.953 1.561 2.594-.25 8.011 2.545 11.905.874.367 1.788.816 2.698.083 10.643-8.567 11.129-20.2 26.334-23.738"/><path fill="#010000" d="m517.028 421.386 1.052.587.148 1.357c-7.246 5.876-17.342 8.005-26.424 6.327-1.146-.6-.786-.298-1.523-1.361.754-1.277 3.267-.957 4.766-.863 9.205.577 14.079-1.883 21.981-6.047"/><path fill="#010000" d="m439.167 347.394.401.153c1.1 1.362.925.636.771 2.186-1.554 1.694-3.788 2.727-5.835 3.877l-1.024-.389-.38-.932c1.148-2.51 3.694-3.662 6.067-4.895"/><path fill="#f0772f" d="M353.661 217.399c14.67-20.794 40.325-35.954 65.055-40.755 33.487-6.501 59.703 13.194 77.998 39.329 3.882 5.546 8.193 12.564 13.119 17.181-5.44-14.451-21.106-32.94-32.816-43.281a106.93 106.93 0 0 1 68.561 40.659c-58.867 15.2-119.531 45.997-164.458 87.294-12.776 11.743-25.053 24.513-33.906 39.541a307 307 0 0 0-3.112 5.428c-2.013-3.636-3.95-7.192-5.172-11.192 7.478-12.507 12.858-19.515 23.83-29.586 6.43-5.902 15.209-13.318 20.984-19.647-9.89 3.578-26.507 20.058-33.443 28.117-3.708 4.309-9.164 12.103-12.531 16.929-1.337-3.243-2.494-5.853-3.362-9.261 2.783-6.383 7.06-9.15 9.628-15.197-5.408 3.27-6.99 4.904-10.962 9.896-5.288-22.109-5.806-41.097.457-63.077 9.627-33.785 46.664-61.953 82.196-47.94l-.007-3.046c-31.921-9.54-54.94 3.255-74.61 28.089 1.51-7.234 3.393-14.57 8.366-20.286 28.31-32.543 64.487-31.729 94.896-3.368l-.251-2.357c-1.211-1.402-1.71-2.067-2.579-3.696-5.744-6.094-18.878-12.808-26.934-15.308-23.851-7.4-42.248 1.426-60.947 15.534"/><defs><linearGradient id="a" x1="439.136" x2="435.072" y1="231.525" y2="236.498" gradientUnits="userSpaceOnUse"><stop offset="0" stop-color="#0f0504"/><stop offset="1" stop-color="#300b0b"/></linearGradient></defs><path fill="url(#a)" d="M415.72 218.791c14.463 4.072 36.486 19.357 43.791 32.427l.226.41c-4.972-3.109-9.028-7.312-13.396-11.213-7.869-7.03-20.233-15.842-30.614-18.578z"/><defs><linearGradient id="b" x1="455.387" x2="453.405" y1="232.195" y2="233.703" gradientUnits="userSpaceOnUse"><stop offset="0" stop-color="#1f0907"/><stop offset="1" stop-color="#020000"/></linearGradient></defs><path fill="url(#b)" d="M441.542 217.173c9.359 7.105 20.626 20.407 24.728 31.623-7.348-7.167-12.838-16.677-21.898-25.57l-.251-2.357c-1.211-1.402-1.71-2.067-2.579-3.696"/><path fill="#fefefe" d="M264.371 452.147c2.573-.26 5.651-.243 8.281-.094 13.996.794 33.415 12.469 32.858 28.162-.063 1.793-1.07 4.439-1.719 6.19-4.49-4.005-15.242-13.511-21.639-12.603l-.43.597c3.652 2.444 7.405 4.735 11.184 7.062 19.235 11.846 36.562 43.696 16.057 62.393-2.901 2.645-5.782 4.393-9.13 6.423-3.133-6.646-7.815-10.14-13.166-15.02 1.898-2.208 5.346-5.833 5.874-8.635l-.823-.021c-2.264 1.273-14.147 11.411-15.86 13.312 2.413 4.865 3.235 11.603 5.036 17.264 1.66-7.605.946-10.13-1.054-17.567 1.36-.977 3.09-2.006 4.525-2.915 3.149 3.196 6.605 5.607 9.576 9.109 8.257 9.729-2.402 23.805-10.6 29.971-17.607 10.615-31.852-.619-38.305-17.052-1.306-3.327-2.945-9.119-4.795-11.894l-.46.212c-1.273 7.839 5.254 18.873 9.348 25.125-27.488 12.503-33.074-26.487-36.479-28.403-1.301 4.409 1.819 11.785 3.406 16.221-5.44-1.994-10.525-6.21-13.231-11.103-15.85-28.671 16.448-72.242 45.047-78.607 3.07-.683 16.095-1.722 16.851-2.182l-.519-.825c-4.629-1.716-13.191-.423-17.924.414 2.032-10.603 7.896-13.982 18.091-15.534"/><path fill="#010000" d="M240.541 478.273c1.015.164.501-.027 1.485.702-.446 2.04-7.934 10.698-9.845 13.511-3.647 5.373-6.766 10.687-10.184 16.182l-.56.252-.382-.636c1.357-8.947 12.797-24.223 19.486-30.011"/><path fill="#010000" d="M256.908 476.86c.432.414.156.104.608 1.085-.637 2.25-3.222 5.892-4.591 7.973-5.009 7.616-8.911 15.683-13.367 23.621-.506-.425-.34-.421-.624-1.235.974-8.13 11.68-26.015 17.974-31.444"/><path fill="#010000" d="m269.778 481.864.575.864c-.289 2.244-11.227 26.63-12.795 28.942l-.628-.427c-.781-6.238 8.386-24.61 12.848-29.379"/><path fill="#fefefe" d="M691.055 287.617c11.232-5.094 8.799-9.093 12.664-11.561 1.531 1.603 2.15 6.597 3.285 8.893 5.986 12.111 28.296 7.539 31.765-4.007-1.738-.679-6.988 4.91-9.425 6.3a17.9 17.9 0 0 1-7.173 2.213c-19.067 1.706-16.635-20.567-5.909-29.481 5.404-4.491 9.606-8.654 17.401-8.49a14.12 14.12 0 0 1 10.357 4.716c4.392 4.933 4.744 10.831 4.476 16.985-4.597 26.955-32.539 62.358-63.205 53.651-2.532-.719-10.327-4.445-11.606-4.07l.223 1.013c5.024 5.354 12.286 6.479 19.225 7.461-1.774 10.773-6.767 13.421-17.871 12.131-14.889-1.728-49.698-29.709-27.599-43.249 5.503 7.815 8.64 12.729 17.686 16.337-7.124-9.268-14.262-12.698-18.47-25.061-5.563-16.34-2.564-36.825 18.32-39.729 7.777.145 28.248 8.743 32.757 14.85a10.8 10.8 0 0 1 1.983 8.466c-2.177 11.314-17.804 12.216-25.872 7.465-1.876-1.104-6.058-3.246-8.006-3.705l-.438.449c.124.975.041 1.377.946 2.146 6.914 5.872 13.492 6.406 21.749 6.783.239 3.937-.875 14.783.031 16.417 3.551-2.89 3.141-12.629 2.706-16.923"/><path fill="#f0772f" d="M582.417 227.729c1.839.063 6.957.282 8.494.654 33.41 8.077-21.265 56.244-31.526 65.186-2.507-4.377-4.295-7.69-6.482-12.248 2.134-3.003 3.825-5.483 5.169-8.972 1.399-3.634 2.427-7.669.836-11.413-1.132-2.663-4.432-4.901-7.033-5.67-20.068-5.927-60.959 9.1-79.097 17.309-37.808 17.112-76.497 43.135-101.479 76.561-6.034 8.074-10.885 15.212-14.439 24.695-5.017 17.578 8.158 19.268 21.653 15.722 1.158 1.928 2.287 4.208 3.342 6.221-13.494 3.75-37.912 6.278-39.401-14.288-1.035-14.298 12.829-33.056 22.096-43.118 42.894-46.577 100.81-79.637 160.726-99.01 18.551-5.942 37.758-10.687 57.141-11.629"/><path fill="#aeaeb1" d="M525.64 597.606c.737.036.328-.063 1.158.504-.193 9.101-1.51 19.006-2.182 28.186-1.161 15.877-1.479 31.849-5.115 47.392-5.506 23.534-21.598 44.664-39.601 14.533-4.318-8.604-10.532-41.225-11.721-51.871 11.846-7.399 22.48-15.997 10.667-29.858 15.419-3.313 30.595-5.255 46.794-8.886"/><path fill="#fefefe" d="M311.453 767.702c16.761-.718 33.715 7.421 43.754 20.664 7.11 9.379 10.143 17.858 12.613 29.097-14.403 5.885-24.485 8.144-39.695 9.502q-3.308.216-6.622.312c-15.698.339-38.793-2.773-50.629-14.201.355-24.191 16.173-43.104 40.579-45.374"/><path fill="#fefefe" d="m673.866 753.188.746-.026c28.536-.906 40.752 25.894 41.426 50.697-14.66 5.848-29.859 7.462-45.466 7.782-16.172-.046-27.447-1.267-43.213-4.818.723-28.285 17.728-50.433 46.507-53.635"/><path fill="#f0772f" d="M564.266 715.869c.844.839 2.91 5.853 4.446 7.79 7.43 9.374 14.185 10.629 25.038 11.822 6.97 25.723 14.752 31.486 37.239 44.389-4.459 10.79-5.04 14.875-6.684 26.255l-5.998-1.614c-22.071-7.003-50.923-18.762-68.277-34.435.777-16.072 6.892-39.906 14.236-54.207"/><path fill="#aeaeb1" d="m534.528 486.037.248.195c.86 2.404-2.164 33.178-2.461 38.453l-80.07 31.741c-1.961-7.277-3.521-15.287-5.099-22.707 16.879-4.639 26.333-6.817 43.22-13.082 2.533-1.016 12.076-4.533 12.919-7.029-3.562-.075-26.432 8.655-32.194 10.441a269 269 0 0 1-24.698 6.485c-1.246-5.121-2.296-10.523-3.381-15.698 32.882-8.149 59.919-17.081 91.516-28.799"/><path fill="#fefefe" d="M548.895 773.271c7.474 5.201 14.71 10.273 22.699 14.708 36.464 20.244 79.484 30.76 121.104 24.632 8.822-1.299 15.544-3.214 24.03-5.592.753 4.842 2.041 11.715-2.151 14.987-44.803 19.131-107.933 2.065-148.712-21.006-6.792-3.842-14.536-8.222-19.944-13.844.409-5.615.98-8.679 2.974-13.885"/><path fill="#fefefe" d="M418.683 784.348c1.081 1.411 1.118 3.336 1.092 5.256-.102 7.508-4.078 11.842-8.989 16.679-25.541 25.158-53.077 40.426-89.965 40.395-14.673-.013-38.303-2.503-49.126-13.194-2.418-4.661-1.709-11.174-1.273-16.28 16.819 10.02 32.408 13.285 52.078 12.715 38.91-1.129 69.841-17.669 96.183-45.571"/><path fill="#f0772f" d="M416.882 737.92c2.763 3.636 3.007 37.389.761 41.508-8.564 15.706-31.282 29.134-47.028 36.863l-1.546-5.346c-1.93-6.879-4.343-11.767-7.336-18.228 8.902-7.7 17.506-18.413 22.577-29.017 1.031-1.336 4.193-13.932 4.994-14.087 13.098-2.532 17.573-1.576 27.578-11.693"/><path fill="#aeaeb1" d="M533.932 527.045c13.521-.264 12.242 17.652 5.116 21.136-11.263 5.507-24.331 10.221-36.062 14.964l-29.005 11.782c-6.215 2.526-13.121 5.573-19.461 7.507-9.83.143-12.059-7.944-9.081-16.39.547-1.553 2.786-4.541 4.322-5.29 10.525-5.14 21.848-8.855 32.679-13.357 17.01-6.394 34.558-14.373 51.492-20.352"/><path fill="#aeaeb1" d="M540.028 562.571c3.346-.246 3.774 1.719 4.342 4.68 2.945 15.348-16.214 18.101-27.202 23.14-6.136 2.813-21.478 9.657-28.242 11.037-10.884 2.221-27.013 4.024-38.304 4.889-.978.113-2.126.095-3.127.115-2.674-1.921-1.041-8.322.447-10.443 4.502-6.281 16.586-9.148 23.483-12.275 22.068-10.003 45.323-14.364 68.603-21.143"/><path fill="#fefefe" d="M680.647 203.571c13.544-1.328 24.157 5.598 26.1 19.403-7.443 4.513-13.505 9.15-18.123 16.876-1.371 2.294-2.417 5.607-3.825 7.836l-.44.684q-1.277.66-2.597 1.228c-4.207 1.761-11.588.996-15.548-.827-10.449-4.81-6.208-22.712-2.092-30.412 4.108-7.684 8.528-12.171 16.525-14.788"/><path fill="#aeaeb1" d="M536.391 468.06c.547 3.258-.475 10.831-.894 14.158a697 697 0 0 1-78.733 25.93c-2.577.669-12.017 3.222-14.289 3.279l-.61-1.056c-1.142-4.024-2.01-8.714-2.875-12.851a822 822 0 0 0 97.401-29.46"/><path fill="#fefefe" d="M712.296 224.089c10.047-1.253 17.326 5.072 19.617 14.654.787 3.289.604 5.915.535 9.278-12.874 3.326-20.892 10.744-26.433 22.732-.19.468-.791.984-1.193 1.407-2.767-.314-1.986-2.858-3.459-5.796-2.336-4.658-9.503-7.927-14.039-10.625.04-14.507 11.486-27.439 24.972-31.65"/><path fill="#fefefe" d="m599.579 671.417 3.162 3.048c-3.454 10.653-9.208 18.568-10.918 30.507 5.507-7.775 9.193-19.979 13.245-29.054 2.118.866 4.044 1.809 6.102 2.796-2.6 7.596-9.435 19.978-9.549 27.161l.433.049c4.354-6.95 7.94-18.337 11.77-26.276l7.009 1.431c-2.476 7.84-6.447 16.684-9.345 24.745-6.423 5.321-11.251-.193-18.317 4.953-9.538 6.945-.8 19.277-.963 21.184-5.91.688-12.326-9.894-10.772-15.127 4.501-15.157 12.04-30.741 18.143-45.417"/><path fill="#f0772f" d="M596.797 735.636c8.678 2.772 14.057 2.405 23.073 2.346-4.008 3.136-14.657 8.154-12.136 14.26 3.73 9.034 13.149-3.057 19.21-4.067 1.788.473 1.065.017 2.268 1.375-.439 2.316-14.723 9.876-9.63 16.543 2.964 3.88 8.19.041 10.469-2.238 2.394-2.256 4.108-3.433 6.789-5.331l6.953 4.247c-4.95 5.344-7.501 8.041-11.196 14.258-16.692-7.283-34.194-21.922-35.8-41.393"/><path fill="#f0772f" d="M368.033 767.845c3.302 2.438 6.311 3.77 9.041-.371 5.321-8.071-11.243-12.43-11.96-18.104.852-1.712.216-1.188 1.781-1.833 6.748 2.271 11.746 2.684 18.896 2.408-4.07 16.456-12.317 29.513-25.909 39.876-3.73-4.512-7.013-8.832-11.667-12.4-1.918-1.47-2.517-1.523-2.871-3.327.759-1.441.633-1.458 2.052-2.192 5.3 1.163 10.938 13.39 17.485 10.912 2.231-.845 3.748-6.445 2.136-8.456-.999-1.246-2.31-2.447-3.552-3.536-.546-.276-8.006-6.206-9.915-7.438l4.878-5.069c4.369 2.588 6.43 5.617 9.605 9.53"/><path fill="#fefefe" d="m418.636 698.273.18.096.175.858c-4.815 8.666-14.814 32.132-19.367 39.043.981-9.626-1.229-12.391-9.634-16.003l5.732-12.642c1.538-3.633 3.488-7.622 5.155-11.24 2.757.073 5.379.459 8.113.797-1.531 3.875-9.919 20.381-8.668 23.442 2.582-2.157 9.665-19.076 11.726-23.519 2.046-.374 4.493-.591 6.588-.832"/><path fill="#fefefe" d="M602.224 710.651c6.228-.762 21.843 8.194 23.494 14.214l-.584.596c-4.527-.414-9.685-5.659-14.214-7.718-13.827-6.285-20.091 5.479-5.314 10.971 7.909 2.236 12.585.264 19.748 1.243.579 1.206.477 1.197.414 2.564-1.288 1.511-4.716 1.725-7.231 2.392-12.644 3.352-33.635-4.047-25.332-20.104 1.385-2.68 5.692-3.826 9.019-4.158"/><path fill="#fefefe" d="M380.797 724.657c5.979-.581 14.975.292 15.937 6.818 3.019 20.492-24.272 18.34-35.442 10.273-1.531-1.106-2.427-1.66-2.699-3.218 3.054-.84 6.324.947 9.257 2.186 7.278 1.811 21.496 4.632 23.802-5.933.17-.78-.164-2.607-.934-3.011-8.95-4.693-20.255.272-29.355 2.178-.905.189-.683.056-1.423-.527 1.525-5.38 15.992-8.057 20.857-8.766"/><path fill="#fefefe" d="M328.074 702.577c10.243-1.218 14.658 6.519 17.939 15.04 1.082 2.808 3.144 8.474.22 10.426l-.9-.207c-1.799-4.367-8.614-23.678-16.482-18.577-2.054 1.332-2.593 4.64-2.788 6.974 2.536 9.71 9.605 10.335 16.226 15.823l.073.945c-1.299 1.166-.554.763-2.383 1.111-10.525-4.269-23.601-9.747-18.972-24.365 1.169-3.691 3.739-5.466 7.067-7.17"/><path fill="#fefefe" d="M655.747 700.547c7.828-.503 11.514 3.537 11.067 11.313-.492 8.57-17.349 17.961-24.906 17.23l-.713-.956.189-1.358c2.946-2.072 8.427-3.499 11.491-5.305 2.717-1.601 3.983-2.79 5.813-4.489 1.184-1.759 4.795-8.661 1.421-9.741-8.881-2.84-17.443 10.155-21.226 16.324l-2.557-3.144c5.671-9.111 9.219-15.786 19.421-19.874"/><path fill="#fefefe" d="M355.995 714.618c9.659-1.504 18.423 1.524 25.765 7.703-4.387.298-6.808.894-11.077 1.922-4.911 1.73-7.53 2.634-12.119 5.075l-7.722-3.674-.327-6.172c1.912-2.494 2.842-3.194 5.48-4.854"/><path fill="#f0772f" d="M610.714 709.888c6.434-3.955 13.951-5.604 21.385-3.964 9.648 3.81 5.944 6.923 1.952 13.702l-5.802 1.285c-3.883-2.499-6.618-4.587-10.275-7.444-2.077-1.212-5.034-2.518-7.26-3.579"/><path fill="#cd541f" d="M610.714 709.888c6.434-3.955 13.951-5.604 21.385-3.964-5.833.23-12.23 1.212-14.125 7.543-2.077-1.212-5.034-2.518-7.26-3.579"/><path fill="#fefefe" d="M314.824 753.369c18.047.539 34.041 7.484 46.955 20.042l-2.537 4.345c-12.978-10.252-24.277-18.438-41.709-20.008-1.635-.147-3.032-.281-4.126-1.555.012-1.715-.01-1.155 1.417-2.824"/><path fill="#f0772f" d="m578.288 702.575 5.424-.36c-5.494 12.516-7.901 16.226-.524 28.663l-4.755-1.731c-12.269-8.344-17.118-20.588-.145-26.572"/><path fill="#fefefe" d="M658.78 742.193c2.371.111 4.406.454 6.093 2.281l-.092.94c-2.775.949-9.985 2.267-12.536 3.055-10.795 3.335-17.483 7.93-25.925 15.024-.988.875-1.404.904-2.647 1.432-1.469-.366-.896.034-1.726-1.308-.721-10.799 28.106-20.424 36.833-21.424"/><path fill="#fefefe" d="M641.009 735.183c3.664-.447 10.553-1.371 12.786 1.903-.812 1.739-3.808 1.716-5.976 1.85-10.3.632-19.021 4.367-27.968 9.451-2.65 1.865-5.71 4.759-8.938 2.979-1.33-8.919 23.261-15.316 30.096-16.183"/><path fill="#fefefe" d="M327.766 742.072c13.59.697 26.435 4.471 37.73 12.471 2.429 1.72 5.813 4.271 6.225 7.162-1.017 1.613-.688 1.741-2.037 2.05-7.42-7.078-15.962-11-25.423-14.587-4.766-1.807-17.627-2.345-19.457-4.342.575-1.436 1.631-1.878 2.962-2.754"/><path fill="#f0772f" d="M412.399 718.706c1.704.809 4.939 4.219 5.311 6.045 1.99 9.757-8.25 17.185-15.958 19.907-2.248.328-3.221.637-5.391.184.247-1.088 5.519-4.502 6.868-6.838 3.539-6.13 5.942-12.975 9.17-19.298"/><path fill="#fefefe" d="M391.259 695.208c2.562.547 4.722 1.529 7.151 2.505a2077 2077 0 0 0-10.925 24.442c-3.141-.042-4.348-2.581-6.75-4.688a755 755 0 0 1 10.524-22.259"/><path fill="#fefefe" d="M383.702 689.186c2.543 1.459 3.398 2.357 5.493 4.309-1.559 3.895-8.798 19.428-10.826 22.763l-6.707-2.931c3.886-8.211 7.617-16.198 12.04-24.141"/><path fill="#fefefe" d="M625.315 681.228c1.984-.098 2.747-.129 4.706.073l.453.772c-1.276 5.395-5.201 15.017-7.41 20.529-.393.983-2.337.887-3.68 1.045-1.808.333-2.495.412-4.333.522.442-3.468 6.561-17.45 8.189-21.71.422-1.103 1.063-.991 2.075-1.231"/><path fill="#fefefe" d="M350.261 761.611c-3.201-2.845-12.088-6.352-16.31-7.628-2.188-.661-5.738-1.062-7.468-2.243.582-1.499.95-1.507 2.271-2.654 6.164-1.298 20.896 4.538 26.72 7.856 1.653.429 1.558.387 2.954 1.373l-4.878 5.069c-2.25-.687-2.355-.279-3.289-1.773"/><path fill="#22130e" d="M355.474 756.942c1.653.429 1.558.387 2.954 1.373l-4.878 5.069c-2.25-.687-2.355-.279-3.289-1.773l1.477-.147c1.848-1.14 2.546-2.659 3.736-4.522"/><path fill="#fefefe" d="M379.649 682.34c1.033 1.317 1.443 3.157 1.951 4.798-2.353 4.921-10.216 22.486-12.675 25.45l-1.064.049c-1.442-.319-1.735-.288-3.011-1.068.243-3.776 11.996-25.075 14.799-29.229"/><path fill="#aeaeb1" d="m530.368 555.599.284.262.01.741c-3.542 2.85-40.062 16.285-46.308 18.826-4.424 1.8-20.191 8.29-24.655 9.82l-.4-.625c1.422-1.728 64.436-26.944 71.069-29.024"/><path fill="#fefefe" d="M316.668 760.372c6.945.174 22.29 5.004 27.27 9.247.189 1.525-.447 1.796-1.523 3.487-11.171-5.7-16.045-7.193-28.415-8.312z"/><path fill="#fefefe" d="M661.003 749.143c1.341.114 3.374 1.294 3.893 2.588l-.553.501c-9.552 1.673-12.531 6.334-18.641 8.706-2.115-1.304-4.165-2.804-6.2-4.238 7.337-3.492 13.44-6.431 21.501-7.557"/><path fill="#fefefe" d="m638.568 679.084.381.631c-.411 2.777-7.18 21.727-8.894 23.582l-2.958-.057c-.763-.363-.447-.073-.851-.964.94-4.629 5.997-16.361 7.869-21.244.417-1.088 3.183-1.614 4.453-1.948"/><path fill="#fefefe" d="M330.692 710.698c5.519 1.265 10.416 10.879 10.974 16.164l-.792.786c-6.351-2.51-16.526-9.464-10.182-16.95"/><path fill="#fefefe" d="M350.246 728.988c9.012.077 8.703 6.84 2.896 11.83-9.466-.717-10.933-7.44-2.896-11.83"/><path fill="#fefefe" d="M632.383 722.458c4.008.567 7.464 4.678 4.848 8.489-1.083 1.577-3.28 1.936-5.024 2.432l-1.188.13c-3.113-1.308-3.411-6.211-2.453-9.129 1.242-1.39 2.02-1.418 3.817-1.922"/><path fill="#fefefe" d="M654.99 709.464c1.644-.149 1.855-.333 3.283.49 1.693 4.989-8.354 10.161-11.967 11.778-1.756.496-1.141.692-2.387.183-.238-3.764 7.993-10.521 11.071-12.451"/><path fill="#fefefe" d="m380.535 732.16.718.493c1.006 8.724-8.069 6.977-13.149 5.219-1.445-.558-2.074-.483-2.73-1.522 2.45-2.516 11.552-3.814 15.161-4.19"/><path fill="#aeaeb1" d="M526.535 589.46c.497.101.164.003.912.501.065 2.208.389 1.868-.564 3.472-4.22 2.667-14.045 3.963-19.273 4.942l-.731-.092c.747-1.143 16.959-7.687 19.656-8.823"/><path fill="#f0772f" d="M608.248 719.786c2.338.949 10.818 5.12 11.411 7.262-5.135.307-7.326.22-12.32-.784z"/><path fill="#fefefe" d="m646.446 741.657 1.434.13c-1.045.8-13.587 5.738-16.111 6.961l-2.026-2.12c2.203-2.551 13.333-4.401 16.703-4.971"/><path fill="#fefefe" d="M356.05 741.972c1.804.686 5.532 2.829 6.938 4.255-.148 1.467.027.748-1.479 2.148l-1.156-.243c-2.77-1.332-4.755-2.027-7.644-3.048l-.464-1.133.172 1.003-.238-.954-.258.006c1.493-.907 2.519-1.33 4.129-2.034"/><path fill="#fefefe" d="M384.381 732.655c2.344.451 3.429.365 4.186 2.78-.419 1.818-.942 2.106-2.269 3.407-2.268.477-2.127.87-3.595.002-.325-1.781.972-4.365 1.678-6.189"/><path fill="#f0772f" d="m310.494 758.82 2.127 1.149c.78 1.46.666.693.23 2.392-1.481 1.766-1.561 1.791-3.628 2.766-1.42-.018-1.947.153-3.085-.639l-.072-1.02c1.004-1.817 2.847-3.221 4.428-4.648"/><path fill="#fefefe" d="M602.27 718.344c2.212.328 1.888-.088 2.993 1.214.6 2.598-.233 4.079-1.581 6.379-1.855-1.282-3.336-2.268-3.547-4.659.442-1.732.769-1.769 2.135-2.934"/><path fill="#fefefe" d="M419.099 689.351c1.582 1.355 2.026 2.101 1.655 4.098-1.267 1.618-1.992 1.652-4.037 2.374l-1.087-.313-.387-.72c.598-2.025 2.419-3.768 3.856-5.439"/><path fill="#aeaeb1" d="m536.233 559.055.674.145.265.527c-1.706 1.266-11.673 3.848-14.501 4.654l-.677-.068.344-.455c3.623-1.755 9.97-4.391 13.895-4.803"/><path fill="#fefefe" d="M383.703 678.364c2.052.062 1.997-.311 3.077.765.036 1.694-1.61 3.955-2.545 5.537l-.534.08c-1.913-2.159-1.742-4.256.002-6.382"/><path fill="#fefefe" d="M341.561 736.918c1.119 1.406 2.473 2.852 3.003 4.52l-1.167.082c-1.55-.309-3.117-.371-4.142-1.444.339-1.61.947-1.744 2.306-3.158"/><path fill="#fefefe" fill-opacity=".945" d="M655.007 362.757c15.998 1.148 39.724 7.866 38.246 28.199-.378 5.205-1.635 8.772-3.411 13.672-5.799 10.653-10.839 16.893-19.298 25.511l-1.368.829c-6.835-1.703-9.977-10.954-13.12-12.688 6.755-7.548 15.64-16.532 17.254-26.933 2.522-16.257-14.491-18.48-25.738-19.945z"/><path fill="#010000" d="m720.842 505.38.491.545c.364 1.946-.022 2.764-.837 4.506-8.315 17.782-24.632 31.656-40.989 41.845-4.089 2.546-9.816 5.954-14.27 7.532l-.416-.602c.329-1.756 11.512-7.851 13.92-9.443 13.19-8.721 25.783-18.659 34.719-31.915 2.706-4.015 4.763-8.4 7.382-12.468"/><path fill="#010000" d="M190.897 496.927c.431.484.776.647.412 1.45-3.575 7.899-6.432 15.539-7.717 24.168a57.23 57.23 0 0 0 4.236 31.58c.984 2.229 3.449 6.838 3.683 8.819l-.658.76c-8.875-8.495-11.67-28.665-10.132-40.254 1.042-7.853 3.716-21.301 10.176-26.523"/><path fill="#010000" d="M694.976 190.645c14.876-1.356 31.102 9.785 39.332 21.483 1.656 2.356 3.864 5.685 3.355 8.55-7.359-7.361-9.133-14.127-20.25-21.194a42.6 42.6 0 0 0-10.356-4.744c-2.882-.894-11.257-2.107-12.393-3.036z"/><path fill="#010000" d="M573 209.214c6.629.114 23.537 1.546 26.8 8.328-2.33.609-10.146-3.39-13.424-4.223-6.998-1.708-15.31-1.727-22.423-.437-3.062.555-5.378 1.795-8.503 1.657l-.384-.528c2.558-3.835 13.64-4.502 17.934-4.797"/><path fill="#010000" d="m637.379 232.812.509.491c-.074 1.745-8.243 14.307-9.164 19.61-1.564 9.005-.113 12.769.007 20.786l-.87.615c-6.827-10.842-.527-34.059 9.518-41.502"/><path fill="#010000" d="M169.503 518.752c2.216 1.914-.417 13.575.389 17.624 1.207 6.061 3.602 11.556 5.003 17.389l-.555.884c-6.853-7.196-9.795-27.346-4.837-35.897"/><path fill="#010000" fill-opacity=".984" d="m689.842 404.628 1.707-2.334.598.166.535 1.565c-4.076 8.513-12.512 22.469-20.887 27.246-.618-.276-.732-.565-1.251-1.132 8.459-8.618 13.499-14.858 19.298-25.511"/><path fill="#010000" d="M722.292 190.448c9.376-.958 18.285 13.041 19.601 21.309-2.847-1.823-6.702-10.454-9.721-13.298-3.179-2.995-6.862-5.078-9.88-8.011"/><path fill="#010000" d="M620.726 240.208c.756.328.335.096 1.204.793-.333 2.718-2.869 6.75-3.68 10.5-.986 4.565.003 9.981-.863 13.578-5.205-5.207-1.522-20 3.339-24.871"/><path fill="#010000" d="M573.616 197.14c6.212-.436 19.961.466 22.375 7.411l-.762.248c-12.376-5.982-10.167-4.751-22.955-5.874l-.153-.591z"/></svg>