<svg xmlns="http://www.w3.org/2000/svg" width="1024" height="1024" viewBox="0 0 1024 1024"><path d="M364.379 248.361c2.399-3.991 6.709-8.596 8.273-11.515 3.332-6.421 6.186-12.857 9.721-19.2 16.946-30.41 51.402-51.218 86.113-52.609 9.922-.398 25.611.671 34.44 5.66 6.3 2.915 16.527 10.034 20.908 15.223 7.752 9.182 11.861 8.115 21.183 13.286 11.713 5.479 26.857 19.987 32.92 31.196 1.868 2.258 3.61 5.27 5.189 7.79 14.751-1.497 61.879-5.787 63.244 15.997 1.549 24.708-34.244 46.235-52.723 56.82 9.279 42.588 5.319 87.643-36.618 110.847-.818 10.818-3.351 29.741 1.103 39.562 2.145 4.732 24.293-1.797 29.201-2.335 11.153-1.222 23.311-4.833 34.755-4.059 13.717.925 12.094 19.388 2.638 25.569-12.223 7.99-26.363 7.554-39.893 10.588 4.717 6.587 6.064 8.861 6.409 17.171 13.207 14.195 26.904 22.24 43.455 6.192a40.6 40.6 0 0 0 5.787-6.885c-3.83-11.525-3.282-19.767 6.012-28.256-6.537-18.893 1.751-20.987 2.883-37.25.915-13.142-14.084-36.105 7.939-43.669 10.161-3.483 16.977 1.915 22.364 10.33 7.264-21.901 4.727-32.396 30.834-29.889 2.86.274 6.775-.14 9.807.124q7.743-.135 15.48-.466c2.251-.04 5.191.039 7.366-.124 45.159-3.393 29.917 17.909 20.967 47.364 15.166 7.977 15.901 22.475 3.872 33.995 6.973 12.79 4.045 23.136-7.64 31.543 7.841 21.284-5.719 31.54-24.473 36.111-1.239 4.585-2.672 13.914-7.277 16.205-4.354 2.165-65.858-2.249-75.413-3.8-22.402 20.074-46.25 17.198-70.248 1.944-6.267 9.398-15.475 12.814-26.312 13.415-1.823 1.252-7.418 4.64-8.356 5.915 4.7.617 8.583.931 11.66 5.075 5.126 6.905 3.355 18.073-4.126 22.57-3.564 2.143-7.424 3.273-11.199 4.713q-.722 4.358-1.257 8.743c29.862 34.844 44.389 56.059 44.795 105.135 2.583-.354 4.754-.64 7.378-.808l-2.471 32.547c20.952-3.65 19.095 9.818 20.177 25.389 7.966-.565 10.948-.873 14.857 6.872 4.239-.348 6.007-.558 10.157.897 1.582 1.891 3.388 4.383 5.531 5.475 4.314 2.2 9.378 1.916 14.085 2.988 16.274 3.707 27.957 15.063 33.792 30.508 3.351 8.868 5.325 19.732 4.602 29.228-.202 2.663-1.106 6.945-1.723 9.584-28.14 10.944-95.856 8.548-126.281 5.202a309 309 0 0 1-33.647-5.526c-20.814-4.443-25.598-2.942-18.745-25.576.568-4.745.215-9.496.76-14.257 1.798-15.7 5.438-30.665 11.48-45.299 4.825-11.688 3.031-18.95 18.678-18.618.404-5.429 2.665-37.168 4.455-40.096 2.329-.576 4.831.422 7.195 1.109-1.318-23.405-4.318-41.966-19.159-61.436-1.695 12.193-3.332 29.022-6.167 40.586-3.131 12.771-24.401 13.11-34.333 11.349-18.31-2.257-16.901-22.324-20.073-36.722-9.598 16.553-19.091 30.504-32.228 44.532 2.494 2.452 5.361 5.143 7.627 7.754-3.359 3.674-9.307 8.343-13.31 11.662 3.022 4.329 3.474 5.35 3.94 10.822.727 2.603 1.407 5.27 2.349 7.797 1.725 1.374 3.405-2.583 5.731-4.271 4.857-3.557 10.376-6.573 16.523-6.844 14.81-.652 16.709 19.842 7.155 27.545-6.278 5.063-16.192 2.892-23.643 1.948-1.09 1.24-2.205 2.817-3.211 4.153.886 1.461 5.067 10.253 5.37 10.527 6.046 5.446 6.088 11.235 10 17.889 1.447 2.463 5.179 5.797 7.474 7.492 6.917 5.11 11.166 12.091 13.681 20.215 2.933 9.216 2.332 18.036 2.299 27.513-.008 2.286.951 5.107.381 7.227-1.287 4.784-4.125 9.951-6.459 14.319-3.3 1.038-8.255 1.869-11.78 2.177-33.363 2.917-71.677-6.348-97.948-27.472-12.781-11.346-18.294-22.125-29.711-35.555-8.608-10.124-28.581-25.393-32.649-38.929-.63-2.096 5.51-16.366 6.891-17.225 6.715-4.179 8.957-8.492 13.898-14.767a253 253 0 0 1 17.01-19.625c7.852-8.079 21.119-20.531 33.356-21.023 4.184-.168 6.367 1.783 9.022 4.591 6.627-5.899 30.262-25.679 37.427-29.405l2.358 4.329c13.104-15.211 27.329-37.65 34.058-56.541a108 108 0 0 1-2.532-.459c-9.429-1.852-12.371-10.001-10.218-18.848 1.922-7.898 7.693-9.477 14.088-13.073-2.402-.219-6.503-.536-8.613-1.354a9.36 9.36 0 0 1-5.35-5.271c-2.184-5.328-.699-12.138 1.486-17.268-16.637 5.367-33.588 10.951-51.322 7.404-28.807-5.763-24.235-35.127-13.464-54.624 13.43-24.308 33.882-46.032 57.35-60.935l-2.941-21.367c-24.942-14.074-35.933-25.467-46.43-52.274-29.403 2.72-57.892-5.445-38.143-40.545-.874-2.515-1.121-3.358-1.528-5.98l-.289-.942c-5.432-18.198-5.855-48.792-.688-67.184 2.272-8.085 4.647-13.257 8.652-20.537m46.588 295.505 6.156-.45c15.466-2.643 24.862-6.828 39.236-12.398-.587-4.395-5.364-39.008-6.398-39.993-15.268 11.173-34.93 33.935-38.994 52.841"/><path fill="#f1762e" d="M364.379 248.361c2.399-3.991 6.709-8.596 8.273-11.515 3.332-6.421 6.186-12.857 9.721-19.2 16.946-30.41 51.402-51.218 86.113-52.609 9.922-.398 25.611.671 34.44 5.66 6.3 2.915 16.527 10.034 20.908 15.223 7.752 9.182 11.861 8.115 21.183 13.286 11.713 5.479 26.857 19.987 32.92 31.196.043 2.452 3.134 6.605 4.844 8.287 3.474.475 9.916-.666 13.561-.962 5.22-.424 22.187-.242 26.497.947-1.222.588-2.848.373-4.54.717-16.47.245-28.757-.069-45.901 2.24-71.314 9.602-147.244 34.784-199.345 86.429-5.085 5.04-10.559 11.978-14.269 17.961-.341-2.086.558-7.411-2.08-8.997l-.289-.942c-5.432-18.198-5.855-48.792-.688-67.184 2.272-8.085 4.647-13.257 8.652-20.537"/><path fill="#0d0505" d="M545.017 199.206c11.713 5.479 26.857 19.987 32.92 31.196.043 2.452 3.134 6.605 4.844 8.287 3.474.475 9.916-.666 13.561-.962 5.22-.424 22.187-.242 26.497.947-1.222.588-2.848.373-4.54.717-16.47.245-28.757-.069-45.901 2.24-71.314 9.602-147.244 34.784-199.345 86.429-5.085 5.04-10.559 11.978-14.269 17.961-.341-2.086.558-7.411-2.08-8.997l-.289-.942c-5.432-18.198-5.855-48.792-.688-67.184 2.272-8.085 4.647-13.257 8.652-20.537 3.328-.514 3.677-7.202 8.457-8.13-3.787 5.274-6.069 9.243-9.105 14.97-12.171 22.961-12.202 60.124-3.935 84.542q2.002-2.7 4.099-5.327c47.203-58.382 144.536-88.146 216.358-96.104-7.56-14.957-21.596-28.786-35.876-37.414z"/><defs><linearGradient id="a" x1="417.559" x2="484.833" y1="179.903" y2="254.986" gradientUnits="userSpaceOnUse"><stop offset="0" stop-color="#040101"/><stop offset="1" stop-color="#1d0e0f"/></linearGradient></defs><path fill="url(#a)" d="M364.379 248.361c2.399-3.991 6.709-8.596 8.273-11.515 3.332-6.421 6.186-12.857 9.721-19.2 16.946-30.41 51.402-51.218 86.113-52.609 9.922-.398 25.611.671 34.44 5.66 2.326 3.512 13.575 7.001 14.483 12.01-17.902-13.488-34.461-18.235-56.814-14.751-37.182 5.796-64.934 26.815-80.706 60.393 6.621-5.953 9.97-12.482 15.063-19.668 10.833-15.284 27.957-25.96 47.106-24.837 27.691 1.625 44.211 24.577 56.307 46.888 1.49 2.75 4.669 7.806 3.75 10.888l-.687-.027c-2.1-2.275-7.568-13.095-9.353-16.551-17.309-33.516-54.589-54.072-86.17-24.645-2.547 2.373-14.737 15.414-13.95 18.535l1.261.575.319 1.794c-5.829 4.147-10.888 7.88-15.848 13.169-1.721 1.835-3.282 4.14-4.851 5.761-4.78.928-5.129 7.616-8.457 8.13"/><defs><linearGradient id="b" x1="437.813" x2="438.798" y1="205.316" y2="236.417" gradientUnits="userSpaceOnUse"><stop offset="0" stop-color="#0b0404"/><stop offset="1" stop-color="#3c1b1a"/></linearGradient></defs><path fill="url(#b)" d="M391.955 218.932c18.287-10.262 34.43-17.674 56.25-12.101 13.078 3.341 30.424 16.271 36.783 28.167q.632 1.198 1.148 2.451l-.62-.426c-5.112-3.557-9.036-8.827-13.59-13.095-25.547-23.944-50.453-19.052-78.391-2.627l-.319-1.794z"/><defs><linearGradient id="c" x1="540.24" x2="528.113" y1="199.006" y2="214.685" gradientUnits="userSpaceOnUse"><stop offset="0"/><stop offset="1" stop-color="#2c1b18"/></linearGradient></defs><path fill="url(#c)" d="M502.926 170.697c6.3 2.915 16.527 10.034 20.908 15.223 7.752 9.182 11.861 8.115 21.183 13.286l-.64 1.692c-3.738-1.811-6.442-2.845-10.364-4.279 4.884 8.924 16.914 26.206 17.625 36.069l-.425.389c-2.104-2.325-6.11-11.462-7.817-14.778-7.519-14.604-13.827-24.498-25.987-35.592-.908-5.009-12.157-8.498-14.483-12.01"/><path fill="#f1762e" d="M358.784 346.021c3.71-5.983 9.184-12.921 14.269-17.961 52.101-51.645 128.031-76.827 199.345-86.429 17.144-2.309 29.431-1.995 45.901-2.24 31.784 2.25 32.368 19.823 13.254 40.872-9.938 10.945-24.821 21.981-38.4 28.177l-4.632-12.061c6.656-7.207 20.013-23.002 8.183-31.46-13.143-9.396-41.697-3.433-57.192-2.462-59.837 8.395-123.338 31.985-163.139 79.442-3.838 4.576-9.759 14.222-8.918 20.318 1.337 9.698 18.097 9.344 25.362 9.574.931 3.192 1.857 6.266 2.591 9.512-25.657 1.512-52.355-1.458-36.624-35.282"/><path fill="#424243" d="M720.323 379.049q7.743-.135 15.48-.466c3.677 3.712 19.822 1.59 25.949 2.175 1.253.541 2.739 1.563 3.401 2.739.79 1.883-.648 6.398-1.223 8.175-3.07 9.487-6.257 18.888-9.406 28.343-.424 1.273-1.006 1.463-2.043 2.028-1.775-.403-1.058.032-2.236-1.335-.904-3.069 4.741-17.564 5.584-23.411l.105-.749c-21.9-.029-43.951-.937-65.932-1.016-7.987 23.225-14.56 48.678-22.261 72.32-3.342 10.258-10.532 31.862-12.357 41.403 6.83 1.058 16.46 1.458 23.529 1.979l32.97 2.635c4.965.373 12 .133 16.285.951-1.272 4.515-2.325 9.35-4.001 13.721-.961 2.506-2.234 4.683-4.836 5.721-5.356 2.135-66.152-2.235-71.78-4.851-3.447-4.459 4.347-22.248 6.166-28.049l14.441-47.482 15.159-48.415c9.881-30.939 5.462-23.428 37.89-24.548 1.006-.92 3.056-.661 4.754-.732l.239-.348c-2.64-.437-2.943.238-5.877-.788"/><path fill="#0d0505" d="M720.323 379.049q7.743-.135 15.48-.466c3.677 3.712 19.822 1.59 25.949 2.175-4.106.613-15.997.361-20.757.331-5.376-.033-14.756.275-19.788-.172 1.006-.92 3.056-.661 4.754-.732l.239-.348c-2.64-.437-2.943.238-5.877-.788"/><path d="M682.921 514.529c12.099-.834 15.041 9.806 5.173 14.894-12.641 1.599-14.869-9.737-5.173-14.894"/><path d="M713.407 388.193c4.239-.264 18.527-1.268 21.404.859l.055 1.427c-3.763.103-19.589 1.175-21.777-1.008z"/><path fill="#fefefd" d="m442.232 746.214 2.507-10.661c.727 2.603 1.407 5.27 2.349 7.797-1.519.239-3.511 1.911-4.856 2.864"/><path fill="#adaeb2" d="M530.343 276.708c14.529-1.335 33.471 2.783 47.623 6.1 19.904 35.667 26.838 80.205 2.487 115.945-6.637 9.742-15.038 15.817-25.014 21.742-1.701 11.694-.965 27.347-3.084 38.974-16.392-.39-21.905 8.091-33.082 18.083-2.435 2.176-8.19 5.388-11.176 7.427-6.508 4.446-10.807 8.806-15.969 14.714-19.218-.525-26.357 10.244-28.248 27.735-1.451.715-3.276 1.457-4.785 2.12-1.027-4.486-1.836-10.772-2.575-15.434a704 704 0 0 0-4.134-25.124c2.381-1.87 8.922-6.244 10.302-8.233 9.381-13.521 1.592-28.123-14.863-25.841-.656-4.792-1.971-10.786-2.159-15.504 1.095-1.547 1.315-1.254 3.351-2.174l-.011-.679c-2.819-2.389-7.265-3.88-10.585-5.674-29.497-15.945-40.407-42.183-45.416-73.649a233 233 0 0 1 10.473-13.289c32.165-37.853 77.009-63.178 126.865-67.239"/><path d="M552.325 304.551c11.226-.997 16.687 2.665 20.944 13.045a404 404 0 0 1-10.065 9.479 311 311 0 0 1 12.102 4.338c-.496 9.263-.664 13.608-7.819 20.058-23.753 14.401-35.597-21.867-26.296-38.44 2.904-5.174 5.806-6.827 11.134-8.48"/><path d="M494.239 308.111c11.791-1.353 17.281 3.6 21.136 14.124-3.293 3.168-6.642 5.831-10.177 8.708 4.313 1.539 8.088 2.987 11.936 5.495-.457 8.172-1.168 12.591-7.169 18.467-26.207 16.128-39.467-30.888-21.364-44.319 1.563-1.159 3.792-1.847 5.638-2.475"/><path d="M559.689 365.429c2.677.736 10.004 5.338 8.884 8.428-1.716.324-3.45-1.227-3.639-1.078-6.933 5.457-13.321 10.179-21.763 13.245a53.77 53.77 0 0 1-41.852-1.822c-3.908-1.875-7.316-4.806-11.085-6.583l-.727.495c-1.351.926-.779.744-2.308 1.02l-.605-.811c.441-3.246 3.896-7.168 7.312-7.131.644 1.643-.685 1.63-.821 4.25 5.983 6.282 19.069 10.807 27.66 11.167 16.742.702 29.852-5.206 42.054-16.024-1.922-1.925-2.534-2.605-3.11-5.156"/><path fill="#fefefd" d="M617.278 457.207c18.193-1.906 15.044 19.874-.398 24.849-11.622 3.744-21.617 4.742-33.348 7.2-4.824-4.11-13.585-11.796-20.584-9.612l.09.629c2.76 2.173 7.362 2.343 10.222 4.169 11.58 7.392 20.585 20.152 12.27 33.503-5.314-8.447-12.753-16.119-23.387-16.709-.879-.048-.701.033-1.258.684 1.22 1.504 8.484 3.804 10.906 5.303 28.522 17.653 4.779 53.229-23.094 43.751-1.026-.349-.995-1.947-1.033-2.826.876-1.785 6.554-6.867 8.357-8.654 3.057 1.053 5.313 1.877 8.545 1.806l.057-.529c-1.793-1.669-4.678-2.671-7.006-3.684.762-1.64 2.071-4.114 1.618-5.804-1.197-.099-2.176 1.668-3.048 2.962-4.073 6.041-8.381 9.561-14.299 13.695-10.602 6.453-22.15 10.011-34.315 5.572-5.585-2.039-10.217-5.629-15.307-8.643l.234.397.4.654c3.47 5.792 7.118 7.315 12.95 10.307-22.454 21.501-46.126-18.807-37.398-39.162 1.705-3.979 1.176-3.95 4.422-7.633 2.362-2.68 14.202-10.906 16.491-6.038a63 63 0 0 0-2.01 3.927c-1.505 3.215-3.548 7.58-2.318 11.019l.682.005c3.805-5.941 3.983-11.996 9.911-18.755 21.223-24.201 57.417-32.545 87.847-37.657 11.333-1.904 22.398-3.816 33.801-4.726"/><defs><linearGradient id="d" x1="699.813" x2="711.162" y1="510.194" y2="395.556" gradientUnits="userSpaceOnUse"><stop offset="0" stop-color="#9cddec"/><stop offset="1" stop-color="#6cc7f2"/></linearGradient></defs><path fill="url(#d)" d="M691.776 397.98q30.651.043 61.289.999c-1.825 7.184-4.45 15.222-6.625 22.386-6.064.237-10.029 1.387-15.559 3.668-2.766 2.414-4.099 3.702-5.862 7.077-1.158 3.198-1.259 3.452-1.583 6.892l-.099.973-.051.585.335 1.029c.602 4.386 1.87 6.42 3.995 10.173-12.843 7.181-15.98 17.069-6.894 29.286-13.317 9.276-12.716 20.502-.96 30.804-19.372-.76-41.633-3.255-61.332-4.628 2.51-10.431 8.026-26.374 11.35-37.172z"/><path fill="#fefefd" d="M699.872 431.283c1.239-4.012 2.08-12.291 5.907-14.219 3.182-1.603 13.195.849 16.681 1.914-.29 3.519-.454 4.725-1.317 8.163 1.373 2.237 1.974 3.154 3.876 4.969-1.158 3.198-1.259 3.452-1.583 6.892l-.099.973-.051.585.335 1.029c-7.27 8.46-22.925 13.734-31.371 3.58-3.88-4.665-3.4-10.288-2.728-15.927 4.132 1.999 4.061-2.027 10.35 2.041"/><path fill="#f5ce74" d="M689.522 429.242c4.132 1.999 4.061-2.027 10.35 2.041-1.523 5.101-4.78 4.943-5.435 8.011.763 2.53 3.498 3.587 5.885 2.948.833-1.785-.805-3.917-.093-4.838 2.006-2.596 3.87-.04 2.691-5.435.783.079 1.786.214 2.553.128 2.391-.27 5.266 1.718 7.3 1.862-1.51 2.746-5.014 7.931-.478 9.625 4.544-.572 5.759-3.626 6.455-7.619 2.489.909 2.598.513 4.075 2.245l.461 2.35.335 1.029c-7.27 8.46-22.925 13.734-31.371 3.58-3.88-4.665-3.4-10.288-2.728-15.927"/><path fill="#f27394" d="m717.67 422.586 1.293.245c.907 2.5-.666 9.398-1.744 11.901-.875-.643-1.416-1.055-2.451-1.393l-1.995.62c-2.034-.144-4.909-2.132-7.3-1.862-.767.086-1.77-.049-2.553-.128l-1.372 1.705-.362-.127c-.44-2.083 1.408-7.234 2.135-9.531 1.224 1.405.493 1.085 2.029 1.471l.535-1.078c2.469-.517 9.114-.334 11.94-.334z"/><path fill="#fefefd" d="m705.35 425.487.535-1.078c2.469-.517 9.114-.334 11.94-.334-.747 1.416-.785 2.178-2.405 2.521-2.932.622-6.2.126-9.096-.241z"/><path fill="#e89a88" d="M721.143 427.141c1.373 2.237 1.974 3.154 3.876 4.969-1.158 3.198-1.259 3.452-1.583 6.892l-.099.973-.051.585-.461-2.35c-1.477-1.732-1.586-1.336-4.075-2.245.668-2.977 1.552-5.891 2.393-8.824"/><path fill="#f260c0" d="M703.321 424.016c1.499-1.739 10.601-1.149 14.349-1.43l.155 1.489c-2.826 0-9.471-.183-11.94.334l-.535 1.078c-1.536-.386-.805-.066-2.029-1.471"/><path fill="#f260c0" d="M704.846 418.068c3.078.313 12.653 1.054 15.066 2.122l.283.932c-2.966-.151-13.32-.819-15.409-1.81z"/><defs><linearGradient id="e" x1="713.599" x2="711.69" y1="429.983" y2="409.793" gradientUnits="userSpaceOnUse"><stop offset="0" stop-color="#f670ae"/><stop offset="1" stop-color="#e039da"/></linearGradient></defs><path fill="url(#e)" d="M689.522 429.242c.598-3.347 1.826-5.879 3.7-8.699a25.9 25.9 0 0 1 16.731-11.211c12.037-2.231 18.799 4.424 20.928 15.701-2.766 2.414-4.099 3.702-5.862 7.077-1.902-1.815-2.503-2.732-3.876-4.969.863-3.438 1.027-4.644 1.317-8.163-3.486-1.065-13.499-3.517-16.681-1.914-3.827 1.928-4.668 10.207-5.907 14.219-6.289-4.068-6.218-.042-10.35-2.041"/><path fill="#f1762e" d="M361.301 711.349c2.476 7.682 2.419 15.325 7.065 23.124 6.028 10.117 12.627 13.375 23.419 16.411-5.074 25.522 1.687 41.642 15.527 62.638-4.627 7.046-7.454 13.189-11.102 20.773-5.644-2.86-10.369-6.113-15.428-9.88-8.776-7.469-11.62-15.005-18.54-22.75-16.198-18.129-28.574-24.384-38.676-47.667 9.052-14.678 23.831-32.144 37.735-42.649"/><path fill="#adaeb2" d="M541.498 595.067c.376.196.527.514.829.906-1.066 27.794-6.316 58.371-10.306 85.916-1.816 12.537-13.679 14.224-23.998 14.076-7.742-.112-12.882.035-19.098-5.853-5.415-7.525-6.584-22.957-7.876-32.546 1.339-3.014 2.921-6.172 4.369-9.148 6.106-12.547 10.439-25.568 14.304-38.949 12.791-4.429 29.068-10.795 41.776-14.402"/><path fill="#f1762e" d="M531.191 763.218c2.294 1.873 3.551 5.654 7.846 8.853 10.009 7.453 18.162 7.611 29.842 6.287 11.978 20.133 19.795 28.528 43.022 34.742-2.394 9.247-3.07 13.499-3.066 22.949q-4.609-.13-9.211-.398c-4.405-.113-8.77-.607-13.13-.758-23.541-.814-45.088-5.57-68.024-9.815-.568-17.915 4.446-45.63 12.721-61.86"/><path fill="#fefefd" d="M446.349 795.705c10.937-1.031 21.236 2.983 28.623 11.128 11.31 12.472 11.876 27.285 11.025 43.219-14.398.994-30.227.648-44.461-1.649-12.112-1.159-32.183-7.255-42.642-12.934 2.246-6.662 8.011-17.173 12.528-22.481 9.891-11.623 20.191-15.929 34.927-17.283"/><path fill="#fefefd" d="M320.137 754.321c.868.985 3.01 4.88 3.615 6.238 7.818 17.551 23.311 27.948 35.786 41.861 5.577 6.219 10.616 15.744 16.96 21.392 27.909 24.849 70.225 30.529 106.347 29.232 1.501-.054 2.012.574 2.925 1.491 1.284 4.487-2.837 13.218-7.103 15.221-3.101.728-6.463.945-9.668 1.244-31.847 2.965-66.336-6.158-92.353-24.818-12.31-8.83-19.761-23.305-29.561-34.632-11.471-13.258-26.876-25.027-35.151-40.635 2.561-6.385 4.656-10.704 8.203-16.594"/><path fill="#fefefd" d="M647.001 782.098c8.747-.652 18.471 2.528 25.501 7.617 14.337 10.38 18.239 22.807 21.097 39.179-12.429 4.165-23.627 5.238-36.477 6.471a473 473 0 0 1-45.624.909c-.524-24.603 10.08-47.666 35.503-54.176"/><path fill="#fefefd" d="M517.415 827.372c51.117 11.26 106.893 14.931 158.979 8.263 5.391-.69 11.586-3.221 16.967-3.312l.682.697c.854 3.886-.18 11.09-1.443 14.893-29.036 14.922-145.251 7.052-176.513-5.392-.58-5.13-.653-10.336 1.328-15.149"/><path fill="#adaeb2" d="M548.96 564.565c4.155-.279 8.792.291 10.235 5.118 1.894 6.336 1.015 14.827-5.761 17.933-9.786 4.486-20.372 7.522-30.469 11.28-19.272 6.564-38.522 13.85-57.958 19.861-12.435.836-13.328-9.447-9.092-19.205.529-1.218 2.537-3.429 3.795-3.95 9.64-3.997 19.803-6.932 29.61-10.534 19.324-6.422 40.229-15.084 59.64-20.503"/><path fill="#fefefd" d="M659 400.153c10.703-1.391 15.731 3.271 19.391 12.807-4.902 17.818-11.957 37.755-17.366 55.749-3.109 10.341-9.826 34.126-13.606 42.959-1.051-.235-1.91-1.362-2.853-2.242-5.46-9.55-5.933-19.978 3.234-27.385 1.116 1.997 3.121 6.196 5.526 6.271l.443-.812c-1.239-3.529-3.896-6.988-5.357-10.488-2.987-7.157-2.324-13.838.116-20.955 1.483-4.324 3.166-9.927 3.067-14.491-.33-15.118-12.888-33.434 7.405-41.413"/><path fill="#fefefd" d="m426.179 677.94.382.091c.726 1.119.689 3.5.786 4.97-6.714 6.691-17.681 13.886-21.951 22.428 7.301-5.2 15.28-12.82 22.314-18.822 1.208 2.231 2.608 4.543 3.889 6.75-7.489 5.881-16.445 13.434-21.883 21.095 9.109-5.891 15.15-11.952 23.049-19.361 1.691 1.679 3.603 4.043 5.185 5.891-6.719 5.228-16.922 13.688-21.051 20.908 3.847-2.608 6.387-4.745 9.911-7.785 4.34-3.867 8.597-7.736 13.143-11.362l4.87 4.63c-5.341 5.237-12.264 10.541-18.038 15.986-6.687.168-8.557.267-10.539 7.008-14.736-1.43-20.059 2.332-19.519 17.834-4.023-2.731-7.907-5.46-10.977-9.224-6.477-7.073-5.358-21.239 1.006-28.226 10.56-11.593 26.624-23.713 39.423-32.811"/><path fill="#fefefd" d="m552.66 707.992 7.977 2.059c-.687 6.319-4.368 32.297-1.708 35.934 1.203-2.361 3.444-30.824 3.903-35.203 2.663.159 5.326.544 7.975.879-.292 7.443-3.089 27.879-1.452 33.668l.473-.114c1.901-5.303 2.906-26.374 3.382-33.003l.28-.288c1.883-.692 5.825-.48 8.005-.482-.635 11.168-2.382 23.455-2.458 34.525-5.51 7.404-4.443 11.484-1.877 19.772-10.003 3.142-22.462 4.731-29.671-4.77-.039-6.599 1.18-16.493 1.876-23.25.997-9.674 1.857-20.191 3.295-29.727"/><path fill="#fefefd" d="M737.603 452.689c9.044-.81 23.22 1.866 28.935 9.518a16.34 16.34 0 0 1 3.13 12.297c-1.057 6.786-5.534 11.144-10.84 14.844-1.629-1.255-3.721-2.653-5.43-3.867-9.548-5.405-18.986-6.817-29.678-4.988-12.882-13.817-2.771-26.173 13.883-27.804"/><path fill="#fefefd" d="M729.019 482.155c7.294-.539 15.148 1.06 21.698 4.517 9.465 4.997 12.392 15.987 7.1 25.253-4.013 7.028-12.028 10.511-19.632 12.463l-.23-.171c-.37-1.706.796-4.714 1.339-6.637 1.822-.156 3.22-.019 4.562-1.156-1.511-1.657-9.918-2.194-12.745-2.73-19.765-3.751-26.115-28.118-2.092-31.539"/><path fill="#adaeb2" d="M544.516 549.602c2.814 3.689 3.604 3.954 7.81 5.619-9.136 4.702-30.16 10.577-40.775 14.375-14.136 4.589-28.005 9.997-42.077 14.757-6.294 2.129-9.535 3.24-14.544-1.568-3.46-6.792-2.327-15.364 4.353-19.285 4.734-2.779 11.091-5.07 16.199-7.15 11.53 11.176 21.997 12.001 33.592.474 14.794 2.277 22.706.223 35.442-7.222"/><path fill="#fefefd" d="M741.576 424.113a44 44 0 0 1 3.225-.23c20.296-.844 41.128 15.061 21.612 33.828l-4.401-2.697c-8.995-4.65-21.483-5.607-31.34-4.027-10.834-11.855-3.338-23.658 10.904-26.874"/><path fill="#f1762e" d="M394.896 750.268c3.543 1.704 6.793 5.218 10.98 7.18 3.312 1.551 9.103 1.376 10.994 3.179-.345 4.782-11.273 2.847-15.072 2.57-9.692 10.153-1.257 13.253 8.742 10.837 2.923-.707 6.092-1.339 9.056-1.918.912 3.076 2.071 6.138 3.158 9.162-6.652.999-24.529.928-19.236 11.872 1.062 2.195 2.656 2.951 4.841 3.658 7.927-2.599 7.856-4.349 17.569-6.112l3.246 5.808c-10.057 5.363-12.245 7.078-20.016 15.141-13.181-18.593-20.302-38.718-14.262-61.377"/><path fill="#f1762e" d="M595.719 741.108c18.397-1.467 13.133 11.773 15.493 24.258-7.811 2.632-11.637 4.57-18.5 8.951l-.498.191c-2.692-1.036-6.507-6.617-12.944-9.551-5.006-15.102 2.373-21.076 16.449-23.849"/><path fill="#f1762e" d="M572.014 777.962c4.398-2.189 8.408-3.435 12.681-6.172l4.945 4.849-2.609 2.024c.094 1.912.426 1.206-.462 2.456-1.024 3.825-1.03 4.457 1.605 7.405l1.345-2.386c3.897-.847 6.952-4.252 10.995-6.235l-.064 1.226-1.161.779-.386-.385.044.332-.273-.06.008.602c.165.13 1.344 1.019 1.434 1.156 1.685 1.332 2.481 1.898 4.337 2.972l-.495.451c-3.515 3.162-10.457 6.185-6.413 12.464a7.78 7.78 0 0 0 5.379 3.457 6.8 6.8 0 0 0 5.288-1.475c2.304-1.856 2.247-5.122 5.63-8.837 2.294 1.174 4.818 2.527 7.129 3.63-3.852 5.481-5.643 8.391-8.175 14.562-11.808-3.133-25.339-8.952-32.281-19.69-2.938-2.079-6.872-9.942-8.501-13.125"/><path fill="#0d0505" d="M587.031 778.663c.094 1.912.426 1.206-.462 2.456-1.024 3.825-1.03 4.457 1.605 7.405l1.345-2.386c3.897-.847 6.952-4.252 10.995-6.235l-.064 1.226-1.161.779-.386-.385.044.332-.273-.06.008.602c.165.13 1.344 1.019 1.434 1.156-5.052.959-4.752 7.409-11.098 8.218-7.965-2.072-9.015-8.588-1.987-13.108"/><path fill="#c96333" d="M586.569 781.119c-1.024 3.825-1.03 4.457 1.605 7.405 1.101-.102 1.606-.168 2.703-.103l-.022.567c-1.72.918-3.702.08-5.278-.755-1.968-2.736-.817-4.593.992-7.114"/><path fill="#f1762e" d="M380.551 700.567c2.832-.002 4.498.731 6.685 2.54 1.23 3.018-2.414 5.207-3.815 7.928-7.844 15.234-5.125 24.892 6.849 36.49-1.794-.47-3.676-1.121-5.449-1.695-16.213-7.492-19.402-21.233-20.01-37.697a41.36 41.36 0 0 1 15.74-7.566"/><path fill="#424243" d="M730.775 516.054c1.701.371 4.176.589 5.965.806-8.897 29.383-3.085 26.305-34.276 24.395a2460 2460 0 0 1-44.501-2.909c-4.028-.448-4.473-1.606-7.413-4.542 12.296.139 63.875 5.92 71.204 2.733 5.142-2.236 7.183-15.376 9.021-20.483"/><path fill="#f1762e" d="m541.649 748.101 2.681-.098c3.365 1.851-1.297 8.322 1.064 13.99 5.996 14.393 30.395 4.801 36.138 7.087l.14.411c-.972 1.946-4.51 3.174-6.534 4.045-9.007 3.258-18.981 4.154-28.153.255-6.581-2.797-16.638-11.627-12.717-20.078 1.435-3.093 4.256-4.475 7.381-5.612"/><path fill="#fefefd" d="M466.295 735.115c18.04-1.511 18.379 19.781 4.352 24.986-3.745 1.39-22.525.367-23.656-3.447l.737-1.144c3.402-1.694 11.215-.132 15.99-.023 8.256-.505 15.663-6.964 7.353-13.935-4.443-3.727-17.251 5.979-23.112 7.922l-.89-.557c-.899-1.7-.862-.879-.369-2.524 5.323-5.214 12.527-9.038 19.595-11.278"/><path fill="#fefefd" d="M406.645 732.557c8.438-.833 22.593 5.56 26.829 12.71-.499 1.342-.144.709-1.674 1.674-5.256-1.47-15.594-11.904-22.301-9.152-4.699 1.928-4.941 6.989-2.926 11.269 7.311 5.374 19.941 1.386 22.413 4.195.144 1.328.433 2.246-.236 3.347-4.684 1.284-11.416.766-16.244-.006-13.653-2.183-20.339-16.299-5.861-24.037"/><path fill="#fefefd" d="m592.487 709.132.627.204c.76 2.262-1.652 25.806-1.904 30.032-3.994 1.315-5.919 2.216-9.448 4.352-.349.044-.113.045-.668-.235.607-10.282 2.14-21.805 2.902-32.452 2.759-.681 5.702-1.285 8.491-1.901"/><path fill="#fefefd" d="M421.96 726.231c16.029-1.283 24.16.695 17.472 18.413-4.809-.963-14.215-10.283-19.248-12.894-.929-.482-.785-1.892-.784-2.789.891-1.784.837-1.689 2.56-2.73"/><path fill="#fefefd" d="M631.435 773.57c2.185-.186 6.883.018 6.918 2.902-1.41 1.259-8.145 3.181-10.55 4.352-7.97 3.88-13.813 8.241-19.959 14.485-1.053 1.019-.965.961-2.373 1.376-2.097-.627-1.289-.063-2.642-1.549-2.043-8.316 22.03-19.848 28.606-21.566"/><path fill="#424243" d="M768.399 384.255c1.366.807 2.698 2.129 3.391 3.581 2.304 4.829-7.402 30.277-9.586 36.566l-5.057-2.199c3.196-12.898 8.17-24.701 11.252-37.948"/><path fill="#fefefd" d="M589.519 786.138c-.397-.92-1.006-2.088-.756-3.076 1.961-7.765 31.046-22.479 35.5-13.63-1.588 2.138-9.556 3.224-13.325 4.982-4.343 2.026-6.246 2.884-10.424 5.489-4.043 1.983-7.098 5.388-10.995 6.235"/><path fill="#fefefd" d="M442.842 781.714c2.983-.313 10.944-.456 13.769.062 1.409.869 2.109 1.652 1.583 3.29-2.234.609-4.369.57-6.668.611-7.831.139-15.524 1.05-23.294 1.992-3.794.761-11.118 2.993-14.221 1.467-.914-1.372-.72-.638-.61-2.276 4.097-3.391 23.437-4.667 29.441-5.146"/><path fill="#adaeb2" d="M544.024 561.554c.485.16.145.019.875.675-1.673 1.798-66.996 24.273-74.787 26.328-.509-.124-.192-.012-.875-.5 3.095-3.319 67.409-24.323 74.787-26.503"/><path fill="#fefefd" d="M433.011 763.71c2.186-.227 6.356-.163 8.706-.189l3.016 3.293c-8.968.583-16.438 1.516-25.295 2.847-3.032.529-8.562 2.067-10.991.531-.628-1.92-.663-1.044-.327-2.743 3.991-2.474 19.657-3.325 24.891-3.739"/><path fill="#fefefd" d="M435.376 747.459c10.144-.988 13.101 5.196 6.022 12.6-8.504.147-13.196-5.722-6.022-12.6"/><path fill="#fefefd" d="M466.862 743.527c2.926-.006 4.809.324 5.436 3.48-1.383 6.31-9.467 6.184-14.42 5.78-2.67-.217-5.166-.586-7.811-.958 4.761-3.378 11.204-6.608 16.795-8.302"/><path fill="#fefefd" d="M449.388 788.245c1.53-.083 1.728-.164 3.259.18 1.492 1.191 1.7 3.075 2.204 4.992-8.152-.464-13.356-.044-21.238 1.664-1.338.373-.902.286-2.315.27-1.373-1.068-1.853-3.388-2.44-5.144a158 158 0 0 1 20.53-1.962"/><path fill="#fefefd" d="M546.524 462.084c3.846-.203 6.353-.263 9.514 1.948l.098.724c-7.814 2.196-14.907 4.1-22.515 6.962-2.643.935-5.055 2.066-7.609 3.212 5.546-6.422 12.253-10.902 20.512-12.846"/><path fill="#fefefd" d="M433.597 770.2c4.809-.625 15.382-1.113 18.396 3.332l-.266.861c-3.426 1.886-6.259.971-10.262.459-7.028-.914-13.72-1.393-20.752-2.677 4.612-.872 8.172-1.515 12.884-1.975"/><path fill="#fefefd" d="M446.558 709.893c1.475.661 2.995 2.023 4.294 3.068-2.301 2.071-11.844 11.049-14.031 11.286l-6.353-.81c4.596-4.346 11.098-9.76 16.09-13.544"/><path fill="#fefefd" d="M632.91 781.468c1.597-.069 2.645-.046 3.985.833l-.099.701c-2.523 1.653-4.756 2.921-7.265 4.693-2.339 1.651-5.679 5.793-7.362 6.379l-6.115-3.236c6.323-4.154 9.764-6.534 16.856-9.37"/><path fill="#fefefd" d="M409.977 739.969c6.89-.134 9.109 3.481 5.835 9.689-6.252-.836-10.624-3.215-5.835-9.689"/><path fill="#fefefd" d="M423.517 775.524c2.603-.068 21.708 1.767 23.261 2.89l-.848.494c-6.159.164-14.242 1.132-20.518 1.708-.697-1.582-1.309-3.441-1.895-5.092"/><path fill="#fefefd" d="M620.481 774.118c1.461-.202.801-.353 2.077.133-1.554 1.271-6.267 2.738-8.415 4.226-2.861 1.982-5.505 4.316-8.401 6.108-1.518-.887-1.887-1.052-3.19-2.319 1.658-2.934 14.235-7.476 17.929-8.148"/><path fill="#fefefd" d="M420.155 743.213c2.125 1.186 8.085 4.258 8.916 6.328l-10.359-.02c.516-2.028.974-4.251 1.443-6.308"/><path fill="#f1762e" d="M407.652 785.674c1.331.282.9.113 2.026.798 1.864 3.401 1.502 4.988-.892 7.765-4.253-2.513-4.085-4.958-1.134-8.563"/><path fill="#c96333" d="M455.897 788.27c5.381.036 5.372 2.791 7.27 7.396-1.691-.503-3.279-1.132-4.927-1.754-.87-1.8-1.604-3.777-2.343-5.642"/><path fill="#fefefd" d="m428.679 759.219 2.268-.192.831 1.142-.282-1.057c.329.587.543.745.555 1.303-2.479 1.369-4.626 1.256-7.43 1.413-1.769.25-2.15.408-3.9-.109l-.172-.466.339-.461c2.849-1.561 4.601-1.418 7.791-1.573"/><path fill="#c96333" d="m403.197 765.723 1.011.506c.646 2.289.966 3.673.567 6.075l-1.234.881c-1.501-1.288-2.082-1.571-2.475-3.431.324-2.04.781-2.34 2.131-4.031"/><path fill="#fefefd" d="M443.907 760.965c1.638-.134 2.989-.364 4.317.584.847 1.532.472 2.485.196 4.248-.346.047-.69-.107-1.031-.18-1.776-1.92-2.188-2.395-3.482-4.652"/><path fill="#c96333" d="m599.737 792.44.379.405c.486 6.092.71 6.379 6.37 6.641-3.95 3.224-8.952-1.469-6.749-7.046"/></svg>