<svg xmlns="http://www.w3.org/2000/svg" width="1024" height="1024" viewBox="0 0 1024 1024"><path fill="#010000" d="M368.087 333.657c-2.248-4.133-2.798-10.924-3.323-15.622-3.188-28.545.633-59.408 18.699-82.695 2.855-3.824 6.825-7.191 9.63-11.003 3.353-4.557 6.012-9.742 9.255-14.439 24.14-34.969 71.963-52.868 112.976-41.376 13.325 3.733 23.615 11.958 32.49 22.278 2.57 2.905 6.167 7.383 8.744 9.947 10.602-11.376 27.682-6.939 40.776-3.212 17.42 4.959 35.541 12.73 48.812 25.333 20.072 19.312 32.525 51.24 25.192 78.911 10.489 8.737 12.686 19.93 3.323 30.679a94 94 0 0 1-1.712 1.909c24.056 77.351-39.515 138.84-113.233 145.289l-2.867 31.345c-.461 5.156-1.381 12.964-1.424 17.877 11.902 1.499 14.049 4.882 14.291 16.971.18 8.98-13.532 11.082-14.352 15.198 3.315 2.709 13.348-1.991 14.066 13.212.62 13.099-7.854 15.991-18.407 19.12-.403 8.253-1.565 18.905-1.653 26.663 3.882 5.197 8.102 9.647 12.062 14.721 4.746 6.081 8.958 12.872 13 19.455a331 331 0 0 1 11.974 20.921c2.32 4.371 4.619 8.852 7.033 13.198 1.355 2.44 3.861 1.466 5.187 3.132 2.985 3.747 5.813 9.663 8.01 13.883 12.283-8.906 19.558-.89 26.526 9.538q2.85 4.315 5.631 8.674c2.496-8.879 5.868-21.107 14.31-26.114 6.62-3.927 14.755-.147 17.407 6.791 4.313 11.284.125 18.31-8.153 25.534 6.663 2.29 7.097 1.357 14.167.507 3.006-.362 8.14 1.792 11.468.744 18.515-3.424 35.809-8.954 52.344 4.349 9.05 7.281 23.866 22.55 25.155 34.934.505 4.844-.561 9.593-3.916 13.219-13.51 14.601-34.585 25.271-51.592 35.649-13.46 8.214-24.714 16.534-37.546 24.773-21.261 13.352-45.372 22.837-70.442 25.453-3.693.386-10.042 1.002-12.75-1.699-5.006-4.992-9.214-15.428-7.366-22.327-3.385-8.38-7.261-17.336-10.41-25.711-4.904-12.277-18.549-49.141-9.278-59.734 1.566-1.9 2.565-3.094 4.339-4.788-6.275-13.06-13.023-27.318-19.993-40.005 4.321-4.235 17.729-9.883 18.994-12.398-.328-7.328-16.943-33.895-22.2-40.688-4.338 27.05-2.066 38.853-37.898 35.258-17.605-1.767-18.331-23.066-19.68-37.02a368 368 0 0 1-30.492 43.932c2.412 2.702 6.294 6.361 8.232 8.874-3.425 4.298-8.485 7.892-12.5 11.732 5.105 8.055 3.855 11.523 2.005 20.807l.559-.327c7.549-4.495 20.337-16.392 29.684-13.03 19.016 6.838 7.044 37.973-13.313 29.567-6.755-2.789-7.675-1.713-10.41 4.505 3.671 6.178 6.515 10.408 10.569 16.192 1.712 2.444 3.202 8.866 5.938 12.7 2.995 4.716 8.736 6.968 12.184 11.167 9.517 11.587 10.558 24.72 10.844 38.938.262 13.077-.224 13.839-6.228 25.424-31.262 7.922-70.641-1.358-98.42-16.878-17.569-9.816-26.955-26.144-39.321-41.28-11.22-13.734-28.366-25.143-35.295-41.816 1.692-5.45 4.066-11.337 7.065-16.215 1.822-2.75 5.698-4.34 7.704-6.825 13.127-16.259 26.126-35.141 44.933-45.294 8.575-4.629 13.355-5.484 21.403.138 4.693-3.772 32.732-27.612 36.579-27.729l1.757.869c8.025-4.16 28.051-44.932 32.264-54.331-4.777-.442-7.967-.836-11.285-4.726-5.671-6.649-2.926-18.092 3.645-23.091 2.674-2.033 6.189-3.57 9.167-4.975-4.242.035-9.545.173-12.472-3.257-8.071-9.461-1.691-22.341 7.991-26.807-3.899-23.423-7.354-47.922-10.849-71.513-43.082 2.021-83.908 13.915-94.42 61.533 14.506 5.109 21.093 9.194 20.125 25.797 25.766 9.805 38.657 41.326 16.03 61.001 2.489 9.658 2.808 21.161-2.441 30.009a24.15 24.15 0 0 1-15.688 11.252c-6.369 1.393-13.645.508-19.118-3.183a63 63 0 0 1-3.132-2.28c-12.949 7.815-24.222 8.525-34.421-4.126-8.492-.258-18.868-2.024-22.849-11.85-7.626-18.826-6.776-44.44 1.971-62.925 1.204-2.546 10.189-12.923 10.262-12.523-2.709-14.946.355-21.958 17.769-29.859 2.898-24.613 16.52-49.432 36.107-64.656 26.429-20.54 52.705-25.887 84.841-27.62a691 691 0 0 1-3.387-22.553c-22.534-11.265-38.658-28.107-46.656-52.333a95 95 0 0 1-1.579-5.453c-27.163-1.683-54.565-12.049-33.018-43.616m195.115 87.948c-.295 8.923-1.115 19.418-1.185 28.09 13.071-1.995 22.866-4.673 34.75-10.696 20.814-10.309 39.158-28.067 46.964-50.38 4.791-13.697 4.035-24.983.881-38.818-13.066 3.471-27.785 2.098-29.485-14.447-4.982-1.708-6.631-2.534-11.275-4.727 3.878 34.703-6.655 74.869-40.65 90.978"/><path fill="#f1752e" d="m564.641 759.648 1.608-1.198c2.802 1.091 5.568 6.753 7.814 8.703 6.621 5.744 18.883 7.02 26.888 6.683l1.029-.407 2.202 2.112 5.311-4.951c6.215 2.871 11.194 3.928 17.03 6.293-.015 5.009-.12 10.387-.026 15.365 3.039.027 5.158.054 8.192-.247-.044-4.543-.287-10.284-.091-14.705 13.417 1.768 21.197 2.197 34.644 2.807.897 4.11 2.093 10.221 3.408 14.069-31.349 27.852-48.642 36.391-87.705 49.416-4.299-6.599-9.376-17.648-11.762-25.395l-1.714 1.473c-4.904-12.277-18.549-49.141-9.278-59.734 1.261.324 1.213.214 2.45-.284"/><path fill="#f1752e" d="m564.641 759.648 1.608-1.198c2.802 1.091 5.568 6.753 7.814 8.703 6.621 5.744 18.883 7.02 26.888 6.683l.196.659c-2.414 2.896-8.721 5.992-12.419 7.059-9.733 2.807-17.812 1.095-26.532-3.509-1.312-7.138-1.443-12.008 2.445-18.397"/><defs><linearGradient id="a" x1="561.598" x2="603.313" y1="786.674" y2="778.812" gradientUnits="userSpaceOnUse"><stop offset="0"/><stop offset="1" stop-color="#23100f"/></linearGradient></defs><path fill="url(#a)" d="M562.191 759.932c1.261.324 1.213.214 2.45-.284-3.888 6.389-3.757 11.259-2.445 18.397 8.72 4.604 16.799 6.316 26.532 3.509 3.698-1.067 10.005-4.163 12.419-7.059l-.196-.659 1.029-.407 2.202 2.112c-12.974 11.878-25.833 11.557-41.731 6.056a247.6 247.6 0 0 0 10.732 36.596l-1.714 1.473c-4.904-12.277-18.549-49.141-9.278-59.734"/><path fill="#adaeb1" d="M556.896 278.719c9.123-.391 17.137-.098 26.234.378 20.243 37.734 29.777 82.131 3.191 120.13-6.877 9.828-14.548 14.887-24.404 21.264-.327 5.095-.456 10.554-1.048 15.597-3.642 31.055-4.874 62.44-7.788 93.493-25.313 9.309-56.017 19.461-81.882 27.658-2.36-10.806-4.362-26.407-6.097-37.621a2198 2198 0 0 0-4.922-31.981c3.145-.764 5.26-1.467 7.673-3.692a16.23 16.23 0 0 0 5.306-11.808c.081-3.869-1.227-8.094-4.077-10.776-4.472-4.208-8.282-3.885-13.843-3.926-1.116-5.597-2.286-11.665-2.912-17.35-.145-1.309 1.537-2.727 2.467-3.563-.097-1.427-16.321-9.861-18.952-11.751-30.843-22.161-38.761-60.818-38.281-96.597 5.801-4.685 17.475-11.717 24.103-15.288 40.771-21.968 89.253-32.045 135.232-34.167"/><path fill="#010000" d="M512.6 289.321c1.175.722.788.429 1.692 1.518.447 4.27-3.758 10.382-5.992 14.06a29.8 29.8 0 0 1 7.361 6.031c10.711 12.23 8.43 29.226 5.195 43.497-.361 1.592-.043 5.656-.346 6.638-2.94 9.532-15.196 18.534-25.218 17.37-1.665-.195-3.395-.62-4.272-1.755l.317-.753c2.832-1.278 5.839-.399 8.992-.976 6.602-1.207 9.916-4.569 13.615-9.618.785-1.188.9-1.167 1.118-2.541-2.224 1.39-5.927 4.393-8.018 5.273-12.51 5.267-22.18-3.664-26.057-14.339-4.476-12.325-3.786-21.764-1.055-33.654-2.281-.041-7.845.21-8.958-1.952.495-.787.84-1.421 1.999-1.322 21.372 1.825 31.78-8.496 39.627-27.477"/><path fill="#fefefd" d="M506.423 307.406c2.195 1.273 4.474 3.03 6.551 4.533-11.155-.226-13.622 3.399-16.046 14.078 3.019 1.989 6.544 4.032 9.663 5.931l-9.74 4.729c2.455 12.778 6.994 19.895 20.855 15.759-1.989 3.532-3.353 5.71-5.964 8.781-5.396 5.087-13.133 8.101-19.482 3.186-13.981-10.826-12.923-29.814-9.262-44.642 11.451-2.019 14.792-4.881 23.425-12.355"/><path fill="#010000" d="M545.697 286.62c.488.13 1.722.363 1.967.934 6.305 14.747 18.738 25.089 35.456 23.719 1.052-.086 2.395.062 3.176.877-1.333 2.349-4.404 2.163-6.842 2.383a64.5 64.5 0 0 1 2.748 8.354c5.164 21.029-2.811 56.783-31.073 37.388.898 1.476 1.958 3.041 2.905 4.504 3.682 4.015 8.436 6.625 13.937 6.804 2.52.082 3.824-.368 6.434.156l.335.821c-5.876 6.316-21.672-2.123-25.96-8.402-3.651-3-1.758-6.832-2.72-9.426-6.73-18.138-10.035-38.551 7.372-52.101q-.465-.563-.921-1.135c-3.255-4.1-7.449-9.492-6.814-14.876"/><path fill="#fefefd" d="M555.285 305.334c1.637.001 4.398 2.207 5.939 3.127 5.071 3.025 9.085 4.367 14.806 5.702a49.1 49.1 0 0 1 4.722 16.697c1.795 17.453-7.732 45.447-27.769 26.434-2.04-2.197-3.053-3.77-4.712-6.218 14.016 3.154 16.895-4.502 18.532-16.75-2.589-1.3-7.599-2.901-10.512-3.921 3.035-1.851 6.367-4.174 9.361-6.165-1.624-6.207-4.545-14.995-13.303-13.46-1.191.209-1.662.407-2.828.095.435-1.8 4.157-4.329 5.764-5.541"/><path fill="#010000" d="M531.698 380.13a26.85 26.85 0 0 1 14.226 2.503c6.483 3.105 18.127 14.723 14.212 23.733-2.406 5.535-16.052-2.802-20.24-3.563-4.365-.793-6.181-.88-11.374.057-1.542.49-5.91 2.016-7.252 2.876-12.318 7.892-29.262 11.474-15.768-9.38 5.614-8.676 15.384-14.372 26.196-16.226"/><path fill="#fefefd" d="M530.483 383.094a59 59 0 0 1 3.473-.282c8-.352 12.862 3.331 18.311 8.295-3.405-.469-10.046-1.351-12.356 1.35l.251.348c4.692 2.202 9.471 1.719 14.641 1.703 1.649 2.526 4.647 7.342 3.208 10.265-4.888 2.459-11.883-3.774-16.821-4.892-3.627-.821-6.598-.523-10.284-.359-6.325 1.231-10.761 3.576-16.427 6.496-2.999 1.545-6.887 3.645-10.282 2.617-2.732-3.129 3.24-9.968 5.407-12.581 2.927-.1 11.373.127 13.057-2.672-2.185-1.774-7.477-1.054-10.34-.89 5.866-5.138 10.678-7.624 18.162-9.398"/><path fill="#f1752e" d="M484.839 167.214c27.365-2.354 49.484 8.801 65.694 30.305 6.825 9.052 4.421 8.282 7.537 18.404-15.147 9.634-19.261 25.086-4.041 38.232 1.918 1.657 4.634 1.969 6.302 4.265-.639 1.382-10.154 1.896-12.132 2.123a507 507 0 0 0-20.698 2.799c-53.803 8.852-117.968 28.751-157.74 67.759-1.953-5.667-2.62-10.663-3.227-16.572-3.945-41.206 9.314-82.542 48.085-102.242 34.2-17.377 60.037-13.469 84.498 16.489 4.506 5.877 7.469 12.11 12.811 17.459l-.123-.367c-1.917-5.569-3.829-9.048-7.183-14.024-11.99-17.795-30.262-32.099-52.484-32.435-14.985-.226-26.678 4.811-39.927 11.033 9.413-13.159 23.943-24.204 39.918-26.335 33.919-4.525 54.411 26.672 64.524 54.515.91 2.504 3.667 10.517 5.611 11.915l.593-.706c.056-3.35-1.679-6.7-2.867-9.798-9.781-25.499-25.024-54.267-54.96-58.427-17.984-2.499-36.402 6.077-48.309 19.316-6.676 7.422-9.623 12.079-17.828 18.377a108 108 0 0 1 12.352-16.804c18.91-21.478 45.176-33.412 73.594-35.281"/><path fill="#fefefd" d="M345.256 549.689c13.501-.898 38.555 3.52 35.81 21.942-3.191.404-13.984-3.995-16.82-2.426 1.969 2.358 5.897 2.789 8.795 3.591 9.18 2.54 19.015 7.249 25.715 14.168a35.07 35.07 0 0 1 9.766 25.088c-.211 8.694-3.518 14.974-9.713 20.905-3.458-5.587-5.941-7.392-11.877-9.404.399-4.085.582-6.129.371-10.186-3.972 7.063-5.761 27.124-1.439 33.731 1.553.946.742.768 2.502.616.372-2.017-1.545-4.884-1.855-8.195-.451-4.816-.168-8.96.019-13.749 4.898 2.293 9.238 5.419 10.734 10.802 4.318 15.535 1.129 31.622-15.132 37.343-20.118 5.706-21.664-9.893-33.106-16.384 2.156 5.626 3.578 7.01 7.403 11.729-8.92 6.844-20.546 7.477-28.129-1.631-2.934-3.524-4.873-8.473-8.125-11.475l-.379.346c.369 3.235 1.504 5.258 2.862 8.213-5.629-.208-11.513-1.403-15.461-5.776-7.373-8.165-8.44-25.792-8.178-36.101.409-16.162 5.75-35.044 20.558-43.732 4.336-2.543 10.057-4.124 13.413-7.338-2.112-2.871-13.309 5.32-17.305 4.373-.492-.702-.874-.926-.874-1.806.015-16.936 16.368-23.128 30.445-24.644"/><path fill="#fefefd" d="M572.409 195.669c21.983-1.753 62.23 16.428 76.375 33.193 17.821 21.123 30.054 53.357 17.292 80.098-1.99 4.169-8.789 10.916-8.899 13.156 6.24-.861 11.769-12.468 13.965-17.609 19.798 18.084-5.909 36.544-22.678 41.925-13.101 4.205-26.463 5.632-31.181-10.33 3.948.402 15.576 1.567 17.729-2.294-1.73-.485-4.61-.343-6.462-.322-9.259.107-14.889.117-22.831-5.12 3.575-2.203 10.032-5.126 13.961-7.127 13.269-6.76 24.903-13.751 34.814-25.055 18.53-23.606-1.572-35.097-23.407-37.915-6.724-.868-13.171-1.453-19.941-1.939 3.139-1.869 9.794-5.069 10.318-8.955-1.651-.619-10.58 6.341-13.181 7.19-9.64 3.115-20.026 2.361-30.031 3.385-3.626.371-13.97 1.8-15.719-2.157-9.303-21.058 15.455-31.774 32.414-31.868 2.165-.012 10.492.289 12.038-.632l-.731-.896c-5.024-2.37-14.498-1.199-19.894-.184-16.798 3.158-31.427 12.248-27.674 31.671-7.992-4.53-12.619-11.496-11.103-20.911 2.375-14.746 20.888-19.205 33.285-20.99 3.025-.436 13.244-.483 14.916-1.702-5.098-4.534-27.887 1.343-34.178 4.363-6.632-11.638-1.85-17.328 10.803-18.975"/><path fill="#f1752e" d="M596.655 259.281c25.857-1.557 90.484 1.977 49.485 41.433-11.11 10.692-28.558 19.102-42.653 25.304-.976-4.942-2.169-9.652-3.385-14.532 14.116-11.704 22.381-26.581-2.573-32.755-13.893-3.437-31.503-2.994-45.779-2.187-50.171 2.835-100.396 14.711-143.481 41.267-17.504 10.996-54.57 41.561-10.735 46.828.954 3.58 1.641 6.792 2.385 10.427-12.872-.401-37.43-4.885-37.417-21.197.015-19.482 26.85-37.152 41.494-45.735 56.784-33.278 127.67-46.862 192.659-48.853"/><path fill="#f1752e" d="M370.981 711.487c1.681 1.817 3.514 17.071 7.507 23.168 6.371 9.729 12.075 12.878 23.082 15.998l-.15.695c-5.099 24.319 2.782 41.969 15.924 61.688-4.446 7.528-7.307 13.225-10.986 21.076-5.125-2.484-9.838-5.655-14.437-8.986-9.059-6.751-12.074-15.097-18.547-22.35-16.376-18.347-28.891-25.142-39.698-48.647 8.045-13.611 24.507-32.712 37.305-42.642"/><path fill="#adaeb1" d="M548.126 594.991c.915.097.488-.092 1.2.722.018 4.298-1.244 13.455-1.673 18.213-1.53 17.41-3.59 34.293-6.858 51.471-2.536 13.326-.47 29.473-19.451 30.014-9.984.285-17.559 1.883-25.916-5.462-5.954-6.858-6.292-22.111-7.997-31.888 3.3-7.913 7.877-15.476 11.251-24.134 2.943-7.551 5.933-17.894 9.085-24.759a2202 2202 0 0 1 40.359-14.177"/><path fill="#fefefd" d="M454.243 795.66c2.404-.288 4.657-.296 7.072-.202a33.74 33.74 0 0 1 23.516 10.826c12.051 13.053 12.088 27.175 11.474 43.608-14.368.474-28.501.798-42.779-1.485-12.041-1.314-34.938-7.185-44.633-13.385 10.262-22.632 19.41-35.654 45.35-39.362"/><path fill="#fefefd" d="M330.175 754.315c2.516 2.671 8.123 15.075 11.986 19.789 7.984 9.741 16.379 16.475 25.004 25.517 6.813 6.828 12.026 17.472 19.13 23.81 27.671 24.687 69.958 30.555 105.879 29.225 1.907-.071 2.622.566 3.826 1.815 1.683 4.608-2.863 13.146-7.266 15.279-23.788 3.264-46.684 1.108-69.233-7.017-12.33-4.443-23.736-9.585-34.091-17.818-11.247-8.941-18.226-21.456-27.472-32.35-10.464-12.33-28.772-27.476-35.74-41.848 2.409-5.981 4.666-10.87 7.977-16.402"/><path fill="#fefefd" d="m756.242 757.579 1.389.193c3.822 3.33 4.912 9.21 6.031 14.025-49.605 12.536-80.152 39.54-120.436 67.752-11.941 8.363-37.724 16.517-52.57 24.214-3.51-1.467-8.725-13.173-6.953-15.419 5.165-4.392 16.721-7.503 23.118-9.618 25.581-8.46 43.605-22.45 64.26-39.4 25.142-20.633 53.32-34.383 85.161-41.747"/><path fill="#fefefd" d="M712.096 728.7c20.411-.896 32.345 11.181 43.373 26.404a211 211 0 0 0-56.055 21.946c-7.291 3.854-17.935 10.84-24.597 15.585a60.2 60.2 0 0 1-2.723-13.299c-2.524-27.337 11.889-48.126 40.002-50.636"/><path fill="#adaeb1" d="M557.117 564.173c11.394-.049 11.738 12.326 7.414 19.658-2.6 4.409-15.232 8.063-20.293 9.906a2436 2436 0 0 1-30.294 10.744l-26.091 8.994c-5.332 1.821-12.35 4.452-17.732 5.497-14.506.893-10.749-20.898-3.574-23.554 17.313-6.407 34.956-12.55 52.427-18.593 11.942-4.131 25.89-9.646 38.143-12.652"/><path fill="#adaeb1" d="M556.624 531.576c14.013-.88 13.394 18.506 3.446 22.984-10.565 4.757-21.87 8.224-32.862 11.957l-55.962 19.147c-15.653 2.602-13.716-19.596-4.025-23.556 19.983-8.166 41.009-14.347 61.406-21.509 8.856-3.109 18.992-6.75 27.997-9.023"/><path fill="#fefefd" d="M587.815 694.484c1.382 1.35 3.777 5.193 4.785 6.895 8.957 15.131 8.808 23.573 23.962 33.618-21.553 3.133-32.911 22.435-7.942 32.088-1.556 1.625-2.722 2.498-4.478 3.883-29.899 2.24-32.339-9.492-43.411-32.51l-11.415-23.232c1.653-1.095 3.719-2.239 5.454-3.262 3.361 6.315 10.426 21.51 15.851 24.846-.155-4.18-10.49-20.505-13.356-25.811 1.712-1.199 4.34-2.601 6.211-3.673 3.987 8.166 9.625 20.258 16.01 26.344-2.269-7.443-9.892-19.592-13.512-27.693l5.697-3.244c4.383 6.949 11.159 21.219 16.143 26.231-2.38-8.181-9.358-19.521-13.661-27.465 1.757-1.188 3.935-2.275 5.829-3.287 5.357 8.156 8.662 18.033 15.964 24.337-2.108-6.714-9.569-18.542-13.347-25.525 1.673-.889 3.498-1.719 5.216-2.54"/><path fill="#fefefd" d="M435.834 677.96c.929 1.34.754 3.593.892 5.488-8.355 8.763-13.874 11.07-22.399 22.657 8.337-5.305 15.464-12.587 23.076-19.056 1.363 2.055 2.817 4.687 4.088 6.848-8.627 6.213-15.541 12.154-21.814 20.791 8.699-5.78 15.229-12.393 23.274-18.923 1.683 1.496 3.242 3.275 4.779 4.936-6.582 6.177-16.158 13.287-20.496 20.848 4.943-2.798 9.17-6.82 13.433-10.575a686 686 0 0 1 9.074-8.143c1.724 1.417 3.704 3.418 5.349 4.991-5.649 4.045-12.914 10.693-18.074 15.367-7.269.179-8.804-.324-10.791 7.254-14.97-2.105-19.821 2.621-19.425 17.624-9.347-6.182-16.991-12.813-14.993-25.395a27.06 27.06 0 0 1 5.031-11.831c5.671-7.715 30.272-26.426 38.996-32.881"/><path fill="#f1752e" d="M404.701 750.4c1.667.701 5.784 3.366 7.101 4.568 3.946 3.6 11.365 3.086 14.784 6.251l-.127.864c-3.63 2.309-10.679 1.413-14.909 1.099-9.798 10.457-.177 12.936 9.287 10.674 2.945-.703 6.139-1.342 9.118-1.979.84 4.004 1.358 5.591 2.852 9.383-6.083.535-27.358 1.355-18.384 13.102 1.243 1.627 2.786 1.871 4.71 2.067 6.723-2.987 9.979-4.74 17.234-6.117 1.284 2.797 1.805 3.473 3.593 5.887-9.822 4.766-13.228 7.663-20.815 15.263a98 98 0 0 1-4.245-6.365c-10.695-17.547-15.045-34.493-10.199-54.697"/><path fill="#f1752e" d="M390.561 700.53c2.589-.099 4.5.856 6.643 2.188l.651 1.074c-1.19 3.861-4.262 6.805-5.845 10.59-6.165 14.746-1.57 22.965 8.344 33.393l-5.368-1.758c-16.896-8.877-19.195-19.955-20.185-37.876 4.949-3.791 9.85-5.86 15.76-7.611"/><path fill="#f1752e" d="M666.553 748.301c2.903.16 5.045.339 7.931.726-4.451 11.923-4.849 16.153-5.352 28.488-9.658-.139-24.401-1.079-33.514-2.925l-.263-.335c-.245-1.941.551-5.986.875-8.095 2.564 2.693 3.841 3.258 7.036 4.916 2.491-1.339 3.971-1.981 6-4.02 7.009 3.996 17.648 4.9 10.953-6.029 1.979-5.307 3.128-8.091 6.334-12.726"/><path fill="#fefefd" d="M656.418 697.986c14.32 1.928 17.2 13.701 9.601 24.687-2.512 3.631-14.144 12.27-18.364 9.024-.049-3.515 9.036-6.796 11.811-9.664 2.634-2.723 2.484-2.398 4.478-5.75.275-2.493.042-8.018-1.735-9.728-10.983-10.562-13.931 21.875-19.872 21.853l-.743-.841c-.255-9.882 6.108-24.279 14.824-29.581"/><path fill="#fefefd" d="M477.821 734.616c3.211.032 7.797.958 9.411 3.239 10.56 14.929-5.519 26.732-20.482 22.115-3.375-1.041-7.994-.109-9.312-4.034 2.038-2.381 13.905-.811 17.284-.541 7.127-1.141 14.779-6.561 6.776-13.879-5.095-4.657-17.567 6.626-24.111 8.036l-.685-.493c.589-6.728 15.399-12.814 21.119-14.443"/><path fill="#fefefd" d="m628.541 737.166.977-.152c.965 1.255.765.559.58 2.165-3.365 3.909-26.159 5.007-26.172 10.599-.037 16.646 16.435 6.01 21.8-1.459 1.043-1.453 4.95-5.352 5.614-5.738 1.137.672 1.091.88 1.785 2.054-.296 1.955-1.362 2.774-2.692 4.516-5.468 7.104-17.162 18.321-26.835 12.928a12.28 12.28 0 0 1-5.923-7.904c-3.81-16.45 21.335-15.08 30.194-16.869z"/><path fill="#fefefd" d="M416.105 732.58c9.651-.943 19.738 3.824 26.292 11.004.851.933.551 1.676.35 2.739l-.9.546c-5.756-1.762-23.566-18.544-26.504-3.201-.38 1.987.771 4.175 1.889 5.785 7.376 3.891 13.525 1.427 21.219 2.701 1.62.269 1.008 3.159.102 4.42-10.201 2.954-32.968-.816-29.556-15.761.928-4.065 3.81-6.165 7.108-8.233"/><path fill="#fefefd" d="M613.571 704.584c7.856-1.024 12.802 3.224 16.887 9.535 2.05 3.167 5.721 9.7 4.074 13.351-2.635.279-7.317-10.234-9.757-12.48-1.788-1.646-2.498-2.715-4.68-4.288l-.551-.39c-5.848 2.095-7.879 2.854-8.134 9.266 4.268 8.37 11.761 10.467 17.328 14.802l-.107.63c-6.59 3.363-40.04-16.932-15.06-30.426"/><path fill="#fefefd" d="M435.519 725.671c3.833.117 8.986-.028 12.496 1.394 5.414 2.194 4.105 13.068 1.795 17.103l-3.176-.374c-3.399-2.013-15.456-11.188-16.963-14.195-.04-1.978-.289-1.076.867-2.774 1.83-1.157 2.726-1.003 4.981-1.154"/><path fill="#fefefd" d="M450.289 781.707c2.618-.282 15.403-.699 17.3.353.714 1.81.935 1.461.409 2.852-3.186.702-8.514.667-11.974.858-5.66.298-11.303.852-16.913 1.658-4.03.692-14.419 4.461-15.971-.093l.48-.974c8.404-3.682 17.542-3.862 26.669-4.654"/><path fill="#adaeb1" d="M550.321 561.504c.716-.004.278-.057 1.263.394-1.303 2.408-65.446 23.58-73.937 26.364l-1.2.111-.355-.518c2.66-3.082 66.111-23.863 74.229-26.351"/><path fill="#fefefd" d="M439.56 763.705c3.205-.443 8.291-.315 11.544-.005 1.181 1.1.97.579 1.382 1.938-2.66 1.967-18.511 3.373-23.006 3.969-3.409.259-7.499 2.011-10.745.863-1.178-1.464-1.531-2.083-.52-3.577 6.963-2.195 14.072-2.509 21.345-3.188"/><path fill="#fefefd" d="M616.967 713.28c5.445.3 14.382 12.875 12.972 17.373l-1.204.266c-6.274-3.017-20.218-9.605-11.768-17.639"/><path fill="#fefefd" d="M446.012 747.155c10.616.444 12.306 4.927 5.172 13.057-8.582-1.198-13.321-7.147-5.172-13.057"/><path fill="#fefefd" d="M673.388 731.79c.627.383.269.108.948.971-.727 4.422-7.629 10.631-9.944 14.721-3.068 5.422-5.688 10.927-8.724 16.395-.07-.089-.793-.919-.837-1.052-2.741-8.36 13.331-28.099 18.557-31.035"/><path fill="#fefefd" d="M475.369 743.568c2.729-.369 3.556-.435 5.97.79 1.642 2.158 1.501 3.31-.529 5.419-3.149 3.271-6.586 2.918-10.787 2.897-3.572-.125-5.866-.344-9.415-.819 5.312-4.024 8.602-5.658 14.761-8.287"/><path fill="#fefefd" d="M454.578 788.208c2.326-.229 6.348-.2 8.81-.249a139 139 0 0 0 1.596 5.108c-6.022-.079-9.948.015-15.926.732-2.381.465-5.356 1.271-7.763 1.859l-2.391-5.565c5.021-.984 10.567-1.473 15.674-1.885"/><path fill="#fefefd" d="m654.151 734.432.62.04.423.597a13.2 13.2 0 0 1-2.005 4.043c-5.793 8.005-5.641 16.445-11.123 24.659-5.193-3.241 5.502-23.179 7.6-27.15z"/><path fill="#fefefd" d="M657.172 707.329c2.835.289 5.777 2.327 4.998 5.519-1.286 5.273-5.893 8.501-10.044 11.395-1.716.872-1.497 1.143-2.945.801-1.121-3.543 5.691-14.925 7.991-17.715"/><path fill="#fefefd" d="M636.744 730.398c9.481.721 13.459 5.194 3.954 11.307-7.747 2.81-10.846-5.541-3.954-11.307"/><path fill="#fefefd" d="M594.385 692.444c1.346.047.937-.004 2.221.384 3.259 3.015 6.447 10.374 8.511 14.58-1.102 1.603-2.283 3.571-3.344 5.238-2.16-3.075-8.979-15.108-10.568-18.493 1.098-1.275 1.342-1.034 3.18-1.709"/><path fill="#fefefd" d="M445.86 769.706c3.967-.494 13.769-.611 15.665 3.759l-.395.937c-3.433 1.846-6.756.76-10.73.174-6.84-.709-13.086-1.312-19.848-2.546 5.428-.989 9.8-1.778 15.308-2.324"/><path fill="#fefefd" d="m634.878 747.908.318.339c.499 1.927-1.827 23.247-3.384 26.131-.448.831-1.296.875-2.363 1.26-4.19-5.379 2.294-22.36 5.429-27.73"/><path fill="#fefefd" d="M456.811 709.858c1.68.845 2.668 1.893 4.063 3.146-3.145 2.74-6.43 5.644-9.672 8.245-2.002 1.606-2.71 2.64-4.817 2.412-2.316-.053-3.013-.026-5.231-.534 1.829-2.549 12.747-10.96 15.657-13.269"/><path fill="#f1752e" d="M620.292 762.515c1.703 3.056 7.156 7.207 5.454 10.223-1.577.715-3.507.001-5.303-.403-4.261-1.299-5.558-2.178-9.144-4.589 2.83-1.989 5.949-3.577 8.993-5.231"/><path fill="#fefefd" d="M617.998 752.218c-2.955 2.525-7.775 5.134-10.734 1.165-.876-5.412 4.825-6.195 8.787-7.16.683 2.463.775 2.938 1.975 5.138z"/><path fill="#fefefd" d="M433.25 775.465c3.326.026 20.615 1.151 22.667 2.656l-.868.219c-3.728.627-16.653 2.303-19.802 1.527-1.29-1.284-1.469-2.627-1.997-4.402"/><path fill="#fefefd" d="M420.778 739.457c5.775.992 9.118 5.481 4.166 10.006-6.173-1.489-9.742-4.299-4.166-10.006"/><path fill="#f1752e" d="M654.288 749.756c.346-.092.114-.069.665.205-2.209 5.339-3.016 12.06-5.408 16.213-2.484-4.837-2.689-9.701.318-14.479 1.058-1.683 2.53-1.523 4.425-1.939"/><path fill="#fefefd" d="M672.899 739.802c1.886-.062 5.201.306 7.193.462-1.321 2.235-2.811 4.182-4.341 6.274l-7.636-.879c1.475-1.935 3.224-3.964 4.784-5.857"/><path fill="#fefefd" d="M657.577 738.422c1.355.482 3.662.93 5.126 1.266-2.229 3.674-2.696 4.653-6.512 6.465-.974.239-1.989.406-2.978.591l-.768-.562c.049-2.385 3.472-5.827 5.132-7.76"/><path fill="#fefefd" d="M429.81 742.731c2.546 1.224 7.6 3.562 8.718 6.015l-.599.685-9.338.042c.361-2.217.817-4.521 1.219-6.742"/><path fill="#f1752e" d="M679.048 733.084c3.292-.28 6.275-.272 9.573-.29l-5.802 4.275c-1.851.826-5.47 1.343-6.702-.719.402-1.613 1.563-2.197 2.931-3.266"/><path fill="#fefefd" d="M628.775 777.699c.755.276 1.417.612 2.148.952 1.888 2.823 1.118 8.14.922 11.701-1.302-.426-1.078-.353-2.274-1.021-1.845-2.888-1.03-8.05-.796-11.632"/><path fill="#bb6747" d="M465.802 787.765c5.865.066 5.932 2.888 7.91 7.836l-5.327-2.03z"/><path fill="#f1752e" d="M416.814 786.215c.63.06 1.513.243 2.158.356 2.486 2.374 1.53 4.681-.126 7.191-3.591-2.032-3.76-4.266-2.032-7.547"/><path fill="#eeb799" d="M618.848 745.857c2.586-.634 5.445-1.405 8.032-1.92a229 229 0 0 1-8.882 8.281l.028-.857c.582-2.329.639-3.079.822-5.504"/><path fill="#fefefd" d="M436.84 759.192c1.801-.178 3.72-.66 4.697 1.147-1.373 1.161-1.724.811-3.919 1.056-2.291.368-4.39 1.053-6.241-.273l.272-.785c1.728-1.102 3.056-.968 5.191-1.145"/><path fill="#fefefd" d="m643.011 743.472.368.522c-2.771 5.534-4.161 9.059-6.069 14.937-.309-1.095 1.639-10.404 2.003-12.597z"/><path fill="#f1752e" d="M412.493 766.092c2.329 1.345 3.117 4.21 2.033 6.643-2.146-.879-1.661-.346-2.912-2.005-.297-1.967.173-2.685.879-4.638"/></svg>