<svg xmlns="http://www.w3.org/2000/svg" width="1024" height="1024" viewBox="0 0 1024 1024"><path d="M371.753 375.429c-7.045-17.804-7.643-49.751-3.097-68.068 1.411-5.683 5.79-19.179 9.765-23.676 7.521-8.506 10.216-16.554 15.4-26.161a98.4 98.4 0 0 1 35.007-36.979c20.462-12.459 46.993-18.437 70.638-13.14 16.314 3.654 24.638 13.964 36.432 24.269 3.388 2.961 10.426 4.81 14.8 7.189 15.231 8.285 26.125 22.164 34.953 36.695 16.485-2.1 67.173-5.25 60.156 22.718-5.132 20.456-32.67 37.586-49.982 47.522 4.185 18.543 5.813 35.256 1.802 54.068-5.334 25.014-16.326 38.47-37.069 52.1-.867 12.627-2.437 30.075-2.579 42.338 29.387 13.978 57.204 28.825 84.305.574-7.268-10.845-10.474-20.258.203-30.503-.97-6.022-1.385-12.802-.961-18.877 1.52-21.77 7.162-40.939 32.841-39.592 3.327-7.659 4.466-9.437 10.704-15.01-1.046-1.231-2.144-2.795-3.121-4.108 4.656-4.772 9.67-7.695 15.438-10.886l-10.156-11.531c-5.868 3.006-10 6.787-15.01 11-5.674-4.808-9.201-8.668-13.936-14.324 4.124-4.702 10.407-8.675 15.595-12.303-3.422-4.181-6.047-7.986-9.781-12.032-3.016-4.856-7.945-10.867-11.516-16.457l-2.762-4.205c-1.879-2.896-4.992-9.332-.393-11.144 5.166.375 9.355 5.501 12.973 9.14 2.214 2.469 12.771 13.484 15.145 15.297 4.025 3.905 7.118 8.144 10.935 12.043 9.778-3.148 15.452-4.901 25.958-5.784 2.299 2.889 5.397 6.55 7.29 9.608-2.119 3.708-3.289 5.899-4.948 9.807-3.97.73-9.466 1.57-13.187 2.785 2.471 2.634 9.845 11.354 11.787 12.981a76 76 0 0 1 19.462 1.353c3.365-4.35 7.324-8.523 11.229-12.39 3.52-3.154 11.522-12.424 14.901-16.147a231 231 0 0 1 10.75-11.539c4.088-4.335 10.94-10.709 14.302-14.986 3.544-3.463 11.197-12.818 16.339-9.56 2.424 4.622-3.055 11.831-5.525 15.738 4.621 3.903 9.87 8.136 14.173 12.311-2.68 3.557-10.323 11.4-13.924 14.066-3.791-3.191-8.585-7.335-12.714-9.926-2.922 3.617-6.652 8.499-9.645 11.926 3.334 2.608 9.112 6.862 11.913 9.737a168 168 0 0 1-13.61 14.262c-3.788-3.038-7.366-6.005-11.44-8.669-2.88 3.552-6.925 8.182-10.235 11.43 4.823 3.146 6.774 4.646 10.559 8.955-3.739 4.599-9.002 10.465-13.732 14.006-3.819-3.541-5.745-5.356-10.756-7.359l-.674 1.28c.719 1.007.835.996 1.86 1.728 6.623 4.016 9.15 6.139 11.061 13.65 5.123 6.571 9.682 11.411 15.857 17.082 2.373 2.179 4.997 8.338 7.55 10.796 7.051 9.19 15.64 18.382 21.959 28.043-3.268 3.49-7.185 7.9-10.669 11.049-4.927-5.175-9.873-11.828-14.525-17.355-1.543-1.834-6.955-8.354-7.986-10.075-5.488 8.951-47.246 45.037-60.12 49.126-.904.287-6.367 1.022-7.795 1.216-4.702 10.99-12.763 17.145-24.881 11.87-21.702 19.075-36.748 26.86-66.815 25.157-16.928-.958-31.709-6.682-46.991-13.579a1981 1981 0 0 0-2.434 29.301c4.026.241 5.502.284 9.244 2.11 6.208 7.998 6.28 17.904-2.522 23.674-2.972 1.948-5.878 3.271-8.877 5.03 4.29.702 10.281.79 13.004 4.538 4.406 6.067 3.063 18.055-3.556 22.161-3.239 2.009-8.069 3.414-11.707 4.604-.681 11.758-1.987 25.009-2.507 36.421 16.349 15.335 23.654 37.126 34.99 56.015.943 1.572 3.741-.268 4.857 1.464 2.759 3.66 8.645 14.364 10.278 18.483 15.329-21.198 27.326-5.104 35.618 11.311 2.027-9.836 8.498-29.933 22.322-26.575 3.315.805 6.162 3.43 7.811 6.386a18.23 18.23 0 0 1 1.464 13.93c-1.473 4.83-6.373 9.11-9.989 12.689 3.523-.008 10.162-.675 13.105-.366 10.695 1.124 18.836-1.083 29.22-2.784 13.87-2.273 28.406 1.539 38.058 12.088 11.979 12.634 28.832 29.005 11.15 45.442-13.209 12.293-29.892 20.172-45.17 29.583-12.342 7.608-24.349 17.025-36.525 24.762a168.4 168.4 0 0 1-49.599 21.014c-6.705 1.577-24.914 6.044-29.781.16-3.463-4.187-8.202-13.941-6.213-19.394-.628-3.788-4.716-12.529-6.218-16.425-6.746-17.489-14.977-36.231-15.747-55.18-.267-6.571 3.295-11.677 7.535-16.153-6.685-11.5-11.999-25.991-19.594-38.465 4.065-2.154 7.609-4.044 11.845-5.886-5.105-11.879-9.412-21.733-15.728-33.12-.247 6.924-1.264 13.704-6.568 18.908-7.869 7.721-30.664 7.123-38.504-.51-3.994-3.887-5.668-13.163-6.707-18.675-8.806 12.974-16.179 21.03-28.679 30.841 2.664 2.851 4.477 4.86 6.777 8.018-4.559 4.35-7.337 6.249-12.75 9.515 4.783 9.058 3.82 11.765 1.996 21.866 7.737-5.337 18.95-15.339 28.416-13.256 13.176 3.142 12.314 21.622 1.657 27.421-7.346 3.997-14.013-.109-21.383-.043-.501.005-1.21 4.279-1.328 4.92 2.731 6.467 5.201 10 9.223 15.654 1.953 2.746 3.573 10.092 5.922 12.445 10.233 10.252 15.258 11.581 19.484 26.545 3.218 11.399.699 20.967 2.831 31.65-1.704 4.132-4.248 10.583-6.509 14.254-35.516 5.387-71.117-.498-101.046-21.33-13.328-9.277-21.228-24.636-31.821-36.612-10.421-11.781-25.945-23.241-31.871-38.125 1.88-5.316 4.308-11.493 7.41-16.243 1.04-1.592 5.075-3.857 6.477-5.623 13.086-16.454 25.492-35.062 44.974-44.546 3.975-1.935 8.883-3.559 13.244-1.946 1.889.699 3.459 1.928 5.135 3.02 8.027-6.057 28.628-24.023 36.002-27.439.705 1.747 1.58 4.121 2.408 5.754 17.064-15.834 29.189-32.197 31.994-56.179-4.867.564-8.761 1.029-12.987-2.108-6.482-4.811-4.889-15.47-.381-21.032 3.37-4.157 7.629-5.641 12.363-7.489-4.438.076-10.61.307-13.485-3.523-7.647-10.184.115-20.648 8.532-25.892-1.796-6.662-3.003-15.609-4.058-22.562a1831 1831 0 0 1-5.032-35.522c-36.513 7.507-59.526 21.106-79.978 52.259a78 78 0 0 0-1.412 2.227c13.951 10.336 10.598 17.164 1.842 29.261 1.327 4.403 4.744 15.164 5.279 19.458l-1.383 2.076c1.599 8.793 2.507 17.72 2.186 26.668.052 1.75-.094 5.052.59 6.407l.58-.232c-.462 8.168-6.518 17.068-15.476 17.532-11.061.573-11.464-14.247-14.352-17.084-1.203.241-2.99 2.014-2.981 3.059.058 6.359 1.054 10.766-1.526 17.082a20.72 20.72 0 0 1-11.718 11.469c-10.355 3.99-19.001-1.917-22.821-11.613-16.021-.782-26.857-3.139-26.565-22.245-22.962-8.668-14.206-26.022-3.869-40.783 10.818-15.447 24.001-26.382 40.712-34.823-3.494-11.219 1.266-22.18 14.355-21.291 3.825.26 6.125 1.205 9.662 2.537 21.608-38.678 58.864-62.508 102.359-68.935-1.66-10.38-3.608-21.366-4.946-31.747-22.215-10.177-35.162-27.261-43.801-49.354-10.936.43-22.388 1.062-32.448-4.044-14.868-7.546-10.448-23.791-3.866-35.408"/><path fill="#fefefe" d="M342.825 596.904c-5.696-8.069-22.45-23.512-2.537-32.158 3.802-1.651 9.364.211 12.894 2.258-.421.986-1.832 4.571-2.781 5.336-1.359 1.096-.346-1.239-2.556.274.852 7.073 24.712 17.882 28.954 14.216l-1.08-1.472c.487-2.033 2.093-4.116 3.281-5.93 12.195 7.774 10.268 16.713 1.25 26.036-5.427.147-11.326.065-16.786.082 6.994 2.617 8.984 2.664 16.126 1.947 2.862 6.655 4.6 13.684 6.088 20.741 1.599 8.793 2.507 17.72 2.186 26.668-.539 8.213-4.033 26.298-17.87 20.652-4.678-1.909-7.192-10.406-8.303-15.317l4.92-6.642c-8.908 4.062-15.586 11.836-19.673 20.604 3.28-2.465 4.603-3.972 7.198-6.995.704 9.402-.874 19.106-10.892 23.059-4.911 1.938-7.428 2.153-12.411.127-17.501-7.116-4.578-28.614-7.81-37.779l-.78.191c-3.547 6.907-3.039 19.011-2.647 26.714-17.775.039-27.713-6.554-22.367-25.831 1.04-3.75 2.26-8.017 2.897-11.845l-.629-.712.628-.763.069.437-.341-.385c-3.533 4.191-5.243 11.73-6.516 16.893-8.632-4.819-14.662-11.119-10.476-21.532 8.6-21.391 27.406-39.942 48.109-49.674 4.064 6.32 5.113 7.54 11.855 10.8"/><path fill="#f22e2c" d="m652.584 320.255-2.762-4.205c-1.879-2.896-4.992-9.332-.393-11.144 5.166.375 9.355 5.501 12.973 9.14 2.214 2.469 12.771 13.484 15.145 15.297 4.025 3.905 7.118 8.144 10.935 12.043 9.778-3.148 15.452-4.901 25.958-5.784 2.299 2.889 5.397 6.55 7.29 9.608-2.119 3.708-3.289 5.899-4.948 9.807-3.97.73-9.466 1.57-13.187 2.785 2.471 2.634 9.845 11.354 11.787 12.981a76 76 0 0 1 19.462 1.353c3.365-4.35 7.324-8.523 11.229-12.39 3.52-3.154 11.522-12.424 14.901-16.147a231 231 0 0 1 10.75-11.539c4.088-4.335 10.94-10.709 14.302-14.986 3.544-3.463 11.197-12.818 16.339-9.56 2.424 4.622-3.055 11.831-5.525 15.738 4.621 3.903 9.87 8.136 14.173 12.311-2.68 3.557-10.323 11.4-13.924 14.066-3.791-3.191-8.585-7.335-12.714-9.926-2.922 3.617-6.652 8.499-9.645 11.926 3.334 2.608 9.112 6.862 11.913 9.737a168 168 0 0 1-13.61 14.262c-3.788-3.038-7.366-6.005-11.44-8.669-2.88 3.552-6.925 8.182-10.235 11.43 4.823 3.146 6.774 4.646 10.559 8.955-3.739 4.599-9.002 10.465-13.732 14.006-3.819-3.541-5.745-5.356-10.756-7.359l-.674 1.28c.719 1.007.835.996 1.86 1.728 6.623 4.016 9.15 6.139 11.061 13.65 5.123 6.571 9.682 11.411 15.857 17.082 2.373 2.179 4.997 8.338 7.55 10.796 7.051 9.19 15.64 18.382 21.959 28.043-3.268 3.49-7.185 7.9-10.669 11.049-4.927-5.175-9.873-11.828-14.525-17.355-1.543-1.834-6.955-8.354-7.986-10.075l-1.44-.911-18.832-22.499c-4.089-2.055-13.113-18.407-17.639-15.881-4.318 2.41-15.388 16-18.876 20.547-5.341 9.092-10.205 11.98-16.979 19.954-.996 1.143-1.643 1.616-1.779 3.108-2.292.907-16.789 19.364-20.757 22.858-3.353-2.522-7.998-7.434-10.843-10.528 3.876-5.914 18.224-22.103 20.129-26.538 1.727-1.461 1.215-.6 1.907-2.472 1.982-1.201 13.668-15.511 16.253-18.423l1.997-2.207c.955-1.455 4.586-5.381 5.878-6.902 4.141-4.875 8.402-9.603 12.424-14.603-.301-1.945-.654-1.805-2.08-3.608-.261-1.474-12.082-14.236-13.837-16.182l-10.156-11.531c-5.868 3.006-10 6.787-15.01 11-5.674-4.808-9.201-8.668-13.936-14.324 4.124-4.702 10.407-8.675 15.595-12.303-3.422-4.181-6.047-7.986-9.781-12.032-3.016-4.856-7.945-10.867-11.516-16.457"/><path d="M688.482 341.386c9.778-3.148 15.452-4.901 25.958-5.784 2.299 2.889 5.397 6.55 7.29 9.608-2.119 3.708-3.289 5.899-4.948 9.807-3.97.73-9.466 1.57-13.187 2.785-5.044-5.004-10.306-11.082-15.113-16.416"/><path d="M673.881 348.744c3.944 3.837 9.813 11.219 13.351 15.627-5.868 3.006-10 6.787-15.01 11-5.674-4.808-9.201-8.668-13.936-14.324 4.124-4.702 10.407-8.675 15.595-12.303"/><path d="M796.84 323.252c4.621 3.903 9.87 8.136 14.173 12.311-2.68 3.557-10.323 11.4-13.924 14.066-3.791-3.191-8.585-7.335-12.714-9.926 4.295-5.394 8.183-11.199 12.465-16.451"/><path d="M774.73 351.629c3.334 2.608 9.112 6.862 11.913 9.737a168 168 0 0 1-13.61 14.262c-3.788-3.038-7.366-6.005-11.44-8.669q6.51-7.714 13.137-15.33"/><path d="M751.358 378.389c4.823 3.146 6.774 4.646 10.559 8.955-3.739 4.599-9.002 10.465-13.732 14.006-3.819-3.541-5.745-5.356-10.756-7.359a717 717 0 0 1 13.929-15.602"/><path d="M715.382 370.783a76 76 0 0 1 19.462 1.353c-2.122 2.869-6.412 7.576-8.908 10.701a341 341 0 0 1-10.554-12.054"/><path d="M738.615 396.999c6.623 4.016 9.15 6.139 11.061 13.65-1.475-1.055-10.68-11.678-11.061-13.65"/><path fill="#fefefe" d="M642.838 466.645c2.054 4.502 10.344 17.258 15.893 16.379-1.531-3.439-12.423-11.254-13.9-18.686-2.645-14.285-1.647-34.631 6.751-47.066 12.746-18.871 28.646-6.467 41.424 2.132-2.585 2.912-14.271 17.222-16.253 18.423-.692 1.872-.18 1.011-1.907 2.472-1.905 4.435-16.253 20.624-20.129 26.538 2.845 3.094 7.49 8.006 10.843 10.528 3.968-3.494 18.465-21.951 20.757-22.858.136-1.492.783-1.965 1.779-3.108 6.774-7.974 11.638-10.862 16.979-19.954 3.488-4.547 14.558-18.137 18.876-20.547 4.526-2.526 13.55 13.826 17.639 15.881l18.832 22.499c-13.599 14.598-30.533 28.026-46.159 40.523-15.307 12.241-20.158 8.145-37.22 5.409 5.126 2.818 8.591 3.879 14.222 5.699-8.167 16.013-23.452 11.47-35.465 3.327-12.705-8.614-23.862-22.951-12.962-37.591"/><path d="M705.075 431.445c3.488-4.547 14.558-18.137 18.876-20.547 4.526-2.526 13.55 13.826 17.639 15.881-2.795 2.856-1.76 4.941-3.354 8.033-8.457 16.411-27.413 12.787-33.161-3.367"/><path d="M688.096 451.399c.939 4.496 3.523 15.946-2.003 17.978-.696-.696-.916-.634-.74-2.13.701-5.972 1.976-6.727.964-12.74.136-1.492.783-1.965 1.779-3.108"/><path d="M674.846 440.299c-1.634-1.028-3.122-1.728-4.106-3.36l.36-.678c2.135-.21 3.622.702 5.653 1.566-.692 1.872-.18 1.011-1.907 2.472"/><path d="M710.462 448.308c4.705.645 9.715 5.877 11.893 9.977-4.503-.956-10.259-5.642-11.893-9.977"/><path fill="#fefefe" d="M711.225 392.084c1.426 1.803 1.779 1.663 2.08 3.608-4.022 5-8.283 9.728-12.424 14.603-1.292 1.521-4.923 5.447-5.878 6.902-5.258-3.754-12.558-7.742-18.22-11.02 2.169-6.033 5.285-9.557 9.718-13.968 3.311 2.671 5.879 5.647 9.667 8.565 6.184-4.517 8.074-5.863 15.057-8.69"/><path fill="#aeadb1" d="M533.606 312.702c13.546-1.843 33.789 2.448 47.178 5.731 19.254 34.953 25.988 77.523 1.345 112.18-6.451 9.072-14.133 14.357-23.508 19.968-.236 20.653-3.745 41.969-5.579 62.537-.596 6.677-.385 13.278-.693 19.944-.324 7.031-1.244 14.157-2.051 21.15-24.929 9.065-52.267 17.576-77.581 26.09-1.919-8.743-3.422-20.301-4.855-29.32-.977-8.498-2.96-19.104-4.313-27.721 6.904-.043 18.645.876 23.701-4.379 5.191-5.396 3.855-16.662-2.107-21.07-6.773-5.006-18.164-3.185-26.138-2.559-.68-4.566-4.718-25.824-3.791-28.335 1.301-.436 1.606-.557 2.816-1.196-.849-2.06-13.903-7.997-17.761-10.766-24.121-17.314-30.364-37.961-35.537-65.228a142 142 0 0 1 7.688-10c31.036-37.055 72.429-62.657 121.186-67.026"/><path d="M547.825 328.289c2.599.243 3.302 2.767 4.882 4.932 5.634 7.719 12.429 12.16 21.945 13.428 3.155.421 9.591-.334 11.263 2.245-2.16 1.706-6.426 1.568-9.148 1.56 3.126 11.606 2.312 18.989-1.147 30.286 2.777-.587 5.443-1.334 8.242-1.059l.633.894c-.613 2.977-9.024 2.825-12.214 4.481-3.469 1.8-4.741 2.587-7.703 5.03-1.879 1.798-4.758 6.756-6.942 6.886-.563-2.953 1.002-4.472 2.646-6.689-7.998-4.438-10.106-8.617-12.785-16.967 4.4-2.542 10.683-5.46 15.402-7.81l-16.442-6.548c1.286-8.387 2.003-12.38 8.212-18.492-2.992-3.429-7.089-7.416-6.844-12.177"/><path d="m521.875 328.937 1.596.867c1.699 3.212-3.099 9.816-4.759 12.535 9.805 11.833 10.799 30.66 2.051 43.611-2.075 3.072-4.369 4.365-7.468 6.173 1.976 2.557 2.185 2.973 3.287 6.015l-.878 1.073.931-.787-.265.665c-2.916.445-4.65-4.455-6.361-6.238-6.354-6.623-14.549-7.647-23.186-8.464 1.492-3.91 6.615-2.18 10.124-1.705l-2.973-6.962c4.508-2.687 11.48-5.78 16.368-8.182-3.562-1.313-14.13-4.813-16.492-7.044q.207-1.76.361-3.527c-2.212-2.043-7.274 1.43-9.161-1.955l.451-.971c2.35-1.024 4.933-.427 7.507-.741 11.13-1.357 20.716-8.598 26.128-18.266 1.073-1.917 1.719-4.067 2.739-6.097"/><path d="M538.831 407.663c3.43-.37 6.898-.117 10.237.748 4.786 1.237 16.158 6.032 13.836 12.357l-.789.082c-.654-.608-1.258-1.162-1.768-1.887-4.004-5.694-10.792-8.167-17.564-8.317-3.463-.076-6.38.525-9.778 1.363-4.399 1.298-9.184 3.692-12.852 6.551-2.133 1.662-5.707 7.266-7.926 8.217l-.827-.418c-.052-1.834 1.827-4.621 2.95-5.996 6.357-7.78 14.882-11.347 24.481-12.7"/><path d="M537.003 421.066c3.066-.27 4.621-.542 7.279.955l-.002.825c-1.535 1.036-3.773.784-5.721.811-2.518.994-3.392 1.717-5.806 1.08l-.187-.769c1.201-1.704 2.446-1.991 4.437-2.902"/><path fill="#f6762f" d="m476.464 207.704.709-.044c35.316-2.076 57.266 20.734 71.396 50.494 2.056 4.332 3.938 9.789 7.553 12.987l.221-.6c-4.043-12.366-11.191-24.133-18.039-35.15 19.953 8.115 33.92 21.864 44.725 40.461l-11.899 1.475c-68.534 8.91-154.27 38.834-197.911 95.427-7.542-20.044-7.412-56.397 1.534-76.275 10.914-24.254 25.131-36.931 49.622-46.695 20.696-6.909 38.303-3.795 54.43 11.199 4.662 4.334 9.222 9.724 14.213 13.559l.601.454-.287-.547c-6.995-13.111-21.273-24.488-35.503-28.564-21.452-6.144-36.862 2.041-54.968 11.699 10.503-18.238 27.541-33.747 50.101-31.357 20.103 2.13 35.007 18.041 44.804 34.505 3.596 6.045 6.853 13.806 11.212 19.186l.45.549c-2.281-12.544-16.273-32.31-25.107-41.322-23.36-23.83-59.45-18.706-77.976 8.233-4.544 6.607-8.503 13.349-14.143 19.154 13.927-34.896 47.768-55.428 84.262-58.828"/><path fill="#f6762f" d="M604.92 276.717c13.074-.513 45.03-.04 38.358 20.765-6.478 20.202-30.4 35.926-47.811 45.834-1.563-3.638-3.119-8.105-4.536-11.859 21.115-21.354 13.219-36.006-15.907-34.868-65.403 2.557-134.263 23.659-180.502 71.75-17.606 19.936-23.514 34.929 9.924 35.156l2.774 8.959c-10.074.447-26.47 1.169-34.469-5.849-12.614-11.696.795-32.067 9.842-41.531 48.373-50.599 119.437-75.62 187.355-85.273 11.575-1.645 23.315-2.415 34.972-3.084"/><path fill="#f6762f" d="M377.556 727.404c4.226 3.095-.488 31.203 29.331 37.394-4.349 24.373 1.493 39.992 14.913 60.03-4.536 7.244-7.018 12.455-10.303 20.231-5.889-2.848-9.462-5.318-14.706-9.251-8.442-6.648-11.591-15.103-17.988-22.116-15.363-16.843-27.252-23.711-36.79-45.725a167.6 167.6 0 0 1 35.543-40.563"/><path fill="#f6762f" d="M604.194 783.652c4.64 2.644 10.611 4.072 15.802 5.489q.006 7.61.176 15.218l7.571.083a411 411 0 0 1-.224-14.168c12.225 1.002 20.375 2.127 33.073 2.377a75 75 0 0 0 3.26 13.472c-14.845 13.397-29.321 24.702-47.124 33.872-12.292 5.933-23.447 9.435-36.309 13.741-9.159-15.186-18.021-42.426-21.324-59.781 23.082 6.914 27.227 4.507 45.099-10.303"/><path fill="#aeadb1" d="M546.514 616.661c.873 1.959-2.091 30.774-2.443 35.173-17.526 14.177-1.082 36.909-9.659 53.551-5.203 10.096-28.161 8.843-36.778 3.591-8.89-8.37-8.766-20.337-3.447-30.547 7.635-14.656 11.3-32.023 13.566-48.338 12.562-4.738 26.006-9.199 38.761-13.43"/><path fill="#fefefe" d="M457.819 808.181c19.517-2.728 34.924 12.3 38.251 30.637 1.352 7.449 1.114 13.863.722 21.331-13.515.738-26.792.598-40.206-1.314-11.837-1.545-33.234-6.866-42.807-12.867 8.275-21.936 20.281-34.833 44.04-37.787"/><path fill="#fefefe" d="M338.713 768.714c1.352.897 8.218 14.823 11.106 18.368 6.47 8.99 16.712 16.194 23.693 24.375 12.761 14.953 17.082 25.99 35.797 35.396 22.95 12.052 49.503 16.181 75.198 16.244 3.342.008 10.515-1.475 12.427 1.394.03 4.636-2.513 12.962-7.517 14.363-34.183 6.575-92.543-7.654-111.377-37.602-12.248-19.474-37.717-38.77-46.971-56.897 2.07-4.943 4.95-11.084 7.644-15.641"/><path fill="#fefefe" d="m743.745 771.107.781.058c3.514 2.201 4.849 9.232 5.864 13.156a238.9 238.9 0 0 0-79.096 39.192c-10.626 7.879-22.21 18.346-33.461 24.968-16.386 9.644-34.955 15.797-52.107 24.604-2.881-2.242-7.733-11.691-5.93-15.331 3.884-3.19 18.781-7.869 24.333-9.756 25.529-8.679 42.397-24.177 63.071-40.64 20.604-16.408 50.072-31.991 76.545-36.251"/><path fill="#fefefe" d="M698.781 743.666c19.824-2.424 33.492 9.883 43.805 25.151-19.566 4.615-34.423 10.157-51.914 20.016-6.391 3.475-19.118 11.498-24.761 15.767-8.083-27.923 1.258-56.611 32.87-60.934"/><path fill="#aeadb1" d="M552.478 587.554c16.51-1.499 12.437 18.894 5.21 21.959-27.271 11.568-56.486 19.249-84.152 29.814-12.176 1.456-13.165-9.095-9.56-18.031 1.968-4.877 10.458-6.884 15.187-8.461 24.464-8.158 48.716-17.571 73.315-25.281"/><path fill="#aeadb1" d="M552.572 556.067c15.172-1.621 13.653 17.593 5.593 21.546-8.939 4.385-21.284 8.116-30.921 11.378l-54.25 18.451c-16.592 1.542-12.425-18.119-4.852-22.018 8.452-4.352 21.869-8.298 31.154-11.441a4827 4827 0 0 1 53.276-17.916"/><path fill="#fefefe" d="M583.536 710.322c4.182 1.371 11.588 23.013 15.393 27.965 4.596 5.981 5.264 6.828 11.623 11.354-9.565 1.503-23.653 7.379-20.468 19.85 1.586 6.207 6.804 7.827 12.037 10.396l.052.798c-3.538 5.826-16.105 3.505-21.763 1.876-13.018-3.747-17.894-18.887-23.184-30.142a1305 1305 0 0 0-10.571-21.869c1.508-.975 3.628-2.002 5.254-2.851 2.081 4.304 10.805 22.861 15.268 22.956-2.242-5.61-9.726-18.01-13.055-24.124 1.925-1.168 4.073-2.19 6.092-3.209 5.97 9.907 6.825 16.087 15.54 25.931-2.958-8.31-9.166-19.26-13.472-27.354 2.105-1.182 3.895-1.922 6.097-2.874 5.127 7.949 8.877 18.385 15.226 25.129-2.135-6.896-9.454-19.879-13.37-26.317 1.902-1.144 3.979-2.14 5.966-3.146 4.253 7.79 8.688 17.036 14.759 23.324-1.552-6.249-8.906-17.624-12.121-24.667z"/><path fill="#fefefe" d="M439.865 695.466c.776.826 1.659 4.127.982 4.812-7.702 7.79-15.609 13.319-22.098 22.461 6.977-4.47 15.944-13.271 22.751-18.917 1.137 1.855 2.47 4.675 3.491 6.673-8.567 6.994-14.288 11.481-21.361 20.191 6.912-3.778 16.491-12.916 22.469-18.393l4.955 5.254c-7.03 5.898-15.224 12.142-20.233 19.766 4.309-2.42 6.7-4.677 10.463-7.898 3.984-3.538 7.725-6.878 11.899-10.202l4.559 4.394c-5.288 5.101-11.686 9.984-17.366 15.391-6.764.109-7.805-.13-10.211 6.488-13.609-.525-19.746 2.292-18.293 17.249-28.591-18.933-10.923-38.465 9.087-52.885 6.298-4.538 12.495-9.804 18.906-14.384"/><path fill="#f6762f" d="M409.724 764.887c5.402 2.601 9.948 7.295 16.467 8.348 2.596.42 4.585.004 4.751 2.684-2.732 2.914-13.471-.413-16.897 3.59-1.944 1.626-1.726 6.691.55 7.915 4.754 2.555 13.931-1.02 18.88-2.291.694 3.05 1.871 6.217 2.882 9.199-4.303.487-8.345.885-12.596 1.822-8.235 1.816-8.767 9.408-1.364 12.886 6.246-1.58 8.635-4.288 17.279-5.868l3.226 5.693c-9.071 4.123-12.676 7.251-19.388 14.382-12.418-16.473-18.972-38.022-13.79-58.36"/><path fill="#f6762f" d="M396.009 717.04c3.875-.027 4.577.71 7.528 3.251-7.197 11.078-13.058 23.656-3.388 36.01 1.373 1.754 3.299 2.985 4.361 4.946-1.454.44-1.669.035-3.43-.496-15.942-7.646-19.557-19.848-19.714-36.432 4.44-3.529 9.253-5.687 14.643-7.279"/><path fill="#f6762f" d="m658.024 762.468 7.948.053c-4.778 11.479-5.542 15.49-5.528 27.701-9.987-.311-22.887-1.005-32.598-2.763l.792-7.966c3.139 3.027 4.622 5.147 9.205 3.995 4.401-3.875 4.084-4.265 1.795-9.211.806-3.731 1.777-6.924 2.876-10.585 1.351.048 3.777-.251 4.456.355-1.438 3.724-4.598 12.04-4.184 15.863 3.756 6.307 15.082 4.608 9.409-5.739 1.909-4.588 3.35-7.417 5.829-11.703"/><path fill="#f6762f" d="M563.002 771.298c1.675.937 3.276 5.53 6.12 8.018 8.235 7.204 17.784 7.427 27.853 7.116-3.106 2.627-4.366 3.624-7.826 5.716a39 39 0 0 1-6.421 2.313c-8.559 2.235-16.679.417-24.116-4.055-.534-8.472-1.101-12.338 4.39-19.108"/><path fill="#fefefe" d="M647.646 714.522c12.403-.967 17.035 9.829 12.047 20.191-3.063 6.362-10.927 10.789-17.504 12.99-1.534-.415-.86-.023-1.952-1.424-.016-.663-.232-1.331.253-1.686 5.958-4.357 10.414-5.945 14.852-12.177.881-3.475.825-10.624-3.465-11.923-8.788-2.661-11.805 21.298-15.906 22.916l-1.126-.522c-.735-1.314-.758-2.442-.373-3.896 2.604-9.827 4.347-18.459 13.174-24.469"/><path fill="#fefefe" d="M477.272 750.105c1.209-.18 2.773-.316 3.979-.237 12.022.791 12.907 15.906 4.534 22.177-5.369 4.021-11.663 2.604-17.8 1.824-2.58-.329-6.38-1.106-7.936-3.225l.653-.817c4.164-1.584 9.913-.662 14.469-.273 3.762-.464 7.911-.977 9.853-4.789 1.323-2.598.534-8.167-2.747-8.914-6.856-1.563-13.641 4.334-19.686 6.787-1.572.637-1.904.854-3.366.266l.014-1.253c3.365-5.514 12.272-9.354 18.033-11.546"/><path fill="#fefefe" d="M622.525 751.705c.922.249.717.268 1.542.917-3.373 6.025-22.916 3.598-25.741 12.023-.921 2.745 3.026 7.671 5.891 7.527 8.864-.446 14.067-9.982 20.083-15.016 1.421.337.762.007 1.794 1.431.078 2.163-.22 1.747-1.944 3.989-5.629 6.989-17.053 19.085-26.822 12.464a11.23 11.23 0 0 1-4.683-7.315 10.58 10.58 0 0 1 1.998-8.401c6.169-8.154 18.599-5.984 27.181-7.491z"/><path fill="#fefefe" d="M609.723 720.023c5.904.591 8.538 2.685 12.385 7.196 2.329 2.731 9.178 13.562 5.358 16.096-4.008-1.971-12.873-27.549-21.539-12.217-.892 1.579-.178 3.44.33 5.049 5.171 6.836 13.288 10.059 15.518 13.564l-.544.47c-15.818-2.127-34.679-22.141-11.508-30.158"/><path fill="#fefefe" d="M421.585 747.547c6.89-.388 13.336 2.296 18.901 6.225 1.936 1.367 5.827 4.303 6.211 6.628l-.639.688c-3.029.312-12.767-7.643-18.155-8.496-7.434-1.176-10.424 5.973-5.927 11.506 7.584 4.088 14.615.532 20.504 2.742.359 1.333.492 3.176-1.21 3.716-10.067 3.195-32.455-1.301-26.847-16.251 1.452-3.871 3.556-5.082 7.162-6.758"/><path fill="#fefefe" d="M434.691 741.627c16.691-1.101 22.673-.834 17.743 17.216-.565-.061-2.356-.219-2.763-.628-2.706-2.728-15.725-9.971-16.572-12.899.409-2.003.456-1.932 1.592-3.689"/><path fill="#fefefe" d="M454.8 794.707c2.655-.359 12.05-.297 14.494.24 1.015 1.446.944.757.9 2.138-2.858 1.782-22.839 2.3-28.837 3.356l-.797.144c-4.033.568-8.767 2.405-12.64 1.518-1.293-1.114-.87-.421-1.17-2.228 2.867-3.118 22.854-4.716 28.05-5.168"/><path fill="#aeadb1" d="m548.465 584.553.62.111.075.557c-4.375 3.421-61.754 22.058-71.329 25.122-.412-.091-.109 0-.758-.569 3.577-3.387 63.197-22.788 71.392-25.221"/><path fill="#fefefe" d="m448.832 777.221 2.192-.079c3.603-.14 3.236.08 4.991 3.076a568 568 0 0 0-25.967 3.443c-2.034.399-4.272 1.049-6.256.664-1.528-1.351-.885-.549-1.654-2.758l.448-.836c7.688-2.323 18.131-3.078 26.246-3.51"/><path fill="#fefefe" d="M611.54 728.375c4.407 1.532 13.602 13.401 11.705 17.072l-1.412-.049c-5.739-2.473-20.282-10.534-10.293-17.023"/><path fill="#fefefe" d="M663.313 746.877c2.027.113 1.511-.324 2.489.67-.893 4.186-7.361 9.671-9.574 13.55-2.726 4.781-4.915 10.075-7.873 14.707-1.059.449-.522.281-1.963-.044-2.225-6.261 12.164-24.771 16.921-28.883"/><path fill="#fefefe" d="M449.766 761.548c10.489.042 9.342 6.255 4.09 12.646-8.389-1.22-12.45-7.31-4.09-12.646"/><path fill="#fefefe" d="M478.384 758.057c2.684-.181 4.524.24 5.368 2.947-1.011 6.488-9.584 6.162-14.371 5.892l-7.197-.74c5.037-3.409 10.301-6.541 16.2-8.099"/><path fill="#fefefe" d="m463.753 800.702.93.03c1.409 1.156 1.849 3.086 2.488 4.867-8.387-.189-13.446.308-21.54 2.309l-.824.023c-1.156-1.051-2.055-3.675-2.714-5.219 6.83-1.263 14.688-1.606 21.66-2.01"/><path fill="#fefefe" d="M649.645 722.818c11.732 2.901-1.418 13.688-5.706 16.718l-2.048 1.004c-2.493-2.543 5.452-15.26 7.754-17.722"/><path fill="#fefefe" d="m646.944 748.504.502 1.007c-2.146 4.341-4.352 8.093-6.401 12.599-1.97 4.333-3.769 12.094-6.453 15.415-3.638-5.981 4.346-21.144 7.428-26.555 1.526-.911 3.301-1.698 4.924-2.466"/><path fill="#fefefe" d="M629.847 745.532a32 32 0 0 1 1.907-.015c8.022.238 8.918 6.086 2.018 10.555-7.653 2.652-10.772-5.078-3.925-10.54"/><path fill="#fefefe" d="M444.854 783.672c4.358-.744 17.732-1.424 19.7 3.496l-.952.949c-2.189.892-4.325.478-6.754.32-7.424-.84-15.187-1.609-22.537-2.759 3.593-.995 6.867-1.435 10.543-2.006"/><path fill="#fefefe" d="M459.513 725.946c.998.625 2.716 2.255 3.678 3.111-3.257 2.929-10.692 10.501-14.57 10.501-1.739-.08-3.429.066-4.864-.796a330 330 0 0 1 15.756-12.816"/><path fill="#fefefe" d="M628.415 761.877c.389 2.53-2.186 20.906-3.071 24.531-.29 1.189-2.136 1.48-3.347 1.877-1.651-7.076 2.098-20.64 6.418-26.408"/><path fill="#f6762f" d="M613.757 775.994c1.761 2.477 7.51 6.891 5.194 9.575-1.78.557-3.606-.202-5.475-.71-3.195-.949-5.179-2.164-7.829-4.014 2.233-1.643 5.611-3.431 8.11-4.851"/><path fill="#fefefe" d="m609.16 760.528.602.127c1.194 1.187 1.859 3.443 2.499 5.085-2.772 2.348-4.167 2.952-7.618 4.026-8.985-4.2-.173-7.954 4.517-9.238"/><path fill="#fefefe" d="M437.472 788.694c3.442.166 18.719 1.283 21.053 2.624l-.61.568c-6.351.452-12.453 1.138-18.777 1.844-1.019-2.154-1.454-2.732-1.666-5.036"/><path fill="#fefefe" d="M424.437 754.761c6.837-.009 7.916 3.245 5.383 9.014-5.927-.598-10.15-3.007-5.383-9.014"/><path fill="#fefefe" d="M664.708 754.078c1.918.292 4.495.462 6.477.654-1.246 1.844-2.988 4.438-4.753 5.735l-6.802-.621c1.871-2.519 2.889-3.557 5.078-5.768"/><path fill="#fefefe" d="M648.538 753.47c1.83-.053 3.18-.326 4.716.576l.239 1.015c-.968 2.058-2.655 3.412-4.311 5.034l-5.549 1.177c1.819-3.378 2.567-4.795 4.905-7.802"/><path fill="#fefefe" d="M433.698 757.428c2.703 1.398 6.844 3.312 8.557 5.716l-.4.812-9.43.033c.716-2.595.924-3.882 1.273-6.561"/><path fill="#fefefe" d="M622.254 790.247c.797.32 1.703.501 2.09 1.089 1.449 2.198 1.023 8.631.704 11.16-.816-.174-1.162-.359-1.941-.665-1.798-2.798-1.253-8.345-.853-11.584"/><path fill="#f6762f" d="M669.788 747.474c2.562.172 6.43.042 9.083.019l-4.278 3.365c-1.958 1.015-4.921 2.19-6.676.497-.079-1.56.918-2.529 1.871-3.881"/><path fill="#f6762f" d="m422.832 798.27.874.692c1.197 3.538 1.762 5.114-1.395 7.352-1.597-1.633-2.186-2.319-2.214-4.526.587-1.797 1.341-2.244 2.735-3.518"/><path fill="#f6762f" d="M467.892 800.8c1.003.038 1.864.144 2.857.25 2.264 1.523 3.19 4.231 4.402 6.742-5.302-1.416-5.115-2.107-7.259-6.992"/><path fill="#fefefe" d="M435.686 773.712c2.833-.214 6.745-.578 9.344.448l.179.641-1.365.568c-2.348.171-7.351.756-9.179-.162l-.009-.837z"/><path fill="#fefefe" d="m635.388 757.491.347.553c-1.994 5.075-3.847 9.02-5.799 14.398l-.153.034c-.2-2.293 1.427-7.23 1.936-9.691.537-2.603 1.511-3.809 3.669-5.294"/><path fill="#fea060" d="m618.179 758.485.47.053.288.638c-1.149 1.99-3.259 3.715-4.979 5.33l-.572-.534c-.654-2.17-.786-1.229-.167-2.974 1.564-1.52 2.872-1.775 4.96-2.513"/><path fill="#f6762f" d="M417.742 779.662c2.324 1.494 2.268 4.567.881 6.716-1.544-.993-2.092-1.149-2.721-2.878.108-1.942.632-2.312 1.84-3.838"/><path fill="#fea060" d="M621.139 769.892c.517 1.934-.649 4.921-1.673 6.609l-.884.215c-.473-.624-.878-1.248-1.317-1.896.474-2.234 2.06-3.203 3.874-4.928"/><path d="M662.402 314.046c16.254-8.197 34.97-14.638 53.369-14.583 2.112 2.408 3.122 3.953 4.404 6.935l-9.456 14.006c-11.44.781-22.786 4.16-33.172 8.939-2.374-1.813-12.931-12.828-15.145-15.297"/><path d="M737.719 300.29c14.499 1.721 36.52 8.363 48.307 16.784-3.362 4.277-10.214 10.651-14.302 14.986-12.809-7.604-28.174-10.903-42.782-12.731 3.483-4.641 7.83-7.465 11.181-12.761-.725-2.257-1.501-4.104-2.404-6.278"/><path d="M727.804 335.008c13.238 1.075 21.016 3.279 33.17 8.591-3.379 3.723-11.381 12.993-14.901 16.147-7.037-2.658-10.513-3.232-17.849-4.514 2.192-3.17 4.184-6.311 6.249-9.566-2.71-3.926-4.416-6.489-6.669-10.658"/><path d="M633.726 335.394a92.6 92.6 0 0 1 18.858-15.139c3.571 5.59 8.5 11.601 11.516 16.457-5.715 4.262-10.957 8.769-16.509 13.216-4.596-3.776-9.885-9.959-13.865-14.534"/><path d="M387.061 626.158c1.871 9.125 4.359 25.956 1.973 34.919l-.58.232c-.684-1.355-.538-4.657-.59-6.407.321-8.948-.587-17.875-2.186-26.668z"/></svg>