<?xml version="1.0" encoding="utf-8" ?><svg xmlns="http://www.w3.org/2000/svg" xmlns:xlink="http://www.w3.org/1999/xlink" width="1024" height="1024" viewBox="0 0 1024 1024"><path d="M469.057 168.7C476.945 167.402 488.759 168.753 496.088 170.401C512.826 174.165 523.683 184.976 535.375 196.475C537.847 198.906 546.431 201.122 550.333 203.32C566.211 212.261 578 226.215 587.397 241.596C602.675 240.927 616.572 239.093 631.913 242.604C636.976 243.592 646.417 246.967 648.662 252.056C660.491 278.873 613.806 305.99 597.977 314.931C605.319 346.187 604.563 381.926 583.22 407.815C576.814 415.586 569.653 420.628 561.071 425.697C560.364 440.824 559.363 455.936 558.067 471.024C578.061 473.823 594.772 475.422 614.997 475.354C635.63 475.285 654.817 472.87 675.106 471.487L675.277 470.835C678.929 457.443 686.232 451.978 699.872 456.606C705.242 449.951 709.707 446.475 717.645 443.308C733.76 436.878 730.709 429.13 736.643 416.044C738.095 412.842 740.327 409.797 743.754 408.579C747.649 407.194 752.389 408.317 755.945 410.158C760.843 412.694 763.789 416.89 765.339 422.119C769.721 436.896 759.282 440.888 754.435 450.444C753.693 451.907 753.38 453.342 753.97 454.932C757.951 465.657 799.686 473.13 811.091 478.78C818.559 482.48 826.735 489.038 829.336 497.251C830.934 502.295 830.136 506.289 827.776 510.842C834.974 525.957 828.005 539.033 810.291 536.637C793.329 549.034 768.971 542.338 750.489 537.03C733.987 532.291 717.731 526.084 704.53 514.962C690.114 520.1 683.576 513.989 677.226 501.612C636.851 506.897 595.931 506.447 555.681 500.276C554.78 509.802 553.49 522.735 553.46 532.146C557.647 532.659 560.346 532.864 563.463 536.089C568.975 542.266 568.928 550.537 563.774 556.898C561.047 560.263 552.983 562.11 553.119 564.894C554.908 565.958 558.742 565.335 562.532 567.317L563.136 567.641C567.232 573.373 568.92 580.208 565.557 586.812C562.243 593.32 555.483 595.102 549.061 597.189C546.785 611.928 547.666 618.149 550.092 632.411C551.215 639.018 552.154 645.655 552.907 652.315C554.682 667.698 556.526 693.956 556.602 709.349C563.657 710.706 565.132 711.623 566.026 719.344C567.051 728.205 567.511 737.002 567.519 745.921C581.031 746.156 586.128 750.421 586.159 763.963C591.53 765.598 592.551 765.747 595.877 770.207C603.278 771.649 604.4 771.563 608.84 777.489C616.6 777.687 619.049 778.913 622.885 785.363C624.572 785.384 626.257 785.475 627.936 785.636C655.123 788.252 668.594 809.574 670.674 835.087C671.137 840.765 673.784 854.336 668.145 857.488C646.323 869.689 606.416 868.629 582.619 865.57C564.151 864.257 534.777 856.808 517.311 851.472C517.116 855.394 517.134 862.7 514.851 865.653C511.866 869.515 501.297 872.725 496.482 873.632C469.014 878.803 425.47 879.87 400.542 866.357C397.251 864.572 393.025 859.907 392.757 856.154C391.055 832.238 398.928 806.284 407.089 783.994C409.385 777.724 411.822 770.519 415.278 765.191C418.391 760.391 421.7 758.901 426.837 757.932C428.136 746.597 431.676 724.82 434.866 713.219C435.299 711.647 440.13 710.572 442.078 709.829C444.003 701.944 445 688.152 446.623 679.344C450.181 660.039 454.308 641.369 458.927 622.293C454.084 617.168 453.286 610.713 455.957 604.142C458.787 597.179 464.639 594.977 471.068 592.256C459.756 592.163 451.844 588.463 454.904 574.69C456.299 568.408 460.487 564.977 465.838 561.835C465.061 554.872 463.315 545.946 462.163 538.903C460.063 526.35 458.206 513.758 456.593 501.133C421.987 509.797 382.526 507.046 347.437 504.639C342.158 516.464 334.173 524.21 320.7 518.697C301.49 535.601 238.455 562.135 216.822 543.242C200.016 546.964 190.762 535.459 197.105 519.642C192.473 512.09 192.975 504.571 198.653 497.568C215.209 477.147 246.99 480.171 266.268 463.797C270.909 459.818 266.53 454.791 262.569 451.406C248.219 439.144 251.478 415.131 272.553 414.22C285.063 413.679 285.13 438.374 293.786 443.677C305.169 450.65 310.721 448.568 321.322 460.338C336.817 454.644 342.021 460.94 347.858 474.419C384.902 477.479 415.19 480.451 451.769 472.191C450.032 461.189 448.355 450.177 446.736 439.157L445.852 438.75C423.268 428.147 408.709 410.287 400.461 387.134C397.484 387.625 394.264 387.872 391.255 387.875C359.698 387.906 347.298 376.096 361.801 346.221C359.649 339.461 357.574 327.75 356.577 320.434C353.617 298.705 356.44 274.259 366.658 254.634C369.167 249.814 374.596 244.307 376.691 240.244C382.33 229.302 386.173 219.093 394.156 209.287C413.735 185.24 438.774 172.34 469.057 168.7ZM479.148 717.818C478.31 721.351 477.697 730.317 479.415 733.512C479.726 738.867 478.696 752.796 478.612 759.077C487.287 764.928 487.625 771.846 490.862 781.144C493.655 789.164 496.861 796.488 501.375 803.708C502.39 791.831 502.613 775.283 508.064 764.722C510.295 760.401 513.639 758.97 518.043 757.821C517.67 750.967 515.998 718.034 519.079 713.924C520.64 711.843 523.866 711.585 526.218 711.253C525.768 707.441 525.601 704.307 525.439 700.461C486.237 707.006 487.963 690.174 480.872 659.33C476.959 674.426 474.575 696.758 472.736 712.565C476.274 714.149 477.493 714.368 479.148 717.818Z"/><path fill="#AFADB2" d="M534.323 280.708C547.556 279.033 569.103 283.555 582.277 286.794C602.002 322.627 609.1 365.063 585.44 401.374C578.836 411.51 569.608 418.127 559.386 424.241C559.001 428.883 558.731 433.854 558.533 438.524C557.673 458.873 553.264 479.371 552.867 499.66C552.638 511.404 551.864 521.821 550.664 533.438C523.408 542.724 496.099 551.852 468.739 560.823C465.157 542.838 461.582 519.01 459.062 500.743C463.084 499.851 465.35 499.336 469.175 497.918C478.706 492.422 482.582 479.648 472.308 472.545C466.699 468.667 460.335 470.171 454.149 471.399C453.48 467.559 449.472 444.106 450.298 441.856C451.529 441.567 452.303 441.537 453.244 440.736C452.399 438.722 438.073 432.227 434.057 429.305C408.954 411.039 402.041 389.51 396.938 360.896C423.078 326.637 460.669 296.254 503.203 285.867C496.315 293.997 489.437 301.571 478.724 304.966C476.518 305.665 474.491 305.621 473.005 307.498C473.357 309.056 472.959 308.429 474.308 309.395C485.321 310.134 498.708 301.581 504.451 292.419C506.137 289.73 506.036 288.891 505.354 286.119C508.496 283.301 529.095 281.139 534.323 280.708Z"/><path d="M497.258 309.623C525.5 308.639 529.317 364.111 503.031 372.208C475.925 374.267 468.925 318.08 497.258 309.623Z"/><path fill="#FDFDFD" d="M496.689 312.558C499.053 312.408 499.443 312.372 501.748 312.743C494.517 321.05 494.594 321.796 492.355 332.839C497.435 335.445 503.798 338.096 509.086 340.549C503.508 342.984 497.824 344.749 492.155 347.43C492.943 353.473 494.348 357.874 496.96 363.314C498.098 365.114 500.184 367.428 501.61 369.115L501.178 369.436C493.53 369.697 487.82 363.519 485.189 356.899C479.235 341.918 479.9 319.82 496.689 312.558Z"/><path d="M558.791 307.077C586.795 304.797 592.022 362.735 565.13 369.428C541.365 370.663 536.828 334.307 545.518 318.282C548.799 312.231 552.234 309.057 558.791 307.077Z"/><path fill="#FDFDFD" d="M560.645 309.639C562.124 309.795 562.146 309.748 563.499 310.312C556.605 318.079 556.329 320.216 554.19 330.454C559.371 333.04 565.877 335.676 571.275 338.144C565.624 340.574 560 342.417 554.359 345.083C555.662 352.197 556.472 356.265 560.237 362.399C561.467 363.72 562.597 364.669 563.195 366.347L562.601 367.15C559.878 367.41 554.24 364.128 552.495 362.246C540.151 348.932 540.024 313.922 560.645 309.639Z"/><path d="M537.007 387.2C541.703 387.014 546.386 387.807 550.759 389.527C557.845 392.367 563.001 397.024 565.788 404.264C566.408 405.873 566.565 406.148 565.99 407.373C563.1 407.112 561.695 401.946 559.075 398.766C557.293 396.646 555.133 394.877 552.704 393.548C543.87 388.689 533.489 390.076 524.312 392.912C513.133 397.266 507.359 403.1 499.925 411.932C499.271 412.709 498.851 412.654 497.99 412.592C497.666 410.18 500.385 406.858 501.937 405.076C511.33 394.29 522.853 388.318 537.007 387.2Z"/><path d="M549.416 283.991C553.555 285.244 560.553 293.695 566.785 296.486C571.407 298.555 579.006 299.703 581.754 301.464C582.164 303.04 582.143 302.195 581.204 304.071C573.628 304.126 566.18 302.117 559.66 298.26C555.69 295.962 544.969 289.091 549.416 283.991Z"/><path fill="#F57730" d="M473.848 170.718C505.526 168.297 530.404 189.065 544.356 215.754C548.123 222.96 552.258 233.448 557.297 239.523C554.34 226.548 544.896 211.836 537.963 200.224C559.17 207.739 573.227 223.463 584.91 242.145C529.214 248.579 453.186 268.513 407.563 302.759C406.208 299.749 404.6 295.46 402.234 293.323C398.135 293.189 380.078 308.003 378.666 311.661C378.768 315.531 381.034 319.123 382.846 322.565C375.507 329.425 369.702 335.649 363.664 343.667C357.038 323.333 355.603 290.878 362.876 270.716C372.5 244.037 385.045 230.832 409.629 218.493C433.479 207.486 455.556 208.393 475.24 227.088C480.005 231.614 485.386 237.857 490.561 241.626C478.062 218.127 449.612 203.349 423.773 210.561C412.772 213.632 404.802 217.703 394.918 223.082C405.411 203.581 427.059 186.119 450.496 190.546C477.661 195.678 492.384 220.981 504.287 243.399C504.805 244.376 505.134 244.685 506.11 244.81C507.046 241.758 503.016 235.821 501.549 233.145C489.625 211.409 472.769 188.896 445.758 187.631C427.372 186.77 410.058 196.82 399.439 211.452C393.768 219.266 390.813 225.44 383.554 232.1C399.725 195.419 434.354 173.656 473.848 170.718Z"/><path fill="#FDFDFD" d="M746.075 410.511C749.081 410.516 750.94 410.668 753.732 411.973C757.823 413.857 760.992 417.298 762.535 421.53C768.994 439.56 745.862 447.921 751.33 456.126C761.7 471.687 796.516 472.799 812.06 482.135C822.54 488.429 830.926 496.359 826.316 508.585C812.975 494.615 793.683 491.393 775.019 489.858C775.464 487.317 775.809 485.354 775.034 482.903L774.378 483.055C772.279 486.724 771.342 492.062 769.866 496.203C768.081 501.207 766.254 505.057 763.935 509.766C767.645 511.155 774.812 513.752 778.775 514.16C787.331 514.984 794.896 513.972 802.895 517.974C809.61 521.333 812.741 526.112 808.571 533.27C806.082 537.542 800.688 539.279 796.066 540.324C776.616 543.863 748.4 534.615 730.03 527.255C716.994 522.032 704.261 514.495 698.282 501.164C696.364 496.887 696.548 494.253 695.139 490.847L694.295 490.537C689.789 494.761 699.952 509.423 702.724 512.987C690.489 516.533 684.098 511.349 679.483 499.89C675.099 489.009 675.447 475.747 680.109 465.035C682.462 459.63 692.052 455.319 697.295 457.792C699.699 461.808 692.612 467.29 696.323 469.554C697.429 468.761 698.476 466.095 699.016 464.903C704.559 452.675 710.07 448.47 722.504 444.012C733.882 439.933 735.104 427.816 738.482 418.15C739.919 414.037 742.01 412.168 746.075 410.511Z"/><path d="M712.427 471.137C713.609 471.007 714.795 470.916 715.982 470.865C726.985 470.463 748.455 482.264 748.879 493.78C748.359 493.585 747.839 493.39 747.319 493.196C743.2 487.676 737.782 481.552 732.002 477.969C725.521 473.952 719.96 474.911 713.04 472.998C712.408 472.824 712.507 471.729 712.427 471.137Z"/><path fill="#FDFDFD" d="M271.052 416.578C279.124 417.385 282.053 424.442 283.786 431.279C288.846 451.248 301.385 447.332 314.843 457.245C318.25 459.755 323.842 471.738 326.275 472.887L326.904 472.619C327.455 469.961 325.226 466.611 324.022 464.182C324.481 460.837 330.706 460.275 333.057 460.866C346.404 464.257 348.802 486.908 346.295 498.058C343.311 511.325 337.302 520.257 322.55 516.84C325.958 512.245 333.715 500.286 330.469 494.76L329.545 494.62C328.309 496.152 328.351 499.278 327.76 501.3C321.786 521.754 298.592 530.734 280.547 537.938C265.306 544.021 248.903 547.572 232.377 546.959C226.756 546.186 219.514 544.407 217.22 538.979C210.086 522.106 239.125 520.952 249.094 519.724C252.57 519.296 258.401 516.647 261.233 515.313C259.226 510.883 256.744 506.39 254.898 501.883C253.15 497.612 251.737 493.378 249.935 489.084L249.041 488.835C247.857 491.049 248.881 493.787 249.491 496.23C235.177 496.776 217.196 501.507 205.427 510.161C202.909 512.013 201.358 515.343 198.132 515.631C194.786 512.574 197.134 504.901 199.181 501.635C214.501 477.185 252.921 484.31 270.025 462.574C273.663 458.084 266.734 451.979 263.546 448.947C252.506 438.446 253.456 420.393 271.052 416.578Z"/><path d="M304.798 475.123C306.582 474.978 308.625 474.953 310.097 476.067L309.86 476.906C307.944 478.332 303.998 478.345 301.395 478.949C290.864 481.396 284.787 488.4 279.098 496.75C277.837 498.527 278.612 498.162 277 498.491L277.03 498.763L276.592 497.957C278.485 486.463 293.905 477.058 304.798 475.123Z"/><path fill="#F57730" d="M603.96 243.288C616.396 242.08 654.753 242.015 647.873 264.316C641.248 285.788 616.309 301.829 597.525 312.683C596.052 308.493 594.381 304.242 592.802 300.08C597.863 294.532 605.103 286.897 605.451 278.961C605.617 275.53 604.293 272.194 601.82 269.81C596.207 264.337 585.168 263.429 577.686 263.688C509.308 266.06 436.074 287.92 387.215 337.64C381.402 343.831 372.227 355.225 371.27 363.847C369.999 375.299 389.412 375.439 396.736 375.529L399.544 384.943C389.223 386.005 371.371 386.049 363.252 378.941C349.198 366.638 365.015 344.556 374.09 335.068C430.079 276.532 525.118 246.524 603.96 243.288Z"/><path fill="#AFADB2" d="M546.036 598.504L546.753 599.011C546.771 601.553 546.543 604.13 546.305 606.666C544.737 623.425 544.187 640.391 541.392 657.003C540.351 663.197 538.107 669.253 536.894 675.42C536.167 679.113 536.595 682.981 535.773 686.657C533.374 695.39 526.084 699.026 517.553 699.207C505.353 699.466 496.407 700.333 489.792 688.425C487.71 682.835 488.004 677.738 486.494 672.591C481.57 655.807 479.184 639.928 476.74 622.687C483.159 620.161 491.414 617.528 498.014 615.209L546.036 598.504Z"/><path fill="#FDFDFD" d="M453.788 798.188C467.642 796.077 485.311 800.963 495.986 810.064C506.328 818.983 512.732 831.623 513.806 845.237C502.166 852.803 479.347 854.967 465.266 855.485C447.95 855.528 419.032 853.838 403.648 845.902C406.595 817.258 425.824 801.22 453.788 798.188Z"/><path fill="#F57730" d="M516.894 760.518C517.784 761.785 517.523 766.498 517.541 768.363C524.765 780.962 536.461 776.766 546.908 771.552C548.23 773.16 549.39 774.233 550.884 775.669C550.313 776.258 548.152 778.519 548.008 779.189C544.587 795.173 558.907 784.631 563.653 781.618C560.719 785.209 554.502 792.018 560.684 796.114C565.331 797.238 569.581 793.241 573.593 790.889L575.545 791.733C575.075 794.145 571.251 796.361 571.48 798.892C572.555 810.746 583.958 801.236 587.707 797.666C589.222 798.332 590.807 799.166 592.297 799.908C587.521 804.96 585.897 807.577 582.995 813.79C578.435 823.974 577.665 834.506 577.6 845.459C556.116 842.305 534.282 838.501 513.884 830.788C511.224 821.559 507.905 816.178 505.119 809.658C502.184 802.79 506.359 773.134 509.645 766.316C511.386 762.704 513.369 761.804 516.894 760.518Z"/><path fill="#FDFDFD" d="M622.309 788.175C643.663 785.429 662.677 803.879 666.588 823.678C667.512 828.354 667.945 831.693 668.223 836.492C658.185 844.135 637.979 845.847 625.622 846.87C612.193 847.647 593.593 847.74 580.323 845.586C579.611 816.955 591.051 791.717 622.309 788.175Z"/><path fill="#AFADB2" d="M554.597 568.112C565.832 567.74 566.476 580.05 562.248 587.501C559.651 592.077 547.274 595.446 541.924 597.339C532.404 600.713 522.865 604.031 513.306 607.294C501.354 611.38 479.522 619.615 467.866 622.537C452.534 622.709 456.239 601.812 464.699 598.529C477.595 593.526 491.282 589.108 504.412 584.57L536.104 573.672C541.04 572.004 549.655 568.888 554.597 568.112Z"/><path fill="#AFADB2" d="M552.525 535.577C568.786 533.296 567.349 554.158 557.325 558.548C546.234 563.405 533.681 567.207 522.105 571.051L468.899 589.195C453.202 591.834 454.717 570.503 464.531 565.864C474.028 561.375 485.191 558.123 495.204 554.745C514.275 548.249 533.382 541.86 552.525 535.577Z"/><path fill="#FDFDFD" d="M514.76 834.12C523.848 836.633 531.15 839.174 540.753 841.448C577.051 850.042 634.593 855.927 668.988 839.854C669.515 844.182 669.87 849.783 668.726 853.989C654.778 864.937 620.449 865.478 602.577 864.901C573.932 863.975 544.659 857.232 517.289 849.127C516.85 844.829 515.481 838.61 514.76 834.12Z"/><path fill="#FDFDFD" d="M395.043 842.903C398.793 846.523 403.623 849.26 408.566 850.827C438.178 860.218 486.603 861.638 514.559 848.203C514.781 854.565 514.731 857.608 513.459 863.805C496.377 879.298 415.942 878.789 397.459 860.754C393.944 857.324 394.916 847.789 395.043 842.903Z"/><path fill="#FDFDFD" d="M561.919 713.872L562.112 713.937C564.637 716.637 565.48 741.338 565.614 746.405C552.373 749.77 544.144 753.845 546.74 769.116C537.431 773.486 527.318 778.53 520.587 767.405C520.251 756.296 520.048 745.184 519.981 734.07C519.951 728.867 519.781 723.576 520.266 718.401C520.526 715.634 522.115 714.188 524.897 714.176L524.958 714.674C523.625 715.424 523.077 715.545 522.101 716.658C523.167 717.977 524.189 718.163 525.804 718.796L526.502 719.065C526.42 728.151 525.54 741.673 528.152 749.839C528.791 745.206 528.989 743.681 529.01 738.921C528.969 732.406 528.654 726.038 528.676 719.441C530.92 719.78 533.565 719.971 535.853 720.194C536.19 726.727 535.734 744.949 538.463 749.598C539.736 745.434 538.511 726.628 538.469 720.513L545.68 720.345C546.099 726.959 546.166 741.731 548.208 747.012L548.654 747.057C549.646 742.646 548.529 725.885 548.429 719.928L555.165 718.654C555.821 724.296 555.481 741.4 558.266 744.713C559.878 742.289 557.706 721.87 557.356 717.951C559.83 716.684 560.837 716.367 561.919 713.872Z"/><path fill="#FDFDFD" d="M249.937 497.918C250.065 498.005 257.021 512.37 257.78 513.875C246.702 518.853 241.067 517.317 229.691 519.642C223.76 520.854 214.218 525.769 213.79 532.559C213.582 535.867 214.938 538.207 213.251 540.967C211.35 541.926 209.349 541.525 207.13 541.399C206.475 541.153 205.845 540.858 205.208 540.622C196.696 537.472 195.933 527.293 200.068 520.105C207.293 507.883 223.539 503.633 236.397 500.542C240.9 499.459 245.511 499.281 249.937 497.918Z"/><path fill="#FDFDFD" d="M774.586 491.293C777.342 492.949 793.407 494.851 798.725 496.464C808.891 499.221 820.096 502.97 825.601 512.798C830.398 521.361 829.154 529.099 820.236 533.862C816.632 534.742 815.206 534.55 811.519 534.45C818.663 513.018 793.253 512.135 779.369 511.434C775.944 511.261 770.843 509.384 767.674 508.114C770.76 502.271 772.438 497.457 774.586 491.293Z"/><path fill="#F57730" d="M424.503 760.354L425.715 760.762C426.214 761.928 425.416 771.586 425.813 775.152C420.096 780.244 421.815 786.766 420.3 793.557C419.591 796.731 415.811 800.649 419.733 803.794C423.505 804.482 426.687 800.525 430.194 799.036C448.897 791.096 470.033 790.342 487.857 801.132C467.964 795.084 460.739 792.121 439.023 798.34C415.74 806.39 404.87 820.808 400.997 844.655C400.14 843.892 396.368 840.591 396.394 839.7C397.118 814.879 407.667 786.477 418.734 764.39C419.536 762.79 423.374 760.89 424.503 760.354Z"/><path fill="#F57730" d="M448.962 750.205C466.885 749.73 473.648 753.976 475.458 772.076C467.332 769.428 462.838 768.664 454.298 768.501C444.171 768.67 437.581 769.71 428.442 774.051C428.185 759.237 433.937 751.585 448.962 750.205Z"/><path fill="#FDFDFD" d="M473.68 715.4C475.183 715.618 474.643 715.486 476.029 716.257C479.901 721.217 476.731 751.489 476.383 759.596C468.807 748.681 461.556 747.65 449.155 747.572C450.9 740.978 451.974 728.664 452.774 721.434C455.199 721.51 457.515 721.352 459.689 722.305L459.959 723.547C459.493 728.398 457.963 741.058 458.789 745.396L459.398 745.706C461.066 742.828 462.082 726.455 462.613 721.83L469.517 721.598C469.342 725.077 467.21 744.802 469.191 746.738C471.827 743.374 470.991 726.84 471.883 722.186C472.315 719.936 474.959 720.809 476.093 718.483C475.794 716.914 474.925 716.455 473.68 715.4Z"/><path fill="#F57730" d="M568.866 748.667C580.84 747.6 583.316 754.377 584.081 764.514C575.113 764.653 568.409 766.378 560.29 770.003C557.864 771.267 555.414 772.618 553 773.917C544.683 766.233 547.87 755.968 557.573 751.634C561.697 749.792 564.472 749.313 568.866 748.667Z"/><path fill="#FDFDFD" d="M439.353 712.243L440.361 712.741C438.623 714.503 439.058 712.844 438.179 715.332C439.134 717.188 439.494 716.925 441.626 718.218C439.791 728.024 437.957 736.75 438.468 746.789C441.088 740.406 442.614 726.461 443.782 718.988L450.629 720.916C450.02 724.778 449.605 728.989 449.145 732.895C448.514 737.831 448.176 742.799 448.131 747.775L447.706 747.818C438.509 748.852 434.202 751.513 428.554 758.471C431.941 745.978 432.87 728.679 436.16 715.861C436.719 713.683 437.424 713.222 439.353 712.243Z"/><path fill="#FDFDFD" d="M449.859 786.193C459.091 784.648 484.125 787.719 489.089 796.69L488.774 797.581C487.253 797.87 486.576 797.034 484.767 796.201C476.586 792.438 467.923 790.95 459.037 790.501C450.304 790.506 440.257 791.968 432.215 795.543C429.636 796.689 423.703 799.808 421.414 800.115L420.933 799.317C421.568 791.095 443.261 786.929 449.859 786.193Z"/><path fill="#FDFDFD" d="M452.697 778.215C460.042 777.965 480.286 780.392 484.146 787.573L483.602 788.274C480.703 788.003 475.528 785.649 472.477 784.876C465.738 783.168 459.235 782.949 452.377 783.172C445.54 783.64 439.678 784.799 433.114 786.905C429.912 787.932 425.831 791.245 423.019 790.977L422.621 790.09C424.487 781.578 445.45 778.641 452.697 778.215Z"/><path fill="#FDFDFD" d="M606.096 780.626C609.878 780.286 616.686 779.455 618.678 783.622C616.613 784.882 608.095 785.616 605.202 786.424C597.045 788.702 591.053 792.258 584.28 797.065C582.133 799.001 577.461 803.518 574.96 799.959C574.642 789.93 598.102 782.183 606.096 780.626Z"/><path fill="#FDFDFD" d="M593.487 773.2C596.454 772.972 603.49 772.866 604.522 776.504C603.332 777.319 599.3 777.358 597.678 777.523C586.609 778.651 577.618 784.001 568.919 790.584C566.628 792.32 564.524 794.08 561.684 792.628L561.314 791.445C562.851 781.372 584.444 774.086 593.487 773.2Z"/><path fill="#F57730" d="M400.562 295.958C401.835 296.874 404.467 302.051 405.715 303.98C398.112 309.478 392.379 313.823 385.372 320.045L385.103 320.211L384.323 319.989C382.663 317.288 381.986 314.845 380.982 311.849C385.326 307.283 395.323 299.795 400.562 295.958Z"/><path fill="#FDFDFD" d="M578.771 767.171C581.786 766.683 590.91 766.685 592.296 769.926C590.361 771.337 579.873 771.647 576.51 772.68C569.863 774.723 566.516 776.388 560.768 780.174C557.777 782.262 554.317 785.432 550.58 783.576L550.234 782.291C552.739 773.09 570.474 768.284 578.771 767.171Z"/><path fill="#FDFDFD" d="M449.367 771.202C454.976 770.796 481.267 772.412 480.398 780.6C470.211 777.36 466.693 776.079 455.955 775.546C445.392 775.414 435.871 777.337 426.656 781.928C425.528 782.49 425.26 782.175 424.314 781.684L424.596 780.634C430.367 774.063 441.065 772.005 449.367 771.202Z"/><path fill="#F57730" d="M477.712 761.821C486.027 765.122 488.014 783.1 491.742 791.179C495.394 799.094 500.652 806.209 504.085 813.668C503.028 813.523 502.583 812.719 501.62 811.784C496.794 807.075 494.17 805.121 488.37 801.647C496.158 797.079 490.156 795.268 487.364 790.606C486.673 789.452 487.99 787.914 487.534 786.683C486.972 785.164 485.17 784.567 484.43 783.139C482.444 776.932 484.167 777.307 478.366 773.732C478.421 770.264 477.951 765.382 477.712 761.821Z"/><path fill="#AFADB2" d="M548.897 565.09L549.466 565.098L549.763 565.617C546.263 568.475 482.159 589.559 473.868 591.91C473.684 591.652 473.5 591.395 473.316 591.137C476.98 587.948 540.634 567.287 548.897 565.09Z"/><path fill="#F57730" d="M608.761 788.139L609.281 788.197L609.239 788.648C607.262 789.406 605.736 790.032 603.856 791.016C600.817 792.606 596.276 797.269 593.176 797.48C591.96 796.842 591.886 796.779 590.834 795.89C592.924 792.765 604.734 788.891 608.761 788.139Z"/><path fill="#F57730" d="M593.42 780.574L594.859 780.64C593.848 781.734 589.113 783.206 587.134 784.301C583.797 786.146 580.99 788.002 577.82 790.089L576.443 789.161L576.669 788.287C580.644 784.742 588.313 782.009 593.42 780.574Z"/><path d="M479.148 717.818C480.222 722.709 479.685 728.46 479.415 733.512C477.697 730.317 478.31 721.351 479.148 717.818Z"/><path fill="#98552C" d="M575.847 775.031C576.013 775.129 575.909 775.032 576.098 775.534C572.617 777.647 568.81 779.688 565.236 781.679L564.572 781.082C565.772 779.158 573.489 776.059 575.847 775.031Z"/></svg>